<svg width="16" height="16" viewBox="0 0 16 16" fill="none" xmlns="http://www.w3.org/2000/svg">
<path d="M2.11719 11.9023H5.66797V12.7578C5.66797 14.0879 6.40039 14.8145 7.73633 14.8145H13.877C15.2129 14.8145 15.9453 14.0879 15.9453 12.7578V8.69141C15.9453 7.36133 15.2129 6.63477 13.877 6.63477H12.834V3.79297C12.834 2.46875 12.1016 1.73633 10.7656 1.73633H2.11719C0.78125 1.73633 0.0488281 2.46289 0.0488281 3.79297V9.8457C0.0488281 11.1758 0.78125 11.9023 2.11719 11.9023ZM2.28125 10.3906C1.8125 10.3906 1.56055 10.1562 1.56055 9.6582V3.98047C1.56055 3.48242 1.8125 3.25391 2.28125 3.25391H10.6016C11.0703 3.25391 11.3223 3.48242 11.3223 3.98047V6.63477H7.73633C6.40039 6.63477 5.66797 7.36133 5.66797 8.69141V10.3906H2.28125ZM9.22461 12.9277C8.87305 12.9277 8.59766 12.6523 8.59766 12.2949C8.59766 12.1309 8.66797 11.9785 8.78516 11.8555L9.91602 10.7246L8.78516 9.59375C8.66797 9.4707 8.59766 9.31836 8.59766 9.1543C8.59766 8.79688 8.87305 8.52734 9.22461 8.52734C9.41211 8.52734 9.55859 8.58594 9.6875 8.70898L10.8066 9.82812L11.9434 8.70898C12.0723 8.58008 12.2129 8.52148 12.4004 8.52148C12.752 8.52148 13.0332 8.79688 13.0332 9.1543C13.0332 9.31836 12.9629 9.46484 12.8398 9.58789L11.7148 10.7246L12.834 11.8496C12.957 11.9727 13.0273 12.125 13.0273 12.2949C13.0273 12.6523 12.752 12.9277 12.3945 12.9277C12.207 12.9277 12.0547 12.8633 11.9316 12.7402L10.8066 11.627L9.69336 12.7402C9.57031 12.8691 9.41211 12.9277 9.22461 12.9277Z" fill="#383F47"/>
</svg>
