<svg width="24" height="24" viewBox="0 0 24 24" fill="none" xmlns="http://www.w3.org/2000/svg">
<path d="M18.4 19.4C18.4 18.2835 18.4 17.7253 18.2644 17.2711C17.959 16.2484 17.1712 15.448 16.1644 15.1378C15.7173 15 15.1678 15 14.0688 15H10.1313C9.03229 15 8.48279 15 8.03565 15.1378C7.02891 15.448 6.24108 16.2484 5.93569 17.2711C5.80005 17.7253 5.80005 18.2835 5.80005 19.4M15.6438 8.6C15.6438 10.5882 14.0572 12.2 12.1 12.2C10.1429 12.2 8.5563 10.5882 8.5563 8.6C8.5563 6.61177 10.1429 5 12.1 5C14.0572 5 15.6438 6.61177 15.6438 8.6Z" stroke="#383F47" stroke-width="1.5" stroke-linecap="round" stroke-linejoin="round"/>
</svg>
