<svg width="16" height="16" viewBox="0 0 16 16" fill="none" xmlns="http://www.w3.org/2000/svg">
<g clip-path="url(#clip0_3639_6137)">
<path fill-rule="evenodd" clip-rule="evenodd" d="M8.44689 0.151715C8.16536 0.0109516 7.83399 0.0109516 7.55246 0.151715L0.885794 3.48505C0.54701 3.65444 0.333008 4.0007 0.333008 4.37948C0.333008 4.75825 0.54701 5.10451 0.885794 5.2739L7.55246 8.60724C7.83399 8.748 8.16536 8.748 8.44689 8.60724L15.1136 5.2739C15.4523 5.10451 15.6663 4.75825 15.6663 4.37948C15.6663 4.0007 15.4523 3.65444 15.1136 3.48505L8.44689 0.151715ZM0.438556 7.59893C0.685545 7.10496 1.28622 6.90473 1.7802 7.15172L7.99965 10.2614L14.2191 7.15172C14.7131 6.90473 15.3138 7.10496 15.5607 7.59893C15.8077 8.09291 15.6075 8.69359 15.1135 8.94058L8.44686 12.2739C8.16534 12.4147 7.83396 12.4147 7.55244 12.2739L0.885769 8.94058C0.391791 8.69359 0.191566 8.09291 0.438556 7.59893ZM1.7802 10.7262C1.28622 10.4792 0.685545 10.6794 0.438556 11.1734C0.191566 11.6674 0.391791 12.268 0.885769 12.515L7.55244 15.8484C7.83396 15.9891 8.16534 15.9891 8.44686 15.8484L15.1135 12.515C15.6075 12.268 15.8077 11.6674 15.5607 11.1734C15.3138 10.6794 14.7131 10.4792 14.2191 10.7262L7.99965 13.8359L1.7802 10.7262Z" fill="#383F47"/>
</g>
<defs>
<clipPath id="clip0_3639_6137">
<rect width="16" height="16" fill="white"/>
</clipPath>
</defs>
</svg>
