<svg width="32" height="32" viewBox="0 0 32 32" fill="none" xmlns="http://www.w3.org/2000/svg">
<path fill-rule="evenodd" clip-rule="evenodd" d="M5.58331 9.00004C5.58331 7.11307 7.11301 5.58337 8.99998 5.58337H11C12.887 5.58337 14.4166 7.11307 14.4166 9.00004V11C14.4166 12.887 12.887 14.4167 11 14.4167H8.99998C7.11301 14.4167 5.58331 12.887 5.58331 11V9.00004ZM8.99998 7.08337C7.94143 7.08337 7.08331 7.94149 7.08331 9.00004V11C7.08331 12.0586 7.94143 12.9167 8.99998 12.9167H11C12.0585 12.9167 12.9166 12.0586 12.9166 11V9.00004C12.9166 7.94149 12.0585 7.08337 11 7.08337H8.99998ZM18.9166 9.33337C18.9166 8.91916 19.2524 8.58337 19.6666 8.58337H21.9166V6.33337C21.9166 5.91916 22.2524 5.58337 22.6666 5.58337C23.0809 5.58337 23.4166 5.91916 23.4166 6.33337V8.58337H25.6666C26.0809 8.58337 26.4166 8.91916 26.4166 9.33337C26.4166 9.74759 26.0809 10.0834 25.6666 10.0834H23.4166V12.3334C23.4166 12.7476 23.0809 13.0834 22.6666 13.0834C22.2524 13.0834 21.9166 12.7476 21.9166 12.3334V10.0834H19.6666C19.2524 10.0834 18.9166 9.74759 18.9166 9.33337ZM5.58331 21C5.58331 19.113 7.11301 17.5834 8.99998 17.5834H11C12.8869 17.5834 14.4166 19.113 14.4166 21V23C14.4166 24.8871 12.8869 26.4167 11 26.4167H8.99998C7.11301 26.4167 5.58331 24.8871 5.58331 23V21ZM8.99998 19.0834C7.94143 19.0834 7.08331 19.9415 7.08331 21V23C7.08331 24.0586 7.94143 24.9167 8.99998 24.9167H11C12.0585 24.9167 12.9166 24.0586 12.9166 23V21C12.9166 19.9415 12.0585 19.0834 11 19.0834H8.99998ZM21 17.5834C19.113 17.5834 17.5833 19.113 17.5833 21V23C17.5833 24.8871 19.113 26.4167 21 26.4167H23C24.887 26.4167 26.4166 24.8871 26.4166 23V21C26.4166 19.113 24.887 17.5834 23 17.5834H21ZM19.0833 21C19.0833 19.9415 19.9414 19.0834 21 19.0834H23C24.0586 19.0834 24.9166 19.9415 24.9166 21V23C24.9166 24.0586 24.0586 24.9167 23 24.9167H21C19.9414 24.9167 19.0833 24.0586 19.0833 23V21Z" fill="#383F47"/>
</svg>
