<svg width="24" height="24" viewBox="0 0 24 24" fill="none" xmlns="http://www.w3.org/2000/svg">
<path fill-rule="evenodd" clip-rule="evenodd" d="M4 6.75C4 5.23122 5.23122 4 6.75 4H8.25C9.76878 4 11 5.23122 11 6.75V8.25C11 9.76878 9.76878 11 8.25 11H6.75C5.23122 11 4 9.76878 4 8.25V6.75ZM6.75 5.5C6.05964 5.5 5.5 6.05964 5.5 6.75V8.25C5.5 8.94036 6.05964 9.5 6.75 9.5H8.25C8.94036 9.5 9.5 8.94036 9.5 8.25V6.75C9.5 6.05964 8.94036 5.5 8.25 5.5H6.75ZM14 7C14 6.58579 14.3358 6.25 14.75 6.25H16.25V4.75C16.25 4.33579 16.5858 4 17 4C17.4142 4 17.75 4.33579 17.75 4.75V6.25H19.25C19.6642 6.25 20 6.58579 20 7C20 7.41421 19.6642 7.75 19.25 7.75H17.75V9.25C17.75 9.66421 17.4142 10 17 10C16.5858 10 16.25 9.66421 16.25 9.25V7.75H14.75C14.3358 7.75 14 7.41421 14 7ZM4 15.75C4 14.2312 5.23122 13 6.75 13H8.25C9.76878 13 11 14.2312 11 15.75V17.25C11 18.7688 9.76878 20 8.25 20H6.75C5.23122 20 4 18.7688 4 17.25V15.75ZM6.75 14.5C6.05964 14.5 5.5 15.0596 5.5 15.75V17.25C5.5 17.9404 6.05964 18.5 6.75 18.5H8.25C8.94036 18.5 9.5 17.9404 9.5 17.25V15.75C9.5 15.0596 8.94036 14.5 8.25 14.5H6.75ZM15.75 13C14.2312 13 13 14.2312 13 15.75V17.25C13 18.7688 14.2312 20 15.75 20H17.25C18.7688 20 20 18.7688 20 17.25V15.75C20 14.2312 18.7688 13 17.25 13H15.75ZM14.5 15.75C14.5 15.0596 15.0596 14.5 15.75 14.5H17.25C17.9404 14.5 18.5 15.0596 18.5 15.75V17.25C18.5 17.9404 17.9404 18.5 17.25 18.5H15.75C15.0596 18.5 14.5 17.9404 14.5 17.25V15.75Z" fill="#383F47"/>
</svg>
