<svg width="12" height="12" viewBox="0 0 12 12" fill="none" xmlns="http://www.w3.org/2000/svg">
<path d="M6.59453 1.99996L6.59453 8.06836L8.4264 6.23408C8.50009 6.15768 8.58825 6.09674 8.68571 6.05481C8.78318 6.01289 8.88801 5.99082 8.99409 5.9899C9.10017 5.98897 9.20536 6.00921 9.30355 6.04944C9.40173 6.08966 9.49092 6.14906 9.56593 6.22417C9.64095 6.29928 9.70027 6.38859 9.74043 6.4869C9.7806 6.58521 9.80082 6.69055 9.7999 6.79677C9.79897 6.90298 9.77694 7.00795 9.73507 7.10555C9.6932 7.20315 9.63234 7.29142 9.55603 7.36521L6.36046 10.565C6.28625 10.6395 6.19809 10.6986 6.10103 10.7389C6.00397 10.7793 5.89992 10.8 5.79484 10.8C5.68976 10.8 5.58571 10.7793 5.48865 10.7389C5.39159 10.6986 5.30343 10.6395 5.22922 10.565L2.03365 7.36521C1.88385 7.215 1.79978 7.01136 1.79993 6.79908C1.80008 6.5868 1.88444 6.38328 2.03445 6.23328C2.18446 6.08329 2.38783 5.9991 2.59983 5.99925C2.81183 5.9994 3.01508 6.08387 3.16488 6.23408L4.99675 8.06836L4.99675 1.99996C4.99675 1.7878 5.08091 1.58433 5.23074 1.43431C5.38056 1.28429 5.58376 1.20001 5.79564 1.20001C6.00752 1.20001 6.21072 1.28429 6.36054 1.43431C6.51036 1.58433 6.59453 1.7878 6.59453 1.99996V1.99996Z" fill="#383F47"/>
</svg>
