<svg width="16" height="16" viewBox="0 0 16 16" fill="none" xmlns="http://www.w3.org/2000/svg">
<path fill-rule="evenodd" clip-rule="evenodd" d="M12.0265 4.37954C11.9899 4.29108 11.9357 4.2082 11.8637 4.1363C11.7173 3.98985 11.5254 3.91663 11.3334 3.91663H4.66675C4.25253 3.91663 3.91675 4.25241 3.91675 4.66663C3.91675 5.08084 4.25253 5.41663 4.66675 5.41663H9.52275L4.13642 10.803C3.84352 11.0959 3.84352 11.5707 4.13642 11.8636C4.42931 12.1565 4.90418 12.1565 5.19708 11.8636L10.5834 6.47729V11.3333C10.5834 11.7475 10.9192 12.0833 11.3334 12.0833C11.7476 12.0833 12.0834 11.7475 12.0834 11.3333V4.66663C12.0834 4.56493 12.0632 4.46797 12.0265 4.37954Z" fill="#383F47"/>
</svg>
