<svg width="16" height="16" viewBox="0 0 16 16" fill="none" xmlns="http://www.w3.org/2000/svg">
<path d="M3 8.99326H10.586L8.293 11.2831C8.19749 11.3752 8.12131 11.4854 8.0689 11.6072C8.01649 11.7291 7.9889 11.8601 7.98775 11.9927C7.9866 12.1253 8.0119 12.2568 8.06218 12.3795C8.11246 12.5023 8.18671 12.6137 8.2806 12.7075C8.3745 12.8013 8.48615 12.8754 8.60905 12.9256C8.73194 12.9758 8.86362 13.0011 8.9964 13C9.12918 12.9988 9.2604 12.9713 9.3824 12.9189C9.50441 12.8666 9.61475 12.7905 9.707 12.6951L13.707 8.70066C13.8001 8.6079 13.874 8.4977 13.9244 8.37638C13.9748 8.25506 14.0008 8.125 14.0008 7.99364C14.0008 7.86229 13.9748 7.73223 13.9244 7.6109C13.874 7.48958 13.8001 7.37938 13.707 7.28662L9.707 3.29215C9.51923 3.1049 9.26466 2.99981 8.99929 3C8.73393 3.00019 8.47951 3.10564 8.292 3.29315C8.10449 3.48066 7.99926 3.73488 7.99944 3.99988C7.99963 4.26488 8.10523 4.51895 8.293 4.70619L10.586 6.99602H3C2.73478 6.99602 2.48043 7.10124 2.29289 7.28851C2.10536 7.47579 2 7.72979 2 7.99464C2 8.25949 2.10536 8.51349 2.29289 8.70077C2.48043 8.88805 2.73478 8.99326 3 8.99326V8.99326Z" fill="#383F47"/>
</svg>
