<svg width="24" height="24" viewBox="0 0 24 24" fill="none" xmlns="http://www.w3.org/2000/svg">
<path d="M17.0007 12.9933H9.41473L11.7077 15.2831C11.8032 15.3752 11.8794 15.4854 11.9318 15.6072C11.9842 15.7291 12.0118 15.8601 12.013 15.9927C12.0141 16.1253 11.9888 16.2568 11.9386 16.3795C11.8883 16.5023 11.814 16.6137 11.7201 16.7075C11.6262 16.8013 11.5146 16.8754 11.3917 16.9256C11.2688 16.9758 11.1371 17.0011 11.0043 17C10.8716 16.9988 10.7403 16.9713 10.6183 16.9189C10.4963 16.8666 10.386 16.7905 10.2937 16.6951L6.29373 12.7007C6.20061 12.6079 6.12672 12.4977 6.07631 12.3764C6.02589 12.2551 5.99994 12.125 5.99994 11.9936C5.99994 11.8623 6.02589 11.7322 6.07631 11.6109C6.12672 11.4896 6.20061 11.3794 6.29373 11.2866L10.2937 7.29215C10.4815 7.1049 10.7361 6.99981 11.0014 7C11.2668 7.00019 11.5212 7.10564 11.7087 7.29315C11.8962 7.48066 12.0015 7.73488 12.0013 7.99988C12.0011 8.26488 11.8955 8.51895 11.7077 8.70619L9.41473 10.996H17.0007C17.2659 10.996 17.5203 11.1012 17.7078 11.2885C17.8954 11.4758 18.0007 11.7298 18.0007 11.9946C18.0007 12.2595 17.8954 12.5135 17.7078 12.7008C17.5203 12.888 17.2659 12.9933 17.0007 12.9933V12.9933Z" fill="#383F47"/>
</svg>
