<svg width="12" height="12" viewBox="0 0 12 12" fill="none" xmlns="http://www.w3.org/2000/svg">
<path d="M9.80003 6.79461H3.73163L5.56591 8.62647C5.64231 8.70017 5.70325 8.78832 5.74518 8.88579C5.7871 8.98326 5.80917 9.08809 5.81009 9.19416C5.81101 9.30024 5.79077 9.40544 5.75055 9.50362C5.71033 9.6018 5.65093 9.691 5.57582 9.76601C5.50071 9.84102 5.4114 9.90034 5.31309 9.94051C5.21478 9.98068 5.10944 10.0009 5.00322 9.99997C4.89701 9.99905 4.79204 9.97701 4.69444 9.93514C4.59684 9.89327 4.50857 9.83241 4.43478 9.75611L1.23499 6.56053C1.16049 6.48632 1.10139 6.39816 1.06106 6.3011C1.02073 6.20405 0.999975 6.1 0.999975 5.99491C0.999975 5.88983 1.02073 5.78578 1.06106 5.68872C1.10139 5.59167 1.16049 5.50351 1.23499 5.4293L4.43478 2.23372C4.58499 2.08392 4.78863 1.99985 5.00091 2C5.21319 2.00015 5.41671 2.08451 5.56671 2.23452C5.7167 2.38453 5.80089 2.58791 5.80074 2.7999C5.80059 3.0119 5.71611 3.21516 5.56591 3.36496L3.73163 5.19682H9.80003C10.0122 5.19682 10.2157 5.28099 10.3657 5.43081C10.5157 5.58063 10.6 5.78383 10.6 5.99571C10.6 6.20759 10.5157 6.41079 10.3657 6.56062C10.2157 6.71044 10.0122 6.79461 9.80003 6.79461V6.79461Z" fill="#383F47"/>
</svg>
