<svg width="12" height="12" viewBox="0 0 12 12" fill="none" xmlns="http://www.w3.org/2000/svg">
<path d="M5.00532 10L5.00532 3.93164L3.17346 5.76592C3.09976 5.84232 3.01161 5.90326 2.91414 5.94519C2.81667 5.98711 2.71184 6.00918 2.60576 6.0101C2.49969 6.01103 2.39449 5.99079 2.29631 5.95056C2.19813 5.91034 2.10893 5.85094 2.03392 5.77583C1.95891 5.70072 1.89959 5.61141 1.85942 5.5131C1.81925 5.41479 1.79904 5.30945 1.79996 5.20323C1.80088 5.09702 1.82292 4.99205 1.86479 4.89445C1.90666 4.79686 1.96752 4.70859 2.04382 4.63479L5.2394 1.435C5.31361 1.36051 5.40177 1.3014 5.49882 1.26107C5.59588 1.22075 5.69993 1.19999 5.80501 1.19999C5.9101 1.19999 6.01415 1.22075 6.1112 1.26107C6.20826 1.3014 6.29642 1.36051 6.37063 1.435L9.56621 4.63479C9.716 4.785 9.80008 4.98864 9.79993 5.20092C9.79978 5.4132 9.71542 5.61672 9.56541 5.76672C9.4154 5.91671 9.21202 6.0009 9.00002 6.00075C8.78803 6.0006 8.58477 5.91613 8.43497 5.76592L6.60311 3.93164L6.60311 10C6.60311 10.2122 6.51894 10.4157 6.36912 10.5657C6.2193 10.7157 6.01609 10.8 5.80421 10.8C5.59233 10.8 5.38913 10.7157 5.23931 10.5657C5.08949 10.4157 5.00532 10.2122 5.00532 10V10Z" fill="#383F47"/>
</svg>
