<svg width="16" height="16" viewBox="0 0 16 16" fill="none" xmlns="http://www.w3.org/2000/svg">
<path d="M13.0008 8.99326H5.41479L7.70779 11.2831C7.8033 11.3752 7.87949 11.4854 7.93189 11.6072C7.9843 11.7291 8.01189 11.8601 8.01304 11.9927C8.0142 12.1253 7.9889 12.2568 7.93862 12.3795C7.88833 12.5023 7.81408 12.6137 7.72019 12.7075C7.6263 12.8013 7.51464 12.8754 7.39175 12.9256C7.26885 12.9758 7.13717 13.0011 7.00439 13C6.87161 12.9988 6.74039 12.9713 6.61839 12.9189C6.49639 12.8666 6.38604 12.7905 6.29379 12.6951L2.29379 8.70066C2.20067 8.6079 2.12678 8.4977 2.07637 8.37638C2.02596 8.25506 2.00001 8.125 2.00001 7.99364C2.00001 7.86229 2.02596 7.73223 2.07637 7.6109C2.12678 7.48958 2.20067 7.37938 2.29379 7.28662L6.29379 3.29215C6.48157 3.1049 6.73614 2.99981 7.0015 3C7.26686 3.00019 7.52129 3.10564 7.70879 3.29315C7.8963 3.48066 8.00154 3.73488 8.00135 3.99988C8.00116 4.26488 7.89557 4.51895 7.70779 4.70619L5.41479 6.99602H13.0008C13.266 6.99602 13.5204 7.10124 13.7079 7.28851C13.8954 7.47579 14.0008 7.72979 14.0008 7.99464C14.0008 8.25949 13.8954 8.51349 13.7079 8.70077C13.5204 8.88805 13.266 8.99326 13.0008 8.99326V8.99326Z" fill="#383F47"/>
</svg>
