<svg width="12" height="12" viewBox="0 0 12 12" fill="none" xmlns="http://www.w3.org/2000/svg">
<path d="M1.79995 6.79461H7.86835L6.03407 8.62647C5.95767 8.70017 5.89672 8.78832 5.8548 8.88579C5.81288 8.98326 5.79081 9.08809 5.78989 9.19416C5.78896 9.30024 5.8092 9.40544 5.84942 9.50362C5.88965 9.6018 5.94904 9.691 6.02415 9.76601C6.09926 9.84102 6.18858 9.90034 6.28689 9.94051C6.3852 9.98068 6.49054 10.0009 6.59675 9.99997C6.70297 9.99905 6.80794 9.97701 6.90554 9.93514C7.00313 9.89327 7.0914 9.83241 7.1652 9.75611L10.365 6.56053C10.4395 6.48632 10.4986 6.39816 10.5389 6.3011C10.5792 6.20405 10.6 6.1 10.6 5.99491C10.6 5.88983 10.5792 5.78578 10.5389 5.68872C10.4986 5.59167 10.4395 5.50351 10.365 5.4293L7.1652 2.23372C7.01499 2.08392 6.81134 1.99985 6.59907 2C6.38679 2.00015 6.18327 2.08451 6.03327 2.23452C5.88327 2.38453 5.79909 2.58791 5.79924 2.7999C5.79939 3.0119 5.88386 3.21516 6.03407 3.36496L7.86835 5.19682H1.79995C1.58779 5.19682 1.38432 5.28099 1.2343 5.43081C1.08428 5.58063 1 5.78383 1 5.99571C1 6.20759 1.08428 6.41079 1.2343 6.56062C1.38432 6.71044 1.58779 6.79461 1.79995 6.79461V6.79461Z" fill="#383F47"/>
</svg>
