<svg width="32" height="32" viewBox="0 0 32 32" fill="none" xmlns="http://www.w3.org/2000/svg">
<path d="M9.33337 25.6667C10.9902 25.6667 12.3334 24.3235 12.3334 22.6667C12.3334 21.0098 10.9902 19.6667 9.33337 19.6667C7.67652 19.6667 6.33337 21.0098 6.33337 22.6667C6.33337 24.3235 7.67652 25.6667 9.33337 25.6667Z" stroke="#383F47" stroke-width="1.5" stroke-linecap="round" stroke-linejoin="round"/>
<path d="M12.3334 22.6666V8.99998C12.3334 7.52722 13.5272 6.33331 15 6.33331H23C24.4728 6.33331 25.6667 7.52722 25.6667 8.99998V18.6666" stroke="#383F47" stroke-width="1.5" stroke-linecap="round" stroke-linejoin="round"/>
<path d="M22.6666 21.6667C24.3235 21.6667 25.6666 20.3235 25.6666 18.6667C25.6666 17.0098 24.3235 15.6667 22.6666 15.6667C21.0098 15.6667 19.6666 17.0098 19.6666 18.6667C19.6666 20.3235 21.0098 21.6667 22.6666 21.6667Z" stroke="#383F47" stroke-width="1.5" stroke-linecap="round" stroke-linejoin="round"/>
</svg>
