<svg width="24" height="24" viewBox="0 0 24 24" fill="none" xmlns="http://www.w3.org/2000/svg">
<g clip-path="url(#clip0_4424_3108)">
<path d="M12 24C18.5634 24 24 18.575 24 12C24 5.43659 18.5634 0 11.9884 0C5.42498 0 0 5.43659 0 12C0 18.575 5.43659 24 12 24ZM12 21.6418C6.65634 21.6418 2.3698 17.3437 2.3698 12C2.3698 6.65634 6.64472 2.3698 11.9884 2.3698C17.332 2.3698 21.6418 6.65634 21.6418 12C21.6418 17.3437 17.3437 21.6418 12 21.6418ZM9.81607 16.577L16.4956 12.6505C16.9835 12.3601 16.9719 11.6631 16.4956 11.3727L9.81607 7.43466C9.30494 7.13262 8.63117 7.38819 8.63117 7.95741V16.0542C8.63117 16.6234 9.27009 16.9022 9.81607 16.577Z" fill="#A0B6C3"/>
</g>
<defs>
<clipPath id="clip0_4424_3108">
<rect width="24" height="24" fill="white"/>
</clipPath>
</defs>
</svg>
