<svg width="16" height="16" viewBox="0 0 16 16" fill="none" xmlns="http://www.w3.org/2000/svg">
<path d="M10.6667 12L12.6667 14M12.6667 14L14.6667 12M12.6667 14V9.99998M14.6667 6.66665H1.33337M14.6667 7.99998V5.46665C14.6667 4.71991 14.6667 4.34654 14.5214 4.06133C14.3936 3.81044 14.1896 3.60647 13.9387 3.47864C13.6535 3.33331 13.2801 3.33331 12.5334 3.33331H3.46671C2.71997 3.33331 2.3466 3.33331 2.06139 3.47864C1.8105 3.60647 1.60653 3.81044 1.4787 4.06133C1.33337 4.34654 1.33337 4.71991 1.33337 5.46665V10.5333C1.33337 11.28 1.33337 11.6534 1.4787 11.9386C1.60653 12.1895 1.8105 12.3935 2.06139 12.5213C2.3466 12.6666 2.71997 12.6666 3.46671 12.6666H8.00004" stroke="#383F47" stroke-width="1.5" stroke-linecap="round" stroke-linejoin="round"/>
</svg>
