<svg width="32" height="32" viewBox="0 0 32 32" fill="none" xmlns="http://www.w3.org/2000/svg">
<path d="M13.6016 24.9434C14.1191 24.9434 14.5098 24.7285 14.793 24.3086L23.9727 9.99219C24.1777 9.67969 24.2559 9.40625 24.2559 9.14258C24.2559 8.46875 23.7871 8 23.1035 8C22.625 8 22.3418 8.16602 22.0488 8.625L13.5625 22.1016L9.1875 16.4863C8.9043 16.1055 8.61133 15.9492 8.18164 15.9492C7.49805 15.9492 7 16.4375 7 17.1113C7 17.4043 7.10742 17.6875 7.35156 17.9902L12.4102 24.3184C12.752 24.7383 13.1133 24.9434 13.6016 24.9434Z" fill="#383F47"/>
</svg>
