<svg width="24" height="24" viewBox="0 0 24 24" fill="none" xmlns="http://www.w3.org/2000/svg">
<path d="M12 24C18.581 24 24 18.581 24 12C24 5.43049 18.5695 0 11.9885 0C5.41898 0 0 5.43049 0 12C0 18.581 5.41898 24 12 24ZM10.7229 17.7181C10.2512 17.7181 9.88303 17.511 9.53787 17.0853L6.7651 13.7488C6.53499 13.4612 6.43145 13.185 6.43145 12.8744C6.43145 12.2301 6.93768 11.7124 7.58197 11.7124C7.96165 11.7124 8.26079 11.8619 8.55992 12.2301L10.6884 14.8993L15.325 7.48993C15.6011 7.06424 15.9463 6.83413 16.349 6.83413C16.9703 6.83413 17.5455 7.28284 17.5455 7.92713C17.5455 8.20326 17.4075 8.5139 17.2349 8.77852L11.8619 17.0738C11.5858 17.488 11.1831 17.7181 10.7229 17.7181Z" fill="#383F47"/>
<path d="M10.7229 17.7181C10.2511 17.7181 9.88298 17.511 9.53782 17.0853L6.76505 13.7488C6.53494 13.4611 6.4314 13.185 6.4314 12.8744C6.4314 12.2301 6.93763 11.7123 7.58192 11.7123C7.9616 11.7123 8.26074 11.8619 8.55987 12.2301L10.6883 14.8993L15.325 7.48991C15.6011 7.06421 15.9463 6.83411 16.3489 6.83411C16.9702 6.83411 17.5455 7.28281 17.5455 7.92711C17.5455 8.20323 17.4074 8.51388 17.2348 8.7785L11.8619 17.0738C11.5858 17.488 11.1831 17.7181 10.7229 17.7181Z" fill="white"/>
</svg>
