<svg width="16" height="16" viewBox="0 0 16 16" fill="none" xmlns="http://www.w3.org/2000/svg">
<path d="M12.4433 3.2811L6.6629 9.58286L4.55667 7.28667C4.38343 7.10426 4.15141 7.00332 3.91057 7.0056C3.66973 7.00788 3.43934 7.1132 3.26904 7.29887C3.09873 7.48453 3.00213 7.73569 3.00003 7.99825C2.99794 8.26082 3.09053 8.51377 3.25785 8.70263L6.01349 11.7068C6.18574 11.8945 6.41934 12 6.6629 12C6.90647 12 7.14006 11.8945 7.31232 11.7068L13.7422 4.69707C13.9095 4.5082 14.0021 4.25525 14 3.99269C13.9979 3.73013 13.9013 3.47897 13.731 3.2933C13.5607 3.10763 13.3303 3.00232 13.0894 3.00004C12.8486 2.99776 12.6166 3.09869 12.4433 3.2811V3.2811Z" fill="#383F47"/>
</svg>
