<svg width="24" height="24" viewBox="0 0 24 24" fill="none" xmlns="http://www.w3.org/2000/svg">
<path d="M7.56934 12.2617C7.56934 12.6035 7.69922 12.8906 7.97266 13.1572L13.1475 18.2158C13.3525 18.4209 13.5986 18.5234 13.8994 18.5234C14.5078 18.5234 15 18.0381 15 17.4365C15 17.1426 14.877 16.8623 14.6514 16.6367L10.1396 12.2686L14.6514 7.89355C14.877 7.66797 15 7.3877 15 7.08691C15 6.48535 14.5078 6 13.8994 6C13.6055 6 13.3594 6.10254 13.1475 6.30762L7.97266 11.3662C7.69238 11.6465 7.56934 11.9268 7.56934 12.2617Z" fill="#383F47"/>
</svg>
