<svg width="24" height="24" viewBox="0 0 24 24" fill="none" xmlns="http://www.w3.org/2000/svg">
<path d="M6.65517 6C5.74105 6 5 6.86455 5 7.93103V17.069C5 18.1354 5.74105 19 6.65517 19H15.3448C16.259 19 17 18.1354 17 17.069V7.93103C17 6.86455 16.259 6 15.3448 6" stroke="#383F47" stroke-width="1.5" stroke-linecap="round" stroke-linejoin="round"/>
<path d="M7 5.625C7 5.00368 7.67157 4.5 8.5 4.5H13.5C14.3284 4.5 15 5.00368 15 5.625V6.375C15 6.99632 14.3284 7.5 13.5 7.5H8.5C7.67157 7.5 7 6.99632 7 6.375V5.625Z" stroke="#383F47" stroke-width="1.5" stroke-linecap="round" stroke-linejoin="round"/>
</svg>
