<svg xmlns="http://www.w3.org/2000/svg" width="16" height="18" viewBox="0 0 16 18" fill="none">
<path d="M4 3H2.93103C1.86455 3 1 3.86455 1 4.93103V15.069C1 16.1354 1.86455 17 2.93103 17H13.069C14.1354 17 15 16.1354 15 15.069V4.93103C15 3.86455 14.1354 3 13.069 3H12" stroke="#A0B6C3" stroke-width="1.5" stroke-linecap="round" stroke-linejoin="round"/>
<path d="M4 2.5C4 1.67157 4.67157 1 5.5 1H10.5C11.3284 1 12 1.67157 12 2.5V3.5C12 4.32843 11.3284 5 10.5 5H5.5C4.67157 5 4 4.32843 4 3.5V2.5Z" stroke="#A0B6C3" stroke-width="1.5" stroke-linecap="round" stroke-linejoin="round"/>
</svg>