<svg width="16" height="16" viewBox="0 0 16 16" fill="none" xmlns="http://www.w3.org/2000/svg">
<path fill-rule="evenodd" clip-rule="evenodd" d="M2.74988 3.65514C2.74988 3.15521 3.15515 2.74994 3.65507 2.74994H12.3449C12.8448 2.74994 13.2501 3.15521 13.2501 3.65514V12.3449C13.2501 12.8448 12.8448 13.2501 12.3449 13.2501H3.65507C3.15515 13.2501 2.74988 12.8448 2.74988 12.3449V3.65514ZM3.65507 1.24994C2.32672 1.24994 1.24988 2.32678 1.24988 3.65514V12.3449C1.24988 13.6733 2.32672 14.7501 3.65507 14.7501H12.3449C13.6732 14.7501 14.7501 13.6733 14.7501 12.3449V3.65514C14.7501 2.32678 13.6732 1.24994 12.3449 1.24994H3.65507ZM5.81209 6.40806C5.50421 6.13096 5.02999 6.15592 4.7529 6.4638C4.47581 6.77169 4.50077 7.2459 4.80865 7.523L6.25823 8.82762L4.80865 10.1322C4.50077 10.4093 4.47581 10.8836 4.7529 11.1914C5.02999 11.4993 5.50421 11.5243 5.81209 11.2472L7.88109 9.38509C8.03913 9.24286 8.12937 9.04024 8.12937 8.82762C8.12937 8.61501 8.03913 8.41238 7.88109 8.27015L5.81209 6.40806Z" fill="#383F47"/>
</svg>
