<svg width="24" height="24" viewBox="0 0 24 24" fill="none" xmlns="http://www.w3.org/2000/svg">
<path fill-rule="evenodd" clip-rule="evenodd" d="M14 4C12.4921 4 11.0958 4.20263 10.0505 4.55105C9.53181 4.72395 9.05794 4.94637 8.69834 5.22976C8.3472 5.5065 8 5.93008 8 6.5V9.25C8 9.66421 8.33579 10 8.75 10C9.16421 10 9.5 9.66421 9.5 9.25V8.23758C9.67514 8.31511 9.8598 8.38538 10.0505 8.44895C11.0958 8.79737 12.4921 9 14 9C15.5079 9 16.9042 8.79737 17.9495 8.44895L18.0084 8.42904L17.2713 11.4561C17.2051 11.728 17.2958 12.0141 17.5065 12.1983C17.7173 12.3824 18.013 12.4339 18.2736 12.3318C18.7083 12.1615 19.1098 11.9468 19.4156 11.6749C19.7201 11.4043 20 11.0096 20 10.5V6.5C20 5.93008 19.6528 5.5065 19.3017 5.22976C18.9421 4.94637 18.4682 4.72395 17.9495 4.55105C16.9042 4.20263 15.5079 4 14 4ZM14 5.5C14.9825 5.5 15.8839 5.59428 16.6297 5.75H11.3703C12.1161 5.59428 13.0175 5.5 14 5.5ZM14 7.5C13.0175 7.5 12.1161 7.40572 11.3703 7.25H16.6297C15.8839 7.40572 14.9825 7.5 14 7.5ZM10 11C8.49208 11 7.09578 11.2026 6.05052 11.5511C5.53181 11.724 5.05794 11.9464 4.69834 12.2298C4.3472 12.5065 4 12.9301 4 13.5V17.5C4 18.0699 4.3472 18.4935 4.69834 18.7702C5.05794 19.0536 5.53181 19.276 6.05052 19.4489C7.09578 19.7974 8.49208 20 10 20C11.5079 20 12.9042 19.7974 13.9495 19.4489C14.4682 19.276 14.9421 19.0536 15.3017 18.7702C15.6528 18.4935 16 18.0699 16 17.5V13.5C16 12.9301 15.6528 12.5065 15.3017 12.2298C14.9421 11.9464 14.4682 11.724 13.9495 11.5511C12.9042 11.2026 11.5079 11 10 11ZM5.5 17.4671V15.2376C5.67514 15.3151 5.8598 15.3854 6.05052 15.4489C7.09578 15.7974 8.49208 16 10 16C11.5079 16 12.9042 15.7974 13.9495 15.4489C14.1402 15.3854 14.3249 15.3151 14.5 15.2376V17.4671C14.4868 17.4872 14.4528 17.5294 14.3732 17.5921C14.2015 17.7275 13.9065 17.8821 13.4751 18.0259C12.6203 18.3109 11.3916 18.5 10 18.5C8.60843 18.5 7.37973 18.3109 6.52486 18.0259C6.09351 17.8821 5.79853 17.7275 5.6268 17.5921C5.54718 17.5294 5.51317 17.4872 5.5 17.4671ZM7.37027 12.75H12.6297C11.8839 12.5943 10.9825 12.5 10 12.5C9.01748 12.5 8.11615 12.5943 7.37027 12.75ZM10 14.5C10.9825 14.5 11.8839 14.4057 12.6297 14.25H7.37027C8.11615 14.4057 9.01748 14.5 10 14.5ZM14.5074 17.4535C14.5075 17.4536 14.507 17.455 14.5056 17.4578C14.5065 17.4549 14.5072 17.4535 14.5074 17.4535ZM5.49263 17.4535C5.49276 17.4535 5.49349 17.4549 5.49445 17.4578C5.49298 17.455 5.4925 17.4536 5.49263 17.4535Z" fill="#383F47"/>
</svg>
