<svg width="16" height="16" viewBox="0 0 16 16" fill="none" xmlns="http://www.w3.org/2000/svg">
<path fill-rule="evenodd" clip-rule="evenodd" d="M6.5 2.25C5.25736 2.25 4.25 3.25736 4.25 4.5H5.75C5.75 4.08579 6.08579 3.75 6.5 3.75H11C11.6904 3.75 12.25 4.30964 12.25 5V9.5C12.25 9.91421 11.9142 10.25 11.5 10.25V11.75C12.7426 11.75 13.75 10.7426 13.75 9.5V5C13.75 3.48122 12.5188 2.25 11 2.25H6.5ZM3.5 7C3.5 6.72386 3.72386 6.5 4 6.5H9C9.27614 6.5 9.5 6.72386 9.5 7V12C9.5 12.2761 9.27614 12.5 9 12.5H4C3.72386 12.5 3.5 12.2761 3.5 12V7ZM2 7C2 5.89543 2.89543 5 4 5H9C10.1046 5 11 5.89543 11 7V12C11 13.1046 10.1046 14 9 14H4C2.89543 14 2 13.1046 2 12V7Z" fill="#383F47"/>
</svg>
