<svg width="12" height="12" viewBox="0 0 12 12" fill="none" xmlns="http://www.w3.org/2000/svg">
<path fill-rule="evenodd" clip-rule="evenodd" d="M5.5 0.75C4.5335 0.75 3.75 1.5335 3.75 2.5H5.25C5.25 2.36193 5.36193 2.25 5.5 2.25H8.5C9.19036 2.25 9.75 2.80964 9.75 3.5V6.5C9.75 6.63807 9.63807 6.75 9.5 6.75V8.25C10.4665 8.25 11.25 7.4665 11.25 6.5V3.5C11.25 1.98122 10.0188 0.75 8.5 0.75H5.5ZM2.5 5H6.5C6.77614 5 7 5.22386 7 5.5V9.5C7 9.77614 6.77614 10 6.5 10H2.5C2.22386 10 2 9.77614 2 9.5V5.5C2 5.22386 2.22386 5 2.5 5ZM0.5 5.5C0.5 4.39543 1.39543 3.5 2.5 3.5H6.5C7.60457 3.5 8.5 4.39543 8.5 5.5V9.5C8.5 10.6046 7.60457 11.5 6.5 11.5H2.5C1.39543 11.5 0.5 10.6046 0.5 9.5V5.5Z" fill="#383F47"/>
</svg>
