<svg width="16" height="16" viewBox="0 0 16 16" fill="none" xmlns="http://www.w3.org/2000/svg">
<path d="M2.75 4.5H3.91667H13.25" stroke="#383F47" stroke-width="1.5" stroke-linecap="round" stroke-linejoin="round"/>
<path d="M12.0833 4.50002V12.6667C12.0833 12.9761 11.9604 13.2729 11.7416 13.4916C11.5228 13.7104 11.226 13.8334 10.9166 13.8334H5.08329C4.77387 13.8334 4.47713 13.7104 4.25833 13.4916C4.03954 13.2729 3.91663 12.9761 3.91663 12.6667V4.50002M5.66663 4.50002V3.33335C5.66663 3.02393 5.78954 2.72719 6.00834 2.5084C6.22713 2.2896 6.52387 2.16669 6.83329 2.16669H9.16663C9.47605 2.16669 9.77279 2.2896 9.99158 2.5084C10.2104 2.72719 10.3333 3.02393 10.3333 3.33335V4.50002" stroke="#383F47" stroke-width="1.5" stroke-linecap="round" stroke-linejoin="round"/>
</svg>
