<svg width="16" height="16" viewBox="0 0 16 16" fill="none" xmlns="http://www.w3.org/2000/svg">
<path fill-rule="evenodd" clip-rule="evenodd" d="M9 2C9 1.44772 8.55228 1 8 1C7.44772 1 7 1.44772 7 2V7.58582L5.37373 5.95955C4.98321 5.56903 4.35004 5.56903 3.95952 5.95955C3.56899 6.35007 3.56899 6.98324 3.95952 7.37376L7.29285 10.7071C7.39026 10.8045 7.50276 10.8776 7.62283 10.9264C7.73922 10.9739 7.86656 11 8 11C8.1478 11 8.28811 10.9679 8.41436 10.9104C8.49531 10.8735 8.57236 10.8254 8.6431 10.7658C8.66747 10.7453 8.69084 10.7237 8.71314 10.701L12.0404 7.37376C12.4309 6.98324 12.4309 6.35007 12.0404 5.95955C11.6499 5.56903 11.0167 5.56903 10.6262 5.95955L9 7.58574V2ZM2 9C2.55228 9 3 9.44771 3 10V12.6667C3 12.7551 3.03512 12.8399 3.09763 12.9024C3.16014 12.9649 3.24493 13 3.33333 13H12.6667C12.7551 13 12.8399 12.9649 12.9024 12.9024C12.9649 12.8399 13 12.7551 13 12.6667V10C13 9.44771 13.4477 9 14 9C14.5523 9 15 9.44771 15 10V12.6667C15 13.2855 14.7542 13.879 14.3166 14.3166C13.879 14.7542 13.2855 15 12.6667 15H3.33333C2.71449 15 2.121 14.7542 1.68342 14.3166C1.24583 13.879 1 13.2855 1 12.6667V10C1 9.44771 1.44772 9 2 9Z" fill="#383F47"/>
</svg>
