<svg width="32" height="32" viewBox="0 0 32 32" fill="none" xmlns="http://www.w3.org/2000/svg">
<path d="M16 26.0371C21.5176 26.0371 26.0879 21.4766 26.0879 15.9492C26.0879 10.4316 21.5176 5.86133 15.9902 5.86133C10.4727 5.86133 5.91211 10.4316 5.91211 15.9492C5.91211 21.4766 10.4824 26.0371 16 26.0371ZM12.543 20.3926C11.9961 20.3926 11.6055 19.9629 11.6055 19.4355C11.6055 19.1816 11.7227 18.9082 11.9668 18.6738L18.6855 11.877C18.9102 11.6328 19.1641 11.5156 19.4375 11.5156C19.9648 11.5156 20.3945 11.9355 20.3945 12.4727C20.3945 12.7266 20.2676 13 20.0332 13.2246L13.3145 20.0312C13.0801 20.2656 12.8457 20.3926 12.543 20.3926Z" fill="#383F47"/>
</svg>
