<svg width="16" height="16" viewBox="0 0 16 16" fill="none" xmlns="http://www.w3.org/2000/svg">
<path d="M1 4C1 3.44772 1.28491 3 1.63636 3H14.3636C14.7151 3 15 3.44772 15 4C15 4.55228 14.7151 5 14.3636 5H1.63636C1.28491 5 1 4.55228 1 4Z" fill="#383F47"/>
<path d="M2.90909 8C2.90909 7.44772 3.194 7 3.54545 7H12.4545C12.806 7 13.0909 7.44772 13.0909 8C13.0909 8.55228 12.806 9 12.4545 9H3.54545C3.194 9 2.90909 8.55228 2.90909 8Z" fill="#383F47"/>
<path d="M4.81818 12C4.81818 11.4477 5.10309 11 5.45455 11H10.5455C10.8969 11 11.1818 11.4477 11.1818 12C11.1818 12.5523 10.8969 13 10.5455 13H5.45455C5.10309 13 4.81818 12.5523 4.81818 12Z" fill="#383F47"/>
</svg>
