<svg width="12" height="12" viewBox="0 0 12 12" fill="none" xmlns="http://www.w3.org/2000/svg">
<path d="M1 3.7C1 3.3134 1.20351 3 1.45455 3H10.5455C10.7965 3 11 3.3134 11 3.7C11 4.0866 10.7965 4.4 10.5455 4.4H1.45455C1.20351 4.4 1 4.0866 1 3.7Z" fill="#383F47"/>
<path d="M2.36364 6.5C2.36364 6.1134 2.56714 5.8 2.81818 5.8H9.18182C9.43286 5.8 9.63636 6.1134 9.63636 6.5C9.63636 6.8866 9.43286 7.2 9.18182 7.2H2.81818C2.56714 7.2 2.36364 6.8866 2.36364 6.5Z" fill="#383F47"/>
<path d="M3.72727 9.3C3.72727 8.9134 3.93078 8.6 4.18182 8.6H7.81818C8.06922 8.6 8.27273 8.9134 8.27273 9.3C8.27273 9.6866 8.06922 10 7.81818 10H4.18182C3.93078 10 3.72727 9.6866 3.72727 9.3Z" fill="#383F47"/>
</svg>
