<svg width="16" height="16" viewBox="0 0 16 16" fill="none" xmlns="http://www.w3.org/2000/svg">
<g clip-path="url(#clip0_4045_3068)">
<path d="M8 16C12.3765 16 16 12.3765 16 8C16 3.63137 12.3686 0 7.99216 0C3.62353 0 0 3.63137 0 8C0 12.3765 3.63137 16 8 16ZM4.92549 12.3451C4.72157 12.3451 4.54118 12.1725 4.54118 11.9686V5.18431C4.54118 4.83922 4.71373 4.58824 5.04314 4.43922C5.33333 4.29804 5.58431 4.22745 6.21961 4.22745C7.67059 4.22745 8.58824 4.94902 9.96078 4.94902C10.6275 4.94902 10.9804 4.77647 11.2157 4.77647C11.5451 4.77647 11.6706 4.94902 11.6706 5.19216V9.16863C11.6706 9.53726 11.5137 9.77255 11.1765 9.93725C10.8706 10.0706 10.6196 10.1333 10 10.1333C8.60392 10.1333 7.69412 9.42745 6.25882 9.42745C5.75686 9.42745 5.44314 9.52157 5.28627 9.58431V11.9686C5.28627 12.1804 5.1451 12.3451 4.92549 12.3451Z" fill="#383F47"/>
</g>
<defs>
<clipPath id="clip0_4045_3068">
<rect width="16" height="16" fill="white"/>
</clipPath>
</defs>
</svg>
