<svg width="32" height="32" viewBox="0 0 32 32" fill="none" xmlns="http://www.w3.org/2000/svg">
<path fill-rule="evenodd" clip-rule="evenodd" d="M7.08337 16C7.08337 11.0754 11.0755 7.08331 16 7.08331C20.9246 7.08331 24.9167 11.0754 24.9167 16C24.9167 20.9245 20.9246 24.9166 16 24.9166C11.0755 24.9166 7.08337 20.9245 7.08337 16ZM16 5.58331C10.2471 5.58331 5.58337 10.247 5.58337 16C5.58337 21.7529 10.2471 26.4166 16 26.4166C21.753 26.4166 26.4167 21.7529 26.4167 16C26.4167 10.247 21.753 5.58331 16 5.58331ZM16.75 10.6666C16.75 10.2524 16.4143 9.91665 16 9.91665C15.5858 9.91665 15.25 10.2524 15.25 10.6666V16V16.3106L15.4697 16.5303L18.1364 19.197C18.4293 19.4899 18.9041 19.4899 19.197 19.197C19.4899 18.9041 19.4899 18.4292 19.197 18.1363L16.75 15.6893V10.6666Z" fill="#383F47"/>
</svg>
