<svg width="16" height="16" viewBox="0 0 16 16" fill="none" xmlns="http://www.w3.org/2000/svg">
<path fill-rule="evenodd" clip-rule="evenodd" d="M1.25003 3.65517C1.25003 2.32683 2.32686 1.25 3.6552 1.25H12.3449C13.6732 1.25 14.75 2.32684 14.75 3.65517V12.3448C14.75 13.6732 13.6732 14.75 12.3449 14.75H3.6552C2.32687 14.75 1.25003 13.6732 1.25003 12.3448V11.3168C1.24999 11.3121 1.24999 11.3075 1.25003 11.3029V3.65517ZM2.75003 11.5698V12.3448C2.75003 12.8448 3.15528 13.25 3.6552 13.25H12.3449C12.8448 13.25 13.25 12.8448 13.25 12.3448V8.72416C13.2412 8.71492 13.2326 8.7054 13.2242 8.69562L11.2261 6.36968C10.8556 5.93843 10.1844 5.95167 9.83107 6.39601L9.82748 6.40074L9.82745 6.40072L9.81185 6.4209C9.67376 6.59941 8.82908 7.69141 8.07217 8.65931L9.39652 10.2009C9.66643 10.5151 9.63054 10.9886 9.31634 11.2586C9.00215 11.5285 8.52863 11.4926 8.25872 11.1784L6.54322 9.18144C6.53601 9.1734 6.52899 9.16524 6.52218 9.15695L6.26059 8.85245L6.26059 8.85244C5.88897 8.41985 5.21479 8.43452 4.86237 8.88284L4.86236 8.88286L2.75003 11.5698ZM7.04466 7.53808C6.02633 6.74819 4.51632 6.8959 3.68311 7.95583L2.75003 9.14276V3.65517C2.75003 3.15526 3.15529 2.75 3.6552 2.75H12.3449C12.8448 2.75 13.25 3.15525 13.25 3.65517V6.42372L12.3639 5.39222L12.3639 5.3922C11.3786 4.24533 9.59304 4.28166 8.65476 5.46526L8.65365 5.46666C8.64956 5.47185 8.64475 5.47801 8.63938 5.48503L8.62558 5.50287C8.49678 5.66939 7.75546 6.62775 7.04466 7.53808Z" fill="#383F47"/>
</svg>
