<svg width="12" height="12" viewBox="0 0 12 12" fill="none" xmlns="http://www.w3.org/2000/svg">
<path fill-rule="evenodd" clip-rule="evenodd" d="M6 2.75C4.20507 2.75 2.75 4.20507 2.75 6C2.75 7.79493 4.20507 9.25 6 9.25C7.79493 9.25 9.25 7.79493 9.25 6C9.25 4.20507 7.79493 2.75 6 2.75ZM1.25 6C1.25 3.37665 3.37665 1.25 6 1.25C8.62335 1.25 10.75 3.37665 10.75 6C10.75 8.62335 8.62335 10.75 6 10.75C3.37665 10.75 1.25 8.62335 1.25 6ZM6 5.25C6.41421 5.25 6.75 5.58579 6.75 6V8C6.75 8.41421 6.41421 8.75 6 8.75C5.58579 8.75 5.25 8.41421 5.25 8V6C5.25 5.58579 5.58579 5.25 6 5.25ZM6 3.25C5.58579 3.25 5.25 3.58579 5.25 4C5.25 4.41421 5.58579 4.75 6 4.75H6.00375C6.41796 4.75 6.75375 4.41421 6.75375 4C6.75375 3.58579 6.41796 3.25 6.00375 3.25H6Z" fill="#383F47"/>
</svg>
