<svg width="16" height="16" viewBox="0 0 16 16" fill="none" xmlns="http://www.w3.org/2000/svg">
<g clip-path="url(#clip0_4245_3109)">
<path d="M4.4502 13.8799H11.1152C12.209 13.8799 12.7695 13.3125 12.7695 12.1162V7.03711C12.7695 5.97754 12.3184 5.41016 11.4297 5.30762V3.73535C11.4297 1.29492 9.78223 -0.106445 7.7793 -0.106445C5.77637 -0.106445 4.13574 1.29492 4.13574 3.73535V5.30762C3.24023 5.41016 2.78906 5.97754 2.78906 7.03711V12.1162C2.78906 13.3125 3.34961 13.8799 4.4502 13.8799ZM5.7627 3.65332C5.7627 2.27246 6.6582 1.46582 7.7793 1.46582C8.90039 1.46582 9.80957 2.27246 9.80957 3.65332L9.80273 5.28711H5.75586L5.7627 3.65332ZM4.92871 12.3145C4.66211 12.3145 4.51172 12.1641 4.51172 11.8564V7.30371C4.51172 7.00293 4.66211 6.85254 4.92871 6.85254H10.6367C10.9033 6.85254 11.0469 7.00293 11.0469 7.30371V11.8564C11.0469 12.1641 10.9033 12.3145 10.6367 12.3145H4.92871Z" fill="#383F47"/>
</g>
<defs>
<clipPath id="clip0_4245_3109">
<rect width="16" height="16" fill="white"/>
</clipPath>
</defs>
</svg>
