<svg width="24" height="24" viewBox="0 0 24 24" fill="none" xmlns="http://www.w3.org/2000/svg">
<path d="M7.56348 20.0479C6.27148 20.0479 5.58594 19.3447 5.58594 17.9561V11.9004C5.58594 10.6787 6.12207 9.99316 7.12402 9.84375V7.7168C7.12402 4.41211 9.28613 2.8125 11.5801 2.8125C13.8828 2.8125 16.0449 4.41211 16.0449 7.7168V9.84375C17.0557 9.99316 17.583 10.6875 17.583 11.9004V17.9561C17.583 19.3447 16.8975 20.0479 15.6055 20.0479H7.56348ZM8.52148 7.53223V9.81738H14.6562V7.53223C14.6562 5.30859 13.2236 4.13965 11.5801 4.13965C9.93652 4.13965 8.52148 5.30859 8.52148 7.53223ZM7.60742 18.7207H15.5615C15.9482 18.7207 16.1592 18.4834 16.1592 18.0527V11.8037C16.1592 11.373 15.9482 11.1445 15.5615 11.1445H7.60742C7.22949 11.1445 7.00977 11.373 7.00977 11.8037V18.0527C7.00977 18.4834 7.22949 18.7207 7.60742 18.7207Z" fill="#383F47"/>
</svg>
