<svg width="16" height="16" viewBox="0 0 16 16" fill="none" xmlns="http://www.w3.org/2000/svg">
<g clip-path="url(#clip0_4261_3109)">
<path d="M3.4043 13.9277H10.0693C11.1631 13.9277 11.7236 13.3604 11.7236 12.1641V7.0918C11.7236 6.0459 11.2861 5.47852 10.4248 5.3623V3.74219C10.4248 2.33398 11.3135 1.52051 12.4414 1.52051C13.5693 1.52051 14.458 2.33398 14.458 3.74219V5.0752C14.458 5.66992 14.8135 5.99805 15.2783 5.99805C15.7432 5.99805 16.0986 5.68359 16.0986 5.0752V3.85156C16.0986 1.21973 14.2939 -0.0585938 12.4414 -0.0585938C10.5889 -0.0585938 8.79102 1.21973 8.79102 3.85156V5.33496H3.4043C2.30371 5.33496 1.74316 5.90918 1.74316 7.0918V12.1641C1.74316 13.3604 2.30371 13.9277 3.4043 13.9277ZM3.88281 12.3623C3.61621 12.3623 3.46582 12.2119 3.46582 11.9043V7.35156C3.46582 7.05078 3.61621 6.90039 3.88281 6.90039H9.59082C9.85742 6.90039 10.001 7.05078 10.001 7.35156V11.9043C10.001 12.2119 9.85742 12.3623 9.59082 12.3623H3.88281Z" fill="#383F47"/>
</g>
<defs>
<clipPath id="clip0_4261_3109">
<rect width="16" height="16" fill="white"/>
</clipPath>
</defs>
</svg>
