<svg width="16" height="16" viewBox="0 0 16 16" fill="none" xmlns="http://www.w3.org/2000/svg">
<path d="M15.6801 8.17778C15.6801 7.52001 15.6267 7.04001 15.5112 6.54224H8.00006V9.5111H12.4089C12.3201 10.2489 11.8401 11.36 10.7734 12.1067L10.7584 12.206L13.1333 14.0458L13.2979 14.0623C14.8089 12.6667 15.6801 10.6133 15.6801 8.17778Z" fill="#4285F4"/>
<path d="M8.00005 15.9999C10.16 15.9999 11.9733 15.2888 13.2978 14.0622L10.7734 12.1066C10.0978 12.5777 9.19114 12.9066 8.00005 12.9066C5.8845 12.9066 4.08895 11.511 3.44888 9.58215L3.35507 9.59012L0.885627 11.5012L0.853333 11.591C2.16888 14.2043 4.87112 15.9999 8.00005 15.9999Z" fill="#34A853"/>
<path d="M3.44887 9.5823C3.27998 9.08453 3.18224 8.55115 3.18224 8.00007C3.18224 7.44892 3.27998 6.9156 3.43998 6.41783L3.43551 6.31182L0.935124 4.37L0.853316 4.40891C0.311116 5.49337 0 6.71118 0 8.00007C0 9.28896 0.311116 10.5067 0.853316 11.5912L3.44887 9.5823Z" fill="#FBBC05"/>
<path d="M8.00005 3.09332C9.50225 3.09332 10.5156 3.74221 11.0934 4.28447L13.3512 2.08001C11.9645 0.791117 10.16 0 8.00005 0C4.87112 0 2.16888 1.79555 0.853333 4.40887L3.44 6.41779C4.08895 4.4889 5.8845 3.09332 8.00005 3.09332Z" fill="#EB4335"/>
</svg>
