<svg width="24" height="24" viewBox="0 0 24 24" fill="none" xmlns="http://www.w3.org/2000/svg">
<path fill-rule="evenodd" clip-rule="evenodd" d="M9.25 11.25C8.83579 11.25 8.5 11.5858 8.5 12C8.5 12.4142 8.83579 12.75 9.25 12.75L16.8401 12.75L14.7397 14.7004C14.4361 14.9823 14.4186 15.4568 14.7004 15.7603C14.9823 16.0639 15.4568 16.0814 15.7603 15.7996L19.2586 12.5512C19.2707 12.54 19.2825 12.5284 19.2939 12.5164C19.4216 12.3819 19.5 12.2001 19.5 12C19.5 11.7906 19.4142 11.6012 19.2758 11.4652C19.2701 11.4596 19.2644 11.4541 19.2585 11.4487L15.7603 8.2004C15.4568 7.91855 14.9823 7.93613 14.7004 8.23966C14.4186 8.54319 14.4361 9.01774 14.7397 9.29959L16.8401 11.25L9.25 11.25Z" fill="#383F47"/>
<path d="M9.5 4.75H8C6.3431 4.75 5 6.09315 5 7.75L5 16.25C5 17.9069 6.3431 19.25 8 19.25H9.5" stroke="#383F47" stroke-width="1.5" stroke-linecap="round" stroke-linejoin="round"/>
</svg>
