<svg width="16" height="16" viewBox="0 0 16 16" fill="none" xmlns="http://www.w3.org/2000/svg">
<path d="M16 7.99621C16 12.3881 12.3939 16 8 16C3.61364 16 0 12.3881 0 7.99621C0 3.61193 3.60606 0 8 0C12.3864 0 16 3.61193 16 7.99621Z" fill="white"/>
<path d="M8 16C12.3939 16 16 12.3881 16 7.99621C16 3.61193 12.3864 0 8 0C3.60606 0 0 3.61193 0 7.99621C0 12.3881 3.61364 16 8 16ZM5.68182 11.1841C5.25758 11.1841 5.0303 10.9342 5.0303 10.5556V5.42925C5.0303 5.05821 5.25758 4.80833 5.68182 4.80833H6.59849C7.02273 4.80833 7.25 5.05821 7.25 5.42925V10.5556C7.25 10.9342 7.02273 11.1841 6.59849 11.1841H5.68182ZM9.41667 11.1841C8.98485 11.1841 8.75758 10.9342 8.75758 10.5556V5.42925C8.75758 5.05821 8.98485 4.80833 9.41667 4.80833H10.3258C10.75 4.80833 10.9773 5.05821 10.9773 5.42925V10.5556C10.9773 10.9342 10.75 11.1841 10.3258 11.1841H9.41667Z" fill="#383F47"/>
</svg>
