<svg width="16" height="16" viewBox="0 0 16 16" fill="none" xmlns="http://www.w3.org/2000/svg">
<path d="M16 7.99621C16 12.3881 12.3939 16 8 16C3.61364 16 0 12.3881 0 7.99621C0 3.61193 3.60606 0 8 0C12.3864 0 16 3.61193 16 7.99621Z" fill="white"/>
<path d="M8 16C12.3939 16 16 12.3881 16 7.99621C16 3.61193 12.3864 0 8 0C3.60606 0 0 3.61193 0 7.99621C0 12.3881 3.61364 16 8 16ZM6.4697 11.1841C6.09091 11.4037 5.63636 11.1992 5.63636 10.7979V5.20965C5.63636 4.80833 6.10606 4.60388 6.4697 4.8159L11.1515 7.54946C11.4848 7.7539 11.4924 8.26124 11.1515 8.46569L6.4697 11.1841Z" fill="#383F47"/>
</svg>
