<svg width="24" height="24" viewBox="0 0 24 24" fill="none" xmlns="http://www.w3.org/2000/svg">
<path fill-rule="evenodd" clip-rule="evenodd" d="M5.5 6.75C5.5 6.05964 6.05964 5.5 6.75 5.5H17.25C17.9404 5.5 18.5 6.05964 18.5 6.75V17.25C18.5 17.9404 17.9404 18.5 17.25 18.5H6.75C6.05964 18.5 5.5 17.9404 5.5 17.25V6.75ZM6.75 4C5.23122 4 4 5.23122 4 6.75V17.25C4 18.7688 5.23122 20 6.75 20H17.25C18.7688 20 20 18.7688 20 17.25V6.75C20 5.23122 18.7688 4 17.25 4H6.75ZM9.25172 10.1925C8.94384 9.91544 8.46962 9.94039 8.19253 10.2483C7.91544 10.5562 7.94039 11.0304 8.24828 11.3075L10.1289 13L8.24828 14.6925C7.94039 14.9696 7.91544 15.4438 8.19253 15.7517C8.46962 16.0596 8.94384 16.0846 9.25172 15.8075L11.7517 13.5575C11.9098 13.4152 12 13.2126 12 13C12 12.7874 11.9098 12.5848 11.7517 12.4425L9.25172 10.1925Z" fill="#383F47"/>
</svg>
