<svg width="32" height="32" viewBox="0 0 32 32" fill="none" xmlns="http://www.w3.org/2000/svg">
<path fill-rule="evenodd" clip-rule="evenodd" d="M8.5 5.25C8.91421 5.25 9.25 5.58579 9.25 6V7.75H11C11.4142 7.75 11.75 8.08579 11.75 8.5C11.75 8.91421 11.4142 9.25 11 9.25H9.25V11C9.25 11.4142 8.91421 11.75 8.5 11.75C8.08579 11.75 7.75 11.4142 7.75 11V9.25H6C5.58579 9.25 5.25 8.91421 5.25 8.5C5.25 8.08579 5.58579 7.75 6 7.75H7.75V6C7.75 5.58579 8.08579 5.25 8.5 5.25ZM17 6.25C17.3103 6.25 17.5886 6.44112 17.7 6.73077L19.4342 11.2396C19.73 12.0087 19.836 12.2692 19.9877 12.4825C20.1335 12.6874 20.3126 12.8665 20.5175 13.0123C20.7308 13.164 20.9913 13.27 21.7604 13.5658L26.2692 15.3C26.5589 15.4114 26.75 15.6897 26.75 16C26.75 16.3103 26.5589 16.5886 26.2692 16.7L21.7604 18.4342C20.9913 18.73 20.7308 18.836 20.5175 18.9877C20.3126 19.1335 20.1335 19.3126 19.9877 19.5175C19.836 19.7308 19.73 19.9913 19.4342 20.7604L17.7 25.2692C17.5886 25.5589 17.3103 25.75 17 25.75C16.6897 25.75 16.4114 25.5589 16.3 25.2692L14.5658 20.7604C14.27 19.9913 14.164 19.7308 14.0123 19.5175C13.8665 19.3126 13.6874 19.1335 13.4825 18.9877C13.2692 18.836 13.0087 18.73 12.2396 18.4342L7.73077 16.7C7.44112 16.5886 7.25 16.3103 7.25 16C7.25 15.6897 7.44112 15.4114 7.73077 15.3L12.2396 13.5658C13.0087 13.27 13.2692 13.164 13.4825 13.0123C13.6874 12.8665 13.8665 12.6874 14.0123 12.4825C14.164 12.2692 14.27 12.0087 14.5658 11.2396L16.3 6.73077C16.4114 6.44112 16.6897 6.25 17 6.25ZM17 9.08926L15.9658 11.7781C15.9547 11.807 15.9437 11.8356 15.9329 11.8637C15.6828 12.5146 15.5097 12.965 15.2348 13.3517C14.9918 13.6933 14.6933 13.9918 14.3517 14.2348C13.965 14.5097 13.5146 14.6828 12.8637 14.9329C12.8356 14.9437 12.807 14.9547 12.7781 14.9658L10.0893 16L12.7781 17.0342C12.807 17.0453 12.8356 17.0563 12.8637 17.0671C13.5146 17.3172 13.965 17.4903 14.3517 17.7652C14.6933 18.0082 14.9918 18.3067 15.2348 18.6483C15.5097 19.035 15.6828 19.4854 15.9329 20.1363C15.9437 20.1644 15.9547 20.193 15.9658 20.2219L17 22.9107L18.0342 20.2219C18.0453 20.193 18.0563 20.1644 18.0671 20.1363C18.3172 19.4854 18.4903 19.035 18.7652 18.6483C19.0082 18.3067 19.3067 18.0082 19.6483 17.7652C20.035 17.4903 20.4854 17.3172 21.1363 17.0671C21.1644 17.0563 21.193 17.0453 21.2219 17.0342L23.9107 16L21.2219 14.9658C21.193 14.9547 21.1644 14.9437 21.1362 14.9329C20.4854 14.6828 20.035 14.5097 19.6483 14.2348C19.3067 13.9918 19.0082 13.6933 18.7652 13.3517C18.4903 12.965 18.3172 12.5146 18.0671 11.8638C18.0563 11.8356 18.0453 11.807 18.0342 11.7781L17 9.08926ZM6.2019 21.2019C6.4948 20.909 6.96967 20.909 7.26256 21.2019L8.5 22.4394L9.73744 21.2019C10.0303 20.909 10.5052 20.909 10.7981 21.2019C11.091 21.4948 11.091 21.9697 10.7981 22.2626L9.56066 23.5L10.7981 24.7374C11.091 25.0303 11.091 25.5052 10.7981 25.7981C10.5052 26.091 10.0303 26.091 9.73744 25.7981L8.5 24.5607L7.26256 25.7981C6.96967 26.091 6.4948 26.091 6.2019 25.7981C5.90901 25.5052 5.90901 25.0303 6.2019 24.7374L7.43934 23.5L6.2019 22.2626C5.90901 21.9697 5.90901 21.4948 6.2019 21.2019Z" fill="#383F47"/>
</svg>
