<svg width="16" height="16" viewBox="0 0 16 16" fill="none" xmlns="http://www.w3.org/2000/svg">
<g clip-path="url(#clip0_3650_3500)">
<path fill-rule="evenodd" clip-rule="evenodd" d="M2.74998 0.25C3.16419 0.25 3.49998 0.585786 3.49998 1V1.96053H4.49998C4.91419 1.96053 5.24998 2.29631 5.24998 2.71053C5.24998 3.12474 4.91419 3.46053 4.49998 3.46053H3.49998V4.42105C3.49998 4.83527 3.16419 5.17105 2.74998 5.17105C2.33577 5.17105 1.99998 4.83527 1.99998 4.42105V3.46053H0.999979C0.585766 3.46053 0.249979 3.12474 0.249979 2.71053C0.249979 2.29631 0.585766 1.96053 0.999979 1.96053H1.99998V1C1.99998 0.585786 2.33577 0.25 2.74998 0.25ZM8.69998 0.934211C9.0082 0.934211 9.28503 1.12278 9.39789 1.40959L10.6118 4.4946C10.8234 5.03222 10.886 5.17602 10.97 5.29154C11.0564 5.41024 11.163 5.51474 11.2861 5.60024C11.4073 5.68448 11.5587 5.74713 12.1077 5.95353L15.2639 7.14008C15.5563 7.25001 15.75 7.5297 15.75 7.84211C15.75 8.15451 15.5563 8.4342 15.2639 8.54414L12.1077 9.73068C11.5587 9.93708 11.4073 9.99973 11.2861 10.084C11.163 10.1695 11.0564 10.274 10.97 10.3927C10.886 10.5082 10.8234 10.652 10.6118 11.1896L9.39789 14.2746C9.28504 14.5614 9.0082 14.75 8.69998 14.75C8.39176 14.75 8.11493 14.5614 8.00207 14.2746L6.78814 11.1896C6.57659 10.652 6.51399 10.5082 6.42995 10.3927C6.3436 10.274 6.23692 10.1695 6.1139 10.084C5.99269 9.99973 5.84129 9.93708 5.29226 9.73068L2.13606 8.54414C1.84363 8.4342 1.64998 8.15451 1.64998 7.84211C1.64998 7.5297 1.84363 7.25001 2.13606 7.14008L5.29226 5.95353C5.84129 5.74713 5.99269 5.68448 6.1139 5.60024C6.23692 5.51474 6.3436 5.41024 6.42995 5.29154C6.51399 5.17602 6.57659 5.03221 6.78814 4.4946L8.00207 1.40959C8.11492 1.12278 8.39176 0.934211 8.69998 0.934211ZM8.69998 3.73248L8.18397 5.04384C8.17421 5.06865 8.16459 5.09314 8.15508 5.11734C7.98609 5.54756 7.85402 5.8838 7.64295 6.17395C7.45722 6.42925 7.2296 6.65152 6.96997 6.83196C6.67576 7.03645 6.33544 7.16417 5.89435 7.32971C5.86991 7.33888 5.84517 7.34817 5.8201 7.35759L4.5313 7.84211L5.8201 8.32662C5.84516 8.33604 5.8699 8.34532 5.89434 8.35449C6.33544 8.52004 6.67576 8.64776 6.96997 8.85225C7.22959 9.03269 7.45722 9.25496 7.64295 9.51026C7.85402 9.80041 7.98609 10.1366 8.15508 10.5669C8.16458 10.5911 8.17421 10.6156 8.18397 10.6404L8.69998 11.9517L9.21599 10.6404C9.22575 10.6156 9.23538 10.5911 9.24488 10.5669C9.41387 10.1366 9.54594 9.80041 9.75701 9.51026C9.94274 9.25496 10.1704 9.03269 10.43 8.85225C10.7242 8.64776 11.0645 8.52004 11.5056 8.3545C11.53 8.34533 11.5548 8.33604 11.5799 8.32662L12.8687 7.84211L11.5799 7.35759C11.5548 7.34817 11.53 7.33888 11.5056 7.32971C11.0645 7.16417 10.7242 7.03645 10.43 6.83196C10.1704 6.65152 9.94274 6.42925 9.75701 6.17395C9.54594 5.8838 9.41387 5.54757 9.24488 5.11736C9.23538 5.09315 9.22575 5.06865 9.21599 5.04384L8.69998 3.73248ZM1.17195 11.3273C1.46484 11.0344 1.93972 11.0344 2.23261 11.3273L2.92231 12.017L3.61201 11.3273C3.9049 11.0344 4.37978 11.0344 4.67267 11.3273C4.96556 11.6202 4.96556 12.0951 4.67267 12.388L3.98297 13.0777L4.67267 13.7674C4.96556 14.0603 4.96556 14.5352 4.67267 14.8281C4.37978 15.121 3.9049 15.121 3.61201 14.8281L2.92231 14.1384L2.23261 14.8281C1.93971 15.121 1.46484 15.121 1.17195 14.8281C0.879055 14.5352 0.879055 14.0603 1.17195 13.7674L1.86165 13.0777L1.17195 12.388C0.879055 12.0951 0.879055 11.6202 1.17195 11.3273Z" fill="#383F47"/>
</g>
<defs>
<clipPath id="clip0_3650_3500">
<rect width="16" height="16" fill="white"/>
</clipPath>
</defs>
</svg>
