<svg width="24" height="24" viewBox="0 0 24 24" fill="none" xmlns="http://www.w3.org/2000/svg">
<path fill-rule="evenodd" clip-rule="evenodd" d="M7.125 4.5C7.125 4.08579 6.78921 3.75 6.375 3.75C5.96079 3.75 5.625 4.08579 5.625 4.5V5.625H4.5C4.08579 5.625 3.75 5.96079 3.75 6.375C3.75 6.78921 4.08579 7.125 4.5 7.125H5.625V8.25C5.625 8.66421 5.96079 9 6.375 9C6.78921 9 7.125 8.66421 7.125 8.25V7.125H8.25C8.66421 7.125 9 6.78921 9 6.375C9 5.96079 8.66421 5.625 8.25 5.625H7.125V4.5ZM13.45 4.98077C13.3386 4.69112 13.0603 4.5 12.75 4.5C12.4397 4.5 12.1614 4.69112 12.05 4.98077L10.7494 8.36241C10.5241 8.9482 10.4533 9.117 10.3564 9.25319C10.2592 9.38985 10.1398 9.50925 10.0032 9.60642C9.867 9.70326 9.6982 9.77406 9.11241 9.99936L5.73077 11.3C5.44112 11.4114 5.25 11.6897 5.25 12C5.25 12.3103 5.44112 12.5886 5.73077 12.7L9.11241 14.0006C9.6982 14.2259 9.867 14.2967 10.0032 14.3936C10.1398 14.4908 10.2592 14.6102 10.3564 14.7468C10.4533 14.883 10.5241 15.0518 10.7494 15.6376L12.05 19.0192C12.1614 19.3089 12.4397 19.5 12.75 19.5C13.0603 19.5 13.3386 19.3089 13.45 19.0192L14.7506 15.6376C14.9759 15.0518 15.0467 14.883 15.1436 14.7468C15.2408 14.6102 15.3602 14.4908 15.4968 14.3936C15.633 14.2967 15.8018 14.2259 16.3876 14.0006L19.7692 12.7C20.0589 12.5886 20.25 12.3103 20.25 12C20.25 11.6897 20.0589 11.4114 19.7692 11.3L16.3876 9.99936C15.8018 9.77406 15.633 9.70326 15.4968 9.60642C15.3602 9.50924 15.2408 9.38985 15.1436 9.25319C15.0467 9.117 14.9759 8.9482 14.7506 8.36241L13.45 4.98077ZM12.1494 8.90088L12.75 7.33926L13.3506 8.90088L13.38 8.97745L13.3801 8.97747C13.5627 9.45315 13.7007 9.81248 13.9211 10.1224C14.1155 10.3957 14.3543 10.6345 14.6276 10.8289C14.9375 11.0493 15.2969 11.1873 15.7726 11.37L15.8491 11.3994L17.4107 12L15.8491 12.6006L15.7726 12.63L15.7725 12.63C15.2969 12.8127 14.9375 12.9507 14.6276 13.1711C14.3543 13.3655 14.1155 13.6043 13.9211 13.8776C13.7007 14.1875 13.5627 14.5469 13.38 15.0226L13.3506 15.0991L12.75 16.6607L12.1494 15.0991L12.12 15.0226C11.9373 14.5469 11.7993 14.1875 11.5789 13.8776C11.3845 13.6043 11.1457 13.3655 10.8724 13.1711C10.5625 12.9507 10.2031 12.8127 9.72745 12.63L9.65088 12.6006L8.08926 12L9.65088 11.3994L9.72745 11.37C10.2031 11.1873 10.5625 11.0493 10.8724 10.8289C11.1457 10.6345 11.3845 10.3957 11.5789 10.1224C11.7993 9.81248 11.9373 9.45314 12.12 8.97745L12.1494 8.90088ZM8.23116 16.8295C8.52405 16.5366 8.52405 16.0617 8.23116 15.7689C7.93826 15.476 7.46339 15.476 7.1705 15.7689L6.375 16.5643L5.5795 15.7689C5.28661 15.476 4.81174 15.476 4.51884 15.7689C4.22595 16.0617 4.22595 16.5366 4.51884 16.8295L5.31434 17.625L4.51884 18.4205C4.22595 18.7134 4.22595 19.1883 4.51884 19.4812C4.81174 19.7741 5.28661 19.7741 5.5795 19.4812L6.375 18.6857L7.1705 19.4812C7.46339 19.7741 7.93826 19.7741 8.23116 19.4812C8.52405 19.1883 8.52405 18.7134 8.23116 18.4205L7.43566 17.625L8.23116 16.8295Z" fill="#383F47"/>
</svg>
