<svg width="32" height="32" viewBox="0 0 32 32" fill="none" xmlns="http://www.w3.org/2000/svg">
<path d="M6.33337 21.3333L9.99496 16.6756C11.0332 15.3548 13.0194 15.3116 14.1142 16.586L17.3334 20.3333M14.5534 17.0973C15.9363 15.3382 17.8631 12.846 17.9886 12.6839C17.993 12.6781 17.9972 12.6726 18.0018 12.6669C19.042 11.3546 21.0218 11.3144 22.1142 12.5859L25.3334 16.3333M9.00004 25.6666H23C24.4728 25.6666 25.6667 24.4728 25.6667 23V8.99998C25.6667 7.52722 24.4728 6.33331 23 6.33331H9.00004C7.52728 6.33331 6.33337 7.52722 6.33337 8.99998V23C6.33337 24.4728 7.52728 25.6666 9.00004 25.6666Z" stroke="#383F47" stroke-width="1.5" stroke-linecap="round" stroke-linejoin="round"/>
</svg>
