<svg width="24" height="24" viewBox="0 0 24 24" fill="none" xmlns="http://www.w3.org/2000/svg">
<g id="icon">
<path id="icon_2" fill-rule="evenodd" clip-rule="evenodd" d="M4.125 0.5C4.67728 0.5 5.125 0.947715 5.125 1.5V3.06579H6.75C7.30228 3.06579 7.75 3.5135 7.75 4.06579C7.75 4.61807 7.30228 5.06579 6.75 5.06579H5.125V6.63158C5.125 7.18386 4.67728 7.63158 4.125 7.63158C3.57272 7.63158 3.125 7.18386 3.125 6.63158V5.06579H1.5C0.947715 5.06579 0.5 4.61807 0.5 4.06579C0.5 3.5135 0.947715 3.06579 1.5 3.06579H3.125V1.5C3.125 0.947715 3.57272 0.5 4.125 0.5ZM13.05 1.52632C13.461 1.52632 13.8301 1.77774 13.9805 2.16015L15.8014 6.78767C16.1164 7.58811 16.2163 7.82165 16.354 8.01084C16.4918 8.20028 16.6619 8.36684 16.8578 8.503C17.0554 8.64033 17.3 8.73994 18.1176 9.0473L22.8519 10.8271C23.2418 10.9737 23.5 11.3466 23.5 11.7632C23.5 12.1797 23.2418 12.5526 22.8519 12.6992L18.1176 14.479C17.3 14.7864 17.0554 14.886 16.8578 15.0233C16.6619 15.1595 16.4918 15.326 16.354 15.5155C16.2163 15.7047 16.1164 15.9382 15.8014 16.7386L13.9806 21.3662C13.8301 21.7486 13.461 22 13.05 22C12.639 22 12.2699 21.7486 12.1195 21.3662L10.2986 16.7386C9.9836 15.9382 9.88368 15.7047 9.74605 15.5155C9.60824 15.326 9.43814 15.1595 9.24223 15.0233C9.04463 14.886 8.79999 14.7864 7.98241 14.479L3.24811 12.6992C2.8582 12.5526 2.6 12.1797 2.6 11.7632C2.6 11.3466 2.8582 10.9737 3.24811 10.8271L7.98241 9.0473C8.79999 8.73994 9.04463 8.64033 9.24223 8.503C9.43813 8.36684 9.60823 8.20028 9.74604 8.01084C9.88368 7.82165 9.9836 7.5881 10.2986 6.78767L12.1194 2.16015C12.2699 1.77774 12.639 1.52632 13.05 1.52632ZM13.05 5.25734L12.1597 7.52C12.1459 7.55486 12.1324 7.58926 12.1191 7.62323C11.8627 8.27578 11.6702 8.76555 11.3634 9.18739C11.0931 9.55896 10.7617 9.88255 10.3837 10.1453C9.95558 10.4428 9.45941 10.6291 8.79037 10.8803C8.75611 10.8931 8.72139 10.9062 8.6862 10.9194L6.44176 11.7632L8.6862 12.6069C8.72139 12.6202 8.75611 12.6332 8.79037 12.6461C9.45941 12.8972 9.95558 13.0835 10.3837 13.381C10.7617 13.6438 11.0931 13.9674 11.3634 14.3389C11.6702 14.7608 11.8627 15.2505 12.1191 15.9031C12.1324 15.937 12.1459 15.9715 12.1597 16.0063L13.05 18.269L13.9403 16.0063C13.9541 15.9715 13.9676 15.937 13.9809 15.9031C14.2373 15.2505 14.4298 14.7608 14.7366 14.3389C15.0069 13.9674 15.3383 13.6438 15.7163 13.381C16.1444 13.0835 16.6406 12.8972 17.3096 12.6461C17.3439 12.6332 17.3786 12.6202 17.4138 12.6069L19.6582 11.7632L17.4138 10.9194C17.3786 10.9062 17.3439 10.8931 17.3096 10.8803C16.6406 10.6291 16.1444 10.4428 15.7163 10.1453C15.3383 9.88255 15.0069 9.55896 14.7366 9.18739C14.4298 8.76556 14.2373 8.27579 13.9809 7.62325C13.9676 7.58928 13.9541 7.55487 13.9403 7.52L13.05 5.25734ZM1.84634 17.0794C2.23687 16.6889 2.87003 16.6889 3.26056 17.0794L4.38349 18.2023L5.50643 17.0794C5.89696 16.6889 6.53012 16.6889 6.92065 17.0794C7.31117 17.4699 7.31117 18.1031 6.92065 18.4936L5.79771 19.6166L6.92065 20.7395C7.31117 21.13 7.31117 21.7632 6.92065 22.1537C6.53012 22.5442 5.89696 22.5442 5.50643 22.1537L4.38349 21.0308L3.26055 22.1537C2.87003 22.5442 2.23687 22.5442 1.84634 22.1537C1.45582 21.7632 1.45582 21.13 1.84634 20.7395L2.96928 19.6166L1.84634 18.4936C1.45582 18.1031 1.45582 17.4699 1.84634 17.0794Z" fill="url(#paint0_linear_9990_34149)"/>
</g>
<defs>
<linearGradient id="paint0_linear_9990_34149" x1="12" y1="0.5" x2="12" y2="22.4466" gradientUnits="userSpaceOnUse">
<stop stop-color="#6CFBD3"/>
<stop offset="1" stop-color="#75C5FC"/>
</linearGradient>
</defs>
</svg>
