<svg width="16" height="16" viewBox="0 0 16 16" fill="none" xmlns="http://www.w3.org/2000/svg">
<path d="M8 14C11.2905 14 14 11.2905 14 8C14 4.71524 11.2848 2 7.99425 2C4.70949 2 2 4.71524 2 8C2 11.2905 4.70949 14 8 14ZM8 12.6826C5.40556 12.6826 3.32311 10.5944 3.32311 8C3.32311 5.40556 5.39981 3.31735 7.99425 3.31735C10.5944 3.31735 12.6826 5.40556 12.6826 8C12.6826 10.5944 10.5944 12.6826 8 12.6826ZM5.32502 8.88591C5.81975 8.88591 6.21668 8.48897 6.21668 7.99425C6.21668 7.50527 5.814 7.10834 5.32502 7.10834C4.83605 7.10834 4.43912 7.50527 4.43912 7.99425C4.43912 8.48897 4.83605 8.88591 5.32502 8.88591ZM7.99425 8.88591C8.48322 8.88591 8.88015 8.48897 8.88015 7.99425C8.88015 7.50527 8.48322 7.10834 7.99425 7.10834C7.49952 7.10834 7.10259 7.50527 7.10259 7.99425C7.10259 8.48897 7.49952 8.88591 7.99425 8.88591ZM10.6577 8.88591C11.1467 8.88591 11.5436 8.48897 11.5436 7.99425C11.5436 7.50527 11.1467 7.10834 10.6577 7.10834C10.163 7.10834 9.76606 7.50527 9.76606 7.99425C9.76606 8.48897 10.163 8.88591 10.6577 8.88591Z" fill="#383F47"/>
</svg>
