<svg width="24" height="24" viewBox="0 0 24 24" fill="none" xmlns="http://www.w3.org/2000/svg">
<path d="M5.42773 14.5176C6.46484 14.5176 7.30859 13.6826 7.30859 12.6631C7.30859 11.626 6.48242 10.8086 5.42773 10.8086C4.4082 10.8086 3.57324 11.6348 3.57324 12.6631C3.57324 13.6826 4.4082 14.5176 5.42773 14.5176ZM12.002 14.5176C13.0127 14.5176 13.8477 13.6826 13.8477 12.6631C13.8477 11.626 13.0391 10.8086 12.002 10.8086C10.9736 10.8086 10.1475 11.6348 10.1475 12.6631C10.1475 13.6826 10.9736 14.5176 12.002 14.5176ZM18.5674 14.5176C19.5869 14.5176 20.4307 13.6826 20.4307 12.6631C20.4307 11.626 19.6045 10.8086 18.5674 10.8086C17.5303 10.8086 16.6953 11.6348 16.6953 12.6631C16.6953 13.6826 17.5303 14.5176 18.5674 14.5176Z" fill="#383F47"/>
</svg>
