<svg width="16" height="16" viewBox="0 0 16 16" fill="none" xmlns="http://www.w3.org/2000/svg">
<g clip-path="url(#clip0_5266_3332)">
<path d="M2.72895 16C0.912548 16 0 15.1048 0 13.3058V2.69419C0 0.895166 0.912548 0 2.72895 0H13.271C15.0961 0 16 0.903857 16 2.69419V13.3058C16 15.0961 15.0961 16 13.271 16H2.72895ZM4.48452 9.673C4.48452 10.0728 4.74525 10.3161 5.14503 10.3161H7.45682V11.9153C7.45682 12.8886 7.84791 13.6969 8.01304 13.6969C8.17816 13.6969 8.56926 12.8886 8.56926 11.9153V10.3161H10.881C11.2895 10.3161 11.5416 10.0728 11.5416 9.673C11.5416 8.72569 10.7768 7.70016 9.49918 7.24823L9.35144 5.14503C10.0033 4.77132 10.5421 4.35416 10.7854 4.04997C10.8984 3.88485 10.968 3.72841 10.968 3.58066C10.968 3.30255 10.7507 3.10266 10.4291 3.10266H5.59696C5.27539 3.10266 5.05812 3.30255 5.05812 3.58066C5.05812 3.72841 5.12765 3.89354 5.25801 4.05866C5.50136 4.36285 6.0315 4.78001 6.67463 5.14503L6.53558 7.24823C5.24932 7.70016 4.48452 8.72569 4.48452 9.673Z" fill="#383F47"/>
</g>
<defs>
<clipPath id="clip0_5266_3332">
<rect width="16" height="16" fill="white"/>
</clipPath>
</defs>
</svg>
