<svg width="16" height="16" viewBox="0 0 16 16" fill="none" xmlns="http://www.w3.org/2000/svg">
<g clip-path="url(#clip0_3639_6138)">
<path d="M7.99967 4L1.33301 7.33333L7.99967 10.6667L14.6663 7.33333L7.99967 4Z" fill="#383F47"/>
<path d="M7.99967 4L1.33301 7.33333L7.99967 10.6667L14.6663 7.33333L7.99967 4Z" stroke="#383F47" stroke-width="2" stroke-linecap="round" stroke-linejoin="round"/>
<path d="M9.00025 6.49977L9.00025 3.99978H10.5002C10.5953 3.99974 10.6883 3.97264 10.7684 3.92164C10.8486 3.87064 10.9126 3.79786 10.9529 3.71182C10.9932 3.62578 11.0081 3.53004 10.996 3.43582C10.9838 3.34159 10.9451 3.25278 10.8842 3.17978L8.38425 0.179775C8.33732 0.123505 8.2786 0.0782346 8.21225 0.0471687C8.14589 0.0161027 8.07352 3.20269e-09 8.00025 0C7.92698 -3.20269e-09 7.85461 0.0161027 7.78825 0.0471686C7.72189 0.0782346 7.66317 0.123505 7.61625 0.179775L5.11625 3.17977C5.04089 3.26933 4.99979 3.38273 5.00025 3.49977C5.00042 3.57301 5.01645 3.64533 5.04725 3.71177C5.08756 3.79788 5.15159 3.87071 5.23182 3.92172C5.31206 3.97273 5.40517 3.99981 5.50025 3.99978H7.00025V6.49977C7.00025 6.63238 7.05293 6.75956 7.14669 6.85333C7.24046 6.9471 7.36764 6.99977 7.50025 6.99977H8.50025C8.63286 6.99977 8.76003 6.9471 8.8538 6.85333C8.94757 6.75956 9.00025 6.63238 9.00025 6.49977Z" fill="#383F47"/>
<path d="M4.40025 3.50165C4.40069 3.66138 4.4357 3.81914 4.50287 3.96407L4.50287 3.96407L4.50385 3.96617C4.59254 4.15561 4.7334 4.31583 4.90991 4.42806C5.08637 4.54024 5.29115 4.59981 5.50025 4.59978C5.50032 4.59978 5.50038 4.59978 5.50045 4.59978H6.40025V6.49977C6.40025 6.79151 6.51614 7.0713 6.72243 7.27759C6.92872 7.48388 7.20851 7.59977 7.50025 7.59977H8.50025C8.79199 7.59977 9.07178 7.48388 9.27807 7.27759C9.48436 7.0713 9.60025 6.79151 9.60025 6.49977L9.60025 4.59978H10.5002H10.5005C10.7095 4.5997 10.9142 4.54007 11.0905 4.42788C11.2669 4.31568 11.4076 4.15557 11.4962 3.96628C11.5849 3.77699 11.6178 3.56636 11.591 3.35907C11.5643 3.15177 11.479 2.95638 11.3453 2.79578L11.3452 2.79566L8.84518 -0.204336L8.84505 -0.204495C8.74181 -0.32829 8.61263 -0.427884 8.46665 -0.496229C8.32066 -0.564574 8.16144 -0.6 8.00025 -0.6C7.83906 -0.6 7.67983 -0.564574 7.53385 -0.496229C7.38786 -0.427884 7.25868 -0.32829 7.15545 -0.204495L7.15532 -0.204336L4.65605 2.79479C4.48998 2.99278 4.39935 3.24319 4.40025 3.50165ZM4.40025 3.50165C4.40025 3.50149 4.40025 3.50134 4.40025 3.50118L5.00025 3.49977L4.40025 3.50215C4.40025 3.50198 4.40025 3.50181 4.40025 3.50165Z" stroke="white" stroke-width="1.2"/>
<path fill-rule="evenodd" clip-rule="evenodd" d="M0.438556 10.5528C0.685545 10.0588 1.28622 9.85856 1.7802 10.1055L7.99965 13.2153L14.2191 10.1055C14.7131 9.85856 15.3138 10.0588 15.5607 10.5528C15.8077 11.0467 15.6075 11.6474 15.1135 11.8944L8.44686 15.2277C8.16534 15.3685 7.83396 15.3685 7.55244 15.2277L0.885769 11.8944C0.391791 11.6474 0.191566 11.0467 0.438556 10.5528Z" fill="#383F47"/>
</g>
<defs>
<clipPath id="clip0_3639_6138">
<rect width="16" height="16" fill="white"/>
</clipPath>
</defs>
</svg>
