<svg width="24" height="24" viewBox="0 0 24 24" fill="none" xmlns="http://www.w3.org/2000/svg">
<path fill-rule="evenodd" clip-rule="evenodd" d="M12 4C12.4142 4 12.75 4.33579 12.75 4.75V12.3401L14.7004 10.2397C14.9823 9.93613 15.4568 9.91855 15.7603 10.2004C16.0639 10.4823 16.0814 10.9568 15.7996 11.2603L12.5513 14.7585C12.5459 14.7644 12.5404 14.7701 12.5348 14.7758C12.5288 14.7819 12.5226 14.788 12.5164 14.7939C12.3819 14.9216 12.2001 15 12 15C11.7906 15 11.6012 14.9142 11.4652 14.7758C11.4596 14.7701 11.4541 14.7644 11.4487 14.7585L8.20041 11.2603C7.91855 10.9568 7.93613 10.4823 8.23966 10.2004C8.54319 9.91855 9.01774 9.93613 9.29959 10.2397L11.25 12.3401V4.75C11.25 4.33579 11.5858 4 12 4ZM4.75 14C5.16421 14 5.5 14.3358 5.5 14.75V16.25C5.5 17.4927 6.50736 18.5 7.75 18.5H16.25C17.4927 18.5 18.5 17.4927 18.5 16.25V14.75C18.5 14.3358 18.8358 14 19.25 14C19.6642 14 20 14.3358 20 14.75V16.25C20 18.3211 18.3211 20 16.25 20H7.75C5.67894 20 4 18.3211 4 16.25V14.75C4 14.3358 4.33579 14 4.75 14Z" fill="#383F47"/>
</svg>
