<svg width="16" height="16" viewBox="0 0 16 16" fill="none" xmlns="http://www.w3.org/2000/svg">
<path fill-rule="evenodd" clip-rule="evenodd" d="M8.75 3.16668C8.75 2.75247 8.41421 2.41668 8 2.41668C7.58579 2.41668 7.25 2.75247 7.25 3.16668V7.59011L6.38293 6.65634C6.10108 6.35281 5.62653 6.33523 5.323 6.61709C5.01946 6.89894 5.00189 7.37349 5.28374 7.67702L7.4504 10.0104C7.59231 10.1632 7.79145 10.25 8 10.25C8.20855 10.25 8.40769 10.1632 8.54959 10.0104L10.7163 7.67702C10.9981 7.37349 10.9805 6.89894 10.677 6.61709C10.3735 6.33523 9.89892 6.35281 9.61707 6.65634L8.75 7.59011V3.16668ZM3.91663 9.83335C3.91663 9.41914 3.58084 9.08335 3.16663 9.08335C2.75241 9.08335 2.41663 9.41914 2.41663 9.83335V10.8334C2.41663 12.3522 3.64785 13.5834 5.16663 13.5834H10.8333C12.3521 13.5834 13.5833 12.3522 13.5833 10.8334V9.83335C13.5833 9.41914 13.2475 9.08335 12.8333 9.08335C12.4191 9.08335 12.0833 9.41914 12.0833 9.83335V10.8334C12.0833 11.5237 11.5237 12.0834 10.8333 12.0834H5.16663C4.47626 12.0834 3.91663 11.5237 3.91663 10.8334V9.83335Z" fill="#383F47"/>
</svg>
