<svg width="16" height="16" viewBox="0 0 16 16" fill="none" xmlns="http://www.w3.org/2000/svg">
<path d="M7.83936 15.1265C11.521 15.1265 14.5425 12.0986 14.5425 8.41699C14.5425 4.7417 11.5146 1.71387 7.83936 1.71387C4.15771 1.71387 1.13623 4.7417 1.13623 8.41699C1.13623 12.0986 4.16406 15.1265 7.83936 15.1265ZM7.83936 13.457C5.05273 13.457 2.81201 11.21 2.81201 8.41699C2.81201 5.63037 5.04639 3.3833 7.83936 3.3833C10.626 3.3833 12.873 5.63037 12.873 8.41699C12.873 11.21 10.6323 13.457 7.83936 13.457ZM10.626 8.70264C10.626 7.26172 9.50879 6.07471 8.19482 5.9668C8.15039 5.9668 8.09326 5.9668 8.05518 5.9668L8.30273 5.7002C8.37256 5.61768 8.43604 5.51611 8.43604 5.36377C8.43604 5.11621 8.24561 4.8877 7.93457 4.8877C7.77588 4.8877 7.64258 4.96387 7.54736 5.06543L6.42383 6.20166C6.2334 6.39844 6.22705 6.74121 6.42383 6.93799L7.56006 8.07422C7.64258 8.16309 7.78223 8.22656 7.92188 8.22656C8.20752 8.22656 8.42969 8.03613 8.42969 7.7251C8.42969 7.61719 8.39795 7.51562 8.34082 7.43945L7.99805 7.09668C8.06152 7.10303 8.125 7.11572 8.18848 7.12207C8.94385 7.18555 9.52783 7.88379 9.52783 8.70898C9.52783 9.64844 8.77881 10.4038 7.83936 10.4038C6.8999 10.4038 6.15088 9.64844 6.15088 8.70898C6.15088 8.41064 5.90332 8.16943 5.59863 8.16943C5.30029 8.16943 5.05273 8.41064 5.05273 8.70898C5.05273 10.2515 6.29688 11.5083 7.83936 11.5083C9.37549 11.5083 10.626 10.2515 10.626 8.70264Z" fill="#383F47"/>
</svg>
