<svg width="16" height="16" viewBox="0 0 16 16" fill="none" xmlns="http://www.w3.org/2000/svg">
<path fill-rule="evenodd" clip-rule="evenodd" d="M7.33329 3.91669C5.44632 3.91669 3.91663 5.44638 3.91663 7.33335C3.91663 9.22034 5.44632 10.75 7.33329 10.75C9.22028 10.75 10.75 9.22034 10.75 7.33335C10.75 5.44638 9.22028 3.91669 7.33329 3.91669ZM2.41663 7.33335C2.41663 4.61795 4.61789 2.41669 7.33329 2.41669C10.0487 2.41669 12.25 4.61795 12.25 7.33335C12.25 8.42046 11.8972 9.42515 11.2998 10.2392L13.3636 12.303C13.6565 12.5959 13.6565 13.0708 13.3636 13.3637C13.0707 13.6566 12.5959 13.6566 12.303 13.3637L10.2391 11.2998C9.42509 11.8972 8.4204 12.25 7.33329 12.25C4.61789 12.25 2.41663 10.0488 2.41663 7.33335Z" fill="#383F47"/>
</svg>
