<svg width="24" height="24" viewBox="0 0 24 24" fill="none" xmlns="http://www.w3.org/2000/svg">
<path fill-rule="evenodd" clip-rule="evenodd" d="M11.25 6.6599V15.25C11.25 15.6642 11.5858 16 12 16C12.4142 16 12.75 15.6642 12.75 15.25V6.6599L14.7004 8.76034C14.9823 9.06387 15.4568 9.08145 15.7603 8.7996C16.0639 8.51774 16.0814 8.04319 15.7996 7.73966L12.5512 4.24142C12.54 4.22926 12.5284 4.21747 12.5164 4.20608C12.3819 4.07836 12.2001 4 12 4C11.7999 4 11.6181 4.07836 11.4836 4.20608C11.4774 4.21201 11.4712 4.21805 11.4652 4.22419C11.4596 4.22986 11.4541 4.23561 11.4487 4.24145L8.20041 7.73966C7.91855 8.04319 7.93613 8.51774 8.23966 8.7996C8.54319 9.08145 9.01774 9.06387 9.29959 8.76034L11.25 6.6599ZM4 19.25C4 18.8358 4.33579 18.5 4.75 18.5H19.25C19.6642 18.5 20 18.8358 20 19.25C20 19.6642 19.6642 20 19.25 20H4.75C4.33579 20 4 19.6642 4 19.25Z" fill="#383F47"/>
</svg>
