<svg width="16" height="16" viewBox="0 0 16 16" fill="none" xmlns="http://www.w3.org/2000/svg">
<path d="M2.12744 13.2391H5.7374C6.86328 13.2391 7.3458 12.7387 7.3458 11.6307V10.475H8.72188V12.4289C8.72188 12.9234 9.09121 13.2986 9.5916 13.2986C9.93711 13.2986 10.2111 13.1616 10.5388 12.8578L15.2687 8.43175C15.501 8.21134 15.6022 7.93136 15.6022 7.69904C15.6022 7.4548 15.5069 7.19269 15.2687 6.96632L10.5388 2.57003C10.1754 2.23644 9.93711 2.09943 9.60352 2.09943C9.09121 2.09943 8.72188 2.49855 8.72188 2.99894V5.08986H5.1834C4.02178 5.08986 3.51543 5.60812 3.51543 6.75782V7.81222H2.12744C1.06113 7.81222 0.519043 8.33048 0.519043 9.37296V11.6724C0.519043 12.7327 1.04326 13.2391 2.12744 13.2391ZM9.99668 11.6068C9.94307 11.6068 9.90137 11.5651 9.90137 11.5056V9.28361C9.90137 9.14659 9.8418 9.08702 9.71074 9.08702H5.3502C5.01064 9.08702 4.84385 8.90236 4.84385 8.53302V6.79357C4.84385 6.41827 5.01064 6.23361 5.3502 6.23361H9.71074C9.8418 6.23361 9.90137 6.17404 9.90137 6.03702V3.86271C9.90137 3.80314 9.94307 3.7674 9.99668 3.7674C10.0324 3.7674 10.0622 3.78527 10.092 3.80909L14.0594 7.59181C14.1011 7.63351 14.1189 7.66329 14.1189 7.69904C14.1189 7.73478 14.107 7.76456 14.0594 7.81222L10.092 11.5592C10.0622 11.589 10.0265 11.6068 9.99668 11.6068ZM2.28232 12.0894C1.94873 12.0894 1.78193 11.9047 1.78193 11.5413V9.50997C1.78193 9.14064 1.94873 8.96193 2.28232 8.96193H3.575V9.17638C3.575 9.55167 3.71201 9.83761 4.05752 10.1057L6.08291 11.4877V11.5413C6.08291 11.9047 5.91611 12.0894 5.58252 12.0894H2.28232Z" fill="#383F47"/>
</svg>
