<svg width="32" height="32" viewBox="0 0 32 32" fill="none" xmlns="http://www.w3.org/2000/svg">
<path d="M7.49493 19.9502L8.96266 20.1801C10.0461 20.3497 10.8199 21.3421 10.7401 22.4601L10.632 23.9754C10.6005 24.4169 10.8357 24.8325 11.2252 25.0248L12.3107 25.5596C12.7003 25.7519 13.1654 25.6798 13.4835 25.3802L14.5743 24.3493C15.3786 23.5889 16.6195 23.5889 17.4247 24.3493L18.5155 25.3802C18.8336 25.681 19.2978 25.7519 19.6883 25.5596L20.7759 25.0237C21.1644 24.8325 21.3986 24.418 21.3671 23.9777L21.2588 22.4601C21.1791 21.3421 21.9528 20.3497 23.0363 20.1801L24.504 19.9502C24.9314 19.8837 25.2758 19.5561 25.3723 19.1244L25.64 17.9237C25.7367 17.492 25.5655 17.0441 25.2086 16.7949L23.9834 15.9368C23.0794 15.3032 22.8032 14.066 23.3492 13.094L24.0894 11.7773C24.3046 11.3939 24.269 10.9138 23.9991 10.568L23.2484 9.60465C22.9786 9.25882 22.5292 9.116 22.1156 9.24594L20.6962 9.69057C19.6474 10.0192 18.5292 9.46825 18.126 8.42542L17.5822 7.01529C17.4226 6.60289 17.0331 6.33225 16.5995 6.33332L15.3963 6.33654C14.9627 6.33761 14.5743 6.61041 14.4168 7.02389L13.8866 8.4179C13.4876 9.46718 12.3643 10.0224 11.3123 9.69164L9.83408 9.22769C9.41937 9.09666 8.96792 9.24057 8.6981 9.58854L7.95268 10.553C7.68286 10.902 7.65032 11.3832 7.86974 11.7666L8.6267 13.0865C9.1842 14.0594 8.91123 15.3085 8.00203 15.9454L6.7915 16.7938C6.43454 17.0441 6.26342 17.492 6.36001 17.9226L6.62773 19.1233C6.72326 19.5561 7.06763 19.8837 7.49493 19.9502Z" stroke="#383F47" stroke-width="1.5" stroke-linecap="round" stroke-linejoin="round"/>
<path d="M18.1215 13.8785C19.2928 15.05 19.2928 16.95 18.1215 18.1215C16.95 19.2928 15.05 19.2928 13.8785 18.1215C12.7072 16.95 12.7072 15.05 13.8785 13.8785C15.05 12.7072 16.95 12.7072 18.1215 13.8785Z" stroke="#383F47" stroke-width="1.5" stroke-linecap="round" stroke-linejoin="round"/>
</svg>
