<svg width="15" height="15" viewBox="0 0 15 15" fill="none" xmlns="http://www.w3.org/2000/svg">
    <path d="M6.56006 14.4883C5.96973 14.4883 5.5 14.1138 5.3667 13.5488L5.13184 12.5396L5.02393 12.5015L4.1416 13.0474C3.64648 13.3521 3.0498 13.2695 2.63721 12.8506L1.74219 11.9619C1.32324 11.5303 1.24707 10.9399 1.55811 10.4575L2.104 9.58154L2.06592 9.47998L1.06299 9.24512C0.504395 9.10547 0.13623 8.63574 0.13623 8.05176V6.80762C0.13623 6.22363 0.498047 5.74756 1.06299 5.60791L2.05957 5.3667L2.09766 5.26514L1.55176 4.38916C1.24707 3.90674 1.32324 3.31641 1.74219 2.87842L2.63721 1.98975C3.04346 1.5708 3.64014 1.49463 4.13525 1.79297L5.01758 2.33252L5.13184 2.29443L5.3667 1.28516C5.5 0.726562 5.96973 0.345703 6.56006 0.345703H7.85498C8.44531 0.345703 8.92139 0.720215 9.04834 1.28516L9.2832 2.29443L9.39746 2.33252L10.2798 1.79297C10.7749 1.48828 11.3716 1.5708 11.7778 1.98975L12.6729 2.87842C13.0981 3.31641 13.1743 3.90674 12.8633 4.38916L12.3174 5.26514L12.3618 5.3667L13.3521 5.60791C13.917 5.74756 14.2788 6.22363 14.2788 6.80762V8.05176C14.2788 8.63574 13.9106 9.10547 13.3521 9.24512L12.3491 9.47998L12.3174 9.58154L12.8569 10.4575C13.1616 10.9399 13.0918 11.5303 12.6729 11.9619L11.7778 12.8506C11.3652 13.2695 10.7686 13.3521 10.2734 13.0474L9.39111 12.5015L9.2832 12.5396L9.04834 13.5488C8.92139 14.1138 8.44531 14.4883 7.85498 14.4883H6.56006ZM6.81396 13.0537H7.60107C7.70898 13.0537 7.75342 13.0029 7.77246 12.9141L8.14062 11.3652C8.61035 11.27 8.98486 11.105 9.36572 10.8574L10.7114 11.689C10.7876 11.7397 10.8574 11.7334 10.9336 11.6636L11.4795 11.1177C11.5557 11.0479 11.5493 10.9717 11.5049 10.8955L10.6733 9.5498C10.8955 9.19434 11.0732 8.7627 11.1621 8.34375L12.7109 7.97559C12.7998 7.95654 12.8506 7.91211 12.8506 7.8042V7.04883C12.8506 6.93457 12.8062 6.89014 12.7109 6.87109L11.1621 6.50293C11.0732 6.07129 10.8892 5.63965 10.6797 5.29053L11.5049 3.95117C11.5557 3.86865 11.562 3.79883 11.4922 3.72266L10.9399 3.18311C10.8638 3.11328 10.8003 3.10693 10.7114 3.15771L9.36572 3.97656C9.00391 3.75439 8.59131 3.57031 8.14062 3.4751L7.77246 1.91992C7.75342 1.83105 7.70898 1.78027 7.60107 1.78027H6.81396C6.7124 1.78027 6.66162 1.83105 6.64893 1.91992L6.28076 3.46875C5.83008 3.57031 5.354 3.76709 5.04297 3.97656L3.69727 3.15137C3.6084 3.10059 3.54492 3.10693 3.46875 3.17676L2.9165 3.71631C2.84668 3.78613 2.85303 3.8623 2.90381 3.93848L3.73535 5.29053C3.52588 5.63965 3.34814 6.07129 3.25293 6.50928L1.7041 6.87109C1.61523 6.89014 1.56445 6.93457 1.56445 7.04883V7.8042C1.56445 7.91211 1.61523 7.95654 1.7041 7.97559L3.25293 8.3374C3.3418 8.76904 3.51953 9.18164 3.7417 9.5498L2.90381 10.9019C2.85938 10.978 2.85303 11.0542 2.9292 11.124L3.4751 11.6699C3.54492 11.7397 3.62109 11.7461 3.69727 11.6953L5.04932 10.8574C5.42383 11.105 5.84912 11.2827 6.28076 11.3652L6.64893 12.9141C6.66162 13.0029 6.7124 13.0537 6.81396 13.0537ZM7.20752 9.81006C5.89355 9.81006 4.81445 8.7373 4.81445 7.41699C4.81445 6.10938 5.89355 5.03662 7.20752 5.03662C8.52148 5.03662 9.59424 6.10938 9.59424 7.41699C9.59424 8.7373 8.52148 9.81006 7.20752 9.81006ZM7.20752 8.53418C7.8042 8.53418 8.30566 8.02637 8.30566 7.41699C8.30566 6.81396 7.8042 6.3125 7.20752 6.3125C6.59814 6.3125 6.09668 6.81396 6.09668 7.41699C6.09668 8.03271 6.59814 8.53418 7.20752 8.53418Z" fill="#383F47"/>
</svg>
