<svg xmlns="http://www.w3.org/2000/svg" width="24" height="24" viewBox="0 0 24 24" fill="currentColor">
  <path d="M11.1123 21.0498C10.4355 21.0498 9.91699 20.6367 9.75879 19.9863L9.37207 18.3428L9.09082 18.2461L7.66699 19.125C7.0957 19.4854 6.42773 19.3975 5.94434 18.9141L4.72266 17.6924C4.23926 17.209 4.14258 16.541 4.51172 15.9785L5.39941 14.5547L5.30273 14.291L3.65918 13.9043C3.01758 13.7461 2.5957 13.2188 2.5957 12.5508V10.8105C2.5957 10.1426 3.00879 9.61523 3.65918 9.45703L5.28516 9.06152L5.39062 8.78027L4.50293 7.35645C4.13379 6.79395 4.23047 6.13477 4.71387 5.64258L5.93555 4.41211C6.41016 3.9375 7.07812 3.84961 7.64941 4.20117L9.07324 5.08008L9.37207 4.96582L9.75879 3.32227C9.91699 2.67188 10.4355 2.25879 11.1123 2.25879H12.8877C13.5645 2.25879 14.083 2.67188 14.2412 3.32227L14.6191 4.96582L14.918 5.08008L16.3506 4.20117C16.9219 3.84961 17.5811 3.9375 18.0557 4.41211L19.2861 5.64258C19.7695 6.13477 19.8574 6.79395 19.4971 7.35645L18.6006 8.78027L18.7148 9.06152L20.3408 9.45703C20.9912 9.61523 21.4043 10.1426 21.4043 10.8105V12.5508C21.4043 13.2188 20.9824 13.7461 20.3408 13.9043L18.6973 14.291L18.5918 14.5547L19.4883 15.9785C19.8486 16.541 19.7607 17.209 19.2773 17.6924L18.0469 18.9141C17.5635 19.3975 16.9043 19.4854 16.333 19.125L14.9004 18.2461L14.6191 18.3428L14.2412 19.9863C14.083 20.6367 13.5645 21.0498 12.8877 21.0498H11.1123ZM11.2529 19.6787H12.7471C12.8965 19.6787 12.9756 19.6172 12.9932 19.4766L13.5293 17.2969C14.0654 17.165 14.5576 16.9541 14.9355 16.7168L16.8516 17.8945C16.9658 17.9736 17.0713 17.9561 17.1855 17.8506L18.2139 16.8135C18.3193 16.7168 18.3193 16.6113 18.249 16.4883L17.0713 14.5898C17.2822 14.2207 17.502 13.7197 17.6426 13.1836L19.8311 12.665C19.9629 12.6387 20.0332 12.5596 20.0332 12.4102V10.9424C20.0332 10.7842 19.9717 10.7139 19.8311 10.6875L17.6514 10.1602C17.5107 9.58887 17.2559 9.07031 17.0889 8.74512L18.2578 6.84668C18.3369 6.71484 18.3369 6.60938 18.2314 6.50391L17.1943 5.48438C17.0801 5.37891 16.9922 5.36133 16.8516 5.44043L14.9443 6.60059C14.5488 6.38965 14.0742 6.16992 13.5293 6.0293L12.9932 3.83203C12.9756 3.69141 12.8965 3.62988 12.7471 3.62988H11.2529C11.1035 3.62988 11.0244 3.69141 10.998 3.83203L10.4795 6.01172C9.95215 6.16113 9.41602 6.38086 9.03809 6.5918L7.13965 5.44043C7.00781 5.36133 6.91113 5.37891 6.80566 5.48438L5.75977 6.50391C5.66309 6.60938 5.6543 6.71484 5.7334 6.84668L6.90234 8.74512C6.74414 9.07031 6.48047 9.58887 6.33984 10.1602L4.16895 10.6875C4.01953 10.7139 3.9668 10.7842 3.9668 10.9424V12.4102C3.9668 12.5596 4.02832 12.6387 4.16895 12.665L6.34863 13.1836C6.48926 13.7197 6.71777 14.2207 6.91992 14.5898L5.74219 16.4883C5.67188 16.6113 5.68066 16.7168 5.77734 16.8135L6.81445 17.8506C6.91992 17.9561 7.03418 17.9736 7.13965 17.8945L9.05566 16.7168C9.43359 16.9541 9.93457 17.165 10.4707 17.2969L10.998 19.4766C11.0244 19.6172 11.1035 19.6787 11.2529 19.6787ZM12 15.0117C10.1543 15.0117 8.64258 13.4912 8.64258 11.6543C8.64258 9.82617 10.1631 8.31445 12 8.31445C13.8369 8.31445 15.3486 9.82617 15.3486 11.6543C15.3486 13.5 13.8369 15.0117 12 15.0117ZM12 13.6494C13.0723 13.6494 13.9688 12.7441 13.9688 11.6543C13.9688 10.5732 13.0723 9.67676 12 9.67676C10.9102 9.67676 10.0137 10.5732 10.0137 11.6543C10.0137 12.7529 10.9102 13.6494 12 13.6494Z" />
</svg>
