<svg width="24" height="24" viewBox="0 0 24 24" fill="none" xmlns="http://www.w3.org/2000/svg">
<path d="M8.86481 21.4951C9.17466 21.3619 9.39041 21.0544 9.39041 20.6964V18.3484C9.39041 18.2635 9.39729 18.174 9.40877 18.0822C9.40188 18.0845 9.39729 18.0868 9.39041 18.0868C9.39041 18.0868 8.08676 18.0868 7.82511 18.0868C7.17328 18.0868 6.60868 17.8251 6.34703 17.3041C6.04407 16.7395 5.91324 15.7824 5.13059 15.2614C4.99977 15.1742 5.08699 15.0434 5.34863 15.0434C5.60799 15.087 6.17489 15.4359 6.52146 15.9132C6.91393 16.3906 7.30411 16.7831 7.99954 16.7831C9.08056 16.7831 9.66123 16.728 10.0101 16.5421C10.4163 15.9385 10.9787 15.4795 11.5662 15.4795V15.468C9.10122 15.3877 7.52674 14.5683 6.79229 13.3036C5.19945 13.322 3.81317 13.4804 3.02134 13.6112C2.9961 13.4689 2.97315 13.3266 2.95479 13.182C3.73743 13.0535 5.06174 12.902 6.58343 12.8722C6.53523 12.7528 6.49162 12.6289 6.4572 12.5026C4.93092 12.4246 3.6135 12.4866 2.89741 12.5462C2.88823 12.4017 2.87675 12.2571 2.87445 12.1102C3.59284 12.0528 4.87354 11.9931 6.3608 12.062C6.32637 11.8462 6.30571 11.6236 6.30571 11.3918C6.30571 10.6527 6.56507 9.87009 7.04476 9.21827C6.82672 8.47923 6.52146 6.91393 7.12968 6.34703C8.3048 6.34703 9.13105 6.91393 9.52123 7.2605C10.2603 6.95524 11.0865 6.78311 12 6.78311C12.9135 6.78311 13.7397 6.95524 14.4352 7.2605C14.8253 6.91393 15.6516 6.34703 16.8267 6.34703C17.4785 6.95524 17.1297 8.52054 16.9139 9.21827C17.3913 9.87009 17.653 10.6091 17.6094 11.3918C17.6094 11.6006 17.5887 11.8049 17.5612 12.0046C19.0829 11.9289 20.398 11.9885 21.1278 12.0482C21.1278 12.1951 21.1141 12.3374 21.1049 12.482C20.3796 12.4223 19.0301 12.3603 17.4717 12.443C17.4326 12.5899 17.3867 12.7322 17.3294 12.8699C18.8717 12.8905 20.2281 13.0397 21.0475 13.1705C21.0291 13.3128 21.0062 13.4574 20.9809 13.5997C20.1501 13.4666 18.7317 13.3105 17.1205 13.3014C16.3975 14.5545 14.8506 15.3693 12.4338 15.4657V15.4795C13.5653 15.4795 14.6096 17.1733 14.6096 18.3484V20.6964C14.6096 21.0544 14.8253 21.3619 15.1352 21.4951C19.1173 20.1753 22 16.4182 22 12C22 6.48703 17.5153 2 12 2C6.48474 2 2 6.48703 2 12C2 16.4182 4.88272 20.1753 8.86481 21.4951Z" fill="#383F47"/>
</svg>
