<svg width="24" height="25" viewBox="0 0 24 25" fill="none" xmlns="http://www.w3.org/2000/svg">
<rect width="24" height="24" transform="translate(0 0.5)" fill="white"/>
<path fill-rule="evenodd" clip-rule="evenodd" d="M23.04 12.7613C23.04 11.9459 22.9668 11.1618 22.8309 10.4091H12V14.8575H18.1891C17.9225 16.295 17.1123 17.5129 15.8943 18.3284V21.2138H19.6109C21.7855 19.2118 23.04 16.2636 23.04 12.7613Z" fill="#4285F4"/>
<path fill-rule="evenodd" clip-rule="evenodd" d="M12 23.9998C15.105 23.9998 17.7081 22.97 19.6109 21.2137L15.8943 18.3282C14.8645 19.0182 13.5472 19.4259 12 19.4259C9.00474 19.4259 6.46951 17.403 5.56519 14.6848H1.72314V17.6644C3.61542 21.4228 7.50451 23.9998 12 23.9998Z" fill="#34A853"/>
<path fill-rule="evenodd" clip-rule="evenodd" d="M5.56523 14.6851C5.33523 13.9951 5.20455 13.2581 5.20455 12.5001C5.20455 11.7422 5.33523 11.0051 5.56523 10.3151V7.33557H1.72318C0.944318 8.88807 0.5 10.6444 0.5 12.5001C0.5 14.3558 0.944318 16.1122 1.72318 17.6647L5.56523 14.6851Z" fill="#FBBC05"/>
<path fill-rule="evenodd" clip-rule="evenodd" d="M12 5.57386C13.6884 5.57386 15.2043 6.15409 16.3961 7.29364L19.6945 3.99523C17.7029 2.13955 15.0997 1 12 1C7.50451 1 3.61542 3.57705 1.72314 7.33545L5.56519 10.315C6.46951 7.59682 9.00474 5.57386 12 5.57386Z" fill="#EA4335"/>
</svg>
