<svg width="24" height="24" viewBox="0 0 24 24" fill="none" xmlns="http://www.w3.org/2000/svg">
<path d="M19.6194 2H4.38059C3.06586 2 2 3.06586 2 4.38059V19.6194C2 20.9341 3.06586 22 4.38059 22H19.6194C20.9341 22 22 20.9341 22 19.6194V4.38059C22 3.06586 20.9341 2 19.6194 2ZM8.18904 9.61941V18.6667H5.33333V9.61941H8.18904ZM5.33333 6.98492C5.33333 6.31875 5.90397 5.80845 6.76119 5.80845C7.6184 5.80845 8.15636 6.31875 8.18904 6.98492C8.18904 7.65108 7.65611 8.18904 6.76119 8.18904C5.90397 8.18904 5.33333 7.65108 5.33333 6.98492ZM18.6667 18.6667H15.811C15.811 18.6667 15.811 14.2574 15.811 13.9055C15.811 12.9527 15.3333 12 14.1418 11.9799H14.1041C12.9527 11.9799 12.4751 12.9628 12.4751 13.9055C12.4751 14.3379 12.4751 18.6667 12.4751 18.6667H9.61941V9.61941H12.4751V10.8386C12.4751 10.8386 13.3952 9.61941 15.2428 9.61941C17.1332 9.61941 18.6667 10.9191 18.6667 13.5535V18.6667Z" fill="#383F47"/>
</svg>
