<svg width="24" height="24" viewBox="0 0 24 24" fill="none" xmlns="http://www.w3.org/2000/svg">
<path d="M20.3175 4.49295C18.7875 3.80295 17.1475 3.29295 15.4325 3.00295C15.4172 3.00002 15.4014 3.00191 15.3872 3.00836C15.3731 3.01481 15.3613 3.0255 15.3535 3.03895C15.1435 3.40795 14.9095 3.88895 14.7455 4.26895C12.9266 3.99719 11.0774 3.99719 9.25848 4.26895C9.07582 3.84781 8.86983 3.43717 8.64148 3.03895C8.63374 3.02533 8.62203 3.0144 8.60792 3.00761C8.5938 3.00082 8.57795 2.9985 8.56248 3.00095C6.84848 3.29095 5.20848 3.80095 3.67748 4.49195C3.66431 4.49748 3.65314 4.5069 3.64548 4.51895C0.533481 9.09395 -0.319519 13.556 0.0994805 17.962C0.100647 17.9728 0.103996 17.9832 0.109326 17.9927C0.114655 18.0021 0.121853 18.0104 0.130481 18.017C1.94687 19.3394 3.97282 20.3468 6.12348 20.997C6.13847 21.0016 6.15451 21.0016 6.16949 20.9969C6.18448 20.9923 6.19772 20.9833 6.20748 20.971C6.67028 20.352 7.08038 19.6954 7.43348 19.008C7.43838 18.9986 7.44121 18.9882 7.44176 18.9776C7.44232 18.9671 7.4406 18.9565 7.43671 18.9466C7.43282 18.9368 7.42686 18.9278 7.41923 18.9205C7.4116 18.9131 7.40248 18.9075 7.39248 18.904C6.74649 18.6607 6.12057 18.3671 5.52048 18.026C5.5097 18.0198 5.50061 18.0111 5.49404 18.0005C5.48746 17.99 5.48361 17.978 5.48281 17.9656C5.48202 17.9532 5.48432 17.9408 5.48949 17.9296C5.49467 17.9183 5.50257 17.9085 5.51248 17.901C5.63848 17.808 5.76448 17.711 5.88448 17.614C5.89528 17.6053 5.90829 17.5997 5.92206 17.5979C5.93584 17.5962 5.94983 17.5983 5.96248 17.604C9.88948 19.368 14.1425 19.368 18.0235 17.604C18.0362 17.5979 18.0503 17.5956 18.0643 17.5971C18.0782 17.5987 18.0915 17.6042 18.1025 17.613C18.2225 17.711 18.3475 17.808 18.4745 17.901C18.4845 17.9083 18.4925 17.918 18.4979 17.9292C18.5032 17.9404 18.5057 17.9527 18.5051 17.9651C18.5045 17.9775 18.5008 17.9895 18.4945 18.0001C18.4881 18.0108 18.4791 18.0196 18.4685 18.026C17.8705 18.37 17.2485 18.661 16.5955 18.903C16.5855 18.9066 16.5763 18.9124 16.5687 18.9198C16.561 18.9273 16.5551 18.9363 16.5512 18.9462C16.5473 18.9561 16.5456 18.9668 16.5462 18.9774C16.5467 18.9881 16.5496 18.9985 16.5545 19.008C16.9145 19.695 17.3265 20.349 17.7795 20.97C17.7889 20.9827 17.802 20.9922 17.8171 20.9973C17.8321 21.0023 17.8483 21.0025 17.8635 20.998C20.0178 20.3496 22.0471 19.3417 23.8655 18.017C23.8744 18.0108 23.8818 18.0027 23.8873 17.9934C23.8928 17.9841 23.8963 17.9737 23.8975 17.963C24.3975 12.8689 23.0595 8.44295 20.3485 4.52095C20.3418 4.50821 20.3308 4.49827 20.3175 4.49295ZM8.02048 15.279C6.83848 15.279 5.86348 14.21 5.86348 12.8989C5.86348 11.5869 6.81948 10.5189 8.02048 10.5189C9.23048 10.5189 10.1965 11.5959 10.1775 12.8989C10.1775 14.211 9.22148 15.279 8.02048 15.279ZM15.9955 15.279C14.8125 15.279 13.8385 14.21 13.8385 12.8989C13.8385 11.5869 14.7935 10.5189 15.9955 10.5189C17.2055 10.5189 18.1715 11.5959 18.1525 12.8989C18.1525 14.211 17.2065 15.279 15.9955 15.279Z" fill="#383F47"/>
</svg>
