<svg width="24" height="24" viewBox="0 0 24 24" fill="none" xmlns="http://www.w3.org/2000/svg">
<path d="M4.372 7.264C4.38425 7.14227 4.36784 7.01935 4.32408 6.9051C4.28032 6.79084 4.21043 6.68841 4.12 6.606L2.252 4.339V4H8.05L12.532 13.905L16.472 4H22V4.339L20.403 5.88C20.3353 5.93225 20.2831 6.00189 20.2519 6.0815C20.2208 6.16111 20.2118 6.24769 20.226 6.332V17.666C20.2118 17.7503 20.2208 17.8369 20.2519 17.9165C20.2831 17.9961 20.3353 18.0658 20.403 18.118L21.963 19.66V20H14.119V19.661L15.735 18.081C15.894 17.921 15.894 17.874 15.894 17.63V8.468L11.402 19.962H10.796L5.566 8.468V16.172C5.523 16.495 5.63 16.822 5.856 17.056L7.957 19.624V19.962H2V19.624L4.1 17.056C4.21111 16.9401 4.29357 16.7997 4.3408 16.6462C4.38803 16.4928 4.39871 16.3304 4.372 16.172V7.264Z" fill="#383F47"/>
</svg>
