<svg width="16" height="16" viewBox="0 0 16 16" fill="none" xmlns="http://www.w3.org/2000/svg">
<g clip-path="url(#clip0_4082_3104)">
<path d="M3.7168 1.02344H12.4395C12.3848 0.367188 11.9678 0.00488281 11.2705 0.00488281H4.88574C4.18848 0.00488281 3.77148 0.367188 3.7168 1.02344ZM2.35645 3.13574H13.7998C13.7109 2.43848 13.335 2.02148 12.5352 2.02148H3.62109C2.82129 2.02148 2.44531 2.43848 2.35645 3.13574ZM3.15625 16.1104H12.9932C14.5518 16.1104 15.4131 15.2627 15.4131 13.7109V6.66992C15.4131 5.11816 14.5518 4.27051 12.9932 4.27051H3.15625C1.59766 4.27051 0.743164 5.11816 0.743164 6.66992V13.7109C0.743164 15.2627 1.59766 16.1104 3.15625 16.1104ZM3.34766 14.3467C2.80078 14.3467 2.50684 14.0801 2.50684 13.499V6.88184C2.50684 6.30078 2.80078 6.03418 3.34766 6.03418H12.8018C13.3486 6.03418 13.6494 6.30078 13.6494 6.88184V13.499C13.6494 14.0801 13.3486 14.3467 12.8018 14.3467H3.34766ZM8.46777 12.8291C8.61133 12.8291 8.71387 12.7266 8.74121 12.5898C9.0625 10.6553 9.27441 10.3135 11.2637 10.0605C11.4141 10.04 11.5166 9.92383 11.5166 9.78027C11.5166 9.64355 11.4141 9.53418 11.2637 9.51367C9.31543 9.25391 9.04883 8.91895 8.74121 6.99121C8.71387 6.84082 8.61133 6.73828 8.46777 6.73828C8.33105 6.73828 8.22168 6.83398 8.19434 6.98438C7.88672 8.91895 7.64746 9.24707 5.67188 9.51367C5.52832 9.53418 5.42578 9.64355 5.42578 9.78027C5.42578 9.92383 5.52832 10.0332 5.67188 10.0605C7.62012 10.3203 7.88672 10.6348 8.19434 12.5898C8.22168 12.7266 8.32422 12.8291 8.46777 12.8291ZM5.76074 13.9092C5.85645 13.9092 5.93848 13.8408 5.95898 13.7383C6.11621 12.7812 6.08203 12.7607 7.12109 12.583C7.2168 12.5625 7.28516 12.4805 7.28516 12.3848C7.28516 12.2891 7.2168 12.2002 7.12109 12.1865C6.08887 12.0293 6.11621 12.002 5.95898 11.0449C5.93848 10.9355 5.86328 10.8604 5.76074 10.8604C5.6582 10.8604 5.58301 10.9287 5.5625 11.0449C5.39844 11.9814 5.43945 12.002 4.40039 12.1865C4.29785 12.207 4.22949 12.2891 4.22949 12.3848C4.22949 12.4941 4.29785 12.5625 4.4209 12.583C5.43945 12.7402 5.39844 12.7744 5.5625 13.7246C5.58301 13.834 5.65137 13.9092 5.76074 13.9092Z" fill="#383F47"/>
</g>
<defs>
<clipPath id="clip0_4082_3104">
<rect width="16" height="16" fill="white"/>
</clipPath>
</defs>
</svg>
