<svg width="16" height="16" viewBox="0 0 16 16" fill="none" xmlns="http://www.w3.org/2000/svg">
<path d="M2.46289 11.6855H3.47656V12.5469C3.47656 13.877 4.20312 14.6035 5.54492 14.6035H13.5312C14.8672 14.6035 15.5996 13.877 15.5996 12.5469V6.91016C15.5996 5.58008 14.8672 4.85352 13.5312 4.85352H12.4883V3.99219C12.4883 2.66797 11.75 1.93555 10.4141 1.93555H2.46289C1.12695 1.93555 0.394531 2.66211 0.394531 3.99219V9.63477C0.394531 10.959 1.12695 11.6855 2.46289 11.6855ZM2.62695 10.1738C2.1582 10.1738 1.90625 9.94531 1.90625 9.44727V4.17969C1.90625 3.68164 2.1582 3.44727 2.62695 3.44727H10.25C10.7188 3.44727 10.9766 3.68164 10.9766 4.17969V4.85352H5.54492C4.20312 4.85352 3.47656 5.58008 3.47656 6.91016V10.1738H2.62695ZM5.70898 13.0918C5.23438 13.0918 4.98828 12.8574 4.98828 12.3594V7.0918C4.98828 6.59375 5.23438 6.36523 5.70898 6.36523H13.3613C13.8301 6.36523 14.0879 6.59375 14.0879 7.0918V12.3594C14.0879 12.8574 13.8301 13.0918 13.3613 13.0918H5.70898ZM6.8457 9.72852C6.8457 10.0977 7.11523 10.373 7.49023 10.373H8.89062V11.7734C8.89062 12.1484 9.16016 12.418 9.53516 12.418C9.91602 12.418 10.1914 12.1484 10.1914 11.7734V10.373H11.5918C11.9609 10.373 12.2305 10.0977 12.2305 9.72852C12.2305 9.34766 11.9668 9.07227 11.5918 9.07227H10.1914V7.67188C10.1914 7.29688 9.91602 7.02734 9.53516 7.02734C9.16016 7.02734 8.89062 7.29688 8.89062 7.67188V9.07227H7.49023C7.11523 9.07227 6.8457 9.34766 6.8457 9.72852Z" fill="#383F47"/>
</svg>
