<svg width="32" height="32" viewBox="0 0 32 32" fill="none" xmlns="http://www.w3.org/2000/svg">
<path d="M25.2245 19.8886C24.5879 21.3946 23.5921 22.7217 22.3242 23.7538C21.0564 24.7859 19.5551 25.4916 17.9516 25.8093C16.3481 26.1269 14.6912 26.0469 13.1258 25.576C11.5603 25.1052 10.1341 24.258 8.9716 23.1085C7.80914 21.9589 6.94591 20.542 6.45737 18.9817C5.96884 17.4214 5.86987 15.7651 6.16912 14.1576C6.46838 12.5502 7.15675 11.0405 8.17404 9.76067C9.19134 8.48081 10.5066 7.4697 12.0048 6.81574M25.2533 12.1642C25.6539 13.1316 25.8997 14.1543 25.9831 15.1949C26.0037 15.4519 26.014 15.5804 25.9629 15.6962C25.9203 15.7929 25.8359 15.8844 25.7429 15.9347C25.6316 15.9948 25.4926 15.9948 25.2145 15.9948H16.8083C16.5281 15.9948 16.388 15.9948 16.2809 15.9402C16.1868 15.8923 16.1102 15.8157 16.0623 15.7215C16.0077 15.6145 16.0077 15.4743 16.0077 15.194V6.78571C16.0077 6.50757 16.0077 6.3685 16.0679 6.25717C16.1181 6.16417 16.2096 6.0797 16.3063 6.03706C16.422 5.98602 16.5505 5.99632 16.8075 6.01693C17.8477 6.10035 18.8702 6.34616 19.8374 6.74687C21.0515 7.24992 22.1547 7.98724 23.084 8.91674C24.0133 9.84625 24.7504 10.9497 25.2533 12.1642Z" stroke="#383F47" stroke-width="1.5" stroke-linecap="round" stroke-linejoin="round"/>
</svg>
