<svg width="24" height="24" viewBox="0 0 24 24" fill="none" xmlns="http://www.w3.org/2000/svg">
<path fill-rule="evenodd" clip-rule="evenodd" d="M10.75 6.74996V5.61724C10.8681 5.67738 10.9732 5.76348 11.0558 5.89254C11.151 6.0413 11.25 6.30004 11.25 6.74996C11.25 7.16418 11.5858 7.49996 12 7.49996H15.25C17.0449 7.49996 18.5 8.95504 18.5 10.75V13.25C18.5 15.0449 17.0449 16.5 15.25 16.5H9C8.56874 16.5 8.29515 16.3943 8.11524 16.2744C7.93064 16.1513 7.79821 15.9819 7.70207 15.7896C7.60446 15.5944 7.55192 15.3901 7.52495 15.2283C7.51176 15.1491 7.50546 15.0848 7.50249 15.0432C7.50101 15.0226 7.50039 15.0079 7.50013 15.0003L7.49998 14.9948C7.49716 14.583 7.16247 14.25 6.75 14.25H5.75C5.61197 14.25 5.5 14.138 5.5 14V11C5.5 10.8619 5.61196 10.75 5.75 10.75H6.75C7.16307 10.75 7.49815 10.416 7.49999 10.0034L7.49999 10.0033L7.5 10.0024L7.5 10.0027L7.50038 9.98845C7.50088 9.97349 7.50199 9.94809 7.50444 9.91375C7.50937 9.84482 7.51958 9.74146 7.54058 9.61545C7.58317 9.35988 7.66696 9.03059 7.82707 8.71037C7.98571 8.3931 8.21189 8.09863 8.53712 7.88181C8.85765 7.66812 9.31874 7.49996 10 7.49996C10.4142 7.49996 10.75 7.16418 10.75 6.74996ZM7.5 10.0024L7.5 10.0023L7.5 10.0013L7.5 10.0024ZM6.48543 8.03955C6.26584 8.47873 6.14718 8.91067 6.08226 9.24996H5.75C4.78348 9.24996 4 10.0335 4 11V14C4 14.9664 4.78347 15.75 5.75 15.75H6.10195C6.15442 15.9638 6.23521 16.21 6.36043 16.4604C6.54554 16.8306 6.83499 17.2237 7.28319 17.5225C7.49602 17.6644 7.73473 17.7783 8 17.8593V19.25C8 19.6642 8.33579 20 8.75 20C9.16421 20 9.5 19.6642 9.5 19.25V18H14.5V19.25C14.5 19.6642 14.8358 20 15.25 20C15.6642 20 16 19.6642 16 19.25V17.9411C18.267 17.5815 20 15.6181 20 13.25V10.75C20 8.12661 17.8733 5.99996 15.25 5.99996H12.6794C12.6091 5.6518 12.4874 5.3468 12.3192 5.08395C12.0384 4.64524 11.662 4.37719 11.3006 4.2191C10.9462 4.06406 10.6037 4.01279 10.3593 3.99752C10.2349 3.98974 10.1297 3.99092 10.0525 3.99436C10.0137 3.99609 9.98158 3.99842 9.95709 4.00056C9.94482 4.00163 9.93443 4.00266 9.92605 4.00356L9.91498 4.00479L9.91059 4.00531L9.90868 4.00554L9.9078 4.00565C9.90738 4.0057 9.90697 4.00576 10 4.74996L9.90697 4.00576C9.53165 4.05267 9.25 4.37172 9.25 4.74996V6.05428C8.64453 6.14577 8.13228 6.34893 7.70507 6.63374C7.11624 7.02629 6.73304 7.54433 6.48543 8.03955ZM10 10C9.44769 10 9 10.4478 9 11C9 11.5522 9.44769 12 10 12C10.5522 12 11 11.5522 11 11C11 10.4478 10.5522 10 10 10Z" fill="#383F47"/>
</svg>
