<svg width="28" height="18" viewBox="0 0 28 18" fill="none" xmlns="http://www.w3.org/2000/svg">
<path d="M25.756 0.725586C26.1421 0.725586 26.4765 0.858511 26.7518 1.12241V1.12176C27.0326 1.38599 27.1765 1.70904 27.1765 2.08441C27.1765 2.45979 27.0326 2.78316 26.7518 3.04706C26.4765 3.31096 26.1421 3.44389 25.756 3.44389C25.3699 3.44389 25.0332 3.31129 24.7527 3.04771L24.7517 3.04674C24.4761 2.78251 24.3354 2.45914 24.3354 2.08474C24.3354 1.71034 24.4761 1.38729 24.7517 1.12274L24.7527 1.12176C25.0332 0.858511 25.3699 0.725586 25.756 0.725586Z" fill="#383F47"/>
<path d="M9.02464 8.77129C9.54074 8.96401 10.0331 9.22726 10.5011 9.56006L10.5014 9.56104C10.9821 9.89384 11.3776 10.3215 11.688 10.8422C12.0042 11.3729 12.1586 12.018 12.1586 12.7711C12.1586 13.643 11.9298 14.4341 11.4712 15.1403C11.0169 15.8482 10.3532 16.4072 9.48711 16.8193C8.62261 17.233 7.57839 17.4371 6.35964 17.4371C5.22279 17.4371 4.23154 17.2535 3.38914 16.882C2.55356 16.5112 1.89056 15.9918 1.40534 15.3223V15.3217C0.925636 14.6518 0.65491 13.8748 0.592185 12.9947L0.581787 12.8504H2.80966L2.82039 12.9735C2.86914 13.5403 3.05861 14.0012 3.38296 14.3642C3.71869 14.7285 4.14281 15.0025 4.65924 15.1845C5.18476 15.3629 5.75156 15.4526 6.36029 15.4526C7.06976 15.4526 7.70254 15.3376 8.26056 15.1107C8.81891 14.8784 9.25604 14.5595 9.57648 14.1565C9.89336 13.7529 10.0523 13.2826 10.0523 12.7399C10.0523 12.2459 9.91514 11.8562 9.65026 11.5588C9.37466 11.2494 9.00936 10.9946 8.54949 10.797C8.08116 10.5955 7.57416 10.4187 7.02816 10.2669H7.02718L5.09831 9.71574C3.85974 9.35954 2.86979 8.84864 2.13594 8.17784C1.39104 7.49664 1.02054 6.60451 1.02054 5.51414C1.02054 4.61031 1.26526 3.81666 1.75796 3.13839C2.25229 2.45979 2.91464 1.93524 3.74014 1.56409C4.57084 1.18806 5.48604 1.00119 6.51271 1.00119C7.53939 1.00119 8.45719 1.18546 9.26319 1.55694C10.0672 1.92256 10.7085 2.42599 11.183 3.06884C11.664 3.71364 11.9178 4.44716 11.9441 5.26486L11.9487 5.40396H9.85274L9.83876 5.28501C9.75166 4.54921 9.40099 3.98241 8.78121 3.57551C8.15429 3.16438 7.38014 2.95476 6.45161 2.95476C5.77204 2.95476 5.18379 3.06461 4.68361 3.28041C4.18669 3.49686 3.80384 3.79196 3.52921 4.16279C3.26076 4.53166 3.12654 4.95026 3.12654 5.42249C3.12654 5.81834 3.22014 6.15081 3.40181 6.42641C3.59486 6.70591 3.84089 6.94024 4.14184 7.12971C4.45026 7.31854 4.77364 7.47518 5.11164 7.59966C5.45549 7.72088 5.77074 7.81904 6.05706 7.89476H6.05771L7.64891 8.32311H7.64924C8.06296 8.43166 8.52154 8.58116 9.02464 8.77129Z" fill="#383F47"/>
<path d="M26.7784 5.13453H24.7026V17.1608H26.7784V5.13453Z" fill="#383F47"/>
<path d="M20.4221 13.9576C20.7246 13.5111 20.881 12.9345 20.881 12.2192V5.13486H22.9567V17.1612H20.881V15.3568C20.5972 15.8631 20.1978 16.3006 19.6859 16.6688L19.6853 16.6694C19.0759 17.1023 18.3118 17.3142 17.4028 17.3142C16.6478 17.3142 15.9712 17.1491 15.3774 16.8144H15.3764C14.7794 16.4731 14.3127 15.9622 13.9757 15.2875C13.637 14.605 13.4716 13.7535 13.4716 12.7399V5.13453H15.5474V12.6173C15.5474 13.4484 15.7791 14.0961 16.2302 14.5761C16.6875 15.0578 17.2689 15.2996 17.9846 15.2996C18.41 15.2996 18.8465 15.1907 19.295 14.9687H19.2956C19.7415 14.7503 20.1169 14.4152 20.4214 13.9586L20.4221 13.9576Z" fill="#383F47"/>
</svg>
