<svg width="21" height="26" viewBox="0 0 21 26" fill="none" xmlns="http://www.w3.org/2000/svg">
<path fill-rule="evenodd" clip-rule="evenodd" d="M16.2763 10.8436V10.8449C17.3365 12.1748 17.9705 13.8596 17.9705 15.6916C17.9705 17.5237 17.3176 19.2585 16.2282 20.5975L16.1343 20.7129L16.1096 20.5663C16.0885 20.4418 16.0634 20.3158 16.0348 20.189C15.4898 17.7938 13.7134 15.7397 10.79 14.0767C8.81595 12.9568 7.68592 11.608 7.3892 10.076C7.19745 9.08505 7.34013 8.0899 7.6154 7.23742C7.89068 6.38527 8.30017 5.67125 8.64792 5.2416L9.7851 3.85092C9.98465 3.60717 10.3577 3.60717 10.5573 3.85092L16.2766 10.8439L16.2763 10.8436ZM18.0752 9.45425V9.4536L10.4526 0.133575C10.307 -0.044525 10.0347 -0.044525 9.8891 0.133575L2.26655 9.45393V9.45457L2.24185 9.48545C0.839475 11.2258 0 13.4378 0 15.8457C0 21.4536 4.55358 26 10.1709 26C15.7882 26 20.3417 21.4536 20.3417 15.8457C20.3417 13.4378 19.5023 11.2258 18.0996 9.48512L18.0746 9.45425H18.0752ZM4.09078 10.8134L4.77262 9.97945L4.7931 10.1335C4.80935 10.2554 4.82917 10.3779 4.85257 10.5011C5.2936 12.8157 6.86952 14.7456 9.5043 16.2402C11.7946 17.5435 13.128 19.0424 13.5122 20.6862C13.6724 21.3723 13.701 22.0473 13.6318 22.6375L13.6276 22.6739L13.5944 22.6902C12.5609 23.1952 11.3987 23.4786 10.1705 23.4786C5.863 23.4786 2.37087 19.9924 2.37087 15.6916C2.37087 13.8453 3.0147 12.1485 4.09045 10.8137L4.09078 10.8134Z" fill="#383F47"/>
</svg>
