<svg width="16" height="16" viewBox="0 0 16 16" fill="none" xmlns="http://www.w3.org/2000/svg">
<path fill-rule="evenodd" clip-rule="evenodd" d="M3.67675 12.6284C4.57909 14.1915 6.19533 15.1245 8 15.1245C9.80467 15.1245 11.4206 14.1915 12.3232 12.6284C13.2256 11.0657 13.2256 9.19959 12.3232 7.63653L8.52086 1.05072C8.28937 0.64976 7.71063 0.649761 7.47914 1.05072L3.67675 7.63653C2.77442 9.19928 2.77442 11.0653 3.67675 12.6284ZM6.92886 4.18388L7.73957 2.77968C7.85531 2.57919 8.14469 2.57919 8.26043 2.77968L11.3793 8.18176C11.9523 9.17418 12.0598 10.3228 11.7019 11.3739C11.6647 11.2024 11.6126 11.027 11.5424 10.8497C11.1116 9.76253 10.1375 8.9236 8.64663 8.35602C7.62163 7.96721 6.96736 7.39538 6.70151 6.65632C6.35908 5.70373 6.71674 4.66495 6.92886 4.18388ZM5.54647 6.57829L4.62072 8.18176C3.91533 9.40352 3.91533 10.862 4.62072 12.0838C5.32612 13.3055 6.58921 14.0346 8 14.0346C8.93702 14.0346 9.80912 13.7127 10.4958 13.1385C10.5854 12.913 10.8627 12.0877 10.5201 11.237C10.2036 10.4515 9.44206 9.82444 8.25639 9.37281C6.91614 8.86441 6.04541 8.07071 5.66888 7.01447C5.61702 6.86904 5.57673 6.72331 5.54647 6.57829Z" fill="#383F47"/>
</svg>
