<svg width="77" height="26" viewBox="0 0 77 26" fill="none" xmlns="http://www.w3.org/2000/svg">
    <path fill-rule="evenodd" clip-rule="evenodd" d="M16.2763 10.8449V10.8436L16.2766 10.8439L10.5573 3.85092C10.3577 3.60717 9.98465 3.60717 9.7851 3.85092L8.64792 5.2416C8.30017 5.67125 7.89068 6.38527 7.6154 7.23742C7.34013 8.0899 7.19745 9.08505 7.3892 10.076C7.68592 11.608 8.81595 12.9568 10.79 14.0767C13.7134 15.7397 15.4898 17.7938 16.0348 20.189C16.0634 20.3158 16.0885 20.4418 16.1096 20.5663L16.1343 20.7129L16.2282 20.5975C17.3176 19.2585 17.9705 17.5237 17.9705 15.6916C17.9705 13.8596 17.3365 12.1748 16.2763 10.8449ZM18.0752 9.4536V9.45425H18.0746L18.0996 9.48512C19.5023 11.2258 20.3417 13.4378 20.3417 15.8457C20.3417 21.4536 15.7882 26 10.1709 26C4.55358 26 0 21.4536 0 15.8457C0 13.4378 0.839475 11.2258 2.24185 9.48545L2.26655 9.45457V9.45393L9.8891 0.133575C10.0347 -0.044525 10.307 -0.044525 10.4526 0.133575L18.0752 9.4536ZM4.77262 9.97945L4.09078 10.8134L4.09045 10.8137C3.0147 12.1485 2.37087 13.8453 2.37087 15.6916C2.37087 19.9924 5.863 23.4786 10.1705 23.4786C11.3987 23.4786 12.5609 23.1952 13.5944 22.6902L13.6276 22.6739L13.6318 22.6375C13.701 22.0473 13.6724 21.3723 13.5122 20.6862C13.128 19.0424 11.7946 17.5435 9.5043 16.2402C6.86952 14.7456 5.2936 12.8157 4.85257 10.5011C4.82917 10.3779 4.80935 10.2554 4.7931 10.1335L4.77262 9.97945ZM43.7145 2C44.0169 2 44.2788 2.1041 44.4944 2.31076V2.31025C44.7143 2.51718 44.827 2.77016 44.827 3.06413C44.827 3.3581 44.7143 3.61134 44.4944 3.81801C44.2788 4.02467 44.0169 4.12877 43.7145 4.12877C43.4122 4.12877 43.1485 4.02493 42.9288 3.81852L42.9281 3.81775C42.7123 3.61083 42.602 3.35759 42.602 3.06439C42.602 2.77118 42.7123 2.51819 42.9281 2.31102L42.9288 2.31025C43.1485 2.1041 43.4122 2 43.7145 2ZM30.6118 8.30079C31.016 8.45172 31.4016 8.65788 31.7681 8.9185L31.7683 8.91927C32.1448 9.17989 32.4545 9.51483 32.6976 9.92257C32.9452 10.3382 33.0661 10.8434 33.0661 11.4331C33.0661 12.116 32.8869 12.7355 32.5278 13.2885C32.172 13.8429 31.6523 14.2806 30.974 14.6034C30.297 14.9274 29.4792 15.0872 28.5248 15.0872C27.6345 15.0872 26.8582 14.9434 26.1985 14.6525C25.5441 14.3621 25.0249 13.9554 24.6449 13.4311V13.4306C24.2693 12.906 24.0573 12.2975 24.0081 11.6082L24 11.4952H25.7447L25.7531 11.5917C25.7913 12.0356 25.9397 12.3965 26.1937 12.6808C26.4566 12.9661 26.7887 13.1806 27.1932 13.3232C27.6047 13.4629 28.0486 13.5331 28.5253 13.5331C29.0809 13.5331 29.5764 13.443 30.0134 13.2654C30.4507 13.0834 30.793 12.8337 31.044 12.5181C31.2921 12.202 31.4166 11.8337 31.4166 11.4087C31.4166 11.0218 31.3092 10.7167 31.1018 10.4838C30.8859 10.2415 30.5998 10.0419 30.2397 9.88719C29.873 9.72939 29.4759 9.59093 29.0483 9.47207H29.0476L27.537 9.04042C26.567 8.76147 25.7918 8.36137 25.2171 7.83605C24.6337 7.30258 24.3436 6.60394 24.3436 5.75004C24.3436 5.04223 24.5352 4.4207 24.9211 3.88952C25.3082 3.3581 25.8269 2.94731 26.4734 2.65665C27.1239 2.36218 27.8406 2.21583 28.6447 2.21583C29.4487 2.21583 30.1674 2.36014 30.7986 2.65105C31.4283 2.93738 31.9305 3.33163 32.3021 3.83506C32.6787 4.34002 32.8775 4.91446 32.8981 5.55482L32.9017 5.66375H31.2603L31.2494 5.5706C31.1812 4.99438 30.9065 4.5505 30.4212 4.23185C29.9302 3.90989 29.324 3.74572 28.5968 3.74572C28.0646 3.74572 27.6039 3.83175 27.2122 4.00075C26.8231 4.17026 26.5233 4.40136 26.3082 4.69176C26.098 4.98063 25.9929 5.30845 25.9929 5.67826C25.9929 5.98826 26.0662 6.24863 26.2084 6.46446C26.3596 6.68334 26.5523 6.86685 26.788 7.01523C27.0295 7.16311 27.2827 7.28578 27.5474 7.38326C27.8167 7.4782 28.0636 7.55506 28.2878 7.61436H28.2883L29.5344 7.94982H29.5347C29.8587 8.03482 30.2178 8.1519 30.6118 8.30079ZM42.8897 5.45276H44.5153V14.8709H42.8897V5.45276ZM39.5374 12.3624C39.7744 12.0126 39.8968 11.5611 39.8968 11.0009V5.45301H41.5224V14.8711H39.8968V13.458C39.6746 13.8546 39.3618 14.1972 38.9609 14.4855L38.9604 14.486C38.4832 14.825 37.8849 14.991 37.173 14.991C36.5817 14.991 36.0518 14.8617 35.5868 14.5995H35.5861C35.1185 14.3323 34.753 13.9322 34.4891 13.4038C34.2239 12.8693 34.0943 12.2025 34.0943 11.4087V5.45276H35.7199V11.3127C35.7199 11.9635 35.9014 12.4708 36.2547 12.8467C36.6128 13.2239 37.0681 13.4132 37.6286 13.4132C37.9617 13.4132 38.3035 13.328 38.6548 13.1542H38.6553C39.0045 12.9831 39.2984 12.7207 39.5369 12.3631L39.5374 12.3624ZM24 17V23.9091H28.1731V23.0117H25.0424V17H24ZM30.0022 23.6797C30.3643 23.9023 30.7882 24.0137 31.274 24.0137C31.7598 24.0137 32.1838 23.9023 32.5459 23.6797C32.908 23.457 33.1891 23.1455 33.3893 22.7452C33.5894 22.3449 33.6895 21.8771 33.6895 21.3418C33.6895 20.8043 33.5894 20.3342 33.3893 19.9316C33.1891 19.5291 32.908 19.2164 32.5459 18.9938C32.1838 18.7711 31.7598 18.6598 31.274 18.6598C30.7882 18.6598 30.3643 18.7711 30.0022 18.9938C29.6401 19.2164 29.359 19.5291 29.1588 19.9316C28.9586 20.3342 28.8586 20.8043 28.8586 21.3418C28.8586 21.8771 28.9586 22.3449 29.1588 22.7452C29.359 23.1455 29.6401 23.457 30.0022 23.6797ZM32.0601 22.9173C31.8532 23.0837 31.5923 23.1669 31.2774 23.1669C30.9603 23.1669 30.6972 23.0837 30.488 22.9173C30.2811 22.7508 30.127 22.5293 30.0258 22.2527C29.9269 21.976 29.8774 21.6713 29.8774 21.3384C29.8774 21.0078 29.9269 20.7042 30.0258 20.4276C30.127 20.1487 30.2811 19.9249 30.488 19.7562C30.6972 19.5875 30.9603 19.5032 31.2774 19.5032C31.5923 19.5032 31.8532 19.5875 32.0601 19.7562C32.267 19.9249 32.4199 20.1487 32.5189 20.4276C32.6201 20.7042 32.6707 21.0078 32.6707 21.3384C32.6707 21.6713 32.6201 21.976 32.5189 22.2527C32.4199 22.5293 32.267 22.7508 32.0601 22.9173ZM36.8082 24.0137C36.3066 24.0137 35.8748 23.9001 35.5127 23.6729C35.1529 23.4435 34.8762 23.1275 34.6828 22.725C34.4894 22.3224 34.3927 21.8613 34.3927 21.3418C34.3927 20.8155 34.4916 20.3511 34.6896 19.9485C34.8875 19.5437 35.1664 19.2277 35.5262 19.0005C35.8861 18.7734 36.31 18.6598 36.798 18.6598C37.1916 18.6598 37.5425 18.7329 37.8506 18.8791C38.1587 19.023 38.4072 19.2254 38.5962 19.4863C38.7873 19.7472 38.9009 20.052 38.9369 20.4006H37.9552C37.9012 20.1577 37.7775 19.9485 37.5841 19.7731C37.3929 19.5977 37.1365 19.5099 36.8149 19.5099C36.5338 19.5099 36.2875 19.5842 36.0761 19.7326C35.8669 19.8788 35.7039 20.0879 35.5869 20.3601C35.47 20.63 35.4115 20.9493 35.4115 21.3182C35.4115 21.696 35.4689 22.0221 35.5836 22.2965C35.6983 22.5709 35.8602 22.7834 36.0694 22.9341C36.2808 23.0848 36.5293 23.1602 36.8149 23.1602C37.0061 23.1602 37.1793 23.1253 37.3344 23.0556C37.4919 22.9836 37.6234 22.8813 37.7292 22.7486C37.8371 22.6159 37.9125 22.4562 37.9552 22.2695H38.9369C38.9009 22.6046 38.7918 22.9038 38.6097 23.1669C38.4275 23.43 38.1835 23.637 37.8776 23.7876C37.574 23.9383 37.2175 24.0137 36.8082 24.0137ZM40.443 23.8416C40.7083 23.9631 41.0052 24.0238 41.3336 24.0238C41.6192 24.0238 41.8644 23.9822 42.069 23.899C42.2737 23.8158 42.4412 23.7112 42.5717 23.5852C42.7021 23.4593 42.8 23.3311 42.8652 23.2006H42.9057V23.9091H43.8908V20.468C43.8908 20.0902 43.8255 19.7832 43.6951 19.5471C43.5646 19.3087 43.3971 19.1254 43.1924 18.9972C42.99 18.869 42.7719 18.7812 42.538 18.734C42.3063 18.6845 42.087 18.6598 41.8801 18.6598C41.5675 18.6598 41.2695 18.7048 40.9861 18.7947C40.7027 18.8825 40.452 19.0241 40.2338 19.2198C40.0179 19.4132 39.8537 19.6674 39.7413 19.9822L40.6892 20.1982C40.7635 20.016 40.8973 19.8507 41.0907 19.7022C41.2864 19.5515 41.554 19.4762 41.8936 19.4762C42.2197 19.4762 42.4649 19.5572 42.629 19.7191C42.7955 19.881 42.8787 20.1093 42.8787 20.4039V20.4276C42.8787 20.549 42.8348 20.6367 42.7471 20.6907C42.6594 20.7447 42.5188 20.784 42.3254 20.8088L41.5697 20.8965C41.3246 20.9257 41.0839 20.9685 40.8478 21.0247C40.6116 21.0809 40.398 21.1641 40.2068 21.2743C40.0156 21.3845 39.8638 21.5341 39.7514 21.723C39.6389 21.9119 39.5827 22.1526 39.5827 22.445C39.5827 22.7846 39.6592 23.0713 39.8121 23.3052C39.9673 23.5391 40.1776 23.7179 40.443 23.8416ZM42.2681 23.0488C42.0702 23.159 41.8318 23.2141 41.5529 23.2141C41.2672 23.2141 41.0322 23.1512 40.8478 23.0252C40.6634 22.897 40.5712 22.7081 40.5712 22.4585C40.5712 22.2785 40.6184 22.1346 40.7128 22.0266C40.8096 21.9164 40.9378 21.8321 41.0974 21.7736C41.2594 21.7151 41.4382 21.6735 41.6338 21.6488C41.717 21.6375 41.8205 21.6241 41.9442 21.6083C42.0679 21.5903 42.195 21.5712 42.3254 21.551C42.4559 21.5285 42.5717 21.5026 42.6729 21.4734C42.7764 21.4419 42.8461 21.4081 42.8821 21.3722V22.0401C42.8821 22.2448 42.8292 22.4371 42.7235 22.617C42.62 22.7947 42.4682 22.9386 42.2681 23.0488ZM46.053 17V23.9091H45.0443V17H46.053Z" fill="#383F47"/>
</svg>
