<svg width="77" height="26" viewBox="0 0 77 26" fill="none" xmlns="http://www.w3.org/2000/svg">
    <path fill-rule="evenodd" clip-rule="evenodd" d="M16.2763 10.8449V10.8436L16.2766 10.8439L10.5573 3.85092C10.3577 3.60717 9.98465 3.60717 9.7851 3.85092L8.64792 5.2416C8.30017 5.67125 7.89068 6.38527 7.6154 7.23742C7.34013 8.0899 7.19745 9.08505 7.3892 10.076C7.68592 11.608 8.81595 12.9568 10.79 14.0767C13.7134 15.7397 15.4898 17.7938 16.0348 20.189C16.0634 20.3158 16.0885 20.4418 16.1096 20.5663L16.1343 20.7129L16.2282 20.5975C17.3176 19.2585 17.9705 17.5237 17.9705 15.6916C17.9705 13.8596 17.3365 12.1748 16.2763 10.8449ZM18.0752 9.4536V9.45425H18.0746L18.0996 9.48512C19.5023 11.2258 20.3417 13.4378 20.3417 15.8457C20.3417 21.4536 15.7882 26 10.1709 26C4.55358 26 0 21.4536 0 15.8457C0 13.4378 0.839475 11.2258 2.24185 9.48545L2.26655 9.45457V9.45393L9.8891 0.133575C10.0347 -0.044525 10.307 -0.044525 10.4526 0.133575L18.0752 9.4536ZM4.77262 9.97945L4.09078 10.8134L4.09045 10.8137C3.0147 12.1485 2.37087 13.8453 2.37087 15.6916C2.37087 19.9924 5.863 23.4786 10.1705 23.4786C11.3987 23.4786 12.5609 23.1952 13.5944 22.6902L13.6276 22.6739L13.6318 22.6375C13.701 22.0473 13.6724 21.3723 13.5122 20.6862C13.128 19.0424 11.7946 17.5435 9.5043 16.2402C6.86952 14.7456 5.2936 12.8157 4.85257 10.5011C4.82917 10.3779 4.80935 10.2554 4.7931 10.1335L4.77262 9.97945ZM48.756 5.72559C49.1421 5.72559 49.4765 5.85851 49.7518 6.12241V6.12176C50.0326 6.38599 50.1765 6.70904 50.1765 7.08441C50.1765 7.45979 50.0326 7.78316 49.7518 8.04706C49.4765 8.31096 49.1421 8.44389 48.756 8.44389C48.3699 8.44389 48.0332 8.31129 47.7527 8.04771L47.7517 8.04674C47.4761 7.78251 47.3354 7.45914 47.3354 7.08474C47.3354 6.71034 47.4761 6.38729 47.7517 6.12274L47.7527 6.12176C48.0332 5.85851 48.3699 5.72559 48.756 5.72559ZM32.0246 13.7713C32.5407 13.964 33.0331 14.2273 33.5011 14.5601L33.5014 14.561C33.9821 14.8938 34.3776 15.3215 34.688 15.8422C35.0042 16.3729 35.1586 17.018 35.1586 17.7711C35.1586 18.643 34.9298 19.4341 34.4712 20.1403C34.0169 20.8482 33.3532 21.4072 32.4871 21.8193C31.6226 22.233 30.5784 22.4371 29.3596 22.4371C28.2228 22.4371 27.2315 22.2535 26.3891 21.882C25.5536 21.5112 24.8906 20.9918 24.4053 20.3223V20.3217C23.9256 19.6518 23.6549 18.8748 23.5922 17.9947L23.5818 17.8504H25.8097L25.8204 17.9735C25.8691 18.5403 26.0586 19.0012 26.383 19.3642C26.7187 19.7285 27.1428 20.0025 27.6592 20.1845C28.1848 20.3629 28.7516 20.4526 29.3603 20.4526C30.0698 20.4526 30.7025 20.3376 31.2606 20.1107C31.8189 19.8784 32.256 19.5595 32.5765 19.1565C32.8934 18.7529 33.0523 18.2826 33.0523 17.7399C33.0523 17.2459 32.9151 16.8562 32.6503 16.5588C32.3747 16.2494 32.0094 15.9946 31.5495 15.797C31.0812 15.5955 30.5742 15.4187 30.0282 15.2669H30.0272L28.0983 14.7157C26.8597 14.3595 25.8698 13.8486 25.1359 13.1778C24.391 12.4966 24.0205 11.6045 24.0205 10.5141C24.0205 9.61031 24.2653 8.81666 24.758 8.13839C25.2523 7.45979 25.9146 6.93524 26.7401 6.56409C27.5708 6.18806 28.486 6.00119 29.5127 6.00119C30.5394 6.00119 31.4572 6.18546 32.2632 6.55694C33.0672 6.92256 33.7085 7.42599 34.183 8.06884C34.664 8.71364 34.9178 9.44716 34.9441 10.2649L34.9487 10.404H32.8527L32.8388 10.285C32.7517 9.54921 32.401 8.98241 31.7812 8.57551C31.1543 8.16438 30.3801 7.95476 29.4516 7.95476C28.772 7.95476 28.1838 8.06461 27.6836 8.28041C27.1867 8.49686 26.8038 8.79196 26.5292 9.16278C26.2608 9.53166 26.1265 9.95026 26.1265 10.4225C26.1265 10.8183 26.2201 11.1508 26.4018 11.4264C26.5949 11.7059 26.8409 11.9402 27.1418 12.1297C27.4503 12.3185 27.7736 12.4752 28.1116 12.5997C28.4555 12.7209 28.7707 12.819 29.0571 12.8948H29.0577L30.6489 13.3231H30.6492C31.063 13.4317 31.5215 13.5812 32.0246 13.7713ZM47.7026 10.1345H49.7784V22.1608H47.7026V10.1345ZM43.4221 18.9576C43.7246 18.5111 43.881 17.9345 43.881 17.2192V10.1349H45.9567V22.1612H43.881V20.3568C43.5972 20.8631 43.1978 21.3006 42.6859 21.6688L42.6853 21.6694C42.0759 22.1023 41.3118 22.3142 40.4028 22.3142C39.6478 22.3142 38.9712 22.1491 38.3774 21.8144H38.3764C37.7794 21.4731 37.3127 20.9622 36.9757 20.2875C36.637 19.605 36.4716 18.7535 36.4716 17.7399V10.1345H38.5474V17.6173C38.5474 18.4484 38.7791 19.0961 39.2302 19.5761C39.6875 20.0578 40.2689 20.2996 40.9846 20.2996C41.41 20.2996 41.8465 20.1907 42.295 19.9687H42.2956C42.7415 19.7503 43.1169 19.4152 43.4214 18.9586L43.4221 18.9576ZM51.9425 20.6258C51.9425 21.4214 52.5428 21.9661 53.2903 21.9661C54.0378 21.9661 54.6342 21.4214 54.6342 20.6258C54.6342 19.8302 54.0342 19.2744 53.2903 19.2744C52.5464 19.2744 51.9425 19.8227 51.9425 20.6258ZM52.2087 20.6258C52.2087 19.9592 52.6864 19.5146 53.2903 19.5146C53.8941 19.5146 54.3683 19.9592 54.3683 20.6258C54.3683 21.2924 53.9049 21.7262 53.2903 21.7262C52.6757 21.7262 52.2087 21.2855 52.2087 20.6258ZM53.6244 21.2888H53.9517L53.6208 20.683C53.8041 20.6004 53.8795 20.4607 53.8795 20.3031C53.8795 19.9339 53.6244 19.8588 53.2042 19.8588H52.7657V21.2888H53.0602V20.7441H53.3335L53.6244 21.2888ZM53.5851 20.307C53.5849 20.4465 53.4949 20.5182 53.2688 20.5182H53.0602V20.0918H53.2506C53.4521 20.0918 53.5851 20.1347 53.5851 20.307Z" fill="#383F47"/>
</svg>
