<svg width="77" height="26" viewBox="0 0 77 26" fill="none" xmlns="http://www.w3.org/2000/svg">
    <path fill-rule="evenodd" clip-rule="evenodd" d="M16.2763 10.8449V10.8436L16.2766 10.8439L10.5573 3.85092C10.3577 3.60717 9.98465 3.60717 9.7851 3.85092L8.64792 5.2416C8.30017 5.67125 7.89068 6.38527 7.6154 7.23742C7.34013 8.0899 7.19745 9.08505 7.3892 10.076C7.68592 11.608 8.81595 12.9568 10.79 14.0767C13.7134 15.7397 15.4898 17.7938 16.0348 20.189C16.0634 20.3158 16.0885 20.4418 16.1096 20.5663L16.1343 20.7129L16.2282 20.5975C17.3176 19.2585 17.9705 17.5237 17.9705 15.6916C17.9705 13.8596 17.3365 12.1748 16.2763 10.8449ZM18.0752 9.4536V9.45425H18.0746L18.0996 9.48512C19.5023 11.2258 20.3417 13.4378 20.3417 15.8457C20.3417 21.4536 15.7882 26 10.1709 26C4.55358 26 0 21.4536 0 15.8457C0 13.4378 0.839475 11.2258 2.24185 9.48545L2.26655 9.45457V9.45393L9.8891 0.133575C10.0347 -0.044525 10.307 -0.044525 10.4526 0.133575L18.0752 9.4536ZM4.77262 9.97945L4.09078 10.8134L4.09045 10.8137C3.0147 12.1485 2.37087 13.8453 2.37087 15.6916C2.37087 19.9924 5.863 23.4786 10.1705 23.4786C11.3987 23.4786 12.5609 23.1952 13.5944 22.6902L13.6276 22.6739L13.6318 22.6375C13.701 22.0473 13.6724 21.3723 13.5122 20.6862C13.128 19.0424 11.7946 17.5435 9.5043 16.2402C6.86952 14.7456 5.2936 12.8157 4.85257 10.5011C4.82917 10.3779 4.80935 10.2554 4.7931 10.1335L4.77262 9.97945ZM43.7145 2C44.0169 2 44.2788 2.1041 44.4944 2.31076V2.31025C44.7143 2.51718 44.827 2.77016 44.827 3.06413C44.827 3.3581 44.7143 3.61134 44.4944 3.81801C44.2788 4.02467 44.0169 4.12877 43.7145 4.12877C43.4122 4.12877 43.1485 4.02493 42.9288 3.81852L42.9281 3.81775C42.7123 3.61083 42.602 3.35759 42.602 3.06439C42.602 2.77118 42.7123 2.51819 42.9281 2.31102L42.9288 2.31025C43.1485 2.1041 43.4122 2 43.7145 2ZM30.6118 8.30079C31.016 8.45172 31.4016 8.65788 31.7681 8.9185L31.7683 8.91927C32.1448 9.17989 32.4545 9.51483 32.6976 9.92257C32.9452 10.3382 33.0661 10.8434 33.0661 11.4331C33.0661 12.116 32.8869 12.7355 32.5278 13.2885C32.172 13.8429 31.6523 14.2806 30.974 14.6034C30.297 14.9274 29.4792 15.0872 28.5248 15.0872C27.6345 15.0872 26.8582 14.9434 26.1985 14.6525C25.5441 14.3621 25.0249 13.9554 24.6449 13.4311V13.4306C24.2693 12.906 24.0573 12.2975 24.0081 11.6082L24 11.4952H25.7447L25.7531 11.5917C25.7913 12.0356 25.9397 12.3965 26.1937 12.6808C26.4566 12.9661 26.7887 13.1806 27.1932 13.3232C27.6047 13.4629 28.0486 13.5331 28.5253 13.5331C29.0809 13.5331 29.5764 13.443 30.0134 13.2654C30.4507 13.0834 30.793 12.8337 31.044 12.5181C31.2921 12.202 31.4166 11.8337 31.4166 11.4087C31.4166 11.0218 31.3092 10.7167 31.1018 10.4838C30.8859 10.2415 30.5998 10.0419 30.2397 9.88719C29.873 9.72939 29.4759 9.59093 29.0483 9.47207H29.0476L27.537 9.04042C26.567 8.76147 25.7918 8.36137 25.2171 7.83605C24.6337 7.30258 24.3436 6.60394 24.3436 5.75004C24.3436 5.04223 24.5352 4.4207 24.9211 3.88952C25.3082 3.3581 25.8269 2.94731 26.4734 2.65665C27.1239 2.36218 27.8406 2.21583 28.6447 2.21583C29.4487 2.21583 30.1674 2.36014 30.7986 2.65105C31.4283 2.93738 31.9305 3.33163 32.3021 3.83506C32.6787 4.34002 32.8775 4.91446 32.8981 5.55482L32.9017 5.66375H31.2603L31.2494 5.5706C31.1812 4.99438 30.9065 4.5505 30.4212 4.23185C29.9302 3.90989 29.324 3.74572 28.5968 3.74572C28.0646 3.74572 27.6039 3.83175 27.2122 4.00075C26.8231 4.17026 26.5233 4.40136 26.3082 4.69176C26.098 4.98063 25.9929 5.30845 25.9929 5.67826C25.9929 5.98826 26.0662 6.24863 26.2084 6.46446C26.3596 6.68334 26.5523 6.86685 26.788 7.01523C27.0295 7.16311 27.2827 7.28578 27.5474 7.38326C27.8167 7.4782 28.0636 7.55506 28.2878 7.61436H28.2883L29.5344 7.94982H29.5347C29.8587 8.03482 30.2178 8.1519 30.6118 8.30079ZM42.8897 5.45276H44.5153V14.8709H42.8897V5.45276ZM39.5374 12.3624C39.7744 12.0126 39.8968 11.5611 39.8968 11.0009V5.45301H41.5224V14.8711H39.8968V13.458C39.6746 13.8546 39.3618 14.1972 38.9609 14.4855L38.9604 14.486C38.4832 14.825 37.8849 14.991 37.173 14.991C36.5817 14.991 36.0518 14.8617 35.5868 14.5995H35.5861C35.1185 14.3323 34.753 13.9322 34.4891 13.4038C34.2239 12.8693 34.0943 12.2025 34.0943 11.4087V5.45276H35.7199V11.3127C35.7199 11.9635 35.9014 12.4708 36.2547 12.8467C36.6128 13.2239 37.0681 13.4132 37.6286 13.4132C37.9617 13.4132 38.3035 13.328 38.6548 13.1542H38.6553C39.0045 12.9831 39.2984 12.7207 39.5369 12.3631L39.5374 12.3624ZM24.4183 17.0909V17.9883H26.5707V24H27.6097V17.9883H29.7655V17.0909H24.4183ZM30.8389 23.7773C31.2077 23.9955 31.6474 24.1046 32.1579 24.1046C32.5358 24.1046 32.872 24.0472 33.1666 23.9325C33.4635 23.8156 33.7098 23.6525 33.9054 23.4434C34.1034 23.232 34.2406 22.9857 34.317 22.7045L33.3623 22.5325C33.3016 22.6944 33.2139 22.8305 33.0992 22.9407C32.9845 23.0509 32.8484 23.1341 32.691 23.1903C32.5335 23.2443 32.3592 23.2713 32.1681 23.2713C31.8734 23.2713 31.6159 23.2083 31.3955 23.0824C31.1751 22.9542 31.003 22.7686 30.8793 22.5257C30.7663 22.2996 30.7058 22.0286 30.698 21.7127H34.3811V21.3551C34.3811 20.8851 34.3181 20.4859 34.1922 20.1575C34.0663 19.8269 33.8942 19.5581 33.676 19.3512C33.4579 19.1443 33.2116 18.9925 32.9372 18.8958C32.6628 18.7991 32.3795 18.7507 32.0871 18.7507C31.6058 18.7507 31.1852 18.8643 30.8254 19.0914C30.4678 19.3186 30.1889 19.6346 29.9887 20.0394C29.7908 20.4443 29.6918 20.9121 29.6918 21.4428C29.6918 21.9804 29.7908 22.4493 29.9887 22.8496C30.1889 23.2477 30.4723 23.5569 30.8389 23.7773ZM30.6997 20.957C30.7118 20.7343 30.7672 20.5263 30.8659 20.3329C30.9806 20.1103 31.1425 19.9303 31.3516 19.7931C31.5631 19.6537 31.8105 19.584 32.0938 19.584C32.3547 19.584 32.5819 19.6436 32.7753 19.7628C32.971 19.882 33.1228 20.045 33.2307 20.252C33.3387 20.4566 33.3927 20.6916 33.3927 20.957H30.6997ZM39.1933 20.0833L38.2791 20.2452C38.2408 20.1283 38.1801 20.0169 38.0969 19.9112C38.0159 19.8055 37.9057 19.7189 37.7663 19.6515C37.6268 19.584 37.4525 19.5503 37.2434 19.5503C36.9577 19.5503 36.7193 19.6143 36.5282 19.7425C36.337 19.8685 36.2414 20.0315 36.2414 20.2317C36.2414 20.4049 36.3055 20.5443 36.4337 20.65C36.5619 20.7557 36.7688 20.8423 37.0544 20.9098L37.8776 21.0987C38.3544 21.2089 38.7098 21.3787 38.9437 21.6081C39.1776 21.8375 39.2945 22.1355 39.2945 22.5021C39.2945 22.8125 39.2045 23.0891 39.0246 23.332C38.8469 23.5727 38.5984 23.7616 38.2791 23.8988C37.9619 24.036 37.5942 24.1046 37.1759 24.1046C36.5956 24.1046 36.1222 23.9809 35.7556 23.7335C35.389 23.4838 35.1641 23.1296 35.0809 22.6708L36.0559 22.5224C36.1166 22.7765 36.2414 22.9688 36.4303 23.0993C36.6193 23.2275 36.8655 23.2916 37.1692 23.2916C37.4998 23.2916 37.764 23.223 37.9619 23.0858C38.1599 22.9463 38.2588 22.7765 38.2588 22.5764C38.2588 22.4144 38.1981 22.2784 38.0766 22.1681C37.9574 22.0579 37.7741 21.9747 37.5267 21.9185L36.6496 21.7262C36.1661 21.616 35.8085 21.4406 35.5768 21.1999C35.3474 20.9593 35.2327 20.6545 35.2327 20.2857C35.2327 19.9798 35.3182 19.7122 35.4891 19.4828C35.66 19.2534 35.8962 19.0746 36.1976 18.9464C36.4989 18.8159 36.8442 18.7507 37.2332 18.7507C37.7933 18.7507 38.2341 18.8722 38.5557 19.1151C38.8773 19.3557 39.0898 19.6784 39.1933 20.0833ZM42.6324 19.6278V18.8182H41.5697V17.5767H40.5611V18.8182H39.802V19.6278H40.5611V22.6877C40.5611 23.0003 40.6319 23.2601 40.7736 23.467C40.9153 23.6739 41.1008 23.8268 41.3302 23.9258C41.5596 24.0247 41.807 24.072 42.0724 24.0675C42.2343 24.0652 42.3693 24.0517 42.4772 24.027C42.5852 24.0045 42.6684 23.982 42.7269 23.9595L42.5447 23.1262C42.511 23.133 42.4637 23.142 42.403 23.1532C42.3423 23.1645 42.2715 23.1701 42.1905 23.1701C42.0803 23.1701 41.978 23.1532 41.8835 23.1195C41.7913 23.0835 41.7159 23.0172 41.6575 22.9205C41.599 22.8215 41.5697 22.6742 41.5697 22.4785V19.6278H42.6324ZM44.5669 20.9233V24H43.5582V18.8182H44.5265V19.6616H44.5906C44.7098 19.3872 44.8964 19.1668 45.1506 19.0004C45.407 18.8339 45.7297 18.7507 46.1188 18.7507C46.4719 18.7507 46.7811 18.8249 47.0465 18.9734C47.3119 19.1196 47.5177 19.3377 47.6639 19.6278C47.8101 19.918 47.8832 20.2767 47.8832 20.704V24H46.8745V20.8255C46.8745 20.4499 46.7766 20.1564 46.581 19.945C46.3853 19.7313 46.1165 19.6245 45.7747 19.6245C45.5408 19.6245 45.3327 19.6751 45.1506 19.7763C44.9706 19.8775 44.8278 20.0259 44.7221 20.2216C44.6187 20.415 44.5669 20.6489 44.5669 20.9233ZM49.9602 23.7773C50.3291 23.9955 50.7687 24.1046 51.2793 24.1046C51.6571 24.1046 51.9934 24.0472 52.288 23.9325C52.5849 23.8156 52.8311 23.6525 53.0268 23.4434C53.2247 23.232 53.3619 22.9857 53.4384 22.7045L52.4837 22.5325C52.4229 22.6944 52.3352 22.8305 52.2205 22.9407C52.1058 23.0509 51.9697 23.1341 51.8123 23.1903C51.6549 23.2443 51.4806 23.2713 51.2894 23.2713C50.9948 23.2713 50.7373 23.2083 50.5169 23.0824C50.2964 22.9542 50.1244 22.7686 50.0007 22.5257C49.8876 22.2996 49.8272 22.0286 49.8194 21.7127H53.5025V21.3551C53.5025 20.8851 53.4395 20.4859 53.3135 20.1575C53.1876 19.8269 53.0155 19.5581 52.7974 19.3512C52.5792 19.1443 52.333 18.9925 52.0586 18.8958C51.7842 18.7991 51.5008 18.7507 51.2084 18.7507C50.7271 18.7507 50.3066 18.8643 49.9467 19.0914C49.5891 19.3186 49.3102 19.6346 49.1101 20.0394C48.9122 20.4443 48.8132 20.9121 48.8132 21.4428C48.8132 21.9804 48.9122 22.4493 49.1101 22.8496C49.3102 23.2477 49.5936 23.5569 49.9602 23.7773ZM49.8211 20.957C49.8332 20.7343 49.8886 20.5263 49.9872 20.3329C50.1019 20.1103 50.2638 19.9303 50.473 19.7931C50.6844 19.6537 50.9318 19.584 51.2152 19.584C51.4761 19.584 51.7032 19.6436 51.8966 19.7628C52.0923 19.882 52.2441 20.045 52.3521 20.252C52.46 20.4566 52.514 20.6916 52.514 20.957H49.8211ZM56.8505 18.8182V19.6278H55.7878V22.4785C55.7878 22.6742 55.8171 22.8215 55.8755 22.9205C55.934 23.0172 56.0094 23.0835 56.1016 23.1195C56.196 23.1532 56.2984 23.1701 56.4086 23.1701C56.4895 23.1701 56.5604 23.1645 56.6211 23.1532C56.6818 23.142 56.7291 23.133 56.7628 23.1262L56.945 23.9595C56.8865 23.982 56.8033 24.0045 56.6953 24.027C56.5874 24.0517 56.4524 24.0652 56.2905 24.0675C56.0251 24.072 55.7777 24.0247 55.5483 23.9258C55.3189 23.8268 55.1334 23.6739 54.9917 23.467C54.85 23.2601 54.7791 23.0003 54.7791 22.6877V19.6278H54.0201V18.8182H54.7791V17.5767H55.7878V18.8182H56.8505Z" fill="#383F47"/>
</svg>
