<svg width="77" height="26" viewBox="0 0 77 26" fill="none" xmlns="http://www.w3.org/2000/svg">
    <path fill-rule="evenodd" clip-rule="evenodd" d="M16.2763 10.8449V10.8436L16.2766 10.8439L10.5573 3.85092C10.3577 3.60717 9.98465 3.60717 9.7851 3.85092L8.64792 5.2416C8.30017 5.67125 7.89068 6.38527 7.6154 7.23742C7.34013 8.0899 7.19745 9.08505 7.3892 10.076C7.68592 11.608 8.81595 12.9568 10.79 14.0767C13.7134 15.7397 15.4898 17.7938 16.0348 20.189C16.0634 20.3158 16.0885 20.4418 16.1096 20.5663L16.1343 20.7129L16.2282 20.5975C17.3176 19.2585 17.9705 17.5237 17.9705 15.6916C17.9705 13.8596 17.3365 12.1748 16.2763 10.8449ZM18.0752 9.4536V9.45425H18.0746L18.0996 9.48512C19.5023 11.2258 20.3417 13.4378 20.3417 15.8457C20.3417 21.4536 15.7882 26 10.1709 26C4.55358 26 0 21.4536 0 15.8457C0 13.4378 0.839475 11.2258 2.24185 9.48545L2.26655 9.45457V9.45393L9.8891 0.133575C10.0347 -0.044525 10.307 -0.044525 10.4526 0.133575L18.0752 9.4536ZM4.77262 9.97945L4.09078 10.8134L4.09045 10.8137C3.0147 12.1485 2.37087 13.8453 2.37087 15.6916C2.37087 19.9924 5.863 23.4786 10.1705 23.4786C11.3987 23.4786 12.5609 23.1952 13.5944 22.6902L13.6276 22.6739L13.6318 22.6375C13.701 22.0473 13.6724 21.3723 13.5122 20.6862C13.128 19.0424 11.7946 17.5435 9.5043 16.2402C6.86952 14.7456 5.2936 12.8157 4.85257 10.5011C4.82917 10.3779 4.80935 10.2554 4.7931 10.1335L4.77262 9.97945ZM43.7145 2C44.0169 2 44.2788 2.1041 44.4944 2.31076V2.31025C44.7143 2.51718 44.827 2.77016 44.827 3.06413C44.827 3.3581 44.7143 3.61134 44.4944 3.81801C44.2788 4.02467 44.0169 4.12877 43.7145 4.12877C43.4122 4.12877 43.1485 4.02493 42.9288 3.81852L42.9281 3.81775C42.7123 3.61083 42.602 3.35759 42.602 3.06439C42.602 2.77118 42.7123 2.51819 42.9281 2.31102L42.9288 2.31025C43.1485 2.1041 43.4122 2 43.7145 2ZM30.6118 8.30079C31.016 8.45172 31.4016 8.65788 31.7681 8.9185L31.7683 8.91927C32.1448 9.17989 32.4545 9.51483 32.6976 9.92257C32.9452 10.3382 33.0661 10.8434 33.0661 11.4331C33.0661 12.116 32.8869 12.7355 32.5278 13.2885C32.172 13.8429 31.6523 14.2806 30.974 14.6034C30.297 14.9274 29.4792 15.0872 28.5248 15.0872C27.6345 15.0872 26.8582 14.9434 26.1985 14.6525C25.5441 14.3621 25.0249 13.9554 24.6449 13.4311V13.4306C24.2693 12.906 24.0573 12.2975 24.0081 11.6082L24 11.4952H25.7447L25.7531 11.5917C25.7913 12.0356 25.9397 12.3965 26.1937 12.6808C26.4566 12.9661 26.7887 13.1806 27.1932 13.3232C27.6047 13.4629 28.0486 13.5331 28.5253 13.5331C29.0809 13.5331 29.5764 13.443 30.0134 13.2654C30.4507 13.0834 30.793 12.8337 31.044 12.5181C31.2921 12.202 31.4166 11.8337 31.4166 11.4087C31.4166 11.0218 31.3092 10.7167 31.1018 10.4838C30.8859 10.2415 30.5998 10.0419 30.2397 9.88719C29.873 9.72939 29.4759 9.59093 29.0483 9.47207H29.0476L27.537 9.04042C26.567 8.76147 25.7918 8.36137 25.2171 7.83605C24.6337 7.30258 24.3436 6.60394 24.3436 5.75004C24.3436 5.04223 24.5352 4.4207 24.9211 3.88952C25.3082 3.3581 25.8269 2.94731 26.4734 2.65665C27.1239 2.36218 27.8406 2.21583 28.6447 2.21583C29.4487 2.21583 30.1674 2.36014 30.7986 2.65105C31.4283 2.93738 31.9305 3.33163 32.3021 3.83506C32.6787 4.34002 32.8775 4.91446 32.8981 5.55482L32.9017 5.66375H31.2603L31.2494 5.5706C31.1812 4.99438 30.9065 4.5505 30.4212 4.23185C29.9302 3.90989 29.324 3.74572 28.5968 3.74572C28.0646 3.74572 27.6039 3.83175 27.2122 4.00075C26.8231 4.17026 26.5233 4.40136 26.3082 4.69176C26.098 4.98063 25.9929 5.30845 25.9929 5.67826C25.9929 5.98826 26.0662 6.24863 26.2084 6.46446C26.3596 6.68334 26.5523 6.86685 26.788 7.01523C27.0295 7.16311 27.2827 7.28578 27.5474 7.38326C27.8167 7.4782 28.0636 7.55506 28.2878 7.61436H28.2883L29.5344 7.94982H29.5347C29.8587 8.03482 30.2178 8.1519 30.6118 8.30079ZM42.8897 5.45276H44.5153V14.8709H42.8897V5.45276ZM39.5374 12.3624C39.7744 12.0126 39.8968 11.5611 39.8968 11.0009V5.45301H41.5224V14.8711H39.8968V13.458C39.6746 13.8546 39.3618 14.1972 38.9609 14.4855L38.9604 14.486C38.4832 14.825 37.8849 14.991 37.173 14.991C36.5817 14.991 36.0518 14.8617 35.5868 14.5995H35.5861C35.1185 14.3323 34.753 13.9322 34.4891 13.4038C34.2239 12.8693 34.0943 12.2025 34.0943 11.4087V5.45276H35.7199V11.3127C35.7199 11.9635 35.9014 12.4708 36.2547 12.8467C36.6128 13.2239 37.0681 13.4132 37.6286 13.4132C37.9617 13.4132 38.3035 13.328 38.6548 13.1542H38.6553C39.0045 12.9831 39.2984 12.7207 39.5369 12.3631L39.5374 12.3624ZM28.9086 19.3413H29.9611C29.9026 18.9702 29.7902 18.6407 29.6238 18.3528C29.4573 18.0627 29.247 17.8175 28.9929 17.6174C28.7388 17.4149 28.452 17.262 28.1326 17.1586C27.8155 17.0529 27.4737 17 27.1071 17C26.5111 17 25.9792 17.1428 25.5114 17.4284C25.0436 17.7118 24.6747 18.1189 24.4048 18.6497C24.1349 19.1782 24 19.8113 24 20.549C24 21.2844 24.1338 21.9176 24.4015 22.4483C24.6713 22.9791 25.0402 23.3873 25.508 23.6729C25.9758 23.9563 26.5088 24.098 27.1071 24.098C27.4872 24.098 27.838 24.0418 28.1596 23.9293C28.4812 23.8169 28.7669 23.6583 29.0165 23.4537C29.2684 23.2467 29.4742 23.0016 29.6339 22.7182C29.7958 22.4326 29.9049 22.12 29.9611 21.7804L28.9086 21.777C28.8658 21.9974 28.7882 22.1931 28.6758 22.364C28.5656 22.5327 28.4306 22.6755 28.271 22.7924C28.1113 22.9094 27.9325 22.9982 27.7346 23.0589C27.5389 23.1174 27.332 23.1467 27.1138 23.1467C26.7202 23.1467 26.366 23.0477 26.0511 22.8498C25.7363 22.6519 25.4877 22.3595 25.3056 21.9727C25.1257 21.5858 25.0357 21.1113 25.0357 20.549C25.0357 19.9912 25.1257 19.5189 25.3056 19.1321C25.4877 18.7453 25.7351 18.4518 26.0478 18.2516C26.3626 18.0514 26.7191 17.9513 27.1172 17.9513C27.3376 17.9513 27.5456 17.9817 27.7413 18.0424C27.9392 18.1032 28.118 18.1931 28.2777 18.3123C28.4374 18.4315 28.5723 18.5766 28.6825 18.7475C28.7927 18.9184 28.8681 19.1164 28.9086 19.3413ZM34.22 18.8217V21.8546C34.2223 22.1492 34.1604 22.3921 34.0345 22.5833C33.9108 22.7744 33.7545 22.9173 33.5655 23.0117C33.3789 23.1062 33.1911 23.1534 33.0022 23.1534C32.6895 23.1534 32.4354 23.0488 32.2397 22.8397C32.0441 22.6305 31.9462 22.3494 31.9462 21.9963V18.8217H30.9375V22.1177C30.9375 22.545 31.0095 22.9038 31.1534 23.1939C31.2996 23.484 31.4998 23.7033 31.7539 23.8517C32.0103 23.9979 32.305 24.071 32.6378 24.071C33.0269 24.071 33.3519 23.9799 33.6128 23.7978C33.8759 23.6133 34.0671 23.3828 34.1863 23.1062H34.2403V24.0036H35.2321V18.8217H34.22ZM40.2804 20.0868L39.3662 20.2488C39.3279 20.1318 39.2672 20.0205 39.184 19.9148C39.103 19.8091 38.9928 19.7225 38.8534 19.655C38.714 19.5875 38.5397 19.5538 38.3305 19.5538C38.0449 19.5538 37.8065 19.6179 37.6153 19.7461C37.4241 19.872 37.3285 20.0351 37.3285 20.2353C37.3285 20.4084 37.3926 20.5479 37.5208 20.6536C37.649 20.7593 37.8559 20.8459 38.1416 20.9134L38.9647 21.1023C39.4415 21.2125 39.7969 21.3823 40.0308 21.6117C40.2647 21.8411 40.3816 22.1391 40.3816 22.5057C40.3816 22.8161 40.2917 23.0927 40.1117 23.3356C39.9341 23.5762 39.6855 23.7652 39.3662 23.9023C39.0491 24.0395 38.6813 24.1081 38.263 24.1081C37.6828 24.1081 37.2093 23.9844 36.8427 23.737C36.4762 23.4874 36.2512 23.1332 36.168 22.6744L37.143 22.5259C37.2037 22.7801 37.3285 22.9724 37.5175 23.1028C37.7064 23.231 37.9527 23.2951 38.2563 23.2951C38.5869 23.2951 38.8512 23.2265 39.0491 23.0893C39.247 22.9499 39.3459 22.7801 39.3459 22.5799C39.3459 22.418 39.2852 22.2819 39.1638 22.1717C39.0446 22.0615 38.8613 21.9783 38.6139 21.9221L37.7367 21.7298C37.2532 21.6196 36.8956 21.4441 36.6639 21.2035C36.4345 20.9628 36.3198 20.6581 36.3198 20.2892C36.3198 19.9834 36.4053 19.7157 36.5762 19.4863C36.7472 19.2569 36.9833 19.0781 37.2847 18.9499C37.5861 18.8195 37.9313 18.7543 38.3204 18.7543C38.8804 18.7543 39.3212 18.8757 39.6428 19.1186C39.9644 19.3593 40.177 19.682 40.2804 20.0868ZM43.7196 19.6314V18.8217H42.6569V17.5803H41.6482V18.8217H40.8891V19.6314H41.6482V22.6912C41.6482 23.0038 41.719 23.2636 41.8607 23.4705C42.0024 23.6774 42.1879 23.8304 42.4174 23.9293C42.6468 24.0283 42.8941 24.0755 43.1595 24.071C43.3215 24.0688 43.4564 24.0553 43.5644 24.0305C43.6723 24.008 43.7555 23.9856 43.814 23.9631L43.6318 23.1298C43.5981 23.1365 43.5509 23.1455 43.4901 23.1568C43.4294 23.168 43.3586 23.1737 43.2776 23.1737C43.1674 23.1737 43.0651 23.1568 42.9706 23.123C42.8784 23.0871 42.8031 23.0207 42.7446 22.924C42.6861 22.825 42.6569 22.6777 42.6569 22.4821V19.6314H43.7196ZM46.7724 24.1081C46.2866 24.1081 45.8627 23.9968 45.5006 23.7741C45.1385 23.5515 44.8573 23.24 44.6572 22.8397C44.457 22.4393 44.3569 21.9715 44.3569 21.4363C44.3569 20.8987 44.457 20.4287 44.6572 20.0261C44.8573 19.6235 45.1385 19.3109 45.5006 19.0882C45.8627 18.8656 46.2866 18.7543 46.7724 18.7543C47.2582 18.7543 47.6821 18.8656 48.0442 19.0882C48.4063 19.3109 48.6875 19.6235 48.8876 20.0261C49.0878 20.4287 49.1879 20.8987 49.1879 21.4363C49.1879 21.9715 49.0878 22.4393 48.8876 22.8397C48.6875 23.24 48.4063 23.5515 48.0442 23.7741C47.6821 23.9968 47.2582 24.1081 46.7724 24.1081ZM46.7758 23.2614C47.0906 23.2614 47.3515 23.1781 47.5584 23.0117C47.7654 22.8453 47.9183 22.6238 48.0173 22.3471C48.1185 22.0705 48.1691 21.7657 48.1691 21.4329C48.1691 21.1023 48.1185 20.7987 48.0173 20.522C47.9183 20.2431 47.7654 20.0194 47.5584 19.8507C47.3515 19.682 47.0906 19.5977 46.7758 19.5977C46.4587 19.5977 46.1955 19.682 45.9864 19.8507C45.7794 20.0194 45.6254 20.2431 45.5242 20.522C45.4252 20.7987 45.3757 21.1023 45.3757 21.4329C45.3757 21.7657 45.4252 22.0705 45.5242 22.3471C45.6254 22.6238 45.7794 22.8453 45.9864 23.0117C46.1955 23.1781 46.4587 23.2614 46.7758 23.2614ZM50.1238 18.8217V24.0036H51.1325V20.8088C51.1325 20.5749 51.1809 20.3691 51.2776 20.1914C51.3765 20.0137 51.5059 19.8754 51.6655 19.7765C51.8275 19.6752 52.004 19.6246 52.1952 19.6246C52.4763 19.6246 52.7046 19.7101 52.88 19.881C53.0555 20.052 53.1432 20.278 53.1432 20.5591V24.0036H54.1485V20.7008C54.1485 20.386 54.2396 20.1284 54.4218 19.9283C54.6039 19.7259 54.8592 19.6246 55.1876 19.6246C55.4529 19.6246 55.6812 19.7034 55.8724 19.8608C56.0636 20.0182 56.1592 20.2724 56.1592 20.6232V24.0036H57.1679V20.5288C57.1679 19.935 57.0183 19.4908 56.7192 19.1962C56.4223 18.9016 56.0388 18.7543 55.5688 18.7543C55.1954 18.7543 54.8738 18.8375 54.6039 19.0039C54.334 19.1681 54.1373 19.3885 54.0136 19.6651H53.9596C53.8471 19.3817 53.6728 19.1591 53.4367 18.9972C53.2028 18.8352 52.9126 18.7543 52.5663 18.7543C52.2244 18.7543 51.9309 18.8352 51.6858 18.9972C51.4406 19.1568 51.2641 19.3795 51.1561 19.6651H51.092V18.8217H50.1238ZM58.4108 17.0945H60.8735C61.4088 17.0945 61.853 17.1867 62.2061 17.3711C62.5614 17.5555 62.8268 17.8108 63.0022 18.1369C63.1777 18.4608 63.2654 18.8352 63.2654 19.2603C63.2654 19.6831 63.1765 20.0553 62.9988 20.377C62.8234 20.6963 62.558 20.9448 62.2027 21.1225C62.138 21.1551 62.0702 21.1847 61.9994 21.2112L63.5285 24.0036H62.341L60.9373 21.3886C60.9151 21.3889 60.8927 21.389 60.8701 21.389H59.4532V24.0036H58.4108V17.0945ZM60.7757 20.4917H59.4532V17.9885H60.7622C61.1063 17.9885 61.384 18.0402 61.5954 18.1436C61.8091 18.2449 61.9654 18.391 62.0644 18.5822C62.1656 18.7734 62.2162 18.9994 62.2162 19.2603C62.2162 19.5189 62.1667 19.7405 62.0677 19.9249C61.9688 20.1093 61.8125 20.2499 61.5988 20.3466C61.3874 20.4433 61.113 20.4917 60.7757 20.4917ZM66.8065 17.0945H64.3438V24.0036H65.3863V21.5746H66.8032C67.3384 21.5746 67.7826 21.4767 68.1357 21.2811C68.4911 21.0832 68.7565 20.8155 68.9319 20.4782C69.1096 20.1386 69.1984 19.7562 69.1984 19.3311C69.1984 18.9083 69.1107 18.5282 68.9353 18.1909C68.7598 17.8513 68.4956 17.5836 68.1425 17.388C67.7894 17.1923 67.3441 17.0945 66.8065 17.0945ZM65.3863 20.6907H66.7087C67.0483 20.6907 67.3238 20.6322 67.5352 20.5153C67.7466 20.3961 67.9018 20.2341 68.0008 20.0295C68.0997 19.8248 68.1492 19.592 68.1492 19.3311C68.1492 19.0703 68.0997 18.8386 68.0008 18.6362C67.9018 18.4338 67.7455 18.2752 67.5319 18.1605C67.3204 18.0458 67.0416 17.9885 66.6952 17.9885H65.3863V20.6907ZM75.9689 19.3413H74.9164C74.8759 19.1164 74.8006 18.9184 74.6904 18.7475C74.5802 18.5766 74.4452 18.4315 74.2855 18.3123C74.1258 18.1931 73.947 18.1032 73.7491 18.0424C73.5535 17.9817 73.3454 17.9513 73.125 17.9513C72.7269 17.9513 72.3705 18.0514 72.0556 18.2516C71.743 18.4518 71.4956 18.7453 71.3134 19.1321C71.1335 19.5189 71.0435 19.9912 71.0435 20.549C71.0435 21.1113 71.1335 21.5858 71.3134 21.9727C71.4956 22.3595 71.7441 22.6519 72.059 22.8498C72.3738 23.0477 72.7281 23.1467 73.1216 23.1467C73.3398 23.1467 73.5467 23.1174 73.7424 23.0589C73.9403 22.9982 74.1191 22.9094 74.2788 22.7924C74.4385 22.6755 74.5734 22.5327 74.6836 22.364C74.7961 22.1931 74.8737 21.9974 74.9164 21.777L75.9689 21.7804C75.9127 22.12 75.8036 22.4326 75.6417 22.7182C75.482 23.0016 75.2762 23.2467 75.0243 23.4537C74.7747 23.6583 74.4891 23.8169 74.1674 23.9293C73.8458 24.0418 73.495 24.098 73.1149 24.098C72.5166 24.098 71.9836 23.9563 71.5158 23.6729C71.048 23.3873 70.6792 22.9791 70.4093 22.4483C70.1416 21.9176 70.0078 21.2844 70.0078 20.549C70.0078 19.8113 70.1428 19.1782 70.4127 18.6497C70.6825 18.1189 71.0514 17.7118 71.5192 17.4284C71.987 17.1428 72.5189 17 73.1149 17C73.4815 17 73.8233 17.0529 74.1405 17.1586C74.4598 17.262 74.7466 17.4149 75.0007 17.6174C75.2549 17.8175 75.4652 18.0627 75.6316 18.3528C75.798 18.6407 75.9105 18.9702 75.9689 19.3413Z" fill="#383F47"/>
</svg>
