<svg width="77" height="26" viewBox="0 0 77 26" fill="none" xmlns="http://www.w3.org/2000/svg">
    <path fill-rule="evenodd" clip-rule="evenodd" d="M16.2763 10.8436V10.8449C17.3365 12.1748 17.9705 13.8596 17.9705 15.6916C17.9705 17.5237 17.3176 19.2585 16.2282 20.5975L16.1343 20.7129L16.1096 20.5663C16.0885 20.4418 16.0634 20.3158 16.0348 20.189C15.4898 17.7938 13.7134 15.7397 10.79 14.0767C8.81595 12.9568 7.68592 11.608 7.3892 10.076C7.19745 9.08505 7.34013 8.0899 7.6154 7.23742C7.89068 6.38527 8.30017 5.67125 8.64792 5.2416L9.7851 3.85092C9.98465 3.60717 10.3577 3.60717 10.5573 3.85092L16.2766 10.8439L16.2763 10.8436ZM18.0752 9.45425V9.4536L10.4526 0.133575C10.307 -0.044525 10.0347 -0.044525 9.8891 0.133575L2.26655 9.45393V9.45457L2.24185 9.48545C0.839475 11.2258 0 13.4378 0 15.8457C0 21.4536 4.55358 26 10.1709 26C15.7882 26 20.3417 21.4536 20.3417 15.8457C20.3417 13.4378 19.5023 11.2258 18.0996 9.48512L18.0746 9.45425H18.0752ZM4.09078 10.8134L4.77262 9.97945L4.7931 10.1335C4.80935 10.2554 4.82917 10.3779 4.85257 10.5011C5.2936 12.8157 6.86952 14.7456 9.5043 16.2402C11.7946 17.5435 13.128 19.0424 13.5122 20.6862C13.6724 21.3723 13.701 22.0473 13.6318 22.6375L13.6276 22.6739L13.5944 22.6902C12.5609 23.1952 11.3987 23.4786 10.1705 23.4786C5.863 23.4786 2.37087 19.9924 2.37087 15.6916C2.37087 13.8453 3.0147 12.1485 4.09045 10.8137L4.09078 10.8134ZM43.7145 2C44.0169 2 44.2788 2.1041 44.4944 2.31076V2.31025C44.7143 2.51718 44.827 2.77016 44.827 3.06413C44.827 3.3581 44.7143 3.61134 44.4944 3.81801C44.2788 4.02467 44.0169 4.12877 43.7145 4.12877C43.4122 4.12877 43.1485 4.02493 42.9288 3.81852L42.9281 3.81775C42.7123 3.61083 42.602 3.35759 42.602 3.06439C42.602 2.77118 42.7123 2.51819 42.9281 2.31102L42.9288 2.31025C43.1485 2.1041 43.4122 2 43.7145 2ZM30.6118 8.30079C31.016 8.45172 31.4016 8.65788 31.7681 8.9185L31.7683 8.91927C32.1448 9.17989 32.4545 9.51483 32.6976 9.92257C32.9452 10.3382 33.0661 10.8434 33.0661 11.4331C33.0661 12.116 32.8869 12.7355 32.5278 13.2885C32.172 13.8429 31.6523 14.2806 30.974 14.6034C30.297 14.9274 29.4792 15.0872 28.5248 15.0872C27.6345 15.0872 26.8582 14.9434 26.1985 14.6525C25.5441 14.3621 25.0249 13.9554 24.6449 13.4311V13.4306C24.2693 12.906 24.0573 12.2975 24.0081 11.6082L24 11.4952H25.7447L25.7531 11.5917C25.7913 12.0356 25.9397 12.3965 26.1937 12.6808C26.4566 12.9661 26.7887 13.1806 27.1932 13.3232C27.6047 13.4629 28.0486 13.5331 28.5253 13.5331C29.0809 13.5331 29.5764 13.443 30.0134 13.2654C30.4507 13.0834 30.793 12.8337 31.044 12.5181C31.2921 12.202 31.4166 11.8337 31.4166 11.4087C31.4166 11.0218 31.3092 10.7167 31.1018 10.4838C30.8859 10.2415 30.5998 10.0419 30.2397 9.88719C29.873 9.72939 29.4759 9.59093 29.0483 9.47207H29.0476L27.537 9.04042C26.567 8.76147 25.7918 8.36137 25.2171 7.83605C24.6337 7.30258 24.3436 6.60394 24.3436 5.75004C24.3436 5.04223 24.5352 4.4207 24.9211 3.88952C25.3082 3.3581 25.8269 2.94731 26.4734 2.65665C27.1239 2.36218 27.8406 2.21583 28.6447 2.21583C29.4487 2.21583 30.1674 2.36014 30.7986 2.65105C31.4283 2.93738 31.9305 3.33163 32.3021 3.83506C32.6787 4.34002 32.8775 4.91446 32.8981 5.55482L32.9017 5.66375H31.2603L31.2494 5.5706C31.1812 4.99438 30.9065 4.5505 30.4212 4.23185C29.9302 3.90989 29.324 3.74572 28.5968 3.74572C28.0646 3.74572 27.6039 3.83175 27.2122 4.00075C26.8231 4.17026 26.5233 4.40136 26.3082 4.69176C26.098 4.98063 25.9929 5.30845 25.9929 5.67826C25.9929 5.98826 26.0662 6.24863 26.2084 6.46446C26.3596 6.68334 26.5523 6.86685 26.788 7.01523C27.0295 7.16311 27.2827 7.28578 27.5474 7.38326C27.8167 7.4782 28.0636 7.55506 28.2878 7.61436H28.2883L29.5344 7.94982H29.5347C29.8587 8.03482 30.2178 8.1519 30.6118 8.30079ZM42.8897 5.45276H44.5153V14.8709H42.8897V5.45276ZM39.5374 12.3624C39.7744 12.0126 39.8968 11.5611 39.8968 11.0009V5.45301H41.5224V14.8711H39.8968V13.458C39.6746 13.8546 39.3618 14.1972 38.9609 14.4855L38.9604 14.486C38.4832 14.825 37.8849 14.991 37.173 14.991C36.5817 14.991 36.0518 14.8617 35.5868 14.5995H35.5861C35.1185 14.3323 34.753 13.9322 34.4891 13.4038C34.2239 12.8693 34.0943 12.2025 34.0943 11.4087V5.45276H35.7199V11.3127C35.7199 11.9635 35.9014 12.4708 36.2547 12.8467C36.6128 13.2239 37.0681 13.4132 37.6286 13.4132C37.9617 13.4132 38.3035 13.328 38.6548 13.1542H38.6553C39.0045 12.9831 39.2984 12.7207 39.5369 12.3631L39.5374 12.3624ZM24 24H26.2367C26.9384 24 27.5366 23.8617 28.0314 23.5851C28.5262 23.3062 28.9041 22.9081 29.165 22.3908C29.4281 21.8735 29.5597 21.255 29.5597 20.5353C29.5597 19.8179 29.4292 19.2028 29.1683 18.69C28.9097 18.175 28.5375 17.7802 28.0517 17.5059C27.5659 17.2292 26.9845 17.0909 26.3075 17.0909H24V24ZM26.1793 23.0891H25.0424V18.0018H26.2434C26.7472 18.0018 27.1689 18.0996 27.5085 18.2953C27.8481 18.4909 28.1034 18.7777 28.2743 19.1555C28.4475 19.5334 28.5341 19.9933 28.5341 20.5353C28.5341 21.0819 28.4475 21.5452 28.2743 21.9253C28.1011 22.3031 27.8403 22.5921 27.4917 22.7923C27.1431 22.9902 26.7056 23.0891 26.1793 23.0891ZM31.4992 23.7773C31.8681 23.9955 32.3078 24.1046 32.8183 24.1046C33.1961 24.1046 33.5324 24.0472 33.827 23.9325C34.1239 23.8156 34.3701 23.6525 34.5658 23.4434C34.7637 23.232 34.9009 22.9857 34.9774 22.7045L34.0227 22.5325C33.9619 22.6944 33.8742 22.8305 33.7595 22.9407C33.6448 23.0509 33.5088 23.1341 33.3513 23.1903C33.1939 23.2443 33.0196 23.2713 32.8284 23.2713C32.5338 23.2713 32.2763 23.2083 32.0559 23.0824C31.8355 22.9542 31.6634 22.7686 31.5397 22.5257C31.4266 22.2996 31.3662 22.0286 31.3584 21.7127H35.0415V21.3551C35.0415 20.8851 34.9785 20.4859 34.8526 20.1575C34.7266 19.8269 34.5546 19.5581 34.3364 19.3512C34.1183 19.1443 33.872 18.9925 33.5976 18.8958C33.3232 18.7991 33.0398 18.7507 32.7475 18.7507C32.2662 18.7507 31.8456 18.8643 31.4857 19.0914C31.1281 19.3186 30.8493 19.6346 30.6491 20.0394C30.4512 20.4443 30.3522 20.9121 30.3522 21.4428C30.3522 21.9804 30.4512 22.4493 30.6491 22.8496C30.8493 23.2477 31.1326 23.5569 31.4992 23.7773ZM31.3601 20.957C31.3722 20.7343 31.4276 20.5263 31.5262 20.3329C31.6409 20.1103 31.8029 19.9303 32.012 19.7931C32.2234 19.6537 32.4708 19.584 32.7542 19.584C33.0151 19.584 33.2422 19.6436 33.4357 19.7628C33.6313 19.882 33.7831 20.045 33.8911 20.252C33.9991 20.4566 34.053 20.6916 34.053 20.957H31.3601ZM40.2551 18.8182L38.376 24H37.2965L35.414 18.8182H36.497L37.8093 22.8058H37.8633L39.1722 18.8182H40.2551ZM42.0218 24V20.9233C42.0218 20.6489 42.0735 20.415 42.177 20.2216C42.2827 20.0259 42.4255 19.8775 42.6054 19.7763C42.7876 19.6751 42.9956 19.6245 43.2295 19.6245C43.5714 19.6245 43.8402 19.7313 44.0358 19.945C44.2315 20.1564 44.3293 20.4499 44.3293 20.8255V24H45.338V20.704C45.338 20.2767 45.2649 19.918 45.1187 19.6278C44.9726 19.3377 44.7668 19.1196 44.5014 18.9734C44.236 18.8249 43.9267 18.7507 43.5736 18.7507C43.1846 18.7507 42.8618 18.8339 42.6054 19.0004C42.3513 19.1668 42.1646 19.3872 42.0454 19.6616H41.9813V18.8182H41.0131V24H42.0218ZM48.7341 24.1046C48.2236 24.1046 47.7839 23.9955 47.4151 23.7773C47.0485 23.5569 46.7651 23.2477 46.5649 22.8496C46.367 22.4493 46.2681 21.9804 46.2681 21.4428C46.2681 20.9121 46.367 20.4443 46.5649 20.0394C46.7651 19.6346 47.044 19.3186 47.4016 19.0914C47.7614 18.8643 48.182 18.7507 48.6633 18.7507C48.9557 18.7507 49.2391 18.7991 49.5134 18.8958C49.7878 18.9925 50.0341 19.1443 50.2523 19.3512C50.4704 19.5581 50.6425 19.8269 50.7684 20.1575C50.8944 20.4859 50.9573 20.8851 50.9573 21.3551V21.7127H47.2742C47.282 22.0286 47.3425 22.2996 47.4556 22.5257C47.5793 22.7686 47.7513 22.9542 47.9717 23.0824C48.1921 23.2083 48.4496 23.2713 48.7443 23.2713C48.9354 23.2713 49.1097 23.2443 49.2672 23.1903C49.4246 23.1341 49.5607 23.0509 49.6754 22.9407C49.7901 22.8305 49.8778 22.6944 49.9385 22.5325L50.8932 22.7045C50.8168 22.9857 50.6796 23.232 50.4817 23.4434C50.286 23.6525 50.0397 23.8156 49.7428 23.9325C49.4482 24.0472 49.112 24.1046 48.7341 24.1046ZM47.4421 20.3329C47.3434 20.5263 47.288 20.7343 47.2759 20.957H49.9689C49.9689 20.6916 49.9149 20.4566 49.8069 20.252C49.699 20.045 49.5472 19.882 49.3515 19.7628C49.1581 19.6436 48.9309 19.584 48.67 19.584C48.3867 19.584 48.1393 19.6537 47.9279 19.7931C47.7187 19.9303 47.5568 20.1103 47.4421 20.3329ZM54.3054 19.6278V18.8182H53.2427V17.5767H52.234V18.8182H51.4749V19.6278H52.234V22.6877C52.234 23.0003 52.3048 23.2601 52.4465 23.467C52.5882 23.6739 52.7738 23.8268 53.0032 23.9258C53.2326 24.0247 53.48 24.072 53.7454 24.0675C53.9073 24.0652 54.0422 24.0517 54.1502 24.027C54.2581 24.0045 54.3414 23.982 54.3998 23.9595L54.2177 23.1262C54.1839 23.133 54.1367 23.142 54.076 23.1532C54.0152 23.1645 53.9444 23.1701 53.8634 23.1701C53.7532 23.1701 53.6509 23.1532 53.5564 23.1195C53.4642 23.0835 53.3889 23.0172 53.3304 22.9205C53.2719 22.8215 53.2427 22.6742 53.2427 22.4785V19.6278H54.3054Z" fill="#383F47"/>
</svg>
