<svg width="24" height="24" viewBox="0 0 24 24" fill="none" xmlns="http://www.w3.org/2000/svg">
<path d="M7.73256 11.4447C7.68804 11.1563 7.66495 10.8608 7.66495 10.56C7.66495 7.37883 10.2472 4.79999 13.4325 4.79999C16.6178 4.79999 19.2 7.37883 19.2 10.56C19.2 11.2786 19.0683 11.9665 18.8276 12.6008C18.7776 12.7326 18.7526 12.7985 18.7412 12.8499C18.73 12.9008 18.7256 12.9367 18.7244 12.9889C18.7232 13.0415 18.7303 13.0996 18.7445 13.2156L19.0328 15.5701C19.064 15.825 19.0796 15.9525 19.0375 16.0451C19.0005 16.1263 18.9349 16.1908 18.8533 16.226C18.7602 16.2663 18.6338 16.2477 18.381 16.2104L16.0996 15.8742C15.9805 15.8567 15.921 15.8479 15.8667 15.8482C15.8131 15.8485 15.7759 15.8525 15.7234 15.8636C15.6703 15.8748 15.6025 15.9004 15.4669 15.9514C14.8342 16.1897 14.1486 16.32 13.4325 16.32C13.133 16.32 12.8388 16.2972 12.5516 16.2532M8.83356 19.2C10.9571 19.2 12.6786 17.427 12.6786 15.24C12.6786 13.0529 10.9571 11.28 8.83356 11.28C6.71001 11.28 4.98853 13.0529 4.98853 15.24C4.98853 15.6796 5.05809 16.1025 5.18649 16.4976C5.24077 16.6647 5.26791 16.7482 5.27681 16.8052C5.28611 16.8648 5.28774 16.8982 5.28428 16.9584C5.28096 17.0161 5.26661 17.0812 5.23791 17.2116L4.80005 19.2L6.94502 18.9055C7.0621 18.8894 7.12064 18.8814 7.17176 18.8817C7.22558 18.8821 7.25415 18.885 7.30694 18.8956C7.35707 18.9057 7.4316 18.9321 7.58065 18.985C7.97338 19.1243 8.39489 19.2 8.83356 19.2Z" stroke="#383F47" stroke-width="1.5" stroke-linecap="round" stroke-linejoin="round"/>
</svg>
