<svg width="16" height="16" viewBox="0 0 16 16" fill="none" xmlns="http://www.w3.org/2000/svg">
<path d="M8.48633 14.4258L14.2754 8.63086C14.7617 8.14453 14.8379 7.83398 14.8379 7.0957V4.88086C14.8379 4.19531 14.6738 3.91992 14.1465 3.39844L12.8164 2.0625C12.2891 1.54102 12.0195 1.37695 11.334 1.37695H9.11329C8.38087 1.37695 8.08204 1.46484 7.59571 1.95117L1.80079 7.74023C0.869147 8.67188 0.857429 9.70312 1.80079 10.6465L5.58594 14.4258C6.5293 15.3633 7.55469 15.3633 8.48633 14.4258ZM7.54883 13.2246C7.20899 13.5645 6.87501 13.5703 6.52344 13.2246L3.00196 9.70898C2.64454 9.35742 2.66798 9.01172 2.9961 8.68359L8.67383 3.01172C8.79102 2.89453 8.88477 2.83594 9.06055 2.83594H11.252C11.416 2.83594 11.5332 2.89453 11.6387 3L13.2149 4.57617C13.3145 4.67578 13.3789 4.79883 13.3789 4.96289V7.1543C13.3789 7.34766 13.332 7.44141 13.2207 7.55273L7.54883 13.2246ZM10.5371 6.58008C11.0527 6.58008 11.4453 6.18164 11.4453 5.67773C11.4453 5.16797 11.0527 4.76953 10.5371 4.76953C10.0215 4.76953 9.62891 5.16797 9.62891 5.67773C9.62891 6.18164 10.0215 6.58008 10.5371 6.58008Z" fill="#383F47"/>
</svg>
