<svg width="32" height="32" viewBox="0 0 32 32" fill="none" xmlns="http://www.w3.org/2000/svg">
<path d="M21.5293 12.2188C21.5879 8.49805 18.5703 5.71484 13.8926 5.67578L12.5352 5.66602C11.2559 5.65625 10.2793 5.75391 9.71289 5.90039C8.87305 6.10547 8.12109 6.63281 8.12109 7.59961C8.12109 7.9707 8.21875 8.25391 8.33594 8.46875C8.4043 8.57617 8.38477 8.67383 8.28711 8.71289C7.64258 9.00586 7.1543 9.60156 7.1543 10.3828C7.1543 10.832 7.28125 11.2324 7.49609 11.5156C7.59375 11.6523 7.57422 11.7695 7.41797 11.8574C6.96875 12.1406 6.65625 12.7168 6.65625 13.3711C6.65625 13.8496 6.80273 14.3477 7.05664 14.6016C7.19336 14.7285 7.17383 14.8164 7.03711 14.9434C6.71484 15.2168 6.51953 15.6855 6.51953 16.252C6.51953 17.2578 7.31055 18.0781 8.3457 18.0781H11.8711C12.7207 18.0781 13.2773 18.5078 13.2773 19.2012C13.2773 20.5195 11.6074 22.9805 11.6074 24.7676C11.6074 25.7344 12.2324 26.3203 13.0625 26.3203C13.7949 26.3203 14.1758 25.8418 14.5859 25.0312C16.0801 22.1504 18.0527 19.8066 19.5664 17.7949C20.8848 16.0566 21.4902 14.5625 21.5293 12.2188ZM26.4609 12.1406C26.4609 9.11328 24.5859 6.61328 22.0664 6.61328H20.377C22.1348 7.96094 22.9648 9.96289 22.9355 12.2383C22.8965 14.6992 22.0176 16.4863 21.0898 17.707H22.4375C24.7129 17.707 26.4609 15.2656 26.4609 12.1406Z" fill="#383F47"/>
</svg>
