<svg width="32" height="32" viewBox="0 0 32 32" fill="none" xmlns="http://www.w3.org/2000/svg">
<path d="M6.22656 19.543C6.22656 22.873 8.36523 25.6172 11.0996 25.6172H14.2246C15.4941 26.2715 17.0176 26.6426 18.6875 26.6426H20.0059C21.2461 26.6426 22.291 26.5742 22.9746 26.3984C24.3711 26.0566 25.25 25.0605 25.25 23.8301C25.25 23.6055 25.2207 23.4004 25.1621 23.2051C25.8066 22.6875 26.1777 21.9453 26.1777 21.1348C26.1777 20.7539 26.0996 20.3828 25.9727 20.0801C26.4121 19.6113 26.6562 18.9473 26.6562 18.2441C26.6562 17.7949 26.5488 17.3262 26.3633 16.9746C26.6172 16.5742 26.7734 16.0176 26.7734 15.4316C26.7734 13.9277 25.6211 12.7559 24.1172 12.7559H20.5918C20.3965 12.7559 20.2695 12.668 20.2793 12.4922C20.3281 11.5156 21.8613 9.16211 21.8613 7.23828C21.8613 5.82227 20.8652 4.79688 19.498 4.79688C18.502 4.79688 17.8086 5.31445 17.1641 6.55469C15.9922 8.82031 14.5469 10.832 12.4375 13.4199H10.7383C8.17969 13.4199 6.22656 16.1445 6.22656 19.543ZM12.125 19.4648C12.125 17.4531 12.5742 16.1641 13.8535 14.4453C15.2891 12.5312 17.2812 10.2266 18.707 7.375C19.0195 6.75977 19.2148 6.62305 19.5176 6.62305C19.8789 6.62305 20.1133 6.87695 20.1133 7.33594C20.1133 8.75195 18.5117 11.0957 18.5117 12.6289C18.5117 13.7715 19.4297 14.5039 20.6699 14.5039H24.0684C24.6152 14.5039 25.0254 14.9141 25.0254 15.4609C25.0254 15.8613 24.8984 16.1152 24.5762 16.4473C24.3223 16.6816 24.293 17.0332 24.5078 17.2773C24.7812 17.6777 24.8984 17.9219 24.8984 18.2441C24.8984 18.6348 24.7129 18.9668 24.332 19.2598C24.0098 19.4844 23.9023 19.8555 24.0781 20.2363C24.293 20.627 24.3906 20.8223 24.3906 21.1152C24.3906 21.5742 24.0977 21.916 23.502 22.2383C23.1992 22.4043 23.1211 22.7266 23.248 23.0195C23.4434 23.5176 23.4727 23.6055 23.4727 23.8203C23.4727 24.2207 23.1699 24.543 22.5352 24.6992C21.9883 24.8457 21.0898 24.9043 19.918 24.9043H18.7852C14.791 24.8945 12.125 22.6387 12.125 19.4648ZM7.94531 19.543C7.94531 17.1406 9.18555 15.2168 10.6016 15.1582C10.8457 15.1582 11.0898 15.1582 11.334 15.1484C10.6699 16.4668 10.377 17.8242 10.377 19.4648C10.377 21.1934 10.9727 22.7168 12.0664 23.918C11.7148 23.918 11.3633 23.918 11.002 23.918C9.35156 23.8594 7.94531 21.916 7.94531 19.543Z" fill="#383F47"/>
</svg>
