<svg width="32" height="32" viewBox="0 0 32 32" fill="none" xmlns="http://www.w3.org/2000/svg">
<path d="M26.7734 12.1602C26.7734 8.83008 24.6348 6.08594 21.9004 6.08594H18.7754C17.5059 5.43164 15.9824 5.06055 14.3125 5.06055H12.9941C11.7539 5.06055 10.7188 5.12891 10.0254 5.30469C8.62891 5.64648 7.75 6.64258 7.75 7.87305C7.75 8.09766 7.7793 8.30273 7.83789 8.50781C7.19336 9.01562 6.82227 9.75781 6.82227 10.5684C6.82227 10.9492 6.90039 11.3203 7.02734 11.623C6.59766 12.0918 6.34375 12.7559 6.34375 13.459C6.34375 13.9082 6.45117 14.377 6.63672 14.7285C6.38281 15.1289 6.22656 15.6855 6.22656 16.2715C6.22656 17.7754 7.37891 18.9473 8.89258 18.9473H12.4082C12.6035 18.9473 12.7305 19.0352 12.7207 19.2109C12.6719 20.1875 11.1387 22.541 11.1387 24.4648C11.1387 25.8809 12.1348 26.9062 13.502 26.9062C14.498 26.9062 15.1914 26.3887 15.8359 25.1484C17.0176 22.8828 18.4531 20.8711 20.5625 18.2832H22.2617C24.8203 18.2832 26.7734 15.5586 26.7734 12.1602ZM20.875 12.2383C20.875 14.25 20.4258 15.5391 19.1465 17.2578C17.7109 19.1719 15.7188 21.4766 14.293 24.3281C13.9805 24.9434 13.7852 25.0801 13.4824 25.0801C13.1211 25.0801 12.8867 24.8262 12.8867 24.3672C12.8867 22.9512 14.4883 20.6074 14.4883 19.0742C14.4883 17.9316 13.5703 17.1992 12.3301 17.1992H8.93164C8.38477 17.1992 7.97461 16.7891 7.97461 16.2422C7.97461 15.8418 8.10156 15.5879 8.42383 15.2559C8.67773 15.0215 8.70703 14.6699 8.49219 14.4258C8.21875 14.0254 8.10156 13.7812 8.10156 13.459C8.10156 13.0684 8.28711 12.7363 8.66797 12.4434C8.99023 12.2188 9.09766 11.8477 8.92188 11.4668C8.70703 11.0762 8.60938 10.8809 8.60938 10.5879C8.60938 10.1289 8.90234 9.78711 9.49805 9.46484C9.80078 9.29883 9.87891 8.97656 9.75195 8.68359C9.55664 8.18555 9.52734 8.09766 9.52734 7.88281C9.52734 7.48242 9.83008 7.16016 10.4648 7.00391C11.0117 6.85742 11.9102 6.79883 13.082 6.79883H14.2148C18.209 6.81836 20.875 9.06445 20.875 12.2383ZM25.0547 12.1602C25.0547 14.5625 23.8145 16.4863 22.3984 16.5449C22.1543 16.5449 21.9102 16.5547 21.666 16.5547C22.3301 15.2461 22.623 13.8789 22.623 12.248C22.623 10.5098 22.0273 8.98633 20.9336 7.78516C21.2852 7.78516 21.6367 7.78516 21.998 7.78516C23.6484 7.84375 25.0547 9.78711 25.0547 12.1602Z" fill="#383F47"/>
</svg>
