<svg width="12" height="12" viewBox="0 0 12 12" fill="none" xmlns="http://www.w3.org/2000/svg">
    <g clip-path="url(#clip0_5505_3470)">
        <path d="M2.89225 8.18904C2.89792 6.82798 3.24953 5.9603 4.01512 4.95085C4.89414 3.78261 6.0397 2.42155 6.90737 0.748582C7.14556 0.277883 7.36673 0 7.79206 0C8.27977 0 8.63705 0.340265 8.63705 0.901701C8.63705 1.93951 7.6673 3.36862 7.6673 4.13422C7.6673 4.53686 7.99055 4.78639 8.48393 4.78639H10.5312C11.1323 4.78639 11.5917 5.26276 11.5917 5.84688C11.5917 6.1758 11.4783 6.44802 11.2968 6.61248C11.2117 6.68053 11.2004 6.73157 11.2798 6.80529C11.4272 6.95274 11.5123 7.24197 11.5123 7.51985C11.5123 7.89981 11.3308 8.2344 11.0699 8.39887C10.9792 8.44991 10.9679 8.51796 11.0246 8.59735C11.1493 8.76181 11.2231 8.99433 11.2231 9.2552C11.2231 9.70888 10.9395 10.0548 10.5652 10.225C10.5085 10.2476 10.4972 10.3043 10.5369 10.3667C10.6049 10.4915 10.6616 10.656 10.6616 10.8715C10.6616 11.4329 10.225 11.7391 9.73724 11.8582C9.40832 11.9433 8.84121 12 8.0983 12H7.31002C4.59357 11.9943 2.88658 10.3497 2.89225 8.18904ZM0 8.2344C0 6.41966 1.01512 5.00189 2.33648 5.00189H3.12476C2.58601 5.71077 2.07561 6.74858 2.06994 8.17769C2.0586 9.49905 2.51229 10.6616 3.53875 11.4442H2.55198C1.09452 11.4442 0 9.99244 0 8.2344Z" fill="#383F47"/>
    </g>
    <defs>
        <clipPath id="clip0_5505_3470">
            <rect width="12" height="12" fill="white"/>
        </clipPath>
    </defs>
</svg>
