<svg width="12" height="12" viewBox="0 0 12 12" fill="none" xmlns="http://www.w3.org/2000/svg">
    <g clip-path="url(#clip0_5505_3475)">
        <path d="M8.69942 3.81096C8.69375 5.17202 8.34215 6.0397 7.57655 7.04915C6.69753 8.21739 5.55198 9.57845 4.6843 11.2514C4.44612 11.7221 4.22495 12 3.79961 12C3.3119 12 2.95462 11.6597 2.95462 11.0983C2.95462 10.0605 3.92438 8.63138 3.92438 7.86579C3.92438 7.46314 3.60113 7.21361 3.10774 7.21361L1.06048 7.21361C0.459349 7.21361 -7.87714e-06 6.73724 -7.9282e-06 6.15312C-7.95696e-06 5.8242 0.113414 5.55199 0.294888 5.38752C0.379954 5.31947 0.391296 5.26843 0.311901 5.19471C0.164453 5.04726 0.079387 4.75804 0.079387 4.48015C0.079387 4.10019 0.260861 3.7656 0.521731 3.60114C0.612468 3.5501 0.62381 3.48204 0.5671 3.40265C0.442336 3.23819 0.368612 3.00567 0.368612 2.7448C0.368612 2.29112 0.652166 1.94518 1.02646 1.77505C1.08317 1.75236 1.09451 1.69565 1.05481 1.63327C0.986759 1.50851 0.930048 1.34405 0.930048 1.12855C0.930048 0.567109 1.36672 0.260871 1.85443 0.141778C2.18336 0.0567118 2.75046 9.77814e-07 3.49338 9.12867e-07L4.28165 8.43953e-07C6.9981 0.00567168 8.7051 1.65028 8.69942 3.81096ZM11.5917 3.7656C11.5917 5.58034 10.5766 6.99811 9.25519 6.99811L8.46691 6.99811C9.00566 6.28923 9.51606 5.25142 9.52173 3.82231C9.53307 2.50095 9.07939 1.33837 8.05292 0.555766L9.03969 0.555766C10.4972 0.555766 11.5917 2.00756 11.5917 3.7656Z" fill="#383F47"/>
    </g>
    <defs>
        <clipPath id="clip0_5505_3475">
            <rect width="12" height="12" fill="white"/>
        </clipPath>
    </defs>
</svg>
