<svg width="16" height="16" viewBox="0 0 16 16" fill="none" xmlns="http://www.w3.org/2000/svg">
    <path fill-rule="evenodd" clip-rule="evenodd" d="M1.33331 2.66671C1.33331 1.93033 1.93027 1.33337 2.66665 1.33337H5.99998C6.73636 1.33337 7.33331 1.93033 7.33331 2.66671V6.00004C7.33331 6.73642 6.73636 7.33337 5.99998 7.33337H2.66665C1.93027 7.33337 1.33331 6.73642 1.33331 6.00004V2.66671ZM5.99998 2.66671H2.66665V6.00004H5.99998V2.66671ZM8.66665 2.66671C8.66665 1.93033 9.2636 1.33337 9.99998 1.33337H13.3333C14.0697 1.33337 14.6666 1.93033 14.6666 2.66671V6.00004C14.6666 6.73642 14.0697 7.33337 13.3333 7.33337H9.99998C9.2636 7.33337 8.66665 6.73642 8.66665 6.00004V2.66671ZM13.3333 2.66671H9.99998V6.00004H13.3333V2.66671ZM1.33331 10C1.33331 9.26366 1.93027 8.66671 2.66665 8.66671H5.99998C6.73636 8.66671 7.33331 9.26366 7.33331 10V13.3334C7.33331 14.0698 6.73636 14.6667 5.99998 14.6667H2.66665C1.93027 14.6667 1.33331 14.0698 1.33331 13.3334V10ZM5.99998 10H2.66665V13.3334H5.99998V10ZM8.66665 10C8.66665 9.26366 9.2636 8.66671 9.99998 8.66671H13.3333C14.0697 8.66671 14.6666 9.26366 14.6666 10V13.3334C14.6666 14.0698 14.0697 14.6667 13.3333 14.6667H9.99998C9.2636 14.6667 8.66665 14.0698 8.66665 13.3334V10ZM13.3333 10H9.99998V13.3334H13.3333V10Z" fill="#383F47"/>
</svg>
