<svg width="32" height="32" viewBox="0 0 32 32" fill="none" xmlns="http://www.w3.org/2000/svg">
<path fill-rule="evenodd" clip-rule="evenodd" d="M12.4798 7.30528C13.8417 6.8513 15.6755 6.58337 17.6667 6.58337C19.6579 6.58337 21.4917 6.8513 22.8536 7.30528C23.5307 7.53096 24.1327 7.81622 24.5808 8.16941C25.0205 8.51593 25.4167 9.01624 25.4167 9.66671V15C25.4167 15.5817 25.0976 16.0454 24.7214 16.3798C24.3439 16.7153 23.8383 16.9885 23.2736 17.2097C23.013 17.3118 22.7173 17.2603 22.5065 17.0761C22.2958 16.892 22.2051 16.6058 22.2713 16.3339L23.3657 11.8396C23.201 11.9066 23.0298 11.9694 22.8536 12.0281C21.4917 12.4821 19.6579 12.75 17.6667 12.75C15.6755 12.75 13.8417 12.4821 12.4798 12.0281C12.0966 11.9004 11.7375 11.7536 11.4167 11.5862V13.3334C11.4167 13.7476 11.0809 14.0834 10.6667 14.0834C10.2525 14.0834 9.91669 13.7476 9.91669 13.3334V9.66671C9.91669 9.01624 10.3129 8.51593 10.7525 8.16941C11.2007 7.81622 11.8027 7.53096 12.4798 7.30528ZM11.4167 9.66762V9.66671L11.4167 9.66654C11.4167 9.66359 11.4165 9.6403 11.4481 9.58884C11.4832 9.53156 11.5531 9.44836 11.681 9.34753C11.9413 9.1424 12.3644 8.92487 12.9541 8.7283C14.1257 8.33778 15.7919 8.08337 17.6667 8.08337C19.5415 8.08337 21.2077 8.33778 22.3793 8.7283C22.969 8.92487 23.3921 9.1424 23.6524 9.34753C23.7803 9.44836 23.8501 9.53156 23.8853 9.58884C23.894 9.60305 23.9003 9.61512 23.9049 9.6252L23.8702 9.7676C23.8315 9.82324 23.7641 9.89784 23.6524 9.98589C23.3921 10.191 22.969 10.4085 22.3793 10.6051C21.2077 10.9956 19.5415 11.25 17.6667 11.25C15.7919 11.25 14.1257 10.9956 12.9541 10.6051C12.3644 10.4085 11.9413 10.191 11.681 9.98589C11.5531 9.88506 11.4832 9.80186 11.4481 9.74458C11.4184 9.69618 11.4168 9.67269 11.4167 9.66762Z" fill="#383F47"/>
<path fill-rule="evenodd" clip-rule="evenodd" d="M8.1464 15.6386C9.50834 15.1846 11.3421 14.9167 13.3333 14.9167C15.3245 14.9167 17.1583 15.1846 18.5202 15.6386C19.1973 15.8643 19.7993 16.1495 20.2474 16.5027C20.6871 16.8492 21.0833 17.3496 21.0833 18V23.3334C21.0833 23.9838 20.6871 24.4841 20.2474 24.8307C19.7993 25.1838 19.1973 25.4691 18.5202 25.6948C17.1583 26.1488 15.3245 26.4167 13.3333 26.4167C11.3421 26.4167 9.50834 26.1488 8.1464 25.6948C7.46935 25.4691 6.86733 25.1838 6.41918 24.8307C5.97948 24.4841 5.58331 23.9838 5.58331 23.3334V18C5.58331 17.3496 5.97948 16.8492 6.41918 16.5027C6.86733 16.1495 7.46935 15.8643 8.1464 15.6386ZM7.08331 18.0009V18L7.08331 17.9999C7.08329 17.9969 7.08311 17.9736 7.1147 17.9222C7.14986 17.8649 7.21969 17.7817 7.34764 17.6808C7.60792 17.4757 8.03104 17.2582 8.62074 17.0616C9.7923 16.6711 11.4585 16.4167 13.3333 16.4167C15.2081 16.4167 16.8743 16.6711 18.0459 17.0616C18.6356 17.2582 19.0587 17.4757 19.319 17.6808C19.4469 17.7817 19.5168 17.8649 19.5519 17.9222C19.5835 17.9736 19.5833 17.9969 19.5833 17.9999L19.5833 18L19.5833 18.0002L19.5833 18.0009C19.5832 18.006 19.5816 18.0295 19.5519 18.0779C19.5168 18.1352 19.4469 18.2184 19.319 18.3192C19.0587 18.5243 18.6356 18.7419 18.0459 18.9384C16.8743 19.3289 15.2081 19.5834 13.3333 19.5834C11.4585 19.5834 9.7923 19.3289 8.62074 18.9384C8.03104 18.7419 7.60792 18.5243 7.34764 18.3192C7.21969 18.2184 7.14986 18.1352 7.1147 18.0779C7.08499 18.0295 7.08338 18.006 7.08331 18.0009ZM7.08331 19.9195V23.3334L7.08331 23.3335C7.08329 23.3365 7.08311 23.3598 7.1147 23.4112C7.14986 23.4685 7.21969 23.5517 7.34764 23.6525C7.60792 23.8577 8.03104 24.0752 8.62074 24.2718C9.7923 24.6623 11.4585 24.9167 13.3333 24.9167C15.2081 24.9167 16.8743 24.6623 18.0459 24.2718C18.6356 24.0752 19.0587 23.8577 19.319 23.6525C19.4469 23.5517 19.5168 23.4685 19.5519 23.4112C19.5835 23.3598 19.5833 23.3365 19.5833 23.3335L19.5833 23.3334V19.9195C19.2625 20.0869 18.9034 20.2337 18.5202 20.3614C17.1583 20.8154 15.3245 21.0834 13.3333 21.0834C11.3421 21.0834 9.50834 20.8154 8.1464 20.3614C7.76324 20.2337 7.40412 20.0869 7.08331 19.9195Z" fill="#383F47"/>
</svg>
