<svg width="16" height="16" viewBox="0 0 16 16" fill="none" xmlns="http://www.w3.org/2000/svg">
<path fill-rule="evenodd" clip-rule="evenodd" d="M8.00429 5.25868C6.35992 5.2411 4.55622 5.07237 2.81444 4.33649C2.35236 4.12875 1.91032 3.85354 1.49694 3.51625C1.12181 3.21979 1.12819 2.96552 1.51333 2.6714C1.91475 2.36017 2.34047 2.1041 2.78348 1.9074C4.24028 1.28167 5.75535 1.06841 7.28499 1.01685C9.33817 0.946542 11.3768 1.07427 13.3635 1.82303C13.7957 1.98884 14.2151 2.20577 14.6163 2.47102C14.7711 2.57144 14.8998 2.73846 15.0286 2.90555L15.0286 2.90556L15.0286 2.90558C15.0862 2.98025 15.1437 3.05494 15.2036 3.1237C15.1422 3.19358 15.0834 3.27177 15.0247 3.34994C14.8963 3.52082 14.768 3.6916 14.6118 3.77521C13.9763 4.1302 13.3218 4.42586 12.6533 4.6599C11.1865 5.1415 9.68416 5.25868 8.00429 5.25868ZM15.21 5.37589C15.21 5.60627 15.2126 5.83364 15.2151 6.05868V6.05871C15.2215 6.62917 15.2277 7.18462 15.1918 7.73585C15.1729 7.88192 15.1291 8.02076 15.0634 8.14235C14.9978 8.26394 14.9119 8.36524 14.8121 8.43892C14.7338 8.48566 14.6554 8.53298 14.5767 8.58041C13.9991 8.92883 13.4121 9.28288 12.799 9.45719C9.59497 10.3817 6.38272 10.3946 3.19233 9.33415C2.78175 9.19766 2.39117 8.95704 2.00165 8.71707C1.8461 8.62124 1.69072 8.52552 1.53431 8.43657C1.35221 8.33228 1.28301 8.12839 1.28756 7.85068C1.29669 7.28508 1.29508 6.71948 1.29343 6.14011C1.29277 5.91047 1.29211 5.67867 1.29211 5.44385C3.50099 6.68945 5.85008 6.98591 8.23104 6.97536C10.612 6.96482 12.9665 6.65313 15.21 5.37589ZM15.2117 10.3196C10.5882 12.3936 5.97745 12.3843 1.35575 10.4426C1.35575 10.6369 1.3547 10.8349 1.35365 11.0356C1.35075 11.5854 1.34775 12.1559 1.36576 12.7276C1.37296 12.8291 1.39671 12.9274 1.43546 13.0163C1.47421 13.1051 1.5271 13.1824 1.59066 13.2432C1.95986 13.5473 2.35108 13.8047 2.75883 14.0119C3.94976 14.5696 5.19533 14.7934 6.45455 14.9106C8.64248 15.1063 10.8158 15.0102 12.9537 14.3247C13.6493 14.1009 14.3368 13.8279 14.9195 13.2608C15.046 13.1365 15.1917 12.9198 15.1981 12.7393C15.2204 12.1254 15.2171 11.5103 15.2139 10.9207C15.2128 10.7169 15.2117 10.5162 15.2117 10.3196Z" fill="#383F47"/>
</svg>
