<svg width="16" height="16" viewBox="0 0 16 16" fill="none" xmlns="http://www.w3.org/2000/svg">
<g clip-path="url(#clip0_5266_3337)">
<path d="M2.72895 16C0.912548 16 0 15.1048 0 13.3058V2.69419C0 0.895166 0.912548 0 2.72895 0H13.271C15.0961 0 16 0.903857 16 2.69419V13.3058C16 15.0961 15.0961 16 13.271 16H2.72895ZM2.74633 14.6008H13.2537C14.1141 14.6008 14.6008 14.1401 14.6008 13.2363V2.76372C14.6008 1.85986 14.1141 1.39924 13.2537 1.39924H2.74633C1.87724 1.39924 1.39924 1.85986 1.39924 2.76372V13.2363C1.39924 14.1401 1.87724 14.6008 2.74633 14.6008ZM4.58881 9.63824C4.58881 8.717 5.33623 7.72624 6.57903 7.283L6.71809 5.24063C6.09234 4.89299 5.57958 4.48452 5.34492 4.18903C5.21456 4.03259 5.15372 3.86746 5.15372 3.72841C5.15372 3.45899 5.3623 3.26779 5.67518 3.26779H10.3509C10.6638 3.26779 10.8724 3.45899 10.8724 3.72841C10.8724 3.86746 10.8115 4.0239 10.6985 4.18034C10.4639 4.47583 9.94242 4.8843 9.30798 5.24063L9.45573 7.283C10.6898 7.72624 11.4373 8.717 11.4373 9.63824C11.4373 10.0206 11.1939 10.2553 10.7941 10.2553H8.55187V11.811C8.55187 12.7583 8.16947 13.5405 8.01304 13.5405C7.8566 13.5405 7.4742 12.7583 7.4742 11.811V10.2553H5.23194C4.84085 10.2553 4.58881 10.0206 4.58881 9.63824Z" fill="#383F47"/>
</g>
<defs>
<clipPath id="clip0_5266_3337">
<rect width="16" height="16" fill="white"/>
</clipPath>
</defs>
</svg>
