<svg width="16" height="16" viewBox="0 0 16 16" fill="none" xmlns="http://www.w3.org/2000/svg">
<g clip-path="url(#clip0_4737_3151)">
<path fill-rule="evenodd" clip-rule="evenodd" d="M14.5 4C14.5 4.23033 14.2743 4.84266 12.986 5.48679C11.7875 6.08605 10.0268 6.5 8 6.5C5.97324 6.5 4.2125 6.08605 3.01397 5.48679C1.72571 4.84266 1.5 4.23033 1.5 4C1.5 3.76967 1.72571 3.15734 3.01397 2.51321C4.2125 1.91395 5.97324 1.5 8 1.5C10.0268 1.5 11.7875 1.91395 12.986 2.51321C14.2743 3.15734 14.5 3.76967 14.5 4ZM13.69 6.81173C12.2398 7.54539 10.2261 8 8 8C5.77393 8 3.76021 7.54539 2.30995 6.81173C1.63744 7.29028 1.5 7.70262 1.5 7.88235C1.5 8.11268 1.72571 8.72501 3.01397 9.36914C4.2125 9.9684 5.97324 10.3823 8 10.3823C10.0268 10.3823 11.7875 9.9684 12.986 9.36914C14.2743 8.72501 14.5 8.11268 14.5 7.88235C14.5 7.70262 14.3626 7.29028 13.69 6.81173ZM14.9965 5.94118C15.6358 5.36631 16 4.70442 16 4C16 1.79086 12.4183 0 8 0C3.58172 0 0 1.79086 0 4C0 4.70658 0.366409 5.37037 1.0094 5.94645L1 5.94435C0.362837 6.51847 0 7.17922 0 7.88235C0 8.59861 0.376518 9.2709 1.03599 9.85243L1 9.84437C0.362837 10.4185 0 11.0792 0 11.7824C0 13.9915 3.58172 15.7824 8 15.7824C12.4183 15.7824 16 13.9915 16 11.7824C16 11.0743 15.6321 10.4093 14.9866 9.83236C15.6321 9.25545 16 8.59038 16 7.88235C16 7.17793 15.6358 6.51604 14.9965 5.94118ZM8 11.8823C10.2186 11.8823 12.2263 11.4308 13.6755 10.7014C14.3606 11.1844 14.5 11.6014 14.5 11.7824C14.5 12.0127 14.2743 12.625 12.986 13.2692C11.7875 13.8684 10.0268 14.2824 8 14.2824C5.97324 14.2824 4.2125 13.8684 3.01397 13.2692C1.72571 12.625 1.5 12.0127 1.5 11.7824C1.5 11.6014 1.63942 11.1844 2.32452 10.7014C3.77369 11.4308 5.78137 11.8823 8 11.8823Z" fill="#383F47"/>
</g>
<defs>
<clipPath id="clip0_4737_3151">
<rect width="16" height="16" fill="white"/>
</clipPath>
</defs>
</svg>
