<svg width="24" height="24" viewBox="0 0 24 24" fill="none" xmlns="http://www.w3.org/2000/svg">
<path d="M12 18.8591C15.8287 18.8591 19 15.7264 19 11.9296C19 8.13943 15.8287 5 11.9932 5C8.16457 5 5 8.13943 5 11.9296C5 15.7264 8.17135 18.8591 12 18.8591ZM12 17.4974C8.88287 17.4974 6.38238 15.0153 6.38238 11.9296C6.38238 8.84379 8.87609 6.36847 11.9932 6.36847C15.1104 6.36847 17.6244 8.84379 17.6244 11.9296C17.6244 15.0153 15.1171 17.4974 12 17.4974ZM9.70958 10.4403L11.6544 12.3589C11.8712 12.5736 12.2033 12.5736 12.4201 12.3589L15.4153 9.39387C15.6254 9.18591 15.6321 8.85721 15.4085 8.64255C15.1917 8.4413 14.8664 8.4346 14.6496 8.64255L12.0339 11.2386L10.4753 9.68903C10.2517 9.47436 9.92643 9.47436 9.71636 9.68903C9.50629 9.89698 9.49952 10.2257 9.70958 10.4403ZM5.06776 15.7532V17.7053C5.06776 18.5841 5.50145 19 6.39593 19H8.50339C7.01258 18.2755 5.88093 17.2022 5.06776 15.7532ZM18.9864 15.7532C18.1733 17.2022 17.0348 18.2755 15.5508 19H17.6583C18.5528 19 18.9864 18.5841 18.9864 17.7053V15.7532Z" fill="#383F47"/>
</svg>
