<svg width="16" height="16" viewBox="0 0 16 16" fill="none" xmlns="http://www.w3.org/2000/svg">
    <path fill-rule="evenodd" clip-rule="evenodd" d="M3 4C3 4.55228 2.55228 5 2 5C1.44772 5 1 4.55228 1 4C1 3.44772 1.44772 3 2 3C2.55228 3 3 3.44772 3 4ZM4 4.03947C4 3.55986 4.38881 3.17105 4.86842 3.17105H14.1316C14.6112 3.17105 15 3.55986 15 4.03947C15 4.51909 14.6112 4.90789 14.1316 4.90789L4.86842 4.90789C4.38881 4.90789 4 4.51909 4 4.03947ZM2 9C2.55228 9 3 8.55228 3 8C3 7.44772 2.55228 7 2 7C1.44772 7 1 7.44772 1 8C1 8.55228 1.44772 9 2 9ZM4.86842 7.17105C4.38881 7.17105 4 7.55986 4 8.03947C4 8.51909 4.38881 8.90789 4.86842 8.90789H14.1316C14.6112 8.90789 15 8.51909 15 8.03947C15 7.55986 14.6112 7.17105 14.1316 7.17105H4.86842ZM2 13C2.55228 13 3 12.5523 3 12C3 11.4477 2.55228 11 2 11C1.44772 11 1 11.4477 1 12C1 12.5523 1.44772 13 2 13ZM4.86842 11.1711C4.38881 11.1711 4 11.5599 4 12.0395C4 12.5191 4.38881 12.9079 4.86842 12.9079H14.1316C14.6112 12.9079 15 12.5191 15 12.0395C15 11.5599 14.6112 11.1711 14.1316 11.1711H4.86842Z" fill="#383F47"/>
</svg>
