<svg width="16" height="16" viewBox="0 0 16 16" fill="none" xmlns="http://www.w3.org/2000/svg">
    <path fill-rule="evenodd" clip-rule="evenodd" d="M1.33329 1.33334C0.965103 1.33334 0.666626 1.63181 0.666626 2V4.66667C0.666626 5.03486 0.965103 5.33334 1.33329 5.33334H3.99996C4.36815 5.33334 4.66663 5.03486 4.66663 4.66667V2C4.66663 1.63181 4.36815 1.33334 3.99996 1.33334H1.33329ZM1.99996 4V2.66667H3.33329V4H1.99996Z" fill="#383F47"/>
    <path d="M5.99996 3.33334C5.99996 2.96515 6.29844 2.66667 6.66663 2.66667H14.6666C15.0348 2.66667 15.3333 2.96515 15.3333 3.33334C15.3333 3.70153 15.0348 4 14.6666 4H6.66663C6.29844 4 5.99996 3.70153 5.99996 3.33334Z" fill="#383F47"/>
    <path d="M6.66663 7.33334C6.29844 7.33334 5.99996 7.63181 5.99996 8C5.99996 8.36819 6.29844 8.66667 6.66663 8.66667H14.6666C15.0348 8.66667 15.3333 8.36819 15.3333 8C15.3333 7.63181 15.0348 7.33334 14.6666 7.33334H6.66663Z" fill="#383F47"/>
    <path d="M6.66663 12C6.29844 12 5.99996 12.2985 5.99996 12.6667C5.99996 13.0349 6.29844 13.3333 6.66663 13.3333H14.6666C15.0348 13.3333 15.3333 13.0349 15.3333 12.6667C15.3333 12.2985 15.0348 12 14.6666 12H6.66663Z" fill="#383F47"/>
    <path fill-rule="evenodd" clip-rule="evenodd" d="M1.33329 10.6667C0.965103 10.6667 0.666626 10.9651 0.666626 11.3333V14C0.666626 14.3682 0.965103 14.6667 1.33329 14.6667H3.99996C4.36815 14.6667 4.66663 14.3682 4.66663 14V11.3333C4.66663 10.9651 4.36815 10.6667 3.99996 10.6667H1.33329ZM1.99996 13.3333V12H3.33329V13.3333H1.99996Z" fill="#383F47"/>
    <path fill-rule="evenodd" clip-rule="evenodd" d="M0.666626 6.66667C0.666626 6.29848 0.965103 6 1.33329 6H3.99996C4.36815 6 4.66663 6.29848 4.66663 6.66667V9.33334C4.66663 9.70153 4.36815 10 3.99996 10H1.33329C0.965103 10 0.666626 9.70153 0.666626 9.33334V6.66667ZM1.99996 7.33334V8.66667H3.33329V7.33334H1.99996Z" fill="#383F47"/>
</svg>
