<svg width="32" height="32" viewBox="0 0 32 32" fill="none" xmlns="http://www.w3.org/2000/svg">
<path d="M25.6667 11V23C25.6667 24.4728 24.4728 25.6667 23 25.6667H9.00004C7.52728 25.6667 6.33337 24.4728 6.33337 23V9" stroke="#383F47" stroke-width="1.5" stroke-linecap="round" stroke-linejoin="round"/>
<path d="M22 17.3334C22 17.7015 21.7014 18 21.3333 18C20.9652 18 20.6666 17.7015 20.6666 17.3334C20.6666 16.9652 20.9652 16.6667 21.3333 16.6667C21.7014 16.6667 22 16.9652 22 17.3334Z" stroke="#383F47" stroke-linecap="round" stroke-linejoin="round"/>
<path d="M23 11H25.6667M23 11H8.66671C7.37804 11 6.33337 9.95531 6.33337 8.66665C6.33337 7.37798 7.37804 6.33331 8.66671 6.33331H20.3334C21.8062 6.33331 23 7.52722 23 8.99998V11Z" stroke="#383F47" stroke-width="1.5" stroke-linecap="round" stroke-linejoin="round"/>
</svg>
