<svg width="24" height="24" viewBox="0 0 24 24" fill="none" xmlns="http://www.w3.org/2000/svg">
<path d="M17.8828 14.2422V6.39844C17.8828 5.85938 17.5234 5.49219 16.9688 5.49219H9.125C8.60156 5.49219 8.23438 5.88281 8.23438 6.34375C8.23438 6.79688 8.63281 7.17188 9.10156 7.17188H11.8828L15.25 7.0625L13.8281 8.3125L6.38281 15.7656C6.20312 15.9453 6.10938 16.1641 6.10938 16.3828C6.10938 16.8359 6.52344 17.2578 6.99219 17.2578C7.21094 17.2578 7.42188 17.1719 7.60156 16.9922L15.0547 9.53906L16.3203 8.11719L16.1875 11.3516V14.2656C16.1875 14.7344 16.5625 15.1406 17.0312 15.1406C17.4922 15.1406 17.8828 14.75 17.8828 14.2422Z" fill="#383F47"/>
</svg>
