<svg width="24" height="24" viewBox="0 0 24 24" fill="none" xmlns="http://www.w3.org/2000/svg">
<path d="M5.82031 18.5234H19.1797C20.8672 18.5234 21.7422 17.6484 21.7422 15.9844V7.53906C21.7422 5.86719 20.8672 5 19.1797 5H5.82031C4.13281 5 3.25781 5.86719 3.25781 7.53906V15.9844C3.25781 17.6562 4.13281 18.5234 5.82031 18.5234ZM4.78906 7.67188C4.78906 6.91406 5.1875 6.53125 5.91406 6.53125H19.0859C19.8047 6.53125 20.2109 6.91406 20.2109 7.67188V8.24219H4.78906V7.67188ZM5.91406 16.9922C5.1875 16.9922 4.78906 16.6094 4.78906 15.8516V10.0625H20.2109V15.8516C20.2109 16.6094 19.8047 16.9922 19.0859 16.9922H5.91406ZM6.97656 15.5703H8.89062C9.34375 15.5703 9.65625 15.2656 9.65625 14.8203V13.375C9.65625 12.9375 9.34375 12.625 8.89062 12.625H6.97656C6.51562 12.625 6.20312 12.9375 6.20312 13.375V14.8203C6.20312 15.2656 6.51562 15.5703 6.97656 15.5703Z" fill="#383F47"/>
</svg>
