<svg width="16" height="16" viewBox="0 0 16 16" fill="none" xmlns="http://www.w3.org/2000/svg">
<path d="M5.77979 14.9365H9.68994C10.5215 14.9365 11.0039 14.6509 11.4609 14.1431L13.8921 11.4072C14.3491 10.8931 14.4697 10.5566 14.4697 9.8584V7.07812C14.4697 6.37988 14.3174 6.0752 13.8477 5.5293L11.4609 2.7998C11.0103 2.28564 10.5215 2 9.68994 2H5.77979C4.94824 2 4.46582 2.29199 4.00879 2.7998L1.57129 5.5293C1.11426 6.0498 1 6.37988 1 7.07812V9.8584C1 10.5566 1.11426 10.8931 1.57129 11.4072L4.00879 14.1431C4.46582 14.6509 4.94824 14.9365 5.77979 14.9365ZM6.05908 13.5464C5.48145 13.5464 5.27832 13.4067 4.95459 13.0513L2.82812 10.6899C2.58057 10.4043 2.52344 10.2266 2.52344 9.75684V7.17969C2.52344 6.71631 2.58057 6.53223 2.82812 6.25293L4.95459 3.88525C5.27832 3.52979 5.48145 3.39014 6.05908 3.39014H9.4043C9.98828 3.39014 10.1914 3.52979 10.5151 3.88525L12.6416 6.25293C12.8892 6.53223 12.9463 6.71631 12.9463 7.17969V9.75684C12.9463 10.2266 12.8892 10.4043 12.6416 10.6899L10.5151 13.0513C10.1914 13.4067 9.98828 13.5464 9.4043 13.5464H6.05908ZM7.74121 9.4585C8.10938 9.4585 8.33154 9.25537 8.34424 8.85547L8.43945 5.97363C8.4585 5.57373 8.15381 5.28809 7.72852 5.28809C7.30322 5.28809 7.01123 5.56738 7.03027 5.96729L7.11914 8.86182C7.13184 9.24902 7.354 9.4585 7.74121 9.4585ZM7.74121 11.5913C8.17285 11.5913 8.52197 11.2993 8.52197 10.8677C8.52197 10.4487 8.1792 10.144 7.74121 10.144C7.29688 10.144 6.94775 10.4487 6.94775 10.8677C6.94775 11.293 7.30322 11.5913 7.74121 11.5913Z" fill="#383F47"/>
</svg>
