<svg width="32" height="32" viewBox="0 0 32 32" fill="none" xmlns="http://www.w3.org/2000/svg">
<path d="M8.31129 23.4089C8.74098 23.8289 9.4441 23.8289 9.85426 23.4187L15.8601 17.4129L21.866 23.4187C22.2859 23.8289 22.989 23.8386 23.4089 23.4089C23.8289 22.989 23.8289 22.2859 23.4187 21.8757L17.4129 15.8601L23.4187 9.85426C23.8289 9.4441 23.8386 8.73121 23.4089 8.32106C22.9793 7.90113 22.2859 7.90113 21.866 8.31129L15.8601 14.3171L9.85426 8.31129C9.4441 7.90113 8.73121 7.89137 8.31129 8.31129C7.89137 8.74098 7.90113 9.45387 8.31129 9.85426L14.3171 15.8601L8.31129 21.8757C7.90113 22.2761 7.89137 22.9988 8.31129 23.4089Z" fill="#383F47"/>
</svg>
