<svg width="24" height="24" viewBox="0 0 24 24" fill="none" xmlns="http://www.w3.org/2000/svg">
<circle cx="12" cy="12" r="12" fill="#383F47"/>
<path d="M16.7076 7.29243C16.5203 7.10519 16.2663 7 16.0014 7C15.7366 7 15.4826 7.10519 15.2953 7.29243L12.0062 10.5815L8.71721 7.29243C8.52884 7.11049 8.27654 7.00982 8.01466 7.0121C7.75278 7.01437 7.50227 7.11942 7.31709 7.3046C7.1319 7.48978 7.02686 7.74029 7.02458 8.00218C7.02231 8.26406 7.12298 8.51635 7.30492 8.70473L10.5939 11.9938L7.30492 15.2828C7.20952 15.3749 7.13343 15.4851 7.08109 15.607C7.02874 15.7288 7.00119 15.8599 7.00004 15.9925C6.99889 16.1251 7.02416 16.2567 7.07438 16.3794C7.1246 16.5022 7.19876 16.6137 7.29254 16.7075C7.38632 16.8012 7.49784 16.8754 7.62058 16.9256C7.74333 16.9758 7.87485 17.0011 8.00747 17C8.14009 16.9988 8.27115 16.9713 8.39301 16.9189C8.51487 16.8666 8.62508 16.7905 8.71721 16.6951L12.0062 13.4061L15.2953 16.6951C15.4836 16.877 15.7359 16.9777 15.9978 16.9754C16.2597 16.9731 16.5102 16.8681 16.6954 16.6829C16.8806 16.4977 16.9856 16.2472 16.9879 15.9853C16.9902 15.7235 16.8895 15.4712 16.7076 15.2828L13.4185 11.9938L16.7076 8.70473C16.8948 8.51743 17 8.26343 17 7.99858C17 7.73374 16.8948 7.47973 16.7076 7.29243Z" fill="white"/>
</svg>
