<svg width="12" height="12" viewBox="0 0 12 12" fill="none" xmlns="http://www.w3.org/2000/svg">
<path d="M5.9668 11.0674C8.75977 11.0674 11.0596 8.76758 11.0596 5.97461C11.0596 3.18652 8.75488 0.881836 5.96191 0.881836C3.17383 0.881836 0.874023 3.18652 0.874023 5.97461C0.874023 8.76758 3.17383 11.0674 5.9668 11.0674ZM4.50684 8.31348C4.22363 8.31348 4.01367 8.11816 4.01367 7.84961C4.01367 7.71289 4.05273 7.61523 4.15039 7.4834L5.29297 5.92578L4.2041 4.44629C4.0918 4.2998 4.05273 4.19727 4.05273 4.05566C4.05273 3.78223 4.27246 3.57715 4.56055 3.57715C4.78516 3.57715 4.91211 3.65527 5.06836 3.89941L5.98633 5.25195H6.02051L6.91406 3.89941C7.06055 3.66016 7.19238 3.57715 7.40723 3.57715C7.7002 3.57715 7.91016 3.77246 7.91016 4.0459C7.91016 4.16797 7.86621 4.28516 7.76367 4.41699L6.63086 5.94531L7.75879 7.46387C7.85645 7.5957 7.90039 7.70312 7.90039 7.83496C7.90039 8.11816 7.69043 8.31348 7.3877 8.31348C7.16797 8.31348 7.0459 8.23047 6.88477 7.98145L5.97168 6.63379H5.94238L5.00977 7.98145C4.84375 8.23535 4.72656 8.31348 4.50684 8.31348Z" fill="#383F47"/>
</svg>
