<svg width="16" height="16" viewBox="0 0 16 16" fill="none" xmlns="http://www.w3.org/2000/svg">
<path fill-rule="evenodd" clip-rule="evenodd" d="M8 16C12.4183 16 16 12.4183 16 8C16 3.58172 12.4183 0 8 0C3.58172 0 0 3.58172 0 8C0 12.4183 3.58172 16 8 16ZM10.6676 4.66666C10.8441 4.66666 11.0135 4.73678 11.1383 4.86161C11.2632 4.98648 11.3333 5.15581 11.3333 5.33238C11.3333 5.50894 11.2632 5.67827 11.1383 5.80314L8.94565 7.99583L11.1383 10.1885C11.2596 10.3141 11.3267 10.4823 11.3252 10.6569C11.3237 10.8315 11.2537 10.9985 11.1302 11.1219C11.0068 11.2454 10.8398 11.3154 10.6652 11.3169C10.4906 11.3184 10.3224 11.2513 10.1968 11.13L8.00412 8.93736L5.81144 11.13C5.75001 11.1936 5.67654 11.2444 5.5953 11.2793C5.51406 11.3142 5.42669 11.3325 5.33827 11.3333C5.24986 11.3341 5.16218 11.3172 5.08035 11.2837C4.99852 11.2503 4.92417 11.2008 4.86165 11.1383C4.79913 11.0758 4.74969 11.0014 4.71621 10.9196C4.68273 10.8378 4.66588 10.7501 4.66665 10.6617C4.66742 10.5733 4.68579 10.4859 4.72069 10.4046C4.75558 10.3234 4.80631 10.2499 4.86991 10.1885L7.06259 7.99583L4.86991 5.80314C4.74861 5.67756 4.6815 5.50936 4.68302 5.33477C4.68453 5.16019 4.75456 4.99318 4.87802 4.86972C5.00147 4.74627 5.16848 4.67624 5.34307 4.67472C5.51765 4.6732 5.68585 4.74032 5.81144 4.86161L8.00412 7.0543L10.1968 4.86161C10.3217 4.73678 10.491 4.66666 10.6676 4.66666Z" fill="#383F47"/>
</svg>
