<svg width="16" height="16" viewBox="0 0 16 16" fill="none" xmlns="http://www.w3.org/2000/svg">
<path fill-rule="evenodd" clip-rule="evenodd" d="M4.46446 3.05028C4.07394 2.65975 3.44077 2.65975 3.05025 3.05028C2.65972 3.4408 2.65972 4.07397 3.05025 4.46449L6.58575 8L3.05025 11.5355C2.65972 11.926 2.65972 12.5592 3.05025 12.9497C3.44077 13.3402 4.07394 13.3402 4.46446 12.9497L7.99997 9.41421L11.5355 12.9498C11.9261 13.3403 12.5592 13.3403 12.9497 12.9498C13.3403 12.5592 13.3403 11.9261 12.9497 11.5356L9.41418 8L12.9497 4.46444C13.3403 4.07392 13.3403 3.44075 12.9497 3.05023C12.5592 2.6597 11.9261 2.6597 11.5355 3.05023L7.99997 6.58579L4.46446 3.05028Z" fill="#383F47"/>
</svg>
