<?xml version="1.0"?>
<svg width="840" height="360" viewBox="0 0 840 360" role="img" font-family="Inter, system-ui, sans-serif" font-size="14" xmlns="http://www.w3.org/2000/svg"><title>Sponsor-proposed sponsored transaction</title><defs><marker id="sync" viewBox="0 0 10 10" refX="9" refY="5" markerWidth="8" markerHeight="8" orient="auto-start-reverse"><path d="M0 0 L10 5 L0 10 z" fill="#298DFF"></path></marker><marker id="async" viewBox="0 0 10 10" refX="9" refY="5" markerWidth="8" markerHeight="8" orient="auto-start-reverse"><path d="M0 0 L10 5 L0 10" fill="none" stroke="#298DFF" stroke-width="1.5"></path></marker></defs><rect x="0" y="0" width="840" height="360" fill="#FFFFFF"></rect><g><rect x="80" y="40" width="120" height="40" fill="#000000"></rect><text x="140" y="60" fill="#FFFFFF" text-anchor="middle" dominant-baseline="central" font-family="Inter, system-ui, sans-serif" font-size="14" font-weight="500" letter-spacing="0.5">USER</text></g><g><rect x="360" y="40" width="120" height="40" fill="#6C7584"></rect><text x="420" y="60" fill="#FFFFFF" text-anchor="middle" dominant-baseline="central" font-family="Inter, system-ui, sans-serif" font-size="14" font-weight="500" letter-spacing="0.5">SPONSOR</text></g><g><rect x="640" y="40" width="120" height="40" fill="#6C7584"></rect><text x="700" y="60" fill="#FFFFFF" text-anchor="middle" dominant-baseline="central" font-family="Inter, system-ui, sans-serif" font-size="14" font-weight="500" letter-spacing="0.5">SUI NETWORK</text></g><line x1="140" y1="80" x2="140" y2="320" stroke="#6C7584" stroke-width="1" stroke-dasharray="4 4"></line><line x1="420" y1="80" x2="420" y2="320" stroke="#6C7584" stroke-width="1" stroke-dasharray="4 4"></line><line x1="700" y1="80" x2="700" y2="320" stroke="#6C7584" stroke-width="1" stroke-dasharray="4 4"></line><text x="280" y="130" fill="#1759C4" text-anchor="middle" font-family="Inter, system-ui, sans-serif" font-size="12">1. Send signed TransactionData</text><g><line x1="415" y1="144" x2="144" y2="144" stroke="#298DFF" stroke-width="1.5" marker-end="url(#sync)"></line></g><g><rect x="76" y="184" width="128" height="28" fill="#000000"></rect><text x="140" y="198" fill="#FFFFFF" text-anchor="middle" dominant-baseline="central" font-family="Inter, system-ui, sans-serif" font-size="12" font-weight="500">2. Check + sign</text></g><text x="420" y="272" fill="#1759C4" text-anchor="middle" font-family="Inter, system-ui, sans-serif" font-size="12">3. Submit dual-signed transaction</text><g><line x1="145" y1="286" x2="696" y2="286" stroke="#298DFF" stroke-width="1.5" marker-end="url(#sync)"></line></g></svg>