<svg width="24" height="24" viewBox="0 0 24 24" fill="none" xmlns="http://www.w3.org/2000/svg">
<path d="M7.54752 21C16.6042 21 21.5578 14.0743 21.5578 8.0683C21.5578 7.87158 21.5578 7.67576 21.5434 7.48082C22.507 6.83743 23.3389 6.0408 24 5.12823C23.1014 5.49596 22.148 5.73701 21.1718 5.84331C22.1998 5.27537 22.9692 4.38197 23.3366 3.32945C22.3701 3.8589 21.3126 4.232 20.2099 4.43264C19.4675 3.70399 18.4856 3.2215 17.4162 3.05982C16.3468 2.89815 15.2494 3.06631 14.294 3.53829C13.3385 4.01026 12.5782 4.75974 12.1307 5.67073C11.6833 6.58173 11.5735 7.60345 11.8186 8.5778C9.8609 8.48716 7.94576 8.01756 6.19745 7.19948C4.44915 6.38141 2.90676 5.23314 1.6704 3.82921C1.04073 4.82976 0.847872 6.0142 1.1311 7.14139C1.41433 8.26857 2.15234 9.25374 3.19488 9.89632C2.41123 9.87512 1.64465 9.67999 0.96 9.32744V9.38504C0.960311 10.4344 1.35385 11.4513 2.07387 12.2633C2.79389 13.0754 3.79606 13.6326 4.9104 13.8403C4.18548 14.0228 3.42487 14.0495 2.68704 13.9183C3.00181 14.8213 3.61443 15.611 4.43924 16.1769C5.26405 16.7428 6.25983 17.0566 7.28736 17.0746C6.26644 17.8153 5.09731 18.3629 3.84687 18.6862C2.59643 19.0094 1.28921 19.1019 0 18.9584C2.25183 20.2922 4.87192 20.9997 7.54752 20.9965" fill="#383F47"/>
</svg>
