<svg width="70" height="36" viewBox="0 0 70 36" fill="none" xmlns="http://www.w3.org/2000/svg">
<path d="M45.6542 12.7247C45.527 11.6507 45.0112 10.817 44.1069 10.2235C43.2025 9.63001 42.0932 9.33326 40.779 9.33326C39.8181 9.33326 38.9773 9.4887 38.2566 9.79958C37.543 10.1105 36.9849 10.5379 36.5821 11.082C36.1865 11.626 35.9886 12.2442 35.9886 12.9366C35.9886 13.516 36.1264 14.0141 36.402 14.431C36.6846 14.8408 37.0449 15.1835 37.483 15.459C37.921 15.7275 38.3803 15.9501 38.8607 16.1267C39.3412 16.2963 39.7828 16.4341 40.1855 16.54L42.3899 17.1335C42.9552 17.2819 43.584 17.4868 44.2764 17.7482C44.9759 18.0097 45.6436 18.3665 46.2795 18.8187C46.9224 19.2638 47.4524 19.8361 47.8692 20.5356C48.2861 21.235 48.4945 22.0935 48.4945 23.1109C48.4945 24.2838 48.1872 25.3436 47.5725 26.2904C46.9648 27.2372 46.0746 27.9896 44.9017 28.5478C43.7359 29.106 42.3193 29.3851 40.6518 29.3851C39.0974 29.3851 37.7515 29.1342 36.6139 28.6326C35.4835 28.1309 34.5932 27.4315 33.9432 26.5342C33.3002 25.6368 32.9363 24.5947 32.8516 23.4077H35.5647C35.6354 24.2273 35.9109 24.9056 36.3914 25.4425C36.8789 25.9724 37.4936 26.3681 38.2355 26.6295C38.9844 26.8839 39.7899 27.0111 40.6518 27.0111C41.6551 27.0111 42.556 26.8486 43.3544 26.5236C44.1528 26.1915 44.7851 25.7322 45.2515 25.1458C45.7178 24.5523 45.9509 23.8599 45.9509 23.0685C45.9509 22.3479 45.7496 21.7614 45.3468 21.3092C44.9441 20.857 44.4142 20.4896 43.7571 20.207C43.1 19.9244 42.3899 19.6771 41.6269 19.4651L38.9561 18.7021C37.2604 18.2146 35.918 17.5186 34.9288 16.6142C33.9396 15.7098 33.4451 14.5264 33.4451 13.0638C33.4451 11.8486 33.7736 10.7887 34.4307 9.88437C35.0948 8.97292 35.9851 8.26637 37.1014 7.76472C38.2249 7.25601 39.479 7.00165 40.8638 7.00165C42.2628 7.00165 43.5063 7.25248 44.5944 7.75412C45.6825 8.24871 46.5444 8.92699 47.1803 9.78898C47.8233 10.651 48.1624 11.6295 48.1978 12.7247H45.6542Z" fill="#F7F7F8"/>
<path d="M60.9452 22.3479V12.7247H63.4464V29.0035H60.9452V26.248H60.7756C60.3941 27.0747 59.8006 27.7777 58.9951 28.357C58.1896 28.9293 57.1722 29.2155 55.9428 29.2155C54.9254 29.2155 54.021 28.9929 53.2297 28.5478C52.4384 28.0956 51.8166 27.4173 51.3644 26.513C50.9122 25.6015 50.6861 24.4534 50.6861 23.0685V12.7247H53.1873V22.899C53.1873 24.086 53.5194 25.0327 54.1835 25.7393C54.8547 26.4458 55.7097 26.7991 56.7483 26.7991C57.3701 26.7991 58.0024 26.6401 58.6454 26.3222C59.2954 26.0042 59.8394 25.5167 60.2775 24.8596C60.7226 24.2025 60.9452 23.3653 60.9452 22.3479Z" fill="#F7F7F8"/>
<path d="M66.2368 29.0035V12.7247H68.7379V29.0035H66.2368ZM67.5085 10.0115C67.021 10.0115 66.6006 9.84551 66.2474 9.51343C65.9012 9.18135 65.728 8.78215 65.728 8.31583C65.728 7.84951 65.9012 7.45031 66.2474 7.11823C66.6006 6.78616 67.021 6.62012 67.5085 6.62012C67.9961 6.62012 68.4129 6.78616 68.7591 7.11823C69.1124 7.45031 69.289 7.84951 69.289 8.31583C69.289 8.78215 69.1124 9.18135 68.7591 9.51343C68.4129 9.84551 67.9961 10.0115 67.5085 10.0115Z" fill="#F7F7F8"/>
<path fill-rule="evenodd" clip-rule="evenodd" d="M45.4886 12.9093L45.4691 12.7447C45.3484 11.7255 44.863 10.9408 44.0047 10.3775C43.1367 9.80789 42.0649 9.51784 40.7792 9.51784C39.8382 9.51784 39.0236 9.67003 38.331 9.96877C37.6432 10.2684 37.1131 10.6767 36.7327 11.1903C36.3612 11.7014 36.1753 12.2807 36.1753 12.9347C36.1753 13.4827 36.305 13.9432 36.5567 14.3247C36.824 14.7119 37.165 15.0364 37.5815 15.2986C38.0085 15.5602 38.456 15.7771 38.9241 15.9493C39.4003 16.1173 39.8366 16.2534 40.2331 16.3577L40.2341 16.358L42.4374 16.9512C42.4376 16.9512 42.4378 16.9513 42.4379 16.9513C43.0106 17.1017 43.6455 17.3087 44.3422 17.5717C45.057 17.8389 45.7386 18.2032 46.3867 18.664C47.0521 19.1249 47.5998 19.717 48.0296 20.4381C48.4675 21.1729 48.6812 22.0662 48.6812 23.109C48.6812 24.3162 48.3643 25.4114 47.7294 26.3895C47.1003 27.3696 46.1814 28.1434 44.9824 28.7141C43.7853 29.2873 42.3395 29.5697 40.652 29.5697C39.0779 29.5697 37.7052 29.3157 36.5388 28.8013L36.5384 28.8011C35.3814 28.2877 34.4638 27.5686 33.7923 26.6416L33.7917 26.6409C33.1271 25.7134 32.7527 24.6376 32.6656 23.419L32.6514 23.2192H35.736L35.7507 23.3897C35.8183 24.1745 36.0804 24.8127 36.5297 25.3153C36.9943 25.82 37.5817 26.1993 38.2966 26.4513C39.0243 26.6983 39.809 26.8226 40.652 26.8226C41.6347 26.8226 42.5108 26.6635 43.2833 26.3492C44.0568 26.0274 44.6617 25.5859 45.1054 25.028C45.5443 24.4692 45.7646 23.818 45.7646 23.0666C45.7646 22.3825 45.5744 21.8431 45.2077 21.4313C44.8261 21.0029 44.3201 20.6502 43.6835 20.3764C43.035 20.0975 42.3329 19.8529 41.5771 19.6429L41.5758 19.6426L38.905 18.8795L38.9047 18.8794C37.1898 18.3863 35.8191 17.6789 34.8031 16.7499C33.7715 15.8068 33.2587 14.5715 33.2587 13.0619C33.2587 11.8108 33.5976 10.7118 34.2799 9.77278L34.2801 9.77257C34.9649 8.83276 35.8817 8.10652 37.0249 7.59275C38.1752 7.07188 39.4559 6.81318 40.8639 6.81318C42.2852 6.81318 43.5559 7.06804 44.6721 7.58257C45.7854 8.08867 46.6735 8.7858 47.3303 9.67594C47.9963 10.569 48.3478 11.5844 48.3843 12.7167L48.3905 12.9093H45.4886ZM47.1805 9.78703C46.5446 8.92504 45.6826 8.24676 44.5945 7.75218C43.5064 7.25053 42.2629 6.9997 40.8639 6.9997C39.4791 6.9997 38.225 7.25406 37.1016 7.76278C35.9852 8.26442 35.095 8.97097 34.4308 9.88242C33.7737 10.7868 33.4452 11.8466 33.4452 13.0619C33.4452 14.5244 33.9398 15.7079 34.9289 16.6123C35.9181 17.5167 37.2605 18.2126 38.9563 18.7001L41.627 19.4632C42.3901 19.6752 43.1002 19.9225 43.7573 20.2051C44.4143 20.4877 44.9442 20.8551 45.347 21.3073C45.7497 21.7595 45.9511 22.3459 45.9511 23.0666C45.9511 23.8579 45.7179 24.5503 45.2516 25.1438C44.7853 25.7303 44.1529 26.1895 43.3545 26.5216C42.5561 26.8466 41.6553 27.0091 40.652 27.0091C39.79 27.0091 38.9845 26.8819 38.2356 26.6276C37.4937 26.3662 36.879 25.9705 36.3915 25.4406C35.911 24.9036 35.6355 24.2253 35.5648 23.4057H32.8517C32.8562 23.4683 32.8614 23.5305 32.8674 23.5923C32.9756 24.7022 33.3342 25.6822 33.9433 26.5322C34.5933 27.4295 35.4836 28.129 36.6141 28.6307C37.7516 29.1323 39.0976 29.3831 40.652 29.3831C42.3194 29.3831 43.7361 29.104 44.9019 28.5459C46.0747 27.9877 46.965 27.2352 47.5726 26.2884C48.1873 25.3417 48.4946 24.2819 48.4946 23.109C48.4946 22.0916 48.2862 21.2331 47.8694 20.5336C47.4525 19.8341 46.9226 19.2618 46.2796 18.8167C45.6437 18.3645 44.976 18.0077 44.2766 17.7463C43.5841 17.4849 42.9553 17.28 42.3901 17.1316L40.1857 16.5381C39.7829 16.4321 39.3413 16.2943 38.8609 16.1248C38.3804 15.9481 37.9212 15.7256 37.4831 15.4571C37.0451 15.1815 36.6847 14.8388 36.4021 14.4291C36.1265 14.0122 35.9888 13.5141 35.9888 12.9347C35.9888 12.2423 36.1866 11.6241 36.5823 11.08C36.985 10.536 37.5432 10.1085 38.2568 9.79763C38.9775 9.48675 39.8182 9.33131 40.7792 9.33131C42.0933 9.33131 43.2026 9.62806 44.107 10.2216C45.0114 10.8151 45.5272 11.6488 45.6543 12.7227H48.1979C48.1959 12.6602 48.1929 12.598 48.1889 12.5362C48.1228 11.5162 47.7867 10.5998 47.1805 9.78703ZM60.7588 12.5362H63.633V29.1881H60.7588V26.6897C60.3658 27.391 59.813 27.9966 59.1042 28.5065L59.1033 28.5072C58.2593 29.1068 57.2015 29.4001 55.943 29.4001C54.8974 29.4001 53.9609 29.1711 53.1384 28.7084L53.1373 28.7078C52.3105 28.2354 51.6645 27.528 51.1977 26.5944L51.1974 26.5939C50.7287 25.6491 50.4997 24.4703 50.4997 23.0666V12.5362H53.374V22.897C53.374 24.0475 53.6947 24.9447 54.3192 25.6092C54.9526 26.2758 55.7573 26.6106 56.7484 26.6106C57.3374 26.6106 57.9416 26.4602 58.5628 26.153L58.5635 26.1527C59.1812 25.8506 59.701 25.3864 60.1224 24.7542L60.1232 24.7531C60.5422 24.1345 60.7588 23.3365 60.7588 22.3459V12.5362ZM54.1837 25.7373C53.5195 25.0308 53.1874 24.084 53.1874 22.897V12.7227H50.6863V23.0666C50.6863 24.4514 50.9123 25.5996 51.3645 26.511C51.8167 27.4154 52.4385 28.0937 53.2298 28.5459C54.0212 28.991 54.9255 29.2136 55.943 29.2136C57.1724 29.2136 58.1898 28.9274 58.9952 28.3551C59.7889 27.7842 60.3767 27.0933 60.7588 26.2824C60.7645 26.2703 60.7701 26.2582 60.7757 26.2461H60.9453V29.0016H63.4465V12.7227H60.9453V22.3459C60.9453 23.3633 60.7228 24.2006 60.2776 24.8577C59.8396 25.5148 59.2955 26.0023 58.6455 26.3202C58.0025 26.6382 57.3702 26.7972 56.7484 26.7972C55.7098 26.7972 54.8549 26.4439 54.1837 25.7373ZM66.0504 29.1881V12.5362H68.9246V29.1881H66.0504ZM66.1197 9.64739L66.1184 9.6461C65.7367 9.27998 65.5417 8.83264 65.5417 8.31388C65.5417 7.79512 65.7367 7.34779 66.1184 6.98167L66.1197 6.98037C66.5078 6.61558 66.974 6.43164 67.5087 6.43164C68.0432 6.43164 68.5063 6.61549 68.8878 6.9811C69.2764 7.34672 69.4757 7.79417 69.4757 8.31388C69.4757 8.83361 69.2764 9.28108 68.8878 9.6467C68.5063 10.0123 68.0432 10.1961 67.5087 10.1961C66.974 10.1961 66.5078 10.0122 66.1197 9.64739ZM68.7593 9.51148C69.1125 9.1794 69.2892 8.7802 69.2892 8.31388C69.2892 7.84756 69.1125 7.44836 68.7593 7.11628C68.4131 6.78421 67.9962 6.61817 67.5087 6.61817C67.0212 6.61817 66.6008 6.78421 66.2475 7.11628C65.9013 7.44836 65.7282 7.84756 65.7282 8.31388C65.7282 8.7802 65.9013 9.1794 66.2475 9.51148C66.6008 9.84356 67.0212 10.0096 67.5087 10.0096C67.9962 10.0096 68.4131 9.84356 68.7593 9.51148ZM66.2369 29.0016H68.7381V12.7227H66.2369V29.0016Z" fill="#F7F7F8"/>
<path fill-rule="evenodd" clip-rule="evenodd" d="M22.5363 15.0142L22.5357 15.0158C24.0044 16.8574 24.8821 19.1898 24.8821 21.7268C24.8821 24.3014 23.9781 26.6655 22.4698 28.5196L22.3399 28.6792L22.3055 28.4763C22.2762 28.3038 22.2418 28.1296 22.2018 27.954C21.447 24.6374 18.9876 21.7934 14.9397 19.4907C12.2063 17.9399 10.6417 16.0727 10.2309 13.9511C9.96558 12.5792 10.1628 11.2012 10.544 10.0209C10.9251 8.84103 11.4919 7.85247 11.9735 7.2573L11.9738 7.25692L13.5484 5.3315C13.8246 4.99384 14.3413 4.99384 14.6175 5.3315L22.5363 15.0142ZM25.0269 13.0906L25.0272 13.0898L14.4731 0.184802C14.2715 -0.0616007 13.8943 -0.0616009 13.6928 0.184802L3.1385 13.09L3.13878 13.0907L3.10444 13.1333C1.16226 15.5434 0 18.6061 0 21.9402C0 29.7051 6.30498 36 14.0829 36C21.8608 36 28.1658 29.7051 28.1658 21.9402C28.1658 18.6062 27.0035 15.5434 25.0614 13.1333L25.0269 13.0906ZM5.66381 14.9727L5.66423 14.9721L6.60825 13.8178L6.63678 14.0309C6.65938 14.1997 6.68678 14.3694 6.71928 14.5398C7.33009 17.7446 9.51208 20.4169 13.1602 22.4865C16.3312 24.2912 18.1775 26.3666 18.7095 28.6427C18.9314 29.5926 18.971 30.5272 18.8749 31.3443L18.8689 31.3948L18.8232 31.4172C17.3919 32.1164 15.783 32.5088 14.0826 32.5088C8.11832 32.5088 3.28308 27.6817 3.28308 21.7268C3.28308 19.1701 4.17443 16.8208 5.66381 14.9727Z" fill="#F7F7F8"/>
</svg>
