<svg xmlns="http://www.w3.org/2000/svg" width="36" height="36" viewBox="0 0 36 36" fill="none">
  <g clip-path="url(#clip0_553_3863)">
    <rect x="0.432617" width="35.48" height="35.48" rx="17.74" fill="white"/>
    <circle cx="18.1726" cy="17.74" r="17.74" fill="#4CA2FF"/>
    <path fill-rule="evenodd" clip-rule="evenodd" d="M10.8637 25.0012H14.1604V14.3507H10.8637V25.0012ZM10.5469 10.9907C10.5469 12.0759 11.4197 12.9559 12.4963 12.9559C13.5729 12.9559 14.4458 12.076 14.4457 10.9907C14.4457 9.90527 13.5729 9.02539 12.4963 9.02539C11.4198 9.02539 10.5469 9.90527 10.5469 10.9907ZM23.234 25.0012H26.5146L26.5147 18.2574C26.5147 15.4048 24.898 14.0258 22.6396 14.0258C20.3812 14.0258 19.4301 15.7851 19.4301 15.7851V14.3507H16.2682V25.0012H19.4301V19.4106C19.4301 17.9127 20.1195 17.0213 21.439 17.0213C22.6515 17.0213 23.234 17.8772 23.234 19.4106V25.0012Z" fill="white"/>
  </g>
  <defs>
    <clipPath id="clip0_553_3863">
      <rect x="0.432617" width="35.48" height="35.48" rx="17.74" fill="white"/>
    </clipPath>
  </defs>
</svg>