<svg width="32" height="32" viewBox="0 0 32 32" fill="none" xmlns="http://www.w3.org/2000/svg">
<path d="M10.9837 32C11.4795 31.7815 11.8246 31.2767 11.8246 30.689V26.8349C11.8246 26.6955 11.8357 26.5486 11.854 26.3979C11.843 26.4017 11.8357 26.4055 11.8246 26.4055C11.8246 26.4055 9.73881 26.4055 9.32017 26.4055C8.27726 26.4055 7.37388 25.976 6.95524 25.1208C6.47051 24.194 6.26119 22.623 5.00895 21.7678C4.79963 21.6247 4.93918 21.4099 5.35781 21.4099C5.77278 21.4815 6.67983 22.0542 7.23434 22.8378C7.86229 23.6214 8.48657 24.2656 9.59927 24.2656C11.3289 24.2656 12.258 24.1752 12.8162 23.87C13.4661 22.8792 14.3658 22.1257 15.3059 22.1257V22.1069C11.3619 21.975 8.84278 20.6301 7.66766 18.5543C5.11912 18.5844 2.90108 18.8444 1.63415 19.0591C1.59376 18.8255 1.55703 18.5919 1.52766 18.3546C2.77989 18.1436 4.89878 17.895 7.33349 17.846C7.25637 17.6501 7.1866 17.4467 7.13151 17.2395C4.68947 17.1114 2.58159 17.2131 1.43585 17.311C1.42116 17.0737 1.4028 16.8364 1.39913 16.5952C2.54854 16.5011 4.59766 16.4031 6.97728 16.5161C6.92219 16.162 6.88914 15.7966 6.88914 15.4161C6.88914 14.203 7.30411 12.9183 8.07161 11.8484C7.72274 10.6353 7.23434 8.06593 8.20748 7.13539C10.0877 7.13539 11.4097 8.06593 12.034 8.6348C13.2164 8.13374 14.5384 7.85119 16 7.85119C17.4616 7.85119 18.7836 8.13374 19.8963 8.6348C20.5205 8.06593 21.8426 7.13539 23.7227 7.13539C24.7657 8.13374 24.2075 10.7031 23.8623 11.8484C24.6261 12.9183 25.0448 14.1314 24.975 15.4161C24.975 15.7589 24.9419 16.0942 24.8979 16.4219C27.3326 16.2976 29.4368 16.3956 30.6045 16.4935C30.6045 16.7346 30.5825 16.9682 30.5678 17.2056C29.4074 17.1076 27.2481 17.0059 24.7546 17.1415C24.6922 17.3826 24.6188 17.6162 24.527 17.8422C26.9947 17.8761 29.165 18.121 30.476 18.3358C30.4466 18.5693 30.4099 18.8067 30.3695 19.0403C29.0402 18.8218 26.7707 18.5656 24.1928 18.5505C23.036 20.6075 20.5609 21.9449 16.6941 22.1031V22.1257C18.5045 22.1257 20.1754 24.9061 20.1754 26.8349V30.689C20.1754 31.2767 20.5205 31.7815 21.0163 32C27.3877 29.8338 32 23.6666 32 16.4144C32 7.3652 24.8244 0 16 0C7.17558 0 0 7.3652 0 16.4144C0 23.6666 4.61235 29.8338 10.9837 32Z" fill="#F7F7F8"/>
</svg>
