<svg width="32" height="32" viewBox="0 0 32 32" fill="none" xmlns="http://www.w3.org/2000/svg">
<path fill-rule="evenodd" clip-rule="evenodd" d="M16 32C24.8366 32 32 24.8366 32 16C32 7.16344 24.8366 0 16 0C7.16344 0 0 7.16344 0 16C0 24.8366 7.16344 32 16 32ZM11.8413 23.7282L16.5038 23.8133C16.5112 23.8133 16.5261 23.8133 16.526 23.8248C19.1224 23.8732 21.6521 23.7211 24.2412 23.5322C26.3077 23.3877 26.7973 21.8912 27.0532 20.1067C27.3722 17.9513 27.4427 15.7701 27.2758 13.6C27.2678 13.4971 27.26 13.3933 27.2522 13.2888C27.0966 11.2124 26.9218 8.87886 24.4638 8.44868C23.9408 8.35604 23.4067 8.27466 22.8763 8.25977C17.854 8.09734 12.7871 8.05608 7.75367 8.40424C6.26261 8.50017 5.29844 9.38176 5.05344 10.8592C4.61945 13.4922 4.53042 16.1957 4.76039 18.8509C4.76326 18.8834 4.76613 18.9159 4.769 18.9486C4.93339 20.8164 5.12549 22.999 7.33824 23.4504C8.52952 23.6978 9.7424 23.7076 10.9575 23.7176C11.2521 23.72 11.5467 23.7224 11.8413 23.7282ZM16.1822 17.9074C15.3791 18.3682 14.5741 18.8302 13.7627 19.2953V12.6368C14.6575 13.1492 15.546 13.6593 16.4354 14.1699C17.4743 14.7663 18.5145 15.3635 19.5676 15.9661C18.4345 16.615 17.3102 17.2601 16.1822 17.9074Z" fill="#F7F7F8"/>
</svg>
