<svg width="61" height="61" viewBox="0 0 61 61" fill="none" xmlns="http://www.w3.org/2000/svg">
<rect width="61" height="61" rx="30.5" fill="#504CFF"/>
<path d="M61 30.5C61 47.3512 47.3512 61 30.5 61C13.6488 61 0 47.3512 0 30.5C0 13.6488 13.6488 0 30.5 0C47.3512 0 61 13.6488 61 30.5ZM24.9185 46.5888C38.4452 46.5888 45.8415 35.38 45.8415 25.6658C45.8415 25.3455 45.8415 25.0253 45.8263 24.7203C47.2598 23.6833 48.5103 22.387 49.5015 20.9078C48.19 21.4873 46.7718 21.8838 45.2772 22.0667C46.8022 21.1518 47.9613 19.7183 48.5103 17.995C47.092 18.8337 45.5213 19.4438 43.8438 19.7792C42.5018 18.3458 40.5955 17.4613 38.4757 17.4613C34.4193 17.4613 31.1253 20.7552 31.1253 24.8118C31.1253 25.3913 31.1863 25.9555 31.3235 26.4893C25.2083 26.1842 19.7945 23.2563 16.165 18.8033C15.5398 19.886 15.1737 21.1518 15.1737 22.4937C15.1737 25.0405 16.47 27.2975 18.4525 28.609C17.2478 28.5785 16.1192 28.243 15.128 27.694C15.128 27.7245 15.128 27.755 15.128 27.7855C15.128 31.354 17.6595 34.3125 21.0297 34.9988C20.4198 35.1665 19.764 35.258 19.093 35.258C18.6203 35.258 18.1628 35.2122 17.7052 35.1208C18.6355 38.0488 21.35 40.1685 24.5678 40.2295C22.0515 42.1968 18.8795 43.371 15.433 43.371C14.8383 43.371 14.2587 43.3405 13.6792 43.2643C16.897 45.3688 20.7705 46.5888 24.9185 46.5888Z" fill="#504CFF"/>
<path d="M42.1123 18.9314C39.9735 17.9376 37.681 17.2032 35.2836 16.7855C35.2623 16.7813 35.2402 16.784 35.2204 16.7933C35.2006 16.8026 35.1841 16.818 35.1732 16.8373C34.8797 17.3688 34.5525 18.0615 34.3233 18.6088C31.7807 18.2174 29.1958 18.2174 26.6531 18.6088C26.3978 18.0023 26.1099 17.4109 25.7907 16.8373C25.7798 16.8177 25.7635 16.802 25.7437 16.7922C25.724 16.7824 25.7019 16.7791 25.6802 16.7826C23.2843 17.2003 20.9917 17.9348 18.8516 18.9299C18.8332 18.9379 18.8176 18.9515 18.8069 18.9688C14.4567 25.5577 13.2643 31.9838 13.85 38.3292C13.8516 38.3447 13.8563 38.3598 13.8638 38.3734C13.8712 38.387 13.8813 38.3989 13.8933 38.4084C16.4324 40.3129 19.2644 41.7638 22.2708 42.7002C22.2918 42.7068 22.3142 42.7068 22.3351 42.7001C22.3561 42.6934 22.3746 42.6804 22.3882 42.6627C23.0352 41.7713 23.6084 40.8257 24.102 39.8356C24.1089 39.8221 24.1128 39.8072 24.1136 39.792C24.1144 39.7767 24.112 39.7615 24.1065 39.7473C24.1011 39.7331 24.0928 39.7202 24.0821 39.7096C24.0714 39.699 24.0587 39.6909 24.0447 39.6859C23.1417 39.3355 22.2667 38.9127 21.4279 38.4214C21.4128 38.4125 21.4001 38.3999 21.3909 38.3848C21.3817 38.3696 21.3763 38.3523 21.3752 38.3345C21.3741 38.3166 21.3773 38.2988 21.3846 38.2825C21.3918 38.2663 21.4029 38.2521 21.4167 38.2413C21.5928 38.1074 21.769 37.9677 21.9367 37.828C21.9518 37.8155 21.97 37.8075 21.9893 37.8049C22.0085 37.8024 22.0281 37.8054 22.0457 37.8136C27.5352 40.3541 33.4804 40.3541 38.9055 37.8136C38.9233 37.8049 38.943 37.8015 38.9626 37.8038C38.9821 37.8061 39.0006 37.814 39.016 37.8266C39.1837 37.9677 39.3584 38.1074 39.536 38.2413C39.55 38.2519 39.5612 38.2659 39.5687 38.282C39.5761 38.2981 39.5796 38.3158 39.5788 38.3337C39.5779 38.3515 39.5728 38.3689 39.5639 38.3842C39.555 38.3995 39.5425 38.4123 39.5276 38.4214C38.6917 38.9168 37.8222 39.3359 36.9094 39.6844C36.8953 39.6897 36.8826 39.6979 36.8719 39.7087C36.8612 39.7194 36.8529 39.7323 36.8475 39.7467C36.8421 39.761 36.8397 39.7763 36.8405 39.7917C36.8412 39.807 36.8452 39.822 36.8521 39.8356C37.3553 40.825 37.9312 41.7669 38.5645 42.6613C38.5776 42.6796 38.596 42.6933 38.617 42.7006C38.638 42.7078 38.6607 42.7081 38.6819 42.7016C41.6934 41.7678 44.53 40.3163 47.0719 38.4084C47.0843 38.3995 47.0947 38.3879 47.1025 38.3745C47.1102 38.3611 47.115 38.3461 47.1167 38.3306C47.8156 30.9943 45.9452 24.6201 42.1556 18.9717C42.1463 18.9533 42.1309 18.939 42.1123 18.9314ZM24.9226 34.4652C23.2703 34.4652 21.9074 32.9256 21.9074 31.0376C21.9074 29.148 23.2437 27.6099 24.9226 27.6099C26.614 27.6099 27.9644 29.161 27.9378 31.0376C27.9378 32.9271 26.6014 34.4652 24.9226 34.4652ZM36.0706 34.4652C34.417 34.4652 33.0554 32.9256 33.0554 31.0376C33.0554 29.148 34.3904 27.6099 36.0706 27.6099C37.7621 27.6099 39.1124 29.161 39.0859 31.0376C39.0859 32.9271 37.7635 34.4652 36.0706 34.4652Z" fill="white"/>
</svg>
