<svg width="32" height="32" viewBox="0 0 32 32" fill="none" xmlns="http://www.w3.org/2000/svg">
<path fill-rule="evenodd" clip-rule="evenodd" d="M16 32C24.8366 32 32 24.8366 32 16C32 7.16344 24.8366 0 16 0C7.16344 0 0 7.16344 0 16C0 24.8366 7.16344 32 16 32ZM11.9424 21.3333C15.2654 21.3333 17.9592 18.6801 17.9592 15.4073C17.9592 12.1345 15.2652 9.48148 11.9424 9.48148C8.61966 9.48148 5.92593 12.1337 5.92593 15.4073C5.92593 18.6809 8.61946 21.3333 11.9424 21.3333ZM21.5512 20.9856C23.2126 20.9856 24.5596 18.4882 24.5596 15.4073C24.5596 12.3272 23.2126 9.82903 21.5512 9.82903C19.8898 9.82903 18.5429 12.3272 18.5429 15.4073C18.5429 18.4874 19.8898 20.9856 21.5512 20.9856ZM26.2012 20.4052C26.7855 20.4052 27.2593 18.1677 27.2593 15.4073C27.2593 12.6471 26.7859 10.4094 26.2014 10.4094C25.6169 10.4094 25.1431 12.6477 25.1431 15.4073C25.1431 18.1669 25.6169 20.4052 26.2012 20.4052Z" fill="#F7F7F8"/>
</svg>
