<svg width="32" height="32" viewBox="0 0 32 32" fill="none" xmlns="http://www.w3.org/2000/svg">
<path fill-rule="evenodd" clip-rule="evenodd" d="M32 16C32 24.8366 24.8366 32 16 32C7.16344 32 0 24.8366 0 16C0 7.16344 7.16344 0 16 0C24.8366 0 32 7.16344 32 16ZM20.7875 12.3002C21.1812 12.3002 21.5649 12.3305 21.9384 12.3809C21.2519 9.38259 18.1021 7.11111 14.3163 7.11111C10.0258 7.11111 6.54282 10.0186 6.54282 13.6025C6.54282 15.6721 7.7038 17.4993 9.51089 18.6906L8.49125 20.74L11.2776 19.5386C11.8732 19.7506 12.4991 19.9222 13.1654 20.0131C13.0746 19.6194 13.0241 19.2156 13.0241 18.7915C13.014 15.2178 16.4969 12.3002 20.7875 12.3002ZM16.9008 10.0287C17.028 10.0287 17.1541 10.0538 17.2716 10.1025C17.3892 10.1512 17.4961 10.2226 17.5861 10.3126C17.6761 10.4026 17.7474 10.5094 17.7961 10.627C17.8449 10.7446 17.8699 10.8706 17.8699 10.9979C17.8699 11.1251 17.8449 11.2512 17.7961 11.3687C17.7474 11.4863 17.6761 11.5932 17.5861 11.6832C17.4961 11.7732 17.3892 11.8445 17.2716 11.8933C17.1541 11.942 17.028 11.967 16.9008 11.967C16.6437 11.967 16.3972 11.8649 16.2155 11.6832C16.0337 11.5014 15.9316 11.2549 15.9316 10.9979C15.9316 10.7408 16.0337 10.4943 16.2155 10.3126C16.3972 10.1308 16.6437 10.0287 16.9008 10.0287ZM11.7218 11.9771C11.4648 11.9771 11.2182 11.875 11.0365 11.6933C10.8547 11.5115 10.7526 11.265 10.7526 11.008C10.7526 10.7509 10.8547 10.5044 11.0365 10.3227C11.2182 10.1409 11.4648 10.0388 11.7218 10.0388C11.9788 10.0388 12.2253 10.1409 12.4071 10.3227C12.5888 10.5044 12.691 10.7509 12.691 11.008C12.691 11.265 12.5888 11.5115 12.4071 11.6933C12.2253 11.875 11.9788 11.9771 11.7218 11.9771ZM20.787 13.6038C24.3608 13.6038 27.2582 15.9257 27.2582 18.7928C27.2582 20.4586 26.2688 21.9123 24.7545 22.8613L25.966 25.2842L22.473 23.78C21.9379 23.9011 21.3725 23.9819 20.787 23.9819C17.2132 23.9819 14.3158 21.6599 14.3158 18.7928C14.3158 15.9257 17.2132 13.6038 20.787 13.6038ZM18.3002 18.3064C18.4595 18.4129 18.6469 18.4698 18.8386 18.4698C19.3736 18.4698 19.8179 18.0357 19.8078 17.5006C19.8078 17.3089 19.7509 17.1215 19.6444 16.9622C19.5379 16.8028 19.3866 16.6786 19.2095 16.6052C19.0324 16.5319 18.8375 16.5127 18.6495 16.5501C18.4615 16.5875 18.2888 16.6798 18.1533 16.8153C18.0177 16.9508 17.9254 17.1235 17.8881 17.3115C17.8507 17.4995 17.8698 17.6944 17.9432 17.8715C18.0166 18.0486 18.1408 18.1999 18.3002 18.3064ZM22.04 18.1859C22.2218 18.3677 22.4683 18.4698 22.7253 18.4698C22.9824 18.4698 23.2289 18.3677 23.4106 18.1859C23.5924 18.0042 23.6945 17.7576 23.6945 17.5006C23.6945 17.2436 23.5924 16.9971 23.4106 16.8153C23.2289 16.6335 22.9824 16.5314 22.7253 16.5314C22.4683 16.5314 22.2218 16.6335 22.04 16.8153C21.8583 16.9971 21.7562 17.2436 21.7562 17.5006C21.7562 17.7576 21.8583 18.0042 22.04 18.1859Z" fill="#F7F7F8"/>
</svg>
