<svg width="32" height="32" viewBox="0 0 32 32" fill="none" xmlns="http://www.w3.org/2000/svg">
<g clip-path="url(#clip0_1957_7828)">
<path fill-rule="evenodd" clip-rule="evenodd" d="M16 32C24.8366 32 32 24.8366 32 16C32 7.16344 24.8366 0 16 0C7.16344 0 0 7.16344 0 16C0 24.8366 7.16344 32 16 32ZM9.40772 22.5573H12.381V12.9514H9.40772V22.5573ZM9.12195 9.92095C9.12195 10.8998 9.90916 11.6934 10.8802 11.6934C11.8512 11.6934 12.6384 10.8998 12.6384 9.92095C12.6384 8.94201 11.8512 8.14844 10.8802 8.14844C9.90927 8.14844 9.12195 8.94201 9.12195 9.92095ZM20.5646 22.5573H23.5235L23.5236 16.475C23.5236 13.9021 22.0655 12.6584 20.0285 12.6584C17.9917 12.6584 17.1339 14.2451 17.1339 14.2451V12.9514H14.2821V22.5573H17.1339V17.515C17.1339 16.1641 17.7556 15.3601 18.9458 15.3601C20.0393 15.3601 20.5646 16.132 20.5646 17.515V22.5573Z" fill="#F7F7F8"/>
</g>
<defs>
<clipPath id="clip0_1957_7828">
<rect width="32" height="32" fill="white"/>
</clipPath>
</defs>
</svg>
