<svg width="32" height="32" viewBox="0 0 32 32" fill="none" xmlns="http://www.w3.org/2000/svg">
<path fill-rule="evenodd" clip-rule="evenodd" d="M16 32C24.8366 32 32 24.8366 32 16C32 7.16344 24.8366 0 16 0C7.16344 0 0 7.16344 0 16C0 24.8366 7.16344 32 16 32ZM26.0739 16.0003C26.0739 10.4344 21.5658 5.92623 15.9999 5.92623C10.4339 5.92623 5.92578 10.4344 5.92578 16.0003C5.92467 18.115 6.58947 20.1763 7.82587 21.8919C9.06226 23.6075 10.8075 24.8902 12.8139 25.5581C13.3176 25.6462 13.5065 25.344 13.5065 25.0796C13.5065 24.9964 13.505 24.8464 13.503 24.6506C13.4993 24.2829 13.4939 23.7538 13.4939 23.2033C10.9628 23.6692 10.308 22.5862 10.1065 22.0196C9.99319 21.7299 9.50208 20.8359 9.07393 20.5966C8.72134 20.4077 8.21764 19.9418 9.06134 19.9292C9.85467 19.9166 10.4213 20.6596 10.6102 20.9618C11.5169 22.4855 12.965 22.0573 13.5443 21.7929C13.6325 21.1381 13.8969 20.6973 14.1865 20.4455C11.945 20.1936 9.60282 19.3247 9.60282 15.4714C9.60282 14.3759 9.99319 13.4692 10.6354 12.764C10.5347 12.5122 10.1821 11.4796 10.7362 10.0944C10.7362 10.0944 11.5799 9.82993 13.5065 11.127C14.3125 10.9003 15.1687 10.787 16.025 10.787C16.8813 10.787 17.7376 10.9003 18.5436 11.127C20.4702 9.81734 21.3139 10.0944 21.3139 10.0944C21.868 11.4796 21.5154 12.5122 21.4147 12.764C22.0569 13.4692 22.4473 14.3633 22.4473 15.4714C22.4473 19.3373 20.0925 20.1936 17.851 20.4455C18.2162 20.7603 18.531 21.3647 18.531 22.3092C18.531 23.2061 18.5254 23.9858 18.5217 24.5072C18.5198 24.7691 18.5184 24.9659 18.5184 25.0796C18.5184 25.344 18.7073 25.6588 19.211 25.5581C21.2109 24.8829 22.9487 23.5976 24.1798 21.8831C25.4109 20.1685 26.0734 18.1111 26.0739 16.0003Z" fill="#F7F7F8"/>
</svg>
