<svg width="32" height="32" viewBox="0 0 32 32" fill="none" xmlns="http://www.w3.org/2000/svg">
<path fill-rule="evenodd" clip-rule="evenodd" d="M16 32C24.8366 32 32 24.8366 32 16C32 7.16344 24.8366 0 16 0C7.16344 0 0 7.16344 0 16C0 24.8366 7.16344 32 16 32ZM23.6182 7.86719L17.7595 14.7496H17.7592L24.1311 24.1211H19.4449L15.154 17.8104L9.78184 24.1211H8.39343L14.5376 16.9038L8.39343 7.86719H13.0797L17.1428 13.8431L22.2299 7.86719H23.6182ZM15.2354 16.0836L15.8579 16.9835V16.9838L20.098 23.1129H22.2305L17.0345 15.6018L16.412 14.7019L12.4146 8.92343H10.2821L15.2354 16.0836Z" fill="#F7F7F8"/>
</svg>
