<svg width="32" height="32" viewBox="0 0 32 32" fill="none" xmlns="http://www.w3.org/2000/svg">
<path fill-rule="evenodd" clip-rule="evenodd" d="M16 32C24.8366 32 32 24.8366 32 16C32 7.16344 24.8366 0 16 0C7.16344 0 0 7.16344 0 16C0 24.8366 7.16344 32 16 32ZM18.5091 8.80692C19.7667 9.02601 20.9693 9.41132 22.0913 9.93262C22.1011 9.93664 22.1092 9.94415 22.114 9.95377C24.1021 12.9169 25.0832 16.2607 24.7166 20.1093C24.7157 20.1174 24.7132 20.1253 24.7091 20.1323C24.7051 20.1393 24.6996 20.1454 24.6931 20.1501C23.3597 21.151 21.8716 21.9124 20.2918 22.4022C20.2806 22.4057 20.2687 22.4055 20.2577 22.4017C20.2467 22.3979 20.2371 22.3907 20.2302 22.3811C19.898 21.9119 19.5959 21.4178 19.3319 20.8988C19.3283 20.8916 19.3262 20.8838 19.3258 20.8757C19.3254 20.8677 19.3266 20.8596 19.3295 20.8521C19.3323 20.8446 19.3367 20.8378 19.3423 20.8322C19.3479 20.8265 19.3546 20.8222 19.3619 20.8195C19.8408 20.6366 20.2969 20.4168 20.7354 20.1569C20.7432 20.1521 20.7498 20.1454 20.7545 20.1374C20.7592 20.1293 20.7618 20.1202 20.7623 20.1109C20.7627 20.1015 20.7609 20.0922 20.757 20.0837C20.753 20.0753 20.7472 20.068 20.7398 20.0624C20.6467 19.9922 20.555 19.9189 20.467 19.8449C20.459 19.8382 20.4493 19.8341 20.439 19.8329C20.4288 19.8317 20.4184 19.8335 20.4091 19.8381C17.5631 21.1708 14.4443 21.1708 11.5646 19.8381C11.5553 19.8337 11.5451 19.8322 11.535 19.8335C11.5249 19.8348 11.5153 19.839 11.5074 19.8456C11.4194 19.9189 11.327 19.9922 11.2346 20.0624C11.2274 20.0681 11.2216 20.0755 11.2178 20.084C11.214 20.0926 11.2123 20.1019 11.2129 20.1113C11.2135 20.1207 11.2163 20.1297 11.2211 20.1377C11.2259 20.1456 11.2326 20.1522 11.2405 20.1569C11.6805 20.4146 12.1395 20.6364 12.6133 20.8202C12.6206 20.8229 12.6273 20.8271 12.6329 20.8327C12.6385 20.8383 12.6428 20.845 12.6457 20.8524C12.6485 20.8599 12.6498 20.8679 12.6494 20.8759C12.649 20.8839 12.6469 20.8917 12.6433 20.8988C12.3844 21.4182 12.0837 21.9142 11.7443 22.3818C11.7371 22.3911 11.7274 22.398 11.7164 22.4015C11.7054 22.405 11.6937 22.405 11.6827 22.4015C10.1056 21.9103 8.61993 21.1492 7.28794 20.1501C7.28162 20.1451 7.27634 20.1389 7.27243 20.1317C7.26852 20.1246 7.26607 20.1167 7.26521 20.1085C6.95795 16.7798 7.58347 13.4087 9.86554 9.95226C9.87115 9.94316 9.87934 9.93604 9.889 9.93186C11.0117 9.40981 12.2143 9.0245 13.4712 8.80541C13.4826 8.80355 13.4942 8.80531 13.5045 8.81044C13.5149 8.81557 13.5235 8.82383 13.5292 8.83412C13.6966 9.13498 13.8477 9.44521 13.9816 9.76339C15.3154 9.55807 16.6715 9.55807 18.0053 9.76339C18.1256 9.47629 18.2972 9.1129 18.4512 8.83412C18.4569 8.82395 18.4655 8.81587 18.4759 8.811C18.4863 8.80613 18.4979 8.8047 18.5091 8.80692ZM11.492 16.2834C11.492 17.2739 12.207 18.0815 13.0738 18.0815C13.9545 18.0815 14.6555 17.2746 14.6555 16.2834C14.6695 15.299 13.9611 14.4853 13.0738 14.4853C12.1931 14.4853 11.492 15.2922 11.492 16.2834ZM17.3402 16.2834C17.3402 17.2739 18.0544 18.0815 18.9219 18.0815C19.81 18.0815 20.5037 17.2746 20.5037 16.2834C20.5176 15.299 19.8092 14.4853 18.9219 14.4853C18.0405 14.4853 17.3402 15.2922 17.3402 16.2834Z" fill="#F7F7F8"/>
</svg>
