<svg width="24" height="24" viewBox="0 0 24 24" fill="none" xmlns="http://www.w3.org/2000/svg">
<path d="M16.0234 10.375C16.0703 7.39844 13.6562 5.17188 9.91406 5.14062L8.82812 5.13281C7.80469 5.125 7.02344 5.20312 6.57031 5.32031C5.89844 5.48438 5.29688 5.90625 5.29688 6.67969C5.29688 6.97656 5.375 7.20312 5.46875 7.375C5.52344 7.46094 5.50781 7.53906 5.42969 7.57031C4.91406 7.80469 4.52344 8.28125 4.52344 8.90625C4.52344 9.26562 4.625 9.58594 4.79688 9.8125C4.875 9.92188 4.85938 10.0156 4.73438 10.0859C4.375 10.3125 4.125 10.7734 4.125 11.2969C4.125 11.6797 4.24219 12.0781 4.44531 12.2812C4.55469 12.3828 4.53906 12.4531 4.42969 12.5547C4.17188 12.7734 4.01562 13.1484 4.01562 13.6016C4.01562 14.4062 4.64844 15.0625 5.47656 15.0625H8.29688C8.97656 15.0625 9.42188 15.4062 9.42188 15.9609C9.42188 17.0156 8.08594 18.9844 8.08594 20.4141C8.08594 21.1875 8.58594 21.6562 9.25 21.6562C9.83594 21.6562 10.1406 21.2734 10.4688 20.625C11.6641 18.3203 13.2422 16.4453 14.4531 14.8359C15.5078 13.4453 15.9922 12.25 16.0234 10.375ZM19.9688 10.3125C19.9688 7.89062 18.4688 5.89062 16.4531 5.89062H15.1016C16.5078 6.96875 17.1719 8.57031 17.1484 10.3906C17.1172 12.3594 16.4141 13.7891 15.6719 14.7656H16.75C18.5703 14.7656 19.9688 12.8125 19.9688 10.3125Z" fill="#383F47"/>
</svg>
