<svg id="uuid-76bf6d78-f1db-4a65-bad1-12683ae7e9c4" data-name="Layer 2" xmlns="http://www.w3.org/2000/svg" viewBox="0 0 20.8334 20.8334">
  <g id="uuid-e80968d7-e95c-443e-882a-ab46d55fce17" data-name="Layer 1">
    <path d="M.75,10.8334H5.4167c.3352,0,.629-.2216,.7211-.544l1.8845-6.5958,3.9986,16.5657c.0802,.3325,.3782,.5699,.7202,.574,.342,.0041,.6455-.2262,.7336-.5567l2.5182-9.4432h4.0905c.4142,0,.75-.3358,.75-.75s-.3358-.75-.75-.75h-4.6667c-.3397,0-.6371,.2285-.7247,.5568l-1.9058,7.1468L8.8124,.574C8.7327,.2438,8.4386,.0072,8.0989,.0002c-.3397-.007-.6434,.2171-.7367,.5438l-2.5113,8.7894H.75c-.4142,0-.75,.3358-.75,.75s.3358,.75,.75,.75Z" style="fill: #758f9e;"/>
  </g>
</svg>