<svg   xmlns:svg="http://www.w3.org/2000/svg"   xmlns="http://www.w3.org/2000/svg"   version="1.1"   width="1024"   height="1024"   viewBox="0 0 1024 1024">  <path     d="M149.375 448C114.029 448 85.375 476.654 85.375 512V512C85.375 547.346 114.029 576 149.375 576V576H874.5C909.846 576 938.5 547.346 938.5 512V512C938.5 476.654 909.846 448 874.5 448V448zM448 149.375C430.328 149.37800000000004 414.33 156.543 402.75 168.125L104.125 466.75C92.548 478.332 85.387 494.3299999999999 85.387 512S92.547 545.668 104.125 557.25L402.75 855.875C414.331 867.454 430.329 874.615 448 874.615S481.669 867.453 493.25 855.875V855.875C504.829 844.294 511.99 828.296 511.99 810.625S504.82800000000003 776.956 493.25 765.375L239.875 512L493.25 258.625C504.829 247.04399999999998 511.99 231.04600000000005 511.99 213.375S504.82800000000003 179.70600000000002 493.25 168.125V168.125C481.67 156.543 465.672 149.37800000000004 448 149.375V149.375z"     id="arrow-left" /></svg>