<!-- Generated by IcoMoon.io -->
<svg version="1.1" xmlns="http://www.w3.org/2000/svg" width="1024" height="1024" viewBox="0 0 1024 1024">

<path fill="none" stroke-linejoin="round" stroke-linecap="round" stroke-miterlimit="4" stroke-width="96" stroke="#000" d="M682.662 768l128 128M810.662 896l128-128M810.662 896v-256M938.662 426.667h-853.334M938.662 512v-162.133c0-47.791 0-71.686-9.299-89.94-8.186-16.056-21.235-29.111-37.293-37.292-18.253-9.3-42.15-9.3-89.939-9.3h-580.269c-47.791 0-71.687 0-89.941 9.3-16.056 8.181-29.11 21.236-37.292 37.292-9.301 18.253-9.301 42.149-9.301 89.94v324.264c0 47.795 0 71.686 9.301 89.946 8.181 16.051 21.235 29.107 37.292 37.286 18.254 9.306 42.15 9.306 89.941 9.306h290.133"></path>
</svg>
