<svg   xmlns:svg="http://www.w3.org/2000/svg"   xmlns="http://www.w3.org/2000/svg"   version="1.1"   width="1152"   height="1024"   viewBox="0 0 1152 1024">  <path     d="M345.625 32C264.806 32 191.657 43.278999999999996 135.875 63C107.98400000000001 72.86099999999999 84.27600000000001 84.65999999999997 65.625 100.25C54.05 109.92499999999995 50.787 125.54499999999996 44.75 139.5C37.363 145.087 32.504 153.67899999999997 32.003 163.423L32 163.5V760.875C32 786.85 46.974000000000004 808.6610000000001 65.625 824.25S107.98400000000001 851.64 135.875 861.5C191.65699999999998 881.22 264.807 892.5 345.625 892.5C363.298 892.5 377.625 878.173 377.625 860.5V860.5C377.625 842.827 363.298 828.5 345.625 828.5V828.5C270.92 828.5 203.262 817.435 157.125 801.125C134.056 792.97 116.473 783.356 106.625 775.125S96 762.391 96 760.875V641.25C108.962 648.437 120.047 656.779 135.875 662.375C191.65699999999998 682.095 264.807 693.375 345.625 693.375C363.298 693.375 377.625 679.048 377.625 661.375V661.375C377.625 643.702 363.298 629.375 345.625 629.375V629.375C270.92 629.375 203.262 618.3109999999999 157.125 602C134.057 593.845 116.473 584.231 106.625 576S96 563.2660000000001 96 561.75V442.5C106.322 448.179 114.483 455.203 126.625 459.875C177.513 479.457 244.338 491.371 319 493.75C327.773 494.03 336.657 494.25 345.625 494.25C363.298 494.25 377.625 479.923 377.625 462.25V462.25C377.625 444.577 363.298 430.25 345.625 430.25V430.25C337.334 430.25 329.09 430.13300000000004 321 429.875C252.135 427.68100000000004 190.856 415.991 149.625 400.125C129.01 392.192 113.631 383.06500000000005 105.125 375.5S96 364.057 96 362.625V243C108.962 250.187 120.047 258.529 135.875 264.125C191.65699999999998 283.846 264.80600000000004 295.125 345.625 295.125S499.59299999999996 283.846 555.375 264.125C571.851 258.29999999999995 583.512 249.688 596.875 242.125C598.801 257.592 611.527 269.544 627.181 270.24800000000005L627.25 270.25C644.923 270.25 659.25 255.923 659.25 238.25V238.25V163.5C659.229 159.07299999999998 658.311 154.865 656.671 151.04200000000003L656.75 151.25C654.263 145.86300000000006 650.509 141.42700000000002 645.855 138.19399999999996L645.75 138.125C639.649 124.79200000000003 636.792 109.58399999999995 625.625 100.25C606.974 84.65999999999997 583.266 72.86099999999999 555.375 63C499.593 43.278999999999996 426.44399999999996 32 345.625 32zM345.625 96C420.329 96 487.863 107.06399999999996 534 123.375C557.068 131.53099999999995 574.652 141.14300000000003 584.5 149.375S595.25 161.98400000000004 595.25 163.5C595.25 165.01599999999996 594.348 169.51800000000003 584.5 177.75S557.068 195.59500000000003 534 203.75C487.863 220.06100000000004 420.33 231.125 345.625 231.125S203.262 220.06100000000004 157.125 203.75C134.057 195.59500000000003 116.473 185.98199999999997 106.625 177.75S96 165.01599999999996 96 163.5C96 161.98400000000004 96.777 157.60699999999997 106.625 149.375S134.057 131.53099999999995 157.125 123.375C203.262 107.06399999999996 270.921 96 345.625 96zM806.375 355.5C725.5550000000001 355.5 652.407 366.779 596.625 386.5C568.734 396.36 545.026 408.15999999999997 526.375 423.75C514.789 433.43399999999997 511.535 449.153 505.5 463.125C498.113 468.712 493.254 477.304 492.753 487.048L492.75 487.125V860.5C492.75 886.475 507.724 908.159 526.375 923.75S568.734 951.139 596.625 961C652.407 980.721 725.5550000000001 992 806.375 992S960.468 980.721 1016.25 961C1044.141 951.139 1067.724 939.341 1086.375 923.75S1120 886.475 1120 860.5V487.125C1120 487.0799999999999 1120 487.02700000000004 1120 486.97399999999993C1120 482.61199999999997 1119.127 478.453 1117.546 474.664L1117.624 474.876C1115.104 469.47799999999995 1111.307 465.039 1106.608 461.822L1106.499 461.751C1100.4 448.40099999999995 1097.553 433.095 1086.374 423.751C1067.723 408.16099999999994 1044.14 396.361 1016.249 386.501C960.467 366.78 887.194 355.501 806.374 355.501zM806.375 419.5C881.081 419.5 948.739 430.56399999999996 994.875 446.875C1017.943 455.03 1035.527 464.64300000000003 1045.375 472.875S1056 485.60799999999995 1056 487.125C1056 488.64200000000005 1055.223 493.01800000000003 1045.375 501.25S1017.943 519.219 994.875 527.375C948.738 543.6859999999999 881.081 554.625 806.375 554.625S664.136 543.6859999999999 618 527.375C594.932 519.219 577.348 509.48199999999997 567.5 501.25S556.75 488.64200000000005 556.75 487.125C556.75 485.60799999999995 557.652 481.10699999999997 567.5 472.875S594.932 455.03 618 446.875C664.137 430.56399999999996 731.669 419.5 806.375 419.5zM556.75 566.5C569.712 573.687 580.797 582.029 596.625 587.625C652.407 607.346 725.5550000000001 618.625 806.375 618.625S960.468 607.346 1016.25 587.625C1032.062 582.0350000000001 1043.049 573.677 1056 566.5V673.75C1056 675.2660000000001 1055.223 679.769 1045.375 688S1017.943 705.845 994.875 714C948.738 730.31 881.081 741.375 806.375 741.375S664.137 730.31 618 714C594.932 705.845 577.348 696.231 567.5 688S556.75 675.2660000000001 556.75 673.75zM556.75 753.25C569.712 760.436 580.797 768.779 596.625 774.375C652.407 794.095 725.5550000000001 805.375 806.375 805.375S960.468 794.095 1016.25 774.375C1032.061 768.785 1043.049 760.427 1056 753.25V860.5C1056 862.019 1055.223 866.393 1045.375 874.625S1017.943 892.47 994.875 900.625C948.739 916.936 881.081 928 806.375 928S664.136 916.936 618 900.625C594.932 892.47 577.348 882.857 567.5 874.625S556.75 862.019 556.75 860.5z"     id="coins" /></svg>