<svg   xmlns:svg="http://www.w3.org/2000/svg"   xmlns="http://www.w3.org/2000/svg"   version="1.1"   width="1024"   height="1024"   viewBox="0 0 1024 1024">  <path     d="M512 46.89999999999998C308.644 46.89999999999998 140.211 180.16599999999994 77.19999999999999 362.4C72.21 368.24299999999994 68.92999999999999 375.6809999999999 68.21 383.8539999999999L68.19999999999999 383.9999999999999C69.05599999999998 386.8749999999999 70.10999999999999 389.3609999999999 71.39999999999999 391.69799999999987L71.3 391.4999999999999C60.458 430.8269999999999 46.9 469.2789999999999 46.9 511.9999999999999S60.458 593.1729999999999 71.3 632.4999999999999C70.11 634.6389999999999 69.056 637.1249999999999 68.27 639.7279999999998L68.2 639.9999999999999C68.93 648.319 72.211 655.7569999999998 77.244 661.6529999999999L77.2 661.5999999999999C139.90300000000002 842.9419999999999 307.133 975.2239999999999 509.2 976.5C509.445 976.5649999999998 509.952 976.6699999999998 510.46299999999997 976.7649999999999L510.7 976.8019999999999C511.163 976.8029999999999 511.537 977.1039999999998 512 977.1039999999998C715.212 977.1039999999998 883.477 844.0369999999999 946.6 662.0039999999999C951.7 656.0669999999998 955.028 648.4759999999999 955.691 640.1339999999998L955.7 639.9999999999998C955.5110000000001 635.8229999999999 954.683 631.8959999999998 953.3130000000001 628.2349999999999L953.4000000000001 628.4999999999998C963.5580000000001 590.3459999999998 977.0000000000001 553.3039999999999 977.0000000000001 511.9999999999998C977.0000000000001 469.2549999999999 963.4540000000001 430.74599999999987 952.6000000000001 391.39999999999986C953.7840000000001 389.28999999999985 954.8370000000001 386.83799999999985 955.6280000000002 384.2719999999998L955.7000000000002 383.9999999999998C955.5200000000002 374.4929999999998 951.9120000000001 365.86199999999974 946.0650000000002 359.25999999999976L946.1000000000001 359.2999999999997C882.4730000000002 179.18899999999974 715.2960000000002 47.96899999999971 513.9000000000001 47.09999999999968C513.8230000000001 47.09999999999968 513.777 46.99999999999966 513.7 46.99999999999966C513.6850000000001 46.99999999999966 513.667 46.99999999999966 513.649 46.99999999999966S513.613 46.99999999999966 513.595 46.99999999999966H513.5980000000001C513.388 46.99899999999968 513.2090000000001 46.899999999999636 512.998 46.899999999999636C512.634 46.89899999999966 512.359 46.899999999999636 511.99800000000005 46.899999999999636zM433.3 139.5C389.444 203.346 356.963 271.21799999999996 336.6 345.6H164.3C215.53500000000003 238.78600000000006 314.304 164.74599999999998 433.3 139.5zM590.5 139.5C709.548 164.71399999999994 808.341 238.75300000000004 859.6 345.6H687.3C666.9309999999999 271.201 634.371 203.35800000000006 590.5 139.5zM512 156.39999999999998C556.022 214.04099999999994 588.913 276.89300000000003 610.2 345.5999999999999H413.70000000000005C434.99100000000004 276.87599999999986 467.96100000000007 214.0519999999999 512 156.39999999999986zM141.7 422.4H321C316.355 452.4459999999999 303.539 480.5039999999999 302.9 511.20000000000005C302.895 511.438 302.892 511.71900000000005 302.892 512S302.895 512.562 302.901 512.842L302.90000000000003 512.8C303.53900000000004 543.4960000000001 316.355 571.5540000000001 321.00000000000006 601.6H141.70000000000005C134.52800000000005 572.033 123.70000000000005 543.8140000000001 123.70000000000005 512S134.52800000000005 451.966 141.70000000000005 422.4zM398.1 422.4H625.8C631.06 452.58400000000006 643.3119999999999 481.03499999999997 644 512C643.312 542.9649999999999 631.06 571.4159999999999 625.8 601.6H398.09999999999997C392.84099999999995 571.4159999999999 380.587 542.965 379.9 512C380.587 481.0350000000001 392.84099999999995 452.58400000000006 398.09999999999997 422.4zM702.9 422.4H882.2C889.373 451.9659999999999 900.2 480.1859999999999 900.2 512S889.373 572.034 882.2 601.6H702.9000000000001C707.5450000000001 571.5540000000001 720.3600000000001 543.4960000000001 721.0000000000001 512.8C721.0050000000001 512.562 721.0080000000002 512.281 721.0080000000002 512S721.0050000000001 511.438 720.9990000000001 511.158L721.0000000000001 511.20000000000005C720.3600000000001 480.5039999999999 707.5450000000001 452.4459999999999 702.9000000000001 422.4zM164.3 678.4H336.6C356.963 752.7819999999999 389.444 820.655 433.3 884.5C314.30400000000003 859.254 215.53500000000003 785.2139999999999 164.3 678.4zM413.7 678.4H610.2C588.913 747.107 556.022 809.96 512 867.5999999999999C467.961 809.9499999999999 434.991 747.124 413.7 678.4zM687.3 678.4H859.5999999999999C808.3569999999999 785.2239999999999 709.6139999999999 859.265 590.5999999999999 884.5C634.4549999999999 820.655 666.9359999999999 752.7819999999999 687.3 678.4z"     id="globe" /></svg>