<svg   xmlns:svg="http://www.w3.org/2000/svg"   xmlns="http://www.w3.org/2000/svg"   version="1.1"   width="1024"   height="1024"   viewBox="0 0 1024 1024">  <path     d="M226.668 512C226.668 354.413 354.416 226.66599999999994 512 226.66599999999994C669.587 226.66599999999994 797.3340000000001 354.4129999999999 797.3340000000001 512C797.3340000000001 669.584 669.5870000000001 797.3309999999999 512 797.3309999999999C354.416 797.3309999999999 226.668 669.584 226.668 512zM512 178.66600000000005C327.90700000000004 178.66600000000005 178.668 327.904 178.668 512C178.668 696.0930000000001 327.90700000000004 845.3310000000001 512 845.3310000000001C696.096 845.3310000000001 845.3340000000001 696.0930000000001 845.3340000000001 512C845.3340000000001 327.904 696.096 178.66600000000005 512 178.66600000000005zM536 341.331C536 328.077 525.258 317.33299999999997 512 317.33299999999997C498.746 317.33299999999997 488 328.077 488 341.331V521.9390000000001L580.365 614.3040000000001C589.738 623.677 604.931 623.677 614.304 614.3040000000001S623.677 589.734 614.304 580.3620000000001L536 502.058V341.332z"     id="history" /></svg>