<svg   xmlns:svg="http://www.w3.org/2000/svg"   xmlns="http://www.w3.org/2000/svg"   version="1.1"   width="1097"   height="1024"   viewBox="0 0 1097 1024">  <path     d="M343.714 18.285999999999945C261.787 18.285999999999945 213.261 15.405999999999949 164.714 40.142999999999915C126.87299999999999 59.423999999999864 95.995 90.29999999999995 76.714 128.14299999999992C51.977000000000004 176.68999999999994 54.857 225.21499999999992 54.857 307.1429999999999V716.857C54.857 798.7839999999999 51.976 847.309 76.714 895.857C95.994 933.6949999999999 126.86500000000001 964.577 164.714 983.857C213.262 1008.5949999999998 261.787 1005.7139999999999 343.714 1005.7139999999999H402.28499999999997C432.582 1005.7139999999999 457.14199999999994 981.154 457.14199999999994 950.857V950.857C457.14199999999994 920.56 432.58199999999994 895.9999999999999 402.28499999999997 895.9999999999999V895.9999999999999H343.71399999999994C261.7869999999999 895.9999999999999 228.46399999999994 893.1519999999999 214.42799999999994 885.9999999999999C197.22499999999994 877.2369999999999 183.33999999999995 863.3519999999999 174.57099999999994 846.1429999999999C167.42099999999994 832.1099999999999 164.57099999999994 798.7849999999999 164.57099999999994 716.857V307.1429999999999C164.57099999999994 225.21499999999992 167.41899999999995 191.8939999999999 174.57099999999994 177.85699999999997C183.33899999999994 160.64800000000002 197.21899999999994 146.76800000000003 214.42799999999994 138C228.46399999999994 130.84799999999996 261.78599999999994 128 343.71399999999994 128H402.28499999999997C432.582 128 457.14199999999994 103.44000000000005 457.14199999999994 73.14300000000003V73.14300000000003C457.14199999999994 42.846000000000004 432.58199999999994 18.286000000000058 402.28499999999997 18.286000000000058V18.286000000000058zM704.857 229.42899999999997C694.932 239.356 688.794 253.06799999999998 688.794 268.2149999999999S694.932 297.07399999999996 704.857 307.001L854.857 457.144H402.28599999999994C371.9889999999999 457.144 347.429 481.70399999999995 347.429 512.001V512.001C347.429 542.298 371.989 566.858 402.28599999999994 566.858V566.858H854.857L704.857 717.001C694.932 726.9279999999999 688.794 740.64 688.794 755.7869999999999S694.932 784.646 704.857 794.573V794.573C714.784 804.4979999999999 728.496 810.636 743.643 810.636S772.5020000000001 804.4979999999999 782.4290000000001 794.573L1026.286 550.8589999999999C1036.173 540.9389999999999 1042.286 527.251 1042.286 512.136C1042.286 512.0889999999999 1042.286 512.0409999999999 1042.286 511.9939999999999V512.001C1042.286 511.9609999999999 1042.286 511.914 1042.286 511.866C1042.286 496.751 1036.173 483.06399999999985 1026.284 473.14199999999994L782.4290000000001 229.42999999999995C772.5020000000001 219.505 758.7900000000001 213.36699999999996 743.643 213.36699999999996S714.784 219.505 704.857 229.42999999999995V229.42999999999995z"     id="logout" /></svg>