<svg   xmlns:svg="http://www.w3.org/2000/svg"   xmlns="http://www.w3.org/2000/svg"   version="1.1"   width="1024"   height="1024"   viewBox="0 0 1024 1024">  <path     d="M272 168C285.255 168 296 178.745 296 192V248H352C365.254 248 376 258.745 376 272S365.254 296 352 296H296V352C296 365.254 285.255 376 272 376S248 365.254 248 352V296H192C178.745 296 168 285.255 168 272S178.745 248 192 248H248V192C248 178.745 258.745 168 272 168zM544 200C553.93 200 562.835 206.11599999999999 566.4 215.385L621.894 359.668C631.36 384.279 634.752 392.615 639.606 399.44100000000003C644.272 405.99800000000005 650.003 411.72900000000004 656.56 416.395C663.386 421.249 671.722 424.64099999999996 696.333 434.10699999999997L840.615 489.601C849.885 493.16599999999994 856.001 502.071 856.001 512.001S849.886 530.836 840.615 534.401L696.333 589.895C671.722 599.361 663.386 602.7529999999999 656.56 607.607C650.0029999999999 612.2729999999999 644.2719999999999 618.0039999999999 639.606 624.5609999999999C634.752 631.387 631.36 639.723 621.894 664.3340000000001L566.4 808.616C562.8349999999999 817.886 553.93 824.002 544 824.002S525.165 817.887 521.6 808.616L466.106 664.3340000000001C456.64 639.723 453.248 631.387 448.394 624.5609999999999C443.728 618.0039999999999 437.997 612.2729999999999 431.44 607.607C424.614 602.7529999999999 416.278 599.361 391.667 589.895L247.384 534.401C238.11499999999998 530.836 231.999 521.9309999999999 231.999 512.001S238.115 493.16599999999994 247.384 489.601L391.667 434.10699999999997C416.27799999999996 424.64099999999996 424.614 421.249 431.44 416.395C437.997 411.7289999999999 443.728 405.99799999999993 448.394 399.44100000000003C453.248 392.615 456.64 384.279 466.106 359.668L521.6 215.385C525.1650000000001 206.11599999999999 534.07 200 544 200zM544 290.856L510.906 376.899C510.551 377.82399999999996 510.199 378.73900000000003 509.853 379.63800000000003C501.85 400.467 496.31100000000004 414.88 487.514 427.254C479.738 438.18500000000006 470.18600000000004 447.73699999999997 459.255 455.51300000000003C446.881 464.31000000000006 432.468 469.84900000000005 411.639 477.8520000000001C410.74 478.1980000000001 409.825 478.54999999999995 408.90000000000003 478.905L322.85800000000006 511.999L408.9000000000001 545.0930000000001C409.8250000000001 545.4480000000001 410.74000000000007 545.8 411.63900000000007 546.146C432.4680000000001 554.149 446.8810000000001 559.688 459.25500000000005 568.485C470.18600000000004 576.261 479.73800000000006 585.813 487.51400000000007 596.744C496.3110000000001 609.118 501.8500000000001 623.531 509.85300000000007 644.36C510.19900000000007 645.259 510.55100000000004 646.174 510.90600000000006 647.0989999999999L544.0000000000001 733.141L577.0940000000002 647.0989999999999C577.4490000000002 646.174 577.8010000000002 645.259 578.1470000000002 644.36C586.1500000000002 623.531 591.6890000000002 609.1179999999999 600.4860000000001 596.744C608.2620000000001 585.8130000000001 617.8140000000001 576.261 628.7450000000001 568.485C641.1190000000001 559.688 655.5320000000002 554.149 676.3610000000001 546.146C677.2600000000001 545.8 678.1750000000001 545.4480000000001 679.1000000000001 545.0930000000001L765.1420000000002 511.999L679.1000000000001 478.905C678.1750000000002 478.54999999999995 677.2600000000001 478.1980000000001 676.3580000000002 477.8520000000001C655.5320000000002 469.84900000000005 641.1200000000001 464.31000000000006 628.7450000000001 455.51300000000003C617.8140000000001 447.7370000000001 608.2620000000002 438.18500000000006 600.4860000000001 427.254C591.6890000000001 414.88 586.1500000000001 400.467 578.1470000000002 379.6410000000001C577.8010000000002 378.73900000000003 577.4490000000002 377.8230000000001 577.0940000000002 376.8990000000001L544.0000000000001 290.8560000000001zM198.461 678.461C207.834 669.088 223.03 669.088 232.40200000000002 678.461L272 718.061L311.598 678.461C320.97 669.088 336.166 669.088 345.539 678.461S354.912 703.031 345.539 712.403L305.941 752L345.539 791.597C354.912 800.97 354.912 816.167 345.539 825.539S320.969 834.912 311.59799999999996 825.539L271.99999999999994 785.942L232.40199999999993 825.539C223.02999999999992 834.912 207.83399999999992 834.912 198.46099999999993 825.539S189.08899999999994 800.969 198.46099999999993 791.597L238.0589999999999 752L198.4609999999999 712.403C189.08899999999988 703.03 189.08899999999988 687.8330000000001 198.4609999999999 678.461z"     id="nfts" /></svg>