<svg   xmlns:svg="http://www.w3.org/2000/svg"   xmlns="http://www.w3.org/2000/svg"   version="1.1"   width="683"   height="1024"   viewBox="0 0 683 1024">  <path     d="M113.778 0C82.361 0.0049999999999954525 53.92000000000001 12.743000000000052 33.334 33.33299999999997V33.33299999999997C12.749000000000002 53.922000000000025 0.018000000000000682 82.36299999999994 0.018000000000000682 113.77699999999993S12.75 173.63299999999992 33.334 194.22199999999998L351.112 512L33.334 829.778C12.749000000000002 850.367 0.018000000000000682 878.808 0.018000000000000682 910.222S12.75 970.078 33.334 990.6669999999999V990.6669999999999C53.923 1011.252 82.364 1023.983 113.778 1023.983S173.63400000000001 1011.251 194.223 990.6669999999999L592.4449999999999 592.445C613.0269999999999 571.855 625.756 543.414 625.756 512.001S613.026 452.14700000000005 592.444 431.55600000000004L194.22199999999998 33.33400000000006C173.635 12.743000000000052 145.194 0.0060000000000854925 113.77799999999998 0.00100000000009004H113.77699999999997z"     id="sui-chevron-right" /></svg>