<svg id="uuid-6fd10554-8e01-4512-be7e-d83e9e6bae02" data-name="Layer 2" xmlns="http://www.w3.org/2000/svg" viewBox="0 0 16.5 19.8342">
  <g id="uuid-024ae240-d90e-4e8d-a3a2-07301a3b2544" data-name="Layer 1">
    <g>
      <path d="M11.8848,1.2803l2.803,2.803-2.803,2.803c-.2929,.2929-.2929,.7678,0,1.0607s.7678,.2929,1.0607,0l3.3333-3.3333c.2929-.2929,.2929-.7678,0-1.0607L12.9454,.2197c-.2929-.2929-.7678-.2929-1.0607,0s-.2929,.7678,0,1.0607Z" style="fill: #0284ad;"/>
      <path d="M1.5,9.085v-1.6667c0-.6851,.2722-1.3422,.7566-1.8267,.4845-.4845,1.1416-.7566,1.8267-.7566H15.75c.4142,0,.75-.3358,.75-.75s-.3358-.75-.75-.75H4.0833c-1.083,0-2.1216,.4302-2.8874,1.196C.4302,5.2967,0,6.3353,0,7.4183v1.6667C0,9.4992,.3358,9.835,.75,9.835s.75-.3358,.75-.75Z" style="fill: #0284ad;"/>
      <path d="M4.6137,18.5539l-2.803-2.8031,2.803-2.803c.2929-.2929,.2929-.7678,0-1.0607s-.7678-.2929-1.0607,0L.2197,15.2204c-.2929,.2929-.2929,.7678,0,1.0607l3.3333,3.3334c.2929,.2929,.7678,.2929,1.0607,0,.2929-.2929,.2929-.7678,0-1.0607Z" style="fill: #0284ad;"/>
      <path d="M15,10.75v1.6667c0,.6851-.2722,1.3423-.7566,1.8267-.4844,.4844-1.1416,.7566-1.8267,.7566H.75C.3358,15,0,15.3358,0,15.75s.3358,.75,.75,.75H12.4167c1.0829,0,2.1215-.4302,2.8873-1.196,.7658-.7658,1.196-1.8044,1.196-2.8873v-1.6667c0-.4142-.3358-.75-.75-.75s-.75,.3358-.75,.75Z" style="fill: #0284ad;"/>
    </g>
  </g>
</svg>