<svg   xmlns:svg="http://www.w3.org/2000/svg"   xmlns="http://www.w3.org/2000/svg"   version="1.1"   width="1024"   height="1024"   viewBox="0 0 1024 1024">  <path     d="M565.334 210.668C501.61599999999993 210.668 442.93399999999997 219.24199999999996 399.35299999999995 233.769C377.6859999999999 240.99099999999999 358.42199999999997 250.11900000000003 344.07899999999995 261.42100000000005C330.01199999999994 272.5100000000001 317.33299999999997 288.5200000000001 317.33299999999997 309.33500000000004V426.6690000000001C317.33299999999997 439.9230000000001 328.07899999999995 450.6690000000001 341.33299999999997 450.6690000000001S365.33299999999997 439.9230000000001 365.33299999999997 426.6690000000001V370.7590000000001C375.599 376.1160000000001 387.09 380.8130000000001 399.352 384.9000000000001C442.933 399.4280000000001 501.614 408.0010000000001 565.333 408.0010000000001S687.733 399.4280000000001 731.314 384.9000000000001C736.952 383.02200000000005 742.4309999999999 381.01200000000006 747.701 378.86800000000005L712.6800000000001 522.686C710.562 531.3870000000001 713.464 540.5450000000001 720.206 546.436C726.952 552.33 736.414 553.9780000000001 744.753 550.711C762.8230000000001 543.633 779.003 534.89 791.0830000000001 524.154C803.1210000000001 513.453 813.3330000000001 498.615 813.3330000000001 480V309.33500000000004C813.3330000000001 288.52 800.6550000000001 272.51 786.5840000000001 261.42100000000005C772.245 250.11900000000003 752.9810000000001 240.9910000000001 731.3140000000001 233.769C687.7330000000001 219.24199999999996 629.0520000000001 210.668 565.3330000000001 210.668zM365.334 309.33500000000004V309.36400000000003C365.337 309.52600000000007 365.388 310.278 366.339 311.827C367.462 313.65999999999997 369.699 316.322 373.792 319.549C382.12199999999996 326.11299999999994 395.66099999999994 333.073 414.53099999999995 339.36400000000003C452.02199999999993 351.86 505.34099999999995 360.001 565.334 360.001S678.646 351.86 716.137 339.36400000000003C735.007 333.073 748.5469999999999 326.11300000000006 756.876 319.549C760.4499999999999 316.731 762.607 314.34399999999994 763.846 312.56399999999996L764.956 308.00699999999995C764.809 307.68399999999997 764.607 307.298 764.3290000000001 306.84299999999996C763.2030000000001 305.01 760.969 302.34799999999996 756.8760000000001 299.121C748.546 292.557 735.0070000000001 285.596 716.1370000000001 279.3059999999999C678.6460000000001 266.80899999999997 625.327 258.6679999999999 565.3340000000001 258.6679999999999S452.02200000000005 266.80899999999986 414.53100000000006 279.3059999999999C395.66100000000006 285.5959999999999 382.1210000000001 292.5569999999999 373.7920000000001 299.121C369.69900000000007 302.34799999999996 367.4620000000001 305.01 366.3390000000001 306.84299999999996C365.3280000000001 308.49 365.3340000000001 309.235 365.3340000000001 309.32899999999995V309.33399999999995zM426.666 477.33400000000006C362.948 477.33400000000006 304.267 485.9069999999999 260.685 500.43499999999995C239.019 507.6569999999999 219.755 516.787 205.414 528.086C191.344 539.177 178.666 555.187 178.666 576V746.669C178.666 767.482 191.343 783.495 205.414 794.5830000000001C219.755 805.885 239.01899999999998 815.0120000000001 260.685 822.234C304.267 836.7620000000001 362.947 845.335 426.666 845.335S549.066 836.7620000000001 592.6469999999999 822.234C614.314 815.0120000000001 633.578 805.885 647.9169999999999 794.5830000000001C661.987 783.492 674.6659999999999 767.482 674.6659999999999 746.6690000000001V576C674.6659999999999 555.187 661.9879999999999 539.178 647.9169999999999 528.086C633.5779999999999 516.787 614.314 507.65700000000004 592.6469999999999 500.43499999999995C549.0659999999999 485.9069999999999 490.38499999999993 477.33400000000006 426.66599999999994 477.33400000000006zM226.666 576V576.0319999999999C226.668 576.192 226.72 576.944 227.67 578.4929999999999C228.795 580.327 231.03 582.989 235.124 586.2149999999999C243.453 592.778 256.993 599.741 275.863 606.029C313.353 618.528 366.671 626.669 426.66499999999996 626.669S539.977 618.528 577.468 606.029C596.338 599.741 609.8779999999999 592.778 618.207 586.2149999999999C622.3 582.989 624.537 580.327 625.66 578.4929999999999C626.61 576.944 626.6619999999999 576.192 626.665 576.0319999999999V575.997C626.665 575.901 626.6709999999999 575.155 625.66 573.511C624.5369999999999 571.6769999999999 622.3 569.015 618.207 565.789C609.877 559.223 596.338 552.2629999999999 577.468 545.971C539.977 533.475 486.65799999999996 525.3340000000001 426.66499999999996 525.3340000000001S313.35299999999995 533.475 275.86299999999994 545.971C256.99299999999994 552.262 243.45299999999995 559.222 235.12399999999994 565.789C231.02999999999994 569.015 228.79499999999993 571.6769999999999 227.66999999999993 573.511C226.65899999999993 575.156 226.66499999999994 575.901 226.66599999999994 575.997V576zM226.666 746.669V637.427C236.932 642.7840000000001 248.424 647.481 260.685 651.568C304.267 666.096 362.947 674.6690000000001 426.666 674.6690000000001S549.066 666.096 592.6469999999999 651.568C604.9089999999999 647.482 616.401 642.7840000000001 626.6659999999999 637.427V746.672C626.6659999999999 746.768 626.6719999999999 747.514 625.661 749.158C624.5379999999999 750.992 622.3009999999999 753.654 618.208 756.883C609.8779999999999 763.446 596.3389999999999 770.406 577.4689999999999 776.697C539.978 789.193 486.65899999999993 797.3340000000001 426.66599999999994 797.3340000000001S313.3539999999999 789.193 275.8639999999999 776.697C256.9939999999999 770.406 243.45399999999992 763.446 235.12499999999991 756.883C231.03099999999992 753.654 228.7959999999999 750.992 227.6709999999999 749.158C226.6599999999999 747.513 226.6659999999999 746.768 226.66699999999992 746.672V746.6690000000001z"     id="tokens" /></svg>