<svg width="32" height="32" viewBox="0 0 32 32" fill="none" xmlns="http://www.w3.org/2000/svg">
<path fill-rule="evenodd" clip-rule="evenodd" d="M17.6667 6.58337C15.6755 6.58337 13.8417 6.8513 12.4798 7.30528C11.8027 7.53096 11.2007 7.81622 10.7525 8.16941C10.3129 8.51593 9.91669 9.01624 9.91669 9.66671V13.3334C9.91669 13.7476 10.2525 14.0834 10.6667 14.0834C11.0809 14.0834 11.4167 13.7476 11.4167 13.3334V11.5862C11.7375 11.7536 12.0966 11.9004 12.4798 12.0281C13.8417 12.4821 15.6755 12.75 17.6667 12.75C19.6579 12.75 21.4917 12.4821 22.8536 12.0281C23.0298 11.9694 23.201 11.9066 23.3657 11.8396L22.2713 16.3339C22.2051 16.6058 22.2958 16.892 22.5065 17.0761C22.7173 17.2603 23.013 17.3118 23.2736 17.2097C23.8383 16.9885 24.3439 16.7153 24.7214 16.3798C25.0976 16.0454 25.4167 15.5817 25.4167 15V9.66671C25.4167 9.01624 25.0205 8.51593 24.5808 8.16941C24.1327 7.81622 23.5307 7.53096 22.8536 7.30528C21.4917 6.8513 19.6579 6.58337 17.6667 6.58337ZM11.4167 9.66671V9.66762C11.4168 9.67269 11.4184 9.69618 11.4481 9.74458C11.4832 9.80186 11.5531 9.88506 11.681 9.98589C11.9413 10.191 12.3644 10.4085 12.9541 10.6051C14.1257 10.9956 15.7919 11.25 17.6667 11.25C19.5415 11.25 21.2077 10.9956 22.3793 10.6051C22.969 10.4085 23.3921 10.191 23.6524 9.98589C23.7641 9.89784 23.8315 9.82324 23.8702 9.7676L23.9049 9.6252C23.9003 9.61512 23.894 9.60305 23.8853 9.58884C23.8501 9.53156 23.7803 9.44836 23.6524 9.34753C23.3921 9.1424 22.969 8.92487 22.3793 8.7283C21.2077 8.33778 19.5415 8.08337 17.6667 8.08337C15.7919 8.08337 14.1257 8.33778 12.9541 8.7283C12.3644 8.92487 11.9413 9.1424 11.681 9.34753C11.5531 9.44836 11.4832 9.53156 11.4481 9.58884C11.4165 9.6403 11.4167 9.66359 11.4167 9.66654L11.4167 9.66671ZM13.3333 14.9167C11.3421 14.9167 9.50834 15.1846 8.1464 15.6386C7.46935 15.8643 6.86733 16.1496 6.41918 16.5027C5.97948 16.8493 5.58331 17.3496 5.58331 18V23.3334C5.58331 23.9838 5.97948 24.4842 6.41918 24.8307C6.86733 25.1839 7.46935 25.4691 8.1464 25.6948C9.50834 26.1488 11.3421 26.4167 13.3333 26.4167C15.3245 26.4167 17.1583 26.1488 18.5202 25.6948C19.1973 25.4691 19.7993 25.1839 20.2474 24.8307C20.6871 24.4841 21.0833 23.9838 21.0833 23.3334V18C21.0833 17.3496 20.6871 16.8493 20.2474 16.5027C19.7993 16.1496 19.1973 15.8643 18.5202 15.6386C17.1583 15.1846 15.3245 14.9167 13.3333 14.9167ZM7.08331 18V18.001C7.08338 18.006 7.08499 18.0295 7.1147 18.0779C7.14986 18.1352 7.21969 18.2184 7.34764 18.3192C7.60792 18.5243 8.03104 18.7419 8.62074 18.9384C9.7923 19.329 11.4585 19.5834 13.3333 19.5834C15.2081 19.5834 16.8743 19.329 18.0459 18.9384C18.6356 18.7419 19.0587 18.5243 19.319 18.3192C19.4469 18.2184 19.5168 18.1352 19.5519 18.0779C19.5816 18.0295 19.5832 18.006 19.5833 18.001L19.5833 18.0002L19.5833 18L19.5833 17.9999C19.5833 17.9969 19.5835 17.9736 19.5519 17.9222C19.5168 17.8649 19.4469 17.7817 19.319 17.6809C19.0587 17.4757 18.6356 17.2582 18.0459 17.0616C16.8743 16.6711 15.2081 16.4167 13.3333 16.4167C11.4585 16.4167 9.7923 16.6711 8.62074 17.0616C8.03104 17.2582 7.60792 17.4757 7.34764 17.6809C7.21969 17.7817 7.14986 17.8649 7.1147 17.9222C7.08311 17.9736 7.08329 17.9969 7.08331 17.9999L7.08331 18ZM7.08331 23.3334V19.9196C7.40412 20.087 7.76324 20.2338 8.1464 20.3615C9.50834 20.8155 11.3421 21.0834 13.3333 21.0834C15.3245 21.0834 17.1583 20.8155 18.5202 20.3615C18.9034 20.2338 19.2625 20.087 19.5833 19.9196V23.3334L19.5833 23.3335C19.5833 23.3365 19.5835 23.3598 19.5519 23.4112C19.5168 23.4685 19.4469 23.5517 19.319 23.6526C19.0587 23.8577 18.6356 24.0752 18.0459 24.2718C16.8743 24.6623 15.2081 24.9167 13.3333 24.9167C11.4585 24.9167 9.7923 24.6623 8.62074 24.2718C8.03104 24.0752 7.60792 23.8577 7.34764 23.6526C7.21969 23.5517 7.14986 23.4685 7.1147 23.4112C7.08311 23.3598 7.08329 23.3365 7.08331 23.3335L7.08331 23.3334Z" fill="black"/>
</svg>
