<svg width="15" height="14" viewBox="0 0 15 14" fill="none" xmlns="http://www.w3.org/2000/svg">
<path fill-rule="evenodd" clip-rule="evenodd" d="M7.50429 4.25868C5.85992 4.2411 4.05622 4.07237 2.31444 3.33649C1.85236 3.12875 1.41032 2.85354 0.996941 2.51625C0.621815 2.21979 0.628188 1.96552 1.01333 1.6714C1.41475 1.36017 1.84047 1.1041 2.28348 0.907399C3.74028 0.281671 5.25535 0.0684068 6.78499 0.0168487C8.83817 -0.0534579 10.8768 0.0742663 12.8635 0.823031C13.2957 0.988845 13.7151 1.20577 14.1163 1.47102C14.2711 1.57144 14.3998 1.73846 14.5286 1.90555L14.5286 1.90556L14.5286 1.90558C14.5862 1.98025 14.6437 2.05494 14.7036 2.1237C14.6422 2.19358 14.5834 2.27177 14.5247 2.34994C14.3963 2.52082 14.268 2.6916 14.1118 2.77521C13.4763 3.1302 12.8218 3.42586 12.1533 3.6599C10.6865 4.1415 9.18416 4.25868 7.50429 4.25868ZM14.71 4.37589C14.71 4.60627 14.7126 4.83364 14.7151 5.05868V5.05871C14.7215 5.62917 14.7277 6.18462 14.6918 6.73585C14.6729 6.88192 14.6291 7.02076 14.5634 7.14235C14.4978 7.26394 14.4119 7.36524 14.3121 7.43892C14.2338 7.48565 14.1554 7.53295 14.0768 7.58036L14.0767 7.58041C13.4991 7.92883 12.9121 8.28288 12.299 8.45719C9.09497 9.38172 5.88272 9.39461 2.69233 8.33415C2.28175 8.19766 1.89118 7.95704 1.50165 7.71707C1.3461 7.62124 1.19072 7.52552 1.03431 7.43657C0.852207 7.33228 0.783007 7.12839 0.787559 6.85068C0.796688 6.28508 0.795077 5.71948 0.793428 5.14011C0.792774 4.91047 0.792113 4.67867 0.792113 4.44385C3.00099 5.68945 5.35008 5.98591 7.73104 5.97536C10.112 5.96482 12.4665 5.65313 14.71 4.37589ZM14.7117 9.3196C10.0882 11.3936 5.47745 11.3843 0.855745 9.44263C0.855745 9.63691 0.854704 9.83487 0.853648 10.0356C0.850754 10.5854 0.847753 11.1559 0.865762 11.7276C0.872956 11.8291 0.896705 11.9274 0.935458 12.0163C0.974212 12.1051 1.0271 12.1824 1.09066 12.2432C1.45986 12.5473 1.85108 12.8047 2.25883 13.0119C3.44976 13.5696 4.69533 13.7934 5.95455 13.9106C8.14248 14.1063 10.3158 14.0102 12.4537 13.3247C13.1493 13.1009 13.8368 12.8279 14.4195 12.2608C14.546 12.1365 14.6917 11.9198 14.6981 11.7393C14.7204 11.1254 14.7171 10.5102 14.7139 9.9207C14.7128 9.7169 14.7117 9.51616 14.7117 9.3196Z" fill="#0284AD"/>
</svg>
