<svg width="16" height="16" viewBox="0 0 16 16" fill="none" xmlns="http://www.w3.org/2000/svg">
<path d="M12 14C13.1046 14 14 13.1046 14 12C14 10.8954 13.1046 10 12 10C10.8954 10 10 10.8954 10 12C10 13.1046 10.8954 14 12 14Z" fill="currentColor" stroke="currentColor" stroke-width="2" stroke-linecap="round" stroke-linejoin="round"/>
<path d="M4 6C5.10457 6 6 5.10457 6 4C6 2.89543 5.10457 2 4 2C2.89543 2 2 2.89543 2 4C2 5.10457 2.89543 6 4 6Z" fill="currentColor" stroke="currentColor" stroke-width="2" stroke-linecap="round" stroke-linejoin="round"/>
<path fill-rule="evenodd" clip-rule="evenodd" d="M7.66699 3.5C7.66699 3.22386 7.89085 3 8.16699 3H10.667C11.2858 3 11.8793 3.24583 12.3169 3.68342C12.7545 4.121 13.0003 4.71449 13.0003 5.33333V10.5C13.0003 10.7761 12.7765 11 12.5003 11H11.5003C11.2242 11 11.0003 10.7761 11.0003 10.5V5.33333C11.0003 5.24493 10.9652 5.16014 10.9027 5.09763C10.8402 5.03512 10.7554 5 10.667 5H8.16699C7.89085 5 7.66699 4.77614 7.66699 4.5V3.5Z" fill="currentColor"/>
<path fill-rule="evenodd" clip-rule="evenodd" d="M4.5 5C4.77614 5 5 5.22386 5 5.5V14.5C5 14.7761 4.77614 15 4.5 15H3.5C3.22386 15 3 14.7761 3 14.5V5.5C3 5.22386 3.22386 5 3.5 5H4.5Z" fill="currentColor"/>
</svg>
