<svg width="16" height="16" viewBox="0 0 16 16" fill="none" xmlns="http://www.w3.org/2000/svg">
<path fill-rule="evenodd" clip-rule="evenodd" d="M10 0.25C8.55682 0.25 7.21785 0.457001 6.21298 0.814658C5.71384 0.992313 5.25673 1.2213 4.91003 1.51305C4.56701 1.8017 4.25 2.22646 4.25 2.77962V5.57616C4.25 5.99037 4.58579 6.32616 5 6.32616C5.41421 6.32616 5.75 5.99037 5.75 5.57616V4.55836C5.89856 4.62591 6.05363 4.68786 6.21298 4.74458C7.21785 5.10223 8.55682 5.30924 10 5.30924C11.1184 5.30924 12.1742 5.18492 13.0605 4.96251C13.0598 4.97498 13.0595 4.98748 13.0595 5V8C13.0595 8.25095 13.185 8.48527 13.3939 8.62432C13.6028 8.76338 13.8674 8.78875 14.0989 8.69191C14.518 8.51662 14.9052 8.2954 15.1995 8.01608C15.4951 7.73548 15.75 7.34146 15.75 6.84732V2.77962C15.75 2.22646 15.433 1.8017 15.09 1.51305C14.7433 1.2213 14.2862 0.992313 13.787 0.814658C12.7822 0.457001 11.4432 0.25 10 0.25ZM5.87582 2.66076C5.81064 2.71562 5.77746 2.75548 5.76113 2.77962C5.77746 2.80376 5.81064 2.84362 5.87582 2.89847C6.03514 3.03254 6.31027 3.18703 6.71595 3.33142C7.52072 3.61786 8.68175 3.80924 10 3.80924C11.3183 3.80924 12.4793 3.61786 13.284 3.33142C13.6377 3.20555 13.8921 3.07202 14.0571 2.95102L14.1837 2.71497C14.1676 2.69893 14.1481 2.68085 14.1242 2.66076C13.9649 2.5267 13.6897 2.37221 13.284 2.22782C12.4793 1.94138 11.3183 1.75 10 1.75C8.68175 1.75 7.52072 1.94138 6.71595 2.22782C6.31027 2.37221 6.03514 2.5267 5.87582 2.66076Z" fill="currentColor"/>
<path fill-rule="evenodd" clip-rule="evenodd" d="M6 7.25C4.56237 7.25 3.23011 7.43928 2.23158 7.76547C1.73641 7.92722 1.2814 8.13606 0.934489 8.40399C0.597808 8.66401 0.25 9.07291 0.25 9.63333V13.3667C0.25 13.9271 0.597808 14.336 0.934489 14.596C1.2814 14.8639 1.73641 15.0728 2.23158 15.2345C3.23011 15.5607 4.56237 15.75 6 15.75C7.43764 15.75 8.7699 15.5607 9.76842 15.2345C10.2636 15.0728 10.7186 14.8639 11.0655 14.596C11.4022 14.336 11.75 13.9271 11.75 13.3667V9.63333C11.75 9.07291 11.4022 8.66402 11.0655 8.40399C10.7186 8.13606 10.2636 7.92722 9.76842 7.76547C8.7699 7.43928 7.43764 7.25 6 7.25ZM1.85136 9.59114C1.8311 9.60679 1.81423 9.62087 1.80024 9.63333C1.81423 9.6458 1.8311 9.65987 1.85136 9.67552C2.01048 9.79841 2.2877 9.94153 2.69736 10.0753C3.50847 10.3403 4.67622 10.5167 6 10.5167C7.32379 10.5167 8.49153 10.3403 9.30265 10.0753C9.7123 9.94153 9.98952 9.79841 10.1486 9.67552C10.1689 9.65987 10.1858 9.6458 10.1998 9.63333C10.1858 9.62087 10.1689 9.60679 10.1486 9.59114C9.98952 9.46826 9.7123 9.32514 9.30265 9.19132C8.49153 8.92635 7.32379 8.75 6 8.75C4.67622 8.75 3.50847 8.92635 2.69736 9.19132C2.2877 9.32514 2.01048 9.46826 1.85136 9.59114ZM9.76842 11.5012C9.93431 11.447 10.0957 11.3875 10.25 11.3223V13.3157C10.2349 13.3341 10.2049 13.3654 10.1486 13.4089C9.98952 13.5317 9.7123 13.6749 9.30265 13.8087C8.49153 14.0736 7.32379 14.25 6 14.25C4.67622 14.25 3.50847 14.0736 2.69736 13.8087C2.2877 13.6749 2.01048 13.5317 1.85136 13.4089C1.79514 13.3654 1.76508 13.3341 1.75 13.3157V11.3223C1.90432 11.3875 2.06569 11.447 2.23158 11.5012C3.23011 11.8274 4.56237 12.0167 6 12.0167C7.43764 12.0167 8.7699 11.8274 9.76842 11.5012Z" fill="currentColor"/>
</svg>
