<svg width="16" height="16" viewBox="0 0 16 16" fill="none" xmlns="http://www.w3.org/2000/svg">
<g clip-path="url(#clip0_3639_6138)">
<path d="M7.99967 4L1.33301 7.33333L7.99967 10.6667L14.6663 7.33333L7.99967 4Z" fill="currentColor"/>
<path d="M7.99967 4L8.44689 3.10557C8.16536 2.96481 7.83399 2.96481 7.55246 3.10557L7.99967 4ZM1.33301 7.33333L0.885794 6.43891C0.54701 6.6083 0.333008 6.95456 0.333008 7.33333C0.333008 7.71211 0.54701 8.05837 0.885794 8.22776L1.33301 7.33333ZM7.99967 10.6667L7.55246 11.5611C7.83399 11.7019 8.16536 11.7019 8.44689 11.5611L7.99967 10.6667ZM14.6663 7.33333L15.1136 8.22776C15.4523 8.05837 15.6663 7.71211 15.6663 7.33333C15.6663 6.95456 15.4523 6.6083 15.1136 6.43891L14.6663 7.33333ZM7.55246 3.10557L0.885794 6.43891L1.78022 8.22776L8.44689 4.89443L7.55246 3.10557ZM0.885794 8.22776L7.55246 11.5611L8.44689 9.77224L1.78022 6.43891L0.885794 8.22776ZM8.44689 11.5611L15.1136 8.22776L14.2191 6.43891L7.55246 9.77224L8.44689 11.5611ZM15.1136 6.43891L8.44689 3.10557L7.55246 4.89443L14.2191 8.22776L15.1136 6.43891Z" fill="currentColor"/>
<mask id="path-3-outside-1_3639_6138" maskUnits="userSpaceOnUse" x="3.00024" y="-2" width="10" height="11" fill="black">
<rect fill="white" x="3.00024" y="-2" width="10" height="11"/>
<path d="M9.00025 6.49977L9.00025 3.99978H10.5002C10.5953 3.99974 10.6883 3.97264 10.7684 3.92164C10.8486 3.87064 10.9126 3.79786 10.9529 3.71182C10.9932 3.62578 11.0081 3.53004 10.996 3.43582C10.9838 3.34159 10.9451 3.25278 10.8842 3.17978L8.38425 0.179775C8.33732 0.123505 8.2786 0.0782346 8.21225 0.0471687C8.14589 0.0161027 8.07352 3.20269e-09 8.00025 0C7.92698 -3.20269e-09 7.85461 0.0161027 7.78825 0.0471686C7.72189 0.0782346 7.66317 0.123505 7.61625 0.179775L5.11625 3.17977C5.04089 3.26933 4.99979 3.38273 5.00025 3.49977C5.00042 3.57301 5.01645 3.64533 5.04725 3.71177C5.08756 3.79788 5.15159 3.87071 5.23182 3.92172C5.31206 3.97273 5.40517 3.99981 5.50025 3.99978H7.00025V6.49977C7.00025 6.63238 7.05293 6.75956 7.14669 6.85333C7.24046 6.9471 7.36764 6.99977 7.50025 6.99977H8.50025C8.63286 6.99977 8.76003 6.9471 8.8538 6.85333C8.94757 6.75956 9.00025 6.63238 9.00025 6.49977Z"/>
</mask>
<path d="M9.00025 6.49977L9.00025 3.99978H10.5002C10.5953 3.99974 10.6883 3.97264 10.7684 3.92164C10.8486 3.87064 10.9126 3.79786 10.9529 3.71182C10.9932 3.62578 11.0081 3.53004 10.996 3.43582C10.9838 3.34159 10.9451 3.25278 10.8842 3.17978L8.38425 0.179775C8.33732 0.123505 8.2786 0.0782346 8.21225 0.0471687C8.14589 0.0161027 8.07352 3.20269e-09 8.00025 0C7.92698 -3.20269e-09 7.85461 0.0161027 7.78825 0.0471686C7.72189 0.0782346 7.66317 0.123505 7.61625 0.179775L5.11625 3.17977C5.04089 3.26933 4.99979 3.38273 5.00025 3.49977C5.00042 3.57301 5.01645 3.64533 5.04725 3.71177C5.08756 3.79788 5.15159 3.87071 5.23182 3.92172C5.31206 3.97273 5.40517 3.99981 5.50025 3.99978H7.00025V6.49977C7.00025 6.63238 7.05293 6.75956 7.14669 6.85333C7.24046 6.9471 7.36764 6.99977 7.50025 6.99977H8.50025C8.63286 6.99977 8.76003 6.9471 8.8538 6.85333C8.94757 6.75956 9.00025 6.63238 9.00025 6.49977Z" fill="currentColor"/>
<path d="M9.00025 6.49977H7.80025H9.00025ZM9.00025 3.99978V2.79978H7.80025L7.80025 3.99977L9.00025 3.99978ZM10.5002 3.99978V5.19978H10.5007L10.5002 3.99978ZM10.8842 3.17978L11.8063 2.41178L11.8061 2.41155L10.8842 3.17978ZM8.38425 0.179775L9.30611 -0.588446L9.30585 -0.588765L8.38425 0.179775ZM8.00025 0V-1.2V0ZM7.61625 0.179775L6.69465 -0.588765L6.69438 -0.588446L7.61625 0.179775ZM5.11625 3.17977L6.03447 3.95237L6.03811 3.948L5.11625 3.17977ZM5.00025 3.49977L6.20025 3.49696L6.20024 3.49503L5.00025 3.49977ZM5.04725 3.71177L3.95849 4.21637L3.96045 4.22057L5.04725 3.71177ZM5.50025 3.99978V2.79978H5.49984L5.50025 3.99978ZM7.00025 3.99978H8.20025V2.79978H7.00025V3.99978ZM7.00025 6.49977H8.20025H7.00025ZM7.50025 6.99977V8.19977V6.99977ZM8.50025 6.99977V5.79978V6.99977ZM10.2002 6.49977L10.2002 3.99978L7.80025 3.99977L7.80025 6.49977H10.2002ZM9.00025 5.19978H10.5002V2.79978H9.00025V5.19978ZM10.5007 5.19978C10.8237 5.19965 11.14 5.10751 11.4126 4.93411L10.1243 2.90917C10.2365 2.83777 10.3668 2.79982 10.4998 2.79978L10.5007 5.19978ZM11.4126 4.93411C11.6851 4.76072 11.9026 4.51327 12.0396 4.22074L9.86613 3.20291C9.92254 3.08245 10.0121 2.98056 10.1243 2.90917L11.4126 4.93411ZM12.0396 4.22074C12.1766 3.9282 12.2274 3.60269 12.1861 3.28232L9.80581 3.58932C9.7888 3.4574 9.80972 3.32337 9.86613 3.20291L12.0396 4.22074ZM12.1861 3.28232C12.1448 2.96195 12.013 2.65998 11.8063 2.41178L9.9622 3.94778C9.87707 3.84557 9.82283 3.72123 9.80581 3.58932L12.1861 3.28232ZM11.8061 2.41155L9.30611 -0.588446L7.46238 0.947996L9.96238 3.948L11.8061 2.41155ZM9.30585 -0.588765C9.1463 -0.780085 8.94666 -0.934003 8.72105 -1.03963L7.70345 1.13396C7.61055 1.09047 7.52834 1.02709 7.46265 0.948315L9.30585 -0.588765ZM8.72105 -1.03963C8.49543 -1.14525 8.24936 -1.2 8.00025 -1.2V1.2C7.89767 1.2 7.79635 1.17746 7.70345 1.13396L8.72105 -1.03963ZM8.00025 -1.2C7.75113 -1.2 7.50506 -1.14525 7.27945 -1.03963L8.29705 1.13396C8.20415 1.17746 8.10282 1.2 8.00025 1.2V-1.2ZM7.27945 -1.03963C7.05384 -0.934003 6.85419 -0.780085 6.69465 -0.588765L8.53785 0.948315C8.47215 1.02709 8.38995 1.09047 8.29705 1.13396L7.27945 -1.03963ZM6.69438 -0.588446L4.19438 2.41155L6.03811 3.948L8.53811 0.947996L6.69438 -0.588446ZM4.19804 2.40719C3.93964 2.71429 3.79867 3.10316 3.80026 3.50452L6.20024 3.49503C6.2009 3.6623 6.14215 3.82437 6.03446 3.95236L4.19804 2.40719ZM3.80025 3.50259C3.80083 3.74915 3.85482 3.99266 3.95849 4.21637L6.136 3.20718C6.17809 3.298 6.20001 3.39686 6.20024 3.49696L3.80025 3.50259ZM3.96045 4.22057C4.09752 4.51334 4.31521 4.76096 4.58801 4.93439L5.87564 2.90905C5.98797 2.98047 6.07761 3.08243 6.13404 3.20297L3.96045 4.22057ZM4.58801 4.93439C4.8608 5.10782 5.17739 5.19988 5.50065 5.19978L5.49984 2.79978C5.63295 2.79973 5.76331 2.83764 5.87564 2.90905L4.58801 4.93439ZM5.50025 5.19978H7.00025V2.79978H5.50025V5.19978ZM5.80025 3.99978V6.49977H8.20025V3.99978H5.80025ZM5.80025 6.49977C5.80025 6.95064 5.97936 7.38305 6.29817 7.70186L7.99522 6.0048C8.1265 6.13608 8.20025 6.31412 8.20025 6.49977H5.80025ZM6.29817 7.70186C6.61698 8.02067 7.04938 8.19977 7.50025 8.19977V5.79978C7.6859 5.79978 7.86395 5.87353 7.99522 6.0048L6.29817 7.70186ZM7.50025 8.19977H8.50025V5.79978H7.50025V8.19977ZM8.50025 8.19977C8.95112 8.19977 9.38352 8.02067 9.70233 7.70186L8.00527 6.0048C8.13655 5.87353 8.3146 5.79977 8.50025 5.79978V8.19977ZM9.70233 7.70186C10.0211 7.38304 10.2002 6.95064 10.2002 6.49977H7.80025C7.80025 6.31412 7.874 6.13608 8.00527 6.0048L9.70233 7.70186Z" fill="white" mask="url(#path-3-outside-1_3639_6138)"/>
<path fill-rule="evenodd" clip-rule="evenodd" d="M0.438556 10.5528C0.685545 10.0588 1.28622 9.85859 1.7802 10.1056L7.99965 13.2153L14.2191 10.1056C14.7131 9.85859 15.3138 10.0588 15.5607 10.5528C15.8077 11.0468 15.6075 11.6474 15.1135 11.8944L8.44686 15.2278C8.16534 15.3685 7.83396 15.3685 7.55244 15.2278L0.885769 11.8944C0.391791 11.6474 0.191566 11.0468 0.438556 10.5528Z" fill="currentColor"/>
</g>
<defs>
<clipPath id="clip0_3639_6138">
<rect width="16" height="16" fill="white"/>
</clipPath>
</defs>
</svg>
