<svg width="16" height="16" viewBox="0 0 16 16" fill="none" xmlns="http://www.w3.org/2000/svg">
<g clip-path="url(#clip0_3514_3427)">
<path fill-rule="evenodd" clip-rule="evenodd" d="M6.50002 2H4.00002V0.499996C3.99998 0.404989 3.97288 0.311958 3.92188 0.231798C3.87089 0.151638 3.79811 0.0876664 3.71207 0.0473744C3.62603 0.00708241 3.53029 -0.00786206 3.43606 0.00429096C3.34183 0.016444 3.25302 0.0551914 3.18002 0.115996L0.180019 2.616C0.123749 2.66292 0.0784787 2.72164 0.0474128 2.788C0.0163468 2.85435 0.000244141 2.92673 0.000244141 3C0.000244141 3.07326 0.0163468 3.14564 0.0474128 3.212C0.0784787 3.27835 0.123749 3.33707 0.180019 3.384L3.18002 5.884C3.26958 5.95935 3.38298 6.00046 3.50002 6C3.57325 5.99982 3.64558 5.98379 3.71202 5.953C3.79813 5.91268 3.87096 5.84866 3.92197 5.76842C3.97298 5.68819 4.00005 5.59507 4.00002 5.5V4H6.50002C6.63263 4 6.7598 3.94732 6.85357 3.85355C6.94734 3.75978 7.00002 3.6326 7.00002 3.5V2.5C7.00002 2.36739 6.94734 2.24021 6.85357 2.14644C6.7598 2.05267 6.63263 2 6.50002 2ZM8 11C9.65685 11 11 9.65685 11 8C11 6.34315 9.65685 5 8 5C6.34315 5 5 6.34315 5 8C5 9.65685 6.34315 11 8 11ZM12.82 10.116L15.82 12.616C15.8763 12.6629 15.9215 12.7216 15.9526 12.788C15.9837 12.8544 15.9998 12.9267 15.9998 13C15.9998 13.0733 15.9837 13.1456 15.9526 13.212C15.9215 13.2784 15.8763 13.3371 15.82 13.384L12.82 15.884C12.7304 15.9593 12.617 16.0005 12.5 16C12.4268 15.9998 12.3544 15.9838 12.288 15.953C12.2019 15.9127 12.1291 15.8487 12.0781 15.7684C12.027 15.6882 12 15.5951 12 15.5V14H9.5C9.36739 14 9.24021 13.9473 9.14645 13.8535C9.05268 13.7598 9 13.6326 9 13.5V12.5C9 12.3674 9.05268 12.2402 9.14645 12.1464C9.24021 12.0527 9.36739 12 9.5 12H12V10.5C12 10.405 12.0271 10.312 12.0781 10.2318C12.1291 10.1516 12.2019 10.0877 12.288 10.0474C12.374 10.0071 12.4697 9.99214 12.564 10.0043C12.6582 10.0164 12.747 10.0552 12.82 10.116Z" fill="currentColor"/>
</g>
<defs>
<clipPath id="clip0_3514_3427">
<rect width="16" height="16" fill="white"/>
</clipPath>
</defs>
</svg>
