<svg width="16" height="16" viewBox="0 0 16 16" fill="none" xmlns="http://www.w3.org/2000/svg">
<g clip-path="url(#clip0_1315_1823)">
<path d="M7.99967 4L1.33301 7.33333L7.99967 10.6667L14.6663 7.33333L7.99967 4Z" fill="#A0B6C3"/>
<path d="M7.99967 4L8.44689 3.10557C8.16536 2.96481 7.83399 2.96481 7.55246 3.10557L7.99967 4ZM1.33301 7.33333L0.885794 6.43891C0.54701 6.6083 0.333008 6.95456 0.333008 7.33333C0.333008 7.71211 0.54701 8.05837 0.885794 8.22776L1.33301 7.33333ZM7.99967 10.6667L7.55246 11.5611C7.83399 11.7019 8.16536 11.7019 8.44689 11.5611L7.99967 10.6667ZM14.6663 7.33333L15.1136 8.22776C15.4523 8.05837 15.6663 7.71211 15.6663 7.33333C15.6663 6.95456 15.4523 6.6083 15.1136 6.43891L14.6663 7.33333ZM7.55246 3.10557L0.885794 6.43891L1.78022 8.22776L8.44689 4.89443L7.55246 3.10557ZM0.885794 8.22776L7.55246 11.5611L8.44689 9.77224L1.78022 6.43891L0.885794 8.22776ZM8.44689 11.5611L15.1136 8.22776L14.2191 6.43891L7.55246 9.77224L8.44689 11.5611ZM15.1136 6.43891L8.44689 3.10557L7.55246 4.89443L14.2191 8.22776L15.1136 6.43891Z" fill="#A0B6C3"/>
<mask id="path-3-outside-1_1315_1823" maskUnits="userSpaceOnUse" x="3" y="-2" width="10" height="11" fill="black">
<rect fill="white" x="3" y="-2" width="10" height="11"/>
<path d="M9 6.49977L9 3.99978H10.5C10.595 3.99974 10.688 3.97264 10.7682 3.92164C10.8484 3.87064 10.9123 3.79786 10.9526 3.71182C10.9929 3.62578 11.0079 3.53004 10.9957 3.43582C10.9836 3.34159 10.9448 3.25278 10.884 3.17978L8.384 0.179775C8.33708 0.123505 8.27836 0.0782346 8.212 0.0471687C8.14565 0.0161027 8.07327 3.20269e-09 8 0C7.92674 -3.20269e-09 7.85436 0.0161027 7.788 0.0471686C7.72165 0.0782346 7.66293 0.123505 7.616 0.179775L5.116 3.17977C5.04065 3.26933 4.99954 3.38273 5 3.49977C5.00018 3.57301 5.01621 3.64533 5.047 3.71177C5.08732 3.79788 5.15134 3.87071 5.23158 3.92172C5.31181 3.97273 5.40493 3.99981 5.5 3.99978H7V6.49977C7 6.63238 7.05268 6.75956 7.14645 6.85333C7.24022 6.9471 7.3674 6.99977 7.5 6.99977H8.5C8.63261 6.99977 8.75979 6.9471 8.85356 6.85333C8.94733 6.75956 9 6.63238 9 6.49977Z"/>
</mask>
<path d="M9 6.49977L9 3.99978H10.5C10.595 3.99974 10.688 3.97264 10.7682 3.92164C10.8484 3.87064 10.9123 3.79786 10.9526 3.71182C10.9929 3.62578 11.0079 3.53004 10.9957 3.43582C10.9836 3.34159 10.9448 3.25278 10.884 3.17978L8.384 0.179775C8.33708 0.123505 8.27836 0.0782346 8.212 0.0471687C8.14565 0.0161027 8.07327 3.20269e-09 8 0C7.92674 -3.20269e-09 7.85436 0.0161027 7.788 0.0471686C7.72165 0.0782346 7.66293 0.123505 7.616 0.179775L5.116 3.17977C5.04065 3.26933 4.99954 3.38273 5 3.49977C5.00018 3.57301 5.01621 3.64533 5.047 3.71177C5.08732 3.79788 5.15134 3.87071 5.23158 3.92172C5.31181 3.97273 5.40493 3.99981 5.5 3.99978H7V6.49977C7 6.63238 7.05268 6.75956 7.14645 6.85333C7.24022 6.9471 7.3674 6.99977 7.5 6.99977H8.5C8.63261 6.99977 8.75979 6.9471 8.85356 6.85333C8.94733 6.75956 9 6.63238 9 6.49977Z" fill="#A0B6C3"/>
<path d="M9 6.49977H7.8H9ZM9 3.99978V2.79978H7.8L7.8 3.99977L9 3.99978ZM10.5 3.99978V5.19978H10.5005L10.5 3.99978ZM10.884 3.17978L11.8061 2.41178L11.8059 2.41155L10.884 3.17978ZM8.384 0.179775L9.30587 -0.588446L9.3056 -0.588765L8.384 0.179775ZM8 0V-1.2V0ZM7.616 0.179775L6.6944 -0.588765L6.69414 -0.588446L7.616 0.179775ZM5.116 3.17977L6.03422 3.95237L6.03787 3.948L5.116 3.17977ZM5 3.49977L6.2 3.49696L6.19999 3.49503L5 3.49977ZM5.047 3.71177L3.95824 4.21637L3.96021 4.22057L5.047 3.71177ZM5.5 3.99978V2.79978H5.4996L5.5 3.99978ZM7 3.99978H8.2V2.79978H7V3.99978ZM7 6.49977H8.2H7ZM7.5 6.99977V8.19977V6.99977ZM8.5 6.99977V5.79978V6.99977ZM10.2 6.49977L10.2 3.99978L7.8 3.99977L7.8 6.49977H10.2ZM9 5.19978H10.5V2.79978H9V5.19978ZM10.5005 5.19978C10.8235 5.19965 11.1398 5.10751 11.4123 4.93411L10.1241 2.90917C10.2363 2.83777 10.3665 2.79982 10.4996 2.79978L10.5005 5.19978ZM11.4123 4.93411C11.6849 4.76072 11.9024 4.51327 12.0394 4.22074L9.86588 3.20291C9.92229 3.08245 10.0119 2.98056 10.1241 2.90917L11.4123 4.93411ZM12.0394 4.22074C12.1764 3.9282 12.2272 3.60269 12.1859 3.28232L9.80557 3.58932C9.78855 3.4574 9.80947 3.32337 9.86588 3.20291L12.0394 4.22074ZM12.1859 3.28232C12.1445 2.96195 12.0128 2.65998 11.8061 2.41178L9.96195 3.94778C9.87683 3.84557 9.82258 3.72123 9.80557 3.58932L12.1859 3.28232ZM11.8059 2.41155L9.30587 -0.588446L7.46214 0.947996L9.96214 3.948L11.8059 2.41155ZM9.3056 -0.588765C9.14606 -0.780085 8.94642 -0.934003 8.7208 -1.03963L7.7032 1.13396C7.61031 1.09047 7.5281 1.02709 7.4624 0.948315L9.3056 -0.588765ZM8.7208 -1.03963C8.49519 -1.14525 8.24912 -1.2 8 -1.2V1.2C7.89743 1.2 7.7961 1.17746 7.7032 1.13396L8.7208 -1.03963ZM8 -1.2C7.75089 -1.2 7.50482 -1.14525 7.27921 -1.03963L8.2968 1.13396C8.2039 1.17746 8.10258 1.2 8 1.2V-1.2ZM7.27921 -1.03963C7.05359 -0.934003 6.85395 -0.780085 6.6944 -0.588765L8.5376 0.948315C8.47191 1.02709 8.3897 1.09047 8.2968 1.13396L7.27921 -1.03963ZM6.69414 -0.588446L4.19414 2.41155L6.03787 3.948L8.53787 0.947996L6.69414 -0.588446ZM4.19779 2.40719C3.9394 2.71429 3.79843 3.10316 3.80001 3.50452L6.19999 3.49503C6.20066 3.6623 6.1419 3.82437 6.03421 3.95236L4.19779 2.40719ZM3.80001 3.50259C3.80059 3.74915 3.85457 3.99266 3.95825 4.21637L6.13576 3.20718C6.17785 3.298 6.19977 3.39686 6.2 3.49696L3.80001 3.50259ZM3.96021 4.22057C4.09727 4.51334 4.31496 4.76096 4.58776 4.93439L5.87539 2.90905C5.98772 2.98047 6.07736 3.08243 6.1338 3.20297L3.96021 4.22057ZM4.58776 4.93439C4.86056 5.10782 5.17715 5.19988 5.50041 5.19978L5.4996 2.79978C5.63271 2.79973 5.76307 2.83764 5.87539 2.90905L4.58776 4.93439ZM5.5 5.19978H7V2.79978H5.5V5.19978ZM5.8 3.99978V6.49977H8.2V3.99978H5.8ZM5.8 6.49977C5.8 6.95064 5.97911 7.38305 6.29792 7.70186L7.99498 6.0048C8.12625 6.13608 8.2 6.31412 8.2 6.49977H5.8ZM6.29792 7.70186C6.61673 8.02067 7.04914 8.19977 7.5 8.19977V5.79978C7.68566 5.79978 7.8637 5.87353 7.99498 6.0048L6.29792 7.70186ZM7.5 8.19977H8.5V5.79978H7.5V8.19977ZM8.5 8.19977C8.95087 8.19977 9.38327 8.02067 9.70209 7.70186L8.00503 6.0048C8.1363 5.87353 8.31435 5.79977 8.5 5.79978V8.19977ZM9.70209 7.70186C10.0209 7.38304 10.2 6.95064 10.2 6.49977H7.8C7.8 6.31412 7.87375 6.13608 8.00503 6.0048L9.70209 7.70186Z" fill="white" mask="url(#path-3-outside-1_1315_1823)"/>
<path fill-rule="evenodd" clip-rule="evenodd" d="M0.4388 10.5528C0.685789 10.0588 1.28646 9.85859 1.78044 10.1056L7.99989 13.2153L14.2193 10.1056C14.7133 9.85859 15.314 10.0588 15.561 10.5528C15.808 11.0468 15.6078 11.6474 15.1138 11.8944L8.44711 15.2278C8.16558 15.3685 7.83421 15.3685 7.55268 15.2278L0.886013 11.8944C0.392035 11.6474 0.19181 11.0468 0.4388 10.5528Z" fill="#A0B6C3"/>
</g>
<defs>
<clipPath id="clip0_1315_1823">
<rect width="16" height="16" fill="white"/>
</clipPath>
</defs>
</svg>
