<svg width="24" height="24" viewBox="0 0 24 24" fill="none" xmlns="http://www.w3.org/2000/svg">
<g clip-path="url(#clip0_4424_3107)">
<path d="M12 24C18.5634 24 24 18.575 24 12C24 5.43659 18.5634 0 11.9884 0C5.42498 0 0 5.43659 0 12C0 18.575 5.43659 24 12 24ZM12 21.6418C6.65634 21.6418 2.3698 17.3437 2.3698 12C2.3698 6.65634 6.64472 2.3698 11.9884 2.3698C17.332 2.3698 21.6418 6.65634 21.6418 12C21.6418 17.3437 17.3437 21.6418 12 21.6418ZM8.67764 16.5653H9.88577C10.4782 16.5653 10.7686 16.2401 10.7686 15.7522V8.23621C10.7686 7.74831 10.4782 7.42304 9.88577 7.42304H8.67764C8.09681 7.42304 7.80639 7.74831 7.80639 8.23621V15.7522C7.80639 16.2401 8.09681 16.5653 8.67764 16.5653ZM14.1142 16.5653H15.3224C15.9032 16.5653 16.1936 16.2401 16.1936 15.7522V8.23621C16.1936 7.74831 15.9032 7.42304 15.3224 7.42304H14.1142C13.5218 7.42304 13.2197 7.74831 13.2197 8.23621V15.7522C13.2197 16.2401 13.5218 16.5653 14.1142 16.5653Z" fill="#A0B6C3"/>
</g>
<defs>
<clipPath id="clip0_4424_3107">
<rect width="24" height="24" fill="white"/>
</clipPath>
</defs>
</svg>
