<svg id="uuid-97b7a3a2-cbd9-45d4-a73c-b21ec64a9364" data-name="Layer 2" xmlns="http://www.w3.org/2000/svg" viewBox="0 0 15.2051 12.668">
  <g id="uuid-2ee343da-45c7-44d5-8e38-cfc4ebe190d3" data-name="Layer 1">
    <g>
      <path d="M13.1367,2.918h-1.0429v-.8613c0-1.3242-.7383-2.0566-2.0742-2.0566H2.0684C.7324,0,0,.7266,0,2.0566V7.6992c0,1.3242,.7324,2.0507,2.0684,2.0507h1.0137v.8614c0,1.3301,.7266,2.0566,2.0684,2.0566h7.9864c1.3359,0,2.0683-.7265,2.0683-2.0566V4.9746c0-1.3301-.7324-2.0566-2.0684-2.0566ZM3.082,4.9746v3.2637h-.8496c-.4688,0-.7207-.2285-.7207-.7266V2.2441c0-.498,.252-.7324,.7207-.7324h7.623c.4688,0,.7266,.2344,.7266,.7324v.6738H5.1504c-1.3418,0-2.0684,.7266-2.0684,2.0566Zm10.6113,5.4492c0,.498-.2578,.7324-.7266,.7324H5.3145c-.4746,0-.7207-.2344-.7207-.7324V5.1562c0-.498,.2461-.7266,.7207-.7266h7.6523c.4688,0,.7266,.2285,.7266,.7266v5.2676Z" style="fill: #a0b6c3;"/>
      <path d="M11.1973,7.1367h-1.4004v-1.4004c0-.375-.2754-.6445-.6562-.6445-.3751,0-.6446,.2695-.6446,.6445v1.4004h-1.4004c-.375,0-.6445,.2754-.6445,.6562,0,.3692,.2695,.6445,.6445,.6445h1.4004v1.4004c0,.375,.2695,.6447,.6446,.6447,.3808,0,.6562-.2697,.6562-.6447v-1.4004h1.4004c.3691,0,.6387-.2753,.6387-.6445,0-.3809-.2637-.6562-.6387-.6562Z" style="fill: #a0b6c3;"/>
    </g>
  </g>
</svg>