<svg width="21" height="22" viewBox="0 0 21 22" fill="none" xmlns="http://www.w3.org/2000/svg">
<path fill-rule="evenodd" clip-rule="evenodd" d="M0.083252 4.00004C0.083252 2.11307 1.61295 0.583374 3.49992 0.583374H5.49992C7.38689 0.583374 8.91659 2.11307 8.91659 4.00004V6.00004C8.91659 7.88701 7.38689 9.41671 5.49992 9.41671H3.49992C1.61295 9.41671 0.083252 7.88701 0.083252 6.00004V4.00004ZM3.49992 2.08337C2.44137 2.08337 1.58325 2.94149 1.58325 4.00004V6.00004C1.58325 7.05859 2.44137 7.91671 3.49992 7.91671H5.49992C6.55847 7.91671 7.41659 7.05859 7.41659 6.00004V4.00004C7.41659 2.94149 6.55847 2.08337 5.49992 2.08337H3.49992ZM13.4166 4.33337C13.4166 3.91916 13.7524 3.58337 14.1666 3.58337H16.4166V1.33337C16.4166 0.91916 16.7524 0.583374 17.1666 0.583374C17.5808 0.583374 17.9166 0.91916 17.9166 1.33337V3.58337H20.1666C20.5808 3.58337 20.9166 3.91916 20.9166 4.33337C20.9166 4.74759 20.5808 5.08337 20.1666 5.08337H17.9166V7.33337C17.9166 7.74759 17.5808 8.08337 17.1666 8.08337C16.7524 8.08337 16.4166 7.74759 16.4166 7.33337V5.08337H14.1666C13.7524 5.08337 13.4166 4.74759 13.4166 4.33337ZM0.083252 16C0.083252 14.113 1.61295 12.5834 3.49992 12.5834H5.49992C7.38689 12.5834 8.91659 14.113 8.91659 16V18C8.91659 19.8871 7.38689 21.4167 5.49992 21.4167H3.49992C1.61295 21.4167 0.083252 19.8871 0.083252 18V16ZM3.49992 14.0834C2.44136 14.0834 1.58325 14.9415 1.58325 16V18C1.58325 19.0586 2.44136 19.9167 3.49992 19.9167H5.49992C6.55847 19.9167 7.41659 19.0586 7.41659 18V16C7.41659 14.9415 6.55847 14.0834 5.49992 14.0834H3.49992ZM15.4999 12.5834C13.6129 12.5834 12.0833 14.113 12.0833 16V18C12.0833 19.8871 13.6129 21.4167 15.4999 21.4167H17.4999C19.3869 21.4167 20.9166 19.8871 20.9166 18V16C20.9166 14.113 19.3869 12.5834 17.4999 12.5834H15.4999ZM13.5833 16C13.5833 14.9415 14.4413 14.0834 15.4999 14.0834H17.4999C18.5585 14.0834 19.4166 14.9415 19.4166 16V18C19.4166 19.0586 18.5585 19.9167 17.4999 19.9167H15.4999C14.4413 19.9167 13.5833 19.0586 13.5833 18V16Z" fill="#0284AD"/>
</svg>
