<svg   xmlns:svg="http://www.w3.org/2000/svg"   xmlns="http://www.w3.org/2000/svg"   version="1.1"   width="1024"   height="1024"   viewBox="0 0 1024 1024">  <path     d="M178.666 288.001C178.666 227.61799999999994 227.61599999999999 178.668 287.999 178.668H352C412.384 178.668 461.331 227.61800000000005 461.331 288.001V352C461.331 412.384 412.384 461.33400000000006 352 461.33400000000006H287.999C227.616 461.33400000000006 178.66600000000003 412.384 178.66600000000003 352V288.001zM287.999 226.668C254.12500000000003 226.668 226.66600000000003 254.12800000000004 226.66600000000003 288.001V352C226.66600000000003 385.875 254.12600000000003 413.33400000000006 287.999 413.33400000000006H352C385.872 413.33400000000006 413.331 385.8750000000001 413.331 352V288.001C413.331 254.12699999999995 385.872 226.668 352 226.668H287.999zM605.331 298.668C605.331 285.413 616.077 274.668 629.331 274.668H701.331V202.668C701.331 189.413 712.077 178.668 725.331 178.668C738.589 178.668 749.331 189.413 749.331 202.668V274.668H821.331C834.589 274.668 845.331 285.413 845.331 298.668S834.589 322.669 821.331 322.669H749.331V394.669C749.331 407.923 738.589 418.669 725.331 418.669C712.077 418.669 701.331 407.923 701.331 394.669V322.669H629.331C616.077 322.669 605.331 311.923 605.331 298.668zM178.666 672C178.666 611.616 227.61599999999999 562.669 287.999 562.669H352C412.381 562.669 461.331 611.616 461.331 672V736C461.331 796.387 412.38100000000003 845.3340000000001 352 845.3340000000001H287.999C227.616 845.3340000000001 178.66600000000003 796.387 178.66600000000003 736V672zM287.999 610.669C254.12500000000003 610.669 226.66600000000003 638.1279999999999 226.66600000000003 672V736C226.66600000000003 769.875 254.12600000000003 797.3340000000001 287.999 797.3340000000001H352C385.872 797.3340000000001 413.331 769.875 413.331 736V672C413.331 638.1279999999999 385.872 610.669 352 610.669H287.999zM672 562.669C611.616 562.669 562.6659999999999 611.616 562.6659999999999 672V736C562.6659999999999 796.387 611.616 845.3340000000001 672 845.3340000000001H736C796.384 845.3340000000001 845.331 796.387 845.331 736V672C845.331 611.616 796.384 562.669 736 562.669H672zM610.666 672C610.666 638.1279999999999 638.125 610.669 672 610.669H736C769.875 610.669 797.331 638.1279999999999 797.331 672V736C797.331 769.875 769.875 797.3340000000001 736 797.3340000000001H672C638.125 797.3340000000001 610.6659999999999 769.875 610.6659999999999 736V672z"     id="apps" /></svg>