<svg   xmlns:svg="http://www.w3.org/2000/svg"   xmlns="http://www.w3.org/2000/svg"   version="1.1"   width="1280"   height="1024"   viewBox="0 0 1280 1024">  <path     d="M102.393 613.71H879.148L644.36 848.188C634.581 857.622 626.779 868.905 621.413 881.381S613.222 907.275 613.105 920.852C612.986 934.43 615.577 947.896 620.725 960.463S633.476 984.4479999999999 643.09 994.049S664.1370000000001 1011.2429999999999 676.721 1016.385C689.305 1021.527 702.788 1024.114 716.383 1023.9959999999999S743.4150000000001 1021.057 755.908 1015.6979999999999C768.4 1010.3389999999999 779.698 1002.549 789.143 992.7819999999999L1198.717 583.748C1208.2520000000002 574.249 1215.8180000000002 562.9649999999999 1220.979 550.5409999999999C1226.141 538.1189999999999 1228.799 524.8 1228.799 511.34899999999993C1228.799 497.899 1226.142 484.5799999999999 1220.979 472.1569999999999C1215.818 459.7349999999999 1208.252 448.45000000000005 1198.717 438.951L789.143 29.91700000000003C769.917 10.743000000000052 743.85 -0.017999999999915417 716.6800000000001 0.0009999999999763531C689.508 0.01999999999998181 663.4580000000001 10.817999999999984 644.258 30.019999999999982S614.283 75.25299999999993 614.302 102.38900000000001C614.321 129.52499999999998 625.133 155.54200000000003 644.36 174.716L879.148 409.19399999999996H102.39300000000003C75.23700000000002 409.19399999999996 49.19200000000003 419.96799999999996 29.990000000000023 439.145S2.4868995751603507e-14 484.332 2.4868995751603507e-14 511.452C2.4868995751603507e-14 538.573 10.788000000000025 564.582 29.990000000000023 583.76S75.23700000000002 613.711 102.39300000000003 613.711z"     id="arrow-right" /></svg>