<svg  xmlns="http://www.w3.org/2000/svg" viewBox="0 0 36.5133 29.9483">
  <path d="M23.5157,24.4846l4.923,4.923c.721,.721,1.8899,.721,2.6109,0,.721-.721,.721-1.8899,0-2.6109l-4.923-4.923c-.721-.721-1.8899-.721-2.6109,0-.721,.721-.721,1.8899,0,2.6109Zm7.5339,4.923l4.923-4.923c.721-.721,.721-1.8899,0-2.6109s-1.8899-.721-2.6108,0l-4.923,4.923c-.721,.721-.721,1.8899,0,2.6109,.721,.721,1.8899,.721,2.6109,0Zm.5407-1.3054v-9.846c0-1.0196-.8266-1.8462-1.8462-1.8462s-1.8461,.8265-1.8461,1.8462v9.846c0,1.0196,.8265,1.8462,1.8461,1.8462s1.8462-.8265,1.8462-1.8462Zm3.0769-19.8971H1.8462c-1.0196,0-1.8462,.8265-1.8462,1.8461s.8265,1.8461,1.8462,1.8461H34.6672c1.0196,0,1.8461-.8265,1.8461-1.8461s-.8265-1.8461-1.8461-1.8461Zm1.8461,5.1281V7.0971c-.0009-.9201,.0027-1.6341-.0509-2.306-.0537-.6628-.1761-1.3395-.5086-1.9918l.0002,.0003c-.4918-.9648-1.2761-1.7497-2.2415-2.241l.0014,.0007c-.6523-.3326-1.329-.4549-1.9918-.5086-.6719-.0536-1.3859-.05-2.306-.0509H7.0981c-.9201,.0009-1.6341-.0027-2.306,.0509-.6628,.0537-1.3395,.1761-1.9918,.5086l.0003-.0002c-.9648,.4918-1.7497,1.2761-2.241,2.2415l.0007-.0014C.2279,3.4517,.1056,4.1284,.0519,4.7912-.0017,5.4631,.0019,6.177,.001,7.0971v12.472c.0009,.9201-.0027,1.6341,.0509,2.306,.0537,.6628,.1761,1.3395,.5086,1.9918l.0004,.0007c.4916,.9625,1.2741,1.7476,2.2409,2.2399l-.0014-.0007c.6523,.3326,1.329,.4549,1.9918,.5086,.6719,.0536,1.3859,.05,2.306,.0509h11.159c1.0196,0,1.8461-.8265,1.8461-1.8461s-.8265-1.8462-1.8461-1.8462H7.0981c-.9179,.0009-1.5824-.0027-2.005-.0386-.4317-.0358-.5655-.0924-.6152-.1179l-.0014-.0007c-.2672-.1358-.4886-.3566-.6271-.6281l.0004,.0007c-.0254-.0497-.0821-.1835-.1179-.6152-.0359-.4226-.0395-1.0872-.0386-2.005V7.0971c-.0009-.9179,.0027-1.5824,.0386-2.005,.0358-.4317,.0924-.5655,.1179-.6152l.0007-.0014c.1367-.2686,.3559-.4883,.627-.6265l.0003-.0002c.0497-.0254,.1835-.0821,.6152-.1179,.4226-.0359,1.0872-.0395,2.005-.0386H29.4161c.9179-.0009,1.5824,.0027,2.005,.0386,.4317,.0358,.5655,.0924,.6152,.1179l.0014,.0007c.2686,.1367,.4883,.3559,.6265,.627l.0002,.0003c.0254,.0497,.0821,.1835,.1179,.6152,.0359,.4226,.0395,1.0872,.0386,2.005v6.236c0,1.0196,.8265,1.8461,1.8461,1.8461s1.8461-.8265,1.8461-1.8461Z"/>
</svg>