<svg width="11" height="8" viewBox="0 0 11 8" fill="none" xmlns="http://www.w3.org/2000/svg">
<path d="M8.75828 0.249869L3.70324 5.85143L1.86133 3.81037C1.70983 3.64823 1.50692 3.55851 1.2963 3.56053C1.08568 3.56256 0.884209 3.65618 0.735275 3.82121C0.586341 3.98625 0.501861 4.2095 0.50003 4.44289C0.4982 4.67628 0.579166 4.90113 0.72549 5.06901L3.13533 7.73938C3.28596 7.90626 3.49024 8 3.70324 8C3.91624 8 4.12053 7.90626 4.27116 7.73938L9.89411 1.50851C10.0404 1.34063 10.1214 1.11578 10.1196 0.882391C10.1177 0.649003 10.0333 0.425748 9.88433 0.260712C9.73539 0.0956752 9.53392 0.00206173 9.3233 3.36491e-05C9.11269 -0.00199443 8.90978 0.0877251 8.75828 0.249869Z" fill="#2DD7A7"/>
</svg>
