<svg   xmlns:svg="http://www.w3.org/2000/svg"   xmlns="http://www.w3.org/2000/svg"   version="1.1"   width="1024"   height="1024"   viewBox="0 0 1024 1024">  <path     d="M514.906 1005.03C786.7839999999999 1005.03 1009.9069999999999 781.44 1009.9069999999999 509.562C1009.9069999999999 238.15599999999995 786.31 14.562000000000012 514.906 14.562000000000012C243.03099999999995 14.562000000000012 19.90599999999995 238.15599999999995 19.90599999999995 509.562C19.90599999999995 781.44 243.49999999999994 1005.03 514.906 1005.03zM463.344 744.877C442.25 744.877 425.844 735.501 410.844 717.216L300.688 585.969C289.907 572.844 285.688 561.125 285.688 547.5319999999999C285.688 518.469 309.125 495.501 337.719 495.501C354.594 495.501 367.719 502.06399999999996 380.375 517.063L461.937 617.844L644.749 327.21900000000005C656.9350000000001 307.53200000000004 672.403 297.6880000000001 690.688 297.6880000000001C718.81 297.6880000000001 744.595 318.3130000000001 744.595 347.3750000000001C744.595 359.09400000000016 739.904 371.7500000000001 731.469 383.9380000000001L513.969 716.7500000000001C501.78100000000006 734.5610000000001 483.50100000000003 744.8780000000002 463.34400000000005 744.8780000000002z"     id="check-fill" /></svg>