<svg   xmlns:svg="http://www.w3.org/2000/svg"   xmlns="http://www.w3.org/2000/svg"   version="1.1"   width="1024"   height="1024"   viewBox="0 0 1024 1024">  <path     d="M256 320C255.953 320 255.898 320 255.843 320C238.209 320 222.23999999999998 327.13199999999995 210.665 338.669L210.667 338.66700000000003C199.038 350.2560000000001 191.843 366.288 191.843 384S199.03799999999998 417.744 210.665 429.332L466.66700000000003 685.3340000000001C478.257 696.961 494.28900000000004 704.155 512 704.155S545.743 696.961 557.332 685.336L813.3340000000001 429.33400000000006C824.9630000000001 417.745 832.158 401.7130000000001 832.158 384.0010000000001S824.963 350.25700000000006 813.336 338.6690000000001L813.3340000000001 338.66700000000014C801.745 327.0380000000001 785.7130000000001 319.8430000000002 768.0010000000001 319.8430000000002S734.2570000000001 327.03800000000024 722.6690000000001 338.6650000000002L512.0000000000001 549.3340000000002L301.3330000000001 338.66700000000014C289.75900000000007 327.1320000000002 273.79100000000005 320.0000000000001 256.1570000000001 320.0000000000001C256.1020000000001 320.0000000000001 256.0470000000001 320.0000000000001 255.9920000000001 320.0000000000001H256.0010000000001z"     id="chevron-down" /></svg>