<svg   xmlns:svg="http://www.w3.org/2000/svg"   xmlns="http://www.w3.org/2000/svg"   version="1.1"   width="878"   height="1024"   viewBox="0 0 878 1024">  <path     d="M191.714 164.57100000000003C110.063 164.57100000000003 42.714 231.92000000000007 42.714 313.571V808C42.714 889.651 110.067 957 191.714 957H686.143C767.789 957 835.143 889.653 835.143 808V313.571C835.143 231.91899999999998 767.792 164.57100000000003 686.143 164.57100000000003H634C603.703 164.57100000000003 579.143 189.13099999999997 579.143 219.428V219.428C579.143 249.72500000000002 603.703 274.28499999999997 634 274.28499999999997H686.143C708.494 274.28499999999997 725.4290000000001 291.2149999999999 725.4290000000001 313.5709999999999V807.9999999999999C725.4290000000001 830.3559999999999 708.498 847.2859999999998 686.143 847.2859999999998H191.71400000000006C169.35400000000004 847.2859999999998 152.42800000000005 830.358 152.42800000000005 807.9999999999999V313.5709999999999C152.42800000000005 291.21399999999994 169.35700000000006 274.28499999999985 191.71400000000006 274.28499999999985H243.85700000000006C274.15400000000005 274.28499999999985 298.71400000000006 249.7249999999999 298.71400000000006 219.42799999999988V219.42799999999988C298.71400000000006 189.13099999999986 274.15400000000005 164.5709999999999 243.85700000000006 164.5709999999999V164.5709999999999zM317 67C246.957 67 189 124.957 189 195V243.85699999999997C189 313.9 246.958 371.85699999999997 317 371.85699999999997H560.857C630.899 371.85699999999997 688.857 313.9 688.857 243.85699999999997V195C688.857 124.957 630.9 67 560.857 67zM317 176.71400000000006H560.857C571.605 176.71400000000006 579.143 184.25200000000007 579.143 195V243.85699999999997C579.143 254.606 571.606 262.14300000000003 560.857 262.14300000000003H317C306.252 262.14300000000003 298.714 254.606 298.714 243.85699999999997V195C298.714 184.25199999999995 306.252 176.71399999999994 317 176.71399999999994z"     id="clipboard" /></svg>