<svg   xmlns:svg="http://www.w3.org/2000/svg"   xmlns="http://www.w3.org/2000/svg"   version="1.1"   width="1024"   height="1024"   viewBox="0 0 1024 1024">  <path     d="M768 208C767.965 208 767.924 208 767.882 208C754.656 208 742.68 213.34900000000005 733.9979999999999 222.00099999999998L221.9989999999999 734C213.2779999999999 742.692 207.88099999999991 754.716 207.88099999999991 768S213.2769999999999 793.308 221.9969999999999 801.999L221.9979999999999 802C230.6899999999999 810.721 242.7139999999999 816.1179999999999 255.9979999999999 816.1179999999999S281.3059999999999 810.722 289.9969999999999 802.002L801.9979999999998 290.001C810.7189999999998 281.30899999999997 816.1159999999999 269.28499999999997 816.1159999999999 256.001S810.7199999999999 230.69299999999998 801.9999999999999 222.00199999999995L801.9989999999999 222.00099999999998C793.319 213.35000000000002 781.3419999999999 208.00099999999998 768.117 208.00099999999998C768.0759999999999 208.00099999999998 768.034 208.00099999999998 767.9929999999999 208.00099999999998H767.9989999999999zM256 208C255.965 208 255.924 208 255.882 208C242.656 208 230.68 213.34900000000005 221.998 222.00099999999998L221.999 222C213.278 230.692 207.881 242.716 207.881 256S213.277 281.308 221.997 289.999L733.998 802C742.69 810.721 754.714 816.1179999999999 767.998 816.1179999999999S793.306 810.722 801.9970000000001 802.002L801.998 802.001C810.719 793.309 816.1160000000001 781.285 816.1160000000001 768.001S810.7200000000001 742.693 802.0000000000001 734.002L289.99900000000014 222.00099999999998C281.31900000000013 213.35000000000002 269.34200000000016 208.00099999999998 256.11700000000013 208.00099999999998C256.07600000000014 208.00099999999998 256.0340000000001 208.00099999999998 255.99300000000014 208.00099999999998H255.99900000000014z"     id="close" /></svg>