<svg width="16" height="16" viewBox="0 0 16 16" fill="none" xmlns="http://www.w3.org/2000/svg">
<g opacity="0.8">
<path d="M7.95577 14.7565C11.6797 14.7565 14.7461 11.6901 14.7461 7.96615C14.7461 4.2487 11.6732 1.17578 7.94926 1.17578C4.23181 1.17578 1.16541 4.2487 1.16541 7.96615C1.16541 11.6901 4.23181 14.7565 7.95577 14.7565ZM6.00916 11.0846C5.63155 11.0846 5.3516 10.8242 5.3516 10.4661C5.3516 10.2839 5.40369 10.1536 5.5339 9.97787L7.05733 7.90104L5.60551 5.92839C5.45577 5.73307 5.40369 5.59635 5.40369 5.40755C5.40369 5.04297 5.69666 4.76953 6.08077 4.76953C6.38025 4.76953 6.54952 4.8737 6.75785 5.19922L7.98181 7.0026H8.02738L9.21879 5.19922C9.4141 4.88021 9.58988 4.76953 9.87634 4.76953C10.267 4.76953 10.5469 5.02995 10.5469 5.39453C10.5469 5.55729 10.4883 5.71354 10.3516 5.88932L8.84119 7.92708L10.3451 9.95182C10.4753 10.1276 10.5339 10.2708 10.5339 10.4466C10.5339 10.8242 10.2539 11.0846 9.8503 11.0846C9.55733 11.0846 9.39457 10.974 9.17973 10.6419L7.96228 8.84505H7.92322L6.67973 10.6419C6.45837 10.9805 6.30212 11.0846 6.00916 11.0846Z" fill="#EB5A29"/>
</g>
</svg>
