<svg   xmlns:svg="http://www.w3.org/2000/svg"   xmlns="http://www.w3.org/2000/svg"   version="1.1"   width="1024"   height="1024"   viewBox="0 0 1024 1024">  <path     d="M735 780H743.666C804.667 780 851.3330000000001 745.001 851.3330000000001 667.3340000000001V354.001H662.666C629.3330000000001 354.001 607.666 332.33399999999995 607.666 299.33399999999995V99.66799999999989H427.66600000000005C356.33200000000005 99.66799999999989 316.33200000000005 139.33399999999983 316.33200000000005 209.6679999999999V223.33499999999992H369.6650000000001C425.3320000000001 223.33499999999992 463.6650000000001 236.33499999999992 500.6650000000001 273.33399999999995L689.6650000000001 462.3349999999999C725.3320000000001 497.6679999999999 734.998 540.6679999999999 734.998 593.002V780.001zM673.333 307H845C843.667 295.33299999999997 835.001 284.33299999999997 821.334 270.66700000000003L690.6669999999999 136C677.9999999999999 123 666.6669999999999 114 654.9999999999999 113V288.33400000000006C654.9999999999999 301.33400000000006 660.3329999999999 307.0010000000001 673.3329999999999 307.0010000000001zM261 954.667H572C645 954.667 684 915.337 684 841.667V586.333H443.66700000000003C401.333 586.333 380 565 380 522.6669999999999V274.33299999999997H261C188 274.33299999999997 149 313.33399999999995 149 387V841.6659999999999C149 915.669 187.667 954.6659999999999 261 954.6659999999999zM449.667 535.3340000000001H677.6669999999999C673.6669999999999 520.3340000000001 664.334 505.66700000000003 648.9999999999999 490.001L475.33299999999986 314.001C459.66699999999986 298.001 445.9999999999999 287.33399999999995 430.9999999999999 282.66700000000003V516.3340000000001C430.9999999999999 528.6670000000001 437.3329999999999 535.3340000000001 449.6669999999999 535.3340000000001z"     id="copy" /></svg>