<svg id="uuid-f6bb3507-abc0-4565-84c5-11489e02e123" data-name="Layer 2" xmlns="http://www.w3.org/2000/svg" viewBox="0 0 10.75 10.75">
  <g id="uuid-36a4efe0-c150-47f4-b13e-c3c54f193189" data-name="Layer 1">
    <g>
      <path d="M8,0h-3c-.9665,0-1.75,.7835-1.75,1.75h1.5c0-.1381,.1119-.25,.25-.25h3c.6904,0,1.25,.5596,1.25,1.25v3c0,.1381-.1119,.25-.25,.25v1.5c.9665,0,1.75-.7835,1.75-1.75V2.75c0-1.5188-1.2312-2.75-2.75-2.75Z" style="fill: #a0b6c3; fill-rule: evenodd;"/>
      <path d="M6,2.75H2C.8954,2.75,0,3.6454,0,4.75v4c0,1.1046,.8954,2,2,2H6c1.1046,0,2-.8954,2-2V4.75c0-1.1046-.8954-2-2-2Zm.5,6c0,.2761-.2239,.5-.5,.5H2c-.2761,0-.5-.2239-.5-.5V4.75c0-.2761,.2239-.5,.5-.5H6c.2761,0,.5,.2239,.5,.5v4Z" style="fill: #a0b6c3; fill-rule: evenodd;"/>
    </g>
  </g>
</svg>