<svg id="uuid-bce39d45-0371-4ca2-be0d-966e064aefd8" data-name="Layer 2" xmlns="http://www.w3.org/2000/svg" viewBox="0 0 13 12.5">
  <g id="uuid-d5f3d7fb-8557-4f23-a038-7ccd0f02b7ce" data-name="Layer 1">
    <g>
      <path d="M12,8v2.6667c0,.2209-.0878,.4329-.2441,.5893h.0001c-.1564,.1562-.3684,.244-.5893,.244H1.8333c-.221,0-.433-.0878-.5893-.2441h0c-.1563-.1563-.2441-.3682-.2441-.5892v-2.6667H0v2.6667c0,.4862,.1932,.9525,.5369,1.2963h0c.3438,.3438,.8101,.537,1.2963,.537H11.1667c.4863,0,.9525-.1932,1.2963-.5369h.0001c.3437-.3439,.5369-.8102,.5369-1.2964v-2.6667h-1ZM2.8134,5.0202l3.6869,3.6869,3.6869-3.6869-.7071-.7071-2.9798,2.9798-2.9798-2.9798-.7071,.7071Zm4.1866,2.9798V0h-1V8h1Z" style="fill: #adcadd;"/>
      <path d="M12,8v2.6667c0,.2209-.0878,.4329-.2441,.5893h.0001c-.1564,.1562-.3684,.244-.5893,.244H1.8333c-.221,0-.433-.0878-.5893-.2441h0c-.1563-.1563-.2441-.3682-.2441-.5892v-2.6667H0v2.6667c0,.4862,.1932,.9525,.5369,1.2963h0c.3438,.3438,.8101,.537,1.2963,.537H11.1667c.4863,0,.9525-.1932,1.2963-.5369h.0001c.3437-.3439,.5369-.8102,.5369-1.2964v-2.6667h-1ZM2.8134,5.0202l3.6869,3.6869,3.6869-3.6869-.7071-.7071-2.9798,2.9798-2.9798-2.9798-.7071,.7071Zm4.1866,2.9798V0h-1V8h1Z" style="fill: #adcadd;"/>
    </g>
  </g>
</svg>