<svg   xmlns:svg="http://www.w3.org/2000/svg"   xmlns="http://www.w3.org/2000/svg"   version="1.1"   width="1024"   height="1024"   viewBox="0 0 1024 1024">  <path     d="M489.222 28.44399999999996C385.87699999999995 28.44399999999996 301.55499999999995 112.87599999999998 301.55499999999995 216.22199999999998S385.876 403.889 489.222 403.889C520.221 403.889 546.804 390.611 572.6659999999999 377.222C607.1299999999999 420.155 657.6969999999999 449.44399999999996 716.7769999999999 449.44399999999996C820.122 449.44399999999996 904.555 365.01199999999994 904.555 261.66599999999994S820.1229999999999 73.99899999999991 716.7769999999999 73.99899999999991C684.6829999999999 73.99899999999991 655.9209999999999 84.23699999999985 629.444 98.55499999999995C594.9699999999999 57.68599999999992 546.665 28.44399999999996 489.222 28.44399999999996zM489.222 85.33299999999997C527.637 85.33299999999997 559.342 104.39800000000002 583.222 130.55499999999995C549.934 164.46499999999992 529.111 210.6239999999999 529.111 261.66599999999994C529.111 285.80899999999997 534.512 308.6489999999999 542.889 329.8879999999999C525.972 337.90599999999995 509.315 346.9989999999999 489.222 346.9989999999999C416.62199999999996 346.9989999999999 358.44399999999996 288.8219999999999 358.44399999999996 216.2209999999999S416.621 85.33199999999988 489.222 85.33199999999988zM716.778 130.889C789.378 130.889 847.667 189.06600000000003 847.667 261.66700000000003S789.379 392.55600000000004 716.778 392.55600000000004C644.178 392.55600000000004 586 334.26800000000003 586 261.66700000000003S644.177 130.889 716.778 130.889zM129.667 529.111C104.179 529.111 87.46000000000001 527.5930000000001 68.77799999999999 537.111C54.86399999999999 544.201 43.64399999999999 555.535 36.55599999999999 569.444C27.033999999999992 588.1299999999999 28.44499999999999 604.847 28.44499999999999 630.333V894.333C28.44499999999999 919.819 27.03399999999999 936.536 36.55599999999999 955.222C43.64499999999999 969.1320000000001 54.864999999999995 980.355 68.77799999999999 987.444C87.46099999999998 996.9639999999999 104.178 995.5550000000001 129.667 995.5550000000001H166.111C191.599 995.5550000000001 208.317 996.9639999999999 227 987.444C240.913 980.355 252.244 969.1310000000001 259.33299999999997 955.222C266.64799999999997 940.8679999999999 265.45099999999996 925.341 265.44399999999996 908.444H357.77699999999993C371.00999999999993 908.444 384.11299999999994 910.0849999999999 396.8879999999999 913.222L522.444 943.778C553.679 951.385 586.1279999999999 952.0169999999999 617.6659999999999 945.889L756.555 918.889C798.583 910.697 837.314 890.637 867.7769999999999 861L965.8879999999999 765.444C1004.882 727.4879999999999 1004.911 663.954 965.8879999999999 626C930.6479999999999 591.713 875.2939999999999 587.922 835.555 616.889L732.444 692.222C734.257 684.8689999999999 741 679.8969999999999 741 672V658C741 612.711 709.186 573.3820000000001 665 562.667V562.778L556.444 536.3340000000001C536.587 531.518 516.2239999999999 529.1120000000001 495.77699999999993 529.1120000000001C465.9719999999999 529.1120000000001 434.5859999999999 539.3610000000001 407.9989999999999 548.8900000000001S360.5549999999999 568.001 360.5549999999999 568.001L264.4439999999999 608.223C264.0749999999999 595.1469999999999 265.3969999999999 581.346 259.3329999999999 569.4449999999999C252.24399999999991 555.5360000000001 240.9149999999999 544.201 226.99999999999991 537.112C208.31699999999992 527.592 191.5999999999999 529.112 166.1109999999999 529.112zM129.667 586H166.111C191.599 586 200.434 587.376 201.22199999999998 587.778C204.433 589.414 207.028 592.008 208.66599999999997 595.222C209.06399999999996 596.004 210.44399999999996 604.847 210.44399999999996 630.3330000000001V894.3330000000001C210.44399999999996 919.8190000000001 209.06499999999997 928.551 208.66599999999997 929.3330000000001C207.02799999999996 932.547 204.43499999999997 935.14 201.22199999999998 936.777C200.43399999999997 937.181 191.599 938.666 166.111 938.666H129.66699999999997C104.17899999999997 938.666 95.45499999999997 937.179 94.66699999999997 936.777C91.45299999999997 935.14 88.85999999999997 932.546 87.22299999999997 929.3330000000001C86.82499999999997 928.551 85.33399999999997 919.8190000000001 85.33399999999997 894.3330000000001V630.3330000000001C85.33399999999997 604.847 86.82499999999997 596.003 87.22299999999997 595.222C88.86099999999998 592.008 91.45499999999997 589.414 94.66699999999997 587.778C95.45599999999997 587.374 104.17899999999997 586 129.66699999999997 586zM495.778 586C511.709 586 527.522 587.802 543 591.556L651.556 618C671.2220000000001 622.77 684.1120000000001 639.244 684.1120000000001 658V672C684.1120000000001 694.7819999999999 665.594 713.333 640.8900000000001 713.333H570.5570000000001C555.0200000000001 713.56 542.5120000000002 726.208 542.5120000000002 741.777S555.0200000000002 769.995 570.5360000000002 770.221H681.0010000000002C707.4790000000002 770.221 733.3320000000002 761.928 754.6680000000002 746.332L869.0010000000002 662.8879999999999C886.3900000000002 650.213 910.9690000000002 651.935 926.2230000000002 666.777C943.2540000000001 683.342 943.2310000000002 708.148 926.2230000000002 724.6659999999999L828.0010000000002 820.222C805.6030000000002 842.012 776.9580000000002 857.012 745.6680000000002 863.111L606.8900000000002 890.111C583.3830000000003 894.679 559.1280000000002 894.104 535.8900000000002 888.444L410.4450000000002 858.002C393.1900000000002 853.7629999999999 375.5240000000002 851.555 357.7790000000002 851.555H267.3350000000002V668.555L383.3350000000002 620.1109999999999C383.82900000000024 619.9389999999999 384.1230000000002 619.8249999999999 384.4140000000002 619.7069999999999L384.22300000000024 619.7749999999999C384.22300000000024 619.7749999999999 403.09100000000024 611.0909999999999 427.22300000000024 602.4419999999999S481.67500000000024 585.9979999999998 495.7790000000002 585.9979999999998z"     id="hand-coins" /></svg>