<svg   xmlns:svg="http://www.w3.org/2000/svg"   xmlns="http://www.w3.org/2000/svg"   version="1.1"   width="1024"   height="1024"   viewBox="0 0 1024 1024">  <path     d="M512 122.625C297.546 122.625 122.625 297.54600000000005 122.625 512S297.546 901.375 512 901.375C726.455 901.375 901.375 726.453 901.375 512S726.455 122.625 512 122.625zM512 218.625C674.5740000000001 218.625 805.375 349.428 805.375 512S674.5740000000001 805.375 512 805.375C349.428 805.375 218.625 674.571 218.625 512S349.428 218.625 512 218.625zM512 464C485.49 464 464 485.49 464 512V512V682.625C464 709.135 485.49 730.625 512 730.625V730.625C538.51 730.625 560 709.135 560 682.625V682.625V512C560 485.49 538.51 464 512 464V464zM512 293.375C485.49 293.375 464 314.865 464 341.375V341.375C464 367.885 485.49 389.375 512 389.375V389.375H512.375C538.885 389.375 560.375 367.885 560.375 341.375V341.375C560.375 314.865 538.885 293.375 512.375 293.375V293.375z"     id="info" /></svg>