<svg   xmlns:svg="http://www.w3.org/2000/svg"   xmlns="http://www.w3.org/2000/svg"   version="1.1"   width="1024"   height="1024"   viewBox="0 0 1024 1024">  <path     d="M284.813 888.314H711.373C781.3760000000001 888.314 817.248 852 817.248 775.437V450.375C817.248 382.563 788.378 346.25 731.5010000000001 339.688V239.063C731.5010000000001 82.875 626.0630000000001 -6.812000000000012 497.8750000000001 -6.812000000000012S264.6870000000001 82.875 264.6870000000001 239.063V339.688C207.37400000000014 346.251 178.49900000000014 382.563 178.49900000000014 450.375V775.437C178.49900000000014 852 214.37400000000014 888.314 284.8120000000001 888.314zM368.813 233.812C368.813 145.437 426.125 93.81200000000001 497.875 93.81200000000001S627.812 145.437 627.812 233.812L627.374 338.375H368.374L368.812 233.812zM315.437 788.1279999999999C298.375 788.1279999999999 288.75 778.502 288.75 758.81V467.438C288.75 448.188 298.375 438.563 315.437 438.563H680.748C697.8100000000001 438.563 707.0010000000001 448.188 707.0010000000001 467.438V758.81C707.0010000000001 778.503 697.811 788.128 680.748 788.128H315.43700000000007z"     id="lock" /></svg>