<svg   xmlns:svg="http://www.w3.org/2000/svg"   xmlns="http://www.w3.org/2000/svg"   version="1.1"   width="1024"   height="1024"   viewBox="0 0 1024 1024">  <path     d="M288 170.66700000000003C223.578 170.66700000000003 170.667 223.57799999999997 170.667 288V736C170.667 800.423 223.579 853.333 288 853.333H736C800.423 853.333 853.333 800.422 853.333 736V288C853.333 223.57799999999997 800.423 170.66700000000003 736 170.66700000000003zM288 234.66700000000003H736C765.836 234.66700000000003 789.333 258.16600000000005 789.333 288V448.75L731.9159999999999 381.91700000000003C684.289 326.47900000000004 596.3679999999999 328.27 550.9989999999999 385.5C550.9859999999999 385.5 550.9709999999999 385.5 550.9559999999999 385.5S550.9259999999999 385.5 550.911 385.5H550.9129999999999C550.6869999999999 385.78499999999997 550.4579999999999 386.19399999999996 550.1629999999999 386.58299999999997C546.7199999999999 391.0319999999999 500.6609999999999 450.33799999999997 462.0799999999999 499.75C412.6789999999999 457.414 336.21399999999994 460.97900000000004 294.66499999999996 513.8330000000001L234.66499999999996 590.166V287.999C234.66499999999996 258.1650000000001 258.164 234.66600000000005 287.99799999999993 234.66600000000005zM641.833 404.66700000000003C656.958 404.36400000000003 672.273 410.61300000000006 683.4159999999999 423.58400000000006L786.4159999999999 543.5010000000001C787.2429999999999 543.6180000000002 788.2499999999999 543.7070000000001 789.2689999999999 543.749L789.3319999999999 543.7510000000001V736.0010000000001C789.3319999999999 765.8380000000001 765.8349999999999 789.3340000000001 735.9989999999999 789.3340000000001H287.9989999999999C258.16399999999993 789.3340000000001 234.6659999999999 765.8370000000001 234.6659999999999 736.0010000000001V693.7510000000001L344.9989999999999 553.4180000000001C366.1799999999999 526.4740000000002 405.0819999999999 525.5870000000001 427.41599999999994 551.585L530.4159999999999 671.5020000000001C536.318 678.3310000000001 544.992 682.6270000000001 554.669 682.6270000000001C562.644 682.6270000000001 569.938 679.71 575.5409999999999 674.884L575.4989999999999 674.9190000000001C582.3279999999999 669.017 586.6239999999999 660.3430000000001 586.6239999999999 650.6660000000002C586.6239999999999 642.691 583.7069999999999 635.3970000000002 578.8809999999999 629.7940000000001L578.9159999999998 629.836L506.9989999999998 546.1690000000001C547.8469999999998 493.92700000000013 597.5599999999998 429.83900000000006 600.9159999999998 425.50200000000007C601.0029999999998 425.41600000000005 601.0849999999998 425.33500000000004 601.1669999999998 425.25300000000004L601.1679999999998 425.25200000000007C611.7719999999998 411.8750000000001 626.7099999999998 404.9710000000001 641.8349999999998 404.6690000000001z"     id="nft-type-image" /></svg>