<svg   xmlns:svg="http://www.w3.org/2000/svg"   xmlns="http://www.w3.org/2000/svg"   version="1.1"   width="1024"   height="1024"   viewBox="0 0 1024 1024">  <path     d="M512 28.55600000000004C495.044 28.557000000000016 478.091 33.923 464 44.77800000000002L407.222 88.44500000000005V88.33400000000006C402.58299999999997 91.86900000000003 396.77099999999996 93.38700000000006 391 92.66700000000003L319.889 83.33400000000006C284.642 78.68100000000004 250.397 98.50500000000011 236.77800000000002 131.33400000000006C236.741 131.3710000000001 236.704 131.40700000000004 236.668 131.44400000000007L236.667 131.44500000000005L209.445 197.55600000000004C207.16 202.96699999999998 202.86599999999999 207.178 197.445 209.44500000000005L131.445 236.66700000000003C131.408 236.70400000000006 131.37099999999998 236.74 131.33499999999998 236.77700000000004L131.33399999999997 236.77800000000002C98.50599999999997 250.399 78.68199999999997 284.64200000000005 83.33399999999997 319.889L92.66699999999997 391C93.38699999999997 396.774 91.81599999999997 402.673 88.33399999999997 407.222L44.77799999999998 464C23.109999999999978 492.20900000000006 23.068999999999978 531.817 44.77799999999998 560L88.44499999999998 616.778H88.33399999999997C91.90599999999998 621.4380000000001 93.43599999999998 627.249 92.66699999999997 633L83.33399999999997 704.111C78.68199999999997 739.358 98.50699999999998 773.6 131.33399999999997 787.222L197.55599999999998 814.6659999999999C202.968 816.8979999999999 207.213 821.031 209.445 826.444C209.445 826.461 209.445 826.481 209.445 826.501S209.445 826.5409999999999 209.445 826.5609999999999V826.558L236.778 892.669C250.355 925.583 284.639 945.318 319.889 940.669L388.333 931.669C395.769 930.685 403.22900000000004 932.694 409.11100000000005 937.225C409.12700000000007 937.225 409.14700000000005 937.225 409.16600000000005 937.225S409.20500000000004 937.225 409.22400000000005 937.225H409.22100000000006L463.9990000000001 979.222C492.17800000000005 1000.865 531.7110000000001 1000.8609999999999 559.888 979.222L616.777 935.555V935.669C621.436 932.098 627.2470000000001 930.456 632.999 931.2239999999999C632.999 931.241 632.999 931.261 632.999 931.281S632.999 931.3209999999999 632.999 931.341V931.338L704.11 940.6709999999999C739.363 945.329 773.599 925.495 787.221 892.6709999999999L814.554 826.449C816.789 821.031 821.039 816.786 826.443 814.56L892.554 787.227C925.468 773.6479999999999 945.314 739.366 940.665 704.116L931.665 635.56C930.6809999999999 628.124 932.689 620.6659999999999 937.221 614.7819999999999C937.221 614.7649999999999 937.221 614.7449999999999 937.221 614.7249999999999S937.221 614.685 937.221 614.665V614.6679999999999L979.221 559.9989999999999C1000.8870000000001 531.79 1000.928 492.1819999999999 979.221 463.9989999999999L935.554 407.1099999999999H935.668C932.1 402.4559999999999 930.456 396.7489999999999 931.223 390.9989999999999C931.2669999999999 390.9559999999999 931.304 390.91999999999996 931.341 390.8839999999999L931.336 390.8879999999999L940.669 319.77699999999993C945.312 284.5319999999999 925.491 250.28699999999992 892.664 236.66599999999994L826.442 209.33299999999997C821.027 207.101 816.788 202.86399999999992 814.553 197.44399999999996L787.22 131.33299999999997C773.642 98.41699999999992 739.3620000000001 78.56799999999998 704.109 83.22199999999998L632.998 92.66599999999994C632.981 92.66599999999994 632.961 92.66599999999994 632.941 92.66599999999994S632.9010000000001 92.66599999999994 632.8810000000001 92.66599999999994H632.8840000000001C627.1930000000001 93.44799999999998 621.3560000000001 91.8409999999999 616.7730000000001 88.33299999999997V88.44399999999996L559.9980000000002 44.77800000000002C545.8940000000001 33.942999999999984 528.9540000000002 28.555000000000064 511.99800000000016 28.55600000000004zM498.667 89.88900000000001C506.587 83.78700000000003 517.337 83.74599999999998 525.334 89.88900000000001L582.223 133.55600000000004C598.78 146.22900000000004 619.7489999999999 151.85900000000004 640.5559999999999 149L711.5559999999999 139.66700000000003C721.506 138.35300000000007 730.8489999999999 143.74400000000003 734.6669999999999 153L761.9999999999999 219.22199999999998C769.9909999999999 238.54499999999996 785.4379999999999 253.91599999999994 804.7779999999999 261.889L870.8889999999999 289.222C880.228 293.097 885.536 302.37199999999996 884.2219999999999 312.33299999999997C884.2219999999999 312.34899999999993 884.2219999999999 312.3689999999999 884.2219999999999 312.3879999999999S884.2219999999999 312.4269999999999 884.2219999999999 312.4459999999999V312.44299999999987L874.8889999999999 383.44299999999987C872.1189999999999 404.18899999999985 877.7309999999999 425.1919999999999 890.4449999999999 441.77599999999984L934.112 498.66499999999985C940.212 506.5849999999998 940.2529999999999 517.3349999999998 934.112 525.3319999999999L892.112 580.1099999999999C878.385 597.9809999999999 872.264 620.6389999999999 875.223 642.9989999999999L884.223 711.443C884.223 711.4599999999999 884.223 711.4799999999999 884.223 711.4999999999999S884.223 711.54 884.223 711.56V711.5569999999999C885.536 721.511 880.1419999999999 730.8509999999999 870.89 734.6679999999999L804.779 762.001C785.402 769.9809999999999 769.984 785.4269999999999 762.001 804.7789999999999L734.668 870.8899999999999C730.791 880.232 721.508 885.5379999999999 711.557 884.223L640.446 874.8899999999999C619.7 872.1199999999999 598.696 877.7349999999999 582.113 890.4459999999999L525.335 934.1129999999999C525.3190000000001 934.1129999999999 525.2990000000001 934.1129999999999 525.2800000000001 934.1129999999999S525.2410000000001 934.1129999999999 525.2220000000001 934.1129999999999H525.2250000000001C517.3050000000002 940.213 506.55400000000014 940.2539999999999 498.5580000000001 934.1129999999999L443.8910000000001 892.1109999999999C426.0080000000001 878.3349999999999 403.2870000000001 872.2579999999999 380.8910000000001 875.2219999999999L312.44700000000006 884.3329999999999C302.49300000000005 885.646 293.1530000000001 880.252 289.33600000000007 870.9999999999999C289.33600000000007 870.983 289.33600000000007 870.963 289.33600000000007 870.9429999999999S289.33600000000007 870.9029999999999 289.33600000000007 870.8829999999999V870.886L262.00300000000004 804.7749999999999C254.03200000000004 785.444 238.55400000000003 770.103 219.22500000000005 762.108L153.11400000000003 734.6659999999999C143.77100000000004 730.7889999999999 138.46600000000004 721.512 139.78100000000003 711.555L149.11400000000003 640.555C151.88500000000002 619.807 146.26800000000003 598.804 133.55800000000002 582.222C133.55800000000002 582.2049999999999 133.55800000000002 582.185 133.55800000000002 582.165S133.55800000000002 582.125 133.55800000000002 582.105V582.108L89.89100000000002 525.333C83.79000000000002 517.412 83.74900000000002 506.663 89.89100000000002 498.66599999999994L133.55800000000002 441.77699999999993C146.234 425.21799999999996 151.79800000000003 404.241 149.11400000000003 383.55499999999995L139.78100000000003 312.44399999999996C138.46700000000004 302.485 143.77300000000002 293.20899999999995 153.11400000000003 289.33299999999997L219.22500000000002 262C219.241 262 219.26100000000002 262 219.28000000000003 262S219.31900000000002 262 219.33800000000002 262H219.33500000000004C238.56400000000002 253.961 253.85300000000004 238.562 261.891 219.33299999999997C261.928 219.29599999999994 261.96500000000003 219.26 262.00100000000003 219.22299999999996L262.002 219.22199999999998L289.336 153.111C293.237 143.82899999999995 302.526 138.46799999999996 312.447 139.77800000000002L383.558 149.111C404.246 151.79700000000003 425.21299999999997 146.17899999999997 441.78 133.55499999999995zM673.889 309.889L309.889 673.889C304.743 679.0360000000001 301.56 686.146 301.56 694S304.743 708.9639999999999 309.889 714.111V714.111C315.036 719.257 322.146 722.44 330 722.44S344.964 719.2570000000001 350.111 714.111L714.111 350.111C719.257 344.96399999999994 722.4399999999999 337.85400000000004 722.4399999999999 330S719.257 315.03599999999994 714.111 309.889V309.889C708.9639999999999 304.74300000000005 701.854 301.56000000000006 694 301.56000000000006S679.036 304.74300000000005 673.889 309.889V309.889zM375.444 324.222C347.504 324.222 324.22200000000004 347.504 324.22200000000004 375.44399999999996S347.504 426.66599999999994 375.444 426.66599999999994C403.384 426.66599999999994 426.666 403.3839999999999 426.666 375.44399999999996S403.384 324.222 375.444 324.222zM648.556 597.3330000000001C620.615 597.3330000000001 597.3340000000001 620.614 597.3340000000001 648.5550000000001S620.615 699.777 648.556 699.777C676.4970000000001 699.777 699.778 676.496 699.778 648.5550000000001S676.4970000000001 597.3330000000001 648.556 597.3330000000001z"     id="percentage-polygon" /></svg>