<svg   xmlns:svg="http://www.w3.org/2000/svg"   xmlns="http://www.w3.org/2000/svg"   version="1.1"   width="910"   height="1024"   viewBox="0 0 910 1024">  <path     d="M455.111 42.66700000000003C314.23199999999997 42.66700000000003 199.111 157.788 199.111 298.66700000000003S314.23199999999997 554.667 455.111 554.667C595.99 554.667 711.111 439.547 711.111 298.66700000000003S595.99 42.66700000000003 455.111 42.66700000000003zM455.111 128C549.872 128 625.778 203.90599999999995 625.778 298.66700000000003S549.8720000000001 469.33400000000006 455.111 469.33400000000006C360.349 469.33400000000006 284.44399999999996 393.4290000000001 284.44399999999996 298.66700000000003S360.34899999999993 128 455.111 128zM336.667 635.222C270.50699999999995 635.222 234.32 634.241 198.11099999999996 645.222C123.91899999999997 667.73 65.72799999999995 725.912 43.22199999999995 800.111C32.23599999999995 836.3199999999999 33.22199999999995 872.505 33.22199999999995 938.667C33.22199999999995 962.231 52.32499999999995 981.3340000000001 75.88899999999995 981.3340000000001V981.3340000000001C99.45299999999995 981.3340000000001 118.55599999999995 962.231 118.55599999999995 938.667V938.667C118.55599999999995 872.505 119.54399999999995 842.508 124.88899999999995 824.889C139.15099999999995 777.869 175.86899999999994 741.154 222.88899999999995 726.889C240.51599999999996 721.543 270.50699999999995 720.556 336.667 720.556H573.6669999999999C639.829 720.556 669.8129999999999 721.542 687.4449999999999 726.889C734.463 741.154 771.1809999999999 777.8679999999999 785.4449999999999 824.889C790.79 842.51 791.7779999999999 872.505 791.7779999999999 938.667C791.7779999999999 962.231 810.8809999999999 981.3340000000001 834.4449999999999 981.3340000000001V981.3340000000001C858.0089999999999 981.3340000000001 877.112 962.231 877.112 938.667V938.667C877.112 872.505 878.0939999999999 836.319 867.112 800.111C844.603 725.913 786.413 667.73 712.223 645.222C676.015 634.242 639.829 635.222 573.6669999999999 635.222z"     id="person" /></svg>