<svg width="12" height="13" viewBox="0 0 12 13" fill="none" xmlns="http://www.w3.org/2000/svg">
<path d="M4.57143 3.25C4.98564 3.25 5.32143 2.91421 5.32143 2.5C5.32143 2.08579 4.98564 1.75 4.57143 1.75V3.25ZM1.25 4.78571C1.25 5.19993 1.58579 5.53571 2 5.53571C2.41421 5.53571 2.75 5.19993 2.75 4.78571H1.25ZM4.57143 11.25C4.98564 11.25 5.32143 10.9142 5.32143 10.5C5.32143 10.0858 4.98564 9.75 4.57143 9.75V11.25ZM2.75 8.21429C2.75 7.80007 2.41421 7.46429 2 7.46429C1.58579 7.46429 1.25 7.80007 1.25 8.21429H2.75ZM7.42857 1.75C7.01436 1.75 6.67857 2.08579 6.67857 2.5C6.67857 2.91421 7.01436 3.25 7.42857 3.25V1.75ZM9.25 4.78571C9.25 5.19993 9.58579 5.53571 10 5.53571C10.4142 5.53571 10.75 5.19993 10.75 4.78571H9.25ZM7.42857 9.75C7.01436 9.75 6.67857 10.0858 6.67857 10.5C6.67857 10.9142 7.01436 11.25 7.42857 11.25V9.75ZM10.75 8.21429C10.75 7.80007 10.4142 7.46429 10 7.46429C9.58579 7.46429 9.25 7.80007 9.25 8.21429H10.75ZM4.57143 1.75H3.14286V3.25H4.57143V1.75ZM1.25 3.64286V4.78571H2.75V3.64286H1.25ZM3.14286 1.75C2.09746 1.75 1.25 2.59746 1.25 3.64286H2.75C2.75 3.42589 2.92589 3.25 3.14286 3.25V1.75ZM4.57143 9.75H3.14286V11.25H4.57143V9.75ZM2.75 9.35714V8.21429H1.25V9.35714H2.75ZM3.14286 9.75C2.92589 9.75 2.75 9.57411 2.75 9.35714H1.25C1.25 10.4025 2.09746 11.25 3.14286 11.25V9.75ZM7.42857 3.25H8.85714V1.75H7.42857V3.25ZM9.25 3.64286V4.78571H10.75V3.64286H9.25ZM8.85714 3.25C9.07411 3.25 9.25 3.42589 9.25 3.64286H10.75C10.75 2.59746 9.90254 1.75 8.85714 1.75V3.25ZM7.42857 11.25H8.85714V9.75H7.42857V11.25ZM10.75 9.35714V8.21429H9.25V9.35714H10.75ZM8.85714 11.25C9.90254 11.25 10.75 10.4025 10.75 9.35714H9.25C9.25 9.57411 9.07411 9.75 8.85714 9.75V11.25Z" fill="#9C9FA4"/>
</svg>
