<svg width="16" height="16" viewBox="0 0 16 16" fill="none" xmlns="http://www.w3.org/2000/svg">
<path d="M8 12.8594C12.5171 12.8594 15.4497 9.23389 15.4497 8.13281C15.4497 7.02637 12.5117 3.40625 8 3.40625C3.55273 3.40625 0.550293 7.02637 0.550293 8.13281C0.550293 9.23389 3.55273 12.8594 8 12.8594ZM8 11.5059C4.75049 11.5059 2.2583 8.86328 2.2583 8.13281C2.2583 7.52588 4.75049 4.75977 8 4.75977C11.2441 4.75977 13.7417 7.52588 13.7417 8.13281C13.7417 8.86328 11.2441 11.5059 8 11.5059ZM8.00537 10.8237C9.50391 10.8237 10.6963 9.59912 10.6963 8.13281C10.6963 6.63428 9.50391 5.44189 8.00537 5.44189C6.50146 5.44189 5.29834 6.62891 5.30371 8.13281C5.30371 9.59912 6.50146 10.8237 8.00537 10.8237ZM8 8.95996C7.53809 8.95996 7.17285 8.58398 7.17285 8.13281C7.17285 7.67627 7.53809 7.30566 8 7.30566C8.45654 7.30566 8.82715 7.67627 8.82715 8.13281C8.82715 8.58398 8.45654 8.95996 8 8.95996Z" fill="#758F9E"/>
</svg>
