<svg   xmlns:svg="http://www.w3.org/2000/svg"   xmlns="http://www.w3.org/2000/svg"   version="1.1"   width="1024"   height="1024"   viewBox="0 0 1024 1024">  <path     d="M166.492 498.53999999999996C166.678 514.043 175.421 527.463 188.21099999999998 534.311L188.43099999999998 534.4190000000001C203.66699999999997 543.273 221.28799999999998 550.5920000000001 239.899 555.462L241.385 555.792Q272.399 563.426 303.419 574.114C324.652 580.999 342.57599999999996 593.1610000000001 356.256 609.076L356.385 609.229C370.07099999999997 625.0920000000001 378.406 645.907 378.406 668.6680000000001C378.406 670.047 378.375 671.4190000000001 378.315 672.7830000000001L378.322 672.589C378.35 673.47 378.366 674.5060000000001 378.366 675.546C378.366 708.251 362.71 737.3000000000001 338.483 755.606L338.23 755.789C312.211 775.423 279.33000000000004 787.2360000000001 243.69 787.2360000000001C241.286 787.2360000000001 238.894 787.182 236.516 787.076L236.85399999999998 787.0880000000001C235.34699999999998 787.134 233.575 787.1610000000001 231.796 787.1610000000001C198.778 787.1610000000001 167.887 778.0550000000001 141.49699999999999 762.2180000000001L142.29299999999998 762.6610000000001C117.25799999999998 747.5140000000001 97.85599999999998 725.2460000000001 86.64099999999998 698.6780000000001L86.30599999999998 697.7830000000001L143.04299999999998 664.9560000000001C149.129 683.368 161.13099999999997 698.4390000000001 176.75799999999998 708.2800000000001L177.09099999999998 708.4760000000001C193.23399999999998 718.565 212.84199999999998 724.5480000000001 233.84799999999998 724.5480000000001C234.90499999999997 724.5480000000001 235.95899999999997 724.5330000000001 237.009 724.5030000000002L236.855 724.5070000000001C238.06799999999998 724.5570000000001 239.492 724.585 240.922 724.585C259.081 724.585 276.178 720.0360000000001 291.135 712.0150000000001L290.566 712.2940000000001C303.375 704.6010000000001 311.81399999999996 690.7820000000002 311.81399999999996 674.9920000000001C311.81399999999996 674.1490000000001 311.78999999999996 673.3120000000001 311.74199999999996 672.481L311.74699999999996 672.596C311.66399999999993 657.2760000000001 302.852 644.0340000000001 290.03399999999993 637.5840000000001L289.80799999999994 637.481C274.56899999999996 628.1370000000001 256.88999999999993 620.773 238.07799999999995 616.35L236.85499999999993 616.108Q205.84099999999992 607.711 174.82399999999993 597.023C153.75699999999992 589.726 135.92899999999992 577.646 121.97699999999992 562.029L121.87099999999992 561.908C108.19599999999993 546.19 99.86099999999992 525.512 99.86099999999992 502.88699999999994C99.86099999999992 501.629 99.88699999999992 500.37699999999995 99.93799999999992 499.13200000000006L99.93199999999992 499.30999999999995C99.91699999999992 498.65200000000004 99.90799999999992 497.87699999999995 99.90799999999992 497.101C99.90799999999992 465.1089999999999 114.58399999999992 436.54499999999996 137.57199999999992 417.774L137.75599999999991 417.62800000000004C162.44799999999992 397.60400000000004 194.2549999999999 385.48 228.89399999999992 385.48C230.6299999999999 385.48 232.35899999999992 385.51 234.07999999999993 385.571L233.82999999999993 385.5640000000001C234.71599999999992 385.54600000000005 235.75999999999993 385.5350000000001 236.80699999999993 385.5350000000001C265.8309999999999 385.5350000000001 292.99699999999996 393.48800000000006 316.2459999999999 407.3330000000001L315.5319999999999 406.9390000000001C339.27399999999994 420.3510000000001 358.0059999999999 440.22500000000014 369.6569999999999 464.1780000000001L369.9989999999999 464.95600000000013L314.7749999999999 496.2550000000001C302.6569999999999 467.124 274.4239999999999 447.014 241.49499999999992 447.014C238.79299999999992 447.014 236.12299999999993 447.149 233.48999999999992 447.414L233.82199999999992 447.38699999999994C233.0989999999999 447.3639999999999 232.2489999999999 447.351 231.39499999999992 447.351C214.52499999999992 447.351 198.85799999999992 452.5 185.87799999999993 461.3109999999999L186.16199999999992 461.1289999999999C174.24799999999993 468.703 166.45699999999994 481.83399999999995 166.45699999999994 496.78499999999997C166.45699999999994 497.403 166.46999999999994 498.01700000000005 166.49699999999993 498.62799999999993L166.49399999999994 498.54099999999994zM713.528 395.48199999999997H779.3430000000001V777.178H713.528V722.215C689.65 761.482 647.095 787.31 598.5070000000001 787.31C595.8580000000001 787.31 593.2280000000001 787.233 590.6170000000001 787.082L590.9780000000001 787.0989999999999C589.0970000000001 787.189 586.893 787.24 584.677 787.24C545.381 787.24 509.85 771.122 484.334 745.136L484.313 745.115C459.28 716.776 443.998 679.313 443.998 638.28C443.998 635.3119999999999 444.078 632.364 444.236 629.435L444.218 629.843V395.48299999999995H510.033V626.0239999999999C509.915 627.843 509.848 629.968 509.848 632.1089999999999C509.848 657.6389999999999 519.384 680.9419999999999 535.089 698.6499999999999L534.998 698.5459999999999C551.546 714.237 573.9580000000001 723.886 598.624 723.886C600.458 723.886 602.279 723.833 604.086 723.727L603.836 723.7389999999999C605.19 723.8 606.778 723.8349999999999 608.375 723.8349999999999C637.552 723.8349999999999 663.998 712.1429999999999 683.283 693.1879999999999L683.268 693.203C702.3580000000001 670.387 713.95 640.7289999999999 713.95 608.3629999999999C713.95 604.6379999999999 713.796 600.9479999999999 713.495 597.3L713.527 597.778zM912.829 326.014C912.7439999999999 326.015 912.6429999999999 326.015 912.5419999999999 326.015C888.05 326.015 868.1949999999999 306.15999999999997 868.1949999999999 281.668C868.1949999999999 269.485 873.107 258.45000000000005 881.06 250.43500000000006L881.0569999999999 250.4380000000001C888.7319999999999 241.98000000000013 899.7679999999999 236.69100000000014 912.0379999999999 236.69100000000014C912.3159999999999 236.69100000000014 912.5939999999999 236.6940000000002 912.8699999999999 236.69900000000018L912.8289999999998 236.6980000000002C912.9499999999998 236.69700000000023 913.0919999999999 236.69600000000025 913.2349999999998 236.69600000000025C925.3889999999998 236.69600000000025 936.3069999999998 241.99000000000024 943.8079999999998 250.39700000000028L943.8429999999997 250.43700000000024C951.7929999999998 258.47500000000025 956.7049999999997 269.53200000000027 956.7049999999997 281.7370000000002S951.7939999999998 304.99900000000025 943.8389999999997 313.04100000000017L943.8429999999997 313.03700000000015C936.1699999999997 321.0430000000001 925.3889999999998 326.01800000000014 913.4459999999997 326.01800000000014C913.2289999999997 326.01800000000014 913.0119999999997 326.0160000000002 912.7949999999997 326.01300000000015H912.8279999999997zM879.549 777.173V395.477H945.361V777.173z"     id="sui-logo-txt" /></svg>