<svg   xmlns:svg="http://www.w3.org/2000/svg"   xmlns="http://www.w3.org/2000/svg"   version="1.1"   width="1024"   height="1024"   viewBox="0 0 1024 1024">  <path     d="M201.137 846.185C262.244 953.105 375.589 1024.001 505.493 1024.001S748.742 953.105 808.948 847.895L809.8489999999999 846.1850000000001C839.8029999999999 795.181 857.4949999999999 733.847 857.4949999999999 668.3810000000001S839.8029999999999 541.581 808.9409999999999 488.899L809.8499999999999 490.577L542.164 21.42100000000005C534.8009999999999 8.540000000000077 521.145 0 505.495 0S476.189 8.539999999999964 468.934 21.215000000000032L468.82500000000005 21.42100000000005L201.13900000000007 490.577C171.18500000000006 541.5810000000001 153.49300000000005 602.9150000000001 153.49300000000005 668.3810000000001S171.18500000000006 795.181 202.04700000000005 847.863L201.13800000000006 846.1850000000001zM430.086 244.62099999999998L487.159 144.58899999999994C490.841 138.1489999999999 497.668 133.87799999999993 505.49399999999997 133.87799999999993S520.1469999999999 138.1479999999999 523.774 144.48599999999988L523.828 144.58899999999983L743.394 529.4079999999999C766.794 569.2329999999998 780.615 617.1279999999998 780.615 668.2509999999999C780.615 699.9409999999998 775.304 730.3909999999998 765.524 758.7589999999998L766.109 756.8079999999999C762.9730000000001 742.3359999999998 759.106 729.8509999999999 754.301 717.8409999999999L754.875 719.4679999999998C724.547 642.0179999999998 655.972 582.2519999999998 551.015 541.8219999999999C478.856 514.1249999999999 432.794 473.39099999999985 414.078 420.7339999999999C389.97299999999996 352.89099999999996 415.15099999999995 278.89199999999994 430.08599999999996 244.62099999999987zM332.765 415.19100000000003L333.03999999999996 416.745C335.29699999999997 427.41600000000005 338.26899999999995 437.822 341.38199999999995 446.254C367.89599999999996 521.498 429.18999999999994 578.038 523.544 614.254C607.015 646.428 660.637 691.1 682.909 747.057L682.477 745.727C690.1899999999999 766.53 694.403 789.033 694.403 812.519C694.403 837.7090000000001 689.556 861.766 681.201 882.514L681.614 882.175C634.0640000000001 922.223 572.6650000000001 946.3530000000001 505.63100000000003 946.3530000000001C404.05600000000004 946.3530000000001 315.42100000000005 890.9490000000001 267.59200000000004 807.378L268.302 808.6890000000001C244.17600000000002 767.51 230.346 719.566 230.346 668.393S244.17600000000002 569.2760000000001 267.592 529.408L332.764 415.19100000000003z"     id="sui-logo-icon" /></svg>