<svg   xmlns:svg="http://www.w3.org/2000/svg"   xmlns="http://www.w3.org/2000/svg"   version="1.1"   width="1024"   height="1024"   viewBox="0 0 1024 1024">  <path     d="M399.354 233.769C377.687 240.99099999999999 358.423 250.11900000000003 344.08 261.42100000000005C330.013 272.5100000000001 317.334 288.5200000000001 317.334 309.33500000000004V426.6690000000001C317.334 439.9230000000001 328.08 450.6690000000001 341.334 450.6690000000001S365.334 439.9230000000001 365.334 426.6690000000001V370.7590000000001C375.6 376.1160000000001 387.091 380.8130000000001 399.353 384.9000000000001C442.934 399.4280000000001 501.615 408.0010000000001 565.3340000000001 408.0010000000001S687.734 399.4280000000001 731.315 384.9000000000001C736.9530000000001 383.02200000000005 742.432 381.01200000000006 747.702 378.86800000000005L712.681 522.686C710.563 531.3870000000001 713.465 540.5450000000001 720.207 546.436C726.953 552.33 736.415 553.9780000000001 744.754 550.711C762.8240000000001 543.633 779.004 534.89 791.0840000000001 524.154C803.1220000000001 513.453 813.3340000000001 498.615 813.3340000000001 480V309.33500000000004C813.3340000000001 288.52 800.6560000000001 272.51 786.585 261.42100000000005C772.246 250.11900000000003 752.9820000000001 240.9910000000001 731.315 233.769C687.734 219.24199999999996 629.0530000000001 210.668 565.3340000000001 210.668S442.9340000000001 219.24199999999996 399.35300000000007 233.769zM365.334 309.36400000000003V309.32900000000006C365.334 309.235 365.32800000000003 308.48900000000003 366.339 306.8430000000001C367.462 305.0100000000001 369.699 302.34800000000007 373.792 299.1210000000001C382.12199999999996 292.55700000000013 395.66099999999994 285.5960000000001 414.53099999999995 279.30600000000004C452.02199999999993 266.8090000000001 505.34099999999995 258.668 565.334 258.668S678.646 266.80899999999997 716.137 279.30600000000004C735.007 285.596 748.5469999999999 292.557 756.876 299.1210000000001C760.9689999999999 302.34800000000007 763.202 305.0100000000001 764.329 306.8430000000001C764.607 307.2980000000001 764.809 307.6840000000001 764.9559999999999 308.00700000000006L763.8459999999999 312.5640000000001C762.6079999999998 314.34400000000005 760.4509999999999 316.7320000000001 756.8759999999999 319.5490000000001C748.5459999999998 326.11300000000006 735.0069999999998 333.0730000000001 716.1369999999998 339.36400000000015C678.6459999999998 351.8600000000001 625.3269999999998 360.0010000000002 565.3339999999998 360.0010000000002S452.0219999999998 351.86000000000024 414.53099999999984 339.36400000000026C395.66099999999983 333.0730000000002 382.12099999999987 326.1130000000003 373.79199999999986 319.5490000000002C369.69899999999984 316.32200000000023 367.4619999999999 313.6600000000002 366.3389999999999 311.8270000000002C365.3889999999999 310.27800000000025 365.3369999999999 309.52700000000027 365.3339999999999 309.36400000000026zM260.685 500.43499999999995C304.267 485.9069999999999 362.947 477.33400000000006 426.666 477.33400000000006S549.066 485.9069999999999 592.6469999999999 500.43499999999995C614.314 507.6569999999999 633.578 516.784 647.9169999999999 528.086C661.987 539.174 674.6659999999999 555.187 674.6659999999999 576V746.669C674.6659999999999 767.482 661.9879999999999 783.491 647.9169999999999 794.5830000000001C633.5779999999999 805.8820000000001 614.314 815.0120000000001 592.6469999999999 822.234C549.0659999999999 836.7620000000001 490.38499999999993 845.335 426.66599999999994 845.335S304.26699999999994 836.7620000000001 260.68499999999995 822.234C239.01899999999995 815.0120000000001 219.75499999999994 805.8820000000001 205.41399999999993 794.5830000000001C191.34399999999994 783.492 178.66599999999994 767.482 178.66599999999994 746.6690000000001V576C178.66599999999994 555.187 191.34299999999993 539.174 205.41399999999993 528.086C219.75499999999994 516.784 239.01899999999992 507.65700000000004 260.68499999999995 500.43499999999995zM226.666 576.029C226.668 576.192 226.72 576.944 227.67 578.4929999999999C228.795 580.327 231.03 582.989 235.124 586.2149999999999C243.453 592.778 256.993 599.741 275.863 606.029C313.353 618.525 366.671 626.669 426.66499999999996 626.669S539.977 618.525 577.468 606.029C596.338 599.741 609.8779999999999 592.778 618.207 586.2149999999999C622.3 582.989 624.537 580.327 625.66 578.4929999999999C626.61 576.944 626.6619999999999 576.192 626.665 576.029V575.9970000000001C626.665 575.9010000000001 626.6709999999999 575.155 625.66 573.511C624.5369999999999 571.677 622.3 569.0150000000001 618.207 565.7860000000001C609.877 559.223 596.338 552.2629999999999 577.468 545.972C539.977 533.476 486.65799999999996 525.335 426.66499999999996 525.335S313.35299999999995 533.476 275.86299999999994 545.972C256.99299999999994 552.2629999999999 243.45299999999995 559.223 235.12399999999994 565.7860000000001C231.02999999999994 569.015 228.79499999999993 571.677 227.66999999999993 573.511C226.65899999999993 575.156 226.66499999999994 575.9010000000001 226.66599999999994 575.9970000000001V576.029zM226.666 637.424V746.672C226.665 746.768 226.66 747.514 227.67 749.1579999999999C228.795 750.992 231.03 753.654 235.124 756.88C243.453 763.4459999999999 256.993 770.406 275.863 776.698C313.353 789.194 366.671 797.335 426.66499999999996 797.335S539.977 789.194 577.468 776.698C596.338 770.4069999999999 609.8779999999999 763.447 618.207 756.88C622.3 753.654 624.537 750.992 625.66 749.1579999999999C626.6709999999999 747.5129999999999 626.665 746.768 626.665 746.672V637.424C616.399 642.781 604.908 647.478 592.646 651.565C549.0649999999999 666.0930000000001 490.38399999999996 674.669 426.66499999999996 674.669S304.26599999999996 666.093 260.68399999999997 651.565C248.42299999999997 647.479 236.93099999999998 642.781 226.66499999999996 637.424z"     id="tokens" /></svg>