<svg   xmlns:svg="http://www.w3.org/2000/svg"   xmlns="http://www.w3.org/2000/svg"   version="1.1"   width="1024"   height="1024"   viewBox="0 0 1024 1024">  <path     d="M217.875 891.373H644.435C714.438 891.373 750.31 855.066 750.31 778.5029999999999V453.876C750.31 386.938 722.31 350.626 667.1869999999999 343.188V239.50099999999998C667.1869999999999 149.37599999999998 724.0639999999999 97.31299999999999 796.2489999999999 97.31299999999999S925.3109999999999 149.375 925.3109999999999 239.50099999999998V324.81399999999996C925.3109999999999 362.876 948.0629999999999 383.876 977.81 383.876C1007.564 383.876 1030.309 363.751 1030.309 324.81399999999996V246.50099999999998C1030.309 78.06399999999996 914.808 -3.7490000000000236 796.2479999999999 -3.7490000000000236S562.6239999999999 78.06399999999996 562.6239999999999 246.50099999999998V341.43899999999996H217.8739999999999C147.43599999999992 341.43899999999996 111.56099999999991 378.18899999999996 111.56099999999991 453.87699999999995V778.5039999999999C111.56099999999991 855.067 147.43599999999992 891.374 217.8739999999999 891.374zM248.5 791.187C231.438 791.187 221.813 781.561 221.813 761.875V470.5C221.813 451.25 231.438 441.625 248.5 441.625H613.813C630.875 441.625 640.0649999999999 451.25 640.0649999999999 470.5V761.875C640.0649999999999 781.561 630.876 791.187 613.813 791.187H248.5z"     id="unlocked" /></svg>