<svg  xmlns="http://www.w3.org/2000/svg">
<path d="M9.87695 17.2778C14.0151 17.2778 17.4429 13.8574 17.4429 9.71191C17.4429 5.57373 14.0151 2.146 9.86963 2.146C5.73145 2.146 2.31104 5.57373 2.31104 9.71191C2.31104 13.8574 5.73877 17.2778 9.87695 17.2778ZM9.87695 15.791C6.50781 15.791 3.80518 13.0811 3.80518 9.71191C3.80518 6.34277 6.50049 3.64014 9.86963 3.64014C13.2388 3.64014 15.9561 6.34277 15.9561 9.71191C15.9561 13.0811 13.2461 15.791 9.87695 15.791ZM7.40137 8.08594L9.50342 10.1807C9.73779 10.415 10.0967 10.415 10.3311 10.1807L13.5684 6.94336C13.7954 6.71631 13.8027 6.35742 13.561 6.12305C13.3267 5.90332 12.9751 5.896 12.7407 6.12305L9.91357 8.95752L8.229 7.26562C7.9873 7.03125 7.63574 7.03125 7.40869 7.26562C7.18164 7.49268 7.17432 7.85156 7.40137 8.08594ZM2.38428 13.8867V16.0181C2.38428 16.9775 2.85303 17.4316 3.81982 17.4316H6.09766C4.48633 16.6406 3.26318 15.4688 2.38428 13.8867ZM17.4282 13.8867C16.5493 15.4688 15.3188 16.6406 13.7148 17.4316H15.9927C16.9595 17.4316 17.4282 16.9775 17.4282 16.0181V13.8867Z" fill="#A0B6C3"/>
</svg>
