<svg width="32" height="32" viewBox="0 0 32 32" fill="none" xmlns="http://www.w3.org/2000/svg">
<path d="M11.5 19.4844C11.4902 23.2051 14.4297 26.0371 19.1074 26.0469H20.4648C21.7441 26.0469 22.7207 25.9492 23.2871 25.8027C24.127 25.5977 24.8789 25.0703 24.8789 24.1035C24.8789 23.7324 24.7812 23.4492 24.6641 23.2344C24.5957 23.127 24.6152 23.0293 24.7129 22.9902C25.3574 22.6973 25.8457 22.1016 25.8457 21.3203C25.8457 20.8711 25.7188 20.4707 25.5039 20.1875C25.4062 20.0508 25.4258 19.9336 25.582 19.8457C26.0312 19.5625 26.3438 18.9863 26.3438 18.332C26.3438 17.8535 26.1973 17.3555 25.9434 17.1016C25.8066 16.9746 25.8262 16.8867 25.9727 16.7695C26.2852 16.4863 26.4805 16.0176 26.4805 15.4512C26.4805 14.4453 25.6895 13.625 24.6543 13.625H21.1289C20.2793 13.625 19.7227 13.1953 19.7227 12.502C19.7227 11.1836 21.3926 8.72266 21.3926 6.93555C21.3926 5.96875 20.7773 5.38281 19.9375 5.38281C19.2051 5.38281 18.8242 5.86133 18.4141 6.67188C16.9199 9.55273 14.9473 11.8965 13.4336 13.9082C12.1152 15.6465 11.5098 17.1406 11.5 19.4844ZM6.51953 19.5625C6.51953 22.5898 8.4043 25.0898 10.9141 25.0898H12.6133C10.8457 23.7422 10.0645 21.7402 10.084 19.4648C10.0938 17.0039 10.9727 15.2168 11.9004 13.9961H10.543C8.26758 13.9961 6.51953 16.4375 6.51953 19.5625Z" fill="#383F47"/>
</svg>
