<svg width="17" height="16" viewBox="0 0 17 16" fill="none" xmlns="http://www.w3.org/2000/svg">
<path fill-rule="evenodd" clip-rule="evenodd" d="M7.19641 1.5C4.15884 1.5 1.69641 3.96243 1.69641 7C1.69641 10.0376 4.15884 12.5 7.19641 12.5C10.234 12.5 12.6964 10.0376 12.6964 7C12.6964 3.96243 10.234 1.5 7.19641 1.5ZM0.196411 7C0.196411 3.13401 3.33042 0 7.19641 0C11.0624 0 14.1964 3.13401 14.1964 7C14.1964 8.66284 13.6166 10.1902 12.6482 11.3911L15.9767 14.7197C16.2696 15.0126 16.2696 15.4874 15.9767 15.7803C15.6838 16.0732 15.209 16.0732 14.9161 15.7803L11.5875 12.4518C10.3867 13.4202 8.85925 14 7.19641 14C3.33042 14 0.196411 10.866 0.196411 7Z"/>
</svg>
