<svg width="16" height="16" viewBox="0 0 16 16" fill="none" xmlns="http://www.w3.org/2000/svg">
<path d="M8.04541 15.7036C12.2935 15.7036 15.7798 12.21 15.7798 7.96191C15.7798 3.72119 12.2861 0.227539 8.04541 0.227539C3.79736 0.227539 0.311035 3.72119 0.311035 7.96191C0.311035 12.21 3.80469 15.7036 8.04541 15.7036ZM7.23975 11.6387C6.91016 11.6387 6.65381 11.4922 6.41943 11.2065L4.69824 9.15576C4.52979 8.95068 4.46387 8.76758 4.46387 8.55518C4.46387 8.10107 4.83008 7.74219 5.27686 7.74219C5.54053 7.74219 5.74561 7.84473 5.94336 8.0791L7.21777 9.65381L10.0742 5.11279C10.2646 4.80518 10.5063 4.65137 10.792 4.65137C11.2314 4.65137 11.6343 4.97363 11.6343 5.42773C11.6343 5.61084 11.561 5.80859 11.4292 5.99902L8.03076 11.1992C7.84033 11.4775 7.55469 11.6387 7.23975 11.6387Z" fill="currentColor"/>
</svg>
