<svg width="24" height="24" viewBox="0 0 24 24" fill="none" xmlns="http://www.w3.org/2000/svg">
<path d="M8 6H6.93103C5.86455 6 5 6.86455 5 7.93103V18.069C5 19.1354 5.86455 20 6.93103 20H17.069C18.1354 20 19 19.1354 19 18.069V7.93103C19 6.86455 18.1354 6 17.069 6H16" stroke="currentColor" stroke-width="1.5" stroke-linecap="round" stroke-linejoin="round"/>
<path d="M8 5.5C8 4.67157 8.67157 4 9.5 4H14.5C15.3284 4 16 4.67157 16 5.5V6.5C16 7.32843 15.3284 8 14.5 8H9.5C8.67157 8 8 7.32843 8 6.5V5.5Z" stroke="currentColor" stroke-width="1.5" stroke-linecap="round" stroke-linejoin="round"/>
</svg>
