<svg width="10" height="10" viewBox="0 0 10 10" fill="none" xmlns="http://www.w3.org/2000/svg">
<path fill-rule="evenodd" clip-rule="evenodd" d="M5 1.75C3.20507 1.75 1.75 3.20507 1.75 5C1.75 6.79493 3.20507 8.25 5 8.25C6.79493 8.25 8.25 6.79493 8.25 5C8.25 3.20507 6.79493 1.75 5 1.75ZM0.25 5C0.25 2.37665 2.37665 0.25 5 0.25C7.62335 0.25 9.75 2.37665 9.75 5C9.75 7.62335 7.62335 9.75 5 9.75C2.37665 9.75 0.25 7.62335 0.25 5ZM5 4.25C5.41421 4.25 5.75 4.58579 5.75 5V7C5.75 7.41421 5.41421 7.75 5 7.75C4.58579 7.75 4.25 7.41421 4.25 7V5C4.25 4.58579 4.58579 4.25 5 4.25ZM5 2.25C4.58579 2.25 4.25 2.58579 4.25 3C4.25 3.41421 4.58579 3.75 5 3.75H5.00375C5.41796 3.75 5.75375 3.41421 5.75375 3C5.75375 2.58579 5.41796 2.25 5.00375 2.25H5Z" fill="#A0B6C3"/>
</svg>
