<svg width="28" height="19" viewBox="0 0 28 19" fill="none" xmlns="http://www.w3.org/2000/svg">
    <path fill-rule="evenodd" clip-rule="evenodd"
        d="M0 1.25C0 0.559644 0.559644 0 1.25 0H26.75C27.4404 0 28 0.559644 28 1.25C28 1.94036 27.4404 2.5 26.75 2.5H1.25C0.559644 2.5 0 1.94036 0 1.25ZM0 9.25C0 8.55964 0.559644 8 1.25 8H26.75C27.4404 8 28 8.55964 28 9.25C28 9.94036 27.4404 10.5 26.75 10.5H1.25C0.559644 10.5 0 9.94036 0 9.25ZM1.25 16C0.559644 16 0 16.5596 0 17.25C0 17.9404 0.559644 18.5 1.25 18.5H26.75C27.4404 18.5 28 17.9404 28 17.25C28 16.5596 27.4404 16 26.75 16H1.25Z"
        fill="currentColor" />
</svg>