<svg width="24" height="24" viewBox="0 0 24 24" fill="none" xmlns="http://www.w3.org/2000/svg">
<path d="M20 16C20 18.2091 16.4183 20 12 20C7.58172 20 4 18.2091 4 16C4 13.7909 7.58172 12 12 12C16.4183 12 20 13.7909 20 16Z" fill="white"/>
<path fill-rule="evenodd" clip-rule="evenodd" d="M16.986 17.4868C18.2743 16.8427 18.5 16.2303 18.5 16C18.5 15.7697 18.2743 15.1573 16.986 14.5132C15.7875 13.9139 14.0268 13.5 12 13.5C9.97324 13.5 8.2125 13.9139 7.01397 14.5132C5.72571 15.1573 5.5 15.7697 5.5 16C5.5 16.2303 5.72571 16.8427 7.01397 17.4868C8.2125 18.0861 9.97324 18.5 12 18.5C14.0268 18.5 15.7875 18.0861 16.986 17.4868ZM12 20C16.4183 20 20 18.2091 20 16C20 13.7909 16.4183 12 12 12C7.58172 12 4 13.7909 4 16C4 18.2091 7.58172 20 12 20Z" fill="#383F47"/>
<path d="M20 12C20 14.2091 16.4183 16 12 16C7.58172 16 4 14.2091 4 12C4 9.79086 7.58172 8 12 8C16.4183 8 20 9.79086 20 12Z" fill="white"/>
<path fill-rule="evenodd" clip-rule="evenodd" d="M16.986 13.4868C18.2743 12.8427 18.5 12.2303 18.5 12C18.5 11.7697 18.2743 11.1573 16.986 10.5132C15.7875 9.91395 14.0268 9.5 12 9.5C9.97324 9.5 8.2125 9.91395 7.01397 10.5132C5.72571 11.1573 5.5 11.7697 5.5 12C5.5 12.2303 5.72571 12.8427 7.01397 13.4868C8.2125 14.0861 9.97324 14.5 12 14.5C14.0268 14.5 15.7875 14.0861 16.986 13.4868ZM12 16C16.4183 16 20 14.2091 20 12C20 9.79086 16.4183 8 12 8C7.58172 8 4 9.79086 4 12C4 14.2091 7.58172 16 12 16Z" fill="#383F47"/>
<path d="M20 8C20 10.2091 16.4183 12 12 12C7.58172 12 4 10.2091 4 8C4 5.79086 7.58172 4 12 4C16.4183 4 20 5.79086 20 8Z" fill="#383F47"/>
</svg>
