<svg width="24" height="24" viewBox="0 0 24 24" fill="none" xmlns="http://www.w3.org/2000/svg">
<path d="M9.29683 4.84375C9.30465 5.3125 9.60933 5.60938 10.125 5.60938H16.1406C16.8671 5.60938 17.2656 5.98438 17.2656 6.74219V14.8984L16.1562 13.6953L15.5234 13.0625C15.1953 12.75 14.75 12.7266 14.4218 13.0469C14.1093 13.3672 14.1171 13.8281 14.4375 14.1484L17.1015 16.8047C17.6875 17.3828 18.3593 17.3828 18.9453 16.8047L21.6093 14.1484C21.9296 13.8281 21.9375 13.3672 21.625 13.0469C21.2968 12.7266 20.8515 12.75 20.5234 13.0625L19.8906 13.6953L18.789 14.8906V6.61719C18.789 4.94531 17.914 4.07812 16.2265 4.07812H10.125C9.60933 4.07812 9.28902 4.375 9.29683 4.84375ZM2.38277 9.6875C2.70308 10.0156 3.14839 9.99219 3.47652 9.67188L4.11714 9.04688L5.21089 7.85156V16.125C5.21089 17.7969 6.0859 18.6641 7.7734 18.6641H13.875C14.3906 18.6641 14.7109 18.3672 14.7031 17.8984C14.6953 17.4219 14.3906 17.1328 13.875 17.1328H7.86715C7.14058 17.1328 6.74215 16.75 6.74215 15.9922V7.83594L7.84371 9.04688L8.48433 9.67188C8.80465 9.99219 9.25777 10.0156 9.57808 9.6875C9.8984 9.36719 9.89058 8.91406 9.56246 8.59375L6.8984 5.9375C6.31246 5.35156 5.64839 5.35156 5.06246 5.9375L2.39839 8.59375C2.07027 8.91406 2.06246 9.36719 2.38277 9.6875Z" fill="#383F47"/>
</svg>
