<svg width="400" height="400" viewBox="0 0 400 400" fill="none" xmlns="http://www.w3.org/2000/svg">
<rect width="400" height="400" fill="#298DFF"/>
<path fill-rule="evenodd" clip-rule="evenodd" d="M197.376 71.3347C198.854 69.5551 201.617 69.5551 203.094 71.3347L280.465 164.535L280.715 164.849C294.951 182.255 303.47 204.374 303.471 228.453C303.471 284.533 257.256 329.998 200.24 330C143.223 330 97 284.534 97 228.453C97.001 204.375 105.52 182.255 119.756 164.849L120.006 164.546L197.376 71.3347ZM138.523 178.129C127.606 191.477 121.069 208.448 121.068 226.913C121.068 269.921 156.51 304.789 200.23 304.791C212.695 304.791 224.493 301.954 234.984 296.905L234.996 296.899C235.197 296.798 235.337 296.604 235.369 296.381C236.074 290.481 235.777 283.729 234.151 276.87C230.251 260.431 216.717 245.436 193.471 232.401C166.73 217.454 150.739 198.154 146.261 175.008C146.023 173.777 145.813 172.551 145.647 171.332C145.567 170.744 144.826 170.531 144.447 170.988L138.523 178.129ZM204.156 108.504C202.132 106.065 198.339 106.065 196.314 108.504L184.775 122.412C181.245 126.711 177.091 133.852 174.298 142.374C171.504 150.898 170.051 160.849 171.996 170.756C175.007 186.079 186.483 199.563 206.521 210.763C236.193 227.395 254.216 247.942 259.75 271.895C260.043 273.162 260.296 274.42 260.51 275.665C260.613 276.242 261.346 276.432 261.718 275.98C272.775 262.589 279.402 245.508 279.402 226.913C279.402 208.594 272.965 191.748 262.202 178.449C262.199 178.446 262.2 178.441 262.202 178.438C262.205 178.435 262.206 178.43 262.203 178.427L204.156 108.504Z" fill="white"/>
</svg>
