<svg width="1914" height="1001" viewBox="0 0 1914 1001" fill="none" xmlns="http://www.w3.org/2000/svg">
<path d="M1673.47 620.96C1673.47 648.235 1667.46 670.938 1655.63 688.449C1643.93 706.001 1629.22 719.186 1611.87 727.673C1594.69 736.161 1577.55 740.487 1560.99 740.487C1533.47 740.487 1510.47 731.011 1492.76 712.346C1475.12 693.599 1466.22 668.013 1466.22 636.287V349.562H1388.52V641.025C1388.52 679.961 1394.98 712.758 1407.8 738.551C1420.65 764.302 1438.66 783.914 1461.28 796.811C1483.78 809.46 1509.82 815.887 1538.66 815.887C1573.51 815.887 1602.85 807.606 1625.84 791.29C1646.61 776.374 1662.59 758.287 1673.47 737.48V809.996H1751.18V349.562H1673.47V621.001V620.96Z" fill="white"/>
<path d="M1272.62 519.303C1254.74 506.613 1235.7 496.436 1216.05 489.061C1196.89 481.85 1179.25 476.082 1163.56 471.921L1102 455.357C1090.96 452.473 1078.68 448.641 1065.58 443.986C1052.56 439.206 1039.91 433.067 1028.08 425.815C1016.46 418.481 1006.78 409.295 999.283 398.459C992.114 387.623 988.488 374.438 988.488 359.235C988.488 340.982 993.762 324.46 1004.19 310.163C1014.86 295.701 1029.98 284.164 1049.01 275.882C1068.42 267.518 1091.45 263.274 1117.45 263.274C1152.97 263.274 1183.29 271.35 1207.64 287.337C1231.58 303.035 1245.43 325.407 1248.8 353.837L1249.22 357.463H1327.79L1327.62 353.219C1326.63 322.07 1316.83 293.847 1298.58 269.372C1280.57 244.981 1255.85 225.533 1225.15 211.566C1194.54 197.433 1159.07 190.305 1119.8 190.305C1080.53 190.305 1045.18 197.557 1013.58 211.854C982.06 226.028 956.556 246.258 937.768 272.051C919.062 297.761 909.586 328.292 909.586 362.778C909.586 404.433 923.924 438.629 952.148 464.422C979.959 489.844 1018.15 509.662 1065.66 523.341L1139.87 544.56C1160.75 550.37 1180.49 557.251 1198.5 564.997C1216.09 572.578 1230.47 582.508 1241.22 594.58C1251.65 606.281 1256.96 621.815 1256.96 640.726C1256.96 661.657 1250.74 680.198 1238.42 695.855C1225.98 711.512 1208.8 723.955 1187.41 732.855C1165.86 741.631 1141.1 746.08 1113.91 746.08C1090.55 746.08 1068.38 742.578 1048.15 735.698C1028.29 728.693 1011.6 717.981 998.624 703.848C985.933 689.675 978.558 671.463 976.704 649.708L976.374 645.959H892.816L893.146 650.368C895.536 683.947 906.001 713.902 924.254 739.323C942.671 764.745 968.175 784.811 1000.11 798.984C1032.08 813.075 1070.4 820.245 1113.95 820.245C1160.67 820.245 1201.01 812.293 1233.77 796.595C1266.89 780.814 1292.44 759.224 1309.62 732.401C1327.05 705.538 1335.91 675.089 1335.91 641.839C1335.91 612.956 1329.85 588.193 1317.94 568.21C1306.12 548.351 1290.87 531.911 1272.62 519.262V519.303Z" fill="white"/>
<path d="M1913.52 230.012C1913.52 215.921 1908.13 203.725 1897.54 193.754C1887.15 183.825 1874.55 178.798 1859.96 178.798C1845.37 178.798 1832.68 183.825 1822.1 193.795C1811.67 203.766 1806.4 215.962 1806.4 230.053C1806.4 244.145 1811.67 256.299 1822.14 266.311C1832.68 276.241 1845.42 281.268 1860 281.268C1874.59 281.268 1886 276.694 1896.05 267.712L1896.51 267.3C1896.88 266.971 1897.25 266.641 1897.62 266.27L1899.1 264.828C1908.74 255.104 1913.61 243.403 1913.61 230.012H1913.52Z" fill="white"/>
<path d="M1898.19 349.511H1820.48V809.948H1898.19V349.511Z" fill="white"/>
<path fill-rule="evenodd" clip-rule="evenodd" d="M626.027 417.029C666.817 468.244 691.209 533.014 691.209 603.469C691.209 673.925 666.076 740.673 624.214 792.176L620.588 796.626L619.641 790.981C618.817 786.201 617.869 781.34 616.757 776.478C595.785 684.349 527.471 605.365 415.03 541.378C339.095 498.28 295.626 446.448 284.213 387.487C276.838 349.375 282.318 311.098 292.907 278.301C303.496 245.545 319.235 218.063 332.626 201.541L376.383 148.06C384.046 138.666 398.426 138.666 406.09 148.06L626.068 417.029H626.027ZM695.206 363.59L402.01 5.12968C396.407 -1.70989 385.942 -1.70989 380.338 5.12968L87.184 363.59L86.2363 364.784C32.3026 431.738 0 516.821 0 609.444C0 825.138 175.151 1000 391.174 1000C607.198 1000 782.349 825.138 782.349 609.444C782.349 516.821 750.046 431.738 696.112 364.826L695.165 363.631L695.206 363.59ZM157.351 415.876L183.556 383.779L184.339 389.712C184.957 394.409 185.74 399.106 186.646 403.844C203.622 492.883 264.23 567.088 365.546 624.565C453.637 674.708 504.934 732.35 519.684 795.554C525.864 821.924 526.936 847.881 524.258 870.584L524.093 871.985L522.816 872.603C483.055 892.009 438.351 902.927 391.133 902.927C225.459 902.927 91.1394 768.855 91.1394 603.428C91.1394 532.396 115.902 467.172 157.269 415.793L157.351 415.876Z" fill="white"/>
</svg>
