<svg xmlns="http://www.w3.org/2000/svg" width="70" height="36" viewBox="0 0 70 36" fill="none">
  <path d="M45.6542 12.7244C45.527 11.6505 45.0112 10.8168 44.1069 10.2233C43.2025 9.62976 42.0932 9.33301 40.779 9.33301C39.8181 9.33301 38.9773 9.48845 38.2566 9.79933C37.543 10.1102 36.9849 10.5377 36.5821 11.0817C36.1865 11.6258 35.9886 12.244 35.9886 12.9364C35.9886 13.5158 36.1264 14.0139 36.402 14.4308C36.6846 14.8405 37.0449 15.1832 37.483 15.4588C37.921 15.7273 38.3803 15.9498 38.8607 16.1265C39.3412 16.296 39.7828 16.4338 40.1855 16.5398L42.3899 17.1333C42.9552 17.2817 43.584 17.4866 44.2764 17.748C44.9759 18.0094 45.6436 18.3662 46.2795 18.8184C46.9224 19.2635 47.4524 19.8358 47.8692 20.5353C48.2861 21.2348 48.4945 22.0933 48.4945 23.1107C48.4945 24.2836 48.1872 25.3434 47.5725 26.2901C46.9648 27.2369 46.0746 27.9894 44.9017 28.5476C43.7359 29.1057 42.3193 29.3848 40.6518 29.3848C39.0974 29.3848 37.7515 29.134 36.6139 28.6324C35.4835 28.1307 34.5932 27.4312 33.9432 26.5339C33.3002 25.6366 32.9363 24.5944 32.8516 23.4074H35.5647C35.6354 24.227 35.9109 24.9053 36.3914 25.4423C36.8789 25.9722 37.4936 26.3679 38.2355 26.6293C38.9844 26.8836 39.7899 27.0108 40.6518 27.0108C41.6551 27.0108 42.556 26.8483 43.3544 26.5233C44.1528 26.1912 44.7851 25.732 45.2515 25.1455C45.7178 24.552 45.9509 23.8596 45.9509 23.0683C45.9509 22.3476 45.7496 21.7612 45.3468 21.309C44.9441 20.8568 44.4142 20.4894 43.7571 20.2068C43.1 19.9242 42.3899 19.6769 41.6269 19.4649L38.9561 18.7018C37.2604 18.2143 35.918 17.5184 34.9288 16.614C33.9396 15.7096 33.4451 14.5261 33.4451 13.0636C33.4451 11.8483 33.7736 10.7885 34.4307 9.88412C35.0948 8.97267 35.9851 8.26613 37.1014 7.76448C38.2249 7.25576 39.479 7.00141 40.8638 7.00141C42.2628 7.00141 43.5063 7.25223 44.5944 7.75388C45.6825 8.24846 46.5444 8.92675 47.1803 9.78874C47.8233 10.6507 48.1624 11.6293 48.1978 12.7244H45.6542Z" fill="#F7F7F8"/>
  <path d="M60.9452 22.3476V12.7244H63.4464V29.0033H60.9452V26.2478H60.7756C60.3941 27.0744 59.8006 27.7774 58.9951 28.3568C58.1896 28.9291 57.1722 29.2153 55.9428 29.2153C54.9254 29.2153 54.021 28.9927 53.2297 28.5476C52.4384 28.0954 51.8166 27.4171 51.3644 26.5127C50.9122 25.6013 50.6861 24.4531 50.6861 23.0683V12.7244H53.1873V22.8987C53.1873 24.0857 53.5194 25.0325 54.1835 25.739C54.8547 26.4456 55.7097 26.7989 56.7483 26.7989C57.3701 26.7989 58.0024 26.6399 58.6454 26.3219C59.2954 26.004 59.8394 25.5165 60.2775 24.8594C60.7226 24.2023 60.9452 23.365 60.9452 22.3476Z" fill="#F7F7F8"/>
  <path d="M66.2368 29.0033V12.7244H68.7379V29.0033H66.2368ZM67.5085 10.0113C67.021 10.0113 66.6006 9.84526 66.2474 9.51318C65.9012 9.18111 65.728 8.78191 65.728 8.31559C65.728 7.84927 65.9012 7.45007 66.2474 7.11799C66.6006 6.78591 67.021 6.61987 67.5085 6.61987C67.9961 6.61987 68.4129 6.78591 68.7591 7.11799C69.1124 7.45007 69.289 7.84927 69.289 8.31559C69.289 8.78191 69.1124 9.18111 68.7591 9.51318C68.4129 9.84526 67.9961 10.0113 67.5085 10.0113Z" fill="#F7F7F8"/>
  <path fill-rule="evenodd" clip-rule="evenodd" d="M45.4886 12.9095L45.4691 12.7449C45.3484 11.7257 44.863 10.941 44.0047 10.3778C43.1367 9.80813 42.0649 9.51808 40.7792 9.51808C39.8382 9.51808 39.0236 9.67028 38.331 9.96902C37.6432 10.2687 37.1131 10.6769 36.7327 11.1906C36.3612 11.7016 36.1753 12.281 36.1753 12.9349C36.1753 13.483 36.305 13.9435 36.5567 14.3249C36.824 14.7121 37.165 15.0367 37.5815 15.2989C38.0085 15.5605 38.456 15.7773 38.9241 15.9495C39.4003 16.1176 39.8366 16.2536 40.2331 16.358L40.2341 16.3582L42.4374 16.9514C42.4376 16.9515 42.4378 16.9515 42.4379 16.9515C43.0106 17.1019 43.6455 17.3089 44.3422 17.5719C45.057 17.8391 45.7386 18.2035 46.3867 18.6642C47.0521 19.1251 47.5998 19.7173 48.0296 20.4384C48.4675 21.1731 48.6812 22.0665 48.6812 23.1092C48.6812 24.3164 48.3643 25.4116 47.7294 26.3897C47.1003 27.3698 46.1814 28.1437 44.9824 28.7143C43.7853 29.2875 42.3395 29.5699 40.652 29.5699C39.0779 29.5699 37.7052 29.3159 36.5388 28.8016L36.5384 28.8014C35.3814 28.288 34.4638 27.5688 33.7923 26.6419L33.7917 26.6411C33.1271 25.7136 32.7527 24.6378 32.6656 23.4193L32.6514 23.2194H35.736L35.7507 23.39C35.8183 24.1748 36.0804 24.813 36.5297 25.3155C36.9943 25.8202 37.5817 26.1995 38.2966 26.4516C39.0243 26.6986 39.809 26.8228 40.652 26.8228C41.6347 26.8228 42.5108 26.6638 43.2833 26.3494C44.0568 26.0277 44.6617 25.5862 45.1054 25.0282C45.5443 24.4694 45.7646 23.8183 45.7646 23.0668C45.7646 22.3827 45.5744 21.8433 45.2077 21.4316C44.8261 21.0031 44.3201 20.6504 43.6835 20.3767C43.035 20.0977 42.3329 19.8531 41.5771 19.6432L41.5758 19.6428L38.905 18.8797L38.9047 18.8796C37.1898 18.3866 35.8191 17.6791 34.8031 16.7502C33.7715 15.807 33.2587 14.5717 33.2587 13.0621C33.2587 11.8111 33.5976 10.7121 34.2799 9.77302L34.2801 9.77281C34.9649 8.83301 35.8817 8.10676 37.0249 7.59299C38.1752 7.07213 39.4559 6.81342 40.8639 6.81342C42.2852 6.81342 43.5559 7.06828 44.6721 7.58282C45.7854 8.08892 46.6735 8.78604 47.3303 9.67618C47.9963 10.5692 48.3478 11.5847 48.3843 12.717L48.3905 12.9095H45.4886ZM47.1805 9.78728C46.5446 8.92529 45.6826 8.247 44.5945 7.75242C43.5064 7.25077 42.2629 6.99995 40.8639 6.99995C39.4791 6.99995 38.225 7.25431 37.1016 7.76302C35.9852 8.26467 35.095 8.97122 34.4308 9.88266C33.7737 10.787 33.4452 11.8469 33.4452 13.0621C33.4452 14.5247 33.9398 15.7081 34.9289 16.6125C35.9181 17.5169 37.2605 18.2129 38.9563 18.7004L41.627 19.4634C42.3901 19.6754 43.1002 19.9227 43.7572 20.2053C44.4143 20.4879 44.9442 20.8553 45.347 21.3075C45.7497 21.7597 45.9511 22.3462 45.9511 23.0668C45.9511 23.8582 45.7179 24.5506 45.2516 25.1441C44.7853 25.7305 44.1529 26.1898 43.3545 26.5219C42.5561 26.8469 41.6553 27.0094 40.652 27.0094C39.79 27.0094 38.9845 26.8822 38.2356 26.6278C37.4937 26.3664 36.879 25.9707 36.3915 25.4408C35.911 24.9039 35.6355 24.2256 35.5648 23.406H32.8517C32.8562 23.4686 32.8614 23.5307 32.8674 23.5925C32.9756 24.7025 33.3342 25.6824 33.9433 26.5325C34.5933 27.4298 35.4836 28.1292 36.6141 28.6309C37.7516 29.1325 39.0976 29.3834 40.652 29.3834C42.3194 29.3834 43.7361 29.1043 44.9019 28.5461C46.0747 27.9879 46.965 27.2355 47.5726 26.2887C48.1873 25.3419 48.4946 24.2821 48.4946 23.1092C48.4946 22.0918 48.2862 21.2333 47.8694 20.5339C47.4525 19.8344 46.9226 19.2621 46.2796 18.817C45.6437 18.3648 44.976 18.008 44.2766 17.7465C43.5841 17.4851 42.9553 17.2802 42.3901 17.1318L40.1857 16.5383C39.7829 16.4324 39.3413 16.2946 38.8609 16.125C38.3804 15.9484 37.9212 15.7258 37.4831 15.4573C37.0451 15.1818 36.6847 14.8391 36.4021 14.4293C36.1265 14.0124 35.9888 13.5143 35.9888 12.9349C35.9888 12.2425 36.1866 11.6243 36.5823 11.0803C36.985 10.5362 37.5432 10.1088 38.2568 9.79788C38.9775 9.48699 39.8182 9.33155 40.7792 9.33155C42.0933 9.33155 43.2026 9.6283 44.107 10.2218C45.0114 10.8153 45.5272 11.649 45.6543 12.723H48.1979C48.1959 12.6604 48.1929 12.5982 48.1889 12.5365C48.1228 11.5164 47.7867 10.6 47.1805 9.78728ZM60.7588 12.5365H63.633V29.1884H60.7588V26.6899C60.3658 27.3913 59.813 27.9969 59.1042 28.5068L59.1033 28.5074C58.2593 29.1071 57.2015 29.4003 55.943 29.4003C54.8974 29.4003 53.9609 29.1713 53.1384 28.7087L53.1373 28.7081C52.3105 28.2356 51.6645 27.5282 51.1977 26.5947L51.1974 26.5942C50.7287 25.6494 50.4997 24.4706 50.4997 23.0668V12.5365H53.374V22.8973C53.374 24.0478 53.6947 24.9449 54.3192 25.6094C54.9527 26.2761 55.7573 26.6109 56.7484 26.6109C57.3374 26.6109 57.9416 26.4605 58.5628 26.1533L58.5635 26.1529C59.1812 25.8508 59.701 25.3867 60.1224 24.7545L60.1232 24.7533C60.5422 24.1348 60.7588 23.3368 60.7588 22.3462V12.5365ZM54.1837 25.7376C53.5195 25.031 53.1874 24.0843 53.1874 22.8973V12.723H50.6863V23.0668C50.6863 24.4517 50.9123 25.5998 51.3645 26.5113C51.8167 27.4156 52.4385 28.0939 53.2298 28.5461C54.0212 28.9912 54.9255 29.2138 55.943 29.2138C57.1724 29.2138 58.1898 28.9276 58.9952 28.3553C59.7889 27.7845 60.3767 27.0936 60.7588 26.2827C60.7645 26.2706 60.7701 26.2584 60.7757 26.2463H60.9453V29.0018H63.4465V12.723H60.9453V22.3462C60.9453 23.3636 60.7228 24.2008 60.2776 24.8579C59.8396 25.515 59.2955 26.0025 58.6455 26.3205C58.0025 26.6384 57.3702 26.7974 56.7484 26.7974C55.7098 26.7974 54.8549 26.4441 54.1837 25.7376ZM66.0504 29.1884V12.5365H68.9246V29.1884H66.0504ZM66.1197 9.64763L66.1184 9.64635C65.7367 9.28022 65.5417 8.83289 65.5417 8.31413C65.5417 7.79537 65.7367 7.34803 66.1184 6.98191L66.1197 6.98061C66.5078 6.61583 66.974 6.43188 67.5087 6.43188C68.0432 6.43188 68.5063 6.61573 68.8878 6.98134C69.2764 7.34696 69.4757 7.79442 69.4757 8.31413C69.4757 8.83385 69.2764 9.28132 68.8878 9.64695C68.5063 10.0125 68.0432 10.1964 67.5087 10.1964C66.974 10.1964 66.5078 10.0124 66.1197 9.64763ZM68.7593 9.51172C69.1125 9.17965 69.2892 8.78045 69.2892 8.31413C69.2892 7.84781 69.1125 7.44861 68.7593 7.11653C68.4131 6.78445 67.9962 6.61841 67.5087 6.61841C67.0212 6.61841 66.6008 6.78445 66.2475 7.11653C65.9013 7.44861 65.7282 7.84781 65.7282 8.31413C65.7282 8.78045 65.9013 9.17965 66.2475 9.51172C66.6008 9.8438 67.0212 10.0098 67.5087 10.0098C67.9962 10.0098 68.4131 9.8438 68.7593 9.51172ZM66.2369 29.0018H68.7381V12.723H66.2369V29.0018Z" fill="#F7F7F8"/>
  <path fill-rule="evenodd" clip-rule="evenodd" d="M22.5363 15.0142L22.5357 15.0158C24.0044 16.8574 24.8821 19.1898 24.8821 21.7268C24.8821 24.3014 23.9781 26.6655 22.4698 28.5196L22.3399 28.6792L22.3055 28.4763C22.2762 28.3038 22.2418 28.1296 22.2018 27.954C21.447 24.6374 18.9876 21.7934 14.9397 19.4907C12.2063 17.9399 10.6417 16.0727 10.2309 13.9511C9.96558 12.5792 10.1628 11.2012 10.544 10.0209C10.9251 8.84103 11.4919 7.85247 11.9735 7.2573L11.9738 7.25692L13.5484 5.3315C13.8246 4.99384 14.3413 4.99384 14.6175 5.3315L22.5363 15.0142ZM25.0269 13.0906L25.0272 13.0898L14.4731 0.184802C14.2715 -0.0616007 13.8943 -0.0616009 13.6928 0.184802L3.13849 13.09L3.13878 13.0907L3.10444 13.1333C1.16226 15.5434 0 18.6061 0 21.9402C0 29.7051 6.30498 36 14.0829 36C21.8608 36 28.1658 29.7051 28.1658 21.9402C28.1658 18.6062 27.0035 15.5434 25.0614 13.1333L25.0269 13.0906ZM5.66381 14.9727L5.66423 14.9721L6.60825 13.8178L6.63678 14.0309C6.65938 14.1997 6.68678 14.3694 6.71928 14.5398C7.33009 17.7446 9.51208 20.4169 13.1602 22.4865C16.3312 24.2912 18.1775 26.3666 18.7095 28.6427C18.9314 29.5926 18.971 30.5272 18.8749 31.3443L18.8689 31.3948L18.8232 31.4172C17.3919 32.1164 15.783 32.5088 14.0826 32.5088C8.11832 32.5088 3.28308 27.6817 3.28308 21.7268C3.28308 19.1701 4.17443 16.8208 5.66381 14.9727Z" fill="#F7F7F8"/>
</svg>