<svg width="226" height="118" viewBox="0 0 226 118" fill="none" xmlns="http://www.w3.org/2000/svg">
<path d="M148.51 41.3919C148.097 37.8985 146.419 35.1864 143.477 33.2558C140.535 31.3252 136.927 30.3598 132.652 30.3598C129.526 30.3598 126.791 30.8655 124.447 31.8768C122.125 32.888 120.31 34.2785 119 36.0483C117.712 37.818 117.069 39.8291 117.069 42.0814C117.069 43.9661 117.517 45.5864 118.413 46.9425C119.333 48.2755 120.505 49.3902 121.93 50.2866C123.355 51.1599 124.849 51.8839 126.412 52.4585C127.975 53.0101 129.411 53.4583 130.721 53.803L137.892 55.7337C139.731 56.2163 141.776 56.8828 144.029 57.7332C146.304 58.5836 148.476 59.7443 150.544 61.2152C152.636 62.6632 154.36 64.5249 155.716 66.8002C157.072 69.0756 157.75 71.8681 157.75 75.1777C157.75 78.993 156.75 82.4405 154.75 85.5203C152.774 88.6001 149.878 91.0479 146.063 92.8635C142.27 94.6792 137.662 95.5871 132.238 95.5871C127.182 95.5871 122.803 94.7712 119.103 93.1394C115.426 91.5075 112.53 89.2322 110.415 86.3132C108.324 83.3943 107.14 80.0043 106.864 76.143H115.69C115.92 78.8091 116.816 81.0155 118.379 82.7623C119.965 84.486 121.964 85.7731 124.378 86.6235C126.814 87.4509 129.434 87.8646 132.238 87.8646C135.502 87.8646 138.432 87.336 141.029 86.2788C143.626 85.1985 145.683 83.7046 147.2 81.797C148.717 79.8664 149.476 77.614 149.476 75.0398C149.476 72.6955 148.821 70.7879 147.511 69.3169C146.201 67.846 144.477 66.6508 142.339 65.7315C140.202 64.8122 137.892 64.0077 135.41 63.3182L126.722 60.836C121.206 59.2501 116.839 56.9863 113.621 54.0444C110.404 51.1025 108.795 47.2527 108.795 42.4951C108.795 38.542 109.864 35.0945 112.001 32.1526C114.162 29.1877 117.057 26.8893 120.689 25.2575C124.343 23.6027 128.423 22.7753 132.928 22.7753C137.478 22.7753 141.523 23.5912 145.063 25.223C148.602 26.8319 151.406 29.0383 153.475 31.8423C155.566 34.6463 156.67 37.8295 156.784 41.3919H148.51Z" fill="white"/>
<path d="M198.251 72.6955V41.3919H206.387V94.346H198.251V85.3824H197.699C196.458 88.0715 194.528 90.3583 191.908 92.243C189.287 94.1047 185.978 95.0355 181.979 95.0355C178.669 95.0355 175.727 94.3115 173.153 92.8635C170.579 91.3926 168.556 89.1862 167.085 86.2443C165.614 83.2794 164.879 79.5446 164.879 75.0398V41.3919H173.015V74.4882C173.015 78.3494 174.095 81.4292 176.256 83.7276C178.439 86.0259 181.22 87.1751 184.599 87.1751C186.621 87.1751 188.678 86.658 190.77 85.6237C192.884 84.5895 194.654 83.0036 196.079 80.8661C197.527 78.7287 198.251 76.0051 198.251 72.6955Z" fill="white"/>
<path d="M215.464 94.346V41.3919H223.6V94.346H215.464ZM219.601 32.5663C218.015 32.5663 216.648 32.0262 215.499 30.9459C214.372 29.8657 213.809 28.5671 213.809 27.0502C213.809 25.5333 214.372 24.2347 215.499 23.1545C216.648 22.0743 218.015 21.5342 219.601 21.5342C221.187 21.5342 222.543 22.0743 223.669 23.1545C224.818 24.2347 225.393 25.5333 225.393 27.0502C225.393 28.5671 224.818 29.8657 223.669 30.9459C222.543 32.0262 221.187 32.5663 219.601 32.5663Z" fill="white"/>
<path fill-rule="evenodd" clip-rule="evenodd" d="M147.972 41.9937L147.908 41.4583C147.516 38.1428 145.936 35.5903 143.144 33.758C140.321 31.9051 136.834 30.9616 132.652 30.9616C129.591 30.9616 126.941 31.4566 124.688 32.4284C122.451 33.4032 120.727 34.7312 119.489 36.4021C118.281 38.0644 117.676 39.9491 117.676 42.0764C117.676 43.8591 118.098 45.3571 118.917 46.5979C119.786 47.8574 120.895 48.9132 122.25 49.7661C123.639 50.6171 125.095 51.3225 126.618 51.8826C128.167 52.4293 129.586 52.8718 130.876 53.2112L130.879 53.2121L138.046 55.1417C138.047 55.1419 138.047 55.142 138.048 55.1422C139.911 55.6313 141.976 56.3046 144.242 57.1602C146.568 58.0294 148.785 59.2146 150.893 60.7134C153.058 62.2126 154.839 64.1388 156.237 66.4846C157.662 68.8747 158.357 71.7807 158.357 75.1727C158.357 79.0997 157.326 82.6623 155.261 85.844C153.214 89.0322 150.225 91.5494 146.325 93.4058C142.431 95.2703 137.728 96.1888 132.238 96.1888C127.118 96.1888 122.653 95.3627 118.858 93.6895L118.857 93.6889C115.094 92.0188 112.108 89.6795 109.924 86.6642L109.922 86.6616C107.76 83.6445 106.542 80.1452 106.259 76.1812L106.213 75.5312H116.247L116.295 76.0859C116.515 78.6389 117.367 80.7149 118.829 82.3497C120.34 83.9915 122.251 85.2251 124.577 86.0451C126.944 86.8486 129.496 87.2528 132.238 87.2528C135.435 87.2528 138.285 86.7354 140.798 85.7129C143.314 84.6662 145.282 83.23 146.725 81.4151C148.153 79.5973 148.869 77.4792 148.869 75.0348C148.869 72.8094 148.251 71.0548 147.058 69.7154C145.816 68.3217 144.17 67.1744 142.1 66.2839C139.99 65.3764 137.706 64.5808 135.248 63.8978L135.243 63.8966L126.556 61.4144L126.555 61.4141C120.976 59.8102 116.517 57.5089 113.212 54.4871C109.857 51.4191 108.188 47.4007 108.188 42.4901C108.188 38.4206 109.291 34.8456 111.51 31.7909L111.511 31.7902C113.739 28.7331 116.721 26.3706 120.44 24.6994C124.182 23.005 128.348 22.1635 132.928 22.1635C137.551 22.1635 141.685 22.9925 145.316 24.6663C148.937 26.3126 151.826 28.5803 153.963 31.4759C156.129 34.3809 157.272 37.684 157.391 41.3673L157.411 41.9937H147.972ZM153.475 31.8372C151.407 29.0332 148.603 26.8268 145.063 25.218C141.524 23.5862 137.479 22.7702 132.928 22.7702C128.423 22.7702 124.344 23.5976 120.689 25.2525C117.058 26.8843 114.162 29.1826 112.001 32.1475C109.864 35.0894 108.795 38.5369 108.795 42.4901C108.795 47.2477 110.404 51.0974 113.622 54.0393C116.839 56.9812 121.206 59.2451 126.722 60.831L135.41 63.3132C137.892 64.0027 140.202 64.8071 142.34 65.7265C144.477 66.6458 146.201 67.8409 147.511 69.3119C148.821 70.7828 149.476 72.6905 149.476 75.0348C149.476 77.6089 148.718 79.8613 147.201 81.7919C145.684 83.6996 143.627 85.1935 141.03 86.2737C138.432 87.331 135.502 87.8596 132.238 87.8596C129.434 87.8596 126.814 87.4459 124.378 86.6185C121.965 85.7681 119.965 84.481 118.379 82.7573C116.816 81.0105 115.92 78.8041 115.69 76.138H106.865C106.879 76.3416 106.896 76.5438 106.916 76.7448C107.268 80.3554 108.434 83.5432 110.415 86.3082C112.53 89.2271 115.426 91.5025 119.103 93.1343C122.804 94.7662 127.182 95.5821 132.238 95.5821C137.662 95.5821 142.271 94.6742 146.063 92.8585C149.878 91.0428 152.774 88.5951 154.751 85.5153C156.75 82.4355 157.75 78.988 157.75 75.1727C157.75 71.8631 157.072 69.0706 155.716 66.7952C154.36 64.5198 152.636 62.6582 150.545 61.2102C148.476 59.7392 146.304 58.5786 144.029 57.7282C141.777 56.8778 139.731 56.2113 137.892 55.7286L130.721 53.798C129.411 53.4533 127.975 53.0051 126.412 52.4535C124.849 51.8789 123.355 51.1549 121.93 50.2815C120.505 49.3852 119.333 48.2705 118.414 46.9374C117.517 45.5814 117.069 43.9611 117.069 42.0764C117.069 39.824 117.713 37.813 119 36.0432C120.31 34.2735 122.126 32.883 124.447 31.8717C126.791 30.8604 129.526 30.3548 132.652 30.3548C136.927 30.3548 140.535 31.3201 143.477 33.2507C146.419 35.1813 148.097 37.8934 148.511 41.3869H156.785C156.778 41.1834 156.768 40.9811 156.755 40.7801C156.541 37.462 155.447 34.4811 153.475 31.8372ZM197.645 40.7801H206.994V94.9477H197.645V86.8204C196.366 89.1019 194.568 91.0719 192.262 92.7305L192.259 92.7326C189.514 94.6833 186.073 95.6372 181.979 95.6372C178.578 95.6372 175.531 94.8923 172.856 93.3874L172.852 93.3853C170.163 91.8485 168.061 89.5475 166.543 86.5106L166.542 86.5089C165.017 83.4356 164.272 79.6011 164.272 75.0348V40.7801H173.622V74.4832C173.622 78.2257 174.666 81.144 176.697 83.3057C178.758 85.4742 181.375 86.5633 184.599 86.5633C186.515 86.5633 188.48 86.0741 190.501 85.0748L190.504 85.0736C192.513 84.0908 194.203 82.5811 195.574 80.5245L195.577 80.5208C196.94 78.5087 197.645 75.9128 197.645 72.6905V40.7801ZM176.256 83.7226C174.096 81.4242 173.015 78.3444 173.015 74.4832V41.3869H164.879V75.0348C164.879 79.5396 165.615 83.2744 167.086 86.2393C168.557 89.1812 170.579 91.3876 173.153 92.8585C175.727 94.3065 178.669 95.0305 181.979 95.0305C185.978 95.0305 189.288 94.0996 191.908 92.238C194.489 90.381 196.402 88.1336 197.645 85.4957C197.663 85.4563 197.681 85.4169 197.7 85.3774H198.251V94.341H206.387V41.3869H198.251V72.6905C198.251 76.0001 197.527 78.7236 196.079 80.8611C194.654 82.9986 192.885 84.5844 190.77 85.6187C188.679 86.653 186.622 87.1701 184.599 87.1701C181.22 87.1701 178.439 86.0209 176.256 83.7226ZM214.858 94.9477V40.7801H224.207V94.9477H214.858ZM215.083 31.383L215.079 31.3788C213.837 30.1878 213.203 28.7327 213.203 27.0452C213.203 25.3577 213.837 23.9025 215.079 22.7116L215.083 22.7073C216.346 21.5207 217.862 20.9224 219.601 20.9224C221.34 20.9224 222.847 21.5204 224.088 22.7097C225.352 23.8991 226 25.3546 226 27.0452C226 28.7358 225.352 30.1914 224.088 31.3808C222.847 32.57 221.34 33.168 219.601 33.168C217.862 33.168 216.346 32.5696 215.083 31.383ZM223.67 30.9409C224.819 29.8607 225.393 28.5621 225.393 27.0452C225.393 25.5283 224.819 24.2297 223.67 23.1495C222.543 22.0692 221.187 21.5291 219.601 21.5291C218.016 21.5291 216.648 22.0692 215.499 23.1495C214.373 24.2297 213.81 25.5283 213.81 27.0452C213.81 28.5621 214.373 29.8607 215.499 30.9409C216.648 32.0211 218.016 32.5612 219.601 32.5612C221.187 32.5612 222.543 32.0211 223.67 30.9409ZM215.464 94.341H223.601V41.3869H215.464V94.341Z" fill="white"/>
<path fill-rule="evenodd" clip-rule="evenodd" d="M73.3093 48.8404L73.3072 48.8455C78.0847 54.8359 80.9398 62.4233 80.9398 70.6757C80.9398 79.0509 77.9991 86.7412 73.0928 92.7723L72.6703 93.2916L72.5583 92.6316C72.4631 92.0703 72.3511 91.5038 72.2211 90.9325C69.7656 80.1439 61.7653 70.8926 48.598 63.4019C39.7063 58.3575 34.6167 52.2833 33.2804 45.382C32.4174 40.9193 33.059 36.4368 34.299 32.5974C35.5385 28.7593 37.3825 25.5436 38.949 23.6075L38.95 23.6063L44.0721 17.343C44.9704 16.2446 46.6515 16.2446 47.5498 17.343L73.3093 48.8404ZM81.4109 42.5828L81.4119 42.5804L47.0799 0.601151C46.4244 -0.200383 45.1972 -0.200384 44.5417 0.60115L10.2093 42.5809L10.2103 42.5832L10.0986 42.7218C3.78076 50.5616 0 60.5246 0 71.37C0 96.6286 20.5097 117.106 45.8107 117.106C71.1118 117.106 91.6215 96.6286 91.6215 71.37C91.6215 60.5246 87.8407 50.5616 81.523 42.7218L81.4109 42.5828ZM18.424 48.7051L18.4254 48.7034L21.4962 44.9485L21.589 45.6416C21.6625 46.1908 21.7517 46.7428 21.8574 47.2971C23.8443 57.7221 30.9422 66.4147 42.8092 73.1471C53.1243 79.0178 59.1302 85.7688 60.8607 93.1727C61.5826 96.2627 61.7114 99.3029 61.3987 101.961L61.3793 102.125L61.2305 102.198C56.5749 104.473 51.3412 105.749 45.8097 105.749C26.4084 105.749 10.6796 90.0467 10.6796 70.6757C10.6796 62.359 13.5792 54.7171 18.424 48.7051Z" fill="white"/>
</svg>
