<svg width="24" height="24" viewBox="0 0 24 24" fill="none" xmlns="http://www.w3.org/2000/svg">
<path d="M12.2617 15.4307C12.6035 15.4307 12.8906 15.3008 13.1572 15.0273L18.2158 9.85254C18.4209 9.64746 18.5234 9.40137 18.5234 9.10059C18.5234 8.49219 18.0381 8 17.4365 8C17.1426 8 16.8623 8.12305 16.6367 8.34863L12.2686 12.8604L7.89355 8.34863C7.66797 8.12305 7.3877 8 7.08691 8C6.48535 8 6 8.49219 6 9.10059C6 9.39453 6.10254 9.64062 6.30762 9.85254L11.3662 15.0273C11.6465 15.3076 11.9268 15.4307 12.2617 15.4307Z" fill="#383F47"/>
</svg>
