<svg width="16" height="16" viewBox="0 0 16 16" fill="none" xmlns="http://www.w3.org/2000/svg">
<path d="M11.9375 12.1758H12.0645C12.958 12.1758 13.6416 11.6631 13.6416 10.5254V5.93555H10.8779C10.3896 5.93555 10.0723 5.61816 10.0723 5.13477V2.20996H7.43555C6.39062 2.20996 5.80469 2.79102 5.80469 3.82129V4.02148H6.58594C7.40137 4.02148 7.96289 4.21191 8.50488 4.75391L11.2734 7.52246C11.7959 8.04004 11.9375 8.66992 11.9375 9.43652V12.1758ZM11.0342 5.24707H13.5488C13.5293 5.07617 13.4023 4.91504 13.2021 4.71484L11.2881 2.74219C11.1025 2.55176 10.9365 2.41992 10.7656 2.40527V4.97363C10.7656 5.16406 10.8438 5.24707 11.0342 5.24707ZM4.99414 14.7344H9.5498C10.6191 14.7344 11.1904 14.1582 11.1904 13.0791V9.33887H7.66992C7.0498 9.33887 6.7373 9.02637 6.7373 8.40625V4.76855H4.99414C3.9248 4.76855 3.35352 5.33984 3.35352 6.41895V13.0791C3.35352 14.1631 3.91992 14.7344 4.99414 14.7344ZM7.75781 8.5918H11.0977C11.0391 8.37207 10.9023 8.15723 10.6777 7.92773L8.13379 5.34961C7.9043 5.11523 7.7041 4.95898 7.48438 4.89062V8.31348C7.48438 8.49414 7.57715 8.5918 7.75781 8.5918Z" fill="#383F47"/>
</svg>
