<svg width="12" height="12" viewBox="0 0 12 12" fill="none" xmlns="http://www.w3.org/2000/svg">
<path d="M8.61328 9.14062H8.71484C9.42969 9.14062 9.97656 8.73047 9.97656 7.82031V4.14844H7.76562C7.375 4.14844 7.12109 3.89453 7.12109 3.50781V1.16797H5.01172C4.17578 1.16797 3.70703 1.63281 3.70703 2.45703V2.61719H4.33203C4.98438 2.61719 5.43359 2.76953 5.86719 3.20312L8.08203 5.41797C8.5 5.83203 8.61328 6.33594 8.61328 6.94922V9.14062ZM7.89062 3.59766H9.90234C9.88672 3.46094 9.78516 3.33203 9.625 3.17188L8.09375 1.59375C7.94531 1.44141 7.8125 1.33594 7.67578 1.32422V3.37891C7.67578 3.53125 7.73828 3.59766 7.89062 3.59766ZM3.05859 11.1875H6.70312C7.55859 11.1875 8.01562 10.7266 8.01562 9.86328V6.87109H5.19922C4.70312 6.87109 4.45312 6.62109 4.45312 6.125V3.21484H3.05859C2.20312 3.21484 1.74609 3.67188 1.74609 4.53516V9.86328C1.74609 10.7305 2.19922 11.1875 3.05859 11.1875ZM5.26953 6.27344H7.94141C7.89453 6.09766 7.78516 5.92578 7.60547 5.74219L5.57031 3.67969C5.38672 3.49219 5.22656 3.36719 5.05078 3.3125V6.05078C5.05078 6.19531 5.125 6.27344 5.26953 6.27344Z" fill="#383F47"/>
</svg>
