<?xml version="1.0" encoding="UTF-8"?>
<svg id="Layer_2" data-name="Layer 2" xmlns="http://www.w3.org/2000/svg" viewBox="0 0 361.09 347.11">
  <defs>
    <style>
      .cls-1 {
        fill: none;
      }

      .cls-2 {
        fill: #27c2b5;
      }

      .cls-3 {
        fill: #fff;
      }
    </style>
  </defs>
  <g id="Layer_1-2" data-name="Layer 1">
    <g>
      <rect class="cls-1" width="361.09" height="347.11"/>
      <g>
        <path class="cls-3" d="M300.66,138.07c-1.97,0-4.07.42-6.22,1.24l-.89.34-.78.56c-2.75,1.99-5.52,4.12-8.19,6.19-5.01,3.87-10.14,7.83-15.44,11.04-.95-1.99-2.31-3.94-3.9-5.56l.96-1.67c14.81-4.83,26.98-13.33,36.2-25.31,1.42-1.84,6.35-8.5,10.31-16.88,4.23-8.97,5.79-16.68,4.63-22.94-.98-5.3-3.88-9.56-8.4-12.32-6.3-3.86-14.82-5.73-26.02-5.73-1.68,0-3.35.04-4.97.11,0-.24-.01-.47-.03-.7-.2-3.6-1.29-6.84-3.25-9.61-4.56-6.46-13.21-9.73-25.72-9.73-3.82,0-8.03.32-12.2.92h-.06s-.06.02-.06.02c-2.32.37-4.18.78-5.82,1.14-2.4.53-3.99.88-5.9.88-1.33,0-2.86-.17-4.68-.53-14.86-3.64-24.45-5.61-32.45-5.61,0,0,0,0,0,0-12.12,0-19.83,4.4-33.83,12.4-2.59,1.48-5.43,3.1-8.6,4.87-14.58-7.43-31.82-11.8-46.9-11.8-8.21,0-15.78,1.24-22.48,3.7-1.43.52-3.55,1.38-5.59,2.5-3.67,2.02-6.01,4.32-7.15,7.05-1.05,2.5-1.01,5.23.11,7.67,1.52,3.33,4.74,4.9,11.86,8.13,1.32.6,3.13,1.42,3.62,1.7,8.65,5.19,15.99,14.56,20.1,25.5-10.32,13.2-16.69,27.14-18.95,41.53-20.82,16.43-32.89,35.03-35.87,55.31-.02.16-.05.34-.08.53-.66,4.38-1.77,11.72,2.38,16.54,1.99,2.31,4.81,3.58,7.96,3.58.79,0,1.62-.08,2.45-.24l1.51-.29,1.26-.88.3-.21c10.13-7.02,20.54-14.25,31.92-17.88,3.77,9.33,8.99,18.11,15.58,26.17,7.39,9.04,16.52,17.22,27.15,24.31,18.17,12.13,40.3,20.9,64.15,25.44,11.09,14.04,30.12,23.64,47.39,23.64,2.16,0,4.3-.15,6.37-.44h.02s.02,0,.02,0c2.15-.32,3.81-.79,5.23-1.48,3.47-1.68,4.63-4.38,5.02-5.83.48-1.8.75-5.38-2.77-9.11-1.12-1.18-2.4-2.19-3.54-3.09-.44-.35-1.09-.86-1.35-1.1-2.78-3.09-5.94-8.17-7.43-11.69,5.83-6.98,10.02-14.83,14.09-22.44,2.16-4.04,4.2-7.85,6.45-11.52.31-.5,1.41-2.03,2.3-3.25,5.15-7.11,6.82-9.66,6.92-12.73.08-2.49-.81-4.84-2.51-6.63,8.71-4.04,16.77-10.73,23.63-19.76,4.67-6.14,8.6-13.16,11.36-20.31,2.7-6.96,4.12-13.57,4.12-19.1,0-4.27-.86-7.83-2.56-10.61-2.36-3.84-6.29-6.04-10.81-6.04Z"/>
        <path class="cls-2" d="M190.33,91.75c14.63,7.27,31.21-7.33,25.74-22.05-.39-1.06-1.08-1.98-2-2.64-7.14-5.12-23.17-6.81-30.36-4.04-10.01,3.86-2.86,26.25,6.61,28.72ZM183.37,78.65c-4.94-17.8,10.53-13.81,21.88-11.68,7.81,1.37,9.54,4.52,7.82,12.16-2.96,15.44-26.75,14.5-29.7-.48ZM297.04,146.14c-10.63,7.68-21.35,17.53-33.91,22.5,0,0,.69-1.84.1-5.97-.27-1.91-2.22-5.18-4.63-6.9-2.05-1.46-1.67-1.21-3.02-1.77l5.71-9.93c14.26-4.1,26.26-11.88,35.31-23.62,6.74-8.75,21.75-33.36,8.52-41.45-9.7-5.94-25.04-4.83-35.93-3.98,7.66-21.6-16.83-21.88-31.39-19.77-7.96,1.28-10.44,3.15-19.13,1.42-40.79-9.99-38.02-6.51-73.24,12.84-18.63-10.49-46.26-17.12-66.93-9.56-2.41.88-10.04,3.93-8.5,7.32.69,1.51,10.3,5.22,12.59,6.6,11.92,7.15,20.58,20.09,24.56,33.24-10.56,12.59-18.41,27.46-20.33,44.01-17.21,13.02-32.22,30.31-35.48,52.42-.54,3.67-2.32,13.42,4.08,12.18,12.49-8.66,25.6-17.81,40.99-20.8,14.73,45.42,62.29,70.23,106.42,77.96,10,14.35,30.73,25.17,48.59,22.63,9.35-1.39.91-5.75-1.61-8.32-3.78-4.14-9.65-13.27-10.26-18.64,9.82-10.33,15.06-23.93,22.43-35.91,1.41-2.29,8.09-10.78,8.14-12.38.1-3.15-6.13-2.6-8.12-2.42-18.58,1.64-26.62,14.36-37.92,26.4-1.3,1.39-5.5,6.74-8.66,4.26-8.08-6.31,11.02-31.11,20.01-41.17,2.18-.46,4.94,1.6,7.42,1.95,52.17,15.29,79.79-72.94,54.2-63.15ZM192.9,56.58c12.34.63,25.49,7.14,37.28,5.31,8.22-1.28,13.42-3.23,22.31-2.6,3.7.26,12.35,1.74,12.94,6.26.19,1.42-1.19,10.2-2.06,10.85-.27.2-3.13.55-3.29.4.79-3.05,2.53-9.72-.93-11.35-5.11-2.39-18.44-2.38-23.42.3-3.19,1.17-2.82,8.23-2.59,11.05-3.72-.47-1.73-.41-2.15-2.7-.6-3.26-3.57-4.22-6.39-2.98-4.06,1.79-3.98,6.62-5.17,10.32-8.89,27.03-47,17.35-45.62-9.78-12.5-12.8,10.43-15.58,19.11-15.07ZM256.91,76.34c-2.19,3.14-9.11,1.94-12.61,2.05-2.91-.29-6.07-.11-7.99-1.23-.45-1-.21-6.66.85-8.6,3.86-2.13,14.81-2.11,19.83-.71,1.49.42.55,7.5-.09,8.5ZM124.31,98.24c1.92-4.81,2.15-8.17,6.24-11.77,6.7-5.44,26.2-18.55,34.51-20.22-.15,2.23.76,4.3,2.02,6.06-15.44,6.04-30.03,15.35-42.77,25.93ZM251.5,175.36c-21.85,18.65-56.73,7.73-77.95-6.72,13.78,19.85,40.74,26.27,63.32,21.39-3.76,12.85-12.19,21.08-19.22,30.85-8.47,11.78-12.24,27.13-6.14,31.62,2.56,1.88,6.47,3.01,12-.62,9.03-5.92,22.9-28.91,34.3-27.19.38.08-16.33,8.99-20.68,22.66-3.51,11.02-12.81,15.26-24.03,15.93-49.21,2.97-79.29-58.68-74.23-102.73,1.99.85,4.28.85,6.39.51-3.12-3.17-5.56-7.33-6.73-11.62,3.6,3.64,7.8,7.39,13.13,8.08-15.45-34.86-3.59-77.25,41.53-50.45,57.98,34.43,75.41-17.48,111.03-17.91-10.82,58.17-85.49,59.11-123.76,27.6-.51-.43-4.83-4.1-4.21-4.7,0,0,2.15.21,5.12.77s4.98,1.42,4.98,1.42c-7.54-9.64-24.63-9.04-27.27,4.21,0,0,1.57-1.51,3.94-2.96,2.11-1.3,3.8-1.75,3.8-1.75-9.3,40.4,41.23,70.86,75.27,56.17,0,0,10.97-4.98,10.95-9.36,7.07,3.2,2.73,11.03-1.53,14.81ZM180.77,143.05l6.41-7.08,4.54,20.2c-3.89-2.54-10.03-8.63-10.96-13.13ZM179.26,140.01c-3.06-4.89-4.6-13.53-5.04-19.53l13.12,9.93-8.08,9.6ZM190.39,131.93c5.93,2.97,12.08,5.68,18.52,7.41-3.2,3.89-10.32,11.79-14.15,14.99-2.35-7.24-3.79-14.8-4.37-22.4ZM208.4,145.06c.89,7.17,3.13,14.06,6.23,20.54-6.8-1.46-13.3-3.68-19.53-6.74l13.3-13.8ZM211.6,140.35c6.19,2.08,12.67,4.35,19.19,4.72-2.92,6.07-9.24,12.33-13.8,17.51-2.55-7.21-4.87-14.53-5.39-22.23ZM232.7,149.04c1.39,5.29,2.61,10.86,4.69,15.75-6.08,1.33-13.56,1.71-19.73,1.16,4.88-5.19,10.96-11.03,15.04-16.9ZM235.27,145.5c5.57.62,14.82.72,20.3-.44-5.81,12.06-10.6,15.96-15.04,18.85l-5.27-18.41Z"/>
      </g>
    </g>
  </g>
</svg>