<svg width="8" height="8" viewBox="0 0 8 8" fill="none" xmlns="http://www.w3.org/2000/svg">
<path d="M7.76605 0.233947C7.61621 0.0841507 7.41301 0 7.20114 0C6.98926 0 6.78606 0.0841507 6.63622 0.233947L4.00499 2.86517L1.37377 0.233947C1.22307 0.088396 1.02123 0.00785778 0.811729 0.00967831C0.602225 0.0114989 0.401817 0.0955325 0.253669 0.24368C0.105522 0.391828 0.0214881 0.592236 0.0196676 0.80174C0.0178471 1.01124 0.0983853 1.21308 0.243936 1.36378L2.87516 3.99501L0.243936 6.62623C0.16762 6.69994 0.106748 6.78811 0.0648711 6.88559C0.0229944 6.98308 0.000952109 7.08793 3.01689e-05 7.19402C-0.000891771 7.30012 0.0193252 7.40533 0.0595014 7.50353C0.0996776 7.60173 0.159008 7.69094 0.234032 7.76597C0.309056 7.84099 0.398269 7.90032 0.496468 7.9405C0.594666 7.98068 0.699883 8.00089 0.805978 7.99997C0.912074 7.99905 1.01692 7.97701 1.11441 7.93513C1.21189 7.89325 1.30006 7.83238 1.37377 7.75606L4.00499 5.12484L6.63622 7.75606C6.78692 7.90162 6.98876 7.98215 7.19826 7.98033C7.40776 7.97851 7.60817 7.89448 7.75632 7.74633C7.90447 7.59818 7.9885 7.39778 7.99032 7.18827C7.99214 6.97877 7.9116 6.77693 7.76605 6.62623L5.13483 3.99501L7.76605 1.36378C7.91585 1.21394 8 1.01074 8 0.798865C8 0.586989 7.91585 0.383788 7.76605 0.233947Z" fill="#EB5A29"/>
</svg>
