<svg width="12" height="10" viewBox="0 0 12 10" fill="none" xmlns="http://www.w3.org/2000/svg">
<path d="M1 5.99326H8.586L6.293 8.28309C6.19749 8.37521 6.12131 8.4854 6.0689 8.60723C6.01649 8.72907 5.9889 8.86011 5.98775 8.9927C5.9866 9.1253 6.0119 9.2568 6.06218 9.37952C6.11246 9.50225 6.18671 9.61375 6.2806 9.70751C6.3745 9.80127 6.48615 9.87542 6.60905 9.92564C6.73194 9.97585 6.86362 10.0011 6.9964 9.99996C7.12918 9.99881 7.2604 9.97126 7.3824 9.91893C7.50441 9.86659 7.61475 9.79051 7.707 9.69513L11.707 5.70066C11.8001 5.6079 11.874 5.4977 11.9244 5.37638C11.9748 5.25506 12.0008 5.125 12.0008 4.99364C12.0008 4.86229 11.9748 4.73223 11.9244 4.61091C11.874 4.48958 11.8001 4.37938 11.707 4.28662L7.707 0.292152C7.51923 0.104903 7.26466 -0.000187027 6.99929 2.49876e-07C6.73393 0.000187527 6.47951 0.105637 6.292 0.293151C6.10449 0.480664 5.99926 0.734882 5.99944 0.999879C5.99963 1.26488 6.10523 1.51895 6.293 1.70619L8.586 3.99602H1C0.734784 3.99602 0.48043 4.10123 0.292893 4.28851C0.105357 4.47579 0 4.72979 0 4.99464C0 5.25949 0.105357 5.51349 0.292893 5.70077C0.48043 5.88805 0.734784 5.99326 1 5.99326Z" fill="#D7D8DA"/>
</svg>
