<svg width="10" height="8" viewBox="0 0 10 8" fill="none" xmlns="http://www.w3.org/2000/svg">
<path d="M0.799948 4.79461H6.86835L5.03407 6.62647C4.95767 6.70017 4.89672 6.78832 4.8548 6.88579C4.81288 6.98326 4.79081 7.08809 4.78989 7.19416C4.78896 7.30024 4.8092 7.40544 4.84942 7.50362C4.88965 7.6018 4.94904 7.691 5.02415 7.76601C5.09926 7.84102 5.18858 7.90034 5.28689 7.94051C5.3852 7.98068 5.49054 8.00089 5.59675 7.99997C5.70297 7.99905 5.80794 7.97701 5.90554 7.93514C6.00313 7.89327 6.0914 7.83241 6.16519 7.75611L9.36499 4.56053C9.43948 4.48632 9.49859 4.39816 9.53891 4.3011C9.57924 4.20405 9.6 4.1 9.6 3.99491C9.6 3.88983 9.57924 3.78578 9.53891 3.68872C9.49859 3.59167 9.43948 3.50351 9.36499 3.4293L6.16519 0.233721C6.01499 0.0839224 5.81134 -0.000149622 5.59907 1.999e-07C5.38679 0.000150022 5.18327 0.0845095 5.03327 0.23452C4.88327 0.384531 4.79909 0.587906 4.79924 0.799903C4.79939 1.0119 4.88386 1.21516 5.03407 1.36496L6.86835 3.19682H0.799948C0.587788 3.19682 0.384318 3.28099 0.234299 3.43081C0.08428 3.58063 0 3.78383 0 3.99571C0 4.20759 0.08428 4.41079 0.234299 4.56062C0.384318 4.71044 0.587788 4.79461 0.799948 4.79461Z" fill="#767A81"/>
</svg>
