<svg width="10" height="11" viewBox="0 0 10 11" fill="none" xmlns="http://www.w3.org/2000/svg">
<path d="M3.57143 2.25C3.98564 2.25 4.32143 1.91421 4.32143 1.5C4.32143 1.08579 3.98564 0.75 3.57143 0.75V2.25ZM0.25 3.78571C0.25 4.19993 0.585786 4.53571 1 4.53571C1.41421 4.53571 1.75 4.19993 1.75 3.78571H0.25ZM3.57143 10.25C3.98564 10.25 4.32143 9.91421 4.32143 9.5C4.32143 9.08579 3.98564 8.75 3.57143 8.75V10.25ZM1.75 7.21429C1.75 6.80007 1.41421 6.46429 1 6.46429C0.585786 6.46429 0.25 6.80007 0.25 7.21429H1.75ZM6.42857 0.75C6.01436 0.75 5.67857 1.08579 5.67857 1.5C5.67857 1.91421 6.01436 2.25 6.42857 2.25V0.75ZM8.25 3.78571C8.25 4.19993 8.58579 4.53571 9 4.53571C9.41421 4.53571 9.75 4.19993 9.75 3.78571H8.25ZM6.42857 8.75C6.01436 8.75 5.67857 9.08579 5.67857 9.5C5.67857 9.91421 6.01436 10.25 6.42857 10.25V8.75ZM9.75 7.21429C9.75 6.80007 9.41421 6.46429 9 6.46429C8.58579 6.46429 8.25 6.80007 8.25 7.21429H9.75ZM3.57143 0.75H2.14286V2.25H3.57143V0.75ZM0.25 2.64286V3.78571H1.75V2.64286H0.25ZM2.14286 0.75C1.09746 0.75 0.25 1.59746 0.25 2.64286H1.75C1.75 2.42589 1.92589 2.25 2.14286 2.25V0.75ZM3.57143 8.75H2.14286V10.25H3.57143V8.75ZM1.75 8.35714V7.21429H0.25V8.35714H1.75ZM2.14286 8.75C1.92589 8.75 1.75 8.57411 1.75 8.35714H0.25C0.25 9.40254 1.09746 10.25 2.14286 10.25V8.75ZM6.42857 2.25H7.85714V0.75H6.42857V2.25ZM8.25 2.64286V3.78571H9.75V2.64286H8.25ZM7.85714 2.25C8.07411 2.25 8.25 2.42589 8.25 2.64286H9.75C9.75 1.59746 8.90254 0.75 7.85714 0.75V2.25ZM6.42857 10.25H7.85714V8.75H6.42857V10.25ZM9.75 8.35714V7.21429H8.25V8.35714H9.75ZM7.85714 10.25C8.90254 10.25 9.75 9.40254 9.75 8.35714H8.25C8.25 8.57411 8.07411 8.75 7.85714 8.75V10.25Z" fill="#9C9FA4"/>
</svg>
