<svg width="16" height="16" viewBox="0 0 16 16" fill="none" xmlns="http://www.w3.org/2000/svg">
<g clip-path="url(#clip0_1886_38172)">
<path d="M7.99967 4L1.33301 7.33333L7.99967 10.6667L14.6663 7.33333L7.99967 4Z" fill="#A0B6C3" stroke="#A0B6C3" stroke-width="2" stroke-linecap="round" stroke-linejoin="round"/>
<path d="M4.40001 3.50165C4.40045 3.66138 4.43546 3.81914 4.50263 3.96407L4.50262 3.96407L4.50361 3.96617C4.59229 4.15561 4.73315 4.31583 4.90967 4.42806C5.08613 4.54024 5.2909 4.59981 5.5 4.59978C5.50007 4.59978 5.50014 4.59978 5.50021 4.59978H6.4V6.49977C6.4 6.79151 6.5159 7.0713 6.72219 7.27759C6.92848 7.48388 7.20827 7.59977 7.5 7.59977H8.5C8.79174 7.59977 9.07153 7.48388 9.27782 7.27759C9.48411 7.0713 9.6 6.79151 9.6 6.49977L9.6 4.59978H10.5H10.5002C10.7092 4.5997 10.9139 4.54007 11.0903 4.42788C11.2666 4.31568 11.4074 4.15557 11.496 3.96628C11.5846 3.77699 11.6175 3.56637 11.5908 3.35907C11.564 3.15177 11.4788 2.95638 11.345 2.79578L11.3449 2.79566L8.84494 -0.204336L8.8448 -0.204495C8.74157 -0.32829 8.61239 -0.427884 8.4664 -0.496229C8.32042 -0.564574 8.1612 -0.6 8 -0.6C7.83881 -0.6 7.67959 -0.564574 7.53361 -0.496229C7.38762 -0.427884 7.25844 -0.32829 7.1552 -0.204495L7.15507 -0.204336L4.65579 2.7948C4.48973 2.99279 4.3991 3.2432 4.40001 3.50165ZM4.40001 3.50165C4.40001 3.50149 4.40001 3.50134 4.40001 3.50118L5 3.49977L4.40001 3.50215C4.40001 3.50198 4.40001 3.50181 4.40001 3.50165Z" fill="#A0B6C3" stroke="white" stroke-width="1.2"/>
<path fill-rule="evenodd" clip-rule="evenodd" d="M0.4388 10.553C0.685789 10.059 1.28646 9.8588 1.78044 10.1058L7.99989 13.2155L14.2193 10.1058C14.7133 9.8588 15.314 10.059 15.561 10.553C15.808 11.047 15.6078 11.6477 15.1138 11.8946L8.44711 15.228C8.16558 15.3687 7.83421 15.3687 7.55268 15.228L0.886013 11.8946C0.392035 11.6477 0.19181 11.047 0.4388 10.553Z" fill="#A0B6C3"/>
</g>
<defs>
<clipPath id="clip0_1886_38172">
<rect width="16" height="16" fill="white"/>
</clipPath>
</defs>
</svg>
