<svg width="10" height="8" viewBox="0 0 10 8" fill="none" xmlns="http://www.w3.org/2000/svg">
<path d="M8.25828 0.249869L3.20324 5.85143L1.36133 3.81037C1.20983 3.64823 1.00692 3.55851 0.796299 3.56053C0.585682 3.56256 0.384209 3.65618 0.235275 3.82121C0.0863405 3.98625 0.00186057 4.2095 3.0366e-05 4.44289C-0.00179984 4.67628 0.0791662 4.90113 0.22549 5.06901L2.63533 7.73938C2.78596 7.90626 2.99024 8 3.20324 8C3.41624 8 3.62053 7.90626 3.77116 7.73938L9.39411 1.50851C9.54044 1.34063 9.6214 1.11578 9.61957 0.882391C9.61774 0.649003 9.53326 0.425748 9.38433 0.260712C9.23539 0.0956752 9.03392 0.00206173 8.8233 3.36491e-05C8.61269 -0.00199443 8.40978 0.0877251 8.25828 0.249869Z" fill="#2DD7A7"/>
</svg>
