<svg width="16" height="16" viewBox="0 0 16 16" fill="none" xmlns="http://www.w3.org/2000/svg">
<g clip-path="url(#clip0_1880_50670)">
<path fill-rule="evenodd" clip-rule="evenodd" d="M6.49977 1.99981H3.99978V0.499813C3.99974 0.404806 3.97264 0.311775 3.92164 0.231615C3.87064 0.151455 3.79786 0.0874832 3.71182 0.0471913C3.62578 0.0068993 3.53004 -0.00804517 3.43582 0.00410785C3.34159 0.0162609 3.25278 0.0550083 3.17978 0.115813L0.179775 2.61581C0.123505 2.66274 0.0782346 2.72146 0.0471686 2.78781C0.0161027 2.85417 0 2.92654 0 2.99981C0 3.07308 0.0161027 3.14546 0.0471686 3.21181C0.0782346 3.27817 0.123505 3.33689 0.179775 3.38381L3.17978 5.88381C3.26933 5.95917 3.38273 6.00028 3.49978 5.99981C3.57301 5.99964 3.64533 5.98361 3.71178 5.95281C3.79788 5.9125 3.87071 5.84847 3.92172 5.76824C3.97273 5.688 3.99981 5.59489 3.99978 5.49981V3.99981H6.49977C6.63238 3.99981 6.75956 3.94713 6.85333 3.85337C6.9471 3.7596 6.99977 3.63242 6.99977 3.49981V2.49981C6.99977 2.3672 6.9471 2.24003 6.85333 2.14626C6.75956 2.05249 6.63238 1.99981 6.49977 1.99981ZM7.99976 10.9998C9.65661 10.9998 10.9998 9.65667 10.9998 7.99982C10.9998 6.34296 9.65661 4.99982 7.99976 4.99982C6.3429 4.99982 4.99976 6.34296 4.99976 7.99982C4.99976 9.65667 6.3429 10.9998 7.99976 10.9998ZM12.8198 10.1158L15.8198 12.6158C15.876 12.6627 15.9213 12.7215 15.9524 12.7878C15.9834 12.8542 15.9995 12.9265 15.9995 12.9998C15.9995 13.0731 15.9834 13.1455 15.9524 13.2118C15.9213 13.2782 15.876 13.3369 15.8198 13.3838L12.8198 15.8838C12.7302 15.9592 12.6168 16.0003 12.4998 15.9998C12.4265 15.9996 12.3542 15.9836 12.2878 15.9528C12.2016 15.9125 12.1288 15.8485 12.0778 15.7682C12.0268 15.688 11.9997 15.5949 11.9998 15.4998V13.9998H9.49976C9.36715 13.9998 9.23997 13.9471 9.1462 13.8534C9.05243 13.7596 8.99976 13.6324 8.99976 13.4998V12.4998C8.99976 12.3672 9.05243 12.24 9.1462 12.1463C9.23997 12.0525 9.36715 11.9998 9.49976 11.9998H11.9998V10.4998C11.9998 10.4048 12.0269 10.3118 12.0779 10.2316C12.1289 10.1515 12.2017 10.0875 12.2877 10.0472C12.3737 10.0069 12.4695 9.99195 12.5637 10.0041C12.6579 10.0163 12.7468 10.055 12.8198 10.1158Z" fill="#A0B6C3"/>
</g>
<defs>
<clipPath id="clip0_1880_50670">
<rect width="16" height="16" fill="white"/>
</clipPath>
</defs>
</svg>
