<svg viewBox="0 0 515 89" fill="none" xmlns="http://www.w3.org/2000/svg">
<path d="M0.893066 0.847656H18.8368L37.7886 46.994H38.5951L57.5468 0.847656H75.4906V69.5306H61.3775V24.8263H60.8063L42.997 69.1952H33.3867L15.5773 24.6586H15.0061V69.5306H0.893066V0.847656Z" fill="currentColor"/>
<path d="M92.2619 88.8477C90.4474 88.8477 88.7448 88.7023 87.1543 88.4117C85.5862 88.1434 84.2869 87.7968 83.2564 87.372L86.4823 76.7074C88.1624 77.2216 89.6745 77.5011 91.0186 77.5458C92.3851 77.5905 93.5612 77.2775 94.5469 76.6068C95.5549 75.9361 96.3726 74.7958 96.9999 73.1861L97.8399 71.0062L79.3249 18.0184H94.3789L105.064 55.8477H105.602L116.388 18.0184H131.543L111.483 75.0977C110.519 77.87 109.209 80.2847 107.551 82.3416C105.916 84.4208 103.844 86.0194 101.335 87.1373C98.8256 88.2775 95.8014 88.8477 92.2619 88.8477Z" fill="currentColor"/>
<path d="M178.028 32.7074L164.923 33.5123C164.699 32.3944 164.217 31.3883 163.478 30.494C162.738 29.5773 161.764 28.8507 160.554 28.3141C159.367 27.7552 157.944 27.4757 156.287 27.4757C154.069 27.4757 152.198 27.9452 150.675 28.8842C149.152 29.8009 148.39 31.0306 148.39 32.5733C148.39 33.8029 148.883 34.8426 149.869 35.6922C150.854 36.5418 152.546 37.2237 154.943 37.7379L164.284 39.6159C169.302 40.6444 173.043 42.2989 175.507 44.5794C177.972 46.8599 179.204 49.8558 179.204 53.5672C179.204 56.9432 178.207 59.9056 176.213 62.4544C174.242 65.0031 171.531 66.993 168.081 68.4239C164.654 69.8324 160.7 70.5367 156.22 70.5367C149.387 70.5367 143.943 69.117 139.889 66.2775C135.856 63.4157 133.493 59.5255 132.799 54.6068L146.878 53.869C147.304 55.9483 148.334 57.5357 149.969 58.6312C151.605 59.7044 153.699 60.2409 156.253 60.2409C158.762 60.2409 160.778 59.7603 162.302 58.7989C163.847 57.8151 164.631 56.5519 164.654 55.0092C164.631 53.7125 164.082 52.6505 163.007 51.8233C161.932 50.9737 160.274 50.3253 158.034 49.8781L149.096 48.1007C144.055 47.0946 140.303 45.3507 137.839 42.869C135.397 40.3873 134.176 37.2237 134.176 33.3781C134.176 30.0692 135.072 27.2186 136.864 24.8263C138.679 22.434 141.222 20.5895 144.492 19.2928C147.785 17.996 151.638 17.3477 156.052 17.3477C162.57 17.3477 167.7 18.7227 171.441 21.4727C175.205 24.2227 177.4 27.9676 178.028 32.7074Z" fill="currentColor"/>
<path d="M211.886 18.0184V28.7501H180.803V18.0184H211.886ZM187.86 5.67693H202.175V53.7013C202.175 55.0204 202.376 56.0489 202.779 56.7867C203.183 57.5021 203.743 58.0052 204.46 58.2958C205.199 58.5865 206.05 58.7318 207.013 58.7318C207.685 58.7318 208.357 58.6759 209.029 58.5641C209.702 58.43 210.217 58.3294 210.575 58.2623L212.827 68.8934C212.11 69.117 211.102 69.3741 209.802 69.6647C208.503 69.9777 206.924 70.1678 205.064 70.2349C201.615 70.369 198.59 69.9107 195.992 68.8599C193.416 67.809 191.411 66.1769 189.977 63.9635C188.543 61.7501 187.838 58.9554 187.86 55.5794V5.67693Z" fill="currentColor"/>
<path d="M240.393 70.5367C235.084 70.5367 230.514 69.4635 226.683 67.3172C222.875 65.1485 219.94 62.0855 217.879 58.1281C215.818 54.1485 214.788 49.4422 214.788 44.0092C214.788 38.7105 215.818 34.0601 217.879 30.058C219.94 26.056 222.841 22.9371 226.582 20.7013C230.346 18.4655 234.759 17.3477 239.821 17.3477C243.227 17.3477 246.396 17.8954 249.331 18.991C252.288 20.0641 254.864 21.6851 257.06 23.8538C259.277 26.0225 261.002 28.7501 262.234 32.0367C263.466 35.3009 264.082 39.1241 264.082 43.5062V47.43H220.5V38.5763H250.608C250.608 36.5194 250.16 34.6973 249.264 33.1099C248.368 31.5225 247.124 30.2816 245.534 29.3873C243.966 28.4706 242.14 28.0123 240.057 28.0123C237.884 28.0123 235.957 28.5153 234.277 29.5214C232.619 30.5052 231.32 31.8355 230.379 33.5123C229.438 35.1668 228.957 37.0113 228.934 39.0458V47.4635C228.934 50.0123 229.405 52.2145 230.346 54.0702C231.309 55.9259 232.664 57.3568 234.411 58.3629C236.159 59.369 238.231 59.872 240.628 59.872C242.218 59.872 243.675 59.6485 244.996 59.2013C246.318 58.7542 247.449 58.0834 248.39 57.1891C249.331 56.2948 250.048 55.1993 250.541 53.9025L263.78 54.7745C263.108 57.9493 261.73 60.7216 259.647 63.0916C257.586 65.4391 254.92 67.2725 251.65 68.5916C248.401 69.8883 244.649 70.5367 240.393 70.5367Z" fill="currentColor"/>
<path d="M283.954 39.7501V69.5306H269.639V18.0184H283.282V27.1068H283.886C285.029 24.1109 286.944 21.7409 289.632 19.997C292.321 18.2308 295.58 17.3477 299.411 17.3477C302.995 17.3477 306.12 18.1302 308.786 19.6952C311.452 21.2603 313.524 23.496 315.002 26.4025C316.481 29.2867 317.22 32.7298 317.22 36.7318V69.5306H302.905V39.2806C302.928 36.1281 302.121 33.6688 300.486 31.9025C298.851 30.1139 296.599 29.2196 293.732 29.2196C291.805 29.2196 290.103 29.6332 288.624 30.4605C287.168 31.2877 286.026 32.495 285.197 34.0824C284.39 35.6475 283.976 37.5367 283.954 39.7501Z" fill="currentColor"/>
<path d="M328.145 69.5306V0.847656H334.428V63.8964H367.224V69.5306H328.145Z" fill="currentColor"/>
<path d="M390.758 70.7044C387.644 70.7044 384.799 70.1007 382.223 68.8934C379.647 67.6637 377.597 65.8975 376.074 63.5946C374.55 61.2694 373.789 58.4523 373.789 55.1434C373.789 52.5946 374.27 50.4483 375.234 48.7044C376.197 46.9605 377.564 45.5296 379.333 44.4117C381.103 43.2938 383.198 42.4107 385.617 41.7623C388.036 41.1139 390.702 40.6109 393.614 40.2531C396.504 39.8954 398.946 39.5824 400.94 39.3141C402.956 39.0458 404.49 38.621 405.543 38.0397C406.596 37.4584 407.122 36.5194 407.122 35.2227V34.0153C407.122 30.5052 406.07 27.744 403.964 25.7318C401.881 23.6973 398.879 22.68 394.958 22.68C391.24 22.68 388.204 23.496 385.852 25.1281C383.522 26.7603 381.887 28.683 380.946 30.8964L375.267 28.8507C376.432 26.0336 378.045 23.7867 380.106 22.1099C382.167 20.4107 384.474 19.1922 387.028 18.4544C389.582 17.6942 392.169 17.3141 394.79 17.3141C396.762 17.3141 398.811 17.5712 400.94 18.0855C403.09 18.5997 405.084 19.494 406.921 20.7684C408.758 22.0204 410.248 23.7755 411.39 26.0336C412.533 28.2694 413.104 31.1088 413.104 34.5519V69.5306H407.122V61.3812H406.753C406.036 62.9015 404.972 64.3771 403.561 65.808C402.149 67.2389 400.38 68.4127 398.251 69.3294C396.123 70.246 393.626 70.7044 390.758 70.7044ZM391.565 65.2379C394.746 65.2379 397.501 64.5336 399.831 63.1251C402.161 61.7166 403.953 59.8497 405.207 57.5245C406.484 55.1769 407.122 52.5946 407.122 49.7775V42.3324C406.674 42.7572 405.924 43.1373 404.871 43.4727C403.841 43.808 402.642 44.1099 401.276 44.3781C399.932 44.6241 398.587 44.8365 397.243 45.0153C395.899 45.1942 394.69 45.3507 393.614 45.4849C390.702 45.8426 388.216 46.4015 386.155 47.1617C384.094 47.9218 382.514 48.9727 381.417 50.3141C380.319 51.6332 379.77 53.3324 379.77 55.4117C379.77 58.5418 380.89 60.9676 383.13 62.6891C385.371 64.3883 388.182 65.2379 391.565 65.2379Z" fill="currentColor"/>
<path d="M426.473 69.5306V0.847656H432.488V27.8446H433.025C433.697 26.3019 434.661 24.7145 435.915 23.0824C437.192 21.4503 438.861 20.0865 440.922 18.991C443.005 17.8731 445.626 17.3141 448.785 17.3141C453.019 17.3141 456.737 18.432 459.941 20.6678C463.144 22.8812 465.642 25.9889 467.434 29.9909C469.226 33.9706 470.123 38.6099 470.123 43.9086C470.123 49.2298 469.226 53.8914 467.434 57.8934C465.665 61.8954 463.178 65.0143 459.975 67.2501C456.793 69.4859 453.097 70.6038 448.886 70.6038C445.749 70.6038 443.128 70.0448 441.023 68.9269C438.939 67.809 437.259 66.434 435.982 64.8019C434.705 63.1475 433.72 61.5377 433.025 59.9727H432.286V69.5306H426.473ZM432.387 43.808C432.387 47.9666 433.003 51.6556 434.235 54.8751C435.49 58.0722 437.282 60.5875 439.611 62.4208C441.964 64.2318 444.809 65.1373 448.146 65.1373C451.574 65.1373 454.475 64.1983 456.849 62.3202C459.224 60.4198 461.027 57.8599 462.259 54.6403C463.492 51.4208 464.108 47.8101 464.108 43.808C464.108 39.8507 463.492 36.2846 462.259 33.1099C461.05 29.9351 459.258 27.4198 456.883 25.5641C454.508 23.6861 451.596 22.747 448.146 22.747C444.786 22.747 441.93 23.6525 439.578 25.4635C437.248 27.2521 435.467 29.7338 434.235 32.9086C433.003 36.0611 432.387 39.6942 432.387 43.808Z" fill="currentColor"/>
<path d="M514.154 29.3202L508.677 30.8629C508.139 29.3202 507.377 27.9229 506.392 26.6708C505.406 25.4188 504.118 24.4239 502.527 23.6861C500.959 22.9483 499.01 22.5794 496.681 22.5794C493.186 22.5794 490.318 23.4066 488.078 25.0611C485.838 26.7155 484.718 28.8507 484.718 31.4666C484.718 33.68 485.48 35.4798 487.003 36.8659C488.549 38.2298 490.923 39.3141 494.127 40.119L501.923 42.0306C506.246 43.0814 509.483 44.747 511.634 47.0275C513.807 49.308 514.893 52.1698 514.893 55.6129C514.893 58.5194 514.087 61.1017 512.474 63.3598C510.861 65.618 508.609 67.3954 505.72 68.6922C502.852 69.9666 499.526 70.6038 495.74 70.6038C490.699 70.6038 486.544 69.4747 483.273 67.2166C480.003 64.9361 477.908 61.6495 476.989 57.3568L482.735 55.9483C483.475 59.0113 484.92 61.3253 487.07 62.8903C489.243 64.4554 492.099 65.2379 495.639 65.2379C499.604 65.2379 502.774 64.3548 505.148 62.5885C507.523 60.7999 508.71 58.5641 508.71 55.8812C508.71 53.8019 508.016 52.058 506.627 50.6495C505.238 49.2186 503.132 48.1678 500.31 47.497L491.875 45.4849C487.395 44.4117 484.08 42.7125 481.929 40.3873C479.778 38.0621 478.703 35.1779 478.703 31.7349C478.703 28.8954 479.476 26.4025 481.022 24.2562C482.567 22.0875 484.696 20.3883 487.406 19.1586C490.117 17.929 493.208 17.3141 496.681 17.3141C501.407 17.3141 505.182 18.3873 508.005 20.5336C510.85 22.6576 512.899 25.5865 514.154 29.3202Z" fill="currentColor"/>
</svg>
