<svg width="62" height="36" viewBox="0 0 62 36" fill="none" xmlns="http://www.w3.org/2000/svg">
<path d="M33.9427 19.0778C33.9427 19.5818 34.1947 19.9901 34.6987 20.3029C35.2026 20.5984 35.8109 20.8416 36.5233 21.0328C37.2358 21.2066 37.9483 21.4151 38.6608 21.6584C39.3733 21.8843 39.9815 22.284 40.4855 22.8575C40.9894 23.4135 41.2414 24.1347 41.2414 25.021C41.2414 26.2027 40.7809 27.1498 39.8599 27.8622C38.9562 28.5747 37.7919 28.931 36.3669 28.931C35.0984 28.931 34.0123 28.6529 33.1086 28.0968C32.205 27.5408 31.562 26.8022 31.1797 25.8812L33.1347 24.7603C33.3432 25.3859 33.7342 25.8812 34.3077 26.2461C34.8811 26.6111 35.5676 26.7935 36.3669 26.7935C37.1142 26.7935 37.7311 26.6545 38.2177 26.3765C38.7042 26.081 38.9475 25.6292 38.9475 25.021C38.9475 24.517 38.6956 24.1173 38.1916 23.8219C37.6876 23.5091 37.0794 23.2658 36.3669 23.0921C35.6545 22.9009 34.942 22.6837 34.2295 22.4404C33.517 22.1971 32.9088 21.7974 32.4048 21.2413C31.9009 20.6852 31.6489 19.9728 31.6489 19.1039C31.6489 17.9743 32.0833 17.0446 32.9522 16.3147C33.8385 15.5849 34.942 15.2199 36.2627 15.2199C37.3227 15.2199 38.2611 15.4632 39.0779 15.9498C39.912 16.419 40.5376 17.0794 40.9547 17.9309L39.0518 18.9996C38.5826 17.8874 37.6529 17.3313 36.2627 17.3313C35.6197 17.3313 35.0723 17.4877 34.6205 17.8005C34.1687 18.096 33.9427 18.5217 33.9427 19.0778Z" fill="#FEFEFE"/>
<path d="M52.7922 15.5588H55.0599V28.5921H52.7922V26.7153C51.8711 28.1924 50.4635 28.931 48.5694 28.931C47.0401 28.931 45.815 28.4531 44.894 27.4973C43.973 26.5242 43.5124 25.2121 43.5124 23.5613V15.5588H45.7802V23.4309C45.7802 24.491 46.067 25.3164 46.6404 25.9073C47.2139 26.4807 48.0046 26.7675 49.0125 26.7675C50.142 26.7675 51.0544 26.4199 51.7495 25.7248C52.4446 25.0123 52.7922 23.9262 52.7922 22.4665V15.5588Z" fill="#FEFEFE"/>
<path d="M59.6595 13.1868C59.225 13.1868 58.8601 13.039 58.5647 12.7436C58.2693 12.4482 58.1216 12.092 58.1216 11.6749C58.1216 11.2578 58.2693 10.9016 58.5647 10.6062C58.8601 10.2934 59.225 10.137 59.6595 10.137C60.0765 10.137 60.4328 10.2934 60.7282 10.6062C61.0236 10.9016 61.1713 11.2578 61.1713 11.6749C61.1713 12.092 61.0236 12.4482 60.7282 12.7436C60.4328 13.039 60.0765 13.1868 59.6595 13.1868ZM58.5125 28.5921V15.5588H60.7803V28.5921H58.5125Z" fill="#FEFEFE"/>
<path fill-rule="evenodd" clip-rule="evenodd" d="M1.65674 29.0793C3.86573 32.9058 7.82242 35.1899 12.2404 35.1899C16.6584 35.1899 20.6143 32.9058 22.8241 29.0793C25.0331 25.2535 25.0331 20.6853 22.8241 16.8588L13.5155 0.736179C12.9488 -0.245394 11.532 -0.245392 10.9653 0.736181L1.65674 16.8588C-0.552248 20.6845 -0.552248 25.2528 1.65674 29.0793ZM9.61818 8.40641L11.6028 4.96881C11.8862 4.47801 12.5946 4.47801 12.878 4.96881L20.5131 18.1936C21.9159 20.6231 22.1792 23.435 21.303 26.0081C21.2118 25.5883 21.0843 25.1588 20.9124 24.7249C19.8578 22.0634 17.4731 20.0096 13.8234 18.6201C11.3141 17.6683 9.71242 16.2684 9.06158 14.4591C8.22329 12.1271 9.09887 9.58411 9.61818 8.40641ZM6.23397 14.2681L3.96766 18.1936C2.2408 21.1845 2.2408 24.755 3.96766 27.746C5.69453 30.737 8.78667 32.5219 12.2404 32.5219C14.5343 32.5219 16.6693 31.7338 18.3504 30.3281C18.5697 29.7761 19.2486 27.7556 18.4098 25.6731C17.6351 23.7501 15.7707 22.215 12.8681 21.1093C9.58703 19.8647 7.4554 17.9217 6.53364 15.3359C6.40668 14.9799 6.30804 14.6231 6.23397 14.2681Z" fill="#FEFEFE"/>
</svg>
