<svg width="238" height="308" viewBox="0 0 238 308" fill="none" xmlns="http://www.w3.org/2000/svg">
<path d="M100.012 281.129C109.151 283.656 118.834 283.656 129.14 281.129C130.423 274.129 131.201 267.44 131.512 261.101C131.59 258.962 131.629 257.601 131.629 257.018L103.201 255.073C103.318 261.723 102.268 270.434 100.012 281.129Z" fill="#A87D4D"/>
<path d="M100.012 281.167C99.4292 284.162 98.807 287.234 98.0681 290.384C97.7959 291.395 97.6792 292.445 97.6792 293.534C97.6792 296.956 99.1181 299.873 101.957 302.245C104.796 304.695 108.257 305.9 112.301 305.9H129.101C129.801 305.9 130.462 305.822 131.123 305.745C133.223 305.472 135.128 304.811 136.84 303.761C137.578 303.334 138.278 302.828 138.94 302.245C141.817 299.873 143.217 296.995 143.217 293.534C143.217 290.112 141.778 287.156 138.94 284.745C136.684 282.878 134.079 281.712 131.123 281.284C130.501 281.206 129.84 281.128 129.14 281.128C118.873 283.695 109.151 283.695 100.012 281.167Z" fill="#4E4943"/>
<path d="M129.101 307.845H112.301C107.79 307.845 103.901 306.445 100.713 303.723C97.4071 301 95.7349 297.578 95.7349 293.534C95.7349 292.29 95.8904 291.084 96.2015 289.917C96.9015 286.845 97.5626 283.851 98.107 280.895C98.107 280.856 98.107 280.779 98.1459 280.74C100.324 270.201 101.413 261.568 101.296 255.112C101.296 254.024 102.151 253.168 103.201 253.129C103.201 253.129 103.201 253.129 103.24 253.129C104.29 253.129 105.185 253.985 105.185 255.035C105.262 261.762 104.174 270.629 101.957 281.401C101.957 281.44 101.957 281.479 101.918 281.517C101.335 284.512 100.674 287.623 99.9737 290.773C99.9737 290.812 99.9737 290.812 99.9737 290.851C99.7403 291.706 99.6237 292.601 99.6237 293.495C99.6237 296.334 100.79 298.706 103.201 300.689C103.201 300.689 103.201 300.689 103.24 300.728C105.768 302.867 108.724 303.917 112.301 303.917H129.101C129.723 303.917 130.306 303.878 130.89 303.762H130.929C132.756 303.528 134.39 302.984 135.867 302.05L135.906 302.012C136.529 301.662 137.112 301.234 137.695 300.728C137.734 300.689 137.734 300.689 137.773 300.689C140.184 298.706 141.351 296.334 141.351 293.495C141.351 290.656 140.184 288.245 137.734 286.184C135.751 284.512 133.495 283.54 130.89 283.19C130.345 283.112 129.762 283.073 129.179 283.034C129.101 283.034 129.062 283.034 128.984 283.034C128.751 282.995 128.556 282.956 128.362 282.84C128.09 282.723 127.856 282.529 127.701 282.295C127.506 282.062 127.39 281.829 127.312 281.517C127.273 281.323 127.234 281.09 127.273 280.856C127.273 280.779 127.273 280.74 127.312 280.662C128.595 273.818 129.373 267.168 129.645 260.907C129.723 258.807 129.762 257.446 129.762 256.862C129.801 255.774 130.656 254.957 131.745 254.957C132.834 254.996 133.69 255.851 133.651 256.94C133.651 257.562 133.612 258.885 133.495 261.062C133.262 266.857 132.562 272.962 131.473 279.262C134.74 279.729 137.695 281.051 140.223 283.112C143.528 285.912 145.201 289.373 145.201 293.378C145.201 297.384 143.528 300.806 140.223 303.528C139.484 304.189 138.667 304.773 137.851 305.239C135.906 306.445 133.729 307.184 131.395 307.495C130.695 307.767 129.918 307.845 129.101 307.845C129.14 307.845 129.14 307.845 129.101 307.845Z" fill="black"/>
<path d="M124.374 228.599C124.919 228.055 125.58 227.666 126.319 227.432C135.107 224.555 143.896 223.582 152.763 224.438C152.957 227.044 153.113 229.688 153.229 232.41C153.346 233.11 153.385 233.81 153.346 234.588C153.229 238.204 151.868 241.238 149.263 243.688C146.618 246.177 143.468 247.343 139.852 247.226C136.235 247.11 133.163 245.749 130.713 243.065C129.313 241.627 128.302 239.954 127.641 238.088C126.241 237.932 125.074 237.349 124.18 236.377C123.169 235.249 122.663 233.888 122.702 232.41C122.663 230.932 123.247 229.649 124.374 228.599Z" fill="#4E4943"/>
<path d="M147.28 199.083C149.613 205.305 151.168 211.644 151.985 218.177C152.257 220.277 152.491 222.377 152.724 224.438C143.857 223.582 135.03 224.555 126.28 227.432C125.813 221.988 124.802 216.505 123.286 210.983C121.769 205.461 118.425 199.394 113.214 192.783L134.019 182.167C140.241 186.366 144.635 192.005 147.28 199.083Z" fill="#A87D4F"/>
<path d="M140.241 249.21C140.085 249.21 139.93 249.21 139.735 249.21C135.613 249.093 132.074 247.499 129.235 244.426C127.952 243.065 126.902 241.51 126.163 239.838C124.802 239.488 123.635 238.788 122.663 237.738C121.302 236.221 120.641 234.432 120.68 232.41C120.758 230.349 121.536 228.638 123.013 227.238C123.402 226.888 123.791 226.577 124.219 226.305C123.713 221.444 122.78 216.466 121.419 211.488C119.98 206.238 116.713 200.327 111.697 193.95C111.036 193.094 111.191 191.889 112.008 191.228C112.863 190.566 114.069 190.722 114.73 191.539C120.097 198.344 123.597 204.683 125.191 210.438C126.708 216.077 127.719 221.716 128.224 227.199C128.224 227.355 128.224 227.51 128.224 227.666C128.185 227.938 128.069 228.21 127.913 228.443C127.758 228.677 127.563 228.871 127.291 229.027C127.174 229.105 127.019 229.182 126.863 229.221C126.435 229.377 126.047 229.61 125.697 229.96L125.658 229.999C124.919 230.66 124.569 231.438 124.53 232.449C124.491 233.46 124.802 234.316 125.502 235.054C126.085 235.677 126.824 236.027 127.758 236.143C128.496 236.221 129.119 236.727 129.391 237.427C129.974 239.021 130.83 240.46 132.035 241.704C134.174 243.999 136.741 245.165 139.813 245.243C142.924 245.321 145.568 244.349 147.824 242.21C150.079 240.071 151.207 237.543 151.324 234.471V234.432C151.363 233.81 151.324 233.188 151.246 232.643C151.246 232.566 151.246 232.527 151.246 232.449C151.09 229.766 150.935 227.121 150.779 224.555C150.546 222.494 150.313 220.394 150.041 218.333C149.224 211.994 147.668 205.733 145.413 199.666C142.924 193.016 138.724 187.65 132.852 183.683C131.958 183.1 131.724 181.855 132.346 181C132.93 180.106 134.174 179.872 135.03 180.494C141.641 184.967 146.346 190.994 149.107 198.383C151.479 204.722 153.074 211.255 153.929 217.905C154.202 220.005 154.435 222.144 154.668 224.205V224.244C154.668 224.282 154.668 224.282 154.668 224.321C154.863 226.888 155.018 229.532 155.135 232.216C155.252 232.993 155.29 233.81 155.252 234.666C155.135 238.788 153.54 242.288 150.546 245.126C147.668 247.849 144.207 249.21 140.241 249.21Z" fill="black"/>
<path d="M144.145 227.444C143.834 218.577 143.017 209.478 141.656 200.144C139.4 190.15 135.239 181.673 129.095 174.673C124.001 168.917 117.584 164.134 109.807 160.44C103.973 157.64 97.7123 155.89 91.1013 155.229H91.0625C90.9847 155.229 90.9069 155.19 90.7902 155.19C90.518 155.19 90.2069 155.151 89.9347 155.151H88.9236C88.8458 155.151 88.7681 155.151 88.6903 155.151H88.1458C88.0292 155.151 87.8736 155.151 87.757 155.151H86.4737C86.357 155.151 86.2014 155.151 86.0459 155.151H86.007H85.5403C85.3848 155.151 85.2292 155.151 85.1126 155.151C84.6848 155.151 84.2959 155.19 83.8681 155.19C83.7126 155.19 83.557 155.229 83.4015 155.229C76.7127 155.89 70.374 157.64 64.4241 160.479C47.2744 168.645 36.6579 181.906 32.5747 200.144C31.2136 209.478 30.3969 218.539 30.0858 227.444C29.5803 254.277 47.08 268.082 82.5071 268.899C82.7015 268.899 82.9348 268.899 83.1293 268.899L85.2292 268.938C85.3459 268.938 85.5014 268.938 85.657 268.938H86.007C86.0459 268.938 86.0459 268.938 86.0459 268.938H86.4737C86.5903 268.938 86.6681 268.938 86.7848 268.938H87.9125C87.9903 268.938 88.0681 268.938 88.107 268.938C88.107 268.938 88.1458 268.938 88.1847 268.938C88.4181 268.938 88.6903 268.938 88.9236 268.938L91.0236 268.899C91.218 268.899 91.4513 268.899 91.6458 268.899C127.151 268.082 144.611 254.277 144.145 227.444Z" fill="#A87D4E"/>
<path d="M88.9625 270.882H85.2681H85.2292L83.1293 270.843H82.5071H82.4682C73.485 270.649 65.5129 269.599 58.7853 267.732C51.941 265.827 46.1855 263.066 41.6356 259.449C32.4191 252.177 27.9081 241.405 28.1803 227.405V227.366C28.4914 218.461 29.3081 209.205 30.6692 199.872C30.6692 199.833 30.6692 199.795 30.7081 199.717C32.808 190.345 36.619 182.139 42.1023 175.295C47.5855 168.49 54.8187 162.89 63.6074 158.651C69.7129 155.695 76.3238 153.868 83.2071 153.207H83.2459C83.4015 153.207 83.557 153.168 83.6737 153.168C83.7126 153.168 83.7515 153.168 83.7904 153.168L84.957 153.129C85.1126 153.129 85.307 153.09 85.5014 153.09H88.6903C88.8069 153.09 88.9625 153.09 89.0792 153.129L90.0125 153.168C90.0514 153.168 90.0514 153.168 90.0903 153.168C90.2069 153.168 90.3236 153.168 90.4791 153.168C90.6736 153.168 90.868 153.207 91.0625 153.207C91.1402 153.207 91.2569 153.245 91.3347 153.245C98.1401 153.945 104.634 155.734 110.662 158.651C118.634 162.462 125.323 167.44 130.534 173.389C136.873 180.584 141.267 189.45 143.561 199.717C143.561 199.756 143.6 199.795 143.6 199.872C144.961 209.205 145.817 218.461 146.089 227.366V227.405C146.322 241.405 141.811 252.177 132.595 259.449C128.045 263.066 122.251 265.827 115.445 267.732C108.718 269.599 100.746 270.649 91.7624 270.843H91.7236H91.1013L88.9625 270.882C89.0014 270.882 89.0014 270.882 88.9625 270.882ZM85.2681 266.993H88.9625L91.0625 266.954H91.1013H91.6847C108.873 266.565 121.823 262.988 130.184 256.416C134.267 253.188 137.339 249.144 139.323 244.399C141.345 239.616 142.278 233.899 142.161 227.522C141.85 218.811 141.034 209.711 139.712 200.533C137.534 190.928 133.451 182.684 127.578 175.995C122.679 170.434 116.418 165.806 108.912 162.19C103.312 159.506 97.2457 157.795 90.9069 157.173C90.868 157.173 90.7902 157.173 90.7513 157.173C90.7125 157.173 90.6347 157.173 90.5958 157.134C90.3236 157.134 90.0903 157.095 89.818 157.095L88.8847 157.018C88.8069 157.018 88.7292 157.018 88.6514 157.018H85.5403C85.4626 157.018 85.3848 157.018 85.307 157.018C85.2681 157.018 85.2292 157.018 85.1903 157.018L83.9848 157.056C83.8681 157.056 83.7126 157.095 83.557 157.095C77.1405 157.718 70.9573 159.429 65.2796 162.151C56.9964 166.117 50.2299 171.367 45.1356 177.706C40.0412 184.045 36.4635 191.706 34.5191 200.494C33.1969 209.672 32.3414 218.733 32.0691 227.483C31.9525 233.861 32.9247 239.577 34.908 244.36C36.8913 249.105 39.9634 253.149 44.0467 256.377C52.4076 262.988 65.3574 266.527 82.5459 266.915H83.1293H83.1682L85.2681 266.993Z" fill="black"/>
<path d="M88.9625 270.882H85.2681H85.2292L83.1293 270.843H82.5071H82.4682C73.485 270.649 65.5129 269.599 58.7853 267.732C51.941 265.827 46.1855 263.066 41.6356 259.449C32.4191 252.177 27.9081 241.405 28.1803 227.405V227.366C28.4914 218.461 29.3081 209.205 30.6692 199.872C30.6692 199.833 30.6692 199.795 30.7081 199.717C32.808 190.345 36.619 182.139 42.1023 175.295C47.5855 168.49 54.8187 162.89 63.6074 158.651C69.7129 155.695 76.3238 153.868 83.2071 153.207H83.2459C83.4015 153.207 83.557 153.168 83.6737 153.168C83.7126 153.168 83.7515 153.168 83.7904 153.168L84.957 153.129C85.1126 153.129 85.307 153.09 85.5014 153.09H88.6903C88.8069 153.09 88.9625 153.09 89.0792 153.129L90.0125 153.168C90.0514 153.168 90.0514 153.168 90.0903 153.168C90.2069 153.168 90.3236 153.168 90.4791 153.168C90.6736 153.168 90.868 153.207 91.0625 153.207C91.1402 153.207 91.2569 153.245 91.3347 153.245C98.1401 153.945 104.634 155.734 110.662 158.651C118.634 162.462 125.323 167.44 130.534 173.389C136.873 180.584 141.267 189.45 143.561 199.717C143.561 199.756 143.6 199.795 143.6 199.872C144.961 209.205 145.817 218.461 146.089 227.366V227.405C146.322 241.405 141.811 252.177 132.595 259.449C128.045 263.066 122.251 265.827 115.445 267.732C108.718 269.599 100.746 270.649 91.7624 270.843H91.7236H91.1013L88.9625 270.882C89.0014 270.882 89.0014 270.882 88.9625 270.882ZM85.2681 266.993H88.9625L91.0625 266.954H91.1013H91.6847C108.873 266.565 121.823 262.988 130.184 256.416C134.267 253.188 137.339 249.144 139.323 244.399C141.345 239.616 142.278 233.899 142.161 227.522C141.85 218.811 141.034 209.711 139.712 200.533C137.534 190.928 133.451 182.684 127.578 175.995C122.679 170.434 116.418 165.806 108.912 162.19C103.312 159.506 97.2457 157.795 90.9069 157.173C90.868 157.173 90.7902 157.173 90.7513 157.173C90.7125 157.173 90.6347 157.173 90.5958 157.134C90.3236 157.134 90.0903 157.095 89.818 157.095L88.8847 157.018C88.8069 157.018 88.7292 157.018 88.6514 157.018H85.5403C85.4626 157.018 85.3848 157.018 85.307 157.018C85.2681 157.018 85.2292 157.018 85.1903 157.018L83.9848 157.056C83.8681 157.056 83.7126 157.095 83.557 157.095C77.1405 157.718 70.9573 159.429 65.2796 162.151C56.9964 166.117 50.2299 171.367 45.1356 177.706C40.0412 184.045 36.4635 191.706 34.5191 200.494C33.1969 209.672 32.3414 218.733 32.0691 227.483C31.9525 233.861 32.9247 239.577 34.908 244.36C36.8913 249.105 39.9634 253.149 44.0467 256.377C52.4076 262.988 65.3574 266.527 82.5459 266.915H83.1293H83.1682L85.2681 266.993Z" fill="black"/>
<path d="M91.1014 155.229C90.8681 155.19 90.5958 155.151 90.3625 155.151C90.2458 155.151 90.0903 155.151 89.9736 155.151C90.2458 155.19 90.557 155.19 90.8292 155.19C90.9458 155.19 91.0236 155.19 91.1014 155.229Z" fill="#A87D4F"/>
<path d="M108.329 196.061C102.612 196.061 97.7123 198.589 93.629 203.606C89.5847 208.622 87.5625 214.65 87.5625 221.727C87.5625 228.805 89.5847 234.833 93.629 239.849C97.7123 244.866 102.612 247.394 108.329 247.394C114.045 247.394 118.945 244.866 122.99 239.849C127.073 234.833 129.095 228.805 129.095 221.727C129.095 214.65 127.073 208.583 122.99 203.606C118.945 198.589 114.045 196.061 108.329 196.061Z" fill="#D3CBB4"/>
<path d="M88.9625 270.882H85.2681H85.2292L83.1293 270.843H82.5071H82.4682C73.485 270.649 65.5129 269.599 58.7853 267.732C51.941 265.827 46.1855 263.066 41.6356 259.449C32.4191 252.177 27.9081 241.405 28.1803 227.405V227.366C28.4914 218.461 29.3081 209.205 30.6692 199.872C30.6692 199.833 30.6692 199.795 30.7081 199.717C32.808 190.345 36.619 182.139 42.1023 175.295C47.5855 168.49 54.8187 162.89 63.6074 158.651C69.7129 155.695 76.3238 153.868 83.2071 153.207H83.2459C83.4015 153.207 83.557 153.168 83.6737 153.168C83.7126 153.168 83.7515 153.168 83.7904 153.168L84.957 153.129C85.1126 153.129 85.307 153.09 85.5014 153.09H88.6903C88.8069 153.09 88.9625 153.09 89.0792 153.129L90.0125 153.168C90.0514 153.168 90.0514 153.168 90.0903 153.168C90.2069 153.168 90.3236 153.168 90.4791 153.168C90.7514 153.168 90.9847 153.207 91.2569 153.207C91.4124 153.207 91.568 153.245 91.7236 153.284C98.3734 153.984 104.751 155.812 110.662 158.651C119.451 162.89 126.684 168.49 132.167 175.295C137.65 182.139 141.461 190.345 143.6 199.717C143.6 199.756 143.639 199.795 143.639 199.872C145 209.205 145.856 218.461 146.128 227.366V227.405C146.361 241.405 141.85 252.177 132.634 259.449C128.084 263.066 122.29 265.827 115.484 267.732C108.757 269.599 100.784 270.649 91.8013 270.843H91.7624H91.1402L88.9625 270.882C89.0014 270.882 89.0014 270.882 88.9625 270.882ZM85.2681 266.993H88.9625L91.0625 266.954H91.1013H91.6847C108.873 266.565 121.823 262.988 130.184 256.416C134.267 253.188 137.339 249.144 139.323 244.399C141.345 239.616 142.278 233.899 142.161 227.522C141.85 218.811 141.034 209.711 139.712 200.533C137.728 191.784 134.151 184.123 129.056 177.745C123.962 171.367 117.195 166.156 108.912 162.19C103.312 159.506 97.2457 157.795 90.9069 157.173C90.868 157.173 90.868 157.173 90.8291 157.173H90.7902C90.7514 157.173 90.6736 157.173 90.6347 157.134C90.3625 157.134 90.1291 157.095 89.8569 157.095L88.8847 157.018C88.8069 157.018 88.7292 157.018 88.6514 157.018H85.5403C85.4626 157.018 85.3848 157.018 85.307 157.018C85.2681 157.018 85.2292 157.018 85.1903 157.018L83.9848 157.056C83.8681 157.056 83.7126 157.095 83.557 157.095C77.1405 157.718 70.9573 159.429 65.2796 162.151C56.9964 166.117 50.2299 171.367 45.1356 177.706C40.0412 184.045 36.4635 191.706 34.5191 200.494C33.1969 209.672 32.3414 218.733 32.0691 227.483C31.9525 233.861 32.9247 239.577 34.908 244.36C36.8913 249.105 39.9634 253.149 44.0467 256.377C52.4076 262.988 65.3574 266.527 82.5459 266.915H83.1293H83.1682L85.2681 266.993Z" fill="black"/>
<path d="M43.8992 281.129C53.0379 283.656 62.721 283.656 73.0264 281.129C74.3097 274.129 75.0875 267.44 75.3986 261.101C75.4763 258.962 75.5152 257.601 75.5152 257.018L47.088 255.073C47.2047 261.723 46.1547 270.434 43.8992 281.129Z" fill="#A87D4D"/>
<path d="M43.8992 281.167C43.3159 284.162 42.6937 287.234 41.9548 290.384C41.6826 291.395 41.5659 292.445 41.5659 293.534C41.5659 296.956 43.0048 299.873 45.8436 302.245C48.6824 304.695 52.1435 305.9 56.1879 305.9H72.9875C73.6875 305.9 74.3486 305.822 75.0097 305.745C77.1097 305.472 79.0152 304.811 80.7263 303.761C81.4652 303.334 82.1651 302.828 82.8262 302.245C85.704 299.873 87.1039 296.995 87.1039 293.534C87.1039 290.112 85.6651 287.156 82.8262 284.745C80.5707 282.878 77.9652 281.712 75.0097 281.284C74.3875 281.206 73.7264 281.128 73.0264 281.128C62.76 283.695 53.0379 283.695 43.8992 281.167Z" fill="#4E4943"/>
<path d="M72.9876 307.845H56.1879C51.6769 307.845 47.7881 306.445 44.5993 303.723C41.2938 301 39.6216 297.578 39.6216 293.534C39.6216 292.29 39.7771 291.084 40.0882 289.917C40.7882 286.884 41.4493 283.851 41.9938 280.895C41.9938 280.856 41.9938 280.779 42.0326 280.74C44.2104 270.201 45.2993 261.568 45.1826 255.112C45.1826 254.024 46.0381 253.168 47.0881 253.129C48.177 253.129 49.0325 253.985 49.0714 255.035C49.1492 261.762 48.0603 270.629 45.8437 281.401C45.8437 281.44 45.8437 281.479 45.8048 281.517C45.2215 284.512 44.5604 287.623 43.8604 290.773C43.8604 290.812 43.8604 290.812 43.8604 290.851C43.6271 291.706 43.5104 292.601 43.5104 293.495C43.5104 296.334 44.677 298.706 47.0881 300.689C47.0881 300.689 47.0881 300.689 47.127 300.728C49.6547 302.867 52.6102 303.917 56.1879 303.917H72.9876C73.6098 303.917 74.1931 303.878 74.7765 303.762H74.8154C76.6431 303.528 78.2764 302.984 79.7541 302.05L79.793 302.012C80.4152 301.662 80.9986 301.234 81.5819 300.728C81.6208 300.689 81.6208 300.689 81.6597 300.689C84.0707 298.706 85.2374 296.334 85.2374 293.495C85.2374 290.617 84.0707 288.245 81.6208 286.184C79.6375 284.512 77.382 283.54 74.7765 283.19C74.232 283.112 73.6487 283.073 73.0654 283.034C72.9876 283.034 72.9487 283.034 72.8709 283.034C72.6376 282.995 72.4432 282.956 72.2487 282.84C71.9765 282.723 71.7432 282.529 71.5876 282.295C71.3932 282.062 71.2765 281.829 71.1988 281.517C71.1599 281.323 71.121 281.09 71.1599 280.856C71.1599 280.779 71.1599 280.74 71.1988 280.662C72.4821 273.818 73.2598 267.168 73.532 260.907C73.6098 258.807 73.6487 257.446 73.6487 256.862C73.6876 255.812 74.5431 254.957 75.5931 254.957H75.632C76.7209 254.996 77.5764 255.851 77.5375 256.94C77.5375 257.562 77.4986 258.885 77.382 261.062C77.1486 266.857 76.4487 272.962 75.3598 279.262C78.6264 279.729 81.5819 281.051 84.1096 283.112C87.4151 285.912 89.0873 289.373 89.0873 293.378C89.0873 297.384 87.4151 300.806 84.1096 303.528C83.3707 304.189 82.5541 304.773 81.7374 305.239C79.793 306.445 77.6153 307.184 75.282 307.495C74.582 307.767 73.8043 307.845 72.9876 307.845C73.0265 307.845 73.0265 307.845 72.9876 307.845Z" fill="black"/>
<path d="M65.2444 228.599C64.6999 228.055 64.0388 227.666 63.3 227.432C54.5112 224.555 45.7225 223.582 36.856 224.438C36.6616 227.044 36.506 229.688 36.3894 232.41C36.2727 233.11 36.2727 233.81 36.3116 234.588C36.4283 238.204 37.7893 241.238 40.3948 243.688C43.0392 246.177 46.1892 247.343 49.8058 247.226C53.4224 247.11 56.4945 245.749 58.9445 243.065C60.3445 241.627 61.3556 239.954 62.0166 238.088C63.4166 237.932 64.5833 237.349 65.4777 236.377C66.4888 235.249 66.9943 233.888 66.9554 232.41C66.9554 230.932 66.3721 229.649 65.2444 228.599Z" fill="#4E4943"/>
<path d="M42.3394 199.083C40.0061 205.305 38.4505 211.644 37.6339 218.177C37.3617 220.277 37.1283 222.377 36.895 224.438C45.7615 223.582 54.5891 224.555 63.339 227.432C63.8056 221.988 64.8167 216.505 66.3333 210.983C67.85 205.461 71.1944 199.394 76.4054 192.783L55.6002 182.167C49.3781 186.366 44.9838 192.005 42.3394 199.083Z" fill="#A87D4F"/>
<path d="M49.3779 249.21C45.4502 249.21 41.9892 247.849 39.0726 245.126C36.0782 242.288 34.4838 238.788 34.3671 234.666C34.3282 233.81 34.3671 232.993 34.4838 232.216C34.6393 229.532 34.7949 226.888 34.9504 224.321V224.282V224.244C35.1838 222.144 35.4171 220.044 35.6893 217.944C36.5449 211.294 38.1782 204.722 40.5114 198.422C43.2725 191.033 47.978 185.005 54.5112 180.611C55.4056 180.028 56.6111 180.261 57.1945 181.117C57.7778 182.011 57.5445 183.217 56.6889 183.8C50.8557 187.766 46.6169 193.133 44.128 199.783C41.8725 205.811 40.317 212.11 39.5004 218.449C39.2281 220.51 38.9948 222.61 38.7615 224.671C38.567 227.238 38.4115 229.882 38.2948 232.566C38.2948 232.643 38.2948 232.682 38.2948 232.76C38.217 233.304 38.1782 233.927 38.217 234.549V234.588C38.2948 237.699 39.4615 240.227 41.717 242.365C43.9725 244.504 46.6169 245.476 49.7279 245.399C52.839 245.321 55.3667 244.154 57.5056 241.86C58.7111 240.615 59.6055 239.177 60.15 237.582C60.3833 236.882 61.0444 236.377 61.7833 236.299C62.7166 236.182 63.4555 235.832 64.0388 235.21C64.7388 234.432 65.0499 233.616 65.011 232.604C64.9721 231.593 64.6221 230.816 63.8832 230.155L63.8443 230.116C63.4943 229.766 63.1055 229.532 62.6777 229.377C62.5221 229.338 62.4055 229.26 62.2499 229.182C62.0166 229.027 61.7833 228.832 61.6277 228.599C61.4722 228.366 61.3555 228.093 61.3166 227.782C61.2777 227.627 61.2777 227.471 61.3166 227.316C61.8222 221.794 62.8332 216.155 64.3499 210.555C65.9054 204.799 69.4053 198.422 74.7719 191.655C75.433 190.8 76.6774 190.683 77.4941 191.344C78.3496 192.005 78.4663 193.25 77.8052 194.066C72.7886 200.444 69.522 206.355 68.0831 211.605C66.7221 216.544 65.7887 221.521 65.2832 226.421C65.711 226.693 66.0998 227.005 66.4887 227.355C67.9665 228.755 68.7442 230.466 68.822 232.527C68.8609 234.549 68.1998 236.338 66.8387 237.854C65.8665 238.904 64.6999 239.604 63.3388 239.954C62.5999 241.627 61.5499 243.182 60.2666 244.543C57.4278 247.576 53.889 249.21 49.7668 249.326C49.6891 249.21 49.5335 249.21 49.3779 249.21Z" fill="black"/>
<path d="M59.7599 39.3245C59.6348 38.2513 59.6573 37.1158 59.851 35.9491C61.0363 29.1742 63.0304 22.3755 65.8023 15.5762C66.5243 13.818 67.5889 12.3862 68.9725 11.2498C70.3483 10.1678 71.7945 9.56795 73.3654 9.458C78.5916 9.22888 83.6169 10.8042 88.4489 14.1296C89.6394 14.9377 90.5268 16.1192 91.1423 17.6509C91.7344 19.1516 91.891 20.7847 91.6667 22.5581C90.8861 29.8071 89.0555 36.8235 86.1436 43.6307C85.7632 44.5487 85.2893 45.3423 84.722 46.0115L59.7599 39.3245Z" fill="#A87D4F"/>
<path d="M84.7156 48.0104C84.2723 48.003 83.8444 47.8866 83.4709 47.5835C82.6227 46.9075 82.5208 45.671 83.2202 44.8539C83.6554 44.3325 84.0282 43.6634 84.3544 42.9321C87.1808 36.3349 88.996 29.4274 89.7456 22.3962C89.9001 20.9184 89.8059 19.6274 89.3384 18.4222C88.8943 17.2482 88.2404 16.3775 87.3534 15.7793C82.9027 12.7025 78.2197 11.2591 73.499 11.449C72.3246 11.5043 71.2361 11.9328 70.1712 12.7812C69.0364 13.7308 68.205 14.8902 67.5838 16.3295C64.8662 22.9421 62.9109 29.663 61.7799 36.2512C61.6095 37.2546 61.6102 38.2268 61.7041 39.1289C61.8293 40.2021 61.0522 41.1748 60.0101 41.2766C58.9369 41.4018 57.9642 40.6247 57.8624 39.5826C57.706 38.3383 57.7518 37.0395 57.9764 35.655C57.9764 35.655 57.9764 35.655 57.9841 35.6005C59.1305 28.709 61.1789 21.7235 63.9896 14.8464C64.867 12.7771 66.1102 11.0652 67.7115 9.76528C67.7115 9.76528 67.7115 9.76528 67.7426 9.74193C69.406 8.39531 71.2876 7.66296 73.2475 7.55273C73.2475 7.55273 73.2785 7.52938 73.3019 7.56047C78.9247 7.27664 84.3778 8.96838 89.56 12.5657C91.0773 13.6147 92.2293 15.0838 92.9617 16.9654C93.624 18.7537 93.8742 20.7057 93.6034 22.8058C92.7996 30.2181 90.9069 37.4757 87.9485 44.4151C87.4904 45.4887 86.9077 46.4612 86.2394 47.255C85.8587 47.7841 85.2989 48.01 84.7156 48.0104Z" fill="black"/>
<path d="M225.791 65.6236C222.252 59.5182 218.013 54.1516 212.996 49.485C207.941 44.8185 202.458 41.0852 196.469 38.3241C190.325 35.5242 183.986 33.852 177.453 33.3853C158.514 31.9076 139.42 31.0909 120.17 31.0132C119.509 31.0132 118.848 31.0132 118.187 31.0132C102.437 30.9743 86.61 31.4021 70.627 32.2965C61.6827 32.7631 53.3606 35.2909 45.6997 39.8797C42.6664 41.7074 39.8276 43.7685 37.2221 46.1018C33.4499 49.4462 30.1055 53.2961 27.15 57.6904C22.0946 65.157 18.7113 73.5179 16.9613 82.6955C15.1336 92.262 15.2114 101.984 17.1947 111.862C17.9724 115.595 18.7502 119.289 19.5668 122.945C33.2944 172.06 70.6659 189.482 131.604 175.21L144.398 171.866C145.37 171.594 146.303 171.36 147.276 171.088C155.014 168.988 162.714 166.733 170.453 164.4C217.158 150.905 238.857 127.806 235.629 95.062C235.007 91.9898 234.346 88.8787 233.607 85.7677C232.013 78.5734 229.407 71.8846 225.791 65.6236Z" fill="#A87D4F"/>
<path d="M94.0765 181.977C92.7932 181.977 91.5488 181.938 90.3044 181.899C77.8213 181.51 66.6215 179.022 57.0939 174.588C47.5274 170.116 39.3609 163.544 32.7888 154.989C26.2945 146.511 21.2391 135.895 17.7391 123.45C17.7391 123.411 17.7391 123.373 17.7002 123.373C16.8836 119.717 16.0669 115.984 15.2892 112.289C13.2281 102.217 13.1503 92.1454 15.017 82.3456C16.8058 72.9347 20.3446 64.3015 25.4779 56.6405C28.5111 52.1295 32.0111 48.124 35.861 44.7019C38.5832 42.2908 41.5387 40.1131 44.6497 38.2464C52.5829 33.5021 61.2938 30.8577 70.5103 30.3521C86.4545 29.4577 102.515 29.0299 118.187 29.0688C118.848 29.0688 119.509 29.0688 120.17 29.0688C139.381 29.1466 158.709 29.9633 177.608 31.441C184.336 31.9466 190.947 33.6576 197.247 36.5742C203.391 39.4131 209.108 43.3019 214.28 48.0851C219.413 52.8295 223.846 58.4294 227.424 64.6515C231.118 71.0291 233.841 77.9512 235.552 85.2233C236.29 88.3733 236.952 91.5232 237.574 94.5954C237.574 94.6731 237.613 94.712 237.613 94.7898C238.429 103.229 237.652 111.123 235.279 118.356C232.868 125.589 228.824 132.278 223.224 138.228C217.663 144.139 210.43 149.505 201.758 154.133C193.125 158.761 182.78 162.805 171.036 166.188C163.336 168.522 155.52 170.777 147.82 172.877C146.848 173.149 145.876 173.422 144.903 173.694L132.109 177.077H132.07C118.304 180.344 105.51 181.977 94.0765 181.977ZM21.4724 122.439C24.8168 134.378 29.6778 144.567 35.861 152.616C42.0442 160.627 49.7052 166.85 58.7272 171.049C67.7882 175.288 78.4435 177.622 90.4211 178.01C102.476 178.399 116.204 176.805 131.176 173.305L143.931 169.961C144.864 169.727 145.837 169.455 146.809 169.183C154.509 167.083 162.286 164.827 169.947 162.494C169.947 162.494 169.947 162.494 169.986 162.494C181.458 159.189 191.569 155.222 199.93 150.711C208.252 146.239 215.135 141.144 220.424 135.545C225.635 129.984 229.407 123.8 231.624 117.112C233.841 110.462 234.579 103.073 233.802 95.2565C233.218 92.2232 232.557 89.151 231.818 86.1177C230.185 79.1957 227.618 72.6624 224.118 66.5959C220.696 60.6849 216.535 55.435 211.674 50.924C206.813 46.4129 201.408 42.7575 195.652 40.1131C189.741 37.4298 183.597 35.7965 177.336 35.3298C158.514 33.8521 139.303 33.0743 120.17 32.9577C119.509 32.9577 118.848 32.9577 118.187 32.9577C102.554 32.9188 86.61 33.3465 70.7437 34.241C62.1494 34.7076 54.0606 37.1576 46.7108 41.5519C43.7942 43.3019 41.0331 45.3241 38.5054 47.5796C34.8888 50.8073 31.5833 54.5795 28.7445 58.8183C23.8834 66.0126 20.578 74.1791 18.8669 83.0456C17.078 92.301 17.1558 101.867 19.1002 111.473C19.878 115.128 20.6557 118.823 21.4724 122.439Z" fill="black"/>
<path d="M222.485 90.2789C220.463 79.8957 215.485 71.6514 207.552 65.546C199.619 59.4795 191.025 57.3017 181.808 59.0906C172.592 60.8794 165.475 66.0904 160.381 74.6847C155.287 83.279 153.77 92.8066 155.753 103.19C156.064 104.862 156.492 106.495 156.959 108.051C159.448 116.217 164.036 122.828 170.647 127.923C172.747 129.517 174.847 130.839 177.025 131.889C183.131 134.845 189.586 135.661 196.391 134.339C202.886 133.095 208.369 130.139 212.802 125.473C213.852 124.423 214.824 123.256 215.719 122.012C216.458 121 217.197 119.912 217.858 118.745C222.952 110.19 224.507 100.662 222.485 90.2789Z" fill="#4E4943"/>
<path d="M94.0765 181.977C92.7932 181.977 91.5488 181.938 90.3044 181.899C77.8213 181.51 66.6215 179.022 57.0939 174.588C47.5274 170.116 39.3609 163.544 32.7888 154.989C26.2945 146.511 21.2391 135.895 17.7391 123.45C17.7391 123.411 17.7391 123.373 17.7002 123.373C16.8836 119.717 16.0669 115.984 15.2892 112.289C13.2281 102.217 13.1503 92.1454 15.017 82.3456C16.8058 72.9347 20.3446 64.3015 25.4779 56.6405C28.5111 52.1295 32.0111 48.124 35.861 44.7019C38.5832 42.2908 41.5387 40.1131 44.6497 38.2464C52.5829 33.5021 61.2938 30.8577 70.5103 30.3521C86.4545 29.4577 102.515 29.0299 118.187 29.0688C118.848 29.0688 119.509 29.0688 120.17 29.0688C139.381 29.1466 158.709 29.9633 177.608 31.441C184.336 31.9466 190.947 33.6576 197.247 36.5742C203.391 39.4131 209.108 43.3019 214.28 48.0851C219.413 52.8295 223.846 58.4294 227.424 64.6515C231.118 71.0291 233.841 77.9512 235.552 85.2233C236.29 88.3733 236.952 91.5232 237.574 94.5954C237.574 94.6731 237.613 94.712 237.613 94.7898C238.429 103.229 237.652 111.123 235.279 118.356C232.868 125.589 228.824 132.278 223.224 138.228C217.663 144.139 210.43 149.505 201.758 154.133C193.125 158.761 182.78 162.805 171.036 166.188C163.336 168.522 155.52 170.777 147.82 172.877C146.848 173.149 145.876 173.422 144.903 173.694L132.109 177.077H132.07C118.304 180.344 105.51 181.977 94.0765 181.977ZM21.4724 122.439C24.8168 134.378 29.6778 144.567 35.861 152.616C42.0442 160.627 49.7052 166.85 58.7272 171.049C67.7882 175.288 78.4435 177.622 90.4211 178.01C102.476 178.399 116.204 176.805 131.176 173.305L143.931 169.961C144.864 169.727 145.837 169.455 146.809 169.183C154.509 167.083 162.286 164.827 169.947 162.494C169.947 162.494 169.947 162.494 169.986 162.494C181.458 159.189 191.569 155.222 199.93 150.711C208.252 146.239 215.135 141.144 220.424 135.545C225.635 129.984 229.407 123.8 231.624 117.112C233.841 110.462 234.579 103.073 233.802 95.2565C233.218 92.2232 232.557 89.151 231.818 86.1177C230.185 79.1957 227.618 72.6624 224.118 66.5959C220.696 60.6849 216.535 55.435 211.674 50.924C206.813 46.4129 201.408 42.7575 195.652 40.1131C189.741 37.4298 183.597 35.7965 177.336 35.3298C158.514 33.8521 139.303 33.0743 120.17 32.9577C119.509 32.9577 118.848 32.9577 118.187 32.9577C102.554 32.9188 86.61 33.3465 70.7437 34.241C62.1494 34.7076 54.0606 37.1576 46.7108 41.5519C43.7942 43.3019 41.0331 45.3241 38.5054 47.5796C34.8888 50.8073 31.5833 54.5795 28.7445 58.8183C23.8834 66.0126 20.578 74.1791 18.8669 83.0456C17.078 92.301 17.1558 101.867 19.1002 111.473C19.878 115.128 20.6557 118.823 21.4724 122.439Z" fill="black"/>
<path d="M180.518 86.2553C180.363 85.3998 179.896 84.6998 179.157 84.2332C178.418 83.7276 177.64 83.5721 176.785 83.7665C175.929 83.922 175.229 84.3887 174.763 85.0887C174.296 85.7887 174.102 86.6053 174.296 87.4609C174.49 88.3164 174.918 89.0164 175.618 89.4831C176.357 89.9886 177.135 90.1442 177.99 89.9886C178.846 89.833 179.546 89.3664 180.013 88.6275C180.518 87.9275 180.674 87.1109 180.518 86.2553ZM202.84 81.9388C202.684 81.0832 202.218 80.3832 201.479 79.9166C200.74 79.411 199.962 79.2555 199.068 79.4499C198.212 79.6055 197.512 80.0721 197.046 80.7721C196.579 81.4721 196.385 82.2887 196.579 83.1443C196.734 83.9998 197.201 84.6998 197.901 85.1665C198.64 85.672 199.418 85.8276 200.273 85.672C201.129 85.5165 201.829 85.0498 202.296 84.3109C202.84 83.5721 203.034 82.7943 202.84 81.9388Z" fill="black"/>
<path d="M177.329 92.0108C176.318 92.0108 175.346 91.6997 174.452 91.1164C173.324 90.3386 172.585 89.2109 172.313 87.8498C172.04 86.4887 172.313 85.1276 173.09 83.9998C173.868 82.8721 174.996 82.0943 176.357 81.8221C177.718 81.5499 179.04 81.8221 180.207 82.5999C181.374 83.3776 182.112 84.5054 182.385 85.8665C182.657 87.2276 182.385 88.5886 181.568 89.7164C180.79 90.883 179.663 91.6219 178.301 91.8941C177.99 91.9719 177.679 92.0108 177.329 92.0108ZM177.407 85.5943C177.329 85.5943 177.213 85.5943 177.135 85.6332C176.785 85.7109 176.551 85.8665 176.318 86.1387C176.124 86.4498 176.085 86.722 176.163 87.072C176.24 87.422 176.396 87.6553 176.668 87.8887C176.668 87.8887 176.668 87.8887 176.707 87.8887C177.018 88.0831 177.251 88.1609 177.601 88.0831C177.951 88.0053 178.185 87.8498 178.379 87.5387C178.379 87.5387 178.379 87.4998 178.418 87.4998C178.613 87.1887 178.69 86.9553 178.613 86.6054C178.535 86.2554 178.379 86.022 178.068 85.8276C177.835 85.672 177.64 85.5943 177.407 85.5943ZM199.69 87.6942C198.679 87.6942 197.707 87.3831 196.812 86.7998C195.684 86.022 194.946 84.8943 194.673 83.5332C194.401 82.1721 194.673 80.811 195.451 79.6833C196.229 78.5555 197.357 77.7777 198.718 77.5055C200.079 77.2333 201.401 77.5055 202.568 78.2833C203.734 79.0611 204.473 80.1888 204.745 81.5499C205.018 82.911 204.745 84.2721 203.929 85.3998C203.151 86.5665 202.023 87.3053 200.662 87.5776C200.351 87.6553 200.001 87.6942 199.69 87.6942ZM199.768 81.2777C199.69 81.2777 199.573 81.2777 199.495 81.3166C199.145 81.3943 198.912 81.5499 198.679 81.8221C198.484 82.1332 198.407 82.4054 198.484 82.7554C198.562 83.1054 198.718 83.3388 198.99 83.5721C199.301 83.7665 199.534 83.8443 199.884 83.7665C200.234 83.6887 200.468 83.5332 200.662 83.2221C200.662 83.2221 200.662 83.1832 200.701 83.1832C200.895 82.8721 200.973 82.6388 200.895 82.2888C200.818 81.9388 200.662 81.7054 200.351 81.511C200.195 81.3555 200.001 81.2777 199.768 81.2777Z" fill="black"/>
<path d="M40.4542 52.3963C39.9098 51.463 39.2098 50.5685 38.3542 49.7519C33.3377 45.0464 27.66 40.8076 21.3601 37.0355C19.7268 36.0633 18.0157 35.5577 16.2269 35.4799C14.4769 35.4411 12.9603 35.8299 11.6381 36.7244C7.3215 39.6799 4.24934 43.9187 2.38271 49.4797C1.91605 50.8408 1.91605 52.3185 2.38271 53.9129C2.81048 55.4684 3.66602 56.8684 4.91044 58.1906C9.88812 63.5183 15.5658 68.0293 21.9823 71.7237C22.8379 72.2292 23.6934 72.5792 24.549 72.7737L40.4542 52.3963Z" fill="#A87D4F"/>
<path d="M24.5488 74.757C24.3933 74.757 24.2377 74.757 24.0822 74.7181C23.0322 74.4848 22.0211 74.057 21.01 73.4737C14.4768 69.7016 8.56581 65.035 3.51035 59.5907C2.0326 58.0351 1.02151 56.3241 0.477077 54.4963C-0.0673574 52.513 -0.0673575 50.6464 0.515965 48.9353C2.53815 42.9076 5.88253 38.28 10.5491 35.0911C10.5491 35.0911 10.588 35.0911 10.588 35.0522C12.2602 33.9634 14.1657 33.4578 16.3046 33.4967C16.3046 33.4967 16.3046 33.4967 16.3434 33.4967C18.4434 33.5745 20.4656 34.1967 22.3711 35.3245C28.7488 39.1355 34.582 43.491 39.6763 48.2742C39.6763 48.2742 39.6763 48.2742 39.7152 48.3131C40.6874 49.2853 41.543 50.2964 42.1652 51.3853C42.7096 52.3186 42.3985 53.4852 41.4652 54.0296C40.5319 54.5741 39.3652 54.263 38.8208 53.3297C38.3541 52.5519 37.7708 51.813 37.0319 51.0742C32.132 46.5631 26.5321 42.3632 20.3878 38.7077C19.0267 37.93 17.6267 37.5022 16.1879 37.4244C14.8657 37.3855 13.699 37.6966 12.7268 38.3188C8.79914 41.0021 5.9603 44.9687 4.21034 50.1019C3.89923 51.113 3.89923 52.2019 4.21034 53.4074C4.56033 54.6519 5.22143 55.7796 6.27141 56.8296C11.0935 61.9628 16.6934 66.3961 22.9155 70.0127C23.6155 70.4016 24.2766 70.6738 24.9766 70.8682C26.0266 71.1404 26.6488 72.1904 26.4155 73.2015C26.221 74.1348 25.4044 74.757 24.5488 74.757Z" fill="black"/>
<path d="M71.1255 84.5871C70.4452 80.9162 68.6105 78.0266 65.7124 75.9794C62.7613 73.8635 59.5378 73.1879 56.0652 73.8689C52.5926 74.5499 49.8631 76.3929 47.9297 79.4668C45.9432 82.4718 45.3282 85.8022 46.0541 89.5038C46.7194 93.0984 48.5392 95.9117 51.521 97.982C54.5029 100.052 57.7338 100.766 61.2139 100.123C64.6865 99.4422 67.3704 97.5686 69.2656 94.5022C71.2521 91.4972 71.8671 88.1667 71.1255 84.5871ZM64.6859 79.2321C65.3392 79.9362 65.6565 80.7458 65.6834 81.6915C65.7029 82.5992 65.3797 83.3759 64.7138 84.0216C64.0478 84.6674 63.2382 84.9847 62.285 84.9735C61.3773 84.9929 60.6007 84.6697 59.9549 84.0038C59.3091 83.3379 58.9537 82.5358 58.9267 81.59C58.8998 80.6442 59.2612 79.86 59.9652 79.2068C60.6312 78.561 61.4026 78.2512 62.3102 78.2317C63.2253 78.2504 64.0402 78.5662 64.6859 79.2321Z" fill="black"/>
<path d="M58.7044 102.28C55.7683 102.261 52.9803 101.381 50.4018 99.5488C47.0092 97.2024 44.9013 93.9304 44.1387 89.8397C43.323 85.6803 44.0315 81.8163 46.2941 78.4005C48.5036 74.9158 51.6843 72.7466 55.6912 71.9608C59.698 71.175 63.4243 71.9898 66.8244 74.3743C70.1407 76.7357 72.2486 80.0077 73.0336 84.2129C73.88 88.3267 73.1566 92.1144 70.9014 95.5683C68.692 99.053 65.5569 101.253 61.5807 101.993C60.5885 102.188 59.6577 102.291 58.7044 102.28ZM58.6139 75.5486C57.9046 75.5688 57.2027 75.6272 56.4395 75.7768C53.463 76.3606 51.2303 77.908 49.558 80.4947C47.8476 83.0889 47.3336 85.9241 47.9548 89.0914C48.5228 92.1899 50.062 94.5827 52.6255 96.3388C55.1509 98.1023 57.8483 98.7225 60.8249 98.1388C63.7632 97.5626 65.9959 96.0152 67.6226 93.3978C67.6226 93.3978 67.6225 93.3978 67.6532 93.3521C69.3636 90.7579 69.8469 87.9684 69.2408 84.8774C69.2408 84.8774 69.2408 84.8774 69.2333 84.8393C68.6428 81.6263 67.1036 79.2335 64.5782 77.4699C62.6687 76.2196 60.7187 75.5717 58.6139 75.5486Z" fill="black"/>
<path d="M63.9516 92.057C63.9239 91.3095 63.6672 90.6069 63.1584 90.033C62.6189 89.5047 61.9717 89.2354 61.2242 89.2631C60.5073 89.2451 59.8811 89.4868 59.3528 90.0263C58.7864 90.5733 58.5171 91.2206 58.5066 91.9755C58.5343 92.723 58.7835 93.3875 59.323 93.9157C59.8625 94.444 60.4716 94.7208 61.2266 94.7313C61.9741 94.7036 62.6385 94.4544 63.1742 93.953C63.71 93.4517 63.9793 92.8044 63.9516 92.057ZM67.4299 81.7056C67.3895 80.2869 66.8754 79.08 65.9184 78.0392C64.9307 77.0441 63.7275 76.5667 62.3088 76.6072C60.9589 76.5945 59.7827 77.0629 58.7876 78.0507C57.7543 79.0459 57.2388 80.2565 57.241 81.6827C57.2815 83.1014 57.7956 84.3083 58.7833 85.3034C59.771 86.2986 60.9435 86.8215 62.2859 86.7961C63.712 86.7938 64.9189 86.2797 65.9597 85.3227C66.9399 84.2586 67.4629 83.0861 67.4299 81.7056Z" fill="white"/>
<path d="M62.068 108.317C59.1296 108.893 56.724 109.761 54.8205 110.967C52.917 112.172 52.0738 113.328 52.2908 114.435C52.5078 115.542 53.7253 116.294 55.9431 116.691C58.1609 117.088 60.7161 116.983 63.6545 116.407C66.5547 115.838 68.9603 114.97 70.8638 113.765C72.7748 112.598 73.6562 111.434 73.4317 110.289C73.2072 109.144 71.9972 108.431 69.7413 108.041C67.5616 107.636 65.0063 107.741 62.068 108.317Z" fill="#CF80A6"/>
<path d="M125.21 73.941C124.53 70.2702 122.695 67.3805 119.797 65.3334C116.854 63.2556 113.63 62.58 110.158 63.261C106.685 63.942 103.955 65.785 102.022 68.8588C100.035 71.8639 99.4205 75.1943 100.146 78.8959C100.812 82.4904 102.632 85.3038 105.613 87.3741C108.595 89.4444 111.826 90.1582 115.306 89.5153C118.779 88.8343 121.463 86.9606 123.396 83.8868C125.344 80.8893 125.959 77.5588 125.21 73.941ZM118.778 68.6242C119.431 69.3283 119.749 70.1379 119.768 71.0455C119.788 71.9531 119.464 72.7298 118.799 73.3755C118.133 74.0213 117.323 74.3386 116.37 74.3274C115.462 74.3469 114.685 74.0236 114.04 73.3577C113.394 72.6918 113.039 71.8897 113.012 70.9439C112.985 69.9981 113.346 69.2139 114.05 68.5607C114.716 67.915 115.487 67.6052 116.395 67.5857C117.318 67.6425 118.132 67.9583 118.778 68.6242Z" fill="black"/>
<path d="M112.797 91.6718C109.861 91.6532 107.073 90.7733 104.494 88.9409C101.101 86.5945 98.9936 83.3225 98.231 79.2318C97.4153 75.0723 98.1238 71.2084 100.386 67.7926C102.596 64.3079 105.777 62.1387 109.783 61.3529C113.79 60.5671 117.517 61.3819 120.917 63.7664C124.233 66.1278 126.341 69.3998 127.118 73.5668C127.965 77.6806 127.241 81.4683 124.986 84.9223C122.784 88.4451 119.649 90.645 115.673 91.3851C114.681 91.5797 113.75 91.683 112.797 91.6718ZM112.706 64.9407C111.997 64.9609 111.295 65.0193 110.532 65.1689C107.555 65.7526 105.323 67.3001 103.65 69.8868C101.94 72.481 101.426 75.3162 102.047 78.4835C102.615 81.582 104.154 83.9748 106.718 85.7309C109.243 87.4944 111.941 88.1146 114.917 87.5309C117.855 86.9547 120.088 85.4073 121.715 82.7898C121.715 82.7898 121.715 82.7898 121.746 82.7442C123.456 80.15 123.939 77.3605 123.333 74.2695C123.333 74.2695 123.333 74.2695 123.326 74.2313C122.735 71.0184 121.196 68.6255 118.671 66.862C116.761 65.6117 114.811 64.9638 112.706 64.9407Z" fill="black"/>
<path d="M118.082 81.4416C118.054 80.6941 117.798 79.9915 117.289 79.4176C116.749 78.8894 116.102 78.62 115.355 78.6478C114.638 78.6298 114.011 78.8715 113.445 79.4185C112.879 79.9655 112.609 80.6127 112.599 81.3677C112.627 82.1152 112.876 82.7796 113.415 83.3079C113.955 83.8361 114.564 84.113 115.319 84.1234C116.066 84.0957 116.731 83.8465 117.266 83.3452C117.802 82.8439 118.072 82.1966 118.082 81.4416ZM121.515 71.0596C121.474 69.6409 120.96 68.434 120.003 67.3932C119.015 66.3981 117.812 65.9207 116.393 65.9612C115.044 65.9485 113.867 66.4169 112.872 67.4047C111.839 68.3999 111.331 69.6487 111.371 71.0674C111.412 72.486 111.926 73.693 112.914 74.6881C113.901 75.6832 115.074 76.2062 116.454 76.1733C117.881 76.171 119.087 75.6569 120.128 74.6999C121.032 73.6508 121.555 72.4783 121.515 71.0596Z" fill="white"/>
<path d="M116.198 97.7017C113.26 98.278 110.854 99.146 108.951 100.351C107.047 101.557 106.204 102.713 106.421 103.82C106.638 104.926 107.856 105.678 110.073 106.076C112.291 106.473 114.847 106.368 117.785 105.792C120.685 105.223 123.129 104.347 125.032 103.142C126.943 101.975 127.825 100.811 127.6 99.6663C127.376 98.5215 126.166 97.8077 123.91 97.4179C121.654 97.0281 119.099 97.133 116.198 97.7017Z" fill="#CF80A6"/>
<path d="M174.654 116.09C173.541 116.07 172.699 115.204 172.727 114.129C172.77 109.881 174.086 105.861 176.575 102.166C180.048 97.0123 184.891 93.8099 190.998 92.6194C197.067 91.4364 202.758 92.5852 207.912 96.0575C211.606 98.5464 214.336 101.778 216.003 105.653C216.433 106.639 215.985 107.796 214.991 108.188C214.005 108.617 212.848 108.169 212.457 107.176C211.084 103.997 208.824 101.347 205.768 99.2883C201.397 96.3765 196.818 95.4467 191.704 96.4437C186.589 97.4408 182.695 100.022 179.776 104.355C177.717 107.411 176.656 110.708 176.578 114.17C176.588 115.238 175.722 116.08 174.654 116.09Z" fill="black"/>
</svg>
