<svg width="24" height="24" viewBox="0 0 24 24" fill="none" xmlns="http://www.w3.org/2000/svg">
<path fill-rule="evenodd" clip-rule="evenodd" d="M5.63606 16.9497C5.24554 17.3403 5.24554 17.9734 5.63606 18.364C6.02659 18.7545 6.65975 18.7545 7.05028 18.364L12 13.4142L16.9497 18.364C17.3403 18.7545 17.9734 18.7545 18.364 18.364C18.7545 17.9734 18.7545 17.3403 18.364 16.9498L13.4142 12L18.364 7.05025C18.7545 6.65972 18.7545 6.02656 18.364 5.63603C17.9735 5.24551 17.3403 5.24551 16.9498 5.63603L12 10.5858L7.05025 5.63605C6.65972 5.24552 6.02656 5.24552 5.63603 5.63605C5.24551 6.02657 5.24551 6.65974 5.63603 7.05026L10.5858 12L5.63606 16.9497Z" fill="#383F47"/>
</svg>
