<svg width="783" height="1000" viewBox="0 0 783 1000" fill="none" xmlns="http://www.w3.org/2000/svg">
<path fill-rule="evenodd" clip-rule="evenodd" d="M626.01 417.062L625.992 417.106C666.789 468.26 691.169 533.051 691.169 603.521C691.169 675.039 666.058 740.709 624.161 792.21L620.553 796.644L619.597 791.009C618.784 786.216 617.827 781.378 616.717 776.5C595.749 684.372 527.433 605.373 414.993 541.408C339.064 498.332 295.602 446.463 284.191 387.53C276.822 349.422 282.301 311.145 292.889 278.359C303.474 245.584 319.22 218.124 332.597 201.592L332.606 201.581L376.345 148.097C384.016 138.718 398.371 138.718 406.042 148.097L626.01 417.062ZM695.192 363.627L695.2 363.607L402.029 5.1334C396.432 -1.71113 385.952 -1.71113 380.354 5.1334L87.1804 363.611L87.1885 363.631L86.2346 364.814C32.285 431.76 0 516.837 0 609.449C0 825.141 175.139 1000 391.192 1000C607.245 1000 782.383 825.141 782.383 609.449C782.383 516.838 750.098 431.761 696.149 364.814L695.192 363.627ZM157.328 415.907L157.34 415.893L183.562 383.828L184.355 389.748C184.983 394.437 185.744 399.15 186.647 403.884C203.614 492.906 264.225 567.135 365.56 624.624C453.645 674.757 504.93 732.405 519.708 795.63C525.873 822.016 526.972 847.976 524.302 870.675L524.136 872.079L522.866 872.7C483.11 892.122 438.418 903.023 391.183 903.023C225.509 903.023 91.1967 768.935 91.1967 603.521C91.1967 532.502 115.956 467.245 157.328 415.907Z" fill="#4CA3FF"/>
</svg>
