<svg xmlns="http://www.w3.org/2000/svg" fill="none" viewBox="0 0 48 48" id="Hammer--Streamline-Ionic-Filled" height="48" width="48">
  <desc>
    Hammer Streamline Icon: https://streamlinehq.com
  </desc>
  <path fill="#000000" d="m26.2618 22.7612 -2.4477 -2.4487c-0.5608 -0.5608 -1.3207 -0.8767 -2.1137 -0.8789 -0.793 -0.0021 -1.5545 0.3098 -2.1182 0.8676L2.56398 36.007c-0.61968 0.584 -1.02655 1.3284 -1.06405 2.1618 -0.01803 0.4135 0.04932 0.826 0.19788 1.2122 0.14856 0.3861 0.37512 0.7375 0.66555 1.0322l3.6562 3.6965c0.00195 0.0024 0.00415 0.0047 0.00656 0.0065 0.565 0.5632 1.32945 0.8806 2.12716 0.8832h0.11062c0.83343 -0.031 1.57972 -0.4219 2.1722 -1.0472l15.8154 -16.9404c0.2804 -0.278 0.5032 -0.6087 0.6556 -0.973 0.1524 -0.3643 0.2313 -0.7552 0.2322 -1.1501 0.001 -0.3949 -0.0761 -0.7861 -0.2267 -1.1512 -0.1505 -0.3651 -0.3717 -0.6968 -0.6508 -0.9763Z" stroke-width="1"></path>
  <path fill="#000000" d="m45.9358 17.8118 -0.029 -0.029 -3.2128 -3.18c-0.1882 -0.1876 -0.4117 -0.336 -0.6576 -0.4367 -0.2458 -0.1008 -0.5092 -0.1518 -0.7749 -0.1502 -0.4305 0.0004 -0.8499 0.1362 -1.199 0.3881 0 -0.0403 0.0056 -0.0796 0.0084 -0.1143 0.0422 -0.6094 0.1078 -1.53 -0.4875 -2.3644 -0.7078 -0.954 -1.4849 -1.8545 -2.325 -2.69431 -0.0022 -0.00272 -0.0047 -0.00524 -0.0075 -0.0075 -1.2487 -1.22998 -3.9665 -3.54651 -8.1299 -5.2443 -1.5789 -0.64802 -3.2693 -0.98084 -4.9761 -0.97968 -2.9587 0 -5.2087 1.33499 -6.0703 2.12623 -0.4878 0.46596 -0.9328 0.97488 -1.3293 1.5206 -0.1895 0.26153 -0.2895 0.57723 -0.2852 0.90016 0.0044 0.32292 0.1128 0.63583 0.3093 0.89218 0.1964 0.25635 0.4703 0.44246 0.7809 0.53066 0.3107 0.08819 0.6416 0.07376 0.9434 -0.04116 0.2629 -0.09828 0.5315 -0.18061 0.8044 -0.24655 0.5682 -0.12017 1.1509 -0.15649 1.7296 -0.10782 1.2366 0.10219 2.699 0.71625 3.3459 1.22718 1.0969 0.88221 1.6247 2.07091 1.7119 3.85211 0.0168 0.3581 -0.7238 1.7006 -1.875 3.2325 -0.2193 0.2891 -0.3263 0.6479 -0.3014 1.0098 0.025 0.362 0.1804 0.7027 0.4373 0.9589l3.2259 3.2259c0.271 0.2717 0.636 0.4292 1.0196 0.44 0.3837 0.0108 0.757 -0.1259 1.0429 -0.3819 0.9122 -0.8147 2.3015 -2.0428 2.7871 -2.3437 0.721 -0.4434 1.2366 -0.5287 1.3781 -0.5437 0.3674 -0.036 0.7369 0.0419 1.0585 0.2231 0.0016 0.016 -0.0002 0.0322 -0.0052 0.0476 -0.005 0.0153 -0.0131 0.0294 -0.0239 0.0414l-0.1706 0.1622 -0.0281 0.0263c-0.1886 0.1879 -0.3381 0.4111 -0.4399 0.657 -0.1019 0.2458 -0.1541 0.5094 -0.1537 0.7755 0.0004 0.2661 0.0536 0.5295 0.1562 0.7751 0.1027 0.2455 0.2529 0.4682 0.442 0.6555l3.2119 3.179c0.1882 0.1874 0.4117 0.3357 0.6576 0.4363 0.2458 0.1006 0.5092 0.1514 0.7749 0.1496 0.5334 0.0009 1.0458 -0.2079 1.4268 -0.5812l5.2031 -5.1393c0.0178 -0.0178 0.0356 -0.0366 0.0525 -0.0553 0.349 -0.3826 0.5403 -0.8833 0.5355 -1.4011 -0.0049 -0.5179 -0.2056 -1.0148 -0.5618 -1.3908Z" stroke-width="1"></path>
</svg>