<svg xmlns="http://www.w3.org/2000/svg" fill="none" viewBox="0 0 40 40"><g clip-path="url(#a)"><rect width="40" height="40" fill="#0A0D1E" rx="8"/><path fill="url(#b)" d="M31.74 31H8.266a2.258 2.258 0 0 1-1.965-1.12 2.234 2.234 0 0 1 .007-2.254L17.405 8.49A2.99 2.99 0 0 1 20 7a3.007 3.007 0 0 1 2.595 1.491L33.69 27.626a2.233 2.233 0 0 1-.824 3.078 2.258 2.258 0 0 1-1.134.296h.006Zm-19.553-4.498h15.64l-7.82-13.487-7.82 13.487Z"/></g><defs><linearGradient id="b" x1="10.505" x2="29.428" y1="34.15" y2="15.144" gradientUnits="userSpaceOnUse"><stop stop-color="#0073D1"/><stop offset=".06" stop-color="#0082CE"/><stop offset=".22" stop-color="#00A0C9"/><stop offset=".39" stop-color="#00B8C4"/><stop offset=".57" stop-color="#00C9C1"/><stop offset=".76" stop-color="#00D3C0"/><stop offset="1" stop-color="#00D6BF"/></linearGradient><clipPath id="a"><path fill="white" d="M0 0h40v40H0z"/></clipPath></defs></svg>