<svg width="30" height="30" viewBox="0 0 30 30" fill="none" xmlns="http://www.w3.org/2000/svg">
<rect width="30" height="30" rx="15" fill="#681DEC"/>
<path d="M19.7608 12.3533C20.179 12.3533 20.5877 12.2293 20.9354 11.997C21.2831 11.7647 21.5541 11.4345 21.7141 11.0482C21.8741 10.6619 21.916 10.2368 21.8344 9.82671C21.7528 9.41661 21.5515 9.0399 21.2558 8.74423C20.9601 8.44855 20.5834 8.2472 20.1733 8.16562C19.7632 8.08405 19.3381 8.12592 18.9518 8.28593C18.5655 8.44595 18.2353 8.71693 18.003 9.0646C17.7707 9.41227 17.6467 9.82102 17.6467 10.2392C17.6467 10.5168 17.7013 10.7917 17.8076 11.0482C17.9138 11.3048 18.0695 11.5378 18.2659 11.7341C18.4622 11.9305 18.6953 12.0862 18.9518 12.1924C19.2083 12.2987 19.4832 12.3534 19.7608 12.3533ZM13.2783 21.875C12.2591 21.875 11.2627 21.5728 10.4153 21.0065C9.56782 20.4403 8.90731 19.6354 8.51727 18.6938C8.12723 17.7522 8.02518 16.716 8.22402 15.7164C8.42286 14.7167 8.91367 13.7985 9.63437 13.0778C10.3551 12.3571 11.2733 11.8663 12.2729 11.6675C13.2726 11.4686 14.3087 11.5707 15.2504 11.9607C16.192 12.3508 16.9968 13.0113 17.5631 13.8587C18.1293 14.7062 18.4316 15.7025 18.4316 16.7217C18.4316 17.3985 18.2983 18.0686 18.0393 18.6938C17.7804 19.3191 17.4008 19.8872 16.9222 20.3657C16.4437 20.8442 15.8756 21.2238 15.2504 21.4828C14.6252 21.7417 13.955 21.875 13.2783 21.875Z" fill="white"/>
</svg>
