<svg width="30" height="30" viewBox="0 0 30 30" fill="none" xmlns="http://www.w3.org/2000/svg">
<g clip-path="url(#clip0_7871_108091)">
<rect width="30" height="30" rx="15" fill="#681DEC"/>
<path d="M15 30C23.2843 30 30 23.2843 30 15C30 6.71573 23.2843 0 15 0C6.71573 0 0 6.71573 0 15C0 23.2843 6.71573 30 15 30Z" fill="url(#paint0_linear_7871_108091)"/>
<path d="M24.4716 14.083L20.2348 9.84624L20.2271 9.83856L20.2104 9.82388C20.1829 9.7991 20.1543 9.77577 20.1244 9.75399C20.1034 9.73721 20.0825 9.72114 20.0601 9.70646C20.0503 9.69947 20.0405 9.69388 20.03 9.68759C19.7885 9.52939 19.4963 9.46781 19.2115 9.51507C18.9266 9.56233 18.67 9.71497 18.4924 9.94269L11.9031 16.5327V10.6619C11.9031 10.3532 11.7805 10.0573 11.5623 9.83902C11.3441 9.62079 11.0481 9.49818 10.7394 9.49818C10.4308 9.49818 10.1348 9.62079 9.91659 9.83902C9.69836 10.0573 9.57576 10.3532 9.57576 10.6619V16.5327L7.17011 14.1271C6.95022 13.9174 6.65704 13.802 6.35322 13.8056C6.0494 13.8093 5.75905 13.9315 5.5442 14.1464C5.32936 14.3612 5.20706 14.6516 5.20345 14.9554C5.19984 15.2592 5.3152 15.5524 5.52487 15.7723L9.91682 20.1642C9.94442 20.1922 9.97359 20.2186 10.0042 20.2432C10.0335 20.267 10.0643 20.29 10.095 20.3131C10.2537 20.4159 10.4351 20.4786 10.6234 20.4955H10.6283C10.6661 20.499 10.7038 20.5011 10.7415 20.5011H10.759C10.7907 20.5011 10.8221 20.4997 10.8534 20.4969H10.8764C10.9065 20.4934 10.9365 20.4899 10.9659 20.4836H10.9792C11.012 20.4767 11.0449 20.469 11.077 20.4592H11.0826C11.1177 20.4486 11.1522 20.4363 11.186 20.4221C11.2342 20.4022 11.281 20.3789 11.3258 20.3523L11.3524 20.3369C11.3963 20.31 11.4384 20.2801 11.4782 20.2474L11.4901 20.2369C11.5145 20.216 11.539 20.195 11.56 20.1712L18.2415 13.4855V19.3381C18.2415 19.6468 18.3641 19.9428 18.5824 20.161C18.8006 20.3792 19.0966 20.5018 19.4052 20.5018C19.7139 20.5018 20.0098 20.3792 20.2281 20.161C20.4463 19.9428 20.5689 19.6468 20.5689 19.3381V13.4673L22.8264 15.729C23.0455 15.9429 23.3402 16.0618 23.6464 16.0599C23.9526 16.058 24.2458 15.9355 24.4623 15.7189C24.6788 15.5023 24.8012 15.2091 24.8029 14.9029C24.8047 14.5967 24.6856 14.3021 24.4716 14.083Z" fill="white"/>
</g>
<defs>
<linearGradient id="paint0_linear_7871_108091" x1="2.00727" y1="7.4986" x2="27.9927" y2="22.5007" gradientUnits="userSpaceOnUse">
<stop offset="0.13" stop-color="#348BED"/>
<stop offset="0.31" stop-color="#2B80E8"/>
<stop offset="0.64" stop-color="#1461DB"/>
<stop offset="0.72" stop-color="#0E57D7"/>
</linearGradient>
<clipPath id="clip0_7871_108091">
<rect width="30" height="30" rx="15" fill="white"/>
</clipPath>
</defs>
</svg>
