<svg xmlns="http://www.w3.org/2000/svg" fill="none" viewBox="0 0 40 40"><rect width="40" height="40" fill="url(#a)" rx="8"/><path fill="white" d="m32.629 18.777-5.65-5.649-.01-.01-.022-.02a1.444 1.444 0 0 0-.114-.093 1.121 1.121 0 0 0-.086-.063c-.013-.01-.026-.017-.04-.025a1.533 1.533 0 0 0-2.05.34l-8.786 8.787v-7.828a1.551 1.551 0 1 0-3.103 0v7.828L9.56 18.836a1.552 1.552 0 0 0-2.193 2.194l5.855 5.856a1.4 1.4 0 0 0 .117.105l.121.093c.212.137.454.22.705.243h.006c.05.005.1.008.151.008h.023c.043 0 .085-.002.126-.006h.03c.041-.004.081-.01.12-.018h.018c.044-.009.088-.019.13-.032h.008a1.432 1.432 0 0 0 .324-.143l.035-.02c.06-.036.115-.076.168-.12l.016-.013c.033-.028.065-.056.093-.088l8.91-8.914v7.803a1.551 1.551 0 1 0 3.102 0v-7.828l3.01 3.016a1.552 1.552 0 0 0 2.194-2.195Z"/><defs><linearGradient id="a" x1="2.676" x2="37.324" y1="9.998" y2="30.001" gradientUnits="userSpaceOnUse"><stop offset=".13" stop-color="#348BED"/><stop offset=".31" stop-color="#2B80E8"/><stop offset=".64" stop-color="#1461DB"/><stop offset=".72" stop-color="#0E57D7"/></linearGradient></defs></svg>