<svg width="16" height="16" viewBox="0 0 16 16" fill="none" xmlns="http://www.w3.org/2000/svg">
<path fill-rule="evenodd" clip-rule="evenodd" d="M8.44713 0.151715C8.1656 0.0109516 7.83423 0.0109516 7.55271 0.151715L0.886038 3.48505C0.547254 3.65444 0.333252 4.0007 0.333252 4.37948C0.333252 4.75825 0.547254 5.10451 0.886038 5.2739L7.55271 8.60724C7.83423 8.748 8.1656 8.748 8.44713 8.60724L15.1138 5.2739C15.4526 5.10451 15.6666 4.75825 15.6666 4.37948C15.6666 4.0007 15.4526 3.65444 15.1138 3.48505L8.44713 0.151715ZM0.4388 7.59893C0.685789 7.10496 1.28646 6.90473 1.78044 7.15172L7.99989 10.2614L14.2193 7.15172C14.7133 6.90473 15.314 7.10496 15.561 7.59893C15.808 8.09291 15.6078 8.69359 15.1138 8.94058L8.44711 12.2739C8.16558 12.4147 7.83421 12.4147 7.55268 12.2739L0.886013 8.94058C0.392035 8.69359 0.19181 8.09291 0.4388 7.59893ZM1.78044 10.7262C1.28646 10.4792 0.685789 10.6794 0.4388 11.1734C0.19181 11.6674 0.392035 12.268 0.886013 12.515L7.55268 15.8484C7.83421 15.9891 8.16558 15.9891 8.44711 15.8484L15.1138 12.515C15.6078 12.268 15.808 11.6674 15.561 11.1734C15.314 10.6794 14.7133 10.4792 14.2193 10.7262L7.99989 13.8359L1.78044 10.7262Z" fill="#A0B6C3"/>
</svg>
