<svg width="202" height="24" viewBox="0 0 202 24" fill="none" xmlns="http://www.w3.org/2000/svg">
<g clip-path="url(#clip0_7652_14615)">
<path d="M71.3631 12.585H71.1431L65.9846 0H61.1012V18.7315H64.9416V6.49366H65.0981L69.9448 18.6398H72.5614L77.4081 6.5389H77.5634V18.7315H81.405V0H76.5216L71.3631 12.585Z" fill="#D40551"/>
<path d="M89.6019 14.9998H89.4552L86.5464 4.68287H82.4492L87.4891 19.1337L87.2605 19.728C87.0893 20.1669 86.8668 20.4775 86.5929 20.6609C86.3251 20.8443 86.0048 20.9286 85.6331 20.9164C85.2675 20.9042 84.8555 20.8284 84.3982 20.6878L83.5203 23.5965C83.8003 23.7127 84.1549 23.8068 84.5816 23.8802C85.0144 23.9596 85.4778 23.9988 85.9718 23.9988C86.9352 23.9988 87.7581 23.8435 88.4416 23.5317C89.1238 23.2273 89.6887 22.7908 90.1338 22.2234C90.5849 21.6622 90.942 21.0044 91.2036 20.2476L96.6641 4.68042H92.5388L89.6031 14.9974L89.6019 14.9998Z" fill="#D40551"/>
<path d="M108.628 11.9261C107.957 11.3037 106.94 10.8526 105.574 10.5726L103.031 10.0603C102.378 9.91966 101.918 9.73381 101.65 9.50272C101.381 9.27041 101.248 8.98797 101.248 8.65174C101.248 8.23113 101.456 7.89612 101.87 7.64547C102.285 7.38993 102.793 7.26155 103.397 7.26155C103.849 7.26155 104.236 7.33735 104.559 7.49019C104.888 7.63691 105.153 7.83499 105.355 8.08441C105.557 8.32773 105.688 8.60283 105.749 8.90728L109.315 8.68719C109.144 7.39482 108.547 6.37266 107.523 5.62316C106.504 4.87365 105.108 4.49829 103.334 4.49829C102.132 4.49829 101.084 4.67558 100.188 5.02893C99.2978 5.38229 98.6057 5.88603 98.1118 6.53772C97.6239 7.19063 97.3806 7.96704 97.3806 8.8706C97.3806 9.91966 97.7132 10.7816 98.3771 11.459C99.0471 12.1364 100.069 12.612 101.441 12.8859L103.874 13.3713C104.484 13.4936 104.936 13.6696 105.228 13.9019C105.52 14.1281 105.67 14.4167 105.675 14.7713C105.669 15.1919 105.456 15.5366 105.035 15.8044C104.62 16.0661 104.071 16.1981 103.388 16.1981C102.704 16.1981 102.122 16.0514 101.677 15.7592C101.232 15.4608 100.952 15.028 100.836 14.4607L97.004 14.6624C97.1935 16.0037 97.8367 17.065 98.9334 17.8451C100.038 18.619 101.518 19.0066 103.379 19.0066C104.598 19.0066 105.674 18.8147 106.607 18.4307C107.546 18.0407 108.284 17.4978 108.82 16.8021C109.363 16.1076 109.634 15.2994 109.634 14.3788C109.634 13.3664 109.299 12.5496 108.628 11.9273V11.9261Z" fill="#D40551"/>
<path d="M117.753 15.7407C117.57 15.7713 117.387 15.786 117.204 15.786C116.942 15.786 116.71 15.7468 116.509 15.6674C116.314 15.5879 116.162 15.451 116.052 15.2553C115.942 15.0536 115.887 14.7736 115.887 14.4141V7.60991H118.531V4.68281H115.887V1.31677H111.99V4.68281H110.07V7.60991H111.99V14.9264C111.984 15.8471 112.176 16.6088 112.566 17.2128C112.956 17.8168 113.502 18.2619 114.203 18.548C114.911 18.8341 115.734 18.9601 116.673 18.9234C117.179 18.905 117.61 18.8537 117.963 18.7681C118.317 18.6886 118.592 18.6189 118.786 18.5578L118.174 15.6588C118.076 15.6772 117.936 15.7041 117.753 15.7407Z" fill="#D40551"/>
<path d="M130.826 6.27484C130.228 5.68307 129.527 5.24168 128.723 4.94824C127.924 4.6499 127.061 4.49951 126.134 4.49951C124.756 4.49951 123.556 4.80396 122.531 5.41408C121.513 6.02419 120.723 6.87396 120.163 7.96581C119.602 9.05766 119.322 10.3256 119.322 11.7708C119.322 13.216 119.602 14.5365 120.163 15.621C120.724 16.7006 121.522 17.5357 122.559 18.1275C123.602 18.7132 124.846 19.0054 126.291 19.0054C127.45 19.0054 128.471 18.8281 129.355 18.4747C130.245 18.1153 130.97 17.6152 131.531 16.9745C132.099 16.3277 132.474 15.5721 132.656 14.7064L129.053 14.468C128.918 14.8214 128.724 15.1209 128.467 15.3643C128.21 15.6076 127.904 15.791 127.543 15.9132C127.183 16.0355 126.787 16.0966 126.354 16.0966C125.701 16.0966 125.138 15.9597 124.662 15.6846C124.187 15.4107 123.817 15.0195 123.556 14.5133C123.3 14.0071 123.172 13.4067 123.172 12.711V12.7013H132.738V11.6314C132.738 10.4368 132.571 9.3939 132.235 8.50379C131.9 7.60757 131.431 6.86418 130.827 6.2724L130.826 6.27484ZM123.175 10.2901C123.199 9.78638 123.327 9.32543 123.564 8.9085C123.82 8.45122 124.174 8.08808 124.626 7.82031C125.083 7.54643 125.607 7.40827 126.199 7.40827C126.791 7.40827 127.263 7.53298 127.69 7.78363C128.122 8.02694 128.461 8.36563 128.704 8.79846C128.949 9.23129 129.07 9.72892 129.07 10.2889H123.175V10.2901Z" fill="#D40551"/>
<path d="M144.905 5.1402C144.18 4.71348 143.329 4.49951 142.353 4.49951C141.31 4.49951 140.424 4.74038 139.691 5.22212C138.96 5.69774 138.438 6.34454 138.128 7.16129H137.963V4.68291H134.249V18.7315H138.146V10.6092C138.152 10.0052 138.265 9.49049 138.485 9.06378C138.711 8.63095 139.021 8.30205 139.418 8.07585C139.82 7.84966 140.283 7.73717 140.808 7.73717C141.588 7.73717 142.2 7.98048 142.645 8.46833C143.09 8.95007 143.311 9.62132 143.304 10.4809V18.7303H147.201V9.78638C147.201 8.69453 146.999 7.75551 146.597 6.96933C146.195 6.17703 145.63 5.56691 144.905 5.1402Z" fill="#D40551"/>
<path d="M151.885 0H150.175V18.7315H160.811V17.1946H151.885V0Z" fill="#D40551"/>
<path d="M171.617 5.43231C171.117 5.08507 170.574 4.84053 169.988 4.70115C169.409 4.56054 168.851 4.49084 168.314 4.49084C167.6 4.49084 166.896 4.59477 166.202 4.80141C165.507 5.00315 164.879 5.33449 164.317 5.79789C163.756 6.25517 163.317 6.86774 163.001 7.6368L164.546 8.19434C164.802 7.59034 165.247 7.06581 165.881 6.62075C166.522 6.1757 167.347 5.95317 168.36 5.95317C169.427 5.95317 170.244 6.23072 170.811 6.78582C171.385 7.3348 171.671 8.08797 171.671 9.04533V9.37423C171.671 9.72758 171.528 9.98435 171.24 10.1421C170.954 10.301 170.536 10.416 169.987 10.4893C169.444 10.5627 168.78 10.6483 167.993 10.7449C167.201 10.8427 166.474 10.9796 165.816 11.1569C165.157 11.3342 164.588 11.5751 164.106 11.8795C163.624 12.184 163.253 12.5752 162.99 13.0508C162.727 13.5265 162.596 14.1121 162.596 14.8066C162.596 15.7089 162.804 16.4768 163.218 17.1114C163.633 17.7398 164.19 18.2215 164.892 18.5566C165.594 18.8855 166.368 19.0505 167.215 19.0505C167.995 19.0505 168.675 18.9258 169.255 18.6752C169.834 18.4257 170.316 18.1054 170.7 17.7154C171.084 17.3253 171.374 16.9231 171.569 16.5086H171.669V18.7314H173.298V9.19205C173.298 8.25303 173.143 7.47908 172.831 6.86896C172.52 6.25273 172.115 5.77466 171.614 5.43353L171.617 5.43231ZM171.672 13.3443C171.672 14.1121 171.498 14.8164 171.151 15.4571C170.81 16.0916 170.322 16.6003 169.687 16.9842C169.053 17.3681 168.303 17.5601 167.438 17.5601C166.517 17.5601 165.752 17.3278 165.142 16.8656C164.531 16.3961 164.227 15.7346 164.227 14.8812C164.227 14.3139 164.376 13.8505 164.676 13.491C164.974 13.1254 165.404 12.8381 165.966 12.6315C166.527 12.4236 167.203 12.272 167.997 12.1742C168.289 12.1375 168.619 12.0947 168.984 12.0458C169.35 11.9969 169.716 11.9394 170.082 11.8722C170.454 11.7988 170.781 11.7169 171.061 11.6252C171.347 11.5335 171.551 11.4296 171.673 11.3146V13.3455L171.672 13.3443Z" fill="#D40551"/>
<path d="M186.048 5.40547C185.176 4.79535 184.164 4.4909 183.011 4.4909C182.152 4.4909 181.437 4.64374 180.871 4.94819C180.31 5.24652 179.857 5.61944 179.508 6.06449C179.167 6.50955 178.904 6.94238 178.722 7.36298H178.575V0H176.938V18.7315H178.52V16.1247H178.722C178.911 16.5514 179.179 16.9904 179.526 17.4415C179.874 17.8866 180.331 18.262 180.898 18.5664C181.472 18.8708 182.185 19.0237 183.038 19.0237C184.184 19.0237 185.19 18.7192 186.056 18.1091C186.927 17.499 187.605 16.6492 188.086 15.5574C188.574 14.4655 188.818 13.1952 188.818 11.7438C188.818 10.2925 188.574 9.03316 188.086 7.94865C187.599 6.85679 186.919 6.00947 186.047 5.40547H186.048ZM186.679 14.6709C186.344 15.5488 185.853 16.247 185.207 16.7654C184.56 17.2777 183.77 17.5332 182.837 17.5332C181.905 17.5332 181.155 17.2863 180.514 16.7923C179.88 16.2922 179.392 15.6063 179.051 14.7345C178.716 13.8566 178.548 12.8504 178.548 11.7157C178.548 10.5811 178.716 9.60293 179.051 8.74339C179.386 7.87773 179.871 7.20037 180.505 6.71252C181.145 6.21855 181.922 5.97157 182.836 5.97157C183.751 5.97157 184.568 6.22711 185.214 6.73941C185.861 7.2456 186.349 7.93153 186.678 8.79718C187.013 9.66284 187.18 10.6361 187.18 11.7145C187.18 12.7929 187.013 13.7906 186.678 14.6685L186.679 14.6709Z" fill="#D40551"/>
<path d="M200.118 12.5936C199.533 11.9712 198.652 11.5176 197.475 11.2303L195.353 10.7094C194.481 10.4893 193.834 10.1947 193.414 9.82173C192.999 9.44393 192.792 8.95241 192.792 8.34963C192.792 7.6368 193.097 7.05358 193.707 6.60242C194.316 6.15125 195.097 5.92505 196.048 5.92505C196.682 5.92505 197.212 6.02531 197.639 6.22705C198.072 6.4288 198.423 6.69901 198.691 7.04136C198.96 7.38249 199.166 7.76396 199.313 8.18456L200.803 7.76396C200.462 6.74547 199.905 5.94706 199.131 5.36751C198.362 4.78184 197.335 4.48962 196.048 4.48962C195.103 4.48962 194.261 4.65713 193.524 4.99215C192.786 5.32716 192.207 5.79056 191.786 6.38233C191.366 6.968 191.155 7.64781 191.155 8.42176C191.155 9.36078 191.448 10.147 192.033 10.7815C192.618 11.4161 193.521 11.8795 194.74 12.1717L197.035 12.7207C197.804 12.9041 198.378 13.1902 198.755 13.5803C199.133 13.9642 199.323 14.4398 199.323 15.0071C199.323 15.7383 198.999 16.3484 198.353 16.8363C197.706 17.318 196.843 17.5589 195.765 17.5589C194.801 17.5589 194.024 17.3461 193.432 16.9182C192.846 16.4915 192.454 15.8606 192.252 15.0255L190.688 15.4094C190.939 16.5807 191.509 17.4769 192.399 18.0981C193.289 18.7143 194.42 19.0224 195.792 19.0224C196.822 19.0224 197.728 18.8488 198.509 18.5015C199.295 18.1482 199.907 17.6628 200.346 17.0478C200.785 16.4328 201.005 15.7273 201.005 14.935C201.005 13.996 200.709 13.2159 200.118 12.5936Z" fill="#D40551"/>
<path d="M17.646 12.2586C11.7637 12.2586 5.88256 24 0.000244141 24V12.2794C6.11487 12.2794 11.996 0.537964 17.646 0.537964V12.2586Z" fill="#D40551"/>
<path d="M35.3113 12.1693C29.4289 12.1693 23.5478 23.9107 17.6655 23.9107V12.1914C23.7802 12.1914 29.6612 0.449951 35.3113 0.449951V12.1693Z" fill="#D40551"/>
<path d="M48.9075 17.1431C48.9075 20.8809 45.8667 23.9107 42.1143 23.9107C38.3618 23.9107 35.3223 20.8809 35.3223 17.1431C35.3223 13.4054 38.3631 10.3756 42.1143 10.3756C45.8654 10.3756 48.9075 13.4054 48.9075 17.1431Z" fill="#D40551"/>
</g>
<defs>
<clipPath id="clip0_7652_14615">
<rect width="201.005" height="24" fill="white" transform="translate(0.000244141)"/>
</clipPath>
</defs>
</svg>
