<svg width="201" height="24" viewBox="0 0 201 24" fill="none" xmlns="http://www.w3.org/2000/svg">
<g clip-path="url(#clip0_3474_49803)">
<path fill-rule="evenodd" clip-rule="evenodd" d="M63.4478 0H56.0723L52.6511 12.7185L49.6197 0H42.1113V18.6311H45.9939V3.96444L49.6093 18.6252H54.6552L58.6214 3.85185V18.6252H63.4478V0ZM80.2386 5.32148H75.678L72.3255 13.3837L69.3763 5.32148H64.3348L70.0736 18.5452L67.7127 23.9467H72.1389L80.2386 5.32148ZM80.0236 14.2874H85.1187C85.1725 15.7511 85.9774 16.763 87.5334 16.763C88.5788 16.763 89.303 16.3363 89.303 15.6178C89.303 14.6341 88.3114 14.3141 86.5135 13.7556L84.0734 12.9837C81.5796 12.1852 80.2924 10.9096 80.2924 8.99259C80.2924 6.38519 82.7294 4.88889 87.0227 4.88889C91.204 4.88889 93.6471 6.37926 93.9696 9.12H89.3C89.1119 7.8163 88.2009 7.17778 86.9943 7.17778C85.8938 7.17778 85.3846 7.6563 85.3846 8.21481C85.3846 9.09185 86.5105 9.43852 88.0725 9.91704L90.5395 10.6889C91.9342 11.1141 94.4012 12.0459 94.4012 14.6533C94.4012 17.32 91.9342 19.043 87.2945 19.043C82.9743 19.0504 80.4521 17.3748 80.0236 14.2874ZM101.453 7.98223H103.812V5.32149H101.453V0.531856L96.6247 2.39408V5.31556H94.9895V7.98223H96.6277V14.0489C96.6277 17.6933 97.564 18.6252 100.809 18.6252H103.812V15.8578H103.383C101.614 15.8578 101.453 15.6978 101.453 14.5007V7.98223ZM119.127 12.6919H109.72C109.827 15.9378 110.631 16.6563 111.918 16.6563C113.126 16.6563 113.743 15.9156 113.902 14.2859H118.892C118.569 17.08 116.344 19.0489 111.918 19.0489C106.769 19.0489 104.65 15.9896 104.65 12.1052C104.644 8.00889 106.817 4.88889 112.019 4.88889C116.445 4.88889 119.127 7.6563 119.127 12.1793V12.6919ZM109.821 10.2963H113.95V10.2222C113.95 7.98815 112.985 7.2963 111.992 7.2963C110.571 7.29037 109.908 8.64741 109.821 10.2963ZM134.011 18.6252V9.71111C134.011 6.33185 132.403 4.88889 129.533 4.88889C127.387 4.88889 125.992 5.82667 125.375 7.11111V5.32148H120.574C120.601 5.96 120.628 7.1837 120.628 7.79556V18.6252H125.456V11.0948C125.456 8.96593 126.207 8.08889 127.414 8.08889C128.674 8.08889 129.183 8.88 129.183 10.5096V18.6252H134.011ZM146.697 15.3526H155.189V18.6252H141.6V0H146.696L146.697 15.3526ZM165.139 16.763V18.6252L169.887 18.6193C169.833 18.0859 169.806 17.3689 169.806 16.4904V9.30667C169.806 6.51852 168.169 4.88889 163.449 4.88889C158.888 4.88889 156.717 6.22222 156.584 9.12593H161.545C161.545 7.92889 162.216 7.29037 163.395 7.29037C164.461 7.29037 165.059 7.90222 165.059 8.83259C165.059 9.87111 164.415 10.2163 162.242 10.643L161.036 10.8815C158.112 11.4652 156.074 12.2919 156.074 14.8726C156.074 17.2681 157.737 18.8104 160.794 18.8104C163.02 18.8104 164.361 18.0667 165.139 16.763ZM164.951 12.08V13.6756C164.951 15.0593 164.2 15.9378 162.859 15.9378C161.706 15.9378 161.116 15.3259 161.116 14.4474C161.116 13.4889 161.76 13.197 163.074 12.7719L163.476 12.6385C164.173 12.3985 164.603 12.2385 164.951 12.08ZM185.828 11.8667C185.828 15.8311 183.683 18.7837 179.768 18.7837C178.239 18.7837 177.059 18.1719 176.389 17.4015L176.012 18.6252H171.722V0H176.548V6.67852C177.165 5.77333 178.506 4.90074 180.17 4.90074C184.112 4.88889 185.828 7.85185 185.828 11.8667ZM180.544 11.8667C180.544 8.91259 179.714 7.68889 178.454 7.68889C177.007 7.68889 176.442 8.91259 176.442 11.8667C176.442 14.2607 177.007 15.9911 178.454 15.9911C179.982 15.9911 180.541 14.2607 180.541 11.8667H180.544ZM191.725 14.2874H186.628C187.058 17.3748 189.579 19.0504 193.892 19.0563C198.531 19.0563 201 17.3333 201 14.6667C201 12.0533 198.536 11.1215 197.147 10.6948L194.68 9.92296C193.12 9.44444 191.992 9.09777 191.992 8.22074C191.992 7.66222 192.501 7.1837 193.602 7.1837C194.809 7.1837 195.721 7.82222 195.908 9.12592H200.574C200.253 6.38518 197.81 4.89481 193.629 4.89481C189.337 4.89481 186.897 6.38518 186.897 8.99259C186.897 10.9096 188.184 12.1852 190.678 12.9837L193.12 13.7556C194.916 14.3141 195.908 14.6341 195.908 15.6178C195.908 16.3363 195.183 16.763 194.138 16.763C192.582 16.763 191.779 15.7511 191.725 14.2874Z" fill="#F50032"/>
<path d="M28.0623 18.5511C29.2877 18.5294 30.4555 18.0312 31.3143 17.1638C32.1732 16.2964 32.6544 15.1292 32.6544 13.9133C32.6544 12.6975 32.1732 11.5302 31.3143 10.6628C30.4555 9.79546 29.2877 9.29728 28.0623 9.27556V18.5511ZM0 18.5511C5.83438 18.5511 8.15051 9.27556 14.0162 9.27556V0C8.15051 0 5.83438 9.27556 0 9.27556V18.5511ZM14.0162 18.5511C19.882 18.5511 22.1966 9.27556 28.0623 9.27556V0C22.1966 0 19.882 9.27556 14.0162 9.27556V18.5511Z" fill="#F50032"/>
</g>
<defs>
<clipPath id="clip0_3474_49803">
<rect width="201" height="24" fill="white"/>
</clipPath>
</defs>
</svg>
