<svg width="46" height="26" viewBox="0 0 46 26" fill="none" xmlns="http://www.w3.org/2000/svg">
<path fill-rule="evenodd" clip-rule="evenodd" d="M9.0438 26C5.77958 26 2.85619 24.3124 1.22408 21.4852C-0.408027 18.658 -0.408027 15.2827 1.22408 12.4561L8.10168 0.543926C8.52041 -0.181308 9.56719 -0.181309 9.98591 0.543925L16.8635 12.4561C18.4956 15.2833 18.4956 18.6585 16.8635 21.4852C15.2309 24.3124 12.308 26 9.0438 26ZM8.57274 3.6712L7.10637 6.21106C6.72268 7.0812 6.07576 8.9601 6.69514 10.6831C7.176 12.0199 8.35942 13.0542 10.2134 13.7575C12.91 14.7841 14.6719 16.3015 15.4511 18.268C15.5781 18.5886 15.6723 18.9059 15.7397 19.2161C16.387 17.3149 16.1925 15.2373 15.1561 13.4423L9.51486 3.6712C9.3055 3.30857 8.7821 3.30857 8.57274 3.6712ZM2.9315 13.4423L4.60596 10.542C4.66068 10.8043 4.73356 11.0679 4.82737 11.3309C5.50841 13.2414 7.08336 14.677 9.50754 15.5966C11.6521 16.4135 13.0297 17.5477 13.6021 18.9685C14.2218 20.5071 13.7202 22 13.5582 22.4078C12.3161 23.4465 10.7386 24.0287 9.0438 24.0287C6.49202 24.0287 4.20739 22.7099 2.9315 20.5001C1.65561 18.2902 1.65561 15.6521 2.9315 13.4423ZM43.2705 9.41543C43.4887 9.6337 43.7584 9.74284 44.0794 9.74284C44.3875 9.74284 44.6507 9.6337 44.869 9.41543C45.0873 9.19716 45.1964 8.93395 45.1964 8.6258C45.1964 8.31765 45.0873 8.05444 44.869 7.83617C44.6507 7.60506 44.3875 7.4895 44.0794 7.4895C43.7584 7.4895 43.4887 7.60506 43.2705 7.83617C43.0522 8.05444 42.9431 8.31765 42.9431 8.6258C42.9431 8.93395 43.0522 9.19716 43.2705 9.41543ZM43.2319 11.4954V21.1251H44.9075V11.4954H43.2319ZM25.0786 14.0954C25.0786 14.4678 25.2648 14.7695 25.6371 15.0006C26.0095 15.2189 26.4588 15.3986 26.9853 15.5399C27.5117 15.6683 28.0381 15.8223 28.5645 16.0021C29.0909 16.169 29.5403 16.4643 29.9127 16.888C30.285 17.2989 30.4712 17.8317 30.4712 18.4865C30.4712 19.3596 30.1309 20.0594 29.4504 20.5858C28.7828 21.1122 27.9225 21.3754 26.8697 21.3754C25.9324 21.3754 25.1299 21.17 24.4623 20.7591C23.7946 20.3483 23.3196 19.8026 23.0371 19.1221L24.4816 18.2939C24.6356 18.7562 24.9245 19.1221 25.3482 19.3917C25.7719 19.6614 26.2791 19.7962 26.8697 19.7962C27.4218 19.7962 27.8776 19.6935 28.2371 19.488C28.5966 19.2697 28.7764 18.9359 28.7764 18.4865C28.7764 18.1142 28.5902 17.8189 28.2178 17.6006C27.8455 17.3695 27.3961 17.1897 26.8697 17.0614C26.3433 16.9201 25.8169 16.7596 25.2904 16.5799C24.764 16.4001 24.3146 16.1048 23.9423 15.6939C23.5699 15.2831 23.3838 14.7567 23.3838 14.1147C23.3838 13.2801 23.7048 12.5932 24.3467 12.0539C25.0016 11.5147 25.8169 11.2451 26.7927 11.2451C27.5759 11.2451 28.2692 11.4248 28.8727 11.7843C29.489 12.131 29.9512 12.6189 30.2593 13.248L28.8534 14.0376C28.5067 13.2159 27.8198 12.8051 26.7927 12.8051C26.3176 12.8051 25.9132 12.9206 25.5793 13.1517C25.2455 13.37 25.0786 13.6846 25.0786 14.0954ZM39.0054 11.4954H40.681V21.1251H39.0054V19.7384C38.325 20.8298 37.285 21.3754 35.8854 21.3754C34.7556 21.3754 33.8504 21.0223 33.1699 20.3162C32.4894 19.5972 32.1491 18.6278 32.1491 17.408V11.4954H33.8247V17.3117C33.8247 18.0949 34.0366 18.7048 34.4603 19.1414C34.884 19.5651 35.4682 19.7769 36.2129 19.7769C37.0474 19.7769 37.7215 19.5201 38.2351 19.0065C38.7487 18.4801 39.0054 17.6777 39.0054 16.5991V11.4954Z" fill="white"/>
</svg>
