<svg xmlns="http://www.w3.org/2000/svg" width="33" height="42" fill="none" viewBox="0 0 33 42"><path fill="currentColor" fill-rule="evenodd" d="M26.042 17.75v.002a12.4 12.4 0 0 1 2.711 7.755c0 2.93-1.045 5.707-2.788 7.85l-.15.184-.04-.235c-.033-.199-.073-.4-.119-.604-.872-3.832-3.714-7.118-8.392-9.78-3.158-1.791-4.966-3.95-5.441-6.4-.307-1.586-.079-3.178.362-4.542.44-1.364 1.095-2.506 1.652-3.193l1.82-2.226a.799.799 0 0 1 1.235 0l9.15 11.19v-.001Zm2.879-2.223v-.001L16.724.614a.582.582 0 0 0-.901 0L3.627 15.526v.001l-.04.05A16.163 16.163 0 0 0 0 25.753C0 34.726 7.286 42 16.274 42c8.987 0 16.273-7.274 16.273-16.247 0-3.852-1.343-7.392-3.587-10.177l-.04-.05ZM6.545 17.702l1.091-1.335.033.247c.026.195.058.39.095.588.706 3.703 3.228 6.79 7.443 9.182 3.665 2.086 5.798 4.484 6.413 7.114a9.186 9.186 0 0 1 .191 3.122l-.007.058-.053.026a12.444 12.444 0 0 1-5.478 1.262c-6.892 0-12.48-5.578-12.48-12.46 0-2.954 1.03-5.668 2.752-7.804Z" clip-rule="evenodd"/></svg>