<svg xmlns="http://www.w3.org/2000/svg" width="88" height="42" fill="none" viewBox="0 0 88 42"><path fill="currentColor" fill-rule="evenodd" d="M26.042 17.752v-.002l-9.15-11.189a.799.799 0 0 0-1.236 0l-1.82 2.226c-.556.687-1.21 1.83-1.651 3.193-.44 1.364-.669 2.956-.362 4.542.475 2.45 2.283 4.609 5.441 6.4 4.678 2.662 7.52 5.948 8.392 9.78.046.203.086.405.12.604l.04.235.15-.185a12.486 12.486 0 0 0 2.787-7.85 12.4 12.4 0 0 0-2.71-7.754Zm2.879-2.226h-.002l.04.05a16.163 16.163 0 0 1 3.588 10.177C32.547 34.726 25.261 42 16.274 42 7.286 42 0 34.726 0 25.753c0-3.852 1.343-7.392 3.587-10.176l.04-.05L15.823.613a.582.582 0 0 1 .901 0l12.197 14.912Zm-21.285.841-1.09 1.334-.001.001a12.395 12.395 0 0 0-2.751 7.805c0 6.88 5.587 12.459 12.48 12.459 1.964 0 3.824-.454 5.477-1.262l.053-.026.007-.058a9.186 9.186 0 0 0-.191-3.122c-.615-2.63-2.748-5.028-6.413-7.114-4.216-2.391-6.737-5.479-7.443-9.182-.037-.197-.069-.393-.095-.588l-.033-.247ZM78.01 9.561c.617 0 1.153.213 1.593.635v-.001c.45.423.68.94.68 1.54 0 .6-.23 1.118-.68 1.54-.44.423-.975.635-1.593.635a2.27 2.27 0 0 1-1.606-.634l-.001-.001a2.064 2.064 0 0 1-.666-1.54c0-.598.225-1.115.666-1.539l.001-.001a2.273 2.273 0 0 1 1.606-.634ZM51.24 22.434c.825.308 1.613.73 2.362 1.262v.002a6.514 6.514 0 0 1 1.9 2.05c.505.849.752 1.88.752 3.086 0 1.395-.366 2.66-1.1 3.79-.727 1.133-1.789 2.027-3.174 2.687-1.384.662-3.054.988-5.004.988-1.82 0-3.405-.293-4.753-.888-1.337-.593-2.398-1.424-3.174-2.495v-.001c-.768-1.072-1.2-2.315-1.301-3.723l-.017-.231h3.565l.017.197c.078.907.381 1.644.9 2.225.537.583 1.216 1.021 2.042 1.312.84.286 1.748.43 2.722.43 1.135 0 2.147-.185 3.04-.548.893-.372 1.593-.882 2.106-1.526.507-.646.76-1.399.76-2.267 0-.79-.219-1.414-.642-1.89-.441-.495-1.026-.903-1.762-1.219-.749-.322-1.56-.605-2.434-.848h-.001l-3.086-.882c-1.982-.57-3.566-1.387-4.74-2.46-1.192-1.09-1.785-2.518-1.785-4.262 0-1.446.392-2.716 1.18-3.802.79-1.085 1.85-1.925 3.172-2.518 1.329-.602 2.793-.901 4.436-.901 1.642 0 3.11.295 4.4.89 1.287.584 2.313 1.39 3.072 2.418a6.07 6.07 0 0 1 1.218 3.514l.007.222h-3.353l-.023-.19c-.14-1.177-.7-2.084-1.692-2.735-1.003-.658-2.242-.993-3.727-.993-1.087 0-2.029.175-2.829.52-.795.347-1.408.82-1.847 1.412-.43.59-.644 1.26-.644 2.016 0 .633.15 1.165.44 1.606.309.448.703.822 1.184 1.126.494.302 1.011.552 1.552.752.55.193 1.054.35 1.513.472l2.547.685c.662.174 1.396.413 2.2.717Zm25.084-5.819h3.322v19.242h-3.322V16.615Zm-6.849 14.117c.485-.714.735-1.637.735-2.781V16.616h3.321v19.242H70.21V32.97c-.454.81-1.093 1.51-1.912 2.1h-.001c-.975.693-2.198 1.032-3.652 1.032-1.208 0-2.29-.264-3.24-.8h-.002c-.956-.546-1.702-1.363-2.242-2.443-.541-1.092-.806-2.454-.806-4.076V16.615h3.321v11.973c0 1.33.37 2.366 1.093 3.134.731.77 1.661 1.157 2.807 1.157.68 0 1.379-.174 2.096-.529h.001c.714-.35 1.314-.886 1.802-1.616v-.002Zm13.633 2.67c0 1.272.96 2.144 2.157 2.144 1.196 0 2.15-.872 2.15-2.145 0-1.273-.96-2.162-2.15-2.162s-2.157.877-2.157 2.162Zm.426 0c0-1.067.764-1.779 1.73-1.779.967 0 1.726.712 1.726 1.778 0 1.067-.742 1.761-1.725 1.761-.984 0-1.73-.705-1.73-1.76Zm2.265 1.06h.524l-.53-.97c.294-.131.414-.355.414-.607 0-.59-.408-.71-1.08-.71h-.702v2.287h.472v-.871h.437l.465.871Zm-.063-1.57c0 .222-.144.337-.506.337h-.334v-.682h.305c.323 0 .535.069.535.344Z" clip-rule="evenodd"/></svg>