<svg width="37" height="36" viewBox="0 0 37 36" fill="none" xmlns="http://www.w3.org/2000/svg">
<circle cx="18.6924" cy="17.74" r="17.74" fill="#4CA2FF"/>
<path d="M18.9866 25.1246L14.7248 25.0468C13.3449 25.0196 11.9616 25.0738 10.6088 24.7928C8.55081 24.3731 8.40502 22.315 8.25246 20.5886C8.04225 18.1616 8.12363 15.6905 8.52032 13.2837C8.74427 11.9333 9.62558 11.1274 10.9885 11.0397C15.5894 10.7215 20.2208 10.7592 24.8115 10.9077C25.2964 10.9213 25.7845 10.9957 26.2626 11.0804C28.6224 11.4934 28.68 13.8256 28.833 15.789C28.9855 17.7726 28.9211 19.7664 28.6295 21.7365C28.3956 23.3677 27.948 24.7356 26.0591 24.8676C23.6925 25.0403 21.3802 25.1793 19.0069 25.1351C19.007 25.1246 18.9934 25.1246 18.9866 25.1246ZM16.4811 20.9949C18.2645 19.9725 20.014 18.9672 21.7872 17.9517C20.0004 16.9294 18.2543 15.9241 16.4811 14.9086V20.9949Z" fill="white"/>
</svg>

