<svg width="12" height="12" viewBox="0 0 12 12" fill="none" xmlns="http://www.w3.org/2000/svg">
<path d="M9.25828 2.24987L4.20324 7.85143L2.36133 5.81037C2.20983 5.64823 2.00692 5.55851 1.7963 5.56053C1.58568 5.56256 1.38421 5.65618 1.23527 5.82121C1.08634 5.98625 1.00186 6.2095 1.00003 6.44289C0.9982 6.67628 1.07917 6.90113 1.22549 7.06901L3.63533 9.73938C3.78596 9.90626 3.99024 10 4.20324 10C4.41624 10 4.62053 9.90626 4.77116 9.73938L10.3941 3.50851C10.5404 3.34063 10.6214 3.11578 10.6196 2.88239C10.6177 2.649 10.5333 2.42575 10.3843 2.26071C10.2354 2.09568 10.0339 2.00206 9.8233 2.00003C9.61269 1.99801 9.40978 2.08773 9.25828 2.24987V2.24987Z" fill="#383F47"/>
</svg>
