<svg width="12" height="12" viewBox="0 0 12 12" fill="none" xmlns="http://www.w3.org/2000/svg">
<path d="M5.9668 11.0674C8.75977 11.0674 11.0596 8.76758 11.0596 5.97461C11.0596 3.18652 8.75488 0.881836 5.96191 0.881836C3.17383 0.881836 0.874023 3.18652 0.874023 5.97461C0.874023 8.76758 3.17383 11.0674 5.9668 11.0674ZM5.4248 8.40137C5.22461 8.40137 5.06836 8.31348 4.92188 8.13281L3.74512 6.7168C3.64746 6.59473 3.60352 6.47754 3.60352 6.3457C3.60352 6.07227 3.81836 5.85254 4.0918 5.85254C4.25293 5.85254 4.37988 5.91602 4.50684 6.07227L5.41016 7.20508L7.37793 4.06055C7.49512 3.87988 7.6416 3.78223 7.8125 3.78223C8.07617 3.78223 8.32031 3.97266 8.32031 4.24609C8.32031 4.36328 8.26172 4.49512 8.18848 4.60742L5.9082 8.12793C5.79102 8.30371 5.62012 8.40137 5.4248 8.40137Z" fill="#383F47"/>
</svg>
