<svg width="895" height="821" viewBox="0 0 895 821" fill="none" xmlns="http://www.w3.org/2000/svg">
<path d="M348.205 786.909C544.411 787.16 618.874 786.91 624.626 785.905C645.397 782.012 661.988 766.438 665.776 746.721C666.56 743.203 667.082 724.491 667.082 705.276C667.082 672.246 666.951 670.111 664.861 670.99C656.631 674.004 638.865 678.149 626.324 679.907C606.99 682.67 574.332 681.665 555.391 677.897C457.023 657.929 385.175 576.923 380.211 480.471C376.423 409.261 413.13 339.811 475.573 299.622C510.714 277.016 548.467 265.336 590.662 263.829C616.005 262.95 647.095 266.843 663.686 272.997C665.645 273.75 665.776 266.09 665.776 174.535C665.776 79.4637 665.645 74.9421 663.163 67.2811C659.244 55.0991 650.622 45.5547 637.82 39.2753L627.5 34.2509L356.305 33.9999C201.773 33.9999 83.0314 34.3769 80.1455 35.0048C65.9065 38.2701 52.843 48.6941 46.1807 62.2577L42 70.6718V751.368L45.3965 758.275C50.7525 768.95 58.3295 776.36 69.8252 781.761L79.7529 786.533L348.205 786.909ZM129.002 456.232C123.777 451.962 121.687 445.683 123.646 440.031C125.083 435.887 129.132 431.365 132.79 430.109C133.835 429.732 178.643 429.356 232.333 429.356L329.917 429.23L334.489 433.124C342.458 439.78 342.066 449.451 333.705 456.232L329.786 459.372H133.052L129.002 456.232ZM232.464 541.005C136.711 541.005 134.62 541.005 130.439 538.493C124.43 534.977 121.556 528.195 123.516 522.041C124.3 519.404 126.781 515.887 129.002 514.129L133.052 510.864H330.048L335.012 515.134C339.453 519.027 339.845 520.032 339.845 525.934C339.845 531.837 339.453 532.842 335.012 536.735L330.048 541.005H232.464ZM231.419 622.639C136.713 622.639 134.619 622.638 130.439 620.127C125.214 616.987 121.818 609.954 122.993 604.303C123.385 601.791 125.605 598.651 128.349 596.391L132.921 592.497H230.896C314.109 592.497 329.394 592.748 332.529 594.381C336.448 596.265 340.498 603.046 340.498 607.567C340.498 611.837 336.841 617.489 332.269 620.127C328.219 622.513 324.953 622.639 231.419 622.639Z" fill="black"/>
<path d="M567.801 295.477C490.988 307.157 429.329 364.175 414.045 437.394C410.779 453.343 410.779 490.895 414.045 505.84C429.59 575.919 481.713 629.169 551.733 646.626C597.585 657.929 652.19 650.645 690.727 628.164L698.826 623.517L701.57 626.531C753.17 684.177 795.887 731.022 799.937 734.539C817.181 749.609 845.659 742.199 853.235 720.724C856.763 710.928 855.064 700.378 848.533 691.587C847.096 689.577 828.154 671.744 806.469 651.901C784.783 632.057 760.747 609.954 752.909 602.795L738.931 589.734L745.332 581.445C763.229 558.462 775.247 530.455 780.342 500.314C782.955 484.49 782.04 448.445 778.774 434.254C773.288 410.517 763.359 388.163 750.035 368.947C741.413 356.514 722.732 338.052 709.016 328.005C696.344 318.837 671.655 306.655 655.979 301.757C631.027 294.096 594.45 291.459 567.801 295.477ZM614.829 336.294C662.641 342.322 702.615 369.45 723.647 410.517C735.012 432.621 739.845 455.604 738.539 480.722C735.404 539.372 693.993 588.603 634.293 604.553C616.266 609.326 588.18 610.079 569.238 606.437C539.976 600.534 519.074 589.608 497.259 568.635C475.312 547.536 464.078 527.692 458.068 499.56C454.149 481.224 454.933 454.348 459.897 436.766C464.339 421.193 474.267 401.977 484.195 389.293C514.241 350.862 565.319 330.14 614.829 336.294Z" fill="black"/>
<path d="M659.767 405.368C656.762 406.247 644.613 418.304 614.176 450.204C591.446 474.317 572.242 494.035 571.72 494.286C571.197 494.537 562.053 485.62 551.472 474.568C530.962 452.967 527.827 450.957 517.768 452.213C510.845 453.092 506.403 456.358 502.876 463.139C499.349 469.796 499.218 473.438 502.223 479.717C504.966 485.243 555.913 538.87 561.661 542.386C568.062 546.154 577.99 545.652 583.869 541.256C586.351 539.372 600.198 525.432 614.437 510.236C628.676 495.039 649.708 472.684 661.073 460.628C672.569 448.571 683.02 436.891 684.326 434.882C685.763 432.496 686.678 428.728 686.678 424.709C686.678 410.894 673.484 401.349 659.767 405.368Z" fill="black"/>
<path d="M234.684 92.2678C236.209 90.4756 239.058 90.4755 240.583 92.2678L320.39 186.207L320.378 186.218L320.636 186.531C335.316 204.067 344.11 226.364 344.11 250.637C344.11 307.162 296.434 352.989 237.633 352.989C178.833 352.988 131.157 307.162 131.157 250.637C131.157 226.364 139.95 204.067 154.63 186.521L154.889 186.207L234.684 92.2678ZM173.988 199.909L173.965 199.888C162.705 213.352 155.965 230.446 155.965 249.061C155.965 292.413 192.526 327.549 237.622 327.549C250.475 327.549 262.643 324.687 273.465 319.602L273.813 319.439L273.858 319.072C274.587 313.123 274.296 306.32 272.614 299.409C268.598 282.846 254.635 267.741 230.657 254.6C203.08 239.537 186.583 220.091 181.962 196.757C181.715 195.515 181.502 194.284 181.333 193.053L181.12 191.498L173.988 199.909ZM241.693 129.725C239.607 127.263 235.693 127.263 233.607 129.725L221.697 143.74C218.052 148.07 213.767 155.273 210.885 163.857C208.003 172.451 206.511 182.482 208.519 192.47C211.625 207.921 223.458 221.505 244.127 232.799C274.733 249.568 293.327 270.267 299.035 294.41C299.338 295.684 299.596 296.959 299.821 298.211L300.078 299.691L301.066 298.525C312.46 285.028 319.301 267.535 319.301 249.072C319.301 230.608 312.662 213.634 301.559 200.212H301.571L241.693 129.725Z" fill="white"/>
</svg>
