<svg width="16" height="16" viewBox="0 0 16 16" fill="none" xmlns="http://www.w3.org/2000/svg">
<path d="M8.99369 2.99963L8.99369 10.5856L11.2835 8.29263C11.3756 8.19712 11.4858 8.12094 11.6077 8.06853C11.7295 8.01612 11.8605 7.98854 11.9931 7.98738C12.1257 7.98623 12.2572 8.01153 12.38 8.06181C12.5027 8.11209 12.6142 8.18635 12.7079 8.28024C12.8017 8.37413 12.8759 8.48578 12.9261 8.60868C12.9763 8.73158 13.0015 8.86326 13.0004 8.99604C12.9992 9.12881 12.9717 9.26003 12.9194 9.38204C12.867 9.50404 12.7909 9.61439 12.6956 9.70663L8.70109 13.7066C8.60833 13.7998 8.49813 13.8736 8.37681 13.9241C8.25548 13.9745 8.12542 14.0004 7.99407 14.0004C7.86272 14.0004 7.73265 13.9745 7.61133 13.9241C7.49001 13.8736 7.37981 13.7998 7.28705 13.7066L3.29258 9.70663C3.10533 9.51886 3.00024 9.26429 3.00043 8.99893C3.00061 8.73356 3.10606 8.47914 3.29358 8.29163C3.48109 8.10413 3.73531 7.99889 4.00031 7.99908C4.2653 7.99927 4.51937 8.10486 4.70662 8.29263L6.99645 10.5856L6.99645 2.99963C6.99645 2.73442 7.10166 2.48006 7.28894 2.29253C7.47622 2.10499 7.73022 1.99963 7.99507 1.99963C8.25992 1.99963 8.51392 2.10499 8.7012 2.29253C8.88847 2.48006 8.99369 2.73442 8.99369 2.99963V2.99963Z" fill="#383F47"/>
</svg>
