<svg xmlns="http://www.w3.org/2000/svg" width="72" height="72" fill="none">
  <rect width="72" height="72" fill="#6FBCF0" rx="16"/>
  <path fill="#fff" fill-rule="evenodd" d="M20.421 52.784c3.229 5.592 9.011 8.93 15.468 8.93 6.456 0 12.238-3.338 15.467-8.93 3.229-5.591 3.229-12.268 0-17.86L37.752 11.361c-.828-1.434-2.899-1.434-3.727 0L20.421 34.924c-3.228 5.591-3.228 12.267 0 17.86ZM32.057 22.57l2.9-5.024a1.076 1.076 0 0 1 1.864 0l11.158 19.328c2.05 3.55 2.435 7.66 1.154 11.42a12.01 12.01 0 0 0-.57-1.875c-1.542-3.89-5.027-6.891-10.36-8.922-3.668-1.39-6.009-3.437-6.96-6.08-1.225-3.41.055-7.126.814-8.847Zm-4.946 8.567-3.312 5.737c-2.524 4.37-2.524 9.59 0 13.96 2.523 4.371 7.042 6.98 12.09 6.98 3.352 0 6.472-1.152 8.93-3.206.32-.807 1.312-3.76.086-6.803-1.132-2.81-3.857-5.054-8.099-6.67-4.795-1.819-7.91-4.659-9.257-8.438-.186-.52-.33-1.041-.438-1.56Z" clip-rule="evenodd"/>
</svg>
