<svg width="12" height="12" viewBox="0 0 12 12" fill="none" xmlns="http://www.w3.org/2000/svg">
<path d="M9.76605 2.23395C9.61621 2.08415 9.41301 2 9.20114 2C8.98926 2 8.78606 2.08415 8.63622 2.23395L6.00499 4.86517L3.37377 2.23395C3.22307 2.0884 3.02123 2.00786 2.81173 2.00968C2.60222 2.0115 2.40182 2.09553 2.25367 2.24368C2.10552 2.39183 2.02149 2.59224 2.01967 2.80174C2.01785 3.01124 2.09839 3.21308 2.24394 3.36378L4.87516 5.99501L2.24394 8.62623C2.16762 8.69994 2.10675 8.78811 2.06487 8.88559C2.02299 8.98308 2.00095 9.08793 2.00003 9.19402C1.99911 9.30012 2.01933 9.40533 2.0595 9.50353C2.09968 9.60173 2.15901 9.69094 2.23403 9.76597C2.30906 9.84099 2.39827 9.90032 2.49647 9.9405C2.59467 9.98068 2.69988 10.0009 2.80598 9.99997C2.91207 9.99905 3.01692 9.97701 3.11441 9.93513C3.21189 9.89325 3.30006 9.83238 3.37377 9.75606L6.00499 7.12484L8.63622 9.75606C8.78692 9.90162 8.98876 9.98215 9.19826 9.98033C9.40776 9.97851 9.60817 9.89448 9.75632 9.74633C9.90447 9.59818 9.9885 9.39778 9.99032 9.18827C9.99214 8.97877 9.9116 8.77693 9.76605 8.62623L7.13483 5.99501L9.76605 3.36378C9.91585 3.21394 10 3.01074 10 2.79886C10 2.58699 9.91585 2.38379 9.76605 2.23395Z" fill="#383F47"/>
</svg>
