<svg width="36" height="36" viewBox="0 0 36 36" fill="none" xmlns="http://www.w3.org/2000/svg">
<rect x="0.476074" width="35.4762" height="35.4762" rx="17.7381" fill="white"/>
<path d="M35.9523 17.7381C35.9523 27.5384 28.0145 35.4762 18.2142 35.4762C8.41387 35.4762 0.476074 27.5384 0.476074 17.7381C0.476074 7.9378 8.41387 0 18.2142 0C28.0145 0 35.9523 7.9378 35.9523 17.7381ZM14.9681 27.0949C22.8349 27.0949 27.1364 20.5762 27.1364 14.9266C27.1364 14.7404 27.1364 14.5541 27.1276 14.3767C27.9613 13.7736 28.6885 13.0198 29.265 12.1595C28.5023 12.4965 27.6774 12.7271 26.8083 12.8335C27.6952 12.3014 28.3692 11.4677 28.6885 10.4655C27.8637 10.9533 26.9502 11.308 25.9746 11.5032C25.1941 10.6695 24.0855 10.1551 22.8527 10.1551C20.4935 10.1551 18.5778 12.0708 18.5778 14.4299C18.5778 14.767 18.6133 15.0951 18.6931 15.4055C15.1366 15.2282 11.9881 13.5253 9.87726 10.9355C9.51363 11.5652 9.30078 12.3014 9.30078 13.0818C9.30078 14.563 10.0546 15.8756 11.2076 16.6383C10.507 16.6206 9.85066 16.4255 9.27417 16.1062C9.27417 16.1239 9.27417 16.1417 9.27417 16.1594C9.27417 18.2348 10.7464 19.9554 12.7065 20.3545C12.3517 20.452 11.9704 20.5052 11.5801 20.5052C11.3052 20.5052 11.0391 20.4786 10.773 20.4254C11.314 22.1283 12.8927 23.3611 14.7641 23.3965C13.3007 24.5407 11.456 25.2236 9.45155 25.2236C9.10566 25.2236 8.76863 25.2058 8.43161 25.1615C10.303 26.3854 12.5557 27.0949 14.9681 27.0949Z" fill="#4CA2FF"/>
</svg>
