<svg width="89" height="65" viewBox="0 0 89 65" fill="none" xmlns="http://www.w3.org/2000/svg">
<g clip-path="url(#clip0_173_98558)">
<path d="M54.0341 61.1792C54.0946 61.1619 54.2759 61.1619 54.5695 61.1706C54.9927 61.1706 55.3468 61.1619 55.6232 61.1533C56.7804 61.1101 57.9031 60.946 58.9913 60.6524C60.494 60.2465 61.9449 59.5901 63.3526 58.6661C63.8103 58.3638 64.2421 58.0529 64.6307 57.742C64.6393 57.7334 64.648 57.7247 64.6566 57.7161C64.9502 57.4743 65.1402 57.3016 65.2266 57.1893C65.1402 57.2929 64.9502 57.4656 64.6566 57.7161C64.648 57.7247 64.6393 57.7334 64.6307 57.742C64.6048 57.6211 64.553 57.4225 64.4839 57.1547C64.3544 56.6538 64.0953 56.2134 63.7066 55.8334C63.4216 55.5484 63.0416 55.2807 62.5667 55.013C62.3076 54.8661 61.9449 54.6762 61.4785 54.443C61.1503 54.2443 60.9603 54.0457 60.9085 53.8557C60.8135 53.5103 60.969 53.1907 61.3662 52.8798C61.6944 52.6207 62.1176 52.4307 62.6185 52.3012C63.1885 52.1457 63.7844 52.1285 64.4148 52.2407C65.0193 52.3444 65.5893 52.5603 66.1334 52.8798C66.6688 53.1994 67.1179 53.5794 67.4893 54.0371C67.8693 54.5207 68.1197 55.0302 68.2234 55.557L68.2493 55.6434C67.9643 55.747 67.662 55.8679 67.3597 56.0061C67.6706 55.8679 67.9643 55.747 68.2493 55.6434C71.151 54.6243 73.2064 55.4793 74.4587 58.2256C74.7351 58.9856 74.8473 59.5383 74.7782 59.8665C74.7005 60.2379 74.5537 60.4538 74.3292 60.5142C74.191 60.5488 73.9405 60.5056 73.5864 60.3933C73.3619 60.3242 72.9733 60.186 72.4119 59.9874C71.2201 59.6161 70.1579 59.5556 69.2338 59.7974C68.8538 59.901 68.517 60.0824 68.2147 60.3501C67.9816 60.5574 67.7052 60.8856 67.3943 61.326C67.2129 61.5851 66.902 62.0342 66.4616 62.6819C66.0211 63.2692 65.5634 63.8219 65.0712 64.3228C64.3112 65.1087 63.6203 65.7477 63.0071 66.24C62.1089 66.9482 61.1762 67.5268 60.2003 67.9586C59.3799 68.3213 58.3263 68.7791 57.0309 69.3231C56.8063 69.4095 56.6163 69.4959 56.4609 69.5736C56.3313 69.4786 56.2104 69.3922 56.0895 69.2972C55.4677 68.8136 54.9495 68.3127 54.5436 67.7686C53.9823 67.0345 53.5677 66.1709 53.3 65.1691C53.0582 64.2537 53.0496 63.3469 53.2741 62.466C53.3605 62.1119 53.4814 61.8096 53.6368 61.5678C53.7577 61.3519 53.8959 61.2137 54.0341 61.1792Z" fill="#6FBBEE"/>
<path d="M56.4609 70.0227C56.53 70.0227 56.5904 70.0054 56.6509 69.9795C56.7977 69.9104 56.9791 69.824 57.1863 69.7463H57.195C58.4817 69.2022 59.544 68.7359 60.3644 68.3731C61.3662 67.9241 62.3421 67.3282 63.2662 66.6027C63.8966 66.1018 64.6048 65.4455 65.3734 64.651C65.8743 64.1328 66.358 63.5628 66.7984 62.9669L66.807 62.9583C67.2475 62.3278 67.5584 61.8701 67.7311 61.611C68.0247 61.1965 68.2752 60.8942 68.4825 60.7128C68.7329 60.4883 69.0093 60.3415 69.3202 60.2551C70.1579 60.0306 71.1424 60.091 72.2565 60.4365C72.8092 60.6351 73.2065 60.7647 73.431 60.8424C73.8801 60.9892 74.1823 61.0324 74.4155 60.9806C74.4242 60.9806 74.4242 60.9806 74.4328 60.9806C74.7092 60.8597 75.0632 60.6265 75.1928 59.9529C75.2791 59.5297 75.1755 58.9338 74.856 58.0702C74.856 58.0615 74.8473 58.0529 74.8473 58.0443C74.1823 56.5761 73.2669 55.5916 72.1356 55.1252C71.1165 54.7021 69.9161 54.6934 68.5602 55.0907C68.4134 54.633 68.1716 54.1839 67.8347 53.7693C67.4375 53.2771 66.9366 52.8453 66.3666 52.5085C65.7793 52.163 65.1575 51.9298 64.5012 51.8089C63.8103 51.688 63.1453 51.7139 62.5149 51.878C61.9621 52.0248 61.4871 52.2494 61.1072 52.5344C60.4249 53.0698 60.399 53.6053 60.494 53.968C60.5803 54.2702 60.8222 54.5466 61.254 54.8143C61.2626 54.823 61.2712 54.823 61.2885 54.8316C61.7376 55.0648 62.1003 55.2461 62.3594 55.393C62.7998 55.6348 63.1539 55.8852 63.4044 56.1443C63.7326 56.4725 63.9485 56.8438 64.0694 57.267C64.1039 57.3879 64.1298 57.4829 64.1471 57.5779C63.8276 57.8284 63.4821 58.0702 63.1194 58.312C61.7635 59.2015 60.3385 59.8492 58.8876 60.2379C57.834 60.5229 56.7286 60.6783 55.6145 60.7215C55.3382 60.7301 54.9927 60.7388 54.5782 60.7388C54.1118 60.7215 53.9996 60.7388 53.9305 60.756H53.9218C53.6714 60.8251 53.4468 61.0238 53.2482 61.3519C53.0755 61.6283 52.9373 61.9737 52.8423 62.371C52.6005 63.321 52.6091 64.3055 52.8682 65.29C53.1532 66.3436 53.5937 67.2764 54.1896 68.045C54.6214 68.6063 55.1655 69.1504 55.8218 69.6513C55.9513 69.7463 56.0809 69.8413 56.2104 69.9363C56.2795 69.9968 56.3659 70.0227 56.4609 70.0227ZM56.8581 68.9431C56.7286 68.995 56.6163 69.0468 56.5041 69.09C56.4522 69.0468 56.3918 69.0122 56.34 68.969C55.7527 68.5113 55.2518 68.0277 54.8718 67.5268C54.3536 66.8445 53.9564 66.0155 53.7059 65.0741C53.4814 64.2364 53.4728 63.3987 53.68 62.5869C53.7578 62.276 53.8614 62.0169 53.9909 61.8096C53.9909 61.8096 53.9909 61.801 53.9996 61.801C54.0773 61.6715 54.1291 61.611 54.155 61.5937C54.2068 61.5937 54.3191 61.5851 54.5696 61.5937H54.5782C55.0014 61.5937 55.3641 61.5851 55.6577 61.5765C56.8409 61.5333 58.0068 61.3606 59.1208 61.0583C60.6581 60.6438 62.1694 59.9615 63.603 59.0202C64.0694 58.7093 64.5098 58.3897 64.9157 58.0702C64.9243 58.0615 64.933 58.0529 64.9416 58.0443C64.9503 58.0356 64.9589 58.0356 64.9589 58.027C65.3734 57.6815 65.5116 57.5347 65.5721 57.4484C65.7189 57.2584 65.6843 56.9906 65.4943 56.8438C65.3043 56.697 65.0366 56.7316 64.8898 56.9216C64.8898 56.9302 64.8812 56.9302 64.8725 56.9388C64.7171 56.412 64.4234 55.9284 64.0175 55.5225C63.7066 55.2116 63.2921 54.918 62.7826 54.633C62.5235 54.4862 62.1521 54.2962 61.703 54.063C61.3749 53.8557 61.3403 53.7434 61.3403 53.7348C61.3231 53.6744 61.2799 53.5016 61.6512 53.208C61.9362 52.9921 62.2989 52.8194 62.748 52.6985C63.2489 52.5603 63.793 52.543 64.363 52.638C64.9071 52.733 65.4425 52.9316 65.9348 53.2253C66.4184 53.5362 66.8329 53.8903 67.1611 54.3048C67.4375 54.6502 67.6275 55.013 67.7484 55.3757C67.567 55.4448 67.3857 55.5225 67.1957 55.6089C66.9798 55.7039 66.8848 55.9629 66.9798 56.1788C67.0748 56.3948 67.3338 56.4898 67.5497 56.3948C67.8434 56.2566 68.1284 56.1443 68.4047 56.0493C69.7347 55.5743 70.8747 55.5311 71.7988 55.9198C72.7228 56.3084 73.4828 57.1375 74.0528 58.3897C74.381 59.2706 74.381 59.642 74.3551 59.7801C74.3205 59.9701 74.2601 60.0738 74.2169 60.091C74.1823 60.091 74.0442 60.0824 73.7074 59.9788C73.4828 59.9097 73.0942 59.7715 72.5415 59.5815C72.5328 59.5815 72.5328 59.5815 72.5242 59.5729C71.2547 59.1756 70.1061 59.1152 69.1043 59.3829C68.6552 59.5038 68.2579 59.7283 67.9125 60.0392C67.6534 60.2724 67.3684 60.6179 67.0316 61.0842C67.0316 61.0842 67.0316 61.0928 67.0229 61.0928C66.8502 61.3519 66.5393 61.801 66.0989 62.4401C65.6757 63.0101 65.218 63.5455 64.7516 64.0378C64.0089 64.8064 63.3267 65.4368 62.7221 65.9205C61.8585 66.6027 60.9431 67.1641 60.0017 67.5786C59.1986 67.9413 58.1363 68.3991 56.8581 68.9431Z" fill="black"/>
<path d="M34.3093 54.6659C33.7911 56.0477 33.4457 57.4554 33.2643 58.9063C33.2038 59.3726 33.152 59.839 33.1002 60.2967C33.0225 60.8322 33.1434 61.4281 33.4629 62.0844C33.7566 62.6026 34.1538 63.1208 34.6288 63.6217C35.1124 64.1312 35.5615 64.3903 35.9674 64.3903C36.382 64.3903 36.831 64.1571 37.3319 63.6907C37.7983 63.2589 38.1351 62.8703 38.3596 62.5249C38.7051 61.9894 38.9037 61.4712 38.9642 60.9617C39.0678 59.7526 39.2924 58.5349 39.6292 57.3086C39.966 56.0823 40.7087 54.735 41.8659 53.2669L37.2542 50.9092C35.8724 51.8419 34.8965 53.0941 34.3093 54.6659Z" fill="#6FBBEE"/>
<path d="M35.9675 64.822C36.503 64.822 37.0471 64.5543 37.6257 64.0102C38.1179 63.5525 38.4807 63.1466 38.7225 62.7666C39.1025 62.1793 39.327 61.5921 39.3961 61.0221C39.3961 61.0135 39.3961 61.0135 39.3961 61.0048C39.4997 59.8303 39.7156 58.6212 40.0438 57.4208C40.3634 56.2549 41.0888 54.9422 42.2029 53.5259C42.3497 53.3359 42.3151 53.0682 42.1338 52.9214C41.9438 52.7745 41.6761 52.8091 41.5292 52.9904C40.3461 54.5018 39.5688 55.9095 39.2147 57.1876C38.8779 58.4399 38.6534 59.6921 38.5411 60.9098C38.4893 61.3416 38.3079 61.808 37.997 62.283C37.7898 62.6025 37.4702 62.9652 37.0384 63.3625C36.6325 63.7425 36.2612 63.9411 35.9675 63.9411C35.6825 63.9411 35.3285 63.7252 34.9398 63.3107C34.4821 62.8357 34.1194 62.3434 33.8344 61.8598C33.558 61.2898 33.4544 60.7803 33.5149 60.3398C33.5149 60.3312 33.5149 60.3312 33.5149 60.3226C33.5667 59.8648 33.6185 59.3985 33.6789 58.9321C33.8603 57.5244 34.2057 56.134 34.7066 54.7868C35.2594 53.31 36.1921 52.1182 37.4961 51.2373C37.6948 51.1078 37.7466 50.8314 37.6084 50.6414C37.4789 50.4428 37.2025 50.3909 37.0125 50.5291C35.5616 51.5309 34.5166 52.8695 33.9035 54.5104C33.3767 55.9181 33.0226 57.369 32.8326 58.8458C32.7721 59.3121 32.7203 59.7785 32.6685 60.2362C32.5735 60.8494 32.7117 61.5316 33.0744 62.2657C33.0744 62.2743 33.083 62.283 33.083 62.2916C33.3939 62.8357 33.8085 63.3884 34.318 63.9152C34.888 64.5284 35.4234 64.8134 35.9675 64.822Z" fill="black"/>
<path d="M46.7853 44.9182C46.8284 44.9182 46.8716 44.9095 46.9148 44.9095C46.8889 44.9095 46.8716 44.9182 46.8457 44.9182C46.8198 44.9182 46.8025 44.9182 46.7853 44.9182ZM46.9148 44.9095H46.9493C46.9753 44.9095 47.0098 44.9095 47.0357 44.9095C46.9753 44.9182 46.9062 44.9182 46.8457 44.9182C46.863 44.9095 46.8889 44.9095 46.9148 44.9095ZM42.2858 46.2568C42.3981 46.1963 42.519 46.1445 42.6399 46.0841C43.9353 45.4623 45.3257 45.0736 46.7939 44.9268H46.8025C46.8198 44.9268 46.8371 44.9182 46.863 44.9182C46.9234 44.9182 46.9925 44.9095 47.053 44.9095H47.2775C47.2948 44.9095 47.3121 44.9095 47.3293 44.9095H47.4502C47.4762 44.9095 47.5107 44.9095 47.5366 44.9095H47.813C47.8389 44.9095 47.8734 44.9095 47.908 44.9095H47.9166H48.0202C48.0548 44.9095 48.0893 44.9095 48.1152 44.9095C48.2102 44.9095 48.2966 44.9182 48.3916 44.9182C48.4175 44.9182 48.4434 44.9182 48.4693 44.9182C48.478 44.9182 48.4866 44.9182 48.4952 44.9182C49.6438 45.0305 50.7406 45.2895 51.7942 45.6868C52.1052 45.8077 52.4074 45.9373 52.7097 46.0841C56.5182 47.9063 58.8759 50.8512 59.7827 54.9016C60.085 56.9743 60.2664 58.9865 60.3354 60.9642C60.37 62.8728 59.9986 64.4878 59.2127 65.8005C57.6237 68.4604 54.3506 69.9113 49.402 70.1359C49.1688 70.1445 48.9357 70.1531 48.6939 70.1618C48.6507 70.1618 48.5989 70.1618 48.5557 70.1618L48.0893 70.1704C48.0634 70.1704 48.0289 70.1704 47.9943 70.1704H47.9166C47.908 70.1704 47.908 70.1704 47.908 70.1704H47.813C47.7871 70.1704 47.7698 70.1704 47.7439 70.1704H47.4934C47.4762 70.1704 47.4589 70.1704 47.4502 70.1704C47.4502 70.1704 47.4416 70.1704 47.433 70.1704C47.3812 70.1704 47.3207 70.1704 47.2689 70.1704L46.8025 70.1618C46.7593 70.1618 46.7075 70.1618 46.6644 70.1618C46.4571 70.1531 46.2498 70.1531 46.0512 70.1445L44.2894 70.0063L42.6312 69.7472C42.5535 69.73 42.4758 69.7213 42.4067 69.7041C41.8108 69.5745 41.2495 69.4191 40.7313 69.2377C38.6241 68.5123 37.1041 67.3636 36.1627 65.8005C35.3769 64.4878 34.9969 62.8728 35.0314 60.9642C35.1005 58.9952 35.2819 56.9743 35.5841 54.9016C36.4391 50.9722 38.6845 48.0877 42.2858 46.2568Z" fill="#6FBBEE"/>
<path d="M47.2602 70.6108H48.0807H48.0893L48.5557 70.6022H48.6938H48.7025C48.9443 70.5936 49.1861 70.5849 49.4193 70.5763C51.941 70.4554 54.0656 70.0236 55.741 69.2809C57.4509 68.5209 58.7464 67.4241 59.5841 66.025C60.3959 64.6432 60.8018 62.9419 60.7586 60.9556V60.9469C60.6895 58.9693 60.5082 56.9138 60.2059 54.8412C60.2059 54.8325 60.2059 54.8239 60.1972 54.8066C59.7309 52.7253 58.8845 50.903 57.6668 49.3831C56.4491 47.8717 54.8428 46.6281 52.891 45.6868C52.5801 45.54 52.2606 45.4018 51.941 45.2809C50.8615 44.8664 49.7215 44.5986 48.5384 44.4864H48.5298H48.5038C48.4779 44.4864 48.452 44.4864 48.4348 44.4777C48.4261 44.4777 48.4175 44.4777 48.4088 44.4777L48.1498 44.4691C48.1152 44.4691 48.072 44.4604 48.0289 44.4604H47.3207C47.2948 44.4604 47.2602 44.4604 47.2343 44.4691L47.0271 44.4777C47.0184 44.4777 47.0184 44.4777 47.0098 44.4777C46.9839 44.4777 46.9493 44.4777 46.9234 44.4777H46.8889H46.8802H46.8716C46.8457 44.4777 46.8198 44.4864 46.7939 44.4864C46.7766 44.4864 46.7507 44.495 46.7334 44.495C45.2221 44.6504 43.7798 45.0477 42.4412 45.6954C42.3203 45.7559 42.1994 45.8163 42.0785 45.8768C40.2304 46.8181 38.7104 48.0531 37.5532 49.5385C36.3959 51.024 35.5841 52.803 35.135 54.8152C35.135 54.8239 35.1264 54.8325 35.1264 54.8498C34.8241 56.9225 34.6341 58.9779 34.5737 60.9556V60.9642C34.5391 62.9505 34.9364 64.6519 35.7655 66.0337C36.75 67.6918 38.365 68.9095 40.5672 69.6609C41.1026 69.8422 41.6899 70.0063 42.2944 70.1358C42.3721 70.1531 42.4499 70.1704 42.519 70.179C42.5276 70.179 42.5276 70.179 42.5362 70.179L44.1944 70.4381C44.203 70.4381 44.2203 70.4381 44.2289 70.4381L45.9821 70.5763C45.9907 70.5763 45.9993 70.5763 45.9993 70.5763C46.2066 70.5849 46.4139 70.5849 46.6212 70.5936H46.6298H46.768L47.2602 70.6108C47.2516 70.6108 47.2516 70.6108 47.2602 70.6108ZM48.0807 69.7472H47.2602L46.7939 69.7386H46.7852H46.6557C46.4571 69.73 46.2498 69.7299 46.0512 69.7213L44.3239 69.5831L42.6831 69.324C42.614 69.3068 42.5449 69.2981 42.4758 69.2809C41.9058 69.16 41.3531 69.0045 40.8522 68.8318C38.8486 68.1495 37.3891 67.0527 36.5082 65.5759C35.7655 64.3323 35.4114 62.7865 35.4373 60.9642C35.5064 59.0297 35.6877 57.0088 35.9814 54.9707C36.4045 53.088 37.1645 51.4299 38.2354 50.0481C39.3149 48.6663 40.7399 47.509 42.4671 46.6281C42.5794 46.5677 42.6917 46.5159 42.8126 46.4554C44.0562 45.8595 45.4035 45.4795 46.8111 45.3413C46.8198 45.3413 46.8371 45.3413 46.8457 45.3413C46.8543 45.3413 46.8716 45.3413 46.8802 45.3327C46.9407 45.3327 46.9925 45.3241 47.053 45.3241H47.2775C47.2948 45.3241 47.312 45.3241 47.3293 45.3241H48.0202C48.0375 45.3241 48.0548 45.3241 48.072 45.3241C48.0807 45.3241 48.0893 45.3241 48.0979 45.3241L48.3657 45.3327C48.3829 45.3327 48.4088 45.3327 48.4348 45.3413H48.4607C49.5661 45.445 50.6283 45.6954 51.6388 46.0841C51.941 46.1963 52.2347 46.3259 52.5283 46.464C54.3678 47.3449 55.8705 48.5108 57.0019 49.9185C58.1332 51.3262 58.9277 53.0276 59.3595 54.9793C59.6532 57.0175 59.8432 59.0297 59.9036 60.9729C59.9382 62.7951 59.5754 64.341 58.8414 65.5846C58.0987 66.8282 56.9328 67.8127 55.3955 68.495C53.8151 69.1945 51.7942 69.609 49.3847 69.7213C49.1602 69.7299 48.927 69.7386 48.6938 69.7472H48.5643H48.5557H48.0807Z" fill="black"/>
<path d="M46.9493 44.9095C46.9752 44.9095 47.0097 44.9095 47.0356 44.9095C46.9752 44.9182 46.9061 44.9182 46.8456 44.9182C46.8197 44.9182 46.8025 44.9268 46.7766 44.9268V44.9182C46.837 44.9095 46.8888 44.9095 46.9493 44.9095Z" fill="#A87D4F"/>
<path d="M42.2857 46.2568C42.398 46.1963 42.5189 46.1445 42.6398 46.0841C43.9353 45.4623 45.3257 45.0736 46.7938 44.9268H46.8025C46.8197 44.9268 46.837 44.9182 46.8629 44.9182C46.9234 44.9182 46.9925 44.9095 47.0529 44.9095H47.2775C47.2947 44.9095 47.312 44.9095 47.3293 44.9095H47.4502C47.4761 44.9095 47.5106 44.9095 47.5365 44.9095H47.8129C47.8388 44.9095 47.8734 44.9095 47.9079 44.9095H47.9165H48.0202C48.0547 44.9095 48.0893 44.9095 48.1152 44.9095C48.2102 44.9095 48.2965 44.9182 48.3915 44.9182C48.4174 44.9182 48.4433 44.9182 48.4693 44.9182H48.4952C49.6438 45.0305 50.7406 45.2895 51.7942 45.6868C47.217 52.3712 46.4225 60.5324 49.402 70.1445C49.1688 70.1531 48.9356 70.1618 48.6938 70.1704C48.6506 70.1704 48.5988 70.1704 48.5556 70.1704L48.0893 70.179C48.0634 70.179 48.0288 70.179 47.9943 70.179H47.9165C47.9079 70.179 47.9079 70.179 47.9079 70.179H47.8129C47.787 70.179 47.7697 70.179 47.7438 70.179H47.4934C47.4761 70.179 47.4588 70.179 47.4502 70.179C47.4502 70.179 47.4415 70.179 47.4329 70.179C47.3811 70.179 47.3206 70.179 47.2688 70.179L46.8025 70.1704C46.7593 70.1704 46.7075 70.1704 46.6643 70.1704C46.457 70.1618 46.2498 70.1618 46.0511 70.1531L44.2893 70.015L42.6312 69.7559C42.5535 69.7386 42.4757 69.73 42.4066 69.7127C41.8108 69.5831 41.2494 69.4277 40.7312 69.2463C36.7068 62.9765 37.2336 55.3162 42.2857 46.2568Z" fill="#E6FBFF"/>
<path d="M47.2602 70.6108H48.0807H48.0893L48.5557 70.6022H48.6938H48.7025C48.9443 70.5936 49.1861 70.5849 49.4193 70.5763C51.941 70.4554 54.0656 70.0236 55.741 69.2809C57.4509 68.5209 58.7464 67.4241 59.5841 66.025C60.3959 64.6432 60.8018 62.9419 60.7586 60.9556V60.9469C60.6895 58.9693 60.5082 56.9138 60.2059 54.8412C60.2059 54.8325 60.2059 54.8239 60.1972 54.8066C59.7309 52.7253 58.8845 50.903 57.6668 49.3831C56.4491 47.8717 54.8428 46.6281 52.891 45.6868C52.5801 45.54 52.2606 45.4018 51.941 45.2809C50.8615 44.8664 49.7215 44.5986 48.5384 44.4864H48.5298H48.5038C48.4779 44.4864 48.4607 44.4864 48.4348 44.4777C48.4261 44.4777 48.4175 44.4777 48.4088 44.4777L48.1498 44.4691C48.1152 44.4691 48.072 44.4604 48.0289 44.4604H47.3207C47.2948 44.4604 47.2602 44.4604 47.2343 44.4691L47.0271 44.4777C47.0184 44.4777 47.0184 44.4777 47.0098 44.4777C46.9839 44.4777 46.958 44.4777 46.9234 44.4777C46.8802 44.4777 46.8371 44.4864 46.7939 44.4864C46.7766 44.4864 46.7593 44.495 46.7334 44.495C45.2221 44.6504 43.7798 45.0477 42.4412 45.6954C42.3203 45.7559 42.1994 45.8163 42.0785 45.8768C40.2304 46.8181 38.7104 48.0531 37.5532 49.5385C36.3959 51.024 35.5841 52.803 35.135 54.8152C35.135 54.8239 35.1264 54.8325 35.1264 54.8498C34.8241 56.9225 34.6341 58.9779 34.5737 60.9556V60.9642C34.5391 62.9505 34.9364 64.6519 35.7655 66.0337C36.75 67.6918 38.365 68.9095 40.5672 69.6609C41.1026 69.8422 41.6899 70.0063 42.2944 70.1358C42.3721 70.1531 42.4499 70.1704 42.519 70.179C42.5276 70.179 42.5276 70.179 42.5362 70.179L44.1944 70.4381C44.203 70.4381 44.2203 70.4381 44.2289 70.4381L45.9821 70.5763C45.9907 70.5763 45.9993 70.5763 45.9993 70.5763C46.2066 70.5849 46.4139 70.5849 46.6212 70.5936H46.6298H46.768L47.2602 70.6108C47.2516 70.6108 47.2516 70.6108 47.2602 70.6108ZM48.0807 69.7472H47.2602L46.7939 69.7386H46.7852H46.6557C46.4571 69.73 46.2498 69.7299 46.0512 69.7213L44.3239 69.5831L42.6831 69.324C42.614 69.3068 42.5449 69.2981 42.4758 69.2809C41.9058 69.16 41.3531 69.0045 40.8522 68.8318C38.8486 68.1495 37.3891 67.0527 36.5082 65.5759C35.7655 64.3323 35.4114 62.7865 35.4373 60.9642C35.5064 59.0297 35.6877 57.0088 35.9814 54.9707C36.4045 53.088 37.1645 51.4299 38.2354 50.0481C39.3149 48.6663 40.7399 47.509 42.4671 46.6281C42.5794 46.5677 42.6917 46.5159 42.8126 46.4554C44.0562 45.8595 45.4035 45.4795 46.8111 45.3413C46.8198 45.3413 46.8371 45.3413 46.8457 45.3413C46.8543 45.3413 46.8716 45.3413 46.8802 45.3327C46.9407 45.3327 46.9925 45.3241 47.053 45.3241H47.2775C47.2948 45.3241 47.312 45.3241 47.3293 45.3241H48.0202C48.0375 45.3241 48.0548 45.3241 48.072 45.3241C48.0807 45.3241 48.0893 45.3241 48.0979 45.3241L48.3657 45.3327C48.3829 45.3327 48.4088 45.3327 48.4348 45.3413H48.4607C49.5661 45.445 50.6283 45.6954 51.6388 46.0841C51.941 46.1963 52.2347 46.3259 52.5283 46.464C54.3678 47.3449 55.8705 48.5108 57.0019 49.9185C58.1332 51.3262 58.9277 53.0276 59.3595 54.9793C59.6532 57.0175 59.8432 59.0297 59.9036 60.9729C59.9382 62.7951 59.5754 64.341 58.8414 65.5846C58.0987 66.8282 56.9328 67.8127 55.3955 68.495C53.8151 69.1945 51.7942 69.609 49.3847 69.7213C49.1602 69.7299 48.927 69.7386 48.6938 69.7472H48.5643H48.5557H48.0807Z" fill="black"/>
<path d="M57.6141 54.6658C58.1322 56.0476 58.4777 57.4553 58.659 58.9062C58.7195 59.3725 58.7713 59.8389 58.8231 60.2966C58.9009 60.832 58.78 61.4279 58.4604 62.0843C58.1668 62.6025 57.7695 63.1206 57.2945 63.6215C56.8109 64.1311 56.3618 64.3902 55.9559 64.3902C55.5414 64.3902 55.0923 64.157 54.5914 63.6906C54.125 63.2588 53.7796 62.8702 53.5637 62.5247C53.2182 61.9893 53.0196 61.4711 52.9592 60.9616C52.8555 59.7525 52.631 58.5348 52.2942 57.3085C51.9574 56.0821 51.2147 54.7349 50.0574 53.2667L54.6691 50.9091C56.0509 51.8418 57.0268 53.094 57.6141 54.6658Z" fill="#6FBBEE"/>
<path d="M55.956 64.822C56.4914 64.822 57.0355 64.5284 57.6055 63.9238C58.115 63.3884 58.5295 62.8443 58.8405 62.2916C58.8491 62.283 58.8491 62.2743 58.8491 62.2657C59.2118 61.5316 59.3414 60.8494 59.255 60.2362C59.2032 59.7785 59.1514 59.3035 59.0909 58.8458C58.9009 57.369 58.5382 55.9095 58.02 54.5104C57.4068 52.8695 56.3619 51.5309 54.911 50.555C54.7124 50.4255 54.4446 50.4773 54.3151 50.6673C54.1855 50.8659 54.2374 51.1336 54.4274 51.2632C55.7228 52.1441 56.6641 53.3359 57.2168 54.8127C57.7177 56.1513 58.0632 57.5503 58.2446 58.958C58.305 59.4158 58.3568 59.8907 58.4086 60.3485C58.4086 60.3571 58.4086 60.3571 58.4086 60.3657C58.4777 60.8062 58.3655 61.3157 58.0891 61.8857C57.8127 62.3693 57.4414 62.853 56.9837 63.3366C56.595 63.7511 56.241 63.967 55.956 63.967C55.6623 63.967 55.291 63.7684 54.8851 63.3884C54.4533 62.9825 54.1251 62.6198 53.9178 62.3002C53.6156 61.8253 53.4256 61.3589 53.3737 60.9271C53.2615 59.7008 53.0369 58.4485 52.7001 57.2049C52.3547 55.9267 51.5774 54.5104 50.3856 53.0077C50.2388 52.8177 49.9624 52.7918 49.7811 52.9386C49.5911 53.0854 49.5652 53.3618 49.712 53.5431C50.8261 54.9595 51.5515 56.2722 51.871 57.4381C52.1992 58.6385 52.4151 59.8476 52.5188 61.0221C52.5188 61.0307 52.5188 61.0307 52.5188 61.0394C52.5878 61.6093 52.8124 62.1966 53.1924 62.7839C53.4428 63.1639 53.7969 63.5784 54.2978 64.0361C54.8764 64.5543 55.4205 64.8134 55.956 64.822Z" fill="black"/>
<path d="M58.2239 28.7197C58.9838 28.9356 59.787 29.2034 60.6506 29.5402C62.7233 30.352 64.7442 31.3624 66.696 32.5715C68.7341 33.8324 70.3663 35.1105 71.5841 36.4059C72.9227 37.8309 73.5876 39.1091 73.5876 40.249C73.5876 40.9831 73.3372 41.5272 72.8363 41.8813C72.4131 42.1836 71.7913 42.3649 70.9536 42.4167C70.4182 42.4513 69.6064 42.4426 68.5182 42.3822C67.3523 42.3217 66.5405 42.2958 66.0742 42.3131C64.2433 42.3995 62.4211 42.8226 60.6075 43.5913C59.9338 43.8849 59.3379 44.1785 58.8198 44.4894C58.9579 44.0749 59.0875 43.6517 59.2084 43.2199C59.407 42.3304 59.6057 41.4236 59.787 40.5081C60.2793 38.0986 60.3052 35.7237 59.8561 33.3919C59.5279 31.7251 58.9838 30.162 58.2239 28.7197Z" fill="#6FBBEE"/>
<path d="M58.8197 44.9298C58.8975 44.9298 58.9666 44.9125 59.0356 44.8694C59.5365 44.5757 60.1238 44.2821 60.7802 43.9971C62.5333 43.2544 64.321 42.8398 66.0914 42.7535C66.5405 42.7362 67.3523 42.7621 68.4923 42.8226C69.615 42.883 70.4268 42.8917 70.9881 42.8571C71.9122 42.7967 72.6031 42.5894 73.0954 42.2353C73.7172 41.7949 74.0281 41.1299 74.0281 40.249C74.0281 38.9881 73.3285 37.6409 71.9036 36.1123C70.6686 34.7909 68.9932 33.4782 66.9291 32.2001C64.9601 30.9737 62.9047 29.946 60.8147 29.1256C59.9424 28.7888 59.1134 28.5038 58.3448 28.2879C58.1116 28.2274 57.8784 28.357 57.8093 28.5901C57.7489 28.8233 57.8784 29.0565 58.1116 29.1256C58.8543 29.3328 59.6575 29.6092 60.5038 29.9374C62.5419 30.7319 64.5542 31.7423 66.48 32.9341C68.475 34.1691 70.09 35.4386 71.2731 36.6995C72.5254 38.0381 73.1645 39.2299 73.1645 40.2404C73.1645 40.8276 72.9745 41.2508 72.5945 41.5185C72.2404 41.769 71.6877 41.9244 70.9363 41.9762C70.4268 42.0108 69.6236 42.0021 68.5527 41.9417C67.3609 41.8812 66.5491 41.8553 66.0655 41.8726C64.1915 41.959 62.3001 42.3994 60.452 43.1767C59.7611 43.4703 59.1479 43.7812 58.6125 44.1007C58.4052 44.2216 58.3361 44.4894 58.457 44.688C58.5261 44.8521 58.6643 44.9298 58.8197 44.9298Z" fill="black"/>
<path d="M20.6303 29.2161C20.9757 28.8534 21.3557 28.5252 21.7616 28.2402C23.1693 27.2557 24.7152 26.5475 26.4079 26.1243C26.8224 25.9602 27.2715 25.7789 27.7379 25.5716C28.9988 25.0103 30.2769 24.3539 31.5464 23.6026C31.8573 23.4212 32.2632 23.1362 32.7641 22.7562C33.4032 22.1949 34.0768 21.6681 34.7677 21.1844C36.0545 20.2863 37.4363 19.5263 38.9045 18.8958C39.5781 18.6109 40.2517 18.369 40.934 18.1531C42.8426 17.5659 44.8116 17.2636 46.8411 17.2377C49.4665 17.2032 52.0488 17.5313 54.5619 18.2309C55.3564 18.4986 56.125 18.8613 56.8677 19.3017C58.5086 20.2863 59.8818 21.6076 60.9958 23.2571C62.1099 24.9153 62.8699 26.7721 63.2585 28.8102C63.4053 29.5702 63.5003 30.3302 63.5349 31.0901C63.604 32.4719 63.4917 33.871 63.2067 35.2873C63.034 36.1164 62.8613 36.9282 62.6799 37.74C60.7454 44.6231 56.7296 48.708 50.6238 49.9861C47.057 50.7288 42.7735 50.5216 37.7818 49.3557L37.419 49.2521C34.5691 48.6821 31.8487 47.7666 29.2406 46.523C28.6792 46.2467 28.1092 45.9789 27.5392 45.7112C26.0279 44.934 24.6375 43.9581 23.3852 42.7836C22.2884 41.7645 21.3125 40.6418 20.4489 39.4154C19.3694 37.8091 18.7562 36.2114 18.618 34.6137C18.5921 34.3719 18.5835 34.1301 18.5835 33.8883C18.5835 33.4824 18.6267 33.0851 18.7044 32.6965C18.7044 32.6878 18.7044 32.6878 18.7044 32.6878C18.8771 31.8415 19.2399 31.0383 19.7839 30.2524C19.7926 30.2352 19.8012 30.2265 19.8098 30.2093C20.043 29.8724 20.3194 29.5443 20.6303 29.2161Z" fill="#6FBBEE"/>
<path d="M46.1156 50.8498C47.7565 50.8498 49.3023 50.703 50.7187 50.4007C53.845 49.7443 56.4704 48.3539 58.5258 46.2553C60.5726 44.174 62.1098 41.3413 63.0857 37.8523C63.0857 37.8437 63.0857 37.835 63.0943 37.835C63.2757 37.0232 63.4571 36.1942 63.6298 35.3737C63.9234 33.9315 64.0357 32.4892 63.9666 31.0729C63.932 30.287 63.837 29.5011 63.6816 28.7239C63.2843 26.6425 62.4984 24.7167 61.3498 23.024C60.2098 21.3226 58.7762 19.9495 57.0922 18.939C56.3322 18.4813 55.529 18.11 54.7086 17.8336C54.7 17.8336 54.6913 17.825 54.6827 17.825C52.135 17.1168 49.4923 16.78 46.8324 16.8145C44.7683 16.8405 42.7388 17.16 40.8043 17.7559C40.1048 17.9718 39.4139 18.2222 38.7316 18.5072C37.2462 19.1377 35.8299 19.9236 34.5172 20.839C33.8176 21.3226 33.1354 21.8581 32.4877 22.4281C32.0127 22.7908 31.6154 23.0671 31.3218 23.2399C30.0609 23.9739 28.8 24.6303 27.5478 25.183C27.0987 25.3816 26.6582 25.563 26.261 25.7185C24.5337 26.1503 22.936 26.8843 21.4938 27.8861C21.062 28.1884 20.6647 28.5339 20.302 28.9138L20.2934 28.9225C19.9738 29.2593 19.6802 29.6047 19.4384 29.9588C19.4297 29.9761 19.4125 29.9934 19.4038 30.0106C18.8252 30.8311 18.4366 31.7033 18.2552 32.6015C18.2552 32.6101 18.2552 32.6188 18.2466 32.6274C18.1602 33.042 18.117 33.4651 18.117 33.8969C18.117 34.156 18.1257 34.4151 18.1516 34.6656C18.2984 36.3237 18.9461 38.0078 20.0602 39.6659C20.0602 39.6659 20.0602 39.6745 20.0688 39.6745C20.9411 40.9268 21.9515 42.0754 23.0656 43.1117C24.3437 44.3035 25.7773 45.314 27.3232 46.1085C27.3319 46.1085 27.3319 46.1171 27.3405 46.1171C27.9105 46.3849 28.4805 46.6526 29.0332 46.9289C31.6586 48.1898 34.4394 49.1139 37.298 49.6925L37.6521 49.7875H37.6607C40.1739 50.3748 42.5402 50.7202 44.6906 50.8325C45.1915 50.8411 45.6579 50.8498 46.1156 50.8498ZM62.248 37.6364C61.3066 40.9872 59.8471 43.6817 57.904 45.6594C56.9367 46.644 55.8227 47.473 54.605 48.1121C53.3786 48.7598 52.0141 49.2434 50.5287 49.5543C48.7928 49.9171 46.8497 50.0466 44.7511 49.943C42.6525 49.8393 40.338 49.4939 37.8766 48.9239L37.5139 48.8289C37.5053 48.8289 37.4967 48.8289 37.488 48.8203C34.6899 48.2589 31.9695 47.3435 29.4132 46.1171C28.8518 45.8408 28.2818 45.5731 27.7119 45.3053C26.2437 44.5454 24.8792 43.5867 23.6528 42.4468C22.582 41.4536 21.6147 40.3482 20.777 39.1477C19.7406 37.6105 19.1534 36.0733 19.0152 34.5619C18.9979 34.3287 18.9807 34.0956 18.9807 33.871C18.9807 33.4997 19.0152 33.1283 19.0929 32.7656C19.0929 32.757 19.0929 32.7483 19.0929 32.7483C19.257 31.9711 19.5938 31.2111 20.1034 30.4856C20.112 30.477 20.112 30.4684 20.1206 30.4597C20.1206 30.4511 20.1293 30.4511 20.1293 30.4425C20.3538 30.1229 20.6129 29.812 20.9065 29.5011L20.9152 29.4925C21.2347 29.1557 21.5974 28.8448 21.9774 28.5684C23.3333 27.6184 24.8446 26.9275 26.4769 26.5216C26.4941 26.513 26.5114 26.513 26.5287 26.5044C26.9519 26.3403 27.4096 26.1503 27.8846 25.943C29.1541 25.373 30.4582 24.708 31.7363 23.9567C32.0645 23.758 32.479 23.473 32.9972 23.0844C33.0058 23.0758 33.0145 23.0758 33.0231 23.0671C33.6536 22.5144 34.3099 21.9963 34.9922 21.5299C36.253 20.649 37.6176 19.8977 39.0425 19.2845C39.6989 19.0081 40.3639 18.7663 41.0375 18.5591C42.8943 17.9891 44.8461 17.6868 46.8237 17.6523C49.3973 17.6177 51.945 17.9459 54.415 18.6281C55.1749 18.8872 55.9177 19.2327 56.6258 19.6559C58.2235 20.6231 59.5621 21.9099 60.6417 23.499C61.7212 25.0967 62.4553 26.9103 62.8352 28.8879C62.9734 29.622 63.0684 30.3734 63.103 31.1161C63.1721 32.4547 63.0598 33.8278 62.7834 35.201C62.6107 36.0128 62.4293 36.8332 62.248 37.6364Z" fill="black"/>
<path d="M27.5392 45.7026C26.0279 44.9253 24.6375 43.9494 23.3852 42.7749C22.2884 41.7558 21.3125 40.6331 20.4489 39.4068C19.3694 37.8004 18.7562 36.2027 18.618 34.6051C21.1139 34.0005 23.5666 33.7155 25.9761 33.7328C28.3856 33.7501 31.4514 34.1991 35.1563 35.0628C38.8613 35.9264 41.7889 36.8418 43.9307 37.8091C46.0811 38.7763 48.1797 39.9681 50.2265 41.3931C52.2733 42.8181 53.3183 44.1912 53.3614 45.5212C53.4046 46.8512 53.1023 47.8789 52.446 48.613C52.0401 49.0707 51.4356 49.5198 50.6324 49.9861C47.0656 50.7288 42.7821 50.5216 37.7904 49.3557L37.4277 49.252C34.5777 48.682 31.8573 47.7666 29.2492 46.523C28.6706 46.2466 28.1092 45.9703 27.5392 45.7026Z" fill="#E6FBFF"/>
<path d="M46.1156 50.8498C47.7565 50.8498 49.3023 50.703 50.7187 50.4007C53.845 49.7443 56.4704 48.3539 58.5258 46.2553C60.5726 44.174 62.1098 41.3413 63.0857 37.8523C63.0857 37.8437 63.0857 37.835 63.0943 37.835C63.2757 37.0232 63.4571 36.1942 63.6298 35.3737C63.9234 33.9315 64.0357 32.4892 63.9666 31.0729C63.932 30.287 63.837 29.5011 63.6816 28.7239C63.2843 26.6425 62.4984 24.7167 61.3498 23.024C60.2098 21.3226 58.7762 19.9495 57.0922 18.939C56.3322 18.4813 55.529 18.11 54.7086 17.8336C54.7 17.8336 54.6913 17.825 54.6827 17.825C52.135 17.1168 49.4923 16.78 46.8324 16.8145C44.7683 16.8405 42.7388 17.16 40.8043 17.7559C40.1048 17.9718 39.4139 18.2222 38.7316 18.5072C37.2462 19.1377 35.8299 19.9236 34.5172 20.839C33.8176 21.3226 33.1354 21.8581 32.4877 22.4281C32.0127 22.7908 31.6154 23.0671 31.3218 23.2399C30.0609 23.9739 28.8 24.6303 27.5478 25.183C27.0987 25.3816 26.6582 25.563 26.261 25.7185C24.5337 26.1503 22.936 26.8843 21.4938 27.8861C21.062 28.1884 20.6647 28.5339 20.302 28.9138L20.2934 28.9225C19.9738 29.2593 19.6802 29.6047 19.4384 29.9588C19.4297 29.9761 19.4125 29.9934 19.4038 30.0106C18.8252 30.8311 18.4366 31.7033 18.2552 32.6015C18.2552 32.6101 18.2552 32.6188 18.2466 32.6274C18.1602 33.042 18.117 33.4651 18.117 33.8969C18.117 34.156 18.1257 34.4151 18.1516 34.6656C18.2984 36.3237 18.9461 38.0078 20.0602 39.6659C20.0602 39.6659 20.0602 39.6745 20.0688 39.6745C20.9411 40.9268 21.9515 42.0754 23.0656 43.1117C24.3437 44.3035 25.7773 45.314 27.3232 46.1085C27.3319 46.1085 27.3319 46.1171 27.3405 46.1171C27.9105 46.3849 28.4805 46.6526 29.0332 46.9289C31.6586 48.1898 34.4394 49.1139 37.298 49.6925L37.6521 49.7875H37.6607C40.1739 50.3748 42.5402 50.7202 44.6906 50.8325C45.1915 50.8411 45.6579 50.8498 46.1156 50.8498ZM62.248 37.6364C61.3066 40.9872 59.8471 43.6817 57.904 45.6594C56.9367 46.644 55.8227 47.473 54.605 48.1121C53.3786 48.7598 52.0141 49.2434 50.5287 49.5543C48.7928 49.9171 46.8497 50.0466 44.7511 49.943C42.6525 49.8393 40.338 49.4939 37.8766 48.9239L37.5139 48.8289C37.5053 48.8289 37.4967 48.8289 37.488 48.8203C34.6899 48.2589 31.9695 47.3435 29.4132 46.1171C28.8518 45.8408 28.2818 45.5731 27.7119 45.3053C26.2437 44.5454 24.8792 43.5867 23.6528 42.4468C22.582 41.4536 21.6147 40.3482 20.777 39.1477C19.7406 37.6105 19.1534 36.0733 19.0152 34.5619C18.9979 34.3287 18.9807 34.0956 18.9807 33.871C18.9807 33.4997 19.0152 33.1283 19.0929 32.7656C19.0929 32.757 19.0929 32.7483 19.0929 32.7483C19.257 31.9711 19.5938 31.2111 20.1034 30.4856C20.112 30.477 20.112 30.4684 20.1206 30.4597C20.1206 30.4511 20.1293 30.4511 20.1293 30.4425C20.3538 30.1229 20.6129 29.812 20.9065 29.5011L20.9152 29.4925C21.2347 29.1557 21.5974 28.8448 21.9774 28.5684C23.3333 27.6184 24.8446 26.9275 26.4769 26.5216C26.4941 26.513 26.5114 26.513 26.5287 26.5044C26.9519 26.3403 27.4096 26.1503 27.8846 25.943C29.1541 25.373 30.4582 24.708 31.7363 23.9567C32.0645 23.758 32.479 23.473 32.9972 23.0844C33.0058 23.0758 33.0145 23.0758 33.0231 23.0671C33.6536 22.5144 34.3099 21.9963 34.9922 21.5299C36.253 20.649 37.6176 19.8977 39.0425 19.2845C39.6989 19.0081 40.3639 18.7663 41.0375 18.5591C42.8943 17.9891 44.8461 17.6868 46.8237 17.6523C49.3973 17.6177 51.945 17.9459 54.415 18.6281C55.1749 18.8872 55.9177 19.2327 56.6258 19.6559C58.2235 20.6231 59.5621 21.9099 60.6417 23.499C61.7212 25.0967 62.4553 26.9103 62.8352 28.8879C62.9734 29.622 63.0684 30.3734 63.103 31.1161C63.1721 32.4547 63.0598 33.8278 62.7834 35.201C62.6107 36.0128 62.4293 36.8332 62.248 37.6364Z" fill="black"/>
<path d="M52.35 29.4514C52.4779 28.7988 52.7385 28.2779 53.1486 27.8919C53.5689 27.4991 54.0036 27.3467 54.4612 27.4364C54.9273 27.5278 55.2723 27.8331 55.5045 28.3539C55.7554 28.8695 55.8084 29.4519 55.6805 30.1045C55.5542 30.7486 55.2868 31.2594 54.8665 31.6522C54.4463 32.045 54.0116 32.1973 53.5455 32.1059C53.0878 32.0162 52.7429 31.7109 52.5106 31.1901C52.2766 30.6778 52.2237 30.0954 52.35 29.4514ZM53.5938 28.2696C53.4701 28.2717 53.3603 28.3382 53.2659 28.4605C53.1715 28.5828 53.1247 28.732 53.11 28.8964C53.1039 29.0624 53.1399 29.1926 53.2233 29.3058C53.3084 29.4105 53.4136 29.4575 53.5372 29.4554C53.6609 29.4532 53.7707 29.3867 53.8566 29.2628C53.951 29.1405 53.9979 28.9913 54.0108 28.8354C54.017 28.6694 53.9826 28.5307 53.8975 28.426C53.8158 28.3043 53.7106 28.2573 53.5938 28.2696Z" fill="black"/>
<path d="M53.2575 28.4588C53.3519 28.3365 53.4618 28.2701 53.5854 28.2679C53.7022 28.2556 53.8057 28.3111 53.8908 28.4158C53.9742 28.529 54.0188 28.6609 54.0041 28.8253C53.9895 28.9896 53.9443 29.1303 53.8499 29.2526C53.7555 29.3749 53.6457 29.4414 53.5305 29.4452C53.4069 29.4474 53.3017 29.4003 53.2166 29.2957C53.1332 29.1825 53.0972 29.0522 53.1033 28.8862C53.1163 28.7303 53.1716 28.5828 53.2575 28.4588Z" fill="white"/>
<path d="M53.808 32.5623C54.2839 32.5588 54.7439 32.3674 55.1658 31.9661C55.6502 31.5155 55.9613 30.9165 56.1042 30.1876C56.2488 29.4504 56.1802 28.7681 55.9087 28.178C55.6149 27.5219 55.1545 27.1324 54.5528 27.0144C53.9511 26.8964 53.3776 27.0832 52.8578 27.5797C52.3819 28.032 52.0708 28.631 51.9262 29.3683C51.7833 30.0971 51.8451 30.7693 52.1234 31.3695C52.4172 32.0255 52.8692 32.4134 53.4709 32.5314C53.581 32.553 53.7013 32.5678 53.808 32.5623ZM54.2053 27.8439C54.2578 27.8454 54.3188 27.8486 54.3781 27.8602C54.3781 27.8602 54.3781 27.8602 54.3866 27.8619C54.8103 27.945 55.008 28.283 55.119 28.5248C55.3239 28.961 55.3613 29.4435 55.2499 30.0113C55.1403 30.5706 54.9251 30.9949 54.5689 31.3298C54.3647 31.5186 54.054 31.7569 53.6302 31.6738C53.215 31.5924 53.0173 31.2544 52.9079 31.0041C52.9079 31.0041 52.9079 31.0041 52.9096 30.9956C52.7047 30.5594 52.6673 30.0769 52.7754 29.526C52.8867 28.9582 53.1036 28.5255 53.4495 28.1974C53.6217 28.0375 53.8716 27.8401 54.2053 27.8439Z" fill="black"/>
<path d="M53.2326 34.5088C53.8852 34.6367 54.4194 34.8295 54.8421 35.0972C55.2648 35.3649 55.4521 35.6217 55.4039 35.8674C55.3557 36.1132 55.0854 36.2802 54.5928 36.3684C54.1003 36.4566 53.5328 36.4333 52.8803 36.3054C52.2362 36.1791 51.702 35.9863 51.2793 35.7186C50.8549 35.4594 50.6591 35.201 50.709 34.9467C50.7589 34.6925 51.0276 34.534 51.5286 34.4474C52.0126 34.3575 52.5801 34.3808 53.2326 34.5088Z" fill="#CF80A6"/>
<path d="M40.337 27.0956C40.465 26.4431 40.7256 25.9222 41.1357 25.5362C41.5559 25.1434 41.9906 24.991 42.4483 25.0807C42.9144 25.1721 43.2593 25.4774 43.4916 25.9982C43.7425 26.5138 43.7955 27.0962 43.6675 27.7488C43.5412 28.3928 43.2738 28.9036 42.8536 29.2964C42.4333 29.6893 41.9986 29.8416 41.5325 29.7502C41.0749 29.6605 40.7215 29.3536 40.4892 28.8328C40.2637 28.3221 40.2107 27.7397 40.337 27.0956ZM41.5724 25.9122C41.4487 25.9144 41.3389 25.9808 41.2445 26.1031C41.1501 26.2254 41.1032 26.3747 41.0886 26.539C41.0825 26.705 41.1185 26.8353 41.2019 26.9484C41.287 27.0531 41.3922 27.1002 41.5158 27.098C41.6395 27.0958 41.7493 27.0294 41.8352 26.9054C41.9296 26.7831 41.9765 26.6339 41.9894 26.478C41.9956 26.312 41.9612 26.1733 41.8761 26.0686C41.8028 25.9486 41.6976 25.9016 41.5724 25.9122Z" fill="black"/>
<path d="M41.2446 26.1031C41.339 25.9808 41.4488 25.9144 41.5725 25.9122C41.6893 25.8999 41.7928 25.9554 41.8779 26.0601C41.9613 26.1733 42.0058 26.3052 41.9912 26.4695C41.9766 26.6339 41.9314 26.7746 41.837 26.8969C41.7426 27.0192 41.6328 27.0857 41.5176 27.0895C41.394 27.0917 41.2888 27.0446 41.2037 26.9399C41.1203 26.8268 41.0842 26.6965 41.0904 26.5305C41.105 26.3662 41.1587 26.2271 41.2446 26.1031Z" fill="white"/>
<path d="M41.7951 30.2066C42.271 30.2031 42.7309 30.0117 43.1529 29.6104C43.6373 29.1598 43.9483 28.5607 44.0913 27.8319C44.2359 27.0946 44.1672 26.4123 43.8957 25.8223C43.602 25.1662 43.1415 24.7767 42.5398 24.6587C41.9381 24.5407 41.3647 24.7275 40.8449 25.224C40.369 25.6763 40.0579 26.2753 39.9133 27.0126C39.7704 27.7414 39.8322 28.4136 40.1105 29.0138C40.4043 29.6698 40.8562 30.0577 41.4579 30.1757C41.5681 30.1973 41.6884 30.2121 41.7951 30.2066ZM42.1924 25.4882C42.2449 25.4897 42.3058 25.4929 42.3652 25.5045C42.3652 25.5045 42.3652 25.5045 42.3736 25.5062C42.7974 25.5893 42.9951 25.9273 43.1061 26.169C43.311 26.6052 43.3483 27.0878 43.237 27.6556C43.1273 28.2149 42.9121 28.6391 42.556 28.9741C42.3518 29.1629 42.041 29.4012 41.6173 29.3181C41.202 29.2366 41.0043 28.8986 40.895 28.6484C40.895 28.6484 40.895 28.6484 40.8966 28.6399C40.6918 28.2037 40.6544 27.7212 40.7624 27.1703C40.8738 26.6025 41.0906 26.1698 41.4366 25.8416C41.6088 25.6818 41.8587 25.4844 42.1924 25.4882Z" fill="black"/>
<path d="M41.2114 32.1513C41.8639 32.2793 42.3982 32.4721 42.8209 32.7398C43.2436 33.0075 43.4309 33.2642 43.3827 33.51C43.3345 33.7558 43.0641 33.9228 42.5716 34.011C42.0791 34.0992 41.5116 34.0759 40.8591 33.948C40.215 33.8216 39.6723 33.6272 39.2496 33.3595C38.8252 33.1003 38.6294 32.8419 38.6793 32.5876C38.7291 32.3334 38.9978 32.1749 39.4988 32.0883C39.9998 32.0018 40.5673 32.025 41.2114 32.1513Z" fill="#CF80A6"/>
<path d="M31.5566 39.9786C32.5339 39.9756 33.4521 39.6882 34.3029 39.115C35.1234 38.5623 35.7296 37.8446 36.0912 36.9824C36.1867 36.7635 36.0872 36.5065 35.8666 36.4195C35.6477 36.3241 35.3907 36.4236 35.3037 36.6442C34.9989 37.3502 34.5055 37.9403 33.8269 38.3975C32.8647 39.0458 31.8478 39.2523 30.7119 39.0309C29.5761 38.8095 28.7112 38.2361 28.0629 37.2739C27.5972 36.5936 27.3616 35.8614 27.3444 35.0926C27.3381 34.8538 27.1458 34.6667 26.9155 34.6746L26.907 34.673C26.6683 34.6792 26.4812 34.8715 26.4874 35.1103C26.5072 36.0468 26.7995 36.9396 27.3523 37.7601C28.1234 38.9046 29.1989 39.6158 30.5467 39.8785C30.8858 39.9446 31.2229 39.9752 31.5566 39.9786Z" fill="black"/>
</g>
<path d="M57.4961 54.8439C58.0143 56.2257 58.3598 57.6334 58.5411 59.0843C58.6016 59.5506 58.6534 60.017 58.7052 60.4747C58.7829 61.0101 58.662 61.606 58.3425 62.2624C58.0489 62.7806 57.6516 63.2987 57.1766 63.7996C56.693 64.3092 56.2439 64.5683 55.838 64.5683C55.4235 64.5683 54.9744 64.3351 54.4735 63.8687C54.0071 63.4369 53.6617 63.0483 53.4458 62.7028C53.1003 62.1674 52.9017 61.6492 52.8412 61.1397C52.7376 59.9306 52.5131 58.7129 52.1763 57.4866C51.8394 56.2602 51.0967 54.913 49.9395 53.4448L54.5512 51.0872C55.933 52.0199 56.9089 53.2721 57.4961 54.8439Z" fill="#6FBBEE"/>
<path d="M55.838 65C56.3735 65 56.9176 64.7064 57.4876 64.1018C57.9971 63.5664 58.4116 63.0223 58.7225 62.4696C58.7312 62.4609 58.7312 62.4523 58.7312 62.4437C59.0939 61.7096 59.2234 61.0273 59.1371 60.4142C59.0853 59.9565 59.0334 59.4815 58.973 59.0237C58.783 57.547 58.4203 56.0874 57.9021 54.6884C57.2889 53.0475 56.2439 51.7089 54.7931 50.733C54.5944 50.6035 54.3267 50.6553 54.1972 50.8453C54.0676 51.0439 54.1194 51.3116 54.3094 51.4412C55.6049 52.3221 56.5462 53.5139 57.0989 54.9906C57.5998 56.3293 57.9453 57.7283 58.1266 59.136C58.1871 59.5937 58.2389 60.0687 58.2907 60.5264C58.2907 60.5351 58.2907 60.5351 58.2907 60.5437C58.3598 60.9842 58.2475 61.4937 57.9712 62.0637C57.6948 62.5473 57.3235 63.0309 56.8658 63.5146C56.4771 63.9291 56.123 64.145 55.838 64.145C55.5444 64.145 55.1731 63.9464 54.7672 63.5664C54.3353 63.1605 54.0072 62.7978 53.7999 62.4782C53.4976 62.0032 53.3076 61.5369 53.2558 61.1051C53.1436 59.8787 52.919 58.6265 52.5822 57.3829C52.2368 56.1047 51.4595 54.6884 50.2677 53.1857C50.1209 52.9957 49.8445 52.9698 49.6632 53.1166C49.4732 53.2634 49.4473 53.5398 49.5941 53.7211C50.7081 55.1375 51.4336 56.4502 51.7531 57.616C52.0813 58.8165 52.2972 60.0255 52.4008 61.2001C52.4008 61.2087 52.4008 61.2087 52.4008 61.2173C52.4699 61.7873 52.6945 62.3746 53.0745 62.9618C53.3249 63.3418 53.679 63.7564 54.1799 64.2141C54.7585 64.7323 55.3026 64.9914 55.838 65Z" fill="black"/>
<defs>
<clipPath id="clip0_173_98558">
<rect width="88.8311" height="57.6014" fill="white" transform="matrix(-1 0 0 1 88.8311 0)"/>
</clipPath>
</defs>
</svg>
