<svg width="89" height="66" viewBox="0 0 89 66" fill="none" xmlns="http://www.w3.org/2000/svg">
<g clip-path="url(#clip0_173_98431)">
<path d="M54.233 54.9508C54.7518 56.3398 55.0976 57.7548 55.2792 59.2132C55.3397 59.682 55.3916 60.1508 55.4435 60.6109C53.4721 60.4199 51.5094 60.637 49.564 61.2794C49.4602 60.064 49.2354 58.8399 48.8982 57.6072C48.561 56.3745 47.8174 55.0202 46.6588 53.5444L51.2846 51.1744C52.668 52.112 53.645 53.3708 54.233 54.9508Z" fill="#A87D4F"/>
<path d="M52.6681 66.1408C52.6335 66.1408 52.5989 66.1408 52.5557 66.1408C51.6391 66.1148 50.8523 65.7589 50.2211 65.073C49.9358 64.7692 49.7024 64.422 49.5381 64.0487C49.2355 63.9705 48.9761 63.8143 48.7599 63.5799C48.4573 63.2413 48.3103 62.842 48.3189 62.3906C48.3362 61.9304 48.5092 61.5485 48.8377 61.236C48.9242 61.1578 49.0107 61.0884 49.1058 61.0276C48.9934 59.9425 48.7858 58.8313 48.4832 57.7201C48.1633 56.5481 47.437 55.2286 46.3216 53.8048C46.1747 53.6138 46.2092 53.3447 46.3908 53.1972C46.581 53.0496 46.8491 53.0843 46.9961 53.2666C48.1893 54.7858 48.9674 56.2008 49.3219 57.4857C49.6591 58.7444 49.8839 60.0032 49.9963 61.2273C49.9963 61.262 49.9963 61.2967 49.9963 61.3314C49.9877 61.3922 49.9618 61.453 49.9272 61.5051C49.8926 61.5572 49.8493 61.6006 49.7888 61.6353C49.7629 61.6526 49.7283 61.67 49.6937 61.6787C49.5986 61.7134 49.5121 61.7655 49.4343 61.8436L49.4257 61.8523C49.2614 61.9999 49.1836 62.1735 49.1749 62.3992C49.1663 62.6249 49.2355 62.8159 49.3911 62.9809C49.5208 63.1198 49.6851 63.1979 49.8926 63.2239C50.0569 63.2413 50.1952 63.3542 50.2557 63.5104C50.3854 63.8664 50.5756 64.1876 50.8437 64.4654C51.3192 64.9776 51.8899 65.238 52.5729 65.2554C53.2647 65.2727 53.8526 65.0557 54.3541 64.5782C54.8556 64.1008 55.1063 63.5365 55.1323 62.8507V62.842C55.1409 62.7031 55.1323 62.5642 55.115 62.4426C55.115 62.4253 55.115 62.4166 55.115 62.3992C55.0804 61.8002 55.0458 61.2099 55.0112 60.6369C54.9593 60.1768 54.9075 59.7081 54.8469 59.248C54.6654 57.8329 54.3195 56.4352 53.818 55.081C53.2647 53.5965 52.3308 52.3985 51.0253 51.513C50.8264 51.3828 50.7745 51.105 50.9128 50.914C51.0425 50.7143 51.3192 50.6622 51.5094 50.8011C52.9793 51.7995 54.0255 53.1451 54.6394 54.7945C55.1669 56.2095 55.5214 57.668 55.7116 59.1525C55.7721 59.6212 55.824 60.0987 55.8759 60.5588V60.5675C55.8759 60.5762 55.8759 60.5762 55.8759 60.5849C55.9191 61.1578 55.9537 61.7481 55.9796 62.3471C56.0055 62.5208 56.0142 62.7031 56.0055 62.8941C55.9796 63.8143 55.6251 64.5956 54.9593 65.2293C54.3195 65.837 53.55 66.1408 52.6681 66.1408Z" fill="black"/>
<path d="M53.5359 61.2819C53.4668 59.3026 53.2852 57.2712 52.9826 55.1877C52.4811 52.9566 51.5559 51.0641 50.1898 49.5015C49.0571 48.2167 47.6305 47.1489 45.9012 46.3242C44.6043 45.6992 43.2122 45.3085 41.7423 45.1609H41.7337C41.7164 45.1609 41.6991 45.1522 41.6731 45.1522C41.6126 45.1522 41.5434 45.1436 41.4829 45.1436H41.2581C41.2408 45.1436 41.2235 45.1436 41.2062 45.1436H41.0852C41.0593 45.1436 41.0247 45.1436 40.9987 45.1436H40.7134C40.6875 45.1436 40.6529 45.1436 40.6183 45.1436H40.6096H40.5059C40.4713 45.1436 40.4367 45.1436 40.4108 45.1436C40.3157 45.1436 40.2292 45.1522 40.1341 45.1522C40.0995 45.1522 40.0649 45.1609 40.0303 45.1609C38.5432 45.3085 37.1338 45.6992 35.8109 46.3329C31.9979 48.1559 29.6374 51.1162 28.7296 55.1877C28.4269 57.2712 28.2454 59.2939 28.1762 61.2819C28.0638 67.272 31.9546 70.3538 39.8315 70.5361C39.8747 70.5361 39.9266 70.5361 39.9698 70.5361L40.4367 70.5448C40.4627 70.5448 40.4972 70.5448 40.5318 70.5448H40.6096C40.6183 70.5448 40.6183 70.5448 40.6183 70.5448H40.7134C40.7393 70.5448 40.7566 70.5448 40.7826 70.5448H41.0333C41.0506 70.5448 41.0679 70.5448 41.0765 70.5448C41.0765 70.5448 41.0852 70.5448 41.0938 70.5448C41.1457 70.5448 41.2062 70.5448 41.2581 70.5448L41.725 70.5361C41.7683 70.5361 41.8201 70.5361 41.8634 70.5361C49.7575 70.3538 53.6397 67.272 53.5359 61.2819Z" fill="#A87D4E"/>
<path d="M41.2668 70.9789H40.4454H40.4368L39.9699 70.9702H39.8315H39.8229C37.8256 70.9268 36.0531 70.6924 34.5573 70.2757C33.0355 69.8503 31.7558 69.2339 30.7442 68.4266C28.695 66.8032 27.6921 64.3985 27.7526 61.2733V61.2646C27.8218 59.2766 28.0033 57.2105 28.3059 55.127C28.3059 55.1183 28.3059 55.1096 28.3146 55.0922C28.7815 53.0001 29.6288 51.1683 30.848 49.6404C32.0671 48.1212 33.6753 46.8711 35.6294 45.9249C36.9869 45.2651 38.4568 44.8571 39.9872 44.7095H39.9958C40.0304 44.7095 40.065 44.7008 40.0909 44.7008C40.0996 44.7008 40.1082 44.7008 40.1169 44.7008L40.3762 44.6922C40.4108 44.6922 40.4541 44.6835 40.4973 44.6835H41.2063C41.2322 44.6835 41.2668 44.6835 41.2928 44.6922L41.5003 44.7008C41.5089 44.7008 41.5089 44.7008 41.5176 44.7008C41.5435 44.7008 41.5694 44.7008 41.604 44.7008C41.6473 44.7008 41.6905 44.7095 41.7337 44.7095C41.751 44.7095 41.777 44.7182 41.7942 44.7182C43.3074 44.8745 44.7513 45.2738 46.0915 45.9249C47.864 46.7756 49.3512 47.8868 50.5098 49.2151C51.9191 50.8211 52.8962 52.8004 53.4063 55.0922C53.4063 55.1009 53.4149 55.1096 53.4149 55.127C53.7176 57.2105 53.9078 59.2766 53.9683 61.2646V61.2733C54.0202 64.3985 53.0172 66.8032 50.968 68.4266C49.9564 69.2339 48.6681 69.8503 47.155 70.2757C45.6592 70.6924 43.8867 70.9268 41.8894 70.9702H41.8807H41.7424L41.2668 70.9789C41.2755 70.9789 41.2755 70.9789 41.2668 70.9789ZM40.4454 70.1107H41.2668L41.7337 70.1021H41.7424H41.8721C45.6938 70.0152 48.573 69.2166 50.4319 67.7494C51.3398 67.0289 52.0229 66.1261 52.4638 65.067C52.9134 63.9992 53.121 62.723 53.095 61.2993C53.0259 59.3547 52.8443 57.3233 52.5503 55.2745C52.0661 53.1303 51.1582 51.2899 49.8526 49.7967C48.7632 48.5553 47.3711 47.5222 45.7024 46.7149C44.4573 46.1159 43.1085 45.7339 41.6991 45.595C41.6905 45.595 41.6732 45.595 41.6646 45.595C41.6559 45.595 41.6386 45.595 41.63 45.5863C41.5694 45.5863 41.5176 45.5776 41.457 45.5776L41.2495 45.5603C41.2322 45.5603 41.2149 45.5603 41.1977 45.5603H40.5059C40.4887 45.5603 40.4714 45.5603 40.4541 45.5603C40.4454 45.5603 40.4368 45.5603 40.4281 45.5603L40.1601 45.569C40.1342 45.569 40.0996 45.5776 40.065 45.5776C38.6383 45.7165 37.2636 46.0985 36.0012 46.7062C34.1595 47.5917 32.6551 48.7636 31.5224 50.1787C30.3897 51.5937 29.5943 53.3039 29.1619 55.2659C28.868 57.3146 28.6777 59.3374 28.6172 61.2906C28.5913 62.7143 28.8074 63.9905 29.2484 65.0583C29.6894 66.1174 30.3724 67.0202 31.2803 67.7408C33.1393 69.2166 36.0185 70.0066 39.8402 70.0934H39.9699H39.9785L40.4454 70.1107Z" fill="black"/>
<path d="M41.2668 70.9789H40.4454H40.4368L39.9699 70.9702H39.8315H39.8229C37.8256 70.9268 36.0531 70.6924 34.5573 70.2757C33.0355 69.8503 31.7558 69.2339 30.7442 68.4266C28.695 66.8032 27.6921 64.3985 27.7526 61.2733V61.2646C27.8218 59.2766 28.0033 57.2105 28.3059 55.127C28.3059 55.1183 28.3059 55.1096 28.3146 55.0922C28.7815 53.0001 29.6288 51.1683 30.848 49.6404C32.0671 48.1212 33.6753 46.8711 35.6294 45.9249C36.9869 45.2651 38.4568 44.8571 39.9872 44.7095H39.9958C40.0304 44.7095 40.065 44.7008 40.0909 44.7008C40.0996 44.7008 40.1082 44.7008 40.1169 44.7008L40.3762 44.6922C40.4108 44.6922 40.4541 44.6835 40.4973 44.6835H41.2063C41.2322 44.6835 41.2668 44.6835 41.2928 44.6922L41.5003 44.7008C41.5089 44.7008 41.5089 44.7008 41.5176 44.7008C41.5435 44.7008 41.5694 44.7008 41.604 44.7008C41.6473 44.7008 41.6905 44.7095 41.7337 44.7095C41.751 44.7095 41.777 44.7182 41.7942 44.7182C43.3074 44.8745 44.7513 45.2738 46.0915 45.9249C47.864 46.7756 49.3512 47.8868 50.5098 49.2151C51.9191 50.8211 52.8962 52.8004 53.4063 55.0922C53.4063 55.1009 53.4149 55.1096 53.4149 55.127C53.7176 57.2105 53.9078 59.2766 53.9683 61.2646V61.2733C54.0202 64.3985 53.0172 66.8032 50.968 68.4266C49.9564 69.2339 48.6681 69.8503 47.155 70.2757C45.6592 70.6924 43.8867 70.9268 41.8894 70.9702H41.8807H41.7424L41.2668 70.9789C41.2755 70.9789 41.2755 70.9789 41.2668 70.9789ZM40.4454 70.1107H41.2668L41.7337 70.1021H41.7424H41.8721C45.6938 70.0152 48.573 69.2166 50.4319 67.7494C51.3398 67.0289 52.0229 66.1261 52.4638 65.067C52.9134 63.9992 53.121 62.723 53.095 61.2993C53.0259 59.3547 52.8443 57.3233 52.5503 55.2745C52.0661 53.1303 51.1582 51.2899 49.8526 49.7967C48.7632 48.5553 47.3711 47.5222 45.7024 46.7149C44.4573 46.1159 43.1085 45.7339 41.6991 45.595C41.6905 45.595 41.6732 45.595 41.6646 45.595C41.6559 45.595 41.6386 45.595 41.63 45.5863C41.5694 45.5863 41.5176 45.5776 41.457 45.5776L41.2495 45.5603C41.2322 45.5603 41.2149 45.5603 41.1977 45.5603H40.5059C40.4887 45.5603 40.4714 45.5603 40.4541 45.5603C40.4454 45.5603 40.4368 45.5603 40.4281 45.5603L40.1601 45.569C40.1342 45.569 40.0996 45.5776 40.065 45.5776C38.6383 45.7165 37.2636 46.0985 36.0012 46.7062C34.1595 47.5917 32.6551 48.7636 31.5224 50.1787C30.3897 51.5937 29.5943 53.3039 29.1619 55.2659C28.868 57.3146 28.6777 59.3374 28.6172 61.2906C28.5913 62.7143 28.8074 63.9905 29.2484 65.0583C29.6894 66.1174 30.3724 67.0202 31.2803 67.7408C33.1393 69.2166 36.0185 70.0066 39.8402 70.0934H39.9699H39.9785L40.4454 70.1107Z" fill="black"/>
<path d="M41.7423 45.1609C41.6904 45.1522 41.6299 45.1436 41.578 45.1436C41.5521 45.1436 41.5175 45.1436 41.4916 45.1436C41.5521 45.1522 41.6213 45.1522 41.6818 45.1522C41.7077 45.1522 41.725 45.1522 41.7423 45.1609Z" fill="#A87D4F"/>
<path d="M45.5727 54.2762C44.3017 54.2762 43.2123 54.8405 42.3044 55.9604C41.4052 57.0803 40.9556 58.4259 40.9556 60.0058C40.9556 61.5858 41.4052 62.9314 42.3044 64.0513C43.2123 65.1712 44.3017 65.7354 45.5727 65.7354C46.8437 65.7354 47.9332 65.1712 48.8324 64.0513C49.7403 62.9314 50.1899 61.5858 50.1899 60.0058C50.1899 58.4259 49.7403 57.0716 48.8324 55.9604C47.9332 54.8405 46.8437 54.2762 45.5727 54.2762Z" fill="#D3CBB4"/>
<path d="M41.2668 70.9789H40.4454H40.4368L39.9699 70.9702H39.8315H39.8229C37.8256 70.9268 36.0531 70.6924 34.5573 70.2757C33.0355 69.8503 31.7558 69.2339 30.7442 68.4266C28.695 66.8032 27.6921 64.3985 27.7526 61.2733V61.2646C27.8218 59.2766 28.0033 57.2105 28.3059 55.127C28.3059 55.1183 28.3059 55.1096 28.3146 55.0922C28.7815 53.0001 29.6288 51.1683 30.848 49.6404C32.0671 48.1212 33.6753 46.8711 35.6294 45.9249C36.9869 45.2651 38.4568 44.8571 39.9872 44.7095H39.9958C40.0304 44.7095 40.065 44.7008 40.0909 44.7008C40.0996 44.7008 40.1082 44.7008 40.1169 44.7008L40.3762 44.6922C40.4108 44.6922 40.4541 44.6835 40.4973 44.6835H41.2063C41.2322 44.6835 41.2668 44.6835 41.2928 44.6922L41.5003 44.7008C41.5089 44.7008 41.5089 44.7008 41.5176 44.7008C41.5435 44.7008 41.5694 44.7008 41.604 44.7008C41.6646 44.7008 41.7164 44.7095 41.777 44.7095C41.8115 44.7095 41.8461 44.7182 41.8807 44.7269C43.3592 44.8831 44.7772 45.2912 46.0915 45.9249C48.0456 46.8711 49.6538 48.1212 50.8729 49.6404C52.092 51.1683 52.9394 53.0001 53.4149 55.0922C53.4149 55.1009 53.4236 55.1096 53.4236 55.127C53.7262 57.2105 53.9164 59.2766 53.9769 61.2646V61.2733C54.0288 64.3985 53.0259 66.8032 50.9767 68.4266C49.965 69.2339 48.6767 69.8503 47.1636 70.2757C45.6678 70.6924 43.8953 70.9268 41.898 70.9702H41.8894H41.751L41.2668 70.9789C41.2755 70.9789 41.2755 70.9789 41.2668 70.9789ZM40.4454 70.1107H41.2668L41.7337 70.1021H41.7424H41.8721C45.6938 70.0152 48.573 69.2166 50.4319 67.7494C51.3398 67.0289 52.0229 66.1261 52.4638 65.067C52.9134 63.9992 53.121 62.723 53.095 61.2993C53.0259 59.3547 52.8443 57.3233 52.5503 55.2745C52.1093 53.3213 51.3139 51.6111 50.1812 50.1874C49.0485 48.7636 47.5441 47.6004 45.7024 46.7149C44.4573 46.1159 43.1085 45.7339 41.6991 45.595C41.6905 45.595 41.6905 45.595 41.6818 45.595H41.6732C41.6646 45.595 41.6473 45.595 41.6386 45.5863C41.5781 45.5863 41.5262 45.5776 41.4657 45.5776L41.2495 45.5603C41.2322 45.5603 41.2149 45.5603 41.1977 45.5603H40.5059C40.4887 45.5603 40.4714 45.5603 40.4541 45.5603C40.4454 45.5603 40.4368 45.5603 40.4281 45.5603L40.1601 45.569C40.1342 45.569 40.0996 45.5776 40.065 45.5776C38.6383 45.7165 37.2636 46.0985 36.0012 46.7062C34.1595 47.5917 32.6551 48.7636 31.5224 50.1787C30.3897 51.5937 29.5943 53.3039 29.1619 55.2659C28.868 57.3146 28.6777 59.3374 28.6172 61.2906C28.5913 62.7143 28.8074 63.9905 29.2484 65.0583C29.6894 66.1174 30.3724 67.0202 31.2803 67.7408C33.1393 69.2166 36.0185 70.0066 39.8402 70.0934H39.9699H39.9785L40.4454 70.1107Z" fill="black"/>
<path d="M30.9007 54.9509C30.3819 56.3399 30.036 57.7549 29.8545 59.2134C29.7939 59.6821 29.7421 60.1509 29.6902 60.611C31.6616 60.4201 33.6243 60.6371 35.5697 61.2795C35.6735 60.0641 35.8983 58.8401 36.2355 57.6073C36.5727 56.3746 37.3163 55.0203 38.4749 53.5445L33.8491 51.1746C32.4657 52.1121 31.4886 53.3709 30.9007 54.9509Z" fill="#A87D4F"/>
<path d="M32.4656 66.1409C31.5923 66.1409 30.8228 65.8371 30.1743 65.2294C29.5086 64.5956 29.1541 63.8143 29.1281 62.8941C29.1195 62.7031 29.1281 62.5208 29.1541 62.3472C29.1886 61.7482 29.2232 61.1579 29.2578 60.5849V60.5762V60.5676C29.3097 60.0988 29.3616 59.63 29.4221 59.1612C29.6123 57.6767 29.9755 56.2096 30.4942 54.8032C31.1081 53.1538 32.1543 51.8082 33.6069 50.8272C33.8058 50.697 34.0738 50.7491 34.2035 50.9401C34.3332 51.1398 34.2813 51.4089 34.0911 51.5391C32.7942 52.4246 31.8517 53.6226 31.2984 55.1071C30.7969 56.4527 30.451 57.859 30.2694 59.2741C30.2089 59.7342 30.157 60.203 30.1052 60.6631C30.0619 61.236 30.0273 61.8263 30.0014 62.4253C30.0014 62.4427 30.0014 62.4514 30.0014 62.4688C29.9841 62.5903 29.9755 62.7292 29.9841 62.8681V62.8768C30.0014 63.5713 30.2608 64.1355 30.7623 64.613C31.2638 65.0905 31.8517 65.3075 32.5434 65.2901C33.2351 65.2728 33.7971 65.0123 34.2727 64.5002C34.5407 64.2224 34.7396 63.9011 34.8606 63.5452C34.9125 63.389 35.0595 63.2761 35.2238 63.2587C35.4313 63.2327 35.5956 63.1546 35.7253 63.0157C35.8809 62.842 35.9501 62.6597 35.9414 62.434C35.9328 62.2083 35.855 62.0347 35.6907 61.8871L35.6821 61.8784C35.6042 61.8003 35.5178 61.7482 35.4227 61.7135C35.3881 61.7048 35.3621 61.6874 35.3276 61.6701C35.2757 61.6354 35.2238 61.5919 35.1892 61.5399C35.1546 61.4878 35.1287 61.427 35.12 61.3576C35.1114 61.3228 35.1114 61.2881 35.12 61.2534C35.2324 60.0206 35.4572 58.7619 35.7945 57.5118C36.1403 56.227 36.9185 54.8032 38.1117 53.2927C38.2587 53.1017 38.5353 53.0757 38.7169 53.2233C38.9071 53.3708 38.9331 53.6486 38.7861 53.8309C37.6707 55.2547 36.9444 56.5742 36.6245 57.7462C36.3219 58.8487 36.1144 59.9599 36.002 61.0537C36.0971 61.1145 36.1835 61.1839 36.27 61.2621C36.5986 61.5746 36.7715 61.9566 36.7888 62.4167C36.7974 62.8681 36.6504 63.2674 36.3478 63.606C36.1317 63.8404 35.8723 63.9966 35.5696 64.0748C35.4054 64.4481 35.1719 64.7953 34.8866 65.0992C34.2554 65.7763 33.4686 66.1409 32.5521 66.1669C32.5348 66.1409 32.5002 66.1409 32.4656 66.1409Z" fill="black"/>
<path d="M34.7723 19.289C34.7446 19.0494 34.7497 18.796 34.793 18.5355C35.0574 17.0231 35.5016 15.5053 36.1188 13.9872C36.2796 13.5947 36.5164 13.2749 36.8242 13.0211C37.1303 12.7794 37.4519 12.6453 37.8013 12.6206C38.9634 12.5688 40.0806 12.9198 41.1546 13.6615C41.4192 13.8417 41.6163 14.1053 41.753 14.4472C41.8845 14.782 41.9191 15.1466 41.869 15.5424C41.6945 17.1606 41.2866 18.727 40.6383 20.2469C40.5536 20.4518 40.4481 20.629 40.3219 20.7785L34.7723 19.289Z" fill="#A87D4F"/>
<path d="M40.3202 21.2246C40.2217 21.223 40.1265 21.1971 40.0435 21.1295C39.855 20.9787 39.8325 20.7027 39.9881 20.5202C40.0849 20.4038 40.1679 20.2544 40.2405 20.0911C40.8698 18.6181 41.2743 17.0761 41.4419 15.5065C41.4764 15.1766 41.4556 14.8884 41.3518 14.6195C41.2532 14.3575 41.1079 14.1632 40.9108 14.0298C39.9215 13.3436 38.8804 13.0219 37.8307 13.0649C37.5696 13.0774 37.3275 13.1732 37.0906 13.3627C36.8382 13.5748 36.6531 13.8337 36.5148 14.1551C35.9098 15.6314 35.4741 17.1319 35.2218 18.6026C35.1838 18.8266 35.1839 19.0436 35.2046 19.245C35.2323 19.4845 35.0594 19.7017 34.8277 19.7246C34.589 19.7527 34.3729 19.5793 34.3503 19.3467C34.3157 19.069 34.3261 18.7791 34.3762 18.47C34.3762 18.47 34.3762 18.47 34.3779 18.4579C34.6337 16.9194 35.09 15.3599 35.7158 13.8245C35.9112 13.3624 36.1879 12.9802 36.5441 12.6898C36.5441 12.6898 36.5441 12.6898 36.551 12.6846C36.921 12.3838 37.3395 12.2201 37.7753 12.1952C37.7753 12.1952 37.7822 12.19 37.7874 12.197C39.0377 12.1329 40.25 12.5098 41.4018 13.3122C41.7391 13.5461 41.9951 13.8739 42.1577 14.2938C42.3047 14.6929 42.3601 15.1286 42.2996 15.5974C42.12 17.2521 41.6982 18.8723 41.0395 20.4217C40.9375 20.6614 40.8079 20.8785 40.6592 21.0558C40.5744 21.1739 40.4499 21.2245 40.3202 21.2246Z" fill="black"/>
<path d="M71.6892 25.158C70.9023 23.795 69.9599 22.597 68.8445 21.5553C67.7205 20.5135 66.5014 19.6801 65.1698 19.0638C63.8037 18.4387 62.3943 18.0654 60.9418 17.9612C56.731 17.6314 52.4856 17.4491 48.2057 17.4317C48.0587 17.4317 47.9117 17.4317 47.7647 17.4317C44.263 17.423 40.7439 17.5185 37.1902 17.7182C35.2016 17.8223 33.3513 18.3866 31.6479 19.411C30.9735 19.819 30.3423 20.2791 29.763 20.8C28.9243 21.5466 28.1808 22.406 27.5236 23.387C26.3996 25.0538 25.6474 26.9203 25.2583 28.969C24.8519 31.1046 24.8692 33.2749 25.3102 35.4799C25.4831 36.3133 25.656 37.138 25.8376 37.9541C28.8898 48.9184 37.1989 52.8076 50.7477 49.6216L53.5924 48.875C53.8085 48.8143 54.016 48.7622 54.2322 48.7014C55.9528 48.2326 57.6648 47.7291 59.3854 47.2082C69.7697 44.1959 74.5943 39.0392 73.8767 31.7296C73.7383 31.0438 73.5914 30.3493 73.4271 29.6548C73.0726 28.0488 72.4933 26.5556 71.6892 25.158Z" fill="#A87D4F"/>
<path d="M42.404 51.1321C42.1186 51.1321 41.842 51.1235 41.5653 51.1148C38.7898 51.028 36.2996 50.4724 34.1813 49.4827C32.0543 48.4844 30.2386 47.0172 28.7773 45.1074C27.3334 43.2149 26.2094 40.8449 25.4312 38.0669C25.4312 38.0582 25.4312 38.0495 25.4225 38.0495C25.241 37.2335 25.0594 36.4001 24.8865 35.5754C24.4282 33.327 24.4109 31.0785 24.8259 28.8909C25.2237 26.79 26.0105 24.8628 27.1518 23.1526C27.8262 22.1456 28.6044 21.2514 29.4604 20.4875C30.0656 19.9492 30.7228 19.4631 31.4145 19.0464C33.1783 17.9873 35.1151 17.3969 37.1643 17.2841C40.7093 17.0844 44.2802 16.9889 47.7647 16.9976C47.9117 16.9976 48.0587 16.9976 48.2057 16.9976C52.477 17.015 56.7742 17.1973 60.9763 17.5272C62.4721 17.64 63.942 18.022 65.3427 18.6731C66.7088 19.3068 67.9799 20.1749 69.1298 21.2427C70.2711 22.3018 71.2568 23.5519 72.0523 24.9409C72.8737 26.3646 73.4789 27.9099 73.8594 29.5333C74.0237 30.2365 74.1706 30.9396 74.309 31.6255C74.309 31.6428 74.3176 31.6515 74.3176 31.6689C74.4992 33.5527 74.3263 35.315 73.7988 36.9297C73.2628 38.5444 72.3636 40.0375 71.1185 41.3658C69.8821 42.6853 68.2738 43.8833 66.3457 44.9164C64.4262 45.9494 62.1263 46.8523 59.5151 47.6076C57.8031 48.1284 56.0652 48.6319 54.3532 49.1007C54.1371 49.1615 53.9209 49.2223 53.7047 49.283L50.8601 50.0383H50.8514C47.7906 50.7675 44.946 51.1321 42.404 51.1321ZM26.2612 37.8412C27.0048 40.5063 28.0856 42.7808 29.4604 44.5778C30.8352 46.3661 32.5385 47.7551 34.5444 48.6927C36.559 49.639 38.9281 50.1598 41.5912 50.2466C44.2716 50.3335 47.3237 49.9775 50.6526 49.1962L53.4886 48.4496C53.6961 48.3975 53.9123 48.3368 54.1284 48.276C55.8404 47.8072 57.5697 47.3037 59.273 46.7828C59.273 46.7828 59.273 46.7828 59.2816 46.7828C61.8323 46.0449 64.0804 45.1595 65.9393 44.1524C67.7896 43.1541 69.32 42.0169 70.4959 40.7668C71.6546 39.5254 72.4933 38.145 72.9861 36.6519C73.4789 35.1674 73.6432 33.518 73.4703 31.773C73.3406 31.0959 73.1936 30.4101 73.0293 29.7329C72.6662 28.1877 72.0955 26.7292 71.3173 25.375C70.5565 24.0554 69.6313 22.8835 68.5505 21.8765C67.4697 20.8694 66.2679 20.0534 64.9882 19.4631C63.674 18.8641 62.3079 18.4995 60.9158 18.3953C56.731 18.0654 52.4597 17.8918 48.2057 17.8657C48.0587 17.8657 47.9117 17.8657 47.7647 17.8657C44.2889 17.8571 40.7439 17.9525 37.2162 18.1522C35.3053 18.2564 33.5069 18.8033 31.8727 19.7843C31.2242 20.1749 30.6104 20.6264 30.0483 21.1299C29.2442 21.8504 28.5093 22.6925 27.8781 23.6387C26.7973 25.2448 26.0624 27.0678 25.6819 29.0471C25.2842 31.1133 25.3015 33.2488 25.7338 35.3931C25.9067 36.2091 26.0797 37.0338 26.2612 37.8412Z" fill="black"/>
<path d="M70.9542 30.6618C70.5046 28.3439 69.3979 26.5035 67.634 25.1406C65.8702 23.7863 63.9593 23.3001 61.9101 23.6995C59.8609 24.0988 58.2787 25.2621 57.146 27.1806C56.0133 29.0992 55.6761 31.2261 56.1171 33.544C56.1862 33.9173 56.2814 34.2819 56.3851 34.6291C56.9385 36.4522 57.9587 37.928 59.4286 39.0652C59.8955 39.4211 60.3624 39.7163 60.8466 39.9507C62.2041 40.6105 63.6394 40.7928 65.1525 40.4976C66.5964 40.2198 67.8156 39.56 68.8013 38.5183C69.0347 38.2839 69.2509 38.0235 69.4497 37.7457C69.614 37.52 69.7783 37.2769 69.9253 37.0165C71.058 35.1066 71.4038 32.9797 70.9542 30.6618Z" fill="#4E4943"/>
<path d="M42.404 51.1321C42.1186 51.1321 41.842 51.1235 41.5653 51.1148C38.7898 51.028 36.2996 50.4724 34.1813 49.4827C32.0543 48.4844 30.2386 47.0172 28.7773 45.1074C27.3334 43.2149 26.2094 40.8449 25.4312 38.0669C25.4312 38.0582 25.4312 38.0495 25.4225 38.0495C25.241 37.2335 25.0594 36.4001 24.8865 35.5754C24.4282 33.327 24.4109 31.0785 24.8259 28.8909C25.2237 26.79 26.0105 24.8628 27.1518 23.1526C27.8262 22.1456 28.6044 21.2514 29.4604 20.4875C30.0656 19.9492 30.7228 19.4631 31.4145 19.0464C33.1783 17.9873 35.1151 17.3969 37.1643 17.2841C40.7093 17.0844 44.2802 16.9889 47.7647 16.9976C47.9117 16.9976 48.0587 16.9976 48.2057 16.9976C52.477 17.015 56.7742 17.1973 60.9763 17.5272C62.4721 17.64 63.942 18.022 65.3427 18.6731C66.7088 19.3068 67.9799 20.1749 69.1298 21.2427C70.2711 22.3018 71.2568 23.5519 72.0523 24.9409C72.8737 26.3646 73.4789 27.9099 73.8594 29.5333C74.0237 30.2365 74.1706 30.9396 74.309 31.6255C74.309 31.6428 74.3176 31.6515 74.3176 31.6689C74.4992 33.5527 74.3263 35.315 73.7988 36.9297C73.2628 38.5444 72.3636 40.0375 71.1185 41.3658C69.8821 42.6853 68.2738 43.8833 66.3457 44.9164C64.4262 45.9494 62.1263 46.8523 59.5151 47.6076C57.8031 48.1284 56.0652 48.6319 54.3532 49.1007C54.1371 49.1615 53.9209 49.2223 53.7047 49.283L50.8601 50.0383H50.8514C47.7906 50.7675 44.946 51.1321 42.404 51.1321ZM26.2612 37.8412C27.0048 40.5063 28.0856 42.7808 29.4604 44.5778C30.8352 46.3661 32.5385 47.7551 34.5444 48.6927C36.559 49.639 38.9281 50.1598 41.5912 50.2466C44.2716 50.3335 47.3237 49.9775 50.6526 49.1962L53.4886 48.4496C53.6961 48.3975 53.9123 48.3368 54.1284 48.276C55.8404 47.8072 57.5697 47.3037 59.273 46.7828C59.273 46.7828 59.273 46.7828 59.2816 46.7828C61.8323 46.0449 64.0804 45.1595 65.9393 44.1524C67.7896 43.1541 69.32 42.0169 70.4959 40.7668C71.6546 39.5254 72.4933 38.145 72.9861 36.6519C73.4789 35.1674 73.6432 33.518 73.4703 31.773C73.3406 31.0959 73.1936 30.4101 73.0293 29.7329C72.6662 28.1877 72.0955 26.7292 71.3173 25.375C70.5565 24.0554 69.6313 22.8835 68.5505 21.8765C67.4697 20.8694 66.2679 20.0534 64.9882 19.4631C63.674 18.8641 62.3079 18.4995 60.9158 18.3953C56.731 18.0654 52.4597 17.8918 48.2057 17.8657C48.0587 17.8657 47.9117 17.8657 47.7647 17.8657C44.2889 17.8571 40.7439 17.9525 37.2162 18.1522C35.3053 18.2564 33.5069 18.8033 31.8727 19.7843C31.2242 20.1749 30.6104 20.6264 30.0483 21.1299C29.2442 21.8504 28.5093 22.6925 27.8781 23.6387C26.7973 25.2448 26.0624 27.0678 25.6819 29.0471C25.2842 31.1133 25.3015 33.2488 25.7338 35.3931C25.9067 36.2091 26.0797 37.0338 26.2612 37.8412Z" fill="black"/>
<path d="M61.6232 29.7637C61.5886 29.5728 61.4849 29.4165 61.3206 29.3123C61.1563 29.1995 60.9834 29.1647 60.7932 29.2081C60.6029 29.2429 60.4473 29.347 60.3435 29.5033C60.2398 29.6596 60.1966 29.8419 60.2398 30.0329C60.283 30.2238 60.3781 30.3801 60.5338 30.4843C60.698 30.5971 60.871 30.6319 61.0612 30.5971C61.2514 30.5624 61.407 30.4582 61.5108 30.2933C61.6232 30.137 61.6578 29.9547 61.6232 29.7637ZM66.5862 28.8001C66.5516 28.6091 66.4479 28.4529 66.2836 28.3487C66.1193 28.2358 65.9464 28.2011 65.7475 28.2445C65.5573 28.2793 65.4017 28.3834 65.2979 28.5397C65.1941 28.6959 65.1509 28.8783 65.1941 29.0692C65.2287 29.2602 65.3325 29.4165 65.4881 29.5207C65.6524 29.6335 65.8253 29.6682 66.0155 29.6335C66.2058 29.5988 66.3614 29.4946 66.4652 29.3297C66.5862 29.1647 66.6294 28.9911 66.5862 28.8001Z" fill="black"/>
<path d="M60.9142 31.0485C60.6894 31.0485 60.4732 30.979 60.2744 30.8488C60.0236 30.6752 59.8594 30.4234 59.7988 30.1196C59.7383 29.8158 59.7988 29.5119 59.9718 29.2602C60.1447 29.0084 60.3954 28.8348 60.6981 28.774C61.0007 28.7132 61.2947 28.774 61.554 28.9476C61.8134 29.1213 61.9777 29.373 62.0382 29.6769C62.0988 29.9807 62.0382 30.2845 61.8567 30.5363C61.6837 30.7967 61.433 30.9617 61.1304 31.0224C61.0612 31.0398 60.992 31.0485 60.9142 31.0485ZM60.9315 29.6161C60.9142 29.6161 60.8883 29.6161 60.871 29.6248C60.7932 29.6421 60.7413 29.6769 60.6894 29.7376C60.6462 29.8071 60.6375 29.8678 60.6548 29.946C60.6721 30.0241 60.7067 30.0762 60.7672 30.1283C60.7672 30.1283 60.7672 30.1283 60.7759 30.1283C60.845 30.1717 60.8969 30.1891 60.9747 30.1717C61.0526 30.1543 61.1044 30.1196 61.1477 30.0502C61.1477 30.0502 61.1477 30.0415 61.1563 30.0415C61.1995 29.972 61.2168 29.9199 61.1995 29.8418C61.1823 29.7637 61.1477 29.7116 61.0785 29.6682C61.0266 29.6335 60.9834 29.6161 60.9315 29.6161ZM65.8859 30.0849C65.6611 30.0849 65.4449 30.0154 65.246 29.8852C64.9953 29.7116 64.831 29.4598 64.7705 29.156C64.71 28.8521 64.7705 28.5483 64.9434 28.2965C65.1163 28.0448 65.3671 27.8712 65.6697 27.8104C65.9723 27.7496 66.2663 27.8104 66.5257 27.984C66.7851 28.1576 66.9494 28.4094 67.0099 28.7132C67.0704 29.0171 67.0099 29.3209 66.8283 29.5727C66.6554 29.8331 66.4046 29.9981 66.102 30.0588C66.0329 30.0762 65.955 30.0849 65.8859 30.0849ZM65.9032 28.6525C65.8859 28.6525 65.8599 28.6525 65.8426 28.6612C65.7648 28.6785 65.7129 28.7132 65.6611 28.774C65.6178 28.8435 65.6005 28.9042 65.6178 28.9824C65.6351 29.0605 65.6697 29.1126 65.7302 29.1647C65.7994 29.2081 65.8513 29.2254 65.9291 29.2081C66.0069 29.1907 66.0588 29.156 66.102 29.0865C66.102 29.0865 66.102 29.0779 66.1107 29.0779C66.1539 29.0084 66.1712 28.9563 66.1539 28.8782C66.1366 28.8001 66.102 28.748 66.0329 28.7046C65.9983 28.6698 65.955 28.6525 65.9032 28.6525Z" fill="black"/>
<path d="M30.4817 22.2051C30.3606 21.9968 30.205 21.7971 30.0148 21.6148C28.8994 20.5644 27.637 19.6181 26.2363 18.7761C25.8732 18.559 25.4927 18.4462 25.095 18.4288C24.7059 18.4201 24.3687 18.5069 24.0747 18.7066C23.115 19.3664 22.4319 20.3126 22.0169 21.554C21.9131 21.8579 21.9131 22.1878 22.0169 22.5437C22.112 22.891 22.3022 23.2035 22.5789 23.4986C23.6856 24.688 24.948 25.695 26.3747 26.5197C26.5649 26.6326 26.7551 26.7107 26.9453 26.7541L30.4817 22.2051Z" fill="#A87D4F"/>
<path d="M26.9452 27.1968C26.9107 27.1968 26.8761 27.1968 26.8415 27.1881C26.608 27.1361 26.3832 27.0406 26.1584 26.9103C24.7058 26.0683 23.3916 25.0265 22.2676 23.8112C21.939 23.4639 21.7142 23.0819 21.5932 22.6739C21.4721 22.2312 21.4721 21.8145 21.6018 21.4325C22.0514 20.0869 22.795 19.0538 23.8326 18.342C23.8326 18.342 23.8412 18.342 23.8412 18.3333C24.213 18.0902 24.6367 17.9774 25.1122 17.9861C25.1122 17.9861 25.1122 17.9861 25.1209 17.9861C25.5878 18.0034 26.0374 18.1423 26.461 18.3941C27.879 19.2448 29.176 20.2171 30.3087 21.2849C30.3087 21.2849 30.3087 21.2849 30.3173 21.2936C30.5335 21.5106 30.7237 21.7363 30.862 21.9794C30.9831 22.1878 30.9139 22.4482 30.7064 22.5697C30.4989 22.6913 30.2395 22.6218 30.1185 22.4135C30.0147 22.2399 29.885 22.0749 29.7207 21.91C28.6313 20.9029 27.3862 19.9654 26.0201 19.1493C25.7175 18.9757 25.4062 18.8802 25.0863 18.8629C24.7923 18.8542 24.5329 18.9236 24.3168 19.0625C23.4435 19.6615 22.8123 20.547 22.4232 21.6929C22.354 21.9186 22.354 22.1617 22.4232 22.4308C22.501 22.7086 22.648 22.9604 22.8815 23.1948C23.9536 24.3407 25.1987 25.3304 26.5821 26.1377C26.7377 26.2245 26.8847 26.2853 27.0404 26.3287C27.2738 26.3895 27.4121 26.6239 27.3603 26.8496C27.317 27.0579 27.1355 27.1968 26.9452 27.1968Z" fill="black"/>
<path d="M36.1742 29.6026C36.047 28.9473 35.7866 28.4245 35.376 28.0375C34.9552 27.6436 34.5196 27.4913 34.0606 27.5822C33.593 27.6748 33.2466 27.982 33.0128 28.5055C32.7604 29.0238 32.7063 29.6089 32.8335 30.2642C32.9591 30.9109 33.2264 31.4235 33.6471 31.8174C34.0679 32.2112 34.5035 32.3636 34.9711 32.271C35.4301 32.1801 35.7765 31.8729 36.0103 31.3494C36.2457 30.8344 36.2998 30.2493 36.1742 29.6026ZM34.929 28.4176C35.0529 28.4196 35.163 28.4861 35.2574 28.6088C35.3519 28.7315 35.3986 28.8813 35.413 29.0464C35.4189 29.2131 35.3825 29.344 35.2987 29.4578C35.2132 29.5631 35.1077 29.6105 34.9837 29.6086C34.8597 29.6066 34.7497 29.54 34.6638 29.4157C34.5693 29.293 34.5226 29.1432 34.5098 28.9866C34.5039 28.8199 34.5387 28.6805 34.6241 28.5752C34.7063 28.4529 34.8119 28.4055 34.929 28.4176Z" fill="black"/>
<path d="M35.2633 28.607C35.1689 28.4844 35.0589 28.4178 34.9349 28.4158C34.8178 28.4037 34.7139 28.4596 34.6284 28.5649C34.5446 28.6787 34.4998 28.8113 34.5142 28.9763C34.5285 29.1414 34.5736 29.2827 34.6681 29.4053C34.7625 29.528 34.8725 29.5946 34.988 29.5982C35.112 29.6002 35.2175 29.5528 35.303 29.4475C35.3868 29.3337 35.4232 29.2028 35.4173 29.0361C35.4045 28.8795 35.3493 28.7314 35.2633 28.607Z" fill="white"/>
<path d="M34.7073 32.7297C34.2301 32.727 33.7693 32.5354 33.3469 32.133C32.862 31.6811 32.551 31.0799 32.4089 30.3481C32.2651 29.6078 32.3349 28.9223 32.608 28.3292C32.9036 27.6698 33.3658 27.2778 33.9692 27.1584C34.5727 27.0389 35.1473 27.2256 35.6676 27.7235C36.1441 28.177 36.455 28.7782 36.5988 29.5186C36.741 30.2504 36.678 30.9256 36.398 31.529C36.1025 32.1884 35.6487 32.5787 35.0453 32.6981C34.9348 32.72 34.8142 32.7351 34.7073 32.7297ZM34.3163 27.991C34.2637 27.9926 34.2025 27.9959 34.143 28.0076C34.143 28.0076 34.143 28.0076 34.1345 28.0093C33.7096 28.0935 33.5108 28.4333 33.3992 28.6763C33.1931 29.1148 33.1549 29.5995 33.2656 30.1697C33.3747 30.7313 33.5898 31.1571 33.9463 31.493C34.1508 31.6823 34.4619 31.9211 34.8869 31.837C35.3033 31.7545 35.5021 31.4147 35.6121 31.1632C35.6121 31.1632 35.6121 31.1632 35.6104 31.1547C35.8165 30.7162 35.8547 30.2315 35.7473 29.6783C35.6365 29.1082 35.4198 28.6739 35.0734 28.3448C34.9011 28.1845 34.6508 27.9866 34.3163 27.991Z" fill="black"/>
<path d="M35.2884 34.6915C34.6347 34.8208 34.0994 35.0149 33.6757 35.284C33.252 35.5531 33.0641 35.8108 33.112 36.0572C33.1599 36.3036 33.4304 36.4706 33.9235 36.5584C34.4166 36.6461 34.9849 36.6219 35.6386 36.4926C36.2837 36.365 36.819 36.1709 37.2427 35.9018C37.6681 35.6412 37.8645 35.3818 37.815 35.1269C37.7654 34.872 37.4966 34.7134 36.995 34.6274C36.5104 34.538 35.9421 34.5622 35.2884 34.6915Z" fill="#CF80A6"/>
<path d="M48.2011 27.2345C48.0739 26.5793 47.8134 26.0565 47.4028 25.6694C46.9821 25.2756 46.5464 25.1232 46.0874 25.2142C45.6199 25.3067 45.2735 25.6139 45.0397 26.1374C44.7872 26.6558 44.7331 27.2409 44.8604 27.8961C44.986 28.5428 45.2532 29.0555 45.674 29.4493C46.0947 29.8432 46.5304 29.9955 46.9979 29.9029C47.4569 29.812 47.8119 29.5031 48.0456 28.9796C48.2726 28.4663 48.3267 27.8812 48.2011 27.2345ZM46.9643 26.0479C47.0883 26.0498 47.1983 26.1164 47.2928 26.2391C47.3872 26.3618 47.434 26.5116 47.4484 26.6766C47.4543 26.8434 47.4179 26.9743 47.3341 27.0881C47.2486 27.1934 47.143 27.2408 47.0191 27.2388C46.8951 27.2369 46.7851 27.1703 46.6991 27.0459C46.6047 26.9233 46.5579 26.7735 46.5452 26.6169C46.5393 26.4502 46.574 26.3108 46.6595 26.2055C46.7332 26.0848 46.8387 26.0374 46.9643 26.0479Z" fill="black"/>
<path d="M47.2902 26.239C47.1958 26.1163 47.0857 26.0497 46.9618 26.0478C46.8447 26.0356 46.7408 26.0916 46.6553 26.1968C46.5715 26.3107 46.5266 26.4432 46.541 26.6083C46.5554 26.7733 46.6005 26.9146 46.6949 27.0373C46.7894 27.16 46.8994 27.2266 47.0148 27.2302C47.1388 27.2322 47.2443 27.1847 47.3298 27.0795C47.4137 26.9657 47.45 26.8347 47.4441 26.668C47.4297 26.503 47.3761 26.3634 47.2902 26.239Z" fill="white"/>
<path d="M46.7341 30.3617C46.257 30.3589 45.7961 30.1674 45.3738 29.765C44.8888 29.3131 44.5779 28.7119 44.4357 27.9801C44.2919 27.2397 44.3618 26.5543 44.6349 25.9612C44.9304 25.3018 45.3927 24.9098 45.9961 24.7903C46.5995 24.6709 47.1741 24.8575 47.6945 25.3554C48.1709 25.809 48.4819 26.4102 48.6257 27.1505C48.7678 27.8824 48.7048 28.5576 48.4249 29.1609C48.1293 29.8203 47.6756 30.2106 47.0722 30.3301C46.9617 30.352 46.8411 30.367 46.7341 30.3617ZM46.3432 25.623C46.2905 25.6246 46.2294 25.6278 46.1699 25.6396C46.1699 25.6396 46.1699 25.6396 46.1614 25.6413C45.7364 25.7254 45.5377 26.0652 45.426 26.3082C45.2199 26.7467 45.1817 27.2315 45.2925 27.8016C45.4016 28.3632 45.6167 28.789 45.9732 29.1249C46.1776 29.3142 46.4888 29.5531 46.9137 29.4689C47.3302 29.3865 47.5289 29.0467 47.6389 28.7951C47.6389 28.7951 47.6389 28.7951 47.6373 28.7866C47.8434 28.3482 47.8816 27.8634 47.7741 27.3103C47.6634 26.7401 47.4467 26.3059 47.1003 25.9768C46.928 25.8165 46.6777 25.6186 46.3432 25.623Z" fill="black"/>
<path d="M47.3237 32.3213C46.67 32.4506 46.1347 32.6448 45.711 32.9139C45.2873 33.183 45.0994 33.4407 45.1473 33.6871C45.1952 33.9335 45.4657 34.1005 45.9588 34.1883C46.4519 34.276 47.0202 34.2518 47.6738 34.1225C48.319 33.9949 48.8628 33.7991 49.2865 33.53C49.7119 33.2694 49.9083 33.01 49.8587 32.7551C49.8092 32.5002 49.5403 32.3416 49.0387 32.2556C48.5372 32.1695 47.9688 32.1937 47.3237 32.3213Z" fill="#CF80A6"/>
<path d="M64.0528 36.6739C63.0758 36.6739 62.1333 36.318 61.26 35.6061C60.7845 35.2242 60.3781 34.7814 60.0495 34.2692C59.9198 34.0696 59.9717 33.8005 60.1706 33.6702C60.3694 33.54 60.6375 33.5921 60.7672 33.7918C61.0439 34.2172 61.3897 34.5991 61.7961 34.929C62.7299 35.6843 63.6983 35.9447 64.7445 35.7277C65.7907 35.5107 66.5689 34.8856 67.1309 33.8178C67.373 33.3577 67.5373 32.8716 67.6324 32.3594C67.6756 32.125 67.9004 31.9687 68.1339 32.0121C68.3673 32.0555 68.523 32.2812 68.4797 32.5156C68.3673 33.1146 68.1771 33.6876 67.8918 34.2258C67.2087 35.5193 66.2057 36.3093 64.9088 36.5784C64.6321 36.6392 64.3381 36.6739 64.0528 36.6739Z" fill="black"/>
</g>
<path d="M36.0953 61.3487C35.9742 61.2272 35.8272 61.1404 35.663 61.0883C33.7089 60.4459 31.7548 60.2289 29.7834 60.4199C29.7402 61.0015 29.7056 61.5918 29.6797 62.1995C29.6538 62.3558 29.6538 62.512 29.6624 62.6857C29.6883 63.493 29.991 64.1701 30.5703 64.7171C31.1582 65.2727 31.8586 65.5331 32.6627 65.507C33.4668 65.481 34.1499 65.1772 34.6946 64.5782C35.0058 64.2569 35.2306 63.8837 35.3776 63.467C35.6889 63.4322 35.9483 63.302 36.1472 63.085C36.372 62.8332 36.4844 62.5294 36.4757 62.1995C36.4757 61.8696 36.346 61.5831 36.0953 61.3487Z" fill="#4E4943"/>
<path d="M31.0026 54.7597C30.4838 56.1487 30.138 57.5638 29.9564 59.0222C29.8959 59.491 29.844 59.9598 29.7921 60.4199C31.7635 60.2289 33.7262 60.4459 35.6716 61.0883C35.7754 59.873 36.0002 58.6489 36.3374 57.4162C36.6746 56.1834 37.4182 54.8292 38.5768 53.3534L33.951 50.9834C32.5676 51.921 31.5906 53.1797 31.0026 54.7597Z" fill="#A87D4F"/>
<path d="M32.5675 65.9497C31.6943 65.9497 30.9247 65.6459 30.2763 65.0382C29.6105 64.4045 29.256 63.6232 29.23 62.703C29.2214 62.512 29.23 62.3297 29.256 62.156C29.2906 61.557 29.3252 60.9667 29.3597 60.3938V60.3851V60.3764C29.4116 59.9076 29.4635 59.4388 29.524 58.97C29.7142 57.4856 30.0774 56.0184 30.5962 54.6121C31.2101 52.9626 32.2563 51.6171 33.7089 50.6361C33.9077 50.5059 34.1758 50.558 34.3055 50.7489C34.4351 50.9486 34.3833 51.2177 34.1931 51.3479C32.8961 52.2334 31.9536 53.4314 31.4003 54.9159C30.8988 56.2615 30.5529 57.6679 30.3714 59.0829C30.3108 59.543 30.259 60.0118 30.2071 60.4719C30.1639 61.0449 30.1293 61.6352 30.1033 62.2342C30.1033 62.2515 30.1033 62.2602 30.1033 62.2776C30.086 62.3991 30.0774 62.538 30.086 62.6769V62.6856C30.1033 63.3801 30.3627 63.9444 30.8642 64.4218C31.3657 64.8993 31.9536 65.1163 32.6454 65.099C33.3371 65.0816 33.8991 64.8212 34.3746 64.309C34.6427 64.0312 34.8415 63.71 34.9626 63.3541C35.0145 63.1978 35.1614 63.0849 35.3257 63.0676C35.5332 63.0415 35.6975 62.9634 35.8272 62.8245C35.9828 62.6509 36.052 62.4686 36.0434 62.2429C36.0347 62.0172 35.9569 61.8435 35.7926 61.6959L35.784 61.6873C35.7062 61.6091 35.6197 61.557 35.5246 61.5223C35.49 61.5136 35.4641 61.4963 35.4295 61.4789C35.3776 61.4442 35.3257 61.4008 35.2911 61.3487C35.2566 61.2966 35.2306 61.2358 35.222 61.1664C35.2133 61.1317 35.2133 61.0969 35.222 61.0622C35.3344 59.8295 35.5592 58.5707 35.8964 57.3206C36.2422 56.0358 37.0204 54.6121 38.2136 53.1015C38.3606 52.9106 38.6373 52.8845 38.8188 53.0321C39.0091 53.1797 39.035 53.4575 38.888 53.6398C37.7726 55.0635 37.0463 56.383 36.7264 57.555C36.4238 58.6575 36.2163 59.7687 36.1039 60.8625C36.199 60.9233 36.2855 60.9928 36.3719 61.0709C36.7005 61.3834 36.8734 61.7654 36.8907 62.2255C36.8994 62.6769 36.7524 63.0763 36.4497 63.4148C36.2336 63.6492 35.9742 63.8055 35.6716 63.8836C35.5073 64.2569 35.2738 64.6042 34.9885 64.908C34.3573 65.5851 33.5705 65.9497 32.654 65.9758C32.6367 65.9497 32.6021 65.9497 32.5675 65.9497Z" fill="black"/>
<defs>
<clipPath id="clip0_173_98431">
<rect width="88.9355" height="59.1708" fill="white"/>
</clipPath>
</defs>
</svg>
