<svg width="265" height="164" viewBox="0 0 265 164" fill="none" xmlns="http://www.w3.org/2000/svg">
<rect x="43" y="1.5" width="161" height="161" rx="6.5" fill="url(#paint0_linear_135_230329)"/>
<rect x="43" y="1.5" width="161" height="161" rx="6.5" stroke="black" stroke-width="3"/>
<mask id="mask0_135_230329" style="mask-type:alpha" maskUnits="userSpaceOnUse" x="0" y="10" width="265" height="151">
<path d="M0.5 10.25H255.211L264.438 95.36L251.625 90.9688C232.535 88.9917 230.324 103.973 202.5 103.781V157C202.5 159.209 200.709 161 198.5 161H50.625C47.3113 161 44.625 158.314 44.625 155V129.658H0.5V98.7302V10.25Z" fill="black"/>
</mask>
<g mask="url(#mask0_135_230329)">
<path d="M166.197 130.27C166.059 130.23 165.642 130.23 164.969 130.25C163.998 130.25 163.185 130.23 162.551 130.211C159.896 130.111 157.319 129.733 154.823 129.057C151.374 128.121 148.045 126.609 144.815 124.48C143.765 123.784 142.774 123.068 141.882 122.351C141.863 122.332 141.843 122.312 141.823 122.292C141.149 121.735 140.713 121.337 140.515 121.078C140.713 121.317 141.149 121.715 141.823 122.292C141.843 122.312 141.863 122.332 141.882 122.351C141.942 122.073 142.061 121.615 142.219 120.998C142.516 119.844 143.111 118.83 144.003 117.954C144.657 117.298 145.529 116.681 146.619 116.064C147.213 115.726 148.045 115.288 149.115 114.751C149.868 114.293 150.304 113.836 150.423 113.398C150.641 112.602 150.285 111.866 149.373 111.15C148.62 110.553 147.649 110.115 146.5 109.817C145.192 109.459 143.824 109.419 142.378 109.677C140.991 109.916 139.683 110.414 138.434 111.15C137.206 111.886 136.175 112.761 135.323 113.816C134.451 114.93 133.876 116.104 133.639 117.318L133.579 117.517C134.233 117.755 134.927 118.034 135.62 118.352C134.907 118.034 134.233 117.755 133.579 117.517C126.921 115.169 122.205 117.139 119.331 123.466C118.697 125.217 118.439 126.49 118.598 127.246C118.776 128.101 119.113 128.599 119.628 128.738C119.945 128.818 120.52 128.718 121.333 128.46C121.848 128.3 122.74 127.982 124.028 127.524C126.762 126.669 129.2 126.53 131.32 127.087C132.192 127.326 132.965 127.743 133.658 128.36C134.194 128.838 134.828 129.594 135.541 130.608C135.957 131.205 136.671 132.24 137.681 133.732C138.692 135.085 139.742 136.359 140.872 137.513C142.616 139.323 144.201 140.795 145.608 141.93C147.669 143.561 149.809 144.894 152.048 145.889C153.931 146.725 156.348 147.779 159.321 149.033C159.836 149.232 160.272 149.43 160.629 149.61C160.926 149.391 161.203 149.192 161.481 148.973C162.908 147.859 164.097 146.705 165.028 145.451C166.316 143.76 167.267 141.77 167.882 139.462C168.437 137.353 168.456 135.264 167.941 133.235C167.743 132.419 167.465 131.723 167.109 131.166C166.831 130.668 166.514 130.35 166.197 130.27Z" fill="#6FBBEE"/>
<path d="M160.629 150.644C160.47 150.644 160.331 150.604 160.193 150.545C159.856 150.385 159.44 150.187 158.964 150.007H158.944C155.992 148.754 153.554 147.68 151.672 146.844C149.373 145.809 147.134 144.436 145.013 142.765C143.567 141.611 141.942 140.099 140.178 138.269C139.029 137.075 137.919 135.762 136.908 134.389L136.889 134.369C135.878 132.916 135.165 131.862 134.768 131.265C134.094 130.31 133.52 129.614 133.044 129.196C132.469 128.678 131.835 128.34 131.122 128.141C129.2 127.624 126.941 127.763 124.384 128.559C123.116 129.017 122.205 129.315 121.689 129.494C120.659 129.832 119.965 129.932 119.43 129.813C119.41 129.813 119.41 129.813 119.391 129.813C118.756 129.534 117.944 128.997 117.647 127.445C117.449 126.47 117.686 125.097 118.42 123.107C118.42 123.088 118.439 123.068 118.439 123.048C119.965 119.665 122.066 117.397 124.662 116.323C127 115.348 129.755 115.328 132.866 116.243C133.203 115.189 133.758 114.154 134.53 113.199C135.442 112.065 136.591 111.07 137.899 110.294C139.247 109.498 140.674 108.961 142.18 108.683C143.765 108.404 145.291 108.464 146.737 108.842C148.006 109.18 149.096 109.697 149.967 110.354C151.533 111.587 151.592 112.821 151.374 113.657C151.176 114.353 150.621 114.99 149.631 115.607C149.611 115.626 149.591 115.626 149.551 115.646C148.521 116.184 147.689 116.601 147.094 116.94C146.083 117.497 145.271 118.074 144.696 118.671C143.943 119.427 143.448 120.282 143.17 121.257C143.091 121.536 143.032 121.755 142.992 121.973C143.725 122.55 144.518 123.107 145.35 123.665C148.461 125.714 151.731 127.206 155.06 128.101C157.478 128.758 160.014 129.116 162.571 129.216C163.205 129.236 163.998 129.255 164.949 129.255C166.019 129.216 166.276 129.255 166.435 129.295H166.455C167.029 129.454 167.545 129.912 168 130.668C168.397 131.305 168.714 132.101 168.932 133.016C169.487 135.204 169.467 137.473 168.872 139.741C168.218 142.168 167.208 144.317 165.84 146.088C164.85 147.381 163.601 148.635 162.095 149.789C161.798 150.007 161.501 150.226 161.203 150.445C161.045 150.584 160.847 150.644 160.629 150.644ZM159.717 148.157C160.014 148.276 160.272 148.396 160.53 148.495C160.649 148.396 160.787 148.316 160.906 148.217C162.254 147.162 163.403 146.048 164.275 144.894C165.464 143.322 166.376 141.412 166.95 139.243C167.465 137.314 167.485 135.384 167.01 133.513C166.831 132.797 166.594 132.2 166.296 131.723C166.296 131.723 166.296 131.703 166.276 131.703C166.098 131.404 165.979 131.265 165.92 131.225C165.801 131.225 165.543 131.205 164.969 131.225H164.949C163.978 131.225 163.145 131.205 162.472 131.185C159.757 131.086 157.082 130.688 154.525 129.992C150.998 129.037 147.53 127.465 144.24 125.296C143.17 124.58 142.16 123.844 141.228 123.107C141.209 123.088 141.189 123.068 141.169 123.048C141.149 123.028 141.129 123.028 141.129 123.008C140.178 122.212 139.861 121.874 139.722 121.675C139.385 121.237 139.465 120.62 139.901 120.282C140.337 119.944 140.951 120.024 141.288 120.461C141.288 120.481 141.308 120.481 141.327 120.501C141.684 119.287 142.358 118.173 143.289 117.238C144.003 116.522 144.954 115.845 146.123 115.189C146.718 114.85 147.57 114.413 148.6 113.876C149.353 113.398 149.432 113.139 149.432 113.119C149.472 112.98 149.571 112.582 148.719 111.906C148.065 111.408 147.233 111.01 146.202 110.732C145.053 110.414 143.805 110.374 142.497 110.593C141.248 110.811 140.02 111.269 138.89 111.946C137.78 112.662 136.829 113.478 136.076 114.433C135.442 115.228 135.006 116.064 134.729 116.9C135.145 117.059 135.561 117.238 135.997 117.437C136.492 117.656 136.71 118.253 136.492 118.75C136.274 119.248 135.68 119.466 135.184 119.248C134.511 118.929 133.857 118.671 133.222 118.452C130.171 117.357 127.555 117.258 125.435 118.153C123.314 119.049 121.57 120.959 120.262 123.844C119.509 125.873 119.509 126.729 119.569 127.047C119.648 127.485 119.787 127.723 119.886 127.763C119.965 127.763 120.282 127.743 121.055 127.505C121.57 127.345 122.462 127.027 123.73 126.589C123.75 126.589 123.75 126.589 123.77 126.569C126.683 125.654 129.319 125.515 131.617 126.132C132.648 126.41 133.559 126.928 134.352 127.644C134.947 128.181 135.6 128.977 136.373 130.051C136.373 130.051 136.373 130.071 136.393 130.071C136.789 130.668 137.503 131.703 138.514 133.175C139.485 134.488 140.535 135.722 141.605 136.856C143.309 138.627 144.875 140.079 146.262 141.193C148.243 142.765 150.344 144.058 152.504 145.013C154.347 145.849 156.784 146.904 159.717 148.157Z" fill="black"/>
<path d="M187.372 157.241C187.273 158.614 187.273 159.848 187.352 160.942C187.867 163.37 188.68 165.439 189.75 167.15C190.84 168.861 192.009 169.657 193.237 169.498C194.486 169.358 195.734 168.662 196.983 167.409C198.211 166.155 199.262 164.683 200.114 162.952C200.253 162.693 200.371 162.434 200.49 162.176C201.243 160.405 201.818 158.754 202.214 157.261C202.868 153.68 203.265 150.258 203.423 147.015C203.463 145.92 203.483 145.224 203.483 144.926L188.997 143.931C189.056 147.313 188.521 151.77 187.372 157.241Z" fill="#6FBBEE"/>
<path d="M192.98 170.532C191.493 170.532 190.146 169.577 188.957 167.707C187.808 165.896 186.956 163.688 186.401 161.161C186.401 161.121 186.381 161.081 186.381 161.042C186.282 159.908 186.282 158.594 186.381 157.182C186.381 157.142 186.381 157.102 186.401 157.042C187.51 151.651 188.065 147.234 188.006 143.931C188.006 143.374 188.442 142.936 188.977 142.916C188.977 142.916 188.977 142.916 188.997 142.916C189.532 142.916 189.987 143.354 189.987 143.891C190.027 147.333 189.472 151.869 188.343 157.381C188.263 158.654 188.244 159.788 188.343 160.803C188.838 163.071 189.591 165.041 190.602 166.633C191.454 167.986 192.306 168.622 193.138 168.523C194.149 168.403 195.219 167.787 196.289 166.712C197.438 165.558 198.429 164.126 199.242 162.514V162.494C199.361 162.255 199.48 162.017 199.579 161.778C200.312 160.067 200.867 158.475 201.243 157.042C201.897 153.541 202.293 150.158 202.412 146.955C202.452 145.881 202.472 145.184 202.472 144.886C202.492 144.329 202.928 143.911 203.482 143.911C204.037 143.931 204.473 144.368 204.453 144.926C204.453 145.244 204.434 145.92 204.374 147.035C204.236 150.337 203.819 153.839 203.165 157.44C203.165 157.46 203.146 157.5 203.146 157.52C202.729 159.052 202.135 160.763 201.382 162.574C201.263 162.852 201.124 163.151 200.986 163.409C200.094 165.22 198.984 166.812 197.676 168.125C196.289 169.537 194.823 170.333 193.356 170.512C193.257 170.512 193.118 170.532 192.98 170.532Z" fill="black"/>
<path d="M211.458 115.264C212.647 118.448 213.44 121.691 213.856 125.033C213.994 126.108 214.113 127.182 214.232 128.237C214.411 129.47 214.133 130.843 213.4 132.355C212.726 133.549 211.815 134.743 210.725 135.897C209.615 137.071 208.584 137.668 207.653 137.668C206.702 137.668 205.671 137.13 204.522 136.056C203.452 135.061 202.679 134.166 202.164 133.37C201.371 132.136 200.915 130.943 200.777 129.769C200.539 126.983 200.024 124.178 199.251 121.353C198.478 118.527 196.774 115.423 194.118 112.041L204.7 106.609C207.871 108.758 210.11 111.643 211.458 115.264Z" fill="#6FBBEE"/>
<path d="M207.653 138.662C206.424 138.662 205.176 138.046 203.848 136.792C202.719 135.738 201.886 134.803 201.332 133.927C200.46 132.574 199.944 131.221 199.786 129.908C199.786 129.888 199.786 129.888 199.786 129.868C199.548 127.162 199.053 124.377 198.3 121.611C197.566 118.925 195.902 115.901 193.345 112.638C193.009 112.2 193.088 111.583 193.504 111.245C193.94 110.907 194.554 110.987 194.891 111.404C197.606 114.886 199.389 118.129 200.202 121.074C200.975 123.959 201.49 126.844 201.748 129.649C201.867 130.644 202.283 131.719 202.996 132.813C203.472 133.549 204.205 134.385 205.196 135.3C206.127 136.175 206.979 136.633 207.653 136.633C208.307 136.633 209.119 136.136 210.011 135.181C211.061 134.086 211.894 132.952 212.548 131.838C213.182 130.525 213.42 129.351 213.281 128.336C213.281 128.316 213.281 128.316 213.281 128.296C213.162 127.242 213.043 126.168 212.904 125.093C212.488 121.85 211.696 118.647 210.546 115.543C209.278 112.141 207.138 109.395 204.145 107.365C203.69 107.067 203.571 106.43 203.888 105.993C204.185 105.535 204.819 105.416 205.255 105.734C208.584 108.042 210.982 111.126 212.389 114.906C213.598 118.149 214.41 121.492 214.846 124.894C214.985 125.969 215.104 127.043 215.223 128.097C215.441 129.51 215.124 131.082 214.292 132.773C214.292 132.793 214.272 132.813 214.272 132.833C213.558 134.086 212.607 135.36 211.438 136.573C210.13 137.986 208.901 138.643 207.653 138.662Z" fill="black"/>
<path d="M182.831 92.8071C182.731 92.8071 182.632 92.7872 182.533 92.7872C182.593 92.7872 182.632 92.8071 182.692 92.8071C182.751 92.8071 182.791 92.8071 182.831 92.8071ZM182.533 92.7872H182.454C182.395 92.7872 182.315 92.7872 182.256 92.7872C182.395 92.8071 182.553 92.8071 182.692 92.8071C182.652 92.7872 182.593 92.7872 182.533 92.7872ZM193.155 95.8911C192.897 95.7518 192.62 95.6324 192.343 95.4931C189.37 94.0606 186.18 93.1653 182.811 92.827H182.791C182.751 92.827 182.712 92.8071 182.652 92.8071C182.514 92.8071 182.355 92.7872 182.216 92.7872H181.701C181.661 92.7872 181.622 92.7872 181.582 92.7872H181.305C181.245 92.7872 181.166 92.7872 181.107 92.7872H180.472C180.413 92.7872 180.334 92.7872 180.254 92.7872H180.235H179.997C179.918 92.7872 179.838 92.7872 179.779 92.7872C179.561 92.7872 179.363 92.8071 179.145 92.8071C179.085 92.8071 179.026 92.8071 178.966 92.8071C178.947 92.8071 178.927 92.8071 178.907 92.8071C176.271 93.0658 173.755 93.6627 171.337 94.5779C170.624 94.8565 169.93 95.1549 169.236 95.4931C160.497 99.6913 155.087 106.476 153.007 115.807C152.313 120.583 151.897 125.218 151.738 129.775C151.659 134.172 152.511 137.892 154.315 140.917C157.961 147.045 165.471 150.387 176.826 150.905C177.361 150.925 177.896 150.944 178.451 150.964C178.55 150.964 178.669 150.964 178.768 150.964L179.838 150.984C179.898 150.984 179.977 150.984 180.056 150.984H180.235C180.254 150.984 180.254 150.984 180.254 150.984H180.472C180.532 150.984 180.572 150.984 180.631 150.984H181.206C181.245 150.984 181.285 150.984 181.305 150.984C181.305 150.984 181.325 150.984 181.344 150.984C181.463 150.984 181.602 150.984 181.721 150.984L182.791 150.964C182.89 150.964 183.009 150.964 183.108 150.964C183.584 150.944 184.059 150.944 184.515 150.925L188.558 150.606L192.362 150.009C192.541 149.97 192.719 149.95 192.878 149.91C194.245 149.611 195.533 149.253 196.722 148.835C201.557 147.164 205.045 144.518 207.205 140.917C209.008 137.892 209.88 134.172 209.801 129.775C209.642 125.238 209.226 120.583 208.533 115.807C206.571 106.755 201.418 100.109 193.155 95.8911Z" fill="#6FBBEE"/>
<path d="M181.741 151.999H179.858H179.838L178.768 151.979H178.451H178.431C177.877 151.959 177.322 151.939 176.787 151.919C171 151.641 166.125 150.646 162.281 148.935C158.357 147.184 155.385 144.657 153.463 141.434C151.6 138.251 150.668 134.331 150.768 129.755V129.735C150.926 125.179 151.342 120.443 152.036 115.668C152.036 115.648 152.036 115.628 152.056 115.589C153.126 110.794 155.068 106.595 157.862 103.094C160.656 99.6117 164.342 96.7466 168.82 94.5779C169.534 94.2397 170.267 93.9213 171 93.6428C173.477 92.6878 176.093 92.071 178.808 91.8123H178.828H178.887C178.947 91.8123 179.006 91.8123 179.046 91.7924C179.066 91.7924 179.085 91.7924 179.105 91.7924L179.7 91.7725C179.779 91.7725 179.878 91.7526 179.977 91.7526H181.602C181.661 91.7526 181.741 91.7526 181.8 91.7725L182.276 91.7924C182.296 91.7924 182.296 91.7924 182.315 91.7924C182.375 91.7924 182.454 91.7924 182.514 91.7924H182.593H182.613H182.633C182.692 91.7924 182.751 91.8123 182.811 91.8123C182.85 91.8123 182.91 91.8322 182.95 91.8322C186.417 92.1903 189.727 93.1056 192.798 94.5978C193.076 94.7371 193.353 94.8764 193.631 95.0156C197.871 97.1844 201.359 100.03 204.015 103.452C206.67 106.874 208.533 110.973 209.563 115.608C209.563 115.628 209.583 115.648 209.583 115.688C210.277 120.463 210.713 125.199 210.851 129.755V129.775C210.931 134.351 210.019 138.27 208.117 141.454C205.857 145.274 202.152 148.079 197.099 149.81C195.87 150.228 194.522 150.606 193.135 150.905C192.957 150.945 192.779 150.984 192.62 151.004C192.6 151.004 192.6 151.004 192.58 151.004L188.776 151.601C188.756 151.601 188.716 151.601 188.696 151.601L184.674 151.919C184.654 151.919 184.634 151.919 184.634 151.919C184.158 151.939 183.683 151.939 183.207 151.959H183.187H182.87L181.741 151.999C181.761 151.999 181.761 151.999 181.741 151.999ZM179.858 150.009H181.741L182.811 149.989H182.831H183.128C183.584 149.97 184.059 149.97 184.515 149.95L188.478 149.631L192.244 149.034C192.402 148.995 192.561 148.975 192.719 148.935C194.027 148.656 195.295 148.298 196.445 147.9C201.042 146.329 204.391 143.802 206.412 140.399C208.117 137.534 208.929 133.973 208.87 129.775C208.711 125.318 208.295 120.662 207.621 115.967C206.65 111.629 204.906 107.809 202.449 104.626C199.972 101.442 196.702 98.7761 192.739 96.7466C192.481 96.6074 192.224 96.488 191.946 96.3487C189.093 94.9758 186.001 94.1004 182.771 93.7821C182.751 93.7821 182.712 93.7821 182.692 93.7821C182.672 93.7821 182.633 93.7821 182.613 93.7622C182.474 93.7622 182.355 93.7423 182.216 93.7423H181.701C181.661 93.7423 181.622 93.7423 181.582 93.7423H179.997C179.957 93.7423 179.918 93.7423 179.878 93.7423C179.858 93.7423 179.838 93.7423 179.819 93.7423L179.204 93.7622C179.165 93.7622 179.105 93.7622 179.046 93.7821H178.986C176.45 94.0208 174.012 94.5978 171.694 95.4932C171 95.7518 170.326 96.0503 169.653 96.3686C165.432 98.398 161.984 101.084 159.388 104.327C156.792 107.57 154.969 111.49 153.978 115.986C153.304 120.682 152.868 125.318 152.729 129.795C152.65 133.993 153.482 137.554 155.167 140.419C156.871 143.284 159.546 145.553 163.074 147.124C166.7 148.736 171.337 149.691 176.866 149.95C177.381 149.97 177.916 149.989 178.451 150.009H178.748H178.768H179.858Z" fill="black"/>
<path d="M182.454 92.7872C182.395 92.7872 182.315 92.7872 182.256 92.7872C182.395 92.8071 182.553 92.8071 182.692 92.8071C182.751 92.8071 182.791 92.827 182.85 92.827V92.8071C182.712 92.7872 182.593 92.7872 182.454 92.7872Z" fill="#A87D4F"/>
<path d="M193.155 95.8911C192.897 95.7518 192.62 95.6324 192.343 95.4931C189.37 94.0606 186.18 93.1653 182.811 92.827H182.791C182.751 92.827 182.712 92.8071 182.652 92.8071C182.514 92.8071 182.355 92.7872 182.216 92.7872H181.701C181.661 92.7872 181.622 92.7872 181.582 92.7872H181.305C181.245 92.7872 181.166 92.7872 181.107 92.7872H180.472C180.413 92.7872 180.334 92.7872 180.254 92.7872H180.235H179.997C179.918 92.7872 179.838 92.7872 179.779 92.7872C179.561 92.7872 179.363 92.8071 179.145 92.8071C179.085 92.8071 179.026 92.8071 178.966 92.8071H178.907C176.271 93.0658 173.755 93.6627 171.337 94.5779C181.84 109.978 183.663 128.78 176.826 150.925C177.361 150.945 177.896 150.964 178.451 150.984C178.55 150.984 178.669 150.984 178.768 150.984L179.838 151.004C179.898 151.004 179.977 151.004 180.056 151.004H180.235C180.254 151.004 180.254 151.004 180.254 151.004H180.472C180.532 151.004 180.572 151.004 180.631 151.004H181.206C181.245 151.004 181.285 151.004 181.305 151.004C181.305 151.004 181.325 151.004 181.344 151.004C181.463 151.004 181.602 151.004 181.721 151.004L182.791 150.984C182.89 150.984 183.009 150.984 183.108 150.984C183.584 150.964 184.059 150.964 184.515 150.945L188.558 150.626L192.362 150.029C192.541 149.989 192.719 149.97 192.878 149.93C194.245 149.631 195.533 149.273 196.722 148.855C205.957 134.411 204.748 116.762 193.155 95.8911Z" fill="#E6FBFF"/>
<path d="M181.741 151.999H179.858H179.838L178.768 151.979H178.451H178.431C177.877 151.959 177.322 151.939 176.787 151.919C171 151.641 166.125 150.646 162.281 148.935C158.357 147.184 155.385 144.657 153.463 141.434C151.6 138.251 150.668 134.331 150.768 129.755V129.735C150.926 125.179 151.342 120.443 152.036 115.668C152.036 115.648 152.036 115.628 152.056 115.589C153.126 110.794 155.068 106.595 157.862 103.094C160.656 99.6117 164.342 96.7466 168.82 94.5779C169.534 94.2397 170.267 93.9213 171 93.6428C173.477 92.6878 176.093 92.071 178.808 91.8123H178.828H178.887C178.947 91.8123 178.986 91.8123 179.046 91.7924C179.066 91.7924 179.085 91.7924 179.105 91.7924L179.7 91.7725C179.779 91.7725 179.878 91.7526 179.977 91.7526H181.602C181.661 91.7526 181.741 91.7526 181.8 91.7725L182.276 91.7924C182.296 91.7924 182.296 91.7924 182.315 91.7924C182.375 91.7924 182.434 91.7924 182.514 91.7924C182.613 91.7924 182.712 91.8123 182.811 91.8123C182.85 91.8123 182.89 91.8322 182.95 91.8322C186.417 92.1903 189.727 93.1056 192.798 94.5978C193.076 94.7371 193.353 94.8764 193.631 95.0156C197.871 97.1844 201.359 100.03 204.015 103.452C206.67 106.874 208.533 110.973 209.563 115.608C209.563 115.628 209.583 115.648 209.583 115.688C210.277 120.463 210.713 125.199 210.851 129.755V129.775C210.931 134.351 210.019 138.27 208.117 141.454C205.857 145.274 202.152 148.079 197.099 149.81C195.87 150.228 194.522 150.606 193.135 150.905C192.957 150.945 192.779 150.984 192.62 151.004C192.6 151.004 192.6 151.004 192.58 151.004L188.776 151.601C188.756 151.601 188.716 151.601 188.696 151.601L184.674 151.919C184.654 151.919 184.634 151.919 184.634 151.919C184.158 151.939 183.683 151.939 183.207 151.959H183.187H182.87L181.741 151.999C181.761 151.999 181.761 151.999 181.741 151.999ZM179.858 150.009H181.741L182.811 149.989H182.831H183.128C183.584 149.97 184.059 149.97 184.515 149.95L188.478 149.631L192.244 149.034C192.402 148.995 192.561 148.975 192.719 148.935C194.027 148.656 195.295 148.298 196.445 147.9C201.042 146.329 204.391 143.802 206.412 140.399C208.117 137.534 208.929 133.973 208.87 129.775C208.711 125.318 208.295 120.662 207.621 115.967C206.65 111.629 204.906 107.809 202.449 104.626C199.972 101.442 196.702 98.7761 192.739 96.7466C192.481 96.6074 192.224 96.488 191.946 96.3487C189.093 94.9758 186.001 94.1004 182.771 93.7821C182.751 93.7821 182.712 93.7821 182.692 93.7821C182.672 93.7821 182.633 93.7821 182.613 93.7622C182.474 93.7622 182.355 93.7423 182.216 93.7423H181.701C181.661 93.7423 181.622 93.7423 181.582 93.7423H179.997C179.957 93.7423 179.918 93.7423 179.878 93.7423C179.858 93.7423 179.838 93.7423 179.819 93.7423L179.204 93.7622C179.165 93.7622 179.105 93.7622 179.046 93.7821H178.986C176.45 94.0208 174.012 94.5978 171.694 95.4932C171 95.7518 170.326 96.0503 169.653 96.3686C165.432 98.398 161.984 101.084 159.388 104.327C156.792 107.57 154.969 111.49 153.978 115.986C153.304 120.682 152.868 125.318 152.729 129.795C152.65 133.993 153.482 137.554 155.167 140.419C156.871 143.284 159.546 145.553 163.074 147.124C166.7 148.736 171.337 149.691 176.866 149.95C177.381 149.97 177.916 149.989 178.451 150.009H178.748H178.768H179.858Z" fill="black"/>
<path d="M158.778 157.241C158.678 158.614 158.678 159.848 158.758 160.942C159.273 163.37 160.085 165.439 161.156 167.15C162.245 168.861 163.415 169.657 164.643 169.498C165.892 169.358 167.14 168.662 168.389 167.409C169.617 166.155 170.667 164.683 171.52 162.952C171.658 162.693 171.777 162.434 171.896 162.176C172.649 160.405 173.224 158.754 173.62 157.261C174.274 153.68 174.67 150.258 174.829 147.015C174.869 145.92 174.888 145.224 174.888 144.926L160.403 143.931C160.462 147.313 159.927 151.77 158.778 157.241Z" fill="#6FBBEE"/>
<path d="M164.386 170.532C162.899 170.532 161.552 169.577 160.363 167.707C159.214 165.896 158.361 163.688 157.807 161.161C157.807 161.121 157.787 161.081 157.787 161.042C157.688 159.908 157.688 158.594 157.787 157.182C157.787 157.142 157.787 157.102 157.807 157.042C158.916 151.651 159.471 147.234 159.412 143.931C159.412 143.374 159.848 142.936 160.383 142.916C160.938 142.916 161.374 143.354 161.393 143.891C161.433 147.333 160.878 151.869 159.749 157.381C159.669 158.654 159.649 159.788 159.749 160.803C160.244 163.071 160.997 165.041 162.008 166.633C162.86 167.986 163.712 168.622 164.544 168.523C165.555 168.403 166.625 167.787 167.695 166.712C168.844 165.558 169.835 164.126 170.648 162.514V162.494C170.767 162.255 170.885 162.017 170.985 161.778C171.718 160.067 172.273 158.475 172.649 157.042C173.303 153.541 173.699 150.158 173.818 146.955C173.858 145.881 173.878 145.184 173.878 144.886C173.898 144.349 174.334 143.911 174.869 143.911H174.888C175.443 143.931 175.879 144.368 175.859 144.926C175.859 145.244 175.84 145.92 175.78 147.035C175.641 150.337 175.225 153.839 174.571 157.44C174.571 157.46 174.551 157.5 174.551 157.52C174.135 159.052 173.541 160.763 172.788 162.574C172.669 162.852 172.53 163.151 172.391 163.409C171.5 165.22 170.39 166.812 169.082 168.125C167.695 169.537 166.229 170.333 164.762 170.512C164.663 170.512 164.524 170.532 164.386 170.532Z" fill="black"/>
<path d="M157.983 115.264C156.794 118.448 156.001 121.691 155.585 125.033C155.446 126.108 155.327 127.182 155.208 128.237C155.03 129.47 155.307 130.843 156.041 132.355C156.714 133.549 157.626 134.743 158.716 135.897C159.825 137.071 160.856 137.668 161.787 137.668C162.739 137.668 163.769 137.13 164.918 136.056C165.988 135.061 166.781 134.166 167.276 133.37C168.069 132.136 168.525 130.943 168.664 129.769C168.901 126.983 169.417 124.178 170.19 121.353C170.962 118.527 172.667 115.423 175.322 112.041L164.74 106.609C161.569 108.758 159.33 111.643 157.983 115.264Z" fill="#6FBBEE"/>
<path d="M161.787 138.662C160.559 138.662 159.31 137.986 158.002 136.593C156.833 135.36 155.882 134.106 155.169 132.833C155.149 132.813 155.149 132.793 155.149 132.773C154.316 131.082 154.019 129.51 154.217 128.097C154.336 127.043 154.455 125.949 154.594 124.894C155.03 121.492 155.862 118.129 157.051 114.906C158.458 111.126 160.856 108.042 164.185 105.794C164.641 105.495 165.255 105.614 165.552 106.052C165.85 106.51 165.731 107.127 165.295 107.425C162.322 109.454 160.162 112.2 158.894 115.602C157.745 118.686 156.952 121.91 156.536 125.153C156.397 126.207 156.278 127.302 156.159 128.356C156.159 128.376 156.159 128.376 156.159 128.396C156.001 129.411 156.258 130.584 156.893 131.898C157.527 133.012 158.379 134.126 159.429 135.24C160.321 136.195 161.133 136.693 161.787 136.693C162.461 136.693 163.313 136.235 164.244 135.36C165.235 134.424 165.988 133.589 166.464 132.853C167.158 131.758 167.593 130.684 167.712 129.689C167.97 126.864 168.485 123.979 169.258 121.114C170.051 118.169 171.834 114.906 174.569 111.444C174.906 111.006 175.54 110.947 175.956 111.285C176.392 111.623 176.451 112.26 176.115 112.678C173.558 115.941 171.894 118.965 171.16 121.651C170.407 124.417 169.912 127.202 169.674 129.908C169.674 129.928 169.674 129.928 169.674 129.948C169.516 131.261 169 132.614 168.129 133.967C167.554 134.842 166.741 135.797 165.592 136.852C164.264 138.046 163.016 138.643 161.787 138.662Z" fill="black"/>
<path d="M156.583 55.4886C154.839 55.986 152.997 56.6028 151.015 57.3787C146.259 59.249 141.622 61.5769 137.143 64.3624C132.467 67.2673 128.721 70.2119 125.927 73.1964C122.856 76.4793 121.33 79.424 121.33 82.0503C121.33 83.7415 121.904 84.995 123.054 85.8107C124.025 86.5071 125.452 86.9249 127.374 87.0443C128.602 87.1239 130.465 87.104 132.962 86.9647C135.637 86.8255 137.5 86.7658 138.57 86.8056C142.771 87.0045 146.952 87.9795 151.114 89.7502C152.66 90.4267 154.027 91.1032 155.216 91.8195C154.899 90.8644 154.602 89.8895 154.324 88.8947C153.868 86.8454 153.413 84.7562 152.997 82.6472C151.867 77.0961 151.808 71.6246 152.838 66.2526C153.591 62.4125 154.839 58.8113 156.583 55.4886Z" fill="#6FBBEE"/>
<path d="M155.216 92.8342C155.038 92.8342 154.879 92.7944 154.72 92.6949C153.571 92.0184 152.224 91.3419 150.718 90.6854C146.695 88.9743 142.593 88.0192 138.53 87.8203C137.5 87.7805 135.637 87.8402 133.021 87.9794C130.445 88.1187 128.582 88.1386 127.294 88.059C125.174 87.9197 123.589 87.4422 122.459 86.6265C121.032 85.6118 120.319 84.0797 120.319 82.0503C120.319 79.1454 121.924 76.0416 125.194 72.5199C128.028 69.4758 131.872 66.4515 136.608 63.5068C141.126 60.6815 145.843 58.3139 150.638 56.4237C152.64 55.6477 154.542 54.9912 156.306 54.4937C156.841 54.3545 157.376 54.6529 157.534 55.1901C157.673 55.7273 157.376 56.2645 156.841 56.4237C155.137 56.9012 153.294 57.5379 151.352 58.294C146.675 60.1244 142.058 62.4523 137.639 65.198C133.061 68.0432 129.355 70.968 126.64 73.8729C123.767 76.9568 122.301 79.7025 122.301 82.0304C122.301 83.3834 122.737 84.3583 123.609 84.9751C124.421 85.5521 125.689 85.9102 127.413 86.0296C128.582 86.1092 130.425 86.0893 132.883 85.95C135.617 85.8107 137.48 85.751 138.59 85.7908C142.89 85.9898 147.23 87.0045 151.471 88.7952C153.056 89.4717 154.463 90.1879 155.691 90.9241C156.167 91.2027 156.326 91.8194 156.048 92.2771C155.89 92.6551 155.573 92.8342 155.216 92.8342Z" fill="black"/>
<path d="M242.845 56.6319C242.053 55.7963 241.181 55.0402 240.249 54.3836C237.019 52.1154 233.472 50.4839 229.588 49.509C228.637 49.131 227.606 48.7132 226.536 48.2356C223.643 46.9424 220.71 45.4302 217.797 43.6993C217.084 43.2814 216.152 42.6249 215.003 41.7494C213.537 40.4561 211.991 39.2425 210.406 38.1283C207.453 36.059 204.282 34.3081 200.913 32.8557C199.368 32.1991 197.822 31.642 196.257 31.1446C191.877 29.7917 187.359 29.0953 182.702 29.0356C176.678 28.956 170.753 29.7121 164.986 31.3237C163.163 31.9405 161.399 32.7761 159.695 33.7908C155.93 36.059 152.779 39.1032 150.223 42.9034C147.666 46.7235 145.923 51.0012 145.031 55.6968C144.694 57.4477 144.476 59.1986 144.397 60.9495C144.238 64.1329 144.496 67.3561 145.15 70.6191C145.546 72.5292 145.942 74.3994 146.359 76.2697C150.797 92.1272 160.012 101.538 174.022 104.483C182.207 106.194 192.036 105.716 203.49 103.03L204.322 102.792C210.861 101.478 217.104 99.3695 223.088 96.5044C224.376 95.8677 225.684 95.2509 226.992 94.6341C230.46 92.8434 233.65 90.5951 236.524 87.8892C239.04 85.5415 241.28 82.9549 243.261 80.1296C245.738 76.4289 247.145 72.748 247.463 69.0672C247.522 68.5101 247.542 67.953 247.542 67.3959C247.542 66.4608 247.443 65.5455 247.264 64.6502C247.264 64.6303 247.264 64.6303 247.264 64.6303C246.868 62.6805 246.036 60.8301 244.787 59.0195C244.767 58.9797 244.748 58.9598 244.728 58.92C244.193 58.1441 243.559 57.388 242.845 56.6319Z" fill="#6FBBEE"/>
<path d="M184.367 106.473C180.602 106.473 177.054 106.134 173.804 105.438C166.631 103.926 160.607 100.722 155.89 95.8876C151.194 91.0926 147.666 84.5665 145.427 76.5284C145.427 76.5085 145.427 76.4886 145.407 76.4886C144.991 74.6183 144.575 72.7083 144.179 70.8181C143.505 67.4954 143.247 64.1727 143.406 60.9097C143.485 59.0991 143.703 57.2885 144.06 55.4978C144.971 50.7028 146.775 46.2659 149.41 42.3662C152.026 38.4466 155.316 35.2831 159.18 32.9552C160.924 31.9007 162.767 31.0451 164.649 30.4084C164.669 30.4084 164.689 30.3885 164.709 30.3885C170.555 28.757 176.618 27.9811 182.722 28.0607C187.458 28.1204 192.115 28.8565 196.554 30.2294C198.159 30.7268 199.744 31.3038 201.31 31.9604C204.718 33.4128 207.968 35.2234 210.98 37.3324C212.585 38.4466 214.151 39.6802 215.637 40.9933C216.727 41.829 217.639 42.4657 218.312 42.8636C221.206 44.5548 224.099 46.0669 226.972 47.3403C228.003 47.7979 229.013 48.2158 229.925 48.5739C233.888 49.5687 237.554 51.2599 240.864 53.5679C241.854 54.2643 242.766 55.0601 243.598 55.9356L243.618 55.9555C244.351 56.7314 245.025 57.5273 245.58 58.343C245.6 58.3828 245.639 58.4226 245.659 58.4624C246.987 60.3526 247.879 62.3621 248.295 64.4313C248.295 64.4512 248.295 64.4711 248.315 64.491C248.513 65.4461 248.612 66.421 248.612 67.4158C248.612 68.0127 248.592 68.6096 248.533 69.1866C248.196 73.0067 246.709 76.8865 244.153 80.7066C244.153 80.7066 244.153 80.7265 244.133 80.7265C242.132 83.6115 239.813 86.2577 237.257 88.6453C234.324 91.391 231.035 93.7189 227.487 95.5494C227.468 95.5494 227.468 95.5693 227.448 95.5693C226.14 96.1861 224.832 96.8028 223.564 97.4395C217.54 100.344 211.159 102.473 204.599 103.806L203.787 104.025H203.767C198 105.378 192.571 106.174 187.636 106.433C186.487 106.453 185.417 106.473 184.367 106.473ZM147.349 76.031C149.509 83.7508 152.858 89.9585 157.317 94.5147C159.537 96.7829 162.093 98.693 164.887 100.165C167.701 101.658 170.832 102.772 174.24 103.488C178.224 104.324 182.682 104.622 187.498 104.383C192.313 104.145 197.624 103.349 203.272 102.036L204.104 101.817C204.124 101.817 204.144 101.817 204.163 101.797C210.584 100.504 216.826 98.3946 222.692 95.5693C223.98 94.9326 225.288 94.3158 226.596 93.699C229.964 91.9481 233.095 89.7396 235.909 87.1133C238.367 84.8252 240.586 82.2784 242.508 79.5128C244.886 75.9713 246.234 72.4297 246.551 68.9478C246.591 68.4106 246.63 67.8734 246.63 67.3561C246.63 66.5006 246.551 65.645 246.373 64.8094C246.373 64.7895 246.373 64.7696 246.373 64.7696C245.996 62.9789 245.223 61.228 244.054 59.5567C244.034 59.5368 244.034 59.5169 244.014 59.497C244.014 59.4771 243.995 59.4771 243.995 59.4572C243.479 58.7211 242.885 58.0048 242.211 57.2885L242.191 57.2686C241.458 56.4927 240.626 55.7764 239.754 55.1397C236.643 52.9511 233.175 51.3594 229.429 50.4243C229.39 50.4044 229.35 50.4044 229.311 50.3845C228.34 50.0064 227.289 49.5687 226.199 49.0912C223.286 47.778 220.294 46.246 217.361 44.515C216.608 44.0574 215.657 43.4008 214.468 42.5055C214.448 42.4856 214.428 42.4856 214.408 42.4657C212.962 41.1923 211.456 39.9985 209.89 38.9241C206.997 36.8947 203.866 35.1637 200.596 33.751C199.09 33.1144 197.564 32.5573 196.019 32.0797C191.758 30.7666 187.28 30.0702 182.742 29.9906C176.836 29.911 170.99 30.6671 165.323 32.2389C163.579 32.8358 161.875 33.6317 160.25 34.6066C156.584 36.835 153.512 39.7996 151.035 43.4605C148.558 47.1413 146.874 51.3196 146.002 55.8759C145.685 57.5671 145.467 59.2981 145.388 61.0092C145.229 64.0931 145.487 67.2566 146.121 70.4202C146.517 72.2904 146.933 74.1806 147.349 76.031Z" fill="black"/>
<path d="M226.992 94.6142C230.46 92.8235 233.65 90.5753 236.524 87.8693C239.04 85.5216 241.28 82.935 243.261 80.1097C245.738 76.409 247.145 72.7282 247.462 69.0473C241.735 67.6546 236.108 66.998 230.579 67.0378C225.05 67.0776 218.015 68.1122 209.514 70.1018C201.013 72.0915 194.295 74.2005 189.38 76.4289C184.446 78.6573 179.631 81.403 174.934 84.6859C170.237 87.9688 167.84 91.1323 167.741 94.1964C167.642 97.2604 168.335 99.6281 169.841 101.319C170.773 102.374 172.16 103.408 174.003 104.483C182.187 106.194 192.016 105.716 203.47 103.03L204.302 102.792C210.842 101.478 217.084 99.3695 223.068 96.5044C224.396 95.8677 225.684 95.231 226.992 94.6142Z" fill="#E6FBFF"/>
<path d="M184.367 106.473C180.602 106.473 177.054 106.134 173.804 105.438C166.631 103.926 160.607 100.722 155.89 95.8876C151.194 91.0926 147.666 84.5665 145.427 76.5284C145.427 76.5085 145.427 76.4886 145.407 76.4886C144.991 74.6183 144.575 72.7083 144.179 70.8181C143.505 67.4954 143.247 64.1727 143.406 60.9097C143.485 59.0991 143.703 57.2885 144.06 55.4978C144.971 50.7028 146.775 46.2659 149.41 42.3662C152.026 38.4466 155.316 35.2831 159.18 32.9552C160.924 31.9007 162.767 31.0451 164.649 30.4084C164.669 30.4084 164.689 30.3885 164.709 30.3885C170.555 28.757 176.618 27.9811 182.722 28.0607C187.458 28.1204 192.115 28.8565 196.554 30.2294C198.159 30.7268 199.744 31.3038 201.31 31.9604C204.718 33.4128 207.968 35.2234 210.98 37.3324C212.585 38.4466 214.151 39.6802 215.637 40.9933C216.727 41.829 217.639 42.4657 218.312 42.8636C221.206 44.5548 224.099 46.0669 226.972 47.3403C228.003 47.7979 229.013 48.2158 229.925 48.5739C233.888 49.5687 237.554 51.2599 240.864 53.5679C241.854 54.2643 242.766 55.0601 243.598 55.9356L243.618 55.9555C244.351 56.7314 245.025 57.5273 245.58 58.343C245.6 58.3828 245.639 58.4226 245.659 58.4624C246.987 60.3526 247.879 62.3621 248.295 64.4313C248.295 64.4512 248.295 64.4711 248.315 64.491C248.513 65.4461 248.612 66.421 248.612 67.4158C248.612 68.0127 248.592 68.6096 248.533 69.1866C248.196 73.0067 246.709 76.8865 244.153 80.7066C244.153 80.7066 244.153 80.7265 244.133 80.7265C242.132 83.6115 239.813 86.2577 237.257 88.6453C234.324 91.391 231.035 93.7189 227.487 95.5494C227.468 95.5494 227.468 95.5693 227.448 95.5693C226.14 96.1861 224.832 96.8028 223.564 97.4395C217.54 100.344 211.159 102.473 204.599 103.806L203.787 104.025H203.767C198 105.378 192.571 106.174 187.636 106.433C186.487 106.453 185.417 106.473 184.367 106.473ZM147.349 76.031C149.509 83.7508 152.858 89.9585 157.317 94.5147C159.537 96.7829 162.093 98.693 164.887 100.165C167.701 101.658 170.832 102.772 174.24 103.488C178.224 104.324 182.682 104.622 187.498 104.383C192.313 104.145 197.624 103.349 203.272 102.036L204.104 101.817C204.124 101.817 204.144 101.817 204.163 101.797C210.584 100.504 216.826 98.3946 222.692 95.5693C223.98 94.9326 225.288 94.3158 226.596 93.699C229.964 91.9481 233.095 89.7396 235.909 87.1133C238.367 84.8252 240.586 82.2784 242.508 79.5128C244.886 75.9713 246.234 72.4297 246.551 68.9478C246.591 68.4106 246.63 67.8734 246.63 67.3561C246.63 66.5006 246.551 65.645 246.373 64.8094C246.373 64.7895 246.373 64.7696 246.373 64.7696C245.996 62.9789 245.223 61.228 244.054 59.5567C244.034 59.5368 244.034 59.5169 244.014 59.497C244.014 59.4771 243.995 59.4771 243.995 59.4572C243.479 58.7211 242.885 58.0048 242.211 57.2885L242.191 57.2686C241.458 56.4927 240.626 55.7764 239.754 55.1397C236.643 52.9511 233.175 51.3594 229.429 50.4243C229.39 50.4044 229.35 50.4044 229.311 50.3845C228.34 50.0064 227.289 49.5687 226.199 49.0912C223.286 47.778 220.294 46.246 217.361 44.515C216.608 44.0574 215.657 43.4008 214.468 42.5055C214.448 42.4856 214.428 42.4856 214.408 42.4657C212.962 41.1923 211.456 39.9985 209.89 38.9241C206.997 36.8947 203.866 35.1637 200.596 33.751C199.09 33.1144 197.564 32.5573 196.019 32.0797C191.758 30.7666 187.28 30.0702 182.742 29.9906C176.836 29.911 170.99 30.6671 165.323 32.2389C163.579 32.8358 161.875 33.6317 160.25 34.6066C156.584 36.835 153.512 39.7996 151.035 43.4605C148.558 47.1413 146.874 51.3196 146.002 55.8759C145.685 57.5671 145.467 59.2981 145.388 61.0092C145.229 64.0931 145.487 67.2566 146.121 70.4202C146.517 72.2904 146.933 74.1806 147.349 76.031Z" fill="black"/>
<path d="M170.069 57.1684C169.777 55.6666 169.18 54.4684 168.239 53.5813C167.275 52.6787 166.277 52.3296 165.225 52.5379C164.153 52.7501 163.359 53.4542 162.823 54.654C162.245 55.842 162.121 57.183 162.412 58.6847C162.7 60.1669 163.313 61.3418 164.277 62.2445C165.241 63.1472 166.24 63.4963 167.311 63.2841C168.363 63.0757 169.157 62.3717 169.693 61.1719C170.233 59.9916 170.357 58.6506 170.069 57.1684ZM167.215 54.4526C167.499 54.4571 167.751 54.6097 167.968 54.8909C168.184 55.172 168.291 55.5154 168.324 55.8936C168.338 56.2758 168.254 56.5758 168.062 56.8367C167.866 57.078 167.624 57.1867 167.34 57.1822C167.056 57.1777 166.804 57.0251 166.607 56.74C166.391 56.4589 166.283 56.1155 166.254 55.7568C166.241 55.3746 166.32 55.0551 166.516 54.8137C166.705 54.5334 166.946 54.4247 167.215 54.4526Z" fill="black"/>
<path d="M167.982 54.8872C167.766 54.6061 167.513 54.4535 167.229 54.449C166.961 54.4211 166.723 54.5493 166.527 54.7906C166.335 55.0515 166.232 55.3554 166.265 55.7336C166.298 56.1119 166.401 56.4357 166.618 56.7169C166.834 56.998 167.086 57.1506 167.351 57.159C167.635 57.1635 167.877 57.0548 168.073 56.8135C168.265 56.5526 168.348 56.2526 168.335 55.8705C168.306 55.5117 168.179 55.1723 167.982 54.8872Z" fill="white"/>
<path d="M166.707 64.3356C165.613 64.3293 164.557 63.8903 163.589 62.968C162.478 61.9324 161.765 60.5545 161.439 58.8772C161.11 57.1804 161.27 55.6095 161.896 54.2501C162.573 52.7388 163.632 51.8404 165.015 51.5666C166.398 51.2928 167.715 51.7207 168.908 52.8618C170 53.9013 170.713 55.2792 171.042 56.976C171.368 58.6533 171.224 60.2008 170.582 61.5836C169.905 63.0949 168.865 63.9894 167.482 64.2632C167.229 64.3133 166.952 64.3478 166.707 64.3356ZM165.811 53.475C165.69 53.4786 165.55 53.4861 165.414 53.5131C165.414 53.5131 165.414 53.5131 165.394 53.5169C164.42 53.7098 163.965 54.4886 163.709 55.0456C163.237 56.0505 163.149 57.1615 163.403 58.4682C163.653 59.7554 164.146 60.7312 164.963 61.5011C165.431 61.9349 166.145 62.4823 167.119 62.2895C168.073 62.1006 168.529 61.3218 168.781 60.7453C168.781 60.7453 168.781 60.7453 168.777 60.7257C169.249 59.7208 169.337 58.6098 169.091 57.3421C168.837 56.0354 168.34 55.0401 167.546 54.2858C167.151 53.9185 166.578 53.4649 165.811 53.475Z" fill="black"/>
<path d="M168.039 68.8311C166.541 69.1275 165.314 69.5724 164.343 70.1891C163.372 70.8059 162.941 71.3966 163.051 71.9613C163.161 72.526 163.781 72.9088 164.911 73.1099C166.041 73.311 167.343 73.2556 168.842 72.9592C170.32 72.6667 171.547 72.2218 172.518 71.6051C173.493 71.0078 173.943 70.4132 173.83 69.8291C173.716 69.2449 173.1 68.8815 171.95 68.6843C170.84 68.4793 169.537 68.5348 168.039 68.8311Z" fill="#CF80A6"/>
<path d="M197.633 51.741C197.342 50.2393 196.745 49.041 195.804 48.154C194.839 47.2513 193.841 46.9022 192.789 47.1106C191.717 47.3228 190.923 48.0268 190.388 49.2266C189.809 50.4146 189.685 51.7556 189.977 53.2573C190.265 54.7396 190.877 55.9145 191.841 56.8171C192.806 57.7198 193.804 58.0689 194.876 57.8567C195.928 57.6484 196.741 56.9404 197.277 55.7406C197.797 54.5642 197.921 53.2232 197.633 51.741ZM194.799 49.0214C195.083 49.0259 195.335 49.1784 195.551 49.4596C195.768 49.7408 195.875 50.0841 195.908 50.4624C195.922 50.8445 195.838 51.1446 195.646 51.4054C195.45 51.6468 195.208 51.7554 194.924 51.7509C194.64 51.7464 194.388 51.5939 194.191 51.3088C193.974 51.0276 193.867 50.6843 193.838 50.3255C193.825 49.9434 193.904 49.6238 194.1 49.3825C194.269 49.106 194.511 48.9974 194.799 49.0214Z" fill="black"/>
<path d="M195.546 49.4599C195.33 49.1787 195.078 49.0261 194.794 49.0216C194.525 48.9938 194.287 49.1219 194.091 49.3633C193.899 49.6241 193.796 49.928 193.829 50.3062C193.862 50.6845 193.966 51.0083 194.182 51.2895C194.398 51.5707 194.651 51.7232 194.915 51.7316C195.199 51.7361 195.441 51.6274 195.637 51.3861C195.829 51.1253 195.913 50.8252 195.899 50.4431C195.866 50.0649 195.743 49.7449 195.546 49.4599Z" fill="white"/>
<path d="M194.271 58.9081C193.178 58.9019 192.121 58.4629 191.153 57.5406C190.042 56.5049 189.329 55.127 189.003 53.4498C188.674 51.753 188.834 50.1821 189.46 48.8227C190.137 47.3114 191.197 46.413 192.58 46.1392C193.963 45.8654 195.28 46.2933 196.472 47.4344C197.564 48.4739 198.277 49.8518 198.606 51.5485C198.932 53.2258 198.788 54.7734 198.146 56.1561C197.469 57.6675 196.429 58.562 195.046 58.8358C194.793 58.8859 194.516 58.9204 194.271 58.9081ZM193.375 48.0475C193.254 48.0512 193.114 48.0587 192.978 48.0857C192.978 48.0857 192.978 48.0857 192.959 48.0895C191.985 48.2823 191.529 49.0611 191.273 49.6181C190.801 50.623 190.713 51.7341 190.967 53.0408C191.217 54.328 191.71 55.3038 192.527 56.0737C192.996 56.5075 193.709 57.0549 194.683 56.8621C195.637 56.6731 196.093 55.8943 196.345 55.3178C196.345 55.3178 196.345 55.3178 196.341 55.2983C196.813 54.2934 196.901 53.1824 196.655 51.9147C196.401 50.608 195.904 49.6127 195.11 48.8584C194.715 48.491 194.142 48.0375 193.375 48.0475Z" fill="black"/>
<path d="M195.623 63.4C194.125 63.6964 192.898 64.1413 191.927 64.758C190.955 65.3748 190.525 65.9655 190.635 66.5302C190.744 67.0949 191.364 67.4777 192.494 67.6788C193.625 67.8799 194.927 67.8245 196.425 67.5281C197.904 67.2356 199.15 66.7869 200.121 66.1701C201.096 65.5729 201.546 64.9783 201.433 64.3941C201.319 63.81 200.703 63.4466 199.553 63.2493C198.404 63.0521 197.101 63.1075 195.623 63.4Z" fill="#CF80A6"/>
<path d="M217.766 81.4192C215.523 81.4152 213.416 80.7573 211.465 79.4418C209.584 78.1733 208.194 76.5248 207.367 74.5434C207.148 74.0402 207.377 73.449 207.884 73.2483C208.387 73.0281 208.976 73.2561 209.175 73.7631C209.873 75.3857 211.004 76.7412 212.56 77.7904C214.766 79.2782 217.1 79.75 219.708 79.2373C222.315 78.7247 224.302 77.4036 225.793 75.189C226.864 73.6232 227.407 71.9388 227.449 70.1707C227.464 69.6217 227.906 69.1909 228.435 69.2084L228.454 69.2045C229.002 69.2182 229.431 69.6598 229.416 70.2089C229.368 72.3624 228.694 74.4164 227.423 76.3047C225.65 78.939 223.179 80.5777 220.084 81.186C219.306 81.339 218.532 81.4103 217.766 81.4192Z" fill="black"/>
<path d="M75.5273 163.285C70.8705 164.578 65.9361 164.578 60.6848 163.285C60.0308 159.704 59.6345 156.281 59.476 153.038C59.4363 151.944 59.4165 151.248 59.4165 150.949L73.9024 149.954C73.8429 153.357 74.378 157.813 75.5273 163.285Z" fill="#A87D4D"/>
<path d="M60.7045 176.954H69.2652C71.5639 176.954 73.5456 176.237 75.1705 174.845C76.8549 173.452 77.707 171.701 77.707 169.632C77.707 168.995 77.6278 168.378 77.4692 167.781C77.1125 166.21 76.7757 164.678 76.4982 163.166C76.4982 163.146 76.4982 163.106 76.4784 163.086C75.3687 157.694 74.8138 153.277 74.8733 149.974C74.8733 149.417 74.4373 148.979 73.9023 148.959C73.9023 148.959 73.9023 148.959 73.8824 148.959C73.3474 148.959 72.8916 149.397 72.8916 149.934C72.852 153.376 73.4068 157.913 74.5364 163.424C74.5364 163.444 74.5364 163.464 74.5562 163.484C74.8535 165.016 75.1903 166.608 75.547 168.219C75.547 168.239 75.547 168.239 75.547 168.259C75.6659 168.697 75.7254 169.154 75.7254 169.612C75.7254 171.064 75.1309 172.278 73.9023 173.293C73.9023 173.293 73.9023 173.293 73.8824 173.313C72.5944 174.407 71.0883 174.944 69.2652 174.944H60.7045C60.3874 174.944 60.0901 174.924 59.7929 174.865H59.7731C58.8417 174.745 58.0094 174.467 57.2564 173.989L57.2366 173.969C56.9195 173.79 56.6223 173.571 56.325 173.313C56.3052 173.293 56.3052 173.293 56.2854 173.293C55.0567 172.278 54.4622 171.064 54.4622 169.612C54.4622 168.16 55.0567 166.926 56.3052 165.871C57.3158 165.016 58.4652 164.518 59.7929 164.339C60.0703 164.3 60.3676 164.28 60.6648 164.26C60.7045 164.26 60.7243 164.26 60.7639 164.26C60.8828 164.24 60.9819 164.22 61.081 164.16C61.2197 164.101 61.3386 164.001 61.4179 163.882C61.5169 163.762 61.5764 163.643 61.616 163.484C61.6358 163.384 61.6556 163.265 61.6358 163.146C61.6358 163.106 61.6358 163.086 61.616 163.046C60.9621 159.544 60.5657 156.142 60.427 152.939C60.3874 151.864 60.3676 151.168 60.3676 150.87C60.3478 150.312 59.9118 149.895 59.3569 149.895C58.8021 149.915 58.3661 150.352 58.3859 150.909C58.3859 151.228 58.4057 151.904 58.4652 153.018C58.5841 155.983 58.9408 159.107 59.4956 162.33C57.8311 162.569 56.325 163.245 55.0369 164.3C53.3525 165.732 52.5004 167.503 52.5004 169.552C52.5004 171.602 53.3525 173.352 55.0369 174.745C55.4134 175.083 55.8296 175.382 56.2457 175.621C57.2366 176.237 58.3463 176.616 59.5353 176.775C59.892 176.914 60.2883 176.954 60.7045 176.954C60.6846 176.954 60.6846 176.954 60.7045 176.954Z" fill="black"/>
<path d="M63.113 136.409C62.8356 136.131 62.4987 135.932 62.1222 135.812C57.6437 134.34 53.1651 133.842 48.647 134.28C48.5479 135.613 48.4686 136.966 48.4092 138.359C48.3497 138.717 48.3299 139.075 48.3497 139.473C48.4092 141.324 49.1027 142.875 50.4305 144.129C51.778 145.402 53.3831 145.999 55.226 145.939C57.069 145.88 58.6345 145.183 59.8829 143.811C60.5963 143.074 61.1116 142.219 61.4484 141.264C62.1618 141.184 62.7563 140.886 63.2121 140.388C63.7273 139.811 63.9849 139.115 63.9651 138.359C63.9849 137.603 63.6877 136.946 63.113 136.409Z" fill="#4E4943"/>
<path d="M51.4412 121.308C50.2522 124.491 49.4595 127.734 49.0434 131.077C48.9047 132.151 48.7858 133.226 48.6669 134.28C53.185 133.842 57.6834 134.34 62.1421 135.812C62.3799 133.027 62.8951 130.221 63.668 127.396C64.4408 124.571 66.145 121.467 68.8005 118.084L58.1986 112.653C55.028 114.802 52.7887 117.687 51.4412 121.308Z" fill="#A87D4F"/>
<path d="M55.0279 146.954C55.1072 146.954 55.1865 146.954 55.2856 146.954C57.3861 146.894 59.1894 146.079 60.636 144.507C61.29 143.811 61.825 143.015 62.2015 142.159C62.8951 141.98 63.4896 141.622 63.985 141.085C64.6786 140.309 65.0155 139.394 64.9957 138.359C64.956 137.304 64.5597 136.429 63.8067 135.713C63.6085 135.534 63.4103 135.374 63.1924 135.235C63.45 132.748 63.9256 130.201 64.6191 127.655C65.3524 124.969 67.0169 121.944 69.5733 118.681C69.9102 118.244 69.8309 117.627 69.4147 117.289C68.9788 116.95 68.3645 117.03 68.0276 117.448C65.2929 120.93 63.5094 124.173 62.6969 127.117C61.9241 130.002 61.4089 132.887 61.1513 135.693C61.1513 135.772 61.1513 135.852 61.1513 135.932C61.1711 136.071 61.2305 136.21 61.3098 136.329C61.3891 136.449 61.4881 136.548 61.6269 136.628C61.6863 136.668 61.7656 136.707 61.8448 136.727C62.0628 136.807 62.261 136.926 62.4393 137.105L62.4591 137.125C62.8357 137.464 63.014 137.861 63.0338 138.379C63.0536 138.896 62.8951 139.334 62.5384 139.712C62.2412 140.03 61.8647 140.209 61.3891 140.269C61.0125 140.309 60.6955 140.567 60.5568 140.926C60.2595 141.741 59.8235 142.477 59.2092 143.114C58.1193 144.288 56.8114 144.885 55.2459 144.925C53.6606 144.965 52.3131 144.467 51.1637 143.373C50.0144 142.278 49.4397 140.985 49.3802 139.413V139.394C49.3604 139.075 49.3802 138.757 49.4199 138.478C49.4199 138.438 49.4199 138.419 49.4199 138.379C49.4991 137.006 49.5784 135.653 49.6577 134.34C49.7766 133.285 49.8955 132.211 50.0342 131.156C50.4503 127.913 51.243 124.71 52.3924 121.606C53.6606 118.204 55.8008 115.458 58.7931 113.429C59.2489 113.13 59.3678 112.494 59.0507 112.056C58.7535 111.598 58.1193 111.479 57.6834 111.797C54.3146 114.085 51.9168 117.169 50.5098 120.95C49.301 124.193 48.4885 127.535 48.0525 130.938C47.9138 132.012 47.7949 133.106 47.676 134.161V134.181C47.676 134.201 47.676 134.201 47.676 134.22C47.5769 135.534 47.4977 136.887 47.4382 138.259C47.3788 138.657 47.359 139.075 47.3788 139.513C47.4382 141.622 48.2507 143.413 49.7766 144.865C51.243 146.258 53.0067 146.954 55.0279 146.954Z" fill="black"/>
<path d="M53.0384 135.818C53.1969 131.282 53.613 126.626 54.3066 121.851C55.456 116.737 57.5763 112.4 60.7074 108.819C63.3033 105.874 66.5731 103.427 70.5364 101.537C73.5088 100.104 76.6993 99.2087 80.0681 98.8705H80.0879C80.1276 98.8705 80.1672 98.8506 80.2266 98.8506C80.3653 98.8506 80.5239 98.8307 80.6626 98.8307H81.1778C81.2175 98.8307 81.2571 98.8307 81.2967 98.8307H81.5742C81.6336 98.8307 81.7129 98.8307 81.7723 98.8307H82.4263C82.4857 98.8307 82.565 98.8307 82.6443 98.8307H82.6641H82.9019C82.9811 98.8307 83.0604 98.8307 83.1198 98.8307C83.3378 98.8307 83.536 98.8506 83.754 98.8506C83.8332 98.8506 83.9125 98.8705 83.9918 98.8705C87.4002 99.2087 90.6303 100.104 93.6622 101.556C102.401 105.735 107.811 112.519 109.892 121.851C110.586 126.626 111.002 131.262 111.16 135.818C111.418 149.547 102.5 156.61 84.4476 157.028C84.3485 157.028 84.2296 157.028 84.1305 157.028L83.0604 157.048C83.0009 157.048 82.9217 157.048 82.8424 157.048H82.6641C82.6442 157.048 82.6443 157.048 82.6443 157.048H82.4263C82.3668 157.048 82.3272 157.048 82.2677 157.048H81.6931C81.6534 157.048 81.6138 157.048 81.594 157.048C81.594 157.048 81.5742 157.048 81.5543 157.048C81.4354 157.048 81.2967 157.048 81.1778 157.048L80.1077 157.028C80.0087 157.028 79.8898 157.028 79.7907 157.028C61.6982 156.61 52.8006 149.547 53.0384 135.818Z" fill="#A87D4E"/>
<path d="M81.1581 158.042H83.0406H83.0604L84.1305 158.023H84.4476H84.4674C89.045 157.923 93.1074 157.386 96.5357 156.431C100.023 155.456 102.956 154.043 105.275 152.193C109.971 148.472 112.27 142.961 112.131 135.798V135.778C111.973 131.222 111.557 126.487 110.863 121.712C110.863 121.692 110.863 121.672 110.843 121.632C109.773 116.837 107.831 112.639 105.037 109.137C102.243 105.655 98.557 102.79 94.0784 100.621C90.9672 99.1092 87.5984 98.1741 84.0909 97.8358H84.0711C83.9918 97.8358 83.9126 97.8159 83.8531 97.8159C83.8333 97.8159 83.8135 97.8159 83.7937 97.8159L83.1992 97.796C83.1199 97.796 83.0208 97.7761 82.9217 97.7761H81.2968C81.2373 97.7761 81.1581 97.7761 81.0986 97.796L80.623 97.8159C80.6032 97.8159 80.6032 97.8159 80.5834 97.8159C80.5239 97.8159 80.4645 97.8159 80.3852 97.8159C80.2861 97.8159 80.187 97.8358 80.088 97.8358C80.0483 97.8358 79.9889 97.8557 79.9493 97.8557C76.4814 98.2138 73.172 99.1291 70.1004 100.621C66.0381 102.571 62.6296 105.118 59.9742 108.162C56.7441 111.843 54.5048 116.379 53.3357 121.632C53.3357 121.652 53.3158 121.672 53.3158 121.712C52.6223 126.487 52.1863 131.222 52.0476 135.778V135.798C51.9287 142.961 54.2274 148.472 58.9239 152.193C61.2425 154.043 64.1951 155.456 67.663 156.431C71.0913 157.386 75.1537 157.923 79.7313 158.023H79.7511H80.0682L81.1581 158.042C81.1382 158.042 81.1382 158.042 81.1581 158.042ZM83.0406 156.053H81.1581L80.088 156.033H80.0682H79.7709C71.012 155.834 64.4131 154.003 60.1525 150.641C58.0718 148.99 56.5063 146.92 55.4957 144.493C54.4652 142.046 53.9896 139.121 54.0491 135.858C54.2076 131.401 54.6237 126.745 55.2975 122.05C56.4072 117.135 58.488 112.917 61.4803 109.495C63.9771 106.65 67.1676 104.282 70.9922 102.432C73.8458 101.059 76.9371 100.184 80.1672 99.8652C80.1871 99.8652 80.2267 99.8652 80.2465 99.8652C80.2663 99.8652 80.3059 99.8652 80.3258 99.8454C80.4645 99.8454 80.5834 99.8255 80.7221 99.8255L81.1977 99.7857C81.2373 99.7857 81.277 99.7857 81.3166 99.7857H82.9019C82.9415 99.7857 82.9812 99.7857 83.0208 99.7857C83.0406 99.7857 83.0604 99.7857 83.0803 99.7857L83.6946 99.8056C83.754 99.8056 83.8333 99.8255 83.9126 99.8255C87.1823 100.144 90.3331 101.019 93.2263 102.412C97.4472 104.441 100.895 107.127 103.491 110.371C106.087 113.614 107.91 117.533 108.901 122.03C109.575 126.725 110.011 131.361 110.15 135.838C110.209 139.101 109.714 142.026 108.703 144.473C107.692 146.9 106.127 148.97 104.046 150.621C99.7856 154.003 93.1867 155.814 84.4278 156.013H84.1305H84.1107L83.0406 156.053Z" fill="black"/>
<path d="M81.1581 158.042H83.0406H83.0604L84.1305 158.023H84.4476H84.4674C89.045 157.923 93.1074 157.386 96.5357 156.431C100.023 155.456 102.956 154.043 105.275 152.193C109.971 148.472 112.27 142.961 112.131 135.798V135.778C111.973 131.222 111.557 126.487 110.863 121.712C110.863 121.692 110.863 121.672 110.843 121.632C109.773 116.837 107.831 112.639 105.037 109.137C102.243 105.655 98.557 102.79 94.0784 100.621C90.9672 99.1092 87.5984 98.1741 84.0909 97.8358H84.0711C83.9918 97.8358 83.9126 97.8159 83.8531 97.8159C83.8333 97.8159 83.8135 97.8159 83.7937 97.8159L83.1992 97.796C83.1199 97.796 83.0208 97.7761 82.9217 97.7761H81.2968C81.2373 97.7761 81.1581 97.7761 81.0986 97.796L80.623 97.8159C80.6032 97.8159 80.6032 97.8159 80.5834 97.8159C80.5239 97.8159 80.4645 97.8159 80.3852 97.8159C80.2861 97.8159 80.187 97.8358 80.088 97.8358C80.0483 97.8358 79.9889 97.8557 79.9493 97.8557C76.4814 98.2138 73.172 99.1291 70.1004 100.621C66.0381 102.571 62.6296 105.118 59.9742 108.162C56.7441 111.843 54.5048 116.379 53.3357 121.632C53.3357 121.652 53.3158 121.672 53.3158 121.712C52.6223 126.487 52.1863 131.222 52.0476 135.778V135.798C51.9287 142.961 54.2274 148.472 58.9239 152.193C61.2425 154.043 64.1951 155.456 67.663 156.431C71.0913 157.386 75.1537 157.923 79.7313 158.023H79.7511H80.0682L81.1581 158.042C81.1382 158.042 81.1382 158.042 81.1581 158.042ZM83.0406 156.053H81.1581L80.088 156.033H80.0682H79.7709C71.012 155.834 64.4131 154.003 60.1525 150.641C58.0718 148.99 56.5063 146.92 55.4957 144.493C54.4652 142.046 53.9896 139.121 54.0491 135.858C54.2076 131.401 54.6237 126.745 55.2975 122.05C56.4072 117.135 58.488 112.917 61.4803 109.495C63.9771 106.65 67.1676 104.282 70.9922 102.432C73.8458 101.059 76.9371 100.184 80.1672 99.8652C80.1871 99.8652 80.2267 99.8652 80.2465 99.8652C80.2663 99.8652 80.3059 99.8652 80.3258 99.8454C80.4645 99.8454 80.5834 99.8255 80.7221 99.8255L81.1977 99.7857C81.2373 99.7857 81.277 99.7857 81.3166 99.7857H82.9019C82.9415 99.7857 82.9812 99.7857 83.0208 99.7857C83.0406 99.7857 83.0604 99.7857 83.0803 99.7857L83.6946 99.8056C83.754 99.8056 83.8333 99.8255 83.9126 99.8255C87.1823 100.144 90.3331 101.019 93.2263 102.412C97.4472 104.441 100.895 107.127 103.491 110.371C106.087 113.614 107.91 117.533 108.901 122.03C109.575 126.725 110.011 131.361 110.15 135.838C110.209 139.101 109.714 142.026 108.703 144.473C107.692 146.9 106.127 148.97 104.046 150.621C99.7856 154.003 93.1867 155.814 84.4278 156.013H84.1305H84.1107L83.0406 156.053Z" fill="black"/>
<path d="M80.0681 98.8705C80.187 98.8506 80.3258 98.8307 80.4447 98.8307C80.5041 98.8307 80.5834 98.8307 80.6428 98.8307C80.5041 98.8506 80.3456 98.8506 80.2069 98.8506C80.1474 98.8506 80.1078 98.8506 80.0681 98.8705Z" fill="#A87D4F"/>
<path d="M71.2893 119.762C74.2023 119.762 76.6992 121.055 78.78 123.622C80.8409 126.188 81.8713 129.272 81.8713 132.893C81.8713 136.515 80.8409 139.599 78.78 142.165C76.6992 144.732 74.2023 146.025 71.2893 146.025C68.3763 146.025 65.8794 144.732 63.8185 142.165C61.7378 139.599 60.7073 136.515 60.7073 132.893C60.7073 129.272 61.7378 126.168 63.8185 123.622C65.8794 121.055 68.3763 119.762 71.2893 119.762Z" fill="#D3CBB4"/>
<path d="M81.1581 158.042H83.0406H83.0604L84.1305 158.023H84.4476H84.4674C89.045 157.923 93.1074 157.386 96.5357 156.431C100.023 155.456 102.956 154.043 105.275 152.193C109.971 148.472 112.27 142.961 112.131 135.798V135.778C111.973 131.222 111.557 126.487 110.863 121.712C110.863 121.692 110.863 121.672 110.843 121.632C109.773 116.837 107.831 112.639 105.037 109.137C102.243 105.655 98.557 102.79 94.0784 100.621C90.9672 99.1092 87.5984 98.1741 84.0909 97.8358H84.0711C83.9918 97.8358 83.9126 97.8159 83.8531 97.8159C83.8333 97.8159 83.8135 97.8159 83.7937 97.8159L83.1992 97.796C83.1199 97.796 83.0208 97.7761 82.9217 97.7761H81.2968C81.2373 97.7761 81.1581 97.7761 81.0986 97.796L80.623 97.8159C80.6032 97.8159 80.6032 97.8159 80.5834 97.8159C80.5239 97.8159 80.4645 97.8159 80.3852 97.8159C80.2465 97.8159 80.1276 97.8358 79.9889 97.8358C79.9096 97.8358 79.8304 97.8557 79.7511 97.8756C76.3625 98.2337 73.1126 99.1689 70.1004 100.621C65.6219 102.79 61.936 105.655 59.1419 109.137C56.3478 112.639 54.4058 116.837 53.3159 121.632C53.3159 121.652 53.296 121.672 53.296 121.712C52.6025 126.487 52.1665 131.222 52.0278 135.778V135.798C51.9089 142.961 54.2076 148.472 58.9041 152.193C61.2226 154.043 64.1753 155.456 67.6432 156.431C71.0715 157.386 75.1338 157.923 79.7115 158.023H79.7313H80.0483L81.1581 158.042C81.1382 158.042 81.1382 158.042 81.1581 158.042ZM83.0406 156.053H81.1581L80.088 156.033H80.0682H79.7709C71.012 155.834 64.4131 154.003 60.1526 150.641C58.0718 148.99 56.5063 146.92 55.4957 144.493C54.4652 142.046 53.9896 139.121 54.0491 135.858C54.2076 131.401 54.6237 126.745 55.2975 122.05C56.3082 117.573 58.1313 113.653 60.7272 110.39C63.3232 107.127 66.7713 104.461 70.9922 102.432C73.8458 101.059 76.9371 100.184 80.1672 99.8652C80.1871 99.8652 80.1871 99.8652 80.2069 99.8652H80.2267C80.2465 99.8652 80.2861 99.8652 80.306 99.8454C80.4447 99.8454 80.5636 99.8255 80.7023 99.8255L81.1977 99.7857C81.2373 99.7857 81.277 99.7857 81.3166 99.7857H82.9019C82.9415 99.7857 82.9812 99.7857 83.0208 99.7857C83.0406 99.7857 83.0604 99.7857 83.0803 99.7857L83.6946 99.8056C83.754 99.8056 83.8333 99.8255 83.9126 99.8255C87.1823 100.144 90.3331 101.019 93.2263 102.412C97.4472 104.441 100.895 107.127 103.491 110.371C106.087 113.614 107.91 117.533 108.901 122.03C109.575 126.725 110.011 131.361 110.15 135.838C110.209 139.101 109.714 142.026 108.703 144.473C107.692 146.9 106.127 148.97 104.046 150.621C99.7856 154.003 93.1867 155.814 84.4278 156.013H84.1305H84.1107L83.0406 156.053Z" fill="black"/>
<path d="M104.121 163.285C99.4646 164.578 94.5303 164.578 89.2789 163.285C88.6249 159.704 88.2286 156.281 88.0701 153.038C88.0304 151.944 88.0106 151.248 88.0106 150.949L102.497 149.954C102.437 153.357 102.972 157.813 104.121 163.285Z" fill="#A87D4D"/>
<path d="M89.2986 176.954H97.8593C100.158 176.954 102.14 176.237 103.765 174.845C105.449 173.452 106.301 171.701 106.301 169.632C106.301 168.995 106.222 168.378 106.063 167.781C105.707 166.23 105.37 164.678 105.092 163.166C105.092 163.146 105.092 163.106 105.073 163.086C103.963 157.694 103.408 153.277 103.467 149.974C103.467 149.417 103.031 148.979 102.496 148.959C101.942 148.959 101.506 149.397 101.486 149.934C101.446 153.376 102.001 157.913 103.131 163.424C103.131 163.444 103.131 163.464 103.15 163.484C103.448 165.016 103.784 166.608 104.141 168.219C104.141 168.239 104.141 168.239 104.141 168.259C104.26 168.697 104.319 169.154 104.319 169.612C104.319 171.064 103.725 172.278 102.496 173.293C102.496 173.293 102.496 173.293 102.477 173.313C101.188 174.407 99.6824 174.944 97.8593 174.944H89.2986C88.9815 174.944 88.6843 174.924 88.387 174.865H88.3672C87.4358 174.745 86.6035 174.467 85.8505 173.989L85.8307 173.969C85.5136 173.79 85.2164 173.571 84.9191 173.313C84.8993 173.293 84.8993 173.293 84.8795 173.293C83.6509 172.278 83.0564 171.064 83.0564 169.612C83.0564 168.14 83.6509 166.926 84.8993 165.871C85.9099 165.016 87.0593 164.518 88.387 164.339C88.6644 164.3 88.9617 164.28 89.2589 164.26C89.2986 164.26 89.3184 164.26 89.358 164.26C89.4769 164.24 89.576 164.22 89.6751 164.16C89.8138 164.101 89.9327 164.001 90.012 163.882C90.111 163.762 90.1705 163.643 90.2101 163.484C90.2299 163.384 90.2498 163.265 90.2299 163.146C90.2299 163.106 90.2299 163.086 90.2101 163.046C89.5562 159.544 89.1599 156.142 89.0211 152.939C88.9815 151.864 88.9617 151.168 88.9617 150.87C88.9419 150.332 88.5059 149.895 87.9709 149.895H87.951C87.3962 149.915 86.9602 150.352 86.98 150.909C86.98 151.228 86.9999 151.904 87.0593 153.018C87.1782 155.983 87.5349 159.107 88.0898 162.33C86.4252 162.569 84.9191 163.245 83.631 164.3C81.9466 165.732 81.0945 167.503 81.0945 169.552C81.0945 171.602 81.9466 173.352 83.631 174.745C84.0076 175.083 84.4237 175.382 84.8398 175.621C85.8307 176.237 86.9404 176.616 88.1294 176.775C88.4861 176.914 88.8824 176.954 89.2986 176.954C89.2787 176.954 89.2787 176.954 89.2986 176.954Z" fill="black"/>
<path d="M93.2445 136.409C93.522 136.131 93.8588 135.932 94.2354 135.812C98.7139 134.34 103.192 133.842 107.711 134.28C107.81 135.613 107.889 136.966 107.948 138.359C108.008 138.717 108.008 139.075 107.988 139.473C107.929 141.324 107.235 142.875 105.907 144.129C104.56 145.402 102.955 145.999 101.112 145.939C99.2688 145.88 97.7033 145.183 96.4548 143.811C95.7414 143.074 95.2262 142.219 94.8893 141.264C94.1759 141.184 93.5814 140.886 93.1256 140.388C92.6104 139.811 92.3528 139.115 92.3726 138.359C92.3726 137.603 92.6699 136.946 93.2445 136.409Z" fill="#4E4943"/>
<path d="M104.917 121.308C106.106 124.491 106.898 127.734 107.314 131.077C107.453 132.151 107.572 133.226 107.691 134.28C103.173 133.842 98.6744 134.34 94.2157 135.812C93.9779 133.027 93.4627 130.221 92.6898 127.396C91.917 124.571 90.2127 121.467 87.5573 118.084L98.1592 112.653C101.33 114.802 103.569 117.687 104.917 121.308Z" fill="#A87D4F"/>
<path d="M101.33 146.954C103.331 146.954 105.095 146.258 106.581 144.865C108.107 143.413 108.919 141.622 108.979 139.513C108.999 139.075 108.979 138.657 108.919 138.259C108.84 136.887 108.761 135.534 108.682 134.22V134.2V134.181C108.563 133.106 108.444 132.032 108.305 130.957C107.869 127.555 107.037 124.193 105.848 120.969C104.441 117.189 102.043 114.105 98.7138 111.857C98.258 111.558 97.6437 111.678 97.3465 112.115C97.0492 112.573 97.1681 113.19 97.6041 113.488C100.577 115.518 102.737 118.263 104.005 121.666C105.154 124.75 105.947 127.973 106.363 131.216C106.502 132.271 106.621 133.345 106.74 134.399C106.839 135.713 106.918 137.066 106.977 138.438C106.977 138.478 106.977 138.498 106.977 138.538C107.017 138.816 107.037 139.135 107.017 139.453V139.473C106.977 141.065 106.383 142.358 105.233 143.452C104.084 144.547 102.737 145.044 101.151 145.004C99.5659 144.964 98.2779 144.368 97.1879 143.194C96.5736 142.557 96.1179 141.821 95.8404 141.005C95.7215 140.647 95.3846 140.388 95.0081 140.348C94.5325 140.289 94.156 140.11 93.8588 139.791C93.5021 139.393 93.3435 138.976 93.3634 138.458C93.3832 137.941 93.5615 137.543 93.938 137.205L93.9579 137.185C94.1362 137.006 94.3344 136.887 94.5523 136.807C94.6316 136.787 94.6911 136.747 94.7703 136.707C94.8892 136.628 95.0081 136.528 95.0874 136.409C95.1667 136.29 95.2261 136.15 95.2459 135.991C95.2657 135.912 95.2657 135.832 95.2459 135.752C94.9883 132.927 94.4731 130.042 93.7002 127.177C92.9076 124.232 91.1241 120.969 88.3894 117.507C88.0525 117.07 87.4184 117.01 87.0023 117.348C86.5663 117.686 86.5068 118.323 86.8437 118.741C89.4 122.004 91.0646 125.028 91.7978 127.714C92.4914 130.241 92.967 132.788 93.2246 135.295C93.0067 135.434 92.8085 135.593 92.6103 135.772C91.8573 136.489 91.461 137.364 91.4213 138.419C91.4015 139.453 91.7384 140.368 92.432 141.144C92.9274 141.682 93.5219 142.04 94.2155 142.219C94.592 143.074 95.127 143.87 95.781 144.567C97.2276 146.118 99.0309 146.954 101.131 147.014C101.171 146.954 101.25 146.954 101.33 146.954Z" fill="black"/>
<path d="M96.0425 39.5743C96.106 39.0254 96.0942 38.4444 95.9952 37.8475C95.3892 34.3812 94.371 30.9025 92.9565 27.4233C92.588 26.5236 92.0451 25.7908 91.3397 25.209C90.6382 24.6551 89.9011 24.3478 89.1005 24.2911C86.437 24.1724 83.8766 24.9769 81.4151 26.6767C80.8086 27.0898 80.3567 27.694 80.0435 28.4774C79.7422 29.2449 79.6628 30.0804 79.7776 30.9877C80.1775 34.6964 81.1124 38.2865 82.5983 41.7698C82.7924 42.2395 83.0341 42.6456 83.3234 42.9882L96.0425 39.5743Z" fill="#A87D4F"/>
<path d="M83.3273 44.0108C83.5532 44.0071 83.7712 43.9477 83.9615 43.7927C84.3935 43.4471 84.4451 42.8145 84.0885 42.3963C83.8665 42.1295 83.6763 41.7871 83.5099 41.4128C82.0676 38.037 81.1406 34.5027 80.7566 30.9054C80.6774 30.1493 80.7251 29.4889 80.963 28.8725C81.189 28.272 81.5219 27.8268 81.9738 27.521C84.2411 25.9482 86.6272 25.2111 89.033 25.3096C89.6315 25.3382 90.1863 25.5577 90.7293 25.9921C91.3079 26.4782 91.7319 27.0716 92.0489 27.8081C93.4357 31.1918 94.434 34.6307 95.0123 38.0015C95.0994 38.5148 95.0993 39.0122 95.0517 39.4737C94.9882 40.0227 95.3845 40.5205 95.9156 40.5729C96.4626 40.6372 96.958 40.24 97.0096 39.7069C97.089 39.0704 97.0653 38.4059 96.9504 37.6975C96.9504 37.6975 96.9504 37.6975 96.9465 37.6697C96.3603 34.1437 95.3144 30.5695 93.8801 27.0504C93.4323 25.9915 92.7983 25.1154 91.9819 24.4499C91.9819 24.4499 91.9819 24.4499 91.966 24.4379C91.1179 23.7486 90.1588 23.3734 89.1601 23.3164C89.1601 23.3164 89.1442 23.3044 89.1323 23.3203C86.2668 23.1735 83.4883 24.0374 80.8484 25.8763C80.0755 26.4125 79.4888 27.1637 79.1161 28.1261C78.7791 29.0409 78.6521 30.0394 78.7907 31.1138C79.2025 34.9061 80.1691 38.6195 81.6787 42.1705C81.9125 42.7199 82.2097 43.2176 82.5505 43.6239C82.7447 43.8947 83.03 44.0104 83.3273 44.0108Z" fill="black"/>
<path d="M11.4336 53.0257C13.2369 49.9019 15.3969 47.1562 17.9532 44.7686C20.5294 42.3811 23.3235 40.471 26.3752 39.0584C29.5062 37.6258 32.7363 36.7703 36.0655 36.5315C45.7161 35.7755 55.4461 35.3576 65.2552 35.3178C65.5921 35.3178 65.929 35.3178 66.2659 35.3178C74.2916 35.2979 82.3569 35.5168 90.5015 35.9744C95.0593 36.2132 99.3 37.5064 103.204 39.8542C104.75 40.7894 106.196 41.8439 107.524 43.0376C109.446 44.7487 111.15 46.7185 112.656 48.9668C115.233 52.7869 116.957 57.0646 117.848 61.7602C118.78 66.6547 118.74 71.6288 117.729 76.6825C117.333 78.5926 116.937 80.4827 116.521 82.353C109.525 107.482 90.4817 116.396 59.4292 109.094L52.9095 107.383C52.4141 107.243 51.9385 107.124 51.4431 106.985C47.4996 105.91 43.576 104.756 39.6325 103.563C15.8328 96.6585 4.77521 84.8401 6.41998 68.0873C6.73705 66.5154 7.07393 64.9237 7.45044 63.332C8.26292 59.6512 9.59062 56.229 11.4336 53.0257Z" fill="#A87D4F"/>
<path d="M78.5521 112.556C79.206 112.556 79.8401 112.536 80.4743 112.516C86.8354 112.317 92.5425 111.044 97.3976 108.775C102.272 106.487 106.434 103.125 109.783 98.7475C113.092 94.4101 115.668 88.9784 117.452 82.6115C117.452 82.5916 117.452 82.5717 117.472 82.5717C117.888 80.7015 118.304 78.7914 118.7 76.9013C119.751 71.7481 119.79 66.5949 118.839 61.581C117.927 56.7661 116.124 52.3491 113.508 48.4295C111.963 46.1215 110.179 44.0722 108.217 42.3213C106.83 41.0877 105.324 39.9735 103.739 39.0185C99.6963 36.5911 95.2574 35.2381 90.5609 34.9795C82.4361 34.5219 74.2519 34.303 66.2658 34.3229C65.9289 34.3229 65.5921 34.3229 65.2552 34.3229C55.4658 34.3627 45.617 34.7805 35.9862 35.5366C32.5579 35.7952 29.1891 36.6707 25.9788 38.1629C22.8478 39.6153 19.9348 41.605 17.2992 44.0523C14.6834 46.4796 12.4243 49.3447 10.6012 52.5281C8.71863 55.7911 7.33147 59.3327 6.45954 63.0533C6.08303 64.665 5.74615 66.2766 5.42908 67.8484C5.42908 67.8882 5.40927 67.9081 5.40927 67.9479C4.99313 72.2654 5.38945 76.3044 6.59826 80.0051C7.82688 83.7058 9.8878 87.128 12.7414 90.1722C15.5751 93.1964 19.261 95.9422 23.6801 98.3098C28.0794 100.677 33.3506 102.747 39.3352 104.478C43.2588 105.672 47.242 106.825 51.1656 107.9C51.661 108.039 52.1564 108.178 52.6519 108.318L59.1715 110.049H59.1913C66.2064 111.72 72.726 112.556 78.5521 112.556ZM115.55 82.0942C113.845 88.2024 111.368 93.4153 108.217 97.5339C105.067 101.633 101.163 104.816 96.5653 106.965C91.948 109.133 86.5183 110.327 80.4148 110.526C74.2717 110.725 67.2765 109.909 59.6471 108.119L53.1473 106.408C52.6717 106.288 52.1763 106.149 51.6809 106.01C47.7572 104.935 43.7939 103.781 39.89 102.588C39.89 102.588 39.89 102.588 39.8702 102.588C34.0243 100.896 28.872 98.8669 24.6115 96.5589C20.3708 94.2708 16.8632 91.6644 14.1682 88.7993C11.5128 85.9541 9.59055 82.7906 8.46101 79.3684C7.33147 75.9661 6.95496 72.1858 7.35129 68.1866C7.64854 66.6347 7.98541 65.0629 8.36192 63.511C9.19422 59.9694 10.5021 56.6268 12.2856 53.523C14.0295 50.4987 16.1498 47.8127 18.6269 45.5047C21.104 43.1967 23.8585 41.3264 26.7913 39.9735C29.8034 38.6006 32.9344 37.765 36.1249 37.5262C45.7161 36.7702 55.5054 36.3722 65.2552 36.3125C65.5921 36.3125 65.9289 36.3125 66.2658 36.3125C74.2321 36.2926 82.3568 36.5115 90.442 36.9691C94.8214 37.2079 98.9433 38.4614 102.689 40.7097C104.175 41.605 105.582 42.6396 106.87 43.7936C108.713 45.445 110.397 47.375 111.844 49.5437C114.321 53.2245 116.005 57.4028 116.877 61.9391C117.789 66.6745 117.749 71.569 116.758 76.4834C116.362 78.3537 115.966 80.2439 115.55 82.0942Z" fill="black"/>
<path d="M13.118 65.6399C14.1484 60.3276 16.6849 56.1096 20.7275 52.9858C24.7701 49.882 29.1495 48.7678 33.8461 49.683C38.5426 50.5982 42.169 53.2644 44.765 57.6615C47.3609 62.0586 48.1338 66.9332 47.1231 72.2456C46.9646 73.1011 46.7466 73.9368 46.5088 74.7326C45.2406 78.9109 42.9022 82.2933 39.5334 84.8997C38.4633 85.7155 37.3932 86.3919 36.2835 86.9291C33.1723 88.4413 29.8828 88.8591 26.4149 88.1826C23.1055 87.5459 20.3114 86.0338 18.0523 83.6462C17.5172 83.109 17.0218 82.5121 16.5661 81.8754C16.1895 81.3581 15.813 80.801 15.4761 80.2041C12.8802 75.8269 12.0875 70.9523 13.118 65.6399Z" fill="#4E4943"/>
<path d="M78.5521 112.556C79.206 112.556 79.8401 112.536 80.4743 112.516C86.8354 112.317 92.5425 111.044 97.3976 108.775C102.272 106.487 106.434 103.125 109.783 98.7475C113.092 94.4101 115.668 88.9784 117.452 82.6115C117.452 82.5916 117.452 82.5717 117.472 82.5717C117.888 80.7015 118.304 78.7914 118.7 76.9013C119.751 71.7481 119.79 66.5949 118.839 61.581C117.927 56.7661 116.124 52.3491 113.508 48.4295C111.963 46.1215 110.179 44.0722 108.217 42.3213C106.83 41.0877 105.324 39.9735 103.739 39.0185C99.6963 36.5911 95.2574 35.2381 90.5609 34.9795C82.4361 34.5219 74.2519 34.303 66.2658 34.3229C65.9289 34.3229 65.5921 34.3229 65.2552 34.3229C55.4658 34.3627 45.617 34.7805 35.9862 35.5366C32.5579 35.7952 29.1891 36.6707 25.9788 38.1629C22.8478 39.6153 19.9348 41.605 17.2992 44.0523C14.6834 46.4796 12.4243 49.3447 10.6012 52.5281C8.71863 55.7911 7.33147 59.3327 6.45954 63.0533C6.08303 64.665 5.74615 66.2766 5.42908 67.8484C5.42908 67.8882 5.40927 67.9081 5.40927 67.9479C4.99313 72.2654 5.38945 76.3044 6.59826 80.0051C7.82688 83.7058 9.8878 87.128 12.7414 90.1722C15.5751 93.1964 19.261 95.9422 23.6801 98.3098C28.0794 100.677 33.3506 102.747 39.3352 104.478C43.2588 105.672 47.242 106.825 51.1656 107.9C51.661 108.039 52.1564 108.178 52.6519 108.318L59.1715 110.049H59.1913C66.2064 111.72 72.726 112.556 78.5521 112.556ZM115.55 82.0942C113.845 88.2024 111.368 93.4153 108.217 97.5339C105.067 101.633 101.163 104.816 96.5653 106.965C91.948 109.133 86.5183 110.327 80.4148 110.526C74.2717 110.725 67.2765 109.909 59.6471 108.119L53.1473 106.408C52.6717 106.288 52.1763 106.149 51.6809 106.01C47.7572 104.935 43.7939 103.781 39.89 102.588C39.89 102.588 39.89 102.588 39.8702 102.588C34.0243 100.896 28.872 98.8669 24.6115 96.5589C20.3708 94.2708 16.8632 91.6644 14.1682 88.7993C11.5128 85.9541 9.59055 82.7906 8.46101 79.3684C7.33147 75.9661 6.95496 72.1858 7.35129 68.1866C7.64854 66.6347 7.98541 65.0629 8.36192 63.511C9.19422 59.9694 10.5021 56.6268 12.2856 53.523C14.0295 50.4987 16.1498 47.8127 18.6269 45.5047C21.104 43.1967 23.8585 41.3264 26.7913 39.9735C29.8034 38.6006 32.9344 37.765 36.1249 37.5262C45.7161 36.7702 55.5054 36.3722 65.2552 36.3125C65.5921 36.3125 65.9289 36.3125 66.2658 36.3125C74.2321 36.2926 82.3568 36.5115 90.442 36.9691C94.8214 37.2079 98.9433 38.4614 102.689 40.7097C104.175 41.605 105.582 42.6396 106.87 43.7936C108.713 45.445 110.397 47.375 111.844 49.5437C114.321 53.2245 116.005 57.4028 116.877 61.9391C117.789 66.6745 117.749 71.569 116.758 76.4834C116.362 78.3537 115.966 80.2439 115.55 82.0942Z" fill="black"/>
<path d="M34.5036 63.5814C34.5829 63.1437 34.8207 62.7856 35.1972 62.5468C35.5737 62.2882 35.97 62.2086 36.406 62.3081C36.842 62.3876 37.1987 62.6264 37.4365 62.9845C37.6743 63.3427 37.7733 63.7605 37.6743 64.1982C37.5752 64.6359 37.3572 64.9941 37.0005 65.2328C36.624 65.4915 36.2277 65.5711 35.7917 65.4915C35.3557 65.4119 34.999 65.1731 34.7612 64.7951C34.5036 64.437 34.4244 64.0192 34.5036 63.5814ZM23.1289 61.3729C23.2082 60.9352 23.446 60.5771 23.8225 60.3383C24.199 60.0797 24.5954 60.0001 25.0511 60.0996C25.4871 60.1791 25.8438 60.4179 26.0816 60.776C26.3194 61.1342 26.4185 61.552 26.3194 61.9897C26.2401 62.4274 26.0023 62.7856 25.6456 63.0243C25.2691 63.283 24.8728 63.3626 24.4368 63.283C24.0009 63.2034 23.6442 62.9646 23.4064 62.5866C23.1289 62.2086 23.0299 61.8106 23.1289 61.3729Z" fill="black"/>
<path d="M36.1285 66.5261C36.6437 66.5261 37.1392 66.3669 37.5949 66.0685C38.1696 65.6706 38.5461 65.0936 38.6849 64.3972C38.8236 63.7008 38.6849 63.0044 38.2885 62.4274C37.8922 61.8504 37.3175 61.4525 36.6239 61.3132C35.9304 61.174 35.2566 61.3132 34.6621 61.7112C34.0676 62.1091 33.6911 62.6861 33.5524 63.3825C33.4137 64.0788 33.5524 64.7752 33.9685 65.3522C34.3648 65.9491 34.9395 66.3271 35.6331 66.4664C35.7916 66.5062 35.9502 66.5261 36.1285 66.5261ZM36.0889 63.2432C36.1285 63.2432 36.188 63.2432 36.2276 63.2631C36.406 63.3029 36.5248 63.3825 36.6437 63.5217C36.7428 63.6809 36.7626 63.8202 36.723 63.9992C36.6834 64.1783 36.6041 64.2977 36.4654 64.4171C36.4654 64.4171 36.4654 64.4171 36.4456 64.4171C36.2871 64.5166 36.1682 64.5564 35.9898 64.5166C35.8115 64.4768 35.6926 64.3972 35.5935 64.238C35.5935 64.238 35.5935 64.2181 35.5737 64.2181C35.4746 64.0589 35.4349 63.9396 35.4746 63.7605C35.5142 63.5814 35.5935 63.462 35.752 63.3626C35.8709 63.283 35.97 63.2432 36.0889 63.2432ZM24.734 64.3176C25.2492 64.3176 25.7447 64.1584 26.2004 63.86C26.7751 63.462 27.1516 62.8851 27.2903 62.1887C27.4291 61.4923 27.2903 60.7959 26.894 60.2189C26.4977 59.6419 25.923 59.244 25.2294 59.1047C24.5359 58.9655 23.8621 59.1047 23.2676 59.5027C22.6731 59.9006 22.2966 60.4776 22.1579 61.174C22.0192 61.8703 22.1579 62.5667 22.574 63.1437C22.9703 63.7406 23.545 64.1186 24.2386 64.2579C24.3971 64.2977 24.5755 64.3176 24.734 64.3176ZM24.6944 61.0347C24.734 61.0347 24.7935 61.0347 24.8331 61.0546C25.0114 61.0944 25.1303 61.174 25.2492 61.3132C25.3483 61.4724 25.388 61.6117 25.3483 61.7907C25.3087 61.9698 25.2294 62.0892 25.0907 62.2086C24.9322 62.3081 24.8133 62.3478 24.6349 62.3081C24.4566 62.2683 24.3377 62.1887 24.2386 62.0295C24.2386 62.0295 24.2386 62.0096 24.2188 62.0096C24.1197 61.8504 24.0801 61.7311 24.1197 61.552C24.1593 61.3729 24.2386 61.2535 24.3971 61.1541C24.4764 61.0745 24.5755 61.0347 24.6944 61.0347Z" fill="black"/>
<path d="M105.877 46.258C106.154 45.7805 106.511 45.3229 106.947 44.9051C109.503 42.4976 112.396 40.3289 115.607 38.399C116.439 37.9015 117.311 37.6429 118.223 37.6031C119.114 37.5832 119.887 37.7822 120.561 38.2398C122.761 39.7519 124.326 41.9206 125.277 44.7658C125.515 45.4622 125.515 46.2183 125.277 47.034C125.059 47.8299 124.623 48.5461 123.989 49.2226C121.453 51.9484 118.559 54.2564 115.29 56.1466C114.854 56.4052 114.418 56.5843 113.982 56.6838L105.877 46.258Z" fill="#A87D4F"/>
<path d="M113.982 57.6985C114.061 57.6985 114.14 57.6985 114.22 57.6786C114.755 57.5592 115.27 57.3403 115.785 57.0419C119.114 55.1119 122.126 52.7243 124.703 49.9388C125.456 49.143 125.971 48.2675 126.248 47.3324C126.526 46.3177 126.526 45.3627 126.229 44.4872C125.198 41.4033 123.494 39.0356 121.116 37.4041C121.116 37.4041 121.096 37.4041 121.096 37.3842C120.244 36.8271 119.273 36.5684 118.183 36.5883C118.183 36.5883 118.183 36.5883 118.163 36.5883C117.093 36.6281 116.063 36.9465 115.092 37.5235C111.842 39.4733 108.869 41.7017 106.273 44.149C106.273 44.149 106.273 44.149 106.253 44.1689C105.758 44.6663 105.322 45.1836 105.005 45.7407C104.728 46.2182 104.886 46.8151 105.362 47.0937C105.837 47.3722 106.432 47.213 106.709 46.7355C106.947 46.3376 107.244 45.9596 107.621 45.5815C110.118 43.2735 112.971 41.1247 116.102 39.2545C116.796 38.8565 117.509 38.6377 118.242 38.5979C118.916 38.578 119.511 38.7372 120.006 39.0555C122.008 40.4284 123.454 42.4578 124.346 45.0841C124.504 45.6014 124.504 46.1585 124.346 46.7753C124.168 47.412 123.831 47.989 123.296 48.5262C120.838 51.1525 117.985 53.4207 114.814 55.2711C114.457 55.4701 114.121 55.6093 113.764 55.7088C113.229 55.8481 112.912 56.3853 113.031 56.9026C113.13 57.3801 113.546 57.6985 113.982 57.6985Z" fill="black"/>
<path d="M92.8301 63.2115C93.1217 61.7098 93.7186 60.5115 94.6597 59.6245C95.624 58.7218 96.6224 58.3727 97.6745 58.5811C98.746 58.7933 99.5399 59.4973 100.076 60.6971C100.654 61.8851 100.778 63.2261 100.487 64.7279C100.199 66.2101 99.5863 67.385 98.622 68.2877C97.6577 69.1903 96.6592 69.5394 95.5877 69.3272C94.5356 69.1189 93.7417 68.4148 93.2059 67.215C92.6663 66.0347 92.5423 64.6937 92.8301 63.2115ZM95.6841 60.4957C95.4 60.5002 95.1478 60.6528 94.9314 60.934C94.7149 61.2152 94.6078 61.5585 94.5748 61.9368C94.5613 62.3189 94.6446 62.619 94.8368 62.8798C95.0327 63.1211 95.2746 63.2298 95.5587 63.2253C95.8428 63.2208 96.095 63.0682 96.292 62.7832C96.5084 62.502 96.6156 62.1587 96.6448 61.7999C96.6583 61.4178 96.5787 61.0982 96.3828 60.8569C96.1945 60.5766 95.9526 60.4679 95.6841 60.4957Z" fill="black"/>
<path d="M94.9171 60.9304C95.1335 60.6492 95.3857 60.4966 95.6698 60.4921C95.9382 60.4643 96.1763 60.5925 96.3722 60.8338C96.5643 61.0946 96.6672 61.3985 96.6342 61.7768C96.6012 62.155 96.4978 62.4788 96.2814 62.76C96.0649 63.0412 95.8128 63.1938 95.5482 63.2021C95.2641 63.2066 95.0222 63.0979 94.8263 62.8566C94.6342 62.5958 94.5508 62.2958 94.5643 61.9136C94.5935 61.5549 94.7201 61.2154 94.9171 60.9304Z" fill="white"/>
<path d="M96.1926 70.3788C97.2861 70.3725 98.3423 69.9335 99.3104 69.0112C100.422 67.9756 101.134 66.5977 101.46 64.9204C101.79 63.2236 101.63 61.6527 101.004 60.2933C100.326 58.782 99.2671 57.8836 97.8841 57.6098C96.5011 57.336 95.1841 57.7639 93.9915 58.905C92.8996 59.9445 92.1869 61.3224 91.8573 63.0192C91.5315 64.6965 91.6759 66.244 92.3175 67.6268C92.9949 69.1381 94.0348 70.0326 95.4178 70.3064C95.671 70.3565 95.9475 70.391 96.1926 70.3788ZM97.0886 59.5182C97.2093 59.5218 97.3494 59.5293 97.4858 59.5563C97.4858 59.5563 97.4858 59.5563 97.5052 59.5602C98.4792 59.753 98.9347 60.5318 99.1906 61.0888C99.6629 62.0937 99.7505 63.2047 99.4967 64.5114C99.2467 65.7986 98.7537 66.7744 97.9366 67.5443C97.4681 67.9781 96.7549 68.5256 95.781 68.3327C94.8265 68.1438 94.3709 67.365 94.1188 66.7885C94.1188 66.7885 94.1188 66.7885 94.1226 66.769C93.6503 65.7641 93.5627 64.653 93.809 63.3853C94.0628 62.0786 94.5595 61.0833 95.3533 60.3291C95.7483 59.9617 96.3219 59.5082 97.0886 59.5182Z" fill="black"/>
<path d="M94.8598 74.8745C96.3579 75.1708 97.5847 75.6157 98.5558 76.2324C99.527 76.8492 99.9576 77.4399 99.8479 78.0046C99.7381 78.5693 99.1181 78.9522 97.988 79.1533C96.8578 79.3543 95.5553 79.2989 94.0572 79.0026C92.5785 78.7101 91.3517 78.2652 90.3806 77.6484C89.4056 77.0511 88.9555 76.4566 89.0691 75.8724C89.1826 75.2883 89.7988 74.9248 90.9484 74.7276C92.0591 74.5227 93.3616 74.5781 94.8598 74.8745Z" fill="#CF80A6"/>
<path d="M65.2658 57.7845C65.5574 56.2827 66.1543 55.0845 67.0953 54.1974C68.0596 53.2948 69.0581 52.9457 70.1101 53.154C71.1817 53.3662 71.9756 54.0703 72.5114 55.2701C73.09 56.4581 73.214 57.7991 72.9224 59.3008C72.6345 60.783 72.022 61.9579 71.0577 62.8606C70.0933 63.7633 69.0949 64.1124 68.0234 63.9002C66.9713 63.6918 66.1579 62.9839 65.6221 61.7841C65.102 60.6077 64.978 59.2667 65.2658 57.7845ZM68.1003 55.0648C67.8162 55.0693 67.564 55.2219 67.3476 55.5031C67.1311 55.7843 67.024 56.1276 66.991 56.5059C66.9775 56.888 67.0608 57.1881 67.253 57.4489C67.4489 57.6902 67.6908 57.7989 67.9749 57.7944C68.259 57.7899 68.5112 57.6373 68.7082 57.3523C68.9246 57.0711 69.0318 56.7278 69.061 56.369C69.0745 55.9869 68.9949 55.6673 68.799 55.426C68.6301 55.1495 68.3882 55.0408 68.1003 55.0648Z" fill="black"/>
<path d="M67.3528 55.5033C67.5692 55.2222 67.8214 55.0696 68.1055 55.0651C68.3739 55.0372 68.612 55.1654 68.8079 55.4067C69 55.6675 69.1028 55.9714 69.0698 56.3497C69.0368 56.728 68.9335 57.0518 68.7171 57.333C68.5006 57.6141 68.2485 57.7667 67.9838 57.7751C67.6997 57.7795 67.4578 57.6709 67.2619 57.4296C67.0698 57.1687 66.9865 56.8687 67 56.4866C67.033 56.1083 67.1558 55.7884 67.3528 55.5033Z" fill="white"/>
<path d="M68.6283 64.9516C69.7218 64.9453 70.778 64.5063 71.746 63.5841C72.8575 62.5484 73.5701 61.1705 73.8959 59.4932C74.2255 57.7965 74.0655 56.2255 73.4395 54.8661C72.7621 53.3548 71.7027 52.4565 70.3198 52.1827C68.9368 51.9088 67.6198 52.3367 66.4272 53.4778C65.3352 54.5173 64.6226 55.8952 64.293 57.592C63.9672 59.2693 64.1116 60.8169 64.7532 62.1996C65.4306 63.7109 66.4705 64.6054 67.8535 64.8792C68.1067 64.9294 68.3832 64.9638 68.6283 64.9516ZM69.5243 54.091C69.6449 54.0946 69.7851 54.1021 69.9214 54.1291C69.9214 54.1291 69.9214 54.1291 69.9409 54.133C70.9148 54.3258 71.3704 55.1046 71.6263 55.6616C72.0986 56.6665 72.1862 57.7775 71.9324 59.0842C71.6823 60.3714 71.1894 61.3473 70.3723 62.1171C69.9037 62.551 69.1905 63.0984 68.2166 62.9055C67.2622 62.7166 66.8066 61.9378 66.5545 61.3613C66.5545 61.3613 66.5545 61.3613 66.5583 61.3418C66.086 60.3369 65.9984 59.2259 66.2446 57.9581C66.4984 56.6514 66.9952 55.6561 67.789 54.9019C68.184 54.5345 68.7576 54.081 69.5243 54.091Z" fill="black"/>
<path d="M67.2763 69.4433C68.7744 69.7397 70.0012 70.1845 70.9723 70.8013C71.9435 71.418 72.3742 72.0088 72.2644 72.5734C72.1546 73.1381 71.5346 73.521 70.4045 73.7221C69.2743 73.9232 67.9718 73.8677 66.4737 73.5714C64.995 73.2789 63.7488 72.8302 62.7776 72.2134C61.8027 71.6162 61.3526 71.0216 61.4661 70.4374C61.5797 69.8533 62.1959 69.4898 63.3455 69.2926C64.4951 69.0954 65.7976 69.1508 67.2763 69.4433Z" fill="#CF80A6"/>
<path d="M28.9351 79.4189C31.1744 79.4189 33.3344 78.6031 35.3358 76.9716C36.4257 76.0962 37.3571 75.0815 38.1101 73.9076C38.4074 73.4499 38.2885 72.8332 37.8327 72.5347C37.3769 72.2363 36.7626 72.3556 36.4654 72.8133C35.8312 73.7882 35.0386 74.6636 34.1072 75.4197C31.967 77.1507 29.7476 77.7476 27.3498 77.2502C24.952 76.7528 23.1685 75.3202 21.8804 72.873C21.3256 71.8184 20.949 70.7042 20.7311 69.5303C20.632 68.9931 20.1167 68.635 19.5817 68.7345C19.0467 68.834 18.69 69.3513 18.789 69.8885C19.0467 71.2613 19.4826 72.5745 20.1366 73.8081C21.7021 76.7727 24.0008 78.5832 26.9733 79.2C27.6074 79.3393 28.2812 79.4189 28.9351 79.4189Z" fill="black"/>
<path d="M127.858 152.86V152.485H127.483H119.517H119.142V152.86V172.776V173.151H119.517H127.483H127.858V172.776V152.86Z" fill="url(#paint1_linear_135_230329)" stroke="black" stroke-width="0.75"/>
<path d="M137.466 141.126L137.414 141.611L137.897 141.536C150.234 139.611 162.312 129.69 162.312 112.232V106.121C162.312 105.659 161.938 105.285 161.476 105.285H149.369C148.982 105.285 148.64 105.552 148.554 105.935C148.41 106.576 148.024 107.979 147.21 109.213C146.401 110.441 145.2 111.459 143.416 111.459H143.041V111.834V115.419V115.794H143.416C147.715 115.794 150.46 112.898 151.892 109.62H157.977V112.232C157.977 119.996 155.252 126.537 150.116 131.176L150.116 131.176C146.797 134.175 142.602 136.229 138.166 137.092L137.894 137.144L137.865 137.42L137.466 141.126Z" fill="url(#paint3_linear_135_230329)" stroke="black" stroke-width="0.75"/>
<path d="M137.466 141.126L137.414 141.611L137.897 141.536C150.234 139.611 162.312 129.69 162.312 112.232V106.121C162.312 105.659 161.938 105.285 161.476 105.285H149.369C148.982 105.285 148.64 105.552 148.554 105.935C148.41 106.576 148.024 107.979 147.21 109.213C146.401 110.441 145.2 111.459 143.416 111.459H143.041V111.834V115.419V115.794H143.416C147.715 115.794 150.46 112.898 151.892 109.62H157.977V112.232C157.977 119.996 155.252 126.537 150.116 131.176L150.116 131.176C146.797 134.175 142.602 136.229 138.166 137.092L137.894 137.144L137.865 137.42L137.466 141.126Z" fill="url(#paint3_linear_135_230329)" stroke="black" stroke-width="0.75" transform="scale(-1, 1) translate(-247, 0)" />
<path d="M144.992 107.651L145.367 107.646L145.361 107.276H144.992H102.009H101.639L101.634 107.646L102.009 107.651C101.634 107.646 101.634 107.646 101.634 107.646L101.634 107.648L101.634 107.654L101.633 107.677L101.632 107.767C101.632 107.846 101.631 107.963 101.631 108.116C101.631 108.422 101.633 108.87 101.642 109.442C101.66 110.586 101.706 112.225 101.819 114.21C102.043 118.177 102.532 123.527 103.59 129.054C104.647 134.577 106.276 140.296 108.791 144.99C111.304 149.682 114.728 153.393 119.391 154.812L119.444 154.829H119.5H127.501H127.557L127.61 154.812C132.273 153.393 135.696 149.682 138.21 144.99C140.725 140.296 142.354 134.577 143.411 129.054C144.469 123.527 144.958 118.176 145.182 114.21C145.294 112.225 145.341 110.586 145.359 109.442C145.368 108.87 145.37 108.422 145.37 108.116C145.37 107.963 145.369 107.846 145.368 107.767L145.367 107.677L145.367 107.654L145.367 107.648L145.367 107.646C145.367 107.646 145.367 107.646 144.992 107.651Z" fill="url(#paint4_linear_135_230329)" stroke="black" stroke-width="0.75"/>
<path d="M102.03 108.823H144.97C145.694 108.823 146.28 108.237 146.28 107.513V105.997C146.28 105.274 145.694 104.688 144.97 104.688H102.03C101.306 104.688 100.72 105.274 100.72 105.997V107.513C100.72 108.237 101.306 108.823 102.03 108.823Z" fill="url(#paint5_linear_135_230329)" stroke="black" stroke-width="0.75"/>
</g>
<defs>
<linearGradient id="paint0_linear_135_230329" x1="123.5" y1="0" x2="123.5" y2="164" gradientUnits="userSpaceOnUse">
<stop stop-color="white"/>
<stop offset="1" stop-color="#99DBFB"/>
</linearGradient>
<linearGradient id="paint1_linear_135_230329" x1="123.5" y1="152.86" x2="123.5" y2="172.776" gradientUnits="userSpaceOnUse">
<stop offset="0.0869369" stop-color="#F5CF54"/>
<stop offset="0.817207" stop-color="#FAFF00"/>
</linearGradient>
<linearGradient id="paint2_linear_135_230329" x1="97.1115" y1="105.66" x2="97.1115" y2="141.166" gradientUnits="userSpaceOnUse">
<stop offset="0.0869369" stop-color="#F5CF54"/>
<stop offset="0.817207" stop-color="#FAFF00"/>
</linearGradient>
<linearGradient id="paint3_linear_135_230329" x1="149.888" y1="105.66" x2="149.888" y2="141.166" gradientUnits="userSpaceOnUse">
<stop offset="0.0869369" stop-color="#F5CF54"/>
<stop offset="0.817207" stop-color="#FAFF00"/>
</linearGradient>
<linearGradient id="paint4_linear_135_230329" x1="123.5" y1="107.651" x2="123.5" y2="154.454" gradientUnits="userSpaceOnUse">
<stop offset="0.0869369" stop-color="#F5CF54"/>
<stop offset="0.817207" stop-color="#FAFF00"/>
</linearGradient>
<linearGradient id="paint5_linear_135_230329" x1="123.5" y1="105.062" x2="123.5" y2="108.448" gradientUnits="userSpaceOnUse">
<stop offset="0.0869369" stop-color="#F5CF54"/>
<stop offset="0.817207" stop-color="#FAFF00"/>
</linearGradient>
</defs>
</svg>
