<svg width="48" height="48" viewBox="0 0 48 48" fill="none" xmlns="http://www.w3.org/2000/svg">
<g clip-path="url(#clip0_857_2850)">
<circle cx="24" cy="24" r="23" stroke="#FF794B" stroke-width="2" stroke-linecap="round" stroke-dasharray="0.1 6"/>
<circle cx="24" cy="24" r="16" fill="#FF794B"/>
<path d="M28.0234 22.375C28.0703 19.3984 25.6562 17.1719 21.9141 17.1406L20.8281 17.1328C19.8047 17.125 19.0234 17.2031 18.5703 17.3203C17.8984 17.4844 17.2969 17.9062 17.2969 18.6797C17.2969 18.9766 17.375 19.2031 17.4688 19.375C17.5234 19.4609 17.5078 19.5391 17.4297 19.5703C16.9141 19.8047 16.5234 20.2812 16.5234 20.9062C16.5234 21.2656 16.625 21.5859 16.7969 21.8125C16.875 21.9219 16.8594 22.0156 16.7344 22.0859C16.375 22.3125 16.125 22.7734 16.125 23.2969C16.125 23.6797 16.2422 24.0781 16.4453 24.2812C16.5547 24.3828 16.5391 24.4531 16.4297 24.5547C16.1719 24.7734 16.0156 25.1484 16.0156 25.6016C16.0156 26.4062 16.6484 27.0625 17.4766 27.0625H20.2969C20.9766 27.0625 21.4219 27.4062 21.4219 27.9609C21.4219 29.0156 20.0859 30.9844 20.0859 32.4141C20.0859 33.1875 20.5859 33.6562 21.25 33.6562C21.8359 33.6562 22.1406 33.2734 22.4688 32.625C23.6641 30.3203 25.2422 28.4453 26.4531 26.8359C27.5078 25.4453 27.9922 24.25 28.0234 22.375ZM31.9688 22.3125C31.9688 19.8906 30.4688 17.8906 28.4531 17.8906H27.1016C28.5078 18.9688 29.1719 20.5703 29.1484 22.3906C29.1172 24.3594 28.4141 25.7891 27.6719 26.7656H28.75C30.5703 26.7656 31.9688 24.8125 31.9688 22.3125Z" fill="white"/>
</g>
<defs>
<clipPath id="clip0_857_2850">
<rect width="48" height="48" fill="white"/>
</clipPath>
</defs>
</svg>
