<svg width="12" height="12" viewBox="0 0 12 12" fill="none" xmlns="http://www.w3.org/2000/svg">
<circle cx="6" cy="6" r="6" fill="#F05252"/>
<path d="M7.95375 4.04627L7.95373 4.04625C7.86005 3.95261 7.73302 3.9 7.60057 3.9C7.46811 3.9 7.34108 3.95261 7.24741 4.04625L7.2474 4.04626L6.0025 5.29116L4.7576 4.04626L4.75761 4.04625L4.75636 4.04504C4.66215 3.95405 4.53597 3.9037 4.405 3.90484C4.27402 3.90598 4.14874 3.95851 4.05612 4.05113C3.96351 4.14374 3.91098 4.26903 3.90984 4.4C3.9087 4.53097 3.95905 4.65715 4.05004 4.75136L4.05003 4.75137L4.05126 4.7526L5.29616 5.9975L4.05184 7.24183C4.00444 7.28777 3.96661 7.34267 3.94055 7.40333C3.91437 7.46427 3.9006 7.52982 3.90002 7.59614C3.89944 7.66247 3.91208 7.72824 3.9372 7.78963C3.96231 7.85102 3.9994 7.90679 4.04631 7.95369C4.09321 8.0006 4.14898 8.03769 4.21037 8.0628C4.27176 8.08792 4.33753 8.10056 4.40386 8.09998C4.47018 8.09941 4.53573 8.08563 4.59667 8.05945C4.65734 8.03339 4.71223 7.99556 4.75818 7.94816L6.0025 6.70384L7.2474 7.94874L7.24739 7.94875L7.24864 7.94996C7.34285 8.04095 7.46903 8.0913 7.6 8.09016C7.73097 8.08902 7.85626 8.03649 7.94887 7.94388C8.04149 7.85126 8.09402 7.72598 8.09516 7.595C8.09629 7.46403 8.04595 7.33785 7.95496 7.24364L7.95497 7.24363L7.95374 7.2424L6.70884 5.9975L7.95374 4.7526L7.95375 4.75259C8.04739 4.65892 8.1 4.53189 8.1 4.39943C8.1 4.26698 8.04739 4.13995 7.95375 4.04627Z" fill="white" stroke="white" stroke-width="0.2"/>
</svg>
