<svg width="16" height="16" viewBox="0 0 16 16" fill="none" xmlns="http://www.w3.org/2000/svg">
<path d="M15.6802 8.17783C15.6802 7.52006 15.6268 7.04005 15.5113 6.54228H8.00012V9.51115H12.409C12.3201 10.249 11.8401 11.3601 10.7734 12.1067L10.7585 12.2061L13.1334 14.0459L13.2979 14.0623C14.809 12.6667 15.6802 10.6134 15.6802 8.17783Z" fill="#4285F4"/>
<path d="M8.00011 16C10.1601 16 11.9734 15.2888 13.2979 14.0622L10.7734 12.1066C10.0979 12.5777 9.1912 12.9066 8.00011 12.9066C5.88456 12.9066 4.08901 11.5111 3.44895 9.5822L3.35513 9.59017L0.885688 11.5013L0.853394 11.5911C2.16894 14.2044 4.87118 16 8.00011 16Z" fill="#34A853"/>
<path d="M3.44887 9.58225C3.27998 9.08448 3.18224 8.55111 3.18224 8.00002C3.18224 7.44887 3.27998 6.91556 3.43998 6.41779L3.43551 6.31177L0.935124 4.36995L0.853316 4.40886C0.311116 5.49332 0 6.71113 0 8.00002C0 9.28891 0.311116 10.5067 0.853316 11.5911L3.44887 9.58225Z" fill="#FBBC05"/>
<path d="M8.00011 3.09332C9.50231 3.09332 10.5156 3.74221 11.0934 4.28447L13.3512 2.08001C11.9646 0.791117 10.1601 0 8.00011 0C4.87118 0 2.16894 1.79555 0.853394 4.40887L3.44006 6.41779C4.08901 4.4889 5.88456 3.09332 8.00011 3.09332Z" fill="#EB4335"/>
</svg>
