<svg width="16" height="16" viewBox="0 0 16 16" fill="none" xmlns="http://www.w3.org/2000/svg">
<path d="M12.3237 13.0259C12.501 13.2031 12.7856 13.2085 12.9629 13.0259C13.1455 12.8379 13.1401 12.564 12.9629 12.3867L3.66016 3.09473C3.48828 2.91748 3.19287 2.91748 3.01562 3.09473C2.84375 3.2666 2.84375 3.56201 3.01562 3.73389L12.3237 13.0259ZM12.8286 11.248C14.3916 10.1738 15.3423 8.75586 15.3423 8.13281C15.3423 7.04248 12.4419 3.4707 7.99463 3.4707C7.08154 3.4707 6.23828 3.62109 5.46484 3.87354L7.04932 5.46338C7.3501 5.35596 7.66699 5.2915 8 5.2915C9.57373 5.2915 10.8574 6.55371 10.8574 8.13281C10.8574 8.46582 10.793 8.78809 10.6748 9.0835L12.8286 11.248ZM7.99463 12.7949C8.95605 12.7949 9.84766 12.6284 10.6426 12.3491L9.04736 10.7539C8.7251 10.8936 8.37061 10.9741 8 10.9741C6.41553 10.9741 5.14258 9.67432 5.13721 8.13281C5.13721 7.75684 5.21777 7.3916 5.35742 7.06934L3.2627 4.96924C1.62451 6.05957 0.652344 7.50439 0.652344 8.13281C0.652344 9.21777 3.61182 12.7949 7.99463 12.7949ZM9.73486 8.02002C9.73486 7.08545 8.97754 6.32812 8.0376 6.32812C8 6.32812 7.95703 6.32812 7.91943 6.3335L9.72949 8.13818C9.73486 8.10059 9.73486 8.06299 9.73486 8.02002ZM6.24365 8.09521C6.24365 9.02979 7.01172 9.79248 7.94629 9.79248C7.98926 9.79248 8.02686 9.78711 8.06982 9.78174L6.24902 7.96094C6.24365 8.00391 6.24365 8.05225 6.24365 8.09521Z" fill="#C3C5C8"/>
</svg>
