<svg width="50" height="50" viewBox="0 0 50 50" fill="none" xmlns="http://www.w3.org/2000/svg">
<path d="M0 27.5506C0.127168 26.9856 0.234104 26.4147 0.385838 25.8555C1.04145 23.4596 2.50666 21.3647 4.53233 19.9271C6.558 18.4894 9.01908 17.7978 11.4971 17.9697C16.5448 18.3309 20.5838 22.0058 21.4451 27.0188C22.4451 32.828 18.2919 38.513 12.422 39.3685C6.3526 40.2529 0.949423 36.1893 0.0895969 30.1098C0.0687498 30.0342 0.0386564 29.9614 0 29.8931V27.5506ZM6.72254 31.7775C6.76615 32.447 6.98977 33.0923 7.36978 33.6453C7.74979 34.1983 8.27208 34.6384 8.8815 34.9191C9.55058 35.2399 9.83815 35.5578 9.76445 36.3006C9.71098 36.8425 10.2124 37.2789 10.7486 37.3121C11.0108 37.3217 11.2674 37.234 11.469 37.066C11.6706 36.898 11.8031 36.6614 11.841 36.4017C11.8797 36.1775 11.8904 35.9494 11.8728 35.7226C11.8425 35.3945 11.9668 35.2558 12.2818 35.1301C12.8737 34.8976 13.4026 34.5294 13.8261 34.0551C14.2496 33.5808 14.5557 33.0136 14.7198 32.3993C14.8839 31.7849 14.9013 31.1406 14.7708 30.5183C14.6403 29.896 14.3653 29.3131 13.9682 28.8165C13.1228 27.75 11.9769 27.3064 10.6445 27.2558C10.1679 27.2335 9.71761 27.0306 9.38509 26.6885C9.05256 26.3463 8.8627 25.8904 8.85405 25.4133C8.82659 24.435 9.53902 23.5694 10.4653 23.4523C11.5173 23.3194 12.4682 23.9567 12.6662 24.9364C12.7052 25.1257 12.6951 25.3266 12.7327 25.5145C12.8598 26.133 13.3194 26.4639 13.9335 26.396C14.4682 26.3367 14.8338 25.9061 14.8468 25.3165C14.8478 24.5233 14.6136 23.7477 14.1737 23.0876C13.7339 22.4276 13.1082 21.9128 12.3757 21.6084C12.0246 21.4639 11.8786 21.3194 11.8714 20.9263C11.8722 20.7832 11.8443 20.6415 11.7894 20.5093C11.7345 20.3772 11.6537 20.2574 11.5517 20.1571C11.4497 20.0567 11.3287 19.9778 11.1957 19.925C11.0627 19.8722 10.9205 19.8466 10.7775 19.8497C10.1879 19.8728 9.75289 20.3309 9.75578 20.9884C9.75578 21.302 9.65029 21.422 9.35549 21.5304C8.36213 21.9015 7.55258 22.6453 7.09874 23.6037C6.6449 24.5621 6.58252 25.6596 6.92485 26.6633C7.47543 28.2876 8.96098 29.3555 10.7457 29.409C11.8179 29.4422 12.6488 30.2124 12.6864 31.2095C12.7269 32.2919 12.0246 33.1431 10.9523 33.2543C9.79624 33.3757 8.87283 32.4379 8.83237 31.3757C8.80347 30.6315 8.30347 30.2197 7.6763 30.2746C7.07659 30.3309 6.70376 30.8121 6.72254 31.7775Z" fill="#D7D8DA"/>
<path d="M26.2312 13.3916C23.3179 13.3338 20.4509 13.1387 17.6951 12.2052C16.9353 11.9263 16.2084 11.5648 15.5275 11.1272C15.0853 10.8569 15.0939 10.5751 15.5347 10.2962C16.142 9.89592 16.7937 9.56761 17.4769 9.31792C20.724 8.22254 24.0882 8.01734 27.4827 8.11416C30.0564 8.19075 32.607 8.45953 35.052 9.31214C35.7746 9.56358 36.4509 9.97543 37.1243 10.3584C37.5072 10.5751 37.4798 10.9277 37.1127 11.1185C36.2833 11.552 35.4552 12.0246 34.5708 12.3035C31.857 13.1618 29.0333 13.3324 26.2312 13.3916Z" fill="#D7D8DA"/>
<path d="M38.5332 29.7326C35.9234 29.711 33.0607 29.5029 30.2963 28.5954C29.5629 28.3392 28.8613 27.9998 28.2052 27.5838C27.6098 27.2182 27.62 26.9046 28.2312 26.5419C28.8683 26.1581 29.544 25.8423 30.2471 25.5997C32.5593 24.828 34.9639 24.565 37.3916 24.5014C40.6503 24.4147 43.8858 24.5722 47.039 25.4957C47.7251 25.7001 48.3907 25.9677 49.0275 26.2948C49.383 26.474 49.6517 26.8251 49.9596 27.0997C49.6489 27.3743 49.3815 27.7529 49.0202 27.9032C48.0116 28.341 46.9728 28.7056 45.9119 28.9942C43.5838 29.5881 41.1994 29.7326 38.5332 29.7326Z" fill="#D7D8DA"/>
<path d="M49.9697 29.8772C49.9697 30.8815 50.0203 31.8396 49.9408 32.7876C49.9109 32.9677 49.8413 33.1389 49.7371 33.2889C49.6328 33.4388 49.4966 33.5638 49.3382 33.6546C48.3006 34.1358 47.2486 34.6662 46.1431 34.9104C41.0579 36.0506 35.9596 36.0665 30.896 34.7587C29.9842 34.5231 29.1345 34.0361 28.2645 33.6517C27.9755 33.5231 27.8657 33.2717 27.8729 32.9292C27.8931 31.9552 27.8801 30.9812 27.8801 29.961C31.3859 31.4971 35.1142 31.8627 38.8931 31.8497C42.672 31.8367 46.409 31.4523 49.9697 29.8772Z" fill="#D7D8DA"/>
<path d="M27.9812 36.1257C35.3164 38.5202 42.6343 38.5318 49.9725 35.974C49.9725 36.9176 49.9985 37.9393 49.9508 38.9581C49.9407 39.1806 49.7095 39.448 49.5086 39.6012C48.5838 40.3006 47.4927 40.6373 46.3887 40.9133C42.9956 41.7587 39.5462 41.8772 36.0737 41.6358C34.0751 41.4913 32.0982 41.2153 30.208 40.5275C29.5609 40.272 28.94 39.9546 28.354 39.5795C28.2531 39.5046 28.1692 39.4092 28.1077 39.2997C28.0462 39.1901 28.0085 39.0688 27.9971 38.9437C27.958 37.9812 27.9812 37.0217 27.9812 36.1257Z" fill="#D7D8DA"/>
<path d="M15.3815 13.6156C18.9277 15.159 22.6618 15.4942 26.4465 15.4827C30.2312 15.4711 33.961 15.0882 37.5621 13.4494C37.5621 13.9119 37.5722 14.3165 37.5621 14.7327C37.5448 15.2963 37.5014 15.8613 37.4841 16.4263C37.4711 16.8598 37.1951 17.0939 36.8743 17.3035C35.8121 18.0043 34.6127 18.3714 33.3902 18.6257C28.7544 19.6198 23.9616 19.6287 19.3222 18.6517C18.987 18.5809 18.6748 18.3844 18.367 18.2182C17.487 17.737 16.6084 17.25 15.7413 16.7442C15.5968 16.6561 15.4046 16.4639 15.4003 16.3107C15.3641 15.4263 15.3815 14.5289 15.3815 13.6156Z" fill="#D7D8DA"/>
<path d="M21.3267 21.2471C26.8729 21.7457 32.279 21.7197 37.4928 19.5361V22.2905C36.6605 22.3497 35.8382 22.3873 35.0189 22.4711C32.5087 22.7312 30.0275 23.1171 27.7558 24.315C27.3895 24.4897 27.0511 24.7176 26.7515 24.9913C26.4134 25.3295 26.055 25.4017 25.6128 25.3685C24.948 25.3179 24.279 25.3266 23.6142 25.2731C23.4596 25.2616 23.2197 25.1286 23.1807 25.0087C22.7608 23.6665 22.1354 22.3976 21.3267 21.2471Z" fill="#D7D8DA"/>
<path d="M25.7616 33.5289V37.4306L20.7443 36.9971C20.9813 36.6792 21.1518 36.4928 21.2761 36.2746C21.7602 35.4335 22.2486 34.5939 22.6937 33.7312C22.8382 33.4552 22.9697 33.3613 23.2717 33.3873C24.0766 33.4566 24.8859 33.4899 25.7616 33.5289Z" fill="#D7D8DA"/>
<path d="M25.6546 31.3671L23.5621 31.2515C23.6286 29.9827 23.6922 28.7558 23.7587 27.487C24.2775 27.487 24.8699 27.4769 25.4595 27.4986C25.5275 27.4986 25.6445 27.6763 25.646 27.7717C25.659 28.9408 25.6546 30.1098 25.6546 31.3671Z" fill="#D7D8DA"/>
</svg>
