<svg width="1440" height="948" viewBox="0 0 1440 948" fill="none" xmlns="http://www.w3.org/2000/svg">
<g clip-path="url(#clip0_3903_948)">
<rect width="1440" height="948" fill="white"/>
<path d="M1824.83 1155.72C1824.82 1155.72 1824.82 1155.72 1824.83 1155.71C1845.47 1120.54 1867.31 1085.85 1888.93 1051.36C1969.59 922.719 2044.06 785.549 2076.79 640.798C2117.71 459.869 2102.1 276.543 2028 117.564C1877.44 -205.407 1520.75 -416.874 1144.21 -380.567C767.674 -344.261 398.447 -47.4739 302.856 319.009C275.373 424.385 269.156 532.266 240.681 637.49C212.207 742.713 155.622 850.565 59.1359 908.425C-42.2772 969.25 -166.019 962.146 -271.696 931.419C-377.373 900.692 -474.43 848.891 -582.641 825.283C-875.784 761.33 -1224.46 936.677 -1376.14 1214.95C-1438.41 1329.2 -1466.44 1456.91 -1462.77 1580.11C-1459.29 1696.78 -1427.83 1809.99 -1370.74 1907.12C-1341.36 1957.11 -1305.15 2002.79 -1262.69 2042.13C-1049.94 2239.28 -697.147 2273.46 -409.893 2134.82C-287.04 2075.53 -177.682 1989.25 -58.3202 1922.34C61.041 1855.44 199.609 1807.44 324.378 1836.6C478.211 1872.55 572.179 2015.36 626.851 2159.85C681.518 2304.33 711.545 2462.6 799.144 2587.93C959.427 2817.24 1315.19 2881.69 1584.14 2730.13C1853.08 2578.58 2000.06 2230.83 1908.42 1962.83C1838.3 1757.73 1658.81 1612.2 1728.58 1367.1C1749.58 1293.31 1784.99 1223.59 1824.83 1155.73C1824.83 1155.73 1824.83 1155.72 1824.83 1155.72Z" fill="url(#paint0_radial_3903_948)"/>
<path d="M-379.83 1700.62C-379.827 1700.62 -379.825 1700.62 -379.824 1700.62C-367.182 1740.76 -355.745 1781.46 -344.303 1821.88C-301.655 1972.59 -248.177 2124.5 -159.944 2249.83C-49.6589 2406.48 101.662 2521.66 274.891 2575.35C626.824 2684.39 1036.25 2558.88 1269.56 2246.45C1502.86 1934.03 1531.47 1446.59 1316.9 1119.59C1255.2 1025.57 1176.83 946.035 1115.94 851.363C1055.04 756.691 1011.63 638.752 1034.2 525.03C1057.92 405.494 1149.17 316.017 1246.01 256.699C1342.85 197.381 1449.85 159.249 1542.99 93.0635C1795.3 -86.2371 1902.72 -473.803 1794.65 -782.438C1750.27 -909.155 1671.83 -1019.07 1574.87 -1101.69C1483.05 -1179.91 1374.47 -1234.4 1260.43 -1258.18C1201.76 -1270.43 1141.63 -1274.47 1082.04 -1269.35C783.405 -1243.73 512.553 -998.277 419.589 -683.02C379.827 -548.194 370.113 -404.946 338.611 -267.502C307.108 -130.059 247.8 8.93382 138.924 83.9029C4.68954 176.338 -169.931 149.012 -318.574 90.5543C-467.21 32.0963 -609.335 -54.7276 -766.131 -74.7826C-1053.02 -111.479 -1349.14 115.251 -1419.51 425.496C-1489.88 735.741 -1325.29 1088.95 -1056.35 1204.85C-850.543 1293.54 -614.537 1257.5 -475.079 1480.65C-433.095 1547.83 -404.221 1623.18 -379.835 1700.61C-379.834 1700.62 -379.832 1700.62 -379.83 1700.62Z" fill="url(#paint1_radial_3903_948)" fill-opacity="0.5"/>
<path d="M338.65 1946.56C338.653 1946.56 338.655 1946.56 338.655 1946.57C340.733 1988.59 341.503 2030.86 342.349 2072.84C345.488 2229.42 358.802 2389.88 412.473 2533.38C479.556 2712.73 596.834 2862.31 750.871 2957.9C1063.82 3152.07 1491.74 3133.77 1796.52 2890.23C2101.31 2646.7 2252.3 2182.26 2127.41 1811.79C2091.49 1705.27 2035.79 1608.57 2000.82 1501.63C1965.85 1394.68 1953.68 1269.63 2004.28 1165.27C2057.47 1055.59 2168.41 991.997 2277.12 958.995C2385.82 925.993 2499.01 916.053 2605.88 875.475C2895.37 765.543 3097.36 417.593 3070.87 91.7284C3059.99 -42.0628 3011.9 -168.18 2938.98 -272.544C2869.92 -371.367 2778.64 -451.448 2674.32 -503.187C2620.64 -529.813 2563.48 -548.877 2504.53 -558.933C2209.08 -609.376 1884.91 -440.105 1715.2 -158.479C1642.62 -38.0367 1596.98 98.1238 1531.72 223.18C1466.47 348.235 1373.92 467.785 1249.61 512.898C1096.33 568.522 934.284 498.091 805.244 404.08C676.212 310.071 560.655 190.255 414.011 131.35C145.694 23.5679 -198.189 168.356 -344.765 450.824C-491.342 733.293 -421.443 1116.53 -190.536 1296.42C-13.8305 1434.08 223.648 1458.67 302.134 1709.72C325.764 1785.3 334.641 1865.48 338.646 1946.56C338.646 1946.56 338.648 1946.56 338.65 1946.56Z" fill="url(#paint2_radial_3903_948)" fill-opacity="0.5"/>
<path d="M653.365 1083.39C653.367 1083.39 653.369 1083.39 653.37 1083.39C667.562 1121.62 680.614 1160.45 693.657 1199.01C742.279 1342.78 801.435 1487.19 892.915 1604.18C1007.26 1750.41 1159.28 1854.52 1329.48 1898.04C1675.27 1986.45 2065.22 1845.08 2275.66 1531.38C2486.1 1217.69 2489.96 744.586 2266.41 438.575C2202.12 350.589 2122.43 277.433 2058.89 188.778C1995.36 100.123 1947.6 -11.8983 1963.88 -123.049C1980.98 -239.881 2064.89 -330.909 2155.67 -393.024C2246.46 -455.138 2348.11 -497.245 2434.98 -565.825C2670.31 -751.613 2755.29 -1131.9 2635.66 -1425.32C2586.55 -1545.79 2505.29 -1648.34 2407.46 -1723.57C2314.8 -1794.81 2207.1 -1842.26 2095.62 -1859.73C2038.26 -1868.72 1979.89 -1869.71 1922.49 -1861.86C1634.84 -1822.54 1384.81 -1571.83 1310.28 -1262.22C1278.4 -1129.81 1276 -990.714 1252.24 -856.173C1228.48 -721.632 1177.89 -584.239 1076.23 -506.393C950.884 -410.412 780.62 -428.362 633.965 -477.703C487.318 -527.045 345.582 -604.154 192.917 -615.935C-86.419 -637.492 -361.806 -403.675 -414.725 -100.018C-467.644 203.639 -291.164 537.45 -25.3299 636.521C178.104 712.337 404.658 665.985 550.473 875.152C594.371 938.12 625.984 1009.63 653.359 1083.38C653.36 1083.39 653.362 1083.39 653.365 1083.39Z" fill="url(#paint3_radial_3903_948)" fill-opacity="0.6"/>
<path d="M4411.2 364.141C4411.2 364.139 4411.2 364.137 4411.2 364.135C4431.85 328.955 4453.68 294.274 4475.31 259.775C4555.96 131.139 4630.44 -6.03094 4663.17 -150.782C4704.08 -331.711 4688.48 -515.037 4614.37 -674.016C4463.81 -996.987 4107.12 -1208.45 3730.59 -1172.15C3354.05 -1135.84 2984.82 -839.054 2889.23 -472.571C2861.75 -367.195 2855.53 -259.314 2827.06 -154.091C2798.58 -48.8674 2742 58.9846 2645.51 116.845C2544.1 177.669 2420.36 170.566 2314.68 139.839C2209 109.112 2111.94 57.3113 2003.73 33.7028C1710.59 -30.2498 1361.92 145.097 1210.24 423.372C1147.96 537.624 1119.94 665.334 1123.61 788.534C1127.09 905.198 1158.55 1018.41 1215.64 1115.54C1245.01 1165.53 1281.23 1211.21 1323.69 1250.55C1536.43 1447.7 1889.23 1481.88 2176.48 1343.24C2299.34 1283.95 2408.69 1197.67 2528.05 1130.76C2647.42 1063.86 2785.98 1015.85 2910.75 1045.02C3064.59 1080.97 3158.55 1223.78 3213.23 1368.27C3267.89 1512.75 3297.92 1671.02 3385.52 1796.35C3545.8 2025.66 3901.57 2090.11 4170.51 1938.55C4439.46 1787 4586.43 1439.25 4494.8 1171.25C4424.67 966.155 4245.19 820.622 4314.96 575.518C4335.96 501.73 4371.37 432.014 4411.2 364.148C4411.2 364.146 4411.2 364.143 4411.2 364.141Z" fill="url(#paint4_radial_3903_948)" fill-opacity="0.5"/>
</g>
<defs>
<radialGradient id="paint0_radial_3903_948" cx="0" cy="0" r="1" gradientUnits="userSpaceOnUse" gradientTransform="translate(-347.563 1270.32) rotate(-20.2583) scale(1872.58 1559.5)">
<stop stop-color="#6FBCF0"/>
<stop offset="1" stop-color="white"/>
</radialGradient>
<radialGradient id="paint1_radial_3903_948" cx="0" cy="0" r="1" gradientUnits="userSpaceOnUse" gradientTransform="translate(-152.178 2097.65) rotate(-61.1918) scale(3697.61 3087.9)">
<stop stop-color="#6FBCF0"/>
<stop offset="0.731984" stop-color="white"/>
</radialGradient>
<radialGradient id="paint2_radial_3903_948" cx="0" cy="0" r="1" gradientUnits="userSpaceOnUse" gradientTransform="translate(1450.31 106.65) rotate(98.0792) scale(4005.14 3347.71)">
<stop stop-color="#6FBCF0"/>
<stop offset="1" stop-color="white"/>
</radialGradient>
<radialGradient id="paint3_radial_3903_948" cx="0" cy="0" r="1" gradientUnits="userSpaceOnUse" gradientTransform="translate(376.813 -60.4354) rotate(9.08977) scale(2782.82 2315.94)">
<stop stop-color="#6FBCF0"/>
<stop offset="0.439639" stop-color="white"/>
</radialGradient>
<radialGradient id="paint4_radial_3903_948" cx="0" cy="0" r="1" gradientUnits="userSpaceOnUse" gradientTransform="translate(1173.62 141.015) rotate(-74.6023) scale(693.222 579.293)">
<stop stop-color="#6FBCF0"/>
<stop offset="1" stop-color="white"/>
</radialGradient>
<clipPath id="clip0_3903_948">
<rect width="1440" height="948" fill="white"/>
</clipPath>
</defs>
</svg>
