<svg width="24" height="24" viewBox="0 0 24 24" fill="none" xmlns="http://www.w3.org/2000/svg">
<path d="M7.11111 7.11111H7.12M16.8889 7.11111H16.8978M7.11111 16.8889H7.12M12.8889 12.8889H12.8978M16.8889 16.8889H16.8978M16.4444 20H20V16.4444M13.7778 16V20M20 13.7778H16M15.2 10.2222H18.5778C19.0756 10.2222 19.3245 10.2222 19.5147 10.1253C19.6819 10.0401 19.8179 9.90414 19.9031 9.73688C20 9.54674 20 9.29782 20 8.8V5.42222C20 4.9244 20 4.67549 19.9031 4.48534C19.8179 4.31809 19.6819 4.1821 19.5147 4.09688C19.3245 4 19.0756 4 18.5778 4H15.2C14.7022 4 14.4533 4 14.2631 4.09688C14.0959 4.1821 13.9599 4.31809 13.8747 4.48534C13.7778 4.67549 13.7778 4.9244 13.7778 5.42222V8.8C13.7778 9.29782 13.7778 9.54674 13.8747 9.73688C13.9599 9.90414 14.0959 10.0401 14.2631 10.1253C14.4533 10.2222 14.7022 10.2222 15.2 10.2222ZM5.42222 10.2222H8.8C9.29782 10.2222 9.54674 10.2222 9.73688 10.1253C9.90414 10.0401 10.0401 9.90414 10.1253 9.73688C10.2222 9.54674 10.2222 9.29782 10.2222 8.8V5.42222C10.2222 4.9244 10.2222 4.67549 10.1253 4.48534C10.0401 4.31809 9.90414 4.1821 9.73688 4.09688C9.54674 4 9.29782 4 8.8 4H5.42222C4.9244 4 4.67549 4 4.48534 4.09688C4.31809 4.1821 4.1821 4.31809 4.09688 4.48534C4 4.67549 4 4.9244 4 5.42222V8.8C4 9.29782 4 9.54674 4.09688 9.73688C4.1821 9.90414 4.31809 10.0401 4.48534 10.1253C4.67549 10.2222 4.9244 10.2222 5.42222 10.2222ZM5.42222 20H8.8C9.29782 20 9.54674 20 9.73688 19.9031C9.90414 19.8179 10.0401 19.6819 10.1253 19.5147C10.2222 19.3245 10.2222 19.0756 10.2222 18.5778V15.2C10.2222 14.7022 10.2222 14.4533 10.1253 14.2631C10.0401 14.0959 9.90414 13.9599 9.73688 13.8747C9.54674 13.7778 9.29782 13.7778 8.8 13.7778H5.42222C4.9244 13.7778 4.67549 13.7778 4.48534 13.8747C4.31809 13.9599 4.1821 14.0959 4.09688 14.2631C4 14.4533 4 14.7022 4 15.2V18.5778C4 19.0756 4 19.3245 4.09688 19.5147C4.1821 19.6819 4.31809 19.8179 4.48534 19.9031C4.67549 20 4.9244 20 5.42222 20Z" stroke="#C3C5C8" stroke-width="1.5" stroke-linecap="round" stroke-linejoin="round"/>
</svg>
