<svg width="320" height="20" viewBox="0 0 320 20" fill="none" xmlns="http://www.w3.org/2000/svg">
<path d="M0 0H320V18.2338C320 19.0111 319.152 19.4912 318.485 19.0913L310.514 14.3087C310.198 14.1187 309.802 14.1187 309.485 14.3087L300.514 19.6913C300.198 19.8813 299.802 19.8813 299.485 19.6913L290.514 14.3087C290.198 14.1187 289.802 14.1187 289.485 14.3087L280.514 19.6913C280.198 19.8813 279.802 19.8813 279.485 19.6913L270.514 14.3087C270.198 14.1187 269.802 14.1187 269.485 14.3087L260.514 19.6913C260.198 19.8813 259.802 19.8813 259.485 19.6913L250.514 14.3087C250.198 14.1187 249.802 14.1187 249.485 14.3087L240.514 19.6913C240.198 19.8813 239.802 19.8813 239.485 19.6913L230.514 14.3087C230.198 14.1187 229.802 14.1187 229.485 14.3087L220.514 19.6913C220.198 19.8813 219.802 19.8813 219.485 19.6913L210.514 14.3087C210.198 14.1187 209.802 14.1187 209.485 14.3087L200.514 19.6913C200.198 19.8813 199.802 19.8813 199.485 19.6913L190.514 14.3087C190.198 14.1187 189.802 14.1187 189.485 14.3087L180.514 19.6913C180.198 19.8813 179.802 19.8813 179.485 19.6913L170.514 14.3087C170.198 14.1187 169.802 14.1187 169.485 14.3087L160.514 19.6913C160.198 19.8813 159.802 19.8813 159.485 19.6913L150.514 14.3087C150.198 14.1187 149.802 14.1187 149.485 14.3087L140.514 19.6913C140.198 19.8813 139.802 19.8813 139.486 19.6913L130.514 14.3087C130.198 14.1187 129.802 14.1187 129.486 14.3087L120.514 19.6913C120.198 19.8813 119.802 19.8813 119.486 19.6913L110.514 14.3087C110.198 14.1187 109.802 14.1187 109.486 14.3087L100.514 19.6913C100.198 19.8813 99.8022 19.8813 99.4855 19.6913L90.5145 14.3087C90.1978 14.1187 89.8022 14.1187 89.4855 14.3087L80.5145 19.6913C80.1978 19.8813 79.8022 19.8813 79.4855 19.6913L70.5145 14.3087C70.1978 14.1187 69.8022 14.1187 69.4855 14.3087L60.5145 19.6913C60.1978 19.8813 59.8022 19.8813 59.4855 19.6913L50.5145 14.3087C50.1978 14.1187 49.8022 14.1187 49.4855 14.3087L40.5145 19.6913C40.1978 19.8813 39.8022 19.8813 39.4855 19.6913L30.5145 14.3087C30.1978 14.1187 29.8022 14.1187 29.4855 14.3087L20.5145 19.6913C20.1978 19.8813 19.8022 19.8813 19.4855 19.6913L10.5145 14.3087C10.1978 14.1187 9.80219 14.1187 9.4855 14.3087L1.5145 19.0913C0.847972 19.4912 0 19.0111 0 18.2338V0Z" fill="#FFECE6"/>
</svg>
