<svg width="48" height="48" viewBox="0 0 48 48" fill="none" xmlns="http://www.w3.org/2000/svg">
<g clip-path="url(#clip0_857_2549)">
<circle cx="24" cy="24" r="23" stroke="#2DD7A7" stroke-width="2" stroke-linecap="round" stroke-dasharray="0.1 6"/>
<circle cx="24" cy="24" r="16" fill="#2DD7A7"/>
<path d="M20 26.1875C19.9922 29.1641 22.3438 31.4297 26.0859 31.4375H27.1719C28.1953 31.4375 28.9766 31.3594 29.4297 31.2422C30.1016 31.0781 30.7031 30.6562 30.7031 29.8828C30.7031 29.5859 30.625 29.3594 30.5312 29.1875C30.4766 29.1016 30.4922 29.0234 30.5703 28.9922C31.0859 28.7578 31.4766 28.2812 31.4766 27.6562C31.4766 27.2969 31.375 26.9766 31.2031 26.75C31.125 26.6406 31.1406 26.5469 31.2656 26.4766C31.625 26.25 31.875 25.7891 31.875 25.2656C31.875 24.8828 31.7578 24.4844 31.5547 24.2812C31.4453 24.1797 31.4609 24.1094 31.5781 24.0156C31.8281 23.7891 31.9844 23.4141 31.9844 22.9609C31.9844 22.1562 31.3516 21.5 30.5234 21.5H27.7031C27.0234 21.5 26.5781 21.1562 26.5781 20.6016C26.5781 19.5469 27.9141 17.5781 27.9141 16.1484C27.9141 15.375 27.4219 14.9062 26.75 14.9062C26.1641 14.9062 25.8594 15.2891 25.5312 15.9375C24.3359 18.2422 22.7578 20.1172 21.5469 21.7266C20.4922 23.1172 20.0078 24.3125 20 26.1875ZM16.0156 26.25C16.0156 28.6719 17.5234 30.6719 19.5312 30.6719H20.8906C19.4766 29.5938 18.8516 27.9922 18.8672 26.1719C18.875 24.2031 19.5781 22.7734 20.3203 21.7969H19.2344C17.4141 21.7969 16.0156 23.75 16.0156 26.25Z" fill="white"/>
</g>
<defs>
<clipPath id="clip0_857_2549">
<rect width="48" height="48" fill="white"/>
</clipPath>
</defs>
</svg>
