<svg width="280" height="281" viewBox="0 0 280 281" fill="none" xmlns="http://www.w3.org/2000/svg">
<path d="M0 12.5C0 5.87259 5.37258 0.5 12 0.5H268C274.627 0.5 280 5.87258 280 12.5V268.5C280 275.127 274.627 280.5 268 280.5H12C5.37259 280.5 0 275.127 0 268.5V12.5Z" fill="url(#paint0_linear_629_51204)"/>
<path d="M21.2238 32.5346C26.1799 25.8803 33.3942 27.1861 36.3761 28.6662C37.3337 21.5341 45.0725 19.1966 48.7947 19.5195C60.8478 20.5727 61.1839 32.71 59.0653 43.1618C57.3735 51.5258 53.4356 58.4927 51.68 60.9322C48.9694 60.6106 41.394 59.0932 32.7707 55.6325C21.9931 51.3071 15.0209 40.8513 21.218 32.5325L21.2238 32.5346Z" fill="url(#paint1_linear_629_51204)" stroke="black" stroke-width="1.49876"/>
<path d="M175.285 104.087C173.784 102.976 172.045 102.5 170.306 102.5C167.619 102.5 164.932 103.769 163.272 106.15L133.397 148.28L116.799 131.618C115.14 129.952 112.927 129.079 110.714 129.079C108.501 129.079 106.288 129.952 104.549 131.618C101.15 135.03 101.15 140.504 104.549 143.916L128.417 167.798L134.74 174.145L135.61 175.018L136.321 173.987L141.537 166.608L177.34 116.067C180.027 112.259 179.158 106.864 175.285 104.087Z" fill="#F5CF54" stroke="black" stroke-width="1.80045"/>
<path d="M246.156 41.6852L237.496 37.7487C235.502 36.8565 234.032 34.967 233.665 32.8151L230.935 18.224C230.621 16.8069 229.308 15.7572 227.839 15.7572C226.422 15.7572 225.267 16.597 224.847 17.9091C224.795 17.9616 224.795 18.0666 224.742 18.1716L221.383 32.8151C220.911 34.9145 219.441 36.6465 217.552 37.4863L207.054 42.1576C205.847 42.6824 205.112 43.8896 205.217 45.2542C205.322 46.5664 206.162 47.6686 207.474 48.036L217.237 50.8702C219.599 51.5525 221.436 53.4945 221.96 55.9088L224.585 67.9806C224.9 69.4502 226.159 70.4474 227.629 70.4474C229.098 70.4474 230.358 69.3977 230.673 67.9806L233.192 56.1713C233.665 54.0193 235.134 52.2348 237.129 51.3426L246.104 47.4061C247.259 46.8813 247.993 45.8316 247.993 44.5719C247.993 43.3122 247.311 42.21 246.156 41.6852Z" fill="#F5CF54" stroke="black" stroke-width="1.2764"/>
<path d="M217.919 60.8952C216.345 60.5278 214.822 60.3178 213.353 60.1079H213.3C213.195 60.1079 213.143 60.1079 213.09 60.0554C213.09 60.0029 213.09 59.8979 213.038 59.7405C212.933 58.6907 212.828 57.5885 212.723 56.4863C212.671 56.014 212.618 55.5941 212.618 55.1217C212.566 54.4919 212.093 53.9145 211.463 53.8096C211.411 53.9145 211.253 53.9145 211.148 53.9145C210.624 53.9145 210.151 54.177 209.836 54.6493C209.574 55.0692 209.416 55.5416 209.364 56.1189C209.259 57.4836 209.101 58.7957 208.997 60.1603V60.2128C208.787 60.2128 208.577 60.2653 208.419 60.3178C208.314 60.3178 208.209 60.3703 208.052 60.3703C207.107 60.4753 206.11 60.5802 205.165 60.6852L204.325 60.7902C203.905 60.8427 203.59 61.0526 203.328 61.3675C203.066 61.6824 202.961 62.1023 203.013 62.4697V62.6272C203.118 63.362 203.643 63.8868 204.378 63.9393C204.85 63.9918 205.323 64.0443 205.795 64.0968C206.74 64.2017 207.737 64.3067 208.682 64.3592H208.944C208.944 64.4117 208.944 64.5167 208.997 64.6216C209.049 64.989 209.049 65.3564 209.101 65.7238C209.101 65.9338 209.154 66.1962 209.154 66.4062L209.311 67.9807L209.416 69.1354C209.469 69.8702 210.099 70.4476 210.834 70.5H210.938C211.673 70.5 212.303 69.9752 212.408 69.2929C212.671 68.0857 212.775 66.8785 212.933 65.6713C212.985 65.3039 213.038 64.8841 213.09 64.5167C213.09 64.4117 213.09 64.3592 213.143 64.3067H213.353C213.668 64.3067 213.983 64.2542 214.298 64.2542C214.875 64.2018 215.452 64.1493 216.082 64.0968C216.502 64.0443 216.922 63.9918 217.289 63.9393C217.447 63.9393 217.604 63.8868 217.762 63.8868C218.496 63.7819 219.021 63.2045 219.074 62.4697C219.126 61.7349 218.654 61.1051 217.919 60.8952Z" fill="#F5CF54" stroke="black" stroke-width="1.2764"/>
<path d="M266.73 27.1988C263.634 26.464 260.59 26.0966 257.598 25.7292H257.493C257.126 25.6767 256.128 25.5717 255.866 25.4143C255.708 25.1518 255.603 24.1546 255.551 23.7872C255.288 21.6878 255.131 19.5359 254.921 17.4364C254.816 16.5442 254.764 15.7044 254.659 14.8121C254.606 14.1823 254.134 13.6575 253.504 13.5C253.452 13.5525 253.346 13.5525 253.189 13.5525C252.664 13.5525 252.192 13.8149 251.929 14.2348C251.51 14.8646 251.3 15.5994 251.195 16.4392C250.932 18.9585 250.67 21.6353 250.46 24.3121C250.355 25.5717 249.935 25.7292 249.253 25.7817C248.78 25.8342 248.36 25.8867 247.94 25.9391C247.678 25.9916 247.416 26.0441 247.153 26.0441C244.949 26.3065 242.797 26.5165 240.592 26.7789L239.595 26.8839C239.175 26.9364 238.808 27.1463 238.598 27.4612C238.388 27.7761 238.231 28.196 238.283 28.5634L238.336 28.7734V28.9308C238.441 29.6656 238.965 30.1905 239.7 30.243C240.697 30.3479 241.695 30.4529 242.692 30.5054C244.634 30.6629 246.628 30.8728 248.57 31.0303C249.673 31.1352 250.04 31.2927 250.197 31.3977C250.302 31.5026 250.46 31.87 250.617 32.8673C250.722 33.6021 250.775 34.3369 250.827 35.0717C250.88 35.544 250.932 36.0164 250.932 36.4363C251.037 37.6435 251.195 38.8506 251.3 40.0578L251.457 41.8423C251.51 42.5771 252.139 43.1545 252.874 43.207H252.979C253.661 43.207 254.291 42.6821 254.449 41.9998C254.921 39.6379 255.236 37.3286 255.498 35.1241C255.603 34.3893 255.656 33.6021 255.761 32.8673C255.918 31.8175 256.548 31.1877 257.703 31.0827C258.333 31.0303 258.963 30.9778 259.54 30.9253C260.747 30.8203 261.954 30.7153 263.161 30.6104C264.001 30.5579 264.788 30.4004 265.576 30.2955C265.891 30.243 266.258 30.1905 266.573 30.138C267.308 30.033 267.833 29.4557 267.885 28.7209C267.938 27.9861 267.413 27.3562 266.73 27.1988Z" fill="#F5CF54" stroke="black" stroke-width="1.2764"/>
<path d="M81.0449 213.99C80.5204 213.28 78.1567 213.659 76.7256 213.916C71.4142 214.904 68.7669 211.911 70.1166 206.614C70.4322 205.39 70.8072 203.226 70.3015 202.875C68.2992 201.523 65.9669 200.423 63.5565 199.904C63.4826 199.872 63.3764 199.914 63.2172 199.976C62.474 200.268 61.3622 201.805 60.7095 202.795C59.6185 204.385 58.4256 205.404 57.2577 205.863C54.922 206.782 52.6335 205.481 50.8678 202.081C50.3663 201.117 49.3612 199.495 48.9157 199.609C47.293 200.003 45.6381 200.47 44.0456 201.096C43.037 201.492 41.9962 201.963 41.0708 202.571C40.4223 202.948 40.8371 205.718 41.2928 207.189C41.8826 209.157 41.567 210.381 40.0951 211.938C39.4653 212.674 38.8377 213.104 38.1476 213.376C36.8205 213.897 35.4883 213.627 34.0105 212.985C32.7012 212.461 31.7385 212.351 30.8892 212.685C29.8806 213.081 29.1748 214.092 28.6562 215.579C27.7389 218.078 26.0088 220.225 29.7105 222.315C35.0681 225.342 34.9228 229.493 29.4279 232.509C26.9517 233.849 26.5393 235.295 27.7088 237.646C28.8575 239.944 29.0162 242.999 33.1848 241.91C39.1883 240.344 42.1958 243.318 40.3339 249.183C38.8615 253.856 42.4835 253.716 44.7189 255.037C45.8574 255.751 46.7463 255.829 47.4363 255.558C48.3388 255.203 48.9915 254.213 49.7088 253.075C50.8227 251.232 52.0271 250.086 53.2481 249.606C55.4245 248.751 57.6068 250.093 59.6057 253.463C60.2227 254.565 61.5026 256.261 62.1812 256.117C63.4854 255.849 64.8218 255.507 66.0428 255.027C67.1044 254.609 68.1245 254.086 69.0083 253.372C69.8066 252.753 69.2325 250.045 68.8945 248.406C68.3204 245.698 69.7987 243.222 72.0283 242.346C72.9307 241.991 73.9902 241.88 75.0685 242.129C76.6223 242.496 78.1231 242.883 80.1525 243.369C81.2385 240.987 82.493 238.721 83.1241 236.273C83.3407 235.577 81.9108 234.122 80.9201 233.473C75.6084 229.939 75.6225 226.389 81.057 222.908C82.0355 222.279 83.653 221.093 83.5303 220.469C83.1227 218.185 82.3872 215.846 81.0449 213.99ZM58.4114 236.393C53.5715 238.113 48.295 235.603 46.5815 230.777C44.9305 226.109 47.4022 220.86 52.0736 219.024C52.1266 219.003 52.2328 218.961 52.2859 218.94C56.9989 217.21 62.317 219.825 64.0304 224.651C65.7646 229.53 63.4867 234.337 58.656 236.236C58.6238 236.31 58.5176 236.351 58.4114 236.393Z" fill="#84DFFF" stroke="black" stroke-width="1.29023" stroke-miterlimit="2" stroke-linejoin="round"/>
<path d="M259.499 172.183C253.831 185.088 238.847 190.998 226.116 185.406C213.385 179.814 207.581 164.824 213.268 151.876C218.955 138.928 233.92 133.061 246.651 138.653C259.382 144.245 265.167 159.278 259.499 172.183Z" fill="#F5CF54" stroke="black" stroke-width="1.56832"/>
<path d="M255.905 164.903C256.154 162.214 255.402 159.914 253.774 157.955C252.122 155.933 250.007 154.849 247.491 154.677C244.931 154.485 242.718 155.276 240.808 157.028C238.874 158.718 237.838 160.959 237.608 163.605C237.379 166.251 238.131 168.551 239.802 170.529C241.473 172.507 243.569 173.635 246.129 173.827C248.645 173.999 250.858 173.209 252.768 171.456C254.722 169.722 255.782 167.545 255.905 164.903Z" fill="black"/>
<path d="M253.036 163.176C253.249 162.337 253.125 161.557 252.727 160.812C252.329 160.067 251.691 159.631 250.851 159.418C250.074 159.18 249.313 159.261 248.612 159.678C247.847 160.12 247.368 160.739 247.174 161.535C246.98 162.331 247.104 163.111 247.502 163.856C247.901 164.601 248.476 165.061 249.272 165.255C250.111 165.468 250.872 165.388 251.574 164.971C252.382 164.548 252.861 163.929 253.036 163.176Z" fill="white"/>
<path d="M249.007 167.627C249.216 167.978 249.256 168.359 249.147 168.726C249.038 169.092 248.817 169.358 248.466 169.567C248.135 169.732 247.735 169.816 247.368 169.707C247.002 169.597 246.717 169.42 246.527 169.026C246.362 168.694 246.278 168.295 246.387 167.928C246.497 167.561 246.736 167.252 247.087 167.043C247.438 166.834 247.775 166.775 248.142 166.884C248.514 167.1 248.842 167.296 249.007 167.627Z" fill="white"/>
<path d="M233.095 152.759C231.443 150.737 229.327 149.653 226.811 149.481C224.252 149.289 222.039 150.08 220.128 151.832C218.194 153.522 217.115 155.744 216.929 158.409C216.699 161.056 217.451 163.356 219.122 165.334C220.793 167.312 222.89 168.44 225.449 168.631C227.965 168.803 230.178 168.013 232.088 166.26C234.042 164.527 235.102 162.349 235.226 159.708C235.455 157.061 234.766 154.737 233.095 152.759Z" fill="black"/>
<path d="M232.775 157.854C232.988 157.014 232.864 156.234 232.466 155.489C232.067 154.744 231.429 154.308 230.59 154.095C229.813 153.857 229.052 153.938 228.307 154.336C227.543 154.778 227.064 155.397 226.87 156.193C226.675 156.989 226.799 157.769 227.198 158.514C227.596 159.259 228.171 159.719 228.967 159.913C229.807 160.126 230.568 160.046 231.269 159.629C232.121 159.225 232.581 158.65 232.775 157.854Z" fill="white"/>
<path d="M228.728 162.347C228.937 162.698 228.977 163.078 228.868 163.445C228.758 163.812 228.538 164.078 228.187 164.287C227.855 164.452 227.456 164.535 227.089 164.426C226.722 164.317 226.437 164.14 226.248 163.746C226.039 163.395 225.999 163.014 226.108 162.648C226.217 162.281 226.457 161.971 226.808 161.763C227.159 161.554 227.539 161.514 227.862 161.604C228.253 161.776 228.519 161.996 228.728 162.347Z" fill="white"/>
<path d="M241.248 176.089C240.597 177.099 239.811 177.946 238.869 178.672C236.704 180.417 234.374 181 231.948 180.505C229.522 180.009 227.598 178.49 226.33 176.067C225.747 175.034 225.352 173.927 225.188 172.767" stroke="black" stroke-width="1.56832" stroke-linecap="round" stroke-linejoin="round"/>
<path d="M63.3192 122.42C64.9551 121.771 68.0606 119.436 67.2712 115.116C66.3784 110.272 61.0233 108.946 55.8947 110.6C59.3656 107.53 61.5139 103.686 58.3209 99.3264C56.854 98.015 53.1069 95.9866 50.1921 98.4259C49.5432 96.7901 47.2086 93.6846 42.8887 94.4739C38.2326 95.3366 36.7927 100.343 38.1998 105.259C35.0719 101.546 31.1165 99.1842 26.5962 102.461C25.2848 103.928 23.2564 107.675 25.6957 110.59C24.0599 111.239 20.9543 113.573 21.7437 117.893C22.6366 122.738 27.9916 124.064 33.1202 122.41C29.6493 125.48 27.5011 129.323 30.6941 133.683C32.161 134.995 35.9081 137.023 38.8228 134.584C39.4718 136.219 41.8063 139.325 46.1262 138.536C50.7824 137.673 52.2222 132.667 50.8152 127.75C53.9431 131.463 57.8577 133.813 62.4188 130.549C63.7301 129.082 65.7457 125.375 63.3192 122.42Z" fill="#84DFFF" stroke="black" stroke-width="0.945257"/>
<path d="M33.1479 122.464L55.8945 110.6" stroke="black" stroke-width="0.945257"/>
<path d="M50.8431 127.804L38.187 105.3" stroke="black" stroke-width="0.945257"/>
<path d="M41.8312 125.015C46.5087 126.486 51.4928 123.886 52.9636 119.209C54.4344 114.531 51.8348 109.547 47.1573 108.076C42.4798 106.606 37.4957 109.205 36.0249 113.883C34.5541 118.56 37.1537 123.544 41.8312 125.015Z" fill="url(#paint2_radial_629_51204)" stroke="black" stroke-width="0.945257"/>
<path d="M198.648 212.84C175.838 205.209 150.65 218.48 141 242.686L169.63 252.263C173.596 244.791 181.453 240.776 188.513 243.138C195.574 245.5 199.433 253.433 198.105 261.789L226.734 271.366C233.553 246.213 221.459 220.47 198.648 212.84Z" fill="#84DFFF" stroke="black" stroke-width="1.07436"/>
<path d="M195.144 223.314C178.075 217.604 159.126 227.829 151.798 246.255L169.604 252.212C173.57 244.739 181.427 240.724 188.487 243.086C195.548 245.448 199.407 253.382 198.079 261.737L215.924 267.706C221.157 248.58 212.201 229.063 195.144 223.314Z" fill="#EB8865" stroke="black" stroke-width="1.07436"/>
<path d="M191.952 232.857C179.538 228.705 165.832 235.895 160.216 249.071L169.643 252.224C173.609 244.752 181.466 240.737 188.526 243.099C195.587 245.461 199.446 253.394 198.118 261.75L207.545 264.903C210.949 250.988 204.328 236.997 191.952 232.857Z" fill="#F5CF54" stroke="black" stroke-width="1.07436"/>
<path d="M137.7 75.511C149.723 78.7648 162.171 71.4184 165.505 59.1024C168.838 46.7864 161.793 34.1647 149.771 30.9109C137.748 27.6571 125.299 35.0035 121.966 47.3195C118.633 59.6355 125.677 72.2573 137.7 75.511Z" fill="#EB8865"/>
<path d="M137.052 77.2731C135.566 76.8708 134.069 76.2948 132.654 75.6269C130.684 74.6949 128.906 73.4729 127.331 72.1349C124.509 69.7186 122.337 66.7944 120.854 63.43C119.435 60.2535 118.685 56.9165 118.645 53.4865C118.641 51.6051 118.797 49.7667 119.232 47.9471L119.409 47.0832L119.639 46.2337L119.668 46.1275C120.109 44.7083 120.588 43.3565 121.213 42.101C122.352 39.7879 123.848 37.6285 125.659 35.7821C128.013 33.3991 130.759 31.4641 133.854 30.1362C137.392 28.6434 141.1 27.9945 144.98 28.1896C146.552 28.2734 148.082 28.5164 149.583 28.8657L149.689 28.8944L150.539 29.1243L150.698 29.1674C152.171 29.6229 153.667 30.1989 155.068 30.9198C157.762 32.3329 160.169 34.1807 162.233 36.449C164.244 38.7028 165.822 41.2952 166.889 44.0912C168.693 48.7963 169.025 53.673 167.983 58.5765C167.543 60.6229 166.838 62.5974 165.867 64.5001C164.647 66.905 163.03 69.0887 161.099 70.9595C158.773 73.2362 156.138 74.9733 153.192 76.1707C148.512 78.095 143.592 78.587 138.568 77.5693C138.061 77.5461 137.53 77.4024 137.052 77.2731ZM140.339 72.92C140.811 72.6489 141.245 72.3104 141.717 72.0393C144.03 70.4428 146.067 68.6007 147.867 66.5807C146.244 65.6286 144.525 64.8215 142.696 64.2123L140.339 72.92ZM125.399 63.6913C127.04 66.4717 129.158 68.7543 131.752 70.5391C130.681 67.9698 129.996 65.448 129.566 62.8244C128.148 63.0105 126.754 63.3171 125.399 63.6913ZM151.094 68.7646C149.482 70.7216 147.647 72.4474 145.547 74.1014C148.528 73.8255 151.387 72.9467 154.018 71.4364C153.075 70.4975 152.118 69.6117 151.094 68.7646ZM133.507 62.5803C134.048 65.6331 135.072 68.5884 136.549 71.5525L138.834 63.1103C137.092 62.8097 135.321 62.6154 133.507 62.5803ZM122.883 49.6188C122.267 53.1562 122.559 56.7112 123.747 60.11C125.493 59.5566 127.301 59.1913 129.134 58.9465C129.023 56.4091 129.191 53.8905 129.679 51.4581L122.883 49.6188ZM153.476 65.6483C154.843 66.7021 156.114 67.9009 157.304 69.1915C160.044 66.856 162.089 63.9333 163.341 60.5684L156.864 58.8153C155.99 61.2002 154.866 63.4602 153.476 65.6483ZM143.73 60.3895C146.023 61.181 148.206 62.1706 150.263 63.4112C151.432 61.6191 152.335 59.7552 153.041 57.7807L145.023 55.6109L143.73 60.3895ZM133.502 52.4927C133.129 54.5004 132.969 56.5655 133.089 58.6493C135.371 58.6401 137.649 58.8575 139.922 59.3018L141.215 54.5232L133.502 52.4927ZM164.323 56.7311C164.623 54.9889 164.697 53.2424 164.559 51.4384C164.416 49.8611 164.099 48.2938 163.647 46.804C161.955 47.3717 160.2 47.7515 158.42 48.0106C158.468 50.36 158.289 52.7049 157.845 54.978L164.323 56.7311ZM154.022 53.9434C154.352 52.0951 154.507 50.2567 154.45 48.3609C151.981 48.4332 149.544 48.1726 147.111 47.6853L146.005 51.7736L154.022 53.9434ZM130.713 47.6352C131.462 45.5014 132.423 43.4251 133.649 41.4206C132.137 40.2706 130.788 38.9369 129.507 37.5644C127.008 39.8512 125.127 42.5903 123.917 45.796L130.713 47.6352ZM142.182 50.739L143.288 46.6507C141.048 45.8735 138.866 44.884 136.861 43.6577C136.145 44.8314 134.949 47.3568 134.483 48.6555L142.182 50.739ZM148.199 43.8768C150.139 44.2879 152.151 44.4335 154.086 44.4442C153.524 41.0442 152.413 37.7803 150.728 34.532L148.199 43.8768ZM139.219 40.4208C140.842 41.3728 142.561 42.18 144.391 42.7891L146.862 33.6567C143.822 35.6261 141.284 37.8454 139.219 40.4208ZM132.662 35.1702C133.552 36.0948 135.098 37.5391 135.886 38.2081C137.676 36.0144 139.703 33.9987 142.02 32.1754C138.76 32.4326 135.578 33.4519 132.662 35.1702ZM155.743 36.0033C156.151 37.0253 156.543 38.1003 156.845 39.0935C157.374 40.7183 157.715 42.4061 158.002 44.0796C159.367 43.8792 160.761 43.5725 162.077 43.1309C160.518 40.2587 158.376 37.8555 155.743 36.0033Z" fill="#84DFFF" stroke="black" stroke-width="1.96728" stroke-miterlimit="2" stroke-linejoin="round"/>
<defs>
<linearGradient id="paint0_linear_629_51204" x1="140" y1="0.5" x2="140" y2="280.5" gradientUnits="userSpaceOnUse">
<stop stop-color="#84DFFF"/>
<stop offset="0.598958" stop-color="white"/>
</linearGradient>
<linearGradient id="paint1_linear_629_51204" x1="34.2879" y1="24.6117" x2="51.5474" y2="60.9996" gradientUnits="userSpaceOnUse">
<stop offset="0.41" stop-color="#F5CF54"/>
<stop offset="0.85" stop-color="#84DFFF"/>
</linearGradient>
<radialGradient id="paint2_radial_629_51204" cx="0" cy="0" r="1" gradientUnits="userSpaceOnUse" gradientTransform="translate(44.6306 116.594) rotate(107.455) scale(8.28488 8.28487)">
<stop offset="0.54" stop-color="#F5CF54"/>
<stop offset="0.89" stop-color="#EB8865"/>
</radialGradient>
</defs>
</svg>
