<svg width="256" height="256" viewBox="0 0 256 256" fill="none" xmlns="http://www.w3.org/2000/svg">
<path d="M164.943 154.465C164.943 154.465 172.198 153.975 171.617 150.655C171.353 149.144 167.949 149.479 167.949 149.479C167.949 149.479 170.23 147.67 168.964 145.743C167.846 144.041 164.965 145.663 164.965 145.663C164.965 145.663 166.774 142.366 165.396 141.534C161.723 139.316 159.217 147.376 159.217 147.376C160.397 150.443 162.178 152.93 164.943 154.466V154.465Z" fill="#4E4844"/>
<path d="M159.218 147.375C160.854 150.179 162.927 152.555 164.944 154.465C162.703 156.151 159.937 157.744 156.973 159.097C147.926 163.238 139.894 161.146 139.894 161.146L138.619 152.217C138.619 152.217 144.81 153.76 152.789 151.009C155.25 150.159 157.358 148.773 159.218 147.376V147.375Z" fill="#A87C4C"/>
<path d="M159.218 147.376C157.359 148.77 155.25 150.157 152.786 151.006C144.808 153.757 138.617 152.218 138.617 152.218" stroke="#28211F" stroke-width="1.97836" stroke-linecap="round" stroke-linejoin="round"/>
<path d="M139.896 161.146C139.896 161.146 147.928 163.236 156.976 159.098C159.939 157.744 162.702 156.15 164.944 154.465" stroke="#28211F" stroke-width="1.97836" stroke-linecap="round" stroke-linejoin="round"/>
<path d="M164.943 154.465C164.943 154.465 172.198 153.975 171.617 150.655C171.353 149.144 167.949 149.479 167.949 149.479C167.949 149.479 170.23 147.67 168.964 145.743C167.846 144.041 164.965 145.663 164.965 145.663C164.965 145.663 166.774 142.366 165.396 141.534C161.723 139.316 159.217 147.376 159.217 147.376" stroke="#28211F" stroke-width="1.97836" stroke-linecap="round" stroke-linejoin="round"/>
<path opacity="0.3" d="M116.829 238.052C93.3982 238.052 74.4048 232.806 74.4048 226.337C74.4048 219.867 93.3993 214.621 116.829 214.621C140.258 214.621 159.253 219.867 159.253 226.337C159.253 232.806 140.258 238.052 116.829 238.052Z" fill="black"/>
<path d="M100.85 135.352C108.223 134.669 115.513 134.629 122.71 135.282C130.232 135.965 136.434 141.802 137.933 149.515C140.79 164.207 142.428 178.974 142.606 193.832C142.72 203.253 135.803 211.189 126.792 211.942C116.977 212.763 107.266 212.763 97.6602 211.93C88.9949 211.178 82.1487 203.789 81.8966 194.73C81.4941 180.238 82.8044 165.264 85.5436 149.888C86.9431 142.031 93.2128 136.06 100.849 135.351L100.85 135.352Z" fill="#A87C4C"/>
<path d="M128.22 163.862C136.461 163.862 138.602 182.763 138.602 190.132C138.602 197.5 133.996 202.105 128.22 202.105C122.443 202.105 117.837 197.499 117.837 190.132C117.837 182.764 119.978 163.862 128.22 163.862Z" fill="#D5CBB1"/>
<path opacity="0.2" d="M141.975 195.451C140.351 204.267 134.22 211.077 126.593 211.831C116.772 212.8 107.062 212.8 97.4567 211.82C89.8756 211.042 83.6862 204.285 82.0911 195.469C85.1886 201.071 90.2758 204.924 96.1171 205.515C106.61 206.588 117.213 206.588 127.933 205.532C133.814 204.952 138.884 201.071 141.975 195.451Z" fill="black"/>
<path d="M116.829 220.287C117.792 223.553 119.021 226.703 120.199 226.703H140.912C140.912 226.703 144.87 215.111 116.829 220.287Z" fill="#4E4844"/>
<path d="M114.922 212.557C115.379 214.819 116.253 218.584 116.92 220.846C121.15 219.593 124.466 219.227 127.06 219.36C128.051 216.965 129.226 213.231 129.846 210.754C127.721 211.717 121.095 212.198 114.922 212.557Z" fill="#A87C4C"/>
<path d="M127.06 219.36C128.093 217.011 129.019 213.864 129.695 211.325" stroke="#28211F" stroke-width="1.97836" stroke-linecap="round" stroke-linejoin="round"/>
<path d="M124.956 219.745C143.581 216.324 140.912 226.706 140.912 226.706H120.259H120.195C118.268 226.706 116.063 218.047 114.922 212.557" stroke="#28211F" stroke-width="1.97836" stroke-linecap="round" stroke-linejoin="round"/>
<path d="M137.492 226.408C137.492 226.408 137.212 222.095 130.88 222.439" stroke="#28211F" stroke-width="1.97836" stroke-linecap="round" stroke-linejoin="round"/>
<path d="M94.6848 220.287C95.648 223.553 96.8768 226.703 98.0548 226.703H118.768C118.768 226.703 122.726 215.111 94.6848 220.287Z" fill="#4E4844"/>
<path d="M91.9915 210.456C92.4493 212.718 94.11 218.583 94.777 220.845C99.0062 219.592 102.323 219.226 104.916 219.359C105.908 216.964 106.519 214.74 107.14 212.263C97.0787 212.037 94.7046 211.585 91.9915 210.454V210.456Z" fill="#A87C4C"/>
<path d="M104.917 219.36C106.029 216.832 106.436 215.171 107.123 212.547" stroke="#28211F" stroke-width="1.97836" stroke-linecap="round" stroke-linejoin="round"/>
<path d="M102.812 219.745C121.437 216.324 118.768 226.706 118.768 226.706H98.1146H98.0513C96.1238 226.706 93.1325 215.945 91.9907 210.455" stroke="#28211F" stroke-width="1.97836" stroke-linecap="round" stroke-linejoin="round"/>
<path d="M115.348 226.408C115.348 226.408 115.067 222.095 108.736 222.439" stroke="#28211F" stroke-width="1.97836" stroke-linecap="round" stroke-linejoin="round"/>
<path d="M92.0315 210.419C86.1971 207.693 82.0923 201.707 81.8978 194.73C81.4954 180.238 82.8056 165.264 85.5448 149.888C86.9443 142.031 93.214 136.06 100.851 135.351C108.224 134.667 115.513 134.628 122.71 135.281C130.232 135.964 136.434 141.801 137.933 149.514C140.79 164.206 142.428 178.972 142.606 193.831C142.701 201.718 137.87 208.564 131.006 211.026C127.036 212.263 117.582 212.32 107.139 212.263" stroke="#28211F" stroke-width="1.97836" stroke-linecap="round" stroke-linejoin="round"/>
<path d="M91.7319 180.97C91.7319 180.97 89.0435 187.727 92.2892 188.635C93.7656 189.047 94.9334 185.832 94.9334 185.832C94.9334 185.832 95.5801 188.671 97.8659 188.36C99.8827 188.085 99.6634 184.788 99.6634 184.788C99.6634 184.788 101.858 187.841 103.202 186.958C106.788 184.602 100.597 178.863 100.597 178.863C97.321 178.605 94.3094 179.137 91.7319 180.969V180.97Z" fill="#4E4844"/>
<path d="M100.597 178.864C97.362 179.13 94.3244 179.975 91.7322 180.97C91.1771 178.221 90.934 175.038 90.9917 171.78C91.159 161.832 96.513 155.49 96.513 155.49L105.118 158.193C105.118 158.193 101.055 163.112 100.096 171.498C99.8005 174.084 100.142 176.585 100.599 178.865L100.597 178.864Z" fill="#A87C4C"/>
<path d="M100.596 178.864C100.142 176.586 99.8003 174.084 100.097 171.497C101.057 163.113 105.117 158.191 105.117 158.191" stroke="#28211F" stroke-width="1.97836" stroke-linecap="round" stroke-linejoin="round"/>
<path d="M96.5106 155.492C96.5106 155.492 91.16 161.835 90.9882 171.783C90.9316 175.039 91.177 178.221 91.7309 180.97" stroke="#28211F" stroke-width="1.97836" stroke-linecap="round" stroke-linejoin="round"/>
<path d="M91.7321 180.97C91.7321 180.97 89.0427 187.727 92.2894 188.635C93.7659 189.047 94.9337 185.832 94.9337 185.832C94.9337 185.832 95.5803 188.671 97.8662 188.36C99.883 188.085 99.6636 184.788 99.6636 184.788C99.6636 184.788 101.858 187.841 103.202 186.958C106.788 184.602 100.597 178.863 100.597 178.863" stroke="#28211F" stroke-width="1.97836" stroke-linecap="round" stroke-linejoin="round"/>
<path d="M106.579 69.2254L101.571 69.2311C100.122 69.2322 98.8337 67.9604 98.5929 66.1742C98.1961 63.2304 98.2289 60.3171 98.6969 57.4344C98.9219 56.0495 99.7438 54.9055 100.832 54.529C102.94 53.801 105.048 53.654 107.158 54.3447C108.352 54.7359 109.247 55.976 109.435 57.5022C109.793 60.3951 109.842 63.2236 109.575 65.9877C109.394 67.8519 108.08 69.2232 106.579 69.2254Z" fill="#A87C4C"/>
<path d="M106.579 69.2254L101.571 69.2311C100.122 69.2322 98.8337 67.9604 98.5929 66.1742C98.1961 63.2304 98.2289 60.3171 98.6969 57.4344C98.9219 56.0495 99.7438 54.9055 100.832 54.529C102.94 53.801 105.048 53.654 107.158 54.3447C108.352 54.7359 109.247 55.976 109.435 57.5022C109.793 60.3951 109.842 63.2236 109.575 65.9877C109.394 67.8519 108.08 69.2232 106.579 69.2254Z" stroke="#28211F" stroke-width="1.97836" stroke-miterlimit="10"/>
<path d="M203.591 95.0357C202.794 91.9065 201.917 88.8146 200.962 85.76C196.058 70.0857 181.695 59.4071 165.897 59.6038C144.871 59.8661 123.708 61.4872 102.414 64.4084C80.748 67.3805 67.0204 89.3278 73.1918 111.273C75.2029 118.423 77.4526 125.365 79.9645 132.077C85.0144 145.577 99.0495 153.185 112.387 149.67C138.903 142.684 164.962 133.67 190.579 122.693C201.007 118.224 206.516 106.523 203.591 95.0357Z" fill="#A87C4C"/>
<path opacity="0.2" d="M203.483 107.741C201.652 114.33 197.068 119.912 190.576 122.693C164.96 133.67 138.902 142.683 112.386 149.67C99.0485 153.185 85.0123 145.577 79.9624 132.077C77.4516 125.365 75.2008 118.423 73.1908 111.273C70.1192 100.349 71.9766 89.4239 77.2922 80.8401C74.8322 87.9215 74.4377 95.9209 76.6874 103.921C78.6974 111.072 80.9493 118.013 83.459 124.726C88.5089 138.225 102.545 145.832 115.883 142.319C142.398 135.332 168.457 126.32 194.073 115.342C197.95 113.68 201.148 111.02 203.483 107.741Z" fill="black"/>
<path d="M188.058 72.5853C182.245 69.5295 166.766 75.4669 164.918 79.3671C163.069 83.2661 170.355 110.176 175.265 112.757C180.175 115.338 197.182 109.145 199.266 104.749C201.35 100.352 192.138 74.7298 188.058 72.5853Z" fill="#4E4844"/>
<path d="M186.013 81.0971C187.462 79.8939 188.035 78.1926 187.291 77.2972C186.548 76.4018 184.77 76.6513 183.321 77.8545C181.872 79.0578 181.299 80.7591 182.043 81.6545C182.786 82.5499 184.564 82.3004 186.013 81.0971Z" fill="#28211F"/>
<path d="M175.377 83.872C175.434 82.7096 173.955 81.6927 172.073 81.6006C170.192 81.5086 168.62 82.3763 168.564 83.5388C168.507 84.7012 169.986 85.7181 171.867 85.8101C173.749 85.9021 175.32 85.0344 175.377 83.872Z" fill="#28211F"/>
<path d="M203.591 95.0357C202.794 91.9065 201.917 88.8146 200.962 85.76C196.058 70.0857 181.695 59.4071 165.897 59.6038C144.871 59.8661 123.708 61.4872 102.414 64.4084C80.748 67.3805 67.0204 89.3278 73.1918 111.273C75.2029 118.423 77.4526 125.365 79.9645 132.077C85.0144 145.577 99.0495 153.185 112.387 149.67C138.903 142.684 164.962 133.67 190.579 122.693C201.007 118.224 206.516 106.523 203.591 95.0357Z" stroke="#28211F" stroke-width="1.97836" stroke-linecap="round" stroke-linejoin="round"/>
<path d="M80.5773 79.9018L76.8263 83.2198C75.741 84.1796 73.9334 84.0778 72.57 82.8976C70.3237 80.9532 68.4211 78.7464 66.8655 76.2752C66.1183 75.0882 65.977 73.6875 66.5445 72.6836C67.6433 70.7437 69.1254 69.2379 71.1648 68.3606C72.3201 67.8632 73.8113 68.2012 74.9621 69.2209C77.1439 71.154 79.0533 73.2421 80.6813 75.4906C81.779 77.0077 81.7021 78.9047 80.5773 79.9007V79.9018Z" fill="#A87C4C"/>
<path d="M80.5773 79.9018L76.8263 83.2198C75.741 84.1796 73.9334 84.0778 72.57 82.8976C70.3237 80.9532 68.4211 78.7464 66.8655 76.2752C66.1183 75.0882 65.977 73.6875 66.5445 72.6836C67.6433 70.7437 69.1254 69.2379 71.1648 68.3606C72.3201 67.8632 73.8113 68.2012 74.9621 69.2209C77.1439 71.154 79.0533 73.2421 80.6813 75.4906C81.779 77.0077 81.7021 78.9047 80.5773 79.9007V79.9018Z" stroke="#28211F" stroke-width="1.97836" stroke-miterlimit="10"/>
<path d="M117.445 85.1733C121.128 87.0928 123.845 86.1692 125.597 82.4047" stroke="#28211F" stroke-width="1.97836" stroke-linecap="round" stroke-linejoin="round"/>
<path d="M88.7261 95.099C92.4092 97.0186 95.1258 96.095 96.878 92.3304" stroke="#28211F" stroke-width="1.97836" stroke-linecap="round" stroke-linejoin="round"/>
<path d="M186.271 106.1C188.541 105.448 189.229 100.909 187.809 95.9606C186.388 91.0128 183.396 87.5301 181.126 88.1819C178.856 88.8338 178.167 93.3732 179.588 98.3211C181.008 103.269 184 106.752 186.271 106.1Z" fill="#28211F"/>
<path d="M205.592 48.7512C205.237 47.0939 206.568 45.2184 208.986 44.7007C209.692 44.5492 210.433 44.5605 210.712 44.6713L207.704 30.6294L209.062 30.3389L210.024 34.1667L212.288 44.7323C212.928 47.7202 211.169 49.7167 208.751 50.2344C207.312 50.543 205.884 50.1101 205.592 48.7523V48.7512ZM207.703 30.6294L217.621 26.7993L218.505 30.9279L208.587 34.7569L207.703 30.6283V30.6294ZM214.056 45.4321C213.701 43.7748 215.005 41.905 217.422 41.3872C218.128 41.2357 218.869 41.2481 219.148 41.3578L216.18 27.5059L217.66 26.9904L220.75 41.4132C221.395 44.4282 219.604 46.4032 217.185 46.9209C215.746 47.2296 214.346 46.7909 214.054 45.4332L214.056 45.4321Z" fill="black"/>
<path d="M136.971 28.7414C136.616 27.0841 137.946 25.2086 140.365 24.6908C141.071 24.5393 141.812 24.5506 142.091 24.6614L139.083 10.6184L140.44 10.3279L141.402 14.1558L143.667 24.7213C144.307 27.7092 142.548 29.7057 140.129 30.2234C138.69 30.5321 137.263 30.0991 136.971 28.7414Z" fill="black"/>
<path d="M50.9483 49.4984C51.3666 47.8557 53.4727 46.7874 55.9767 47.425C56.6765 47.6036 57.3356 47.9428 57.5368 48.1666L61.2166 33.711L62.563 34.0536C62.6478 34.8494 62.8547 35.1592 63.9535 36.4717C65.9375 38.8118 66.1998 40.4827 65.6786 42.5289C65.3225 43.9284 64.5357 45.1041 63.9196 45.8356L63.0661 45.2454C63.5544 44.453 63.7997 43.8267 64.0462 42.8578C64.478 41.1621 63.6912 39.1849 61.7027 37.9899L58.9205 48.9195C58.1665 51.8803 55.6229 52.8672 53.146 52.2364C51.6922 51.8667 50.6058 50.8448 50.9483 49.4984Z" fill="black"/>
</svg>
