<svg width="131" height="179" viewBox="0 0 131 179" fill="none" xmlns="http://www.w3.org/2000/svg">
<path d="M59.6197 14.4228L58.2509 9.68968C57.8544 8.32022 58.7169 6.75845 60.3523 6.04816C63.0496 4.87767 65.8331 4.12068 68.7073 3.78499C70.0884 3.62381 71.4012 4.09067 72.0565 5.01884C73.3234 6.81403 74.038 8.76707 73.954 10.948C73.9058 12.1829 72.9694 13.3646 71.5659 13.9548C68.9078 15.0742 66.2251 15.8856 63.52 16.3791C61.6942 16.7115 60.0308 15.8411 59.6197 14.4217V14.4228Z" fill="#A87C4C"/>
<path d="M59.6197 14.4228L58.2509 9.68968C57.8544 8.32022 58.7169 6.75845 60.3523 6.04816C63.0496 4.87767 65.8331 4.12068 68.7073 3.78499C70.0884 3.62381 71.4012 4.09067 72.0565 5.01884C73.3234 6.81403 74.038 8.76707 73.954 10.948C73.9058 12.1829 72.9694 13.3646 71.5659 13.9548C68.9078 15.0742 66.2251 15.8856 63.52 16.3791C61.6942 16.7115 60.0308 15.8411 59.6197 14.4217V14.4228Z" stroke="#28211F" stroke-width="2.22315" stroke-miterlimit="10"/>
<path d="M89.7091 96.6528C89.7091 96.6528 96.8981 96.1714 96.3223 92.9067C96.0602 91.4217 92.6875 91.7507 92.6875 91.7507C92.6875 91.7507 94.9479 89.9722 93.6934 88.0769C92.5856 86.404 89.7315 87.998 89.7315 87.998C89.7315 87.998 91.5237 84.7567 90.1583 83.9385C86.519 81.7576 84.0356 89.6832 84.0356 89.6832C85.2051 92.6989 86.9693 95.1444 89.7091 96.6539V96.6528Z" fill="#4E4844"/>
<path d="M84.0353 89.6821C85.6561 92.4388 87.7105 94.7753 89.7088 96.6528C87.4887 98.3112 84.7477 99.8774 81.8107 101.208C72.8475 105.28 64.889 103.222 64.889 103.222L63.6255 94.443C63.6255 94.443 69.7593 95.9603 77.6652 93.2547C80.1037 92.4188 82.1927 91.056 84.0353 89.6832V89.6821Z" fill="#A87C4C"/>
<path d="M84.0366 89.6832C82.1951 91.0537 80.1049 92.4176 77.6642 93.2524C69.7594 95.9569 63.6245 94.4441 63.6245 94.4441" stroke="#28211F" stroke-width="2.22315" stroke-linecap="round" stroke-linejoin="round"/>
<path d="M64.8916 103.222C64.8916 103.222 72.849 105.277 81.8145 101.209C84.7503 99.8775 87.4879 98.3101 89.7091 96.6528" stroke="#28211F" stroke-width="2.22315" stroke-linecap="round" stroke-linejoin="round"/>
<path d="M89.7091 96.6528C89.7091 96.6528 96.8981 96.1714 96.3223 92.9067C96.0602 91.4217 92.6875 91.7507 92.6875 91.7507C92.6875 91.7507 94.9479 89.9722 93.6934 88.0769C92.5856 86.404 89.7315 87.998 89.7315 87.998C89.7315 87.998 91.5237 84.7567 90.1583 83.9385C86.519 81.7576 84.0356 89.6832 84.0356 89.6832" stroke="#28211F" stroke-width="2.22315" stroke-linecap="round" stroke-linejoin="round"/>
<path opacity="0.3" d="M42.035 178.842C65.2503 178.842 84.07 173.684 84.07 167.322C84.07 160.96 65.2503 155.803 42.035 155.803C18.8197 155.803 0 160.96 0 167.322C0 173.684 18.8197 178.842 42.035 178.842Z" fill="black"/>
<path d="M26.2043 77.8593C33.5098 77.1868 40.7324 77.1479 47.8631 77.7904C55.3164 78.4618 61.4614 84.2009 62.9467 91.7852C65.7773 106.231 67.4003 120.751 67.5773 135.36C67.6905 144.624 60.8364 152.427 51.9079 153.168C42.1829 153.975 32.561 153.975 23.0433 153.155C14.4575 152.416 7.67404 145.151 7.42426 136.244C7.02549 121.993 8.32372 107.271 11.0378 92.152C12.4245 84.4265 18.6367 78.5552 26.2032 77.8582L26.2043 77.8593Z" fill="#A87C4C"/>
<path d="M53.3224 105.893C61.4881 105.893 63.6097 124.478 63.6097 131.723C63.6097 138.968 59.0463 143.496 53.3224 143.496C47.5986 143.496 43.0352 138.967 43.0352 131.723C43.0352 124.479 45.1567 105.893 53.3224 105.893Z" fill="#D5CBB1"/>
<path opacity="0.2" d="M66.9521 136.953C65.3424 145.622 59.268 152.318 51.7105 153.06C41.98 154.012 32.3592 154.012 22.8415 153.049C15.3299 152.284 9.1972 145.64 7.6167 136.971C10.6858 142.48 15.7264 146.268 21.5141 146.849C31.9111 147.904 42.4168 147.904 53.0379 146.866C58.8659 146.296 63.8885 142.48 66.9521 136.953Z" fill="black"/>
<path d="M42.0352 161.374C42.9895 164.586 44.2071 167.683 45.3743 167.683H65.8972C65.8972 167.683 69.8188 156.284 42.0352 161.374Z" fill="#4E4844"/>
<path d="M40.1465 153.772C40.6001 155.996 41.466 159.698 42.1269 161.922C46.3173 160.691 49.6037 160.331 52.1733 160.462C53.1556 158.106 54.3195 154.435 54.9344 151.999C52.8286 152.946 46.2635 153.419 40.1465 153.772Z" fill="#A87C4C"/>
<path d="M52.1733 160.463C53.1971 158.153 54.1145 155.058 54.7844 152.562" stroke="#28211F" stroke-width="2.22315" stroke-linecap="round" stroke-linejoin="round"/>
<path d="M50.0887 160.841C68.5428 157.477 65.8982 167.686 65.8982 167.686H45.4346H45.3719C43.4621 167.686 41.2778 159.171 40.1465 153.773" stroke="#28211F" stroke-width="2.22315" stroke-linecap="round" stroke-linejoin="round"/>
<path d="M62.5096 167.392C62.5096 167.392 62.2318 163.152 55.958 163.49" stroke="#28211F" stroke-width="2.22315" stroke-linecap="round" stroke-linejoin="round"/>
<path d="M20.0952 161.374C21.0496 164.586 22.2671 167.683 23.4343 167.683H43.9573C43.9573 167.683 47.8788 156.284 20.0952 161.374Z" fill="#4E4844"/>
<path d="M17.4258 151.707C17.8794 153.931 19.5249 159.698 20.1858 161.922C24.3762 160.691 27.6626 160.331 30.2322 160.462C31.2145 158.106 31.8205 155.92 32.4355 153.484C22.4664 153.262 20.1141 152.817 17.4258 151.706V151.707Z" fill="#A87C4C"/>
<path d="M30.2324 160.463C31.3346 157.976 31.7379 156.343 32.4178 153.763" stroke="#28211F" stroke-width="2.22315" stroke-linecap="round" stroke-linejoin="round"/>
<path d="M28.1476 160.841C46.6017 157.477 43.9571 167.686 43.9571 167.686H23.4935H23.4308C21.521 167.686 18.5571 157.105 17.4258 151.707" stroke="#28211F" stroke-width="2.22315" stroke-linecap="round" stroke-linejoin="round"/>
<path d="M40.5687 167.392C40.5687 167.392 40.2909 163.152 34.0171 163.49" stroke="#28211F" stroke-width="2.22315" stroke-linecap="round" stroke-linejoin="round"/>
<path d="M17.4661 151.671C11.6851 148.99 7.61789 143.104 7.42523 136.245C7.02647 121.994 8.32469 107.272 11.0388 92.1531C12.4255 84.4277 18.6377 78.5563 26.2042 77.8593C33.5096 77.1868 40.7322 77.1479 47.8629 77.7904C55.3163 78.4618 61.4613 84.2009 62.9466 91.7852C65.7771 106.231 67.4002 120.751 67.5772 135.36C67.6713 143.116 62.8838 149.847 56.0836 152.268C52.1497 153.484 42.782 153.54 32.4354 153.484" stroke="#28211F" stroke-width="2.22315" stroke-linecap="round" stroke-linejoin="round"/>
<path d="M17.1681 122.715C17.1681 122.715 14.5044 129.359 17.7203 130.251C19.1832 130.657 20.3403 127.496 20.3403 127.496C20.3403 127.496 20.981 130.287 23.2459 129.981C25.2442 129.711 25.0269 126.469 25.0269 126.469C25.0269 126.469 27.2011 129.471 28.5329 128.603C32.0859 126.286 25.9521 120.643 25.9521 120.643C22.706 120.389 19.722 120.913 17.1681 122.714V122.715Z" fill="#4E4844"/>
<path d="M25.9532 120.644C22.7474 120.905 19.7376 121.737 17.1691 122.715C16.6192 120.011 16.3783 116.882 16.4355 113.679C16.6012 103.897 21.9062 97.6609 21.9062 97.6609L30.4326 100.319C30.4326 100.319 26.4068 105.155 25.4558 113.401C25.1635 115.944 25.5018 118.403 25.9543 120.645L25.9532 120.644Z" fill="#A87C4C"/>
<path d="M25.9512 120.644C25.5009 118.404 25.1626 115.944 25.4561 113.4C26.4082 105.156 30.4306 100.317 30.4306 100.317" stroke="#28211F" stroke-width="2.22315" stroke-linecap="round" stroke-linejoin="round"/>
<path d="M21.904 97.6631C21.904 97.6631 16.6024 103.9 16.4322 113.681C16.3762 116.883 16.6192 120.011 17.1681 122.715" stroke="#28211F" stroke-width="2.22315" stroke-linecap="round" stroke-linejoin="round"/>
<path d="M17.1681 122.715C17.1681 122.715 14.5033 129.359 17.7203 130.251C19.1832 130.657 20.3403 127.496 20.3403 127.496C20.3403 127.496 20.981 130.287 23.2459 129.981C25.2442 129.711 25.0269 126.469 25.0269 126.469C25.0269 126.469 27.2011 129.471 28.5329 128.603C32.0859 126.286 25.9521 120.643 25.9521 120.643" stroke="#28211F" stroke-width="2.22315" stroke-linecap="round" stroke-linejoin="round"/>
<path d="M126.419 84.5121C127.32 81.4664 128.137 78.4118 128.866 75.3494C132.607 59.6339 125.762 43.3982 112.199 35.6428C94.1454 25.3207 75.2903 16.0779 55.6657 7.87002C35.6983 -0.48237 12.9071 11.1959 7.07681 32.8516C5.17707 39.9079 3.58761 46.9064 2.33531 53.8437C-0.182735 67.7929 7.93483 81.2663 21.0784 84.9823C47.2076 92.3699 73.9719 97.8155 101.351 101.378C112.498 102.829 123.106 95.6946 126.419 84.5121Z" fill="#A87C4C"/>
<path opacity="0.2" d="M119.907 95.2044C115.017 99.8585 108.288 102.281 101.351 101.378C73.9708 97.8166 47.2076 92.3699 21.0784 84.9823C7.93483 81.2663 -0.182735 67.7929 2.33531 53.8437C3.58761 46.9064 5.17707 39.9079 7.07681 32.8516C9.97906 22.0726 17.084 13.7636 25.951 9.16833C20.2764 13.9237 15.8967 20.4909 13.7718 28.3864C11.8721 35.4416 10.2826 42.4412 9.03031 49.3785C6.51227 63.3277 14.6309 76.8011 27.7745 80.5171C53.9037 87.9046 80.6669 93.3514 108.047 96.9129C112.191 97.452 116.26 96.805 119.908 95.2044H119.907Z" fill="black"/>
<path d="M124.526 57.7343C121.115 52.2342 104.923 49.4941 101.377 51.8651C97.8306 54.2361 90.4423 80.6494 93.3221 85.2947C96.202 89.94 113.826 93.2313 117.825 90.558C121.824 87.8847 126.92 61.5948 124.527 57.7343H124.526Z" fill="#4E4844"/>
<path d="M118.486 63.895C120.329 63.604 121.676 62.4519 121.495 61.3218C121.314 60.1917 119.673 59.5115 117.83 59.8025C115.986 60.0936 114.639 61.2456 114.82 62.3757C115.001 63.5058 116.643 64.186 118.486 63.895Z" fill="#28211F"/>
<path d="M108.01 60.9111C108.646 59.9565 107.899 58.3547 106.342 57.3335C104.785 56.3123 103.007 56.2584 102.371 57.2131C101.736 58.1677 102.482 59.7695 104.04 60.7907C105.597 61.8119 107.374 61.8658 108.01 60.9111Z" fill="#28211F"/>
<path d="M126.419 84.5121C127.32 81.4664 128.137 78.4118 128.866 75.3494C132.607 59.6339 125.762 43.3982 112.199 35.6428C94.1454 25.3207 75.2903 16.0779 55.6657 7.87002C35.6983 -0.48237 12.9071 11.1959 7.07681 32.8516C5.17707 39.9079 3.58761 46.9064 2.33531 53.8437C-0.182735 67.7929 7.93483 81.2663 21.0784 84.9823C47.2076 92.3699 73.9719 97.8155 101.351 101.378C112.498 102.829 123.106 95.6946 126.419 84.5121Z" stroke="#28211F" stroke-width="2.22315" stroke-linecap="round" stroke-linejoin="round"/>
<path d="M112.495 77.3895C113.785 72.4924 112.995 68.0464 110.731 67.459C108.467 66.8716 105.586 70.3654 104.296 75.2625C103.006 80.1596 103.795 84.6056 106.06 85.193C108.324 85.7804 111.205 82.2866 112.495 77.3895Z" fill="#28211F"/>
<path d="M24.8622 14.7462L27.3198 10.4678C28.0311 9.23059 27.5651 7.51099 26.1448 6.43609C23.8026 4.66535 21.2778 3.2781 18.566 2.27768C17.2622 1.79748 15.8755 1.9431 15.0174 2.69119C13.3585 4.13846 12.1992 5.86919 11.7612 8.00786C11.5137 9.21948 12.1432 10.5867 13.3653 11.4893C15.6817 13.2 18.0944 14.6184 20.6058 15.7322C22.3005 16.4836 24.1241 16.0279 24.8611 14.744L24.8622 14.7462Z" fill="#A87C4C"/>
<path d="M24.8622 14.7462L27.3198 10.4678C28.0311 9.23059 27.5651 7.51099 26.1448 6.43609C23.8026 4.66535 21.2778 3.2781 18.566 2.27768C17.2622 1.79748 15.8755 1.9431 15.0174 2.69119C13.3585 4.13846 12.1992 5.86919 11.7612 8.00786C11.5137 9.21948 12.1432 10.5867 13.3653 11.4893C15.6817 13.2 18.0944 14.6184 20.6058 15.7322C22.3005 16.4836 24.1241 16.0279 24.8611 14.744L24.8622 14.7462Z" stroke="#28211F" stroke-width="2.22315" stroke-miterlimit="10"/>
<path d="M32.6641 41.911C35.0291 41.911 36.9463 38.7647 36.9463 34.8836C36.9463 31.0025 35.0291 27.8562 32.6641 27.8562C30.2991 27.8562 28.3818 31.0025 28.3818 34.8836C28.3818 38.7647 30.2991 41.911 32.6641 41.911Z" fill="#28211F"/>
<path d="M62.3775 42.4367C64.7425 42.4367 66.6597 39.2905 66.6597 35.4093C66.6597 31.5282 64.7425 28.382 62.3775 28.382C60.0124 28.382 58.0952 31.5282 58.0952 35.4093C58.0952 39.2905 60.0124 42.4367 62.3775 42.4367Z" fill="#28211F"/>
<path d="M23.1116 45.7859L26.2928 52.6254C28.5879 59.2749 17.2052 58.7958 19.7983 52.6254L23.1116 45.7859Z" fill="#F1FFFF" stroke="#B1B3B3" stroke-width="0.111158" stroke-miterlimit="10"/>
<path d="M23.1116 45.7859L26.2928 52.6254C28.5879 59.2749 17.2052 58.7958 19.7983 52.6254L23.1116 45.7859V45.7859Z" stroke="#B1B3B3" stroke-width="2.22315" stroke-linecap="round" stroke-linejoin="round"/>
</svg>
