<svg width="136" height="162" viewBox="0 0 136 162" fill="none" xmlns="http://www.w3.org/2000/svg">
<path d="M80.3308 108.396C80.3308 108.396 82.6725 114.28 79.8461 115.07C78.5605 115.43 77.5439 112.63 77.5439 112.63C77.5439 112.63 76.9804 115.102 74.9904 114.831C73.2339 114.591 73.425 111.721 73.425 111.721C73.425 111.721 71.5148 114.381 70.3435 113.61C67.2206 111.558 72.6113 106.561 72.6113 106.561C75.4642 106.337 78.0867 106.801 80.3318 108.396H80.3308Z" fill="#4E4844"/>
<path d="M72.6105 106.562C75.428 106.793 78.0731 107.529 80.331 108.396C80.8147 106.002 81.0265 103.231 80.9763 100.394C80.8305 91.7312 76.1688 86.2075 76.1688 86.2075L68.6748 88.561C68.6748 88.561 72.2124 92.8444 73.0488 100.146C73.306 102.399 73.0084 104.576 72.6105 106.562Z" fill="#A87C4C"/>
<path d="M72.6114 106.562C73.0075 104.578 73.305 102.399 73.0469 100.145C72.2105 92.8454 68.6748 88.5581 68.6748 88.5581" stroke="#28211F" stroke-width="2.25175" stroke-linecap="round" stroke-linejoin="round"/>
<path d="M76.1689 86.2085C76.1689 86.2085 80.8277 91.7322 80.9774 100.395C81.0267 103.231 80.8129 106.001 80.3302 108.395" stroke="#28211F" stroke-width="2.25175" stroke-linecap="round" stroke-linejoin="round"/>
<path d="M80.3308 108.396C80.3308 108.396 82.6725 114.28 79.8461 115.07C78.5605 115.43 77.5439 112.63 77.5439 112.63C77.5439 112.63 76.9804 115.102 74.9904 114.831C73.2339 114.591 73.425 111.721 73.425 111.721C73.425 111.721 71.5148 114.381 70.3435 113.61C67.2206 111.558 72.6113 106.561 72.6113 106.561" stroke="#28211F" stroke-width="2.25175" stroke-linecap="round" stroke-linejoin="round"/>
<path opacity="0.3" d="M56.9489 161.899C77.3666 161.899 93.9184 157.328 93.9184 151.69C93.9184 146.052 77.3666 141.481 56.9489 141.481C36.5313 141.481 19.9795 146.052 19.9795 151.69C19.9795 157.328 36.5313 161.899 56.9489 161.899Z" fill="black"/>
<path d="M43.0244 72.4037C49.4495 71.8077 55.8017 71.7732 62.0731 72.3427C68.6283 72.9377 74.0328 78.024 75.3391 84.7456C77.8285 97.5485 79.256 110.416 79.4117 123.364C79.5112 131.574 73.4831 138.49 65.6305 139.146C57.0775 139.861 48.6151 139.861 40.2444 139.135C32.6932 138.48 26.7272 132.041 26.5075 124.147C26.1568 111.518 27.2986 98.4696 29.6856 85.0707C30.9052 78.224 36.3688 73.0204 43.0234 72.4028L43.0244 72.4037Z" fill="#A87C4C"/>
<path d="M66.8757 97.248C74.0574 97.248 75.9232 113.719 75.9232 120.14C75.9232 126.561 71.9098 130.573 66.8757 130.573C61.8416 130.573 57.8281 126.56 57.8281 120.14C57.8281 113.72 59.694 97.248 66.8757 97.248Z" fill="#D5CBB1"/>
<path opacity="0.2" d="M78.8627 124.776C77.4471 132.459 72.1046 138.394 65.4579 139.051C56.8999 139.895 48.4385 139.895 40.0678 139.041C33.4614 138.363 28.0678 132.475 26.6777 124.792C29.377 129.674 33.8102 133.031 38.9004 133.547C48.0445 134.481 57.2841 134.481 66.6253 133.561C71.751 133.056 76.1683 129.674 78.8627 124.776Z" fill="black"/>
<path d="M56.9492 146.419C57.7886 149.266 58.8594 152.01 59.8859 152.01H77.9357C77.9357 152.01 81.3847 141.908 56.9492 146.419Z" fill="#4E4844"/>
<path d="M55.2871 139.682C55.6861 141.653 56.4476 144.934 57.0288 146.905C60.7143 145.814 63.6047 145.494 65.8646 145.611C66.7286 143.523 67.7521 140.269 68.293 138.111C66.4409 138.95 60.667 139.369 55.2871 139.682Z" fill="#A87C4C"/>
<path d="M65.8643 145.611C66.7647 143.563 67.5715 140.821 68.1606 138.608" stroke="#28211F" stroke-width="2.25175" stroke-linecap="round" stroke-linejoin="round"/>
<path d="M64.0312 145.946C80.2615 142.965 77.9355 152.012 77.9355 152.012H59.938H59.8828C58.2031 152.012 56.2821 144.466 55.2871 139.682" stroke="#28211F" stroke-width="2.25175" stroke-linecap="round" stroke-linejoin="round"/>
<path d="M74.9555 151.752C74.9555 151.752 74.7111 147.994 69.1934 148.293" stroke="#28211F" stroke-width="2.25175" stroke-linecap="round" stroke-linejoin="round"/>
<path d="M37.6523 146.42C38.4917 149.266 39.5625 152.01 40.5891 152.01H58.6388C58.6388 152.01 62.0878 141.909 37.6523 146.42Z" fill="#4E4844"/>
<path d="M35.3057 137.852C35.7046 139.823 37.1518 144.934 37.7331 146.905C41.4185 145.814 44.3089 145.494 46.5688 145.611C47.4328 143.523 47.9657 141.585 48.5066 139.427C39.7388 139.23 37.67 138.836 35.3057 137.851V137.852Z" fill="#A87C4C"/>
<path d="M46.5693 145.611C47.5387 143.407 47.8934 141.96 48.4913 139.673" stroke="#28211F" stroke-width="2.25175" stroke-linecap="round" stroke-linejoin="round"/>
<path d="M44.7345 145.946C60.9647 142.965 58.6388 152.012 58.6388 152.012H40.6412H40.586C38.9064 152.012 36.2997 142.635 35.3047 137.851" stroke="#28211F" stroke-width="2.25175" stroke-linecap="round" stroke-linejoin="round"/>
<path d="M55.6586 151.752C55.6586 151.752 55.4143 147.994 49.8965 148.293" stroke="#28211F" stroke-width="2.25175" stroke-linecap="round" stroke-linejoin="round"/>
<path d="M35.3393 137.82C30.255 135.444 26.6779 130.228 26.5085 124.148C26.1578 111.519 27.2996 98.4706 29.6866 85.0717C30.9062 78.2249 36.3698 73.0214 43.0244 72.4037C49.4495 71.8077 55.8017 71.7732 62.0731 72.3427C68.6283 72.9377 74.0328 78.024 75.3391 84.7456C77.8285 97.5485 79.256 110.416 79.4117 123.364C79.4944 130.238 75.2839 136.204 69.3031 138.349C65.8433 139.427 57.6045 139.476 48.5048 139.427" stroke="#28211F" stroke-width="2.25175" stroke-linecap="round" stroke-linejoin="round"/>
<path d="M52.7656 14.4862L48.4113 14.7857C47.1523 14.8724 45.9563 13.842 45.642 12.3022C45.1239 9.76544 44.981 7.23067 45.2194 4.69787C45.3337 3.48023 45.9809 2.43795 46.906 2.04685C48.695 1.29026 50.5195 1.03806 52.3942 1.51487C53.4562 1.7848 54.3074 2.81034 54.5605 4.12649C55.0413 6.62087 55.2511 9.07781 55.1802 11.4954C55.1329 13.1267 54.0709 14.3966 52.7656 14.4862Z" fill="#A87C4C"/>
<path d="M52.7656 14.4862L48.4113 14.7857C47.1523 14.8724 45.9563 13.842 45.642 12.3022C45.1239 9.76544 44.981 7.23067 45.2194 4.69787C45.3337 3.48023 45.9809 2.43795 46.906 2.04685C48.695 1.29026 50.5195 1.03806 52.3942 1.51487C53.4562 1.7848 54.3074 2.81034 54.5605 4.12649C55.0413 6.62087 55.2511 9.07781 55.1802 11.4954C55.1329 13.1267 54.0709 14.3966 52.7656 14.4862V14.4862Z" stroke="#28211F" stroke-width="2.25175" stroke-miterlimit="10"/>
<path d="M134.283 38.1317C133.644 35.391 132.937 32.6819 132.16 30.0033C128.169 16.2596 115.847 6.6968 102.079 6.58449C83.7556 6.43475 65.2882 7.46718 46.6837 9.62858C27.7542 11.8284 15.3995 30.7028 20.3814 49.9337C22.0049 56.1992 23.8402 62.2874 25.9081 68.1815C30.0654 80.0338 42.156 86.914 53.8398 84.0916C77.0665 78.4812 99.9327 71.0975 122.449 61.9938C131.616 58.2877 136.625 48.192 134.284 38.1307L134.283 38.1317Z" fill="#A87C4C"/>
<path opacity="0.2" d="M133.962 49.1997C132.248 54.9067 128.154 59.6876 122.449 61.9948C99.9335 71.0985 77.0674 78.4811 53.8407 84.0915C42.1569 86.914 30.0652 80.0327 25.9079 68.1815C23.8411 62.2874 22.0048 56.2002 20.3823 49.9337C17.9027 40.361 19.7183 30.8761 24.5021 23.4924C22.2324 29.6171 21.7437 36.5801 23.5603 43.5903C25.1829 49.8558 27.0202 55.944 29.086 61.8381C33.2433 73.6894 45.3349 80.5706 57.0187 77.7482C80.2454 72.1378 103.112 64.7542 125.627 55.6514C129.035 54.2732 131.868 52.0133 133.962 49.1997Z" fill="black"/>
<path d="M121.153 18.2938C116.144 15.5265 102.552 20.4217 100.871 23.786C99.1905 27.1502 105.055 50.7267 109.286 53.0634C113.517 55.4002 128.445 50.3109 130.341 46.5181C132.236 42.7253 124.67 20.2365 121.154 18.2948L121.153 18.2938Z" fill="#4E4844"/>
<path d="M119.218 25.6667C120.502 24.6444 121.032 23.1725 120.4 22.379C119.768 21.5855 118.215 21.771 116.931 22.7933C115.647 23.8156 115.117 25.2876 115.749 26.0811C116.381 26.8745 117.934 26.689 119.218 25.6667Z" fill="#28211F"/>
<path d="M109.898 27.8978C109.969 26.8861 108.698 25.9736 107.061 25.8596C105.423 25.7457 104.039 26.4735 103.968 27.4852C103.898 28.4969 105.168 29.4094 106.806 29.5234C108.443 29.6373 109.828 28.9095 109.898 27.8978Z" fill="#28211F"/>
<path d="M123.7 43.7066C123.374 45.4 122.444 46.8039 120.501 47.4196C117.543 48.3476 115.315 46.8472 113.705 44.7114C118.372 43.2061 121.6 43.2495 123.701 43.7066H123.7Z" fill="#F28181"/>
<path d="M123.701 43.7065C121.6 43.2494 118.372 43.2061 113.704 44.7114C112.496 43.1145 111.637 41.153 111.084 39.5985C113.955 38.8636 116.624 36.3032 115.665 33.4266C116.561 36.116 119.96 36.7918 122.597 35.8924C123.373 38.0981 124.181 41.22 123.702 43.7065H123.701Z" fill="#28211F"/>
<path d="M125.069 34.26C122.842 37.0105 116.9 37.1219 115.665 33.4246" stroke="#28211F" stroke-width="2.25175" stroke-linecap="round" stroke-linejoin="round"/>
<path d="M108.65 39.7453C112.135 40.3078 116.899 37.1219 115.664 33.4256L114.827 30.9233" stroke="#28211F" stroke-width="2.25175" stroke-linecap="round" stroke-linejoin="round"/>
<path d="M122.596 35.8924C123.903 39.6064 125.3 45.9014 120.5 47.4195C115.324 49.048 112.378 43.2268 111.083 39.5985" stroke="#28211F" stroke-width="2.25175" stroke-linecap="round" stroke-linejoin="round"/>
<path d="M134.283 38.1317C133.644 35.391 132.937 32.6819 132.16 30.0033C128.169 16.2596 115.847 6.6968 102.079 6.58449C83.7556 6.43475 65.2882 7.46718 46.6837 9.62858C27.7542 11.8284 15.3995 30.7028 20.3814 49.9337C22.0049 56.1992 23.8402 62.2874 25.9081 68.1815C30.0654 80.0338 42.156 86.914 53.8398 84.0916C77.0665 78.4812 99.9327 71.0975 122.449 61.9938C131.616 58.2877 136.625 48.192 134.284 38.1307L134.283 38.1317Z" stroke="#28211F" stroke-width="2.25175" stroke-linecap="round" stroke-linejoin="round"/>
<path d="M22.7944 28.1502L26.601 26.0154C27.7023 25.3977 28.1368 23.8806 27.5575 22.4216C26.6019 20.0159 25.3321 17.817 23.745 15.828C22.9825 14.8724 21.8703 14.3543 20.8822 14.5336C18.971 14.8803 17.3061 15.6684 15.9998 17.0949C15.259 17.9027 15.1093 19.2268 15.6186 20.4661C16.583 22.8156 17.7534 24.9859 19.1365 26.971C20.0704 28.3098 21.6536 28.7905 22.7953 28.1502H22.7944Z" fill="#A87C4C"/>
<path d="M22.7944 28.1502L26.601 26.0154C27.7023 25.3977 28.1368 23.8806 27.5575 22.4216C26.6019 20.0159 25.3321 17.817 23.745 15.828C22.9825 14.8724 21.8703 14.3543 20.8822 14.5336C18.971 14.8803 17.3061 15.6684 15.9998 17.0949C15.259 17.9027 15.1093 19.2268 15.6186 20.4661C16.583 22.8156 17.7534 24.9859 19.1365 26.971C20.0704 28.3098 21.6536 28.7905 22.7953 28.1502H22.7944Z" stroke="#28211F" stroke-width="2.25175" stroke-miterlimit="10"/>
<path d="M40.9723 39.0612C43.0103 38.6975 44.1747 35.6702 43.5731 32.2996C42.9715 28.9289 40.8317 26.4914 38.7937 26.8551C36.7557 27.2189 35.5912 30.2462 36.1928 33.6168C36.7944 36.9875 38.9343 39.425 40.9723 39.0612Z" fill="#28211F"/>
<path d="M40.9095 31.1583C41.3611 31.0777 41.6191 30.4071 41.4858 29.6605C41.3525 28.9138 40.8785 28.3739 40.4269 28.4545C39.9754 28.5351 39.7174 29.2057 39.8507 29.9523C39.9839 30.699 40.458 31.2389 40.9095 31.1583Z" fill="white"/>
<path d="M61.3584 27.9394C61.3584 27.9394 64.0735 19.9361 72.2511 24.7859" stroke="#28211F" stroke-width="2.25175" stroke-linecap="round" stroke-linejoin="round"/>
<path d="M66.3851 39.2931C66.9467 41.6791 76.4316 39.4892 75.8602 37.0628C75.2859 34.6216 65.7911 36.7702 66.3851 39.2931Z" fill="#DC7BA8"/>
<path d="M38.8568 46.9309C39.4183 49.317 48.9033 47.127 48.3319 44.7006C47.7576 42.2594 38.2628 44.408 38.8568 46.9309Z" fill="#DC7BA8"/>
<path d="M27.9593 74.974C25.6866 76.9945 21.7204 79.3382 15.5367 79.348C14.5436 78.3047 13.591 77.2211 12.6738 76.1029C17.9246 76.6221 21.9056 74.8282 25.2521 71.8846L23.1055 73.8401C24.0375 73.1396 24.8492 72.3988 25.5398 71.6274C26.3614 72.8067 27.1623 73.9258 27.9593 74.973V74.974Z" fill="#4E4844"/>
<path d="M36.5916 93.6809C28.3617 90.1984 21.3268 85.4411 15.5371 79.349C21.7199 79.3392 25.686 76.9955 27.9598 74.975C32.5308 81.0582 36.5522 84.8175 39.8278 85.4569C42.9822 88.1434 40.0494 94.0641 36.5926 93.6809H36.5916Z" fill="#A87C4C"/>
<path d="M28.9741 62.7318C28.9741 65.8212 27.9663 68.9205 25.5418 71.6266C25.4463 71.7123 25.3507 71.7981 25.2542 71.8838C21.9086 74.8264 17.9267 76.6203 12.6759 76.1021C5.67151 74.9879 -3.64696 57.3903 7.3295 49.2472C6.22122 47.7448 5.17795 46.5154 4.30019 45.5233C3.42341 44.5254 2.71805 43.7648 2.28459 43.2053C-0.668871 37.4304 6.02911 32.416 11.275 35.6768C13.4068 37.0018 15.8914 40.2223 15.1003 46.2592C21.752 46.3498 28.9741 54.4832 28.9741 62.7328V62.7318Z" fill="#4E4844"/>
<path d="M39.8292 85.4539C35.9891 84.7033 31.1265 79.6682 25.5427 71.6255C24.8521 72.3969 24.0413 73.1377 23.1084 73.8381" stroke="#28211F" stroke-width="2.25175" stroke-linecap="round" stroke-linejoin="round"/>
<path d="M25.5419 71.6256C35.2583 60.7812 22.2456 43.5914 12.6759 46.6099C-6.10092 52.5414 4.76422 74.846 12.6759 76.1011C18.9552 83.7714 26.9526 89.6015 36.5932 93.679C36.8907 93.7115 37.1843 93.6987 37.471 93.6435" stroke="#28211F" stroke-width="2.25175" stroke-linecap="round" stroke-linejoin="round"/>
<path d="M7.32853 49.2461C5.11097 46.2473 3.15054 44.3223 2.28361 43.2042C-0.669847 37.4293 6.02814 32.4149 11.274 35.6757C13.4059 37.0007 15.8904 40.2212 15.0993 46.2581" stroke="#28211F" stroke-width="2.25175" stroke-linecap="round" stroke-linejoin="round"/>
<path d="M14.5215 60.3891C19.2718 57.2228 25.7363 53.6999 27.4929 56.349" stroke="#28211F" stroke-width="2.25175" stroke-linecap="round" stroke-linejoin="round"/>
</svg>
