<svg width="400" height="400" viewBox="0 0 400 400" fill="none" xmlns="http://www.w3.org/2000/svg">
<g clip-path="url(#clip0_4169_3087)">
<rect width="400" height="400" fill="#FBE5AE"/>
<path d="M214.818 374.571C214.818 374.571 217.965 389.092 224.513 386.915C227.494 385.927 225.792 379.143 225.792 379.143C225.792 379.143 230.126 383.221 233.639 380.075C236.748 377.314 232.614 371.974 232.614 371.974C232.614 371.974 239.82 374.645 241.081 371.608C244.464 363.525 227.439 360.854 227.439 360.854C221.587 364.183 217.088 368.535 214.818 374.571Z" fill="#4E4844"/>
<path d="M227.439 360.891C222.264 365.025 218.074 369.927 214.818 374.571C210.74 370.548 206.699 365.426 203.077 359.848C192.012 342.803 193.842 325.94 193.842 325.94L211.51 320.709C211.51 320.709 210.23 333.675 218.167 348.985C220.636 353.703 224.056 357.543 227.439 360.891Z" fill="#F67B32"/>
<path fill-rule="evenodd" clip-rule="evenodd" d="M212.905 320.79C212.905 320.79 212.905 320.791 212.905 320.791L212.903 320.813C212.902 320.832 212.899 320.864 212.896 320.908C212.889 320.996 212.88 321.131 212.871 321.312C212.854 321.673 212.836 322.214 212.839 322.915C212.844 324.318 212.931 326.358 213.261 328.87C213.921 333.897 215.55 340.803 219.43 348.286L219.43 348.287C221.708 352.688 224.891 356.317 228.116 359.551C228.208 359.568 228.313 359.588 228.43 359.61C228.908 359.703 229.582 359.843 230.379 360.038C231.965 360.425 234.073 361.034 236.091 361.918C238.079 362.788 240.136 363.99 241.468 365.639C242.148 366.48 242.66 367.465 242.85 368.596C243.04 369.733 242.888 370.926 242.375 372.151C241.814 373.498 240.615 374.093 239.511 374.322C238.423 374.547 237.215 374.473 236.171 374.32C235.94 374.286 235.711 374.247 235.488 374.205C235.527 374.298 235.565 374.393 235.601 374.489C236.287 376.276 236.83 379.117 234.572 381.124C232.26 383.194 229.656 382.825 227.865 382.088C227.789 382.057 227.715 382.025 227.641 381.993C227.655 382.199 227.666 382.409 227.672 382.621C227.701 383.6 227.636 384.731 227.3 385.732C226.958 386.752 226.266 387.814 224.954 388.249C222.728 388.989 220.8 388.254 219.316 386.966C217.886 385.725 216.778 383.91 215.945 382.167C215.1 380.399 214.478 378.577 214.069 377.21C213.864 376.524 213.71 375.945 213.607 375.535C213.583 375.443 213.563 375.359 213.545 375.284C209.478 371.219 205.48 366.126 201.901 360.613C196.234 351.874 193.87 343.193 192.922 336.7C192.449 333.452 192.328 330.745 192.326 328.842C192.326 327.89 192.355 327.138 192.385 326.618C192.4 326.359 192.415 326.157 192.426 326.018C192.432 325.948 192.437 325.894 192.441 325.856L192.445 325.811L192.447 325.798L192.447 325.793L192.447 325.792C192.448 325.791 192.448 325.79 193.799 325.937L192.448 325.79C192.531 325.021 193.223 324.464 193.993 324.548C194.762 324.631 195.319 325.323 195.236 326.092C195.236 326.092 195.236 326.093 195.236 326.093L193.842 325.942C195.236 326.093 195.236 326.092 195.236 326.092C195.236 326.092 195.236 326.093 195.236 326.093L195.235 326.097L195.232 326.125C195.23 326.152 195.226 326.195 195.221 326.252C195.211 326.368 195.198 326.545 195.184 326.78C195.157 327.248 195.13 327.946 195.131 328.839C195.132 330.628 195.246 333.199 195.697 336.295C196.601 342.489 198.855 350.763 204.253 359.086C204.253 359.087 204.253 359.086 204.253 359.086C207.832 364.6 211.812 369.636 215.803 373.575C215.997 373.767 216.131 374.01 216.189 374.276C216.189 374.276 216.189 374.276 214.818 374.573L216.189 374.276L216.19 374.282L216.196 374.308C216.201 374.332 216.209 374.369 216.221 374.418C216.244 374.516 216.279 374.663 216.326 374.851C216.421 375.227 216.564 375.765 216.756 376.406C217.141 377.694 217.715 379.367 218.475 380.957C219.247 382.572 220.154 383.98 221.155 384.849C222.102 385.671 223.023 385.936 224.07 385.587L224.072 385.587C224.251 385.528 224.464 385.371 224.641 384.841C224.825 384.293 224.894 383.542 224.869 382.702C224.845 381.881 224.737 381.073 224.63 380.461C224.578 380.157 224.527 379.908 224.49 379.737C224.471 379.651 224.456 379.586 224.446 379.543L224.435 379.497L224.433 379.487C224.433 379.487 224.433 379.487 224.433 379.487C224.433 379.487 224.433 379.487 225.793 379.146C226.754 378.125 226.753 378.124 226.753 378.124C226.757 378.127 226.764 378.135 226.776 378.145C226.799 378.165 226.837 378.198 226.888 378.241C226.991 378.328 227.147 378.453 227.346 378.597C227.749 378.889 228.303 379.236 228.932 379.495C230.185 380.01 231.503 380.108 232.703 379.033L232.708 379.029C233.557 378.275 233.587 377.067 232.983 375.494C232.703 374.764 232.331 374.093 232.022 373.596C231.868 373.35 231.734 373.153 231.64 373.02C231.594 372.954 231.557 372.904 231.534 372.873C231.522 372.857 231.513 372.846 231.509 372.839L231.505 372.835L232.614 371.976L233.101 370.662L233.113 370.666L233.164 370.684C233.21 370.701 233.281 370.725 233.373 370.756C233.558 370.818 233.826 370.905 234.153 371C234.812 371.193 235.685 371.414 236.579 371.545C237.494 371.68 238.324 371.704 238.942 371.576C239.543 371.451 239.716 371.242 239.787 371.072L239.788 371.069C240.121 370.273 240.177 369.615 240.084 369.059C239.99 368.496 239.727 367.946 239.286 367.401C238.377 366.275 236.812 365.294 234.967 364.487C233.152 363.692 231.214 363.128 229.714 362.762C228.967 362.58 228.338 362.449 227.897 362.363C227.677 362.321 227.505 362.29 227.389 362.27C227.359 362.264 227.332 362.26 227.31 362.256C227.29 362.253 227.273 362.25 227.259 362.248L227.228 362.243L227.222 362.241L227.221 362.241C226.929 362.195 226.66 362.059 226.45 361.85C223.052 358.471 219.491 354.507 216.94 349.576C212.883 341.751 211.175 334.52 210.481 329.235C210.134 326.593 210.04 324.434 210.034 322.926C210.031 322.173 210.05 321.581 210.07 321.173C210.081 320.969 210.091 320.811 210.099 320.701C210.103 320.646 210.107 320.604 210.109 320.573L210.112 320.537L210.113 320.526L210.114 320.521C210.114 320.52 210.114 320.52 211.51 320.655L210.114 320.52C210.189 319.749 210.875 319.185 211.645 319.26C212.416 319.335 212.98 320.02 212.905 320.79ZM233.101 370.662C233.102 370.662 233.101 370.662 233.101 370.662V370.662ZM233.101 370.662C233.102 370.662 233.101 370.662 233.101 370.662C232.515 370.445 231.854 370.642 231.484 371.146C231.114 371.65 231.122 372.338 231.504 372.833C231.504 372.833 231.504 372.833 231.504 372.833C231.504 372.833 231.505 372.835 231.505 372.835M224.433 379.487C224.281 378.883 224.546 378.251 225.083 377.936C225.619 377.622 226.297 377.698 226.751 378.122C226.751 378.122 226.752 378.123 226.752 378.123C226.752 378.123 226.753 378.124 226.753 378.124C226.753 378.124 226.753 378.124 226.754 378.125L225.793 379.146" fill="#28211F"/>
<path d="M136.779 283.895C151.814 282.506 166.665 282.414 181.332 283.749C196.659 285.138 209.295 297.028 212.37 312.756C218.185 342.694 221.533 372.799 221.9 403.086C222.138 422.289 208.036 438.457 189.675 439.994C169.667 441.659 149.878 441.659 130.308 439.976C112.64 438.438 98.6863 423.388 98.1739 404.915C97.3507 375.378 100.022 344.855 105.598 313.525C108.45 297.522 121.217 285.342 136.782 283.898L136.779 283.895Z" fill="#F67B32"/>
<path fill-rule="evenodd" clip-rule="evenodd" d="M136.909 285.31C151.864 283.929 166.629 283.837 181.205 285.164L136.909 285.31ZM181.459 282.372C166.7 281.028 151.763 281.122 136.65 282.518L136.65 282.518C120.419 284.024 107.152 296.691 104.197 313.296L105.577 313.542L104.197 313.296C98.6065 344.703 95.925 375.322 96.7512 404.97C97.1484 419.714 105.841 432.388 118.206 438.171C118.908 438.499 119.742 438.197 120.071 437.495C120.399 436.794 120.096 435.959 119.394 435.631C107.985 430.295 99.9227 418.572 99.5545 404.894L99.5544 404.893C98.7344 375.466 101.395 345.04 106.958 313.788C109.706 298.349 122.009 286.693 136.908 285.31M181.459 282.372C197.449 283.821 210.56 296.209 213.746 312.505L213.746 312.507C219.576 342.519 222.934 372.709 223.301 403.088L221.899 403.104L223.301 403.087C223.301 403.087 223.301 403.087 223.301 403.088C223.51 419.744 213.294 434.248 198.724 439.466C198.706 439.473 198.688 439.479 198.67 439.485C194.426 440.81 187.409 441.469 178.934 441.798C170.408 442.128 160.238 442.128 149.597 442.074C148.822 442.07 148.198 441.439 148.202 440.664C148.206 439.89 148.837 439.265 149.611 439.269C160.257 439.324 170.369 439.323 178.825 438.995C187.311 438.666 193.962 438.011 197.806 436.816C197.797 436.82 197.788 436.823 197.779 436.826L198.252 438.146L197.833 436.808C197.824 436.811 197.815 436.814 197.806 436.816C211.203 432.005 220.692 418.605 220.497 403.122L220.497 403.121C220.132 372.928 216.794 342.907 210.994 313.043L212.369 312.775L210.993 313.042C210.993 313.042 210.993 313.043 210.994 313.043C208.03 297.885 195.869 286.493 181.206 285.164L181.205 285.164" fill="#28211F"/>
<path d="M214.343 380.24C215.66 403.503 207.155 418.593 195.451 419.251C183.727 419.928 173.558 405.919 172.241 382.638C171.436 368.464 174.509 338.762 178.422 318.993C181.569 296.973 167.119 298.656 167.119 298.656C158.943 297.211 165.308 285.634 180.563 289.877C180.563 289.877 192.341 296.333 196.274 302.697C207.705 316.598 213.246 360.893 214.343 380.242V380.24Z" fill="#FFF1D6"/>
<path d="M73.517 155.597C77.9618 167.429 83.8513 179.099 91.0553 190.602C83.7585 195.833 73.2967 193.693 68.8147 185.663C60.9499 171.598 55.0976 157.023 51.4759 141.843C48.879 130.943 58.1513 120.829 69.1974 122.658C84.6512 125.2 99.6853 129.589 114.024 135.845C121.706 139.19 125.051 147.823 122.401 155.231C110.75 149.434 98.8274 144.751 86.8099 141.203C76.8049 138.258 69.8558 145.85 73.5147 155.597H73.517Z" fill="#F67B32"/>
<path d="M122.421 155.249C121.909 156.675 121.178 158.066 120.209 159.346C111.704 170.703 102.377 180.779 92.2814 189.65C91.878 189.998 91.4768 190.327 91.0734 190.62C83.8672 179.117 77.9779 167.447 73.5355 155.616C69.8767 145.868 76.8279 138.277 86.8489 141.222C98.8454 144.751 110.751 149.434 122.421 155.249Z" fill="#FFF1D6"/>
<path fill-rule="evenodd" clip-rule="evenodd" d="M50.1356 142.169C47.2907 130.311 57.3779 119.279 69.4489 121.275C85.0142 123.835 100.16 128.256 114.608 134.559L114.609 134.56C124.608 138.932 127.848 151.458 121.334 160.185L121.333 160.186C113.546 170.602 105.07 179.924 95.9493 188.249H96.0087L93.2091 190.705C85.2306 197.705 72.7714 195.622 67.6131 186.345C59.711 172.18 53.79 157.486 50.1356 142.169ZM91.2092 188.727L91.3565 188.598C101.378 179.792 110.64 169.805 119.087 158.507C124.532 151.212 121.813 140.77 113.486 137.129C99.2565 130.921 84.3349 126.565 68.9932 124.042L68.992 124.042C58.9342 122.379 50.4773 131.575 52.8627 141.516L52.8631 141.518C56.4521 156.561 62.2725 171.016 70.0626 184.98L70.0636 184.982C74.3103 192.62 84.5524 194.407 91.2092 188.727Z" fill="#28211F"/>
<path d="M153.898 114.446C149.015 126.113 145.303 138.643 142.65 151.957C133.744 150.749 127.616 142.026 129.849 133.102C133.781 117.483 139.506 102.852 147.278 89.3185C152.857 79.5894 166.537 78.6016 173.34 87.5261C182.832 99.982 190.769 113.479 196.914 127.871C200.206 135.59 196.73 144.148 189.707 147.732C185.209 135.515 179.739 123.938 173.43 113.11C168.181 104.074 157.921 104.826 153.898 114.446Z" fill="#F67B32"/>
<path d="M189.725 147.713C188.371 148.408 186.889 148.902 185.298 149.176C171.327 151.608 157.628 152.54 144.185 152.065C143.654 152.046 143.142 152.009 142.631 151.937C145.284 138.624 148.996 126.097 153.879 114.427C157.902 104.807 168.162 104.058 173.43 113.091C179.757 123.919 185.227 135.496 189.725 147.713Z" fill="#FFF1D6"/>
<path fill-rule="evenodd" clip-rule="evenodd" d="M146.1 88.6202C152.17 78.0539 167.071 76.9612 174.491 86.6752L174.492 86.6765C184.05 99.2188 192.049 112.816 198.241 127.32L198.241 127.321C202.512 137.341 196.283 148.705 185.559 150.577L185.558 150.577C172.675 152.817 160.033 153.794 147.619 153.577L147.654 153.613L144.156 153.488C133.546 153.109 125.91 143.054 128.527 132.759C132.469 117.027 138.258 102.275 146.1 88.6204L146.1 88.6202ZM144.007 150.675L144.254 150.683C157.579 151.155 171.18 150.23 185.077 147.814C194.034 146.25 199.218 136.765 195.661 128.421C189.564 114.137 181.684 100.741 172.262 88.3762C166.076 80.2797 153.618 81.1629 148.531 90.0169C140.829 103.43 135.132 117.939 131.246 133.443L131.245 133.447C129.094 141.908 135.29 150.212 144.007 150.675Z" fill="#28211F"/>
<path d="M321.773 147.385C312.61 142.318 300.942 140.215 286.566 145.812C238.795 164.357 266.466 209.165 270.181 229.027C273.895 248.888 136.067 282.193 115.053 284.405C109.53 284.99 104.684 284.918 100.532 284.48C98.7578 281.479 97.2205 278.298 95.9777 274.934C90.8744 261.254 86.302 247.098 82.2235 232.521C69.6958 187.787 97.7329 143.069 141.901 137.071C185.302 131.163 228.445 127.908 271.296 127.432C290.244 127.194 308.186 134.676 321.773 147.387V147.385Z" fill="#F67B32"/>
<path d="M321.444 256.058C269.212 278.37 216.082 296.678 162.018 310.852C138.15 317.108 113.222 305.913 100.529 284.461C104.663 284.881 109.509 284.974 115.051 284.387C136.065 282.175 273.909 248.87 270.178 229.008C266.466 209.147 238.812 164.339 286.564 145.794C300.94 140.197 312.607 142.318 321.771 147.366C331.245 156.237 338.597 167.65 342.694 180.78C344.633 187.017 346.406 193.308 348.034 199.691C353.961 223.137 342.694 246.968 321.441 256.058H321.444Z" fill="#FFF1D6"/>
<path opacity="0.2" d="M347.779 225.607C344.03 239.032 334.665 250.388 321.444 256.057C269.211 278.37 216.082 296.678 162.018 310.852C134.822 317.984 106.235 302.44 95.9754 274.915C90.8721 261.235 86.2997 247.08 82.2212 232.502C75.984 210.227 79.8075 187.968 90.6518 170.485C85.6227 184.914 84.7995 201.21 89.3719 217.524C93.4504 232.101 98.0228 246.256 103.126 259.937C113.386 287.461 141.973 303.008 169.168 295.873C223.23 281.699 276.36 263.391 328.594 241.079C336.478 237.696 343.007 232.282 347.779 225.607Z" fill="black"/>
<path fill-rule="evenodd" clip-rule="evenodd" d="M271.261 126.012C304.1 125.638 333.892 147.868 344.017 180.382L344.017 180.382C345.954 186.616 347.747 192.906 349.358 199.291C349.366 199.315 349.373 199.34 349.379 199.365C355.481 223.418 343.923 247.969 321.979 257.347L321.978 257.347C269.683 279.686 216.488 298.016 162.357 312.208C134.418 319.538 105.14 303.558 94.6455 275.405C89.5274 261.685 84.943 247.492 80.8547 232.88C68.1148 187.37 96.6204 141.784 141.694 135.663C185.15 129.748 228.35 126.506 271.261 126.012L271.261 126.012ZM341.339 181.215C331.565 149.828 302.834 128.457 271.293 128.816C228.502 129.309 185.417 132.541 142.072 138.442L142.071 138.442C98.8085 144.317 71.2398 188.13 83.5552 232.124L83.5553 232.125C87.624 246.667 92.1844 260.785 97.273 274.425L97.2731 274.425C107.299 301.322 135.194 316.435 161.646 309.496L161.646 309.496C215.639 295.34 268.703 277.054 320.877 254.768C341.448 245.977 352.421 222.907 346.68 200.129C346.672 200.104 346.665 200.078 346.658 200.052C345.056 193.697 343.271 187.431 341.339 181.215Z" fill="#28211F"/>
<path d="M316.688 154.261C304.891 147.934 273.253 159.747 269.411 167.668C265.571 175.586 279.944 230.545 289.912 235.904C299.88 241.243 334.646 228.936 338.963 220.012C343.281 211.087 324.972 158.706 316.688 154.261Z" fill="#4E4844" fill-opacity="0.3"/>
<path d="M312.408 171.641C315.382 169.215 316.577 165.758 315.076 163.918C313.576 162.078 309.948 162.553 306.974 164.978C304 167.404 302.806 170.862 304.306 172.701C305.807 174.541 309.434 174.066 312.408 171.641Z" fill="#28211F"/>
<path d="M290.632 177.062C290.769 174.692 287.774 172.591 283.943 172.371C280.111 172.15 276.894 173.892 276.758 176.262C276.621 178.632 279.616 180.733 283.448 180.954C287.279 181.175 290.496 179.432 290.632 177.062Z" fill="#28211F"/>
<path d="M116.167 193.291C116.735 185.995 122.823 181.898 129.116 185.684C135.406 189.47 146.582 212.056 140.326 224.822C134.676 236.362 122.55 220.945 120.391 215.879C118.27 210.813 115.545 201.212 116.167 193.294V193.291Z" fill="#28211F"/>
<path d="M128.914 206.788C129.135 203.477 126.28 194.022 123.447 191.81C120.611 189.598 118.638 192.779 118.691 198.32C118.747 203.862 121.307 208.965 123.447 210.739C125.606 212.494 128.696 210.208 128.914 206.788Z" fill="white"/>
<path d="M130.635 218.036C130.16 215.989 129.081 211.398 131.384 210.777C133.688 210.155 135.189 213.137 136.23 216.262C137.273 219.39 137.217 222.298 135.223 222.81C133.248 223.341 131.219 220.58 130.633 218.036H130.635Z" fill="white"/>
<path d="M168.876 177.306C169.444 170.01 175.533 165.913 181.825 169.699C188.118 173.485 199.292 196.071 193.036 208.837C187.386 220.377 175.259 204.96 173.101 199.894C170.979 194.828 168.255 185.227 168.876 177.309V177.306Z" fill="#28211F"/>
<path d="M181.642 190.784C181.863 187.474 179.008 178.018 176.175 175.806C173.339 173.594 171.366 176.775 171.42 182.317C171.494 187.858 174.035 192.962 176.175 194.735C178.315 196.509 181.406 194.204 181.642 190.784Z" fill="white"/>
<path d="M183.342 202.051C182.867 200.004 181.789 195.413 184.091 194.792C186.396 194.17 187.896 197.152 188.937 200.278C189.98 203.405 189.925 206.313 187.931 206.825C185.937 207.338 183.943 204.595 183.34 202.051H183.342Z" fill="white"/>
<path fill-rule="evenodd" clip-rule="evenodd" d="M125.756 166.034C126.193 166.672 126.03 167.545 125.392 167.983C118.014 173.039 109.903 176.278 101.071 177.739C100.307 177.866 99.5856 177.349 99.4592 176.585C99.3328 175.821 99.8497 175.099 100.614 174.972C109.046 173.577 116.771 170.491 123.806 165.67C124.445 165.232 125.318 165.395 125.756 166.034Z" fill="#28211F"/>
<path fill-rule="evenodd" clip-rule="evenodd" d="M182.256 151.044C182.559 151.757 182.227 152.58 181.514 152.883C173.277 156.384 164.677 157.975 155.749 157.657C154.975 157.629 154.37 156.98 154.398 156.206C154.426 155.432 155.075 154.827 155.849 154.854C164.367 155.158 172.558 153.642 180.417 150.302C181.13 149.999 181.953 150.332 182.256 151.044Z" fill="#28211F"/>
<path fill-rule="evenodd" clip-rule="evenodd" d="M306.528 198.462C307.268 198.234 308.053 198.65 308.28 199.39C309.435 203.144 312.287 204.917 315.499 205.114C318.784 205.316 322.422 203.847 324.818 201.018C325.318 200.427 326.203 200.353 326.794 200.854C327.385 201.354 327.458 202.239 326.958 202.83C323.996 206.328 319.505 208.169 315.328 207.913C311.077 207.653 307.135 205.202 305.6 200.215C305.372 199.474 305.788 198.69 306.528 198.462Z" fill="#28211F"/>
<path fill-rule="evenodd" clip-rule="evenodd" d="M304.696 192.553C305.436 192.323 306.221 192.737 306.45 193.477L308.28 199.388C309.029 201.823 309.001 204.078 308.325 206.062C307.651 208.04 306.364 209.658 304.736 210.88C301.506 213.302 296.87 214.224 292.475 213.414C291.714 213.274 291.21 212.542 291.351 211.781C291.491 211.019 292.222 210.516 292.984 210.656C296.727 211.346 300.54 210.521 303.053 208.636C304.296 207.704 305.204 206.528 305.671 205.158C306.135 203.794 306.195 202.148 305.6 200.213C305.6 200.213 305.6 200.212 305.6 200.212L303.771 194.307C303.542 193.567 303.956 192.782 304.696 192.553Z" fill="#28211F"/>
</g>
<defs>
<clipPath id="clip0_4169_3087">
<rect width="400" height="400" fill="white"/>
</clipPath>
</defs>
</svg>
