<svg width="28" height="39" viewBox="0 0 28 39" fill="none" xmlns="http://www.w3.org/2000/svg">
<path fill-rule="evenodd" clip-rule="evenodd" d="M1.83612 32.2278C4.28428 36.4686 8.66937 39 13.5657 39C18.462 39 22.8463 36.4686 25.2953 32.2278C27.7434 27.9878 27.7434 22.9249 25.2953 18.6841L14.9789 0.815887C14.3508 -0.271964 12.7806 -0.271962 12.1525 0.815889L1.83612 18.6841C-0.612041 22.9241 -0.612041 27.987 1.83612 32.2278ZM10.6596 9.31659L12.8591 5.50679C13.1731 4.96285 13.9583 4.96285 14.2723 5.50679L22.7341 20.1634C24.2887 22.856 24.5805 25.9724 23.6096 28.8241C23.5084 28.3588 23.3672 27.8829 23.1766 27.402C22.0078 24.4522 19.365 22.1761 15.3201 20.6362C12.5391 19.5813 10.764 18.0299 10.0427 16.0247C9.11365 13.4401 10.084 10.6218 10.6596 9.31659ZM6.90894 15.813L4.39725 20.1634C2.48341 23.4782 2.48341 27.4353 4.39725 30.7501C6.31109 34.0649 9.73802 36.0431 13.5657 36.0431C16.108 36.0431 18.4741 35.1697 20.3373 33.6118C20.5802 33 21.3327 30.7607 20.4031 28.4527C19.5445 26.3216 17.4782 24.6202 14.2613 23.3949C10.625 22.0155 8.26262 19.8621 7.24105 16.9964C7.10035 16.6018 6.99102 16.2064 6.90894 15.813Z" fill="#15527B"/>
</svg>
