<svg width="28" height="28" viewBox="0 0 28 28" fill="none" xmlns="http://www.w3.org/2000/svg">
<rect width="28" height="28" rx="14" fill="#6FBCF0"/>
<path fill-rule="evenodd" clip-rule="evenodd" d="M7.9416 20.5271C9.19707 22.7018 11.4458 24 13.9568 24C16.4677 24 18.716 22.7018 19.9719 20.5271C21.2274 18.3527 21.2274 15.7564 19.9719 13.5816L14.6815 4.4184C14.3594 3.86053 13.5542 3.86053 13.2321 4.4184L7.9416 13.5816C6.68613 15.7559 6.68613 18.3523 7.9416 20.5271ZM12.4664 8.77774L13.5944 6.824C13.7555 6.54505 14.1581 6.54505 14.3191 6.824L18.6585 14.3402C19.4558 15.721 19.6054 17.3192 19.1075 18.7816C19.0556 18.543 18.9832 18.2989 18.8855 18.0523C18.2861 16.5396 16.9308 15.3724 14.8565 14.5827C13.4303 14.0417 12.52 13.2461 12.1501 12.2178C11.6737 10.8924 12.1713 9.44708 12.4664 8.77774ZM10.543 12.1092L9.255 14.3402C8.27355 16.0401 8.27355 18.0694 9.255 19.7693C10.2365 21.4692 11.9939 22.4836 13.9568 22.4836C15.2605 22.4836 16.4739 22.0357 17.4294 21.2368C17.554 20.9231 17.9398 19.7747 17.4631 18.5912C17.0228 17.4982 15.9632 16.6258 14.3135 15.9974C12.4487 15.29 11.2372 14.1857 10.7134 12.7161C10.6412 12.5137 10.5851 12.311 10.543 12.1092Z" fill="white"/>
</svg>
