<svg width="16" height="16" viewBox="0 0 16 16" fill="none" xmlns="http://www.w3.org/2000/svg">
<path fill-rule="evenodd" clip-rule="evenodd" d="M5.14281 4.00005C4.82722 3.68446 4.31554 3.68446 3.99995 4.00005C3.68436 4.31564 3.68436 4.82732 3.99995 5.14291L6.85707 8.00003L3.99995 10.8572C3.68436 11.1727 3.68436 11.6844 3.99995 12C4.31554 12.3156 4.82722 12.3156 5.14281 12L7.99993 9.14289L10.8571 12.0001C11.1727 12.3156 11.6844 12.3156 12 12.0001C12.3155 11.6845 12.3155 11.1728 12 10.8572L9.14279 8.00003L12 5.14287C12.3155 4.82728 12.3155 4.3156 12 4.00001C11.6844 3.68442 11.1727 3.68442 10.8571 4.00001L7.99993 6.85717L5.14281 4.00005Z" fill="white"/>
</svg>
