<svg width="16" height="16" viewBox="0 0 16 16" fill="none" xmlns="http://www.w3.org/2000/svg">
<path d="M5.33337 4H4.62073C3.90974 4 3.33337 4.57637 3.33337 5.28736V12.046C3.33337 12.757 3.90974 13.3333 4.62073 13.3333H11.3794C12.0903 13.3333 12.6667 12.757 12.6667 12.046V5.28736C12.6667 4.57637 12.0903 4 11.3794 4H10.6667" stroke-width="1.5" stroke-linecap="round" stroke-linejoin="round"/>
<path d="M5.33337 3.66666C5.33337 3.11437 5.78109 2.66666 6.33337 2.66666H9.66671C10.219 2.66666 10.6667 3.11437 10.6667 3.66666V4.33332C10.6667 4.88561 10.219 5.33332 9.66671 5.33332H6.33337C5.78109 5.33332 5.33337 4.88561 5.33337 4.33332V3.66666Z" stroke-width="1.5" stroke-linecap="round" stroke-linejoin="round"/>
</svg>
