<svg
  xmlns="http://www.w3.org/2000/svg"
  width="505"
  height="321"
  viewBox="0 0 505 321"
  fill="none"
>
  <path
    d="M287.792 115.125H217.208C211.639 115.125 207.125 119.639 207.125 125.208V195.792C207.125 201.361 211.639 205.875 217.208 205.875H287.792C293.361 205.875 297.875 201.361 297.875 195.792V125.208C297.875 119.639 293.361 115.125 287.792 115.125Z"
    stroke="#868686"
    stroke-width="2"
    stroke-linecap="round"
    stroke-linejoin="round"
  />
  <path
    d="M234.854 150.417C239.031 150.417 242.417 147.031 242.417 142.854C242.417 138.678 239.031 135.292 234.854 135.292C230.678 135.292 227.292 138.678 227.292 142.854C227.292 147.031 230.678 150.417 234.854 150.417Z"
    stroke="#868686"
    stroke-width="2"
    stroke-linecap="round"
    stroke-linejoin="round"
  />
  <path
    d="M297.875 175.625L272.667 150.417L217.208 205.875"
    stroke="#868686"
    stroke-width="2"
    stroke-linecap="round"
    stroke-linejoin="round"
  />
</svg>
