<svg width="24" height="24" viewBox="0 0 24 24" fill="none" xmlns="http://www.w3.org/2000/svg">
<path d="M8 14.1875C7.99219 17.1641 10.3438 19.4297 14.0859 19.4375H15.1719C16.1953 19.4375 16.9766 19.3594 17.4297 19.2422C18.1016 19.0781 18.7031 18.6562 18.7031 17.8828C18.7031 17.5859 18.625 17.3594 18.5312 17.1875C18.4766 17.1016 18.4922 17.0234 18.5703 16.9922C19.0859 16.7578 19.4766 16.2812 19.4766 15.6562C19.4766 15.2969 19.375 14.9766 19.2031 14.75C19.125 14.6406 19.1406 14.5469 19.2656 14.4766C19.625 14.25 19.875 13.7891 19.875 13.2656C19.875 12.8828 19.7578 12.4844 19.5547 12.2812C19.4453 12.1797 19.4609 12.1094 19.5781 12.0156C19.8281 11.7891 19.9844 11.4141 19.9844 10.9609C19.9844 10.1562 19.3516 9.5 18.5234 9.5H15.7031C15.0234 9.5 14.5781 9.15625 14.5781 8.60156C14.5781 7.54688 15.9141 5.57812 15.9141 4.14844C15.9141 3.375 15.4219 2.90625 14.75 2.90625C14.1641 2.90625 13.8594 3.28906 13.5312 3.9375C12.3359 6.24219 10.7578 8.11719 9.54688 9.72656C8.49219 11.1172 8.00781 12.3125 8 14.1875ZM4.01562 14.25C4.01562 16.6719 5.52344 18.6719 7.53125 18.6719H8.89062C7.47656 17.5938 6.85156 15.9922 6.86719 14.1719C6.875 12.2031 7.57812 10.7734 8.32031 9.79688H7.23438C5.41406 9.79688 4.01562 11.75 4.01562 14.25Z" fill="#383F47"/>
</svg>
