<svg width="24" height="24" viewBox="0 0 24 24" fill="none" xmlns="http://www.w3.org/2000/svg">
<path d="M3.78125 14.2344C3.78125 16.8984 5.49219 19.0938 7.67969 19.0938H10.1797C11.1953 19.6172 12.4141 19.9141 13.75 19.9141H14.8047C15.7969 19.9141 16.6328 19.8594 17.1797 19.7188C18.2969 19.4453 19 18.6484 19 17.6641C19 17.4844 18.9766 17.3203 18.9297 17.1641C19.4453 16.75 19.7422 16.1562 19.7422 15.5078C19.7422 15.2031 19.6797 14.9062 19.5781 14.6641C19.9297 14.2891 20.125 13.7578 20.125 13.1953C20.125 12.8359 20.0391 12.4609 19.8906 12.1797C20.0938 11.8594 20.2188 11.4141 20.2188 10.9453C20.2188 9.74219 19.2969 8.80469 18.0938 8.80469H15.2734C15.1172 8.80469 15.0156 8.73438 15.0234 8.59375C15.0625 7.8125 16.2891 5.92969 16.2891 4.39062C16.2891 3.25781 15.4922 2.4375 14.3984 2.4375C13.6016 2.4375 13.0469 2.85156 12.5312 3.84375C11.5938 5.65625 10.4375 7.26562 8.75 9.33594H7.39062C5.34375 9.33594 3.78125 11.5156 3.78125 14.2344ZM8.5 14.1719C8.5 12.5625 8.85938 11.5312 9.88281 10.1562C11.0312 8.625 12.625 6.78125 13.7656 4.5C14.0156 4.00781 14.1719 3.89844 14.4141 3.89844C14.7031 3.89844 14.8906 4.10156 14.8906 4.46875C14.8906 5.60156 13.6094 7.47656 13.6094 8.70312C13.6094 9.61719 14.3438 10.2031 15.3359 10.2031H18.0547C18.4922 10.2031 18.8203 10.5312 18.8203 10.9688C18.8203 11.2891 18.7188 11.4922 18.4609 11.7578C18.2578 11.9453 18.2344 12.2266 18.4062 12.4219C18.625 12.7422 18.7188 12.9375 18.7188 13.1953C18.7188 13.5078 18.5703 13.7734 18.2656 14.0078C18.0078 14.1875 17.9219 14.4844 18.0625 14.7891C18.2344 15.1016 18.3125 15.2578 18.3125 15.4922C18.3125 15.8594 18.0781 16.1328 17.6016 16.3906C17.3594 16.5234 17.2969 16.7812 17.3984 17.0156C17.5547 17.4141 17.5781 17.4844 17.5781 17.6562C17.5781 17.9766 17.3359 18.2344 16.8281 18.3594C16.3906 18.4766 15.6719 18.5234 14.7344 18.5234H13.8281C10.6328 18.5156 8.5 16.7109 8.5 14.1719ZM5.15625 14.2344C5.15625 12.3125 6.14844 10.7734 7.28125 10.7266C7.47656 10.7266 7.67188 10.7266 7.86719 10.7188C7.33594 11.7734 7.10156 12.8594 7.10156 14.1719C7.10156 15.5547 7.57812 16.7734 8.45312 17.7344C8.17188 17.7344 7.89062 17.7344 7.60156 17.7344C6.28125 17.6875 5.15625 16.1328 5.15625 14.2344Z" fill="#383F47"/>
</svg>
