<svg width="10" height="8" viewBox="0 0 10 8" fill="none" xmlns="http://www.w3.org/2000/svg">
<path d="M9.20005 4.79461H3.13165L4.96593 6.62647C5.04233 6.70017 5.10328 6.78832 5.1452 6.88579C5.18712 6.98326 5.20919 7.08809 5.21011 7.19416C5.21104 7.30024 5.1908 7.40544 5.15058 7.50362C5.11035 7.6018 5.05096 7.691 4.97585 7.76601C4.90074 7.84102 4.81142 7.90034 4.71311 7.94051C4.6148 7.98068 4.50946 8.00089 4.40325 7.99997C4.29703 7.99905 4.19206 7.97701 4.09446 7.93514C3.99687 7.89327 3.9086 7.83241 3.83481 7.75611L0.635015 4.56053C0.560518 4.48632 0.501413 4.39816 0.461086 4.3011C0.420758 4.20405 0.4 4.1 0.4 3.99491C0.4 3.88983 0.420758 3.78578 0.461086 3.68872C0.501413 3.59167 0.560518 3.50351 0.635015 3.4293L3.83481 0.233721C3.98501 0.0839224 4.18866 -0.000149622 4.40093 1.999e-07C4.61321 0.000150022 4.81673 0.0845095 4.96673 0.23452C5.11673 0.384531 5.20091 0.587906 5.20076 0.799903C5.20061 1.0119 5.11614 1.21516 4.96593 1.36496L3.13165 3.19682H9.20005C9.41221 3.19682 9.61568 3.28099 9.7657 3.43081C9.91572 3.58063 10 3.78383 10 3.99571C10 4.20759 9.91572 4.41079 9.7657 4.56062C9.61568 4.71044 9.41221 4.79461 9.20005 4.79461Z" fill="#898D93"/>
</svg>
