<svg width="12" height="10" viewBox="0 0 12 10" fill="none" xmlns="http://www.w3.org/2000/svg">
<path d="M11.001 5.99326H3.41498L5.70798 8.28309C5.80349 8.37521 5.87967 8.4854 5.93208 8.60723C5.98449 8.72907 6.01207 8.86011 6.01323 8.9927C6.01438 9.1253 5.98908 9.2568 5.9388 9.37952C5.88852 9.50225 5.81426 9.61375 5.72037 9.70751C5.62648 9.80127 5.51483 9.87542 5.39193 9.92564C5.26903 9.97585 5.13735 10.0011 5.00458 9.99996C4.8718 9.99881 4.74058 9.97126 4.61857 9.91893C4.49657 9.86659 4.38622 9.79051 4.29398 9.69513L0.293977 5.70066C0.20085 5.6079 0.126965 5.4977 0.0765514 5.37638C0.0261383 5.25506 0.000188828 5.125 0.000188828 4.99364C0.000188828 4.86229 0.0261383 4.73223 0.0765514 4.61091C0.126965 4.48958 0.20085 4.37938 0.293977 4.28662L4.29398 0.292152C4.48175 0.104903 4.73632 -0.000187027 5.00168 2.49876e-07C5.26705 0.000187527 5.52147 0.105637 5.70898 0.293151C5.89648 0.480664 6.00172 0.734882 6.00153 0.999879C6.00135 1.26488 5.89575 1.51895 5.70798 1.70619L3.41498 3.99602H11.001C11.2662 3.99602 11.5205 4.10123 11.7081 4.28851C11.8956 4.47579 12.001 4.72979 12.001 4.99464C12.001 5.25949 11.8956 5.51349 11.7081 5.70077C11.5205 5.88805 11.2662 5.99326 11.001 5.99326Z" fill="#A0B6C3"/>
</svg>
