<svg width="22" height="22" viewBox="0 0 22 22" fill="none" xmlns="http://www.w3.org/2000/svg">
<path d="M1.33337 16.3334L4.99496 11.6756C6.03324 10.3548 8.01941 10.3116 9.11417 11.586L12.3334 15.3334M9.55337 12.0974C10.9363 10.3383 12.8631 7.84611 12.9886 7.68396C12.993 7.67816 12.9972 7.67268 13.0018 7.66693C14.042 6.35468 16.0218 6.31445 17.1142 7.586L20.3334 11.3334M4.00004 20.6667H18C19.4728 20.6667 20.6667 19.4728 20.6667 18V4.00004C20.6667 2.52728 19.4728 1.33337 18 1.33337H4.00004C2.52728 1.33337 1.33337 2.52728 1.33337 4.00004V18C1.33337 19.4728 2.52728 20.6667 4.00004 20.6667Z" stroke="#C3C5C8" stroke-width="1.5" stroke-linecap="round" stroke-linejoin="round"/>
</svg>

