<svg width="16" height="16" viewBox="0 0 16 16" fill="none" xmlns="http://www.w3.org/2000/svg">
<circle cx="8" cy="8" r="8" fill="#2DD7A7"/>
<path d="M10.4353 5.12024L10.4353 5.12023L10.4342 5.12153L6.83094 9.23677L5.56585 7.7919L5.56586 7.79189L5.5647 7.79061C5.4368 7.64953 5.2625 7.56858 5.07846 7.57041C4.89445 7.57223 4.72155 7.6566 4.59597 7.80003C4.47074 7.94306 4.40153 8.13406 4.40002 8.33141C4.39852 8.52876 4.46481 8.72098 4.58773 8.86633L4.58772 8.86634L4.58885 8.86763L6.34244 10.8704L6.34245 10.8704C6.46948 11.0155 6.64482 11.1 6.83094 11.1C7.01706 11.1 7.1924 11.0155 7.31943 10.8704L7.31944 10.8704L11.4112 6.19725L11.4112 6.19726L11.4123 6.19595C11.5352 6.05061 11.6015 5.85838 11.6 5.66103C11.5985 5.46368 11.5293 5.27269 11.404 5.12966C11.2784 4.98623 11.1056 4.90186 10.9215 4.90003C10.7375 4.8982 10.5632 4.97916 10.4353 5.12024Z" fill="white" stroke="white" stroke-width="0.2"/>
</svg>
