<svg width="24" height="24" viewBox="0 0 24 24" fill="none" xmlns="http://www.w3.org/2000/svg">
<path d="M20.2188 10.3281C20.2188 7.66406 18.5078 5.46875 16.3203 5.46875H13.8203C12.8047 4.94531 11.5859 4.64844 10.25 4.64844H9.19531C8.20312 4.64844 7.375 4.70312 6.82031 4.84375C5.70312 5.11719 5 5.91406 5 6.89844C5 7.07812 5.02344 7.24219 5.07031 7.40625C4.55469 7.8125 4.25781 8.40625 4.25781 9.05469C4.25781 9.35938 4.32031 9.65625 4.42188 9.89844C4.07812 10.2734 3.875 10.8047 3.875 11.3672C3.875 11.7266 3.96094 12.1016 4.10938 12.3828C3.90625 12.7031 3.78125 13.1484 3.78125 13.6172C3.78125 14.8203 4.70312 15.7578 5.91406 15.7578H8.72656C8.88281 15.7578 8.98438 15.8281 8.97656 15.9688C8.9375 16.75 7.71094 18.6328 7.71094 20.1719C7.71094 21.3047 8.50781 22.125 9.60156 22.125C10.3984 22.125 10.9531 21.7109 11.4688 20.7188C12.4141 18.9062 13.5625 17.2969 15.25 15.2266H16.6094C18.6562 15.2266 20.2188 13.0469 20.2188 10.3281ZM15.5 10.3906C15.5 12 15.1406 13.0312 14.1172 14.4062C12.9688 15.9375 11.375 17.7812 10.2344 20.0625C9.98438 20.5547 9.82812 20.6641 9.58594 20.6641C9.29688 20.6641 9.10938 20.4609 9.10938 20.0938C9.10938 18.9609 10.3906 17.0859 10.3906 15.8594C10.3906 14.9453 9.65625 14.3594 8.66406 14.3594H5.94531C5.50781 14.3594 5.17969 14.0312 5.17969 13.5938C5.17969 13.2734 5.28125 13.0703 5.53906 12.8047C5.74219 12.6172 5.76562 12.3359 5.59375 12.1406C5.375 11.8203 5.28125 11.625 5.28125 11.3672C5.28125 11.0547 5.42969 10.7891 5.73438 10.5547C5.99219 10.375 6.07812 10.0781 5.9375 9.77344C5.76562 9.46094 5.6875 9.30469 5.6875 9.07031C5.6875 8.70312 5.92188 8.42969 6.39844 8.17188C6.64062 8.03906 6.70312 7.78125 6.60156 7.54688C6.44531 7.14844 6.42188 7.07812 6.42188 6.90625C6.42188 6.58594 6.66406 6.32812 7.17188 6.20312C7.60938 6.08594 8.32812 6.03906 9.26562 6.03906H10.1719C13.3672 6.05469 15.5 7.85156 15.5 10.3906ZM18.8438 10.3281C18.8438 12.25 17.8516 13.7891 16.7188 13.8359C16.5234 13.8359 16.3281 13.8438 16.1328 13.8438C16.6641 12.7969 16.8984 11.7031 16.8984 10.3984C16.8984 9.00781 16.4219 7.78906 15.5469 6.82812C15.8281 6.82812 16.1094 6.82812 16.3984 6.82812C17.7188 6.875 18.8438 8.42969 18.8438 10.3281Z" fill="#383F47"/>
</svg>
